M48
; DRILL file {KiCad (6.0.1)} date Mon Aug  1 23:00:41 2022
; FORMAT={-:-/ absolute / metric / decimal}
; #@! TF.CreationDate,2022-08-01T23:00:41+09:00
; #@! TF.GenerationSoftware,Kicad,Pcbnew,(6.0.1)
; #@! TF.FileFunction,NonPlated,1,2,NPTH
FMAT,2
METRIC
; #@! TA.AperFunction,NonPlated,NPTH,ComponentDrill
T1C0.600
; #@! TA.AperFunction,NonPlated,NPTH,ComponentDrill
T2C1.750
; #@! TA.AperFunction,NonPlated,NPTH,ComponentDrill
T3C3.000
; #@! TA.AperFunction,NonPlated,NPTH,ComponentDrill
T4C3.048
; #@! TA.AperFunction,NonPlated,NPTH,ComponentDrill
T5C3.988
%
G90
G05
T1
X155.07Y-5.325
X160.85Y-5.325
T2
X20.638Y-95.25
X27.856Y-76.2
X28.162Y-57.15
X28.448Y-19.05
X28.925Y-38.1
X30.798Y-95.25
X38.016Y-76.2
X38.322Y-57.15
X38.608Y-19.05
X39.085Y-38.1
X47.498Y-19.05
X52.737Y-38.1
X54.356Y-57.15
X57.658Y-19.05
X58.737Y-76.2
X62.897Y-38.1
X64.516Y-57.15
X66.548Y-17.526
X68.897Y-76.2
X73.776Y-37.416
X74.74Y-97.021
X75.405Y-57.238
X76.708Y-17.526
X80.761Y-77.852
X83.714Y-39.528
X84.678Y-99.134
X85.343Y-59.35
X87.053Y-20.763
X90.699Y-79.964
X92.41Y-41.377
X94.039Y-61.199
X96.991Y-22.875
X99.395Y-81.813
X102.347Y-43.489
X103.977Y-63.311
X105.687Y-24.723
X107.546Y-103.021
X109.333Y-83.925
X111.043Y-45.337
X112.651Y-65.144
X115.625Y-26.836
X117.484Y-105.133
X118.029Y-85.773
X120.981Y-47.45
X122.589Y-67.256
X124.321Y-28.684
X127.967Y-87.886
X129.677Y-49.298
X131.306Y-69.12
X134.259Y-30.796
X135.497Y-108.962
X136.663Y-89.734
X139.615Y-51.41
X141.244Y-71.232
X142.955Y-32.645
X145.435Y-111.074
X146.6Y-91.846
X152.892Y-34.757
X163.996Y-53.074
X166.327Y-91.53
X169.352Y-32.46
X170.751Y-71.114
X173.933Y-50.962
X176.265Y-89.417
X179.29Y-30.348
X180.689Y-69.001
X182.629Y-49.113
X184.961Y-87.569
X186.592Y-106.698
X187.985Y-28.499
X189.385Y-67.153
X192.567Y-47.001
X194.898Y-85.457
X196.53Y-104.585
X197.923Y-26.387
X199.323Y-65.041
X201.263Y-45.153
X203.594Y-83.608
X206.619Y-24.538
X208.019Y-63.192
X211.201Y-43.04
X213.532Y-81.496
X216.557Y-22.426
X217.957Y-61.08
X219.897Y-41.192
X222.228Y-79.647
X225.253Y-20.578
X226.387Y-99.213
X226.652Y-59.231
X229.835Y-39.08
X232.166Y-77.535
X235.191Y-18.465
X236.325Y-97.1
X236.59Y-57.119
X242.189Y-37.338
X242.951Y-76.2
X245.999Y-18.288
X247.523Y-57.15
X252.349Y-37.338
X253.111Y-76.2
X256.159Y-18.288
X257.683Y-57.15
X261.239Y-38.1
X262.001Y-76.2
X265.049Y-19.05
X266.573Y-57.15
X271.399Y-38.1
X271.526Y-95.25
X272.161Y-76.2
X275.209Y-19.05
X276.733Y-57.15
X280.289Y-38.1
X281.686Y-95.25
X288.195Y-76.2
X290.449Y-38.1
X293.624Y-19.05
X295.339Y-95.25
X297.604Y-57.15
X298.355Y-76.2
X303.784Y-19.05
X304.102Y-38.1
X305.498Y-95.25
X307.764Y-57.15
X314.262Y-38.1
X314.388Y-76.2
X314.388Y-95.25
X324.548Y-76.2
X324.548Y-95.25
X325.818Y-17.145
X329.628Y-36.195
X333.438Y-55.245
X333.438Y-95.25
X335.978Y-17.145
X339.788Y-36.195
X343.599Y-55.245
X343.599Y-95.25
T3
X21.908Y-92.71
X28.258Y-90.17
X29.126Y-73.66
X29.432Y-54.61
X29.718Y-16.51
X30.195Y-35.56
X35.476Y-71.12
X35.782Y-52.07
X36.068Y-13.97
X36.545Y-33.02
X48.768Y-16.51
X54.007Y-35.56
X55.118Y-13.97
X55.626Y-54.61
X60.008Y-73.66
X60.357Y-33.02
X61.976Y-52.07
X66.358Y-71.12
X67.818Y-14.986
X74.168Y-12.446
X75.546Y-35.196
X76.51Y-94.801
X77.176Y-55.017
X82.285Y-34.031
X82.532Y-75.632
X83.249Y-93.637
X83.915Y-53.853
X88.824Y-18.542
X89.271Y-74.467
X94.18Y-39.156
X95.563Y-17.378
X95.809Y-58.978
X100.919Y-37.992
X101.165Y-79.592
X102.549Y-57.814
X107.457Y-22.503
X107.905Y-78.428
X109.317Y-100.8
X112.814Y-43.117
X114.197Y-21.339
X114.421Y-62.923
X116.056Y-99.636
X119.553Y-41.953
X119.799Y-83.553
X121.161Y-61.759
X126.091Y-26.464
X126.538Y-82.389
X131.447Y-47.078
X132.83Y-25.299
X133.077Y-66.9
X137.267Y-106.742
X138.187Y-45.913
X138.433Y-87.514
X139.816Y-65.735
X144.006Y-105.577
X144.725Y-30.424
X145.172Y-86.349
X151.464Y-29.26
X164.71Y-50.326
X167.041Y-88.781
X170.066Y-29.711
X170.393Y-46.521
X171.465Y-68.365
X172.724Y-84.976
X175.749Y-25.907
X177.149Y-64.56
X183.343Y-46.365
X185.675Y-84.82
X187.306Y-103.949
X188.699Y-25.751
X189.027Y-42.56
X190.099Y-64.404
X191.358Y-81.016
X192.99Y-100.144
X194.383Y-21.946
X195.782Y-60.6
X201.977Y-42.404
X204.308Y-80.86
X207.333Y-21.79
X207.66Y-38.599
X208.733Y-60.444
X209.992Y-77.055
X213.016Y-17.985
X214.416Y-56.639
X220.611Y-38.443
X222.942Y-76.899
X225.967Y-17.829
X226.294Y-34.639
X227.101Y-96.464
X227.367Y-56.483
X228.625Y-73.094
X231.65Y-14.025
X232.785Y-92.66
X233.05Y-52.678
X243.459Y-34.798
X244.221Y-73.66
X247.269Y-15.748
X248.793Y-54.61
X249.809Y-32.258
X250.571Y-71.12
X253.619Y-13.208
X255.143Y-52.07
X262.509Y-35.56
X263.271Y-73.66
X266.319Y-16.51
X267.843Y-54.61
X268.859Y-33.02
X269.621Y-71.12
X272.669Y-13.97
X272.796Y-92.71
X274.193Y-52.07
X279.147Y-90.17
X281.559Y-35.56
X287.909Y-33.02
X289.465Y-73.66
X294.894Y-16.51
X295.815Y-71.12
X296.608Y-92.71
X298.874Y-54.61
X301.244Y-13.97
X302.958Y-90.17
X305.224Y-52.07
X305.372Y-35.56
X311.722Y-33.02
X315.659Y-73.66
X315.659Y-92.71
X322.008Y-71.12
X322.008Y-90.17
X327.089Y-14.605
X330.899Y-33.655
X333.438Y-12.065
X334.708Y-52.705
X334.708Y-92.71
X337.248Y-31.115
X341.058Y-50.165
X341.058Y-90.17
T4
X20.998Y-69.215
X44.874Y-69.215
X99.386Y-108.427
X122.74Y-113.392
X181.336Y-114.956
X204.691Y-109.992
X286.766Y-12.065
X290.746Y-50.165
X310.642Y-12.065
X314.622Y-50.165
T5
X20.998Y-84.455
X25.718Y-95.25
X32.936Y-76.2
X33.242Y-57.15
X33.528Y-19.05
X34.005Y-38.1
X44.874Y-84.455
X52.578Y-19.05
X57.817Y-38.1
X59.436Y-57.15
X63.817Y-76.2
X71.628Y-17.526
X78.745Y-38.472
X79.709Y-98.078
X80.374Y-58.294
X85.73Y-78.908
X92.022Y-21.819
X97.379Y-42.433
X99.008Y-62.255
X102.554Y-93.52
X104.364Y-82.869
X110.656Y-25.78
X112.515Y-104.077
X116.012Y-46.394
X117.62Y-66.2
X122.998Y-86.83
X125.909Y-98.485
X129.29Y-29.74
X134.646Y-50.354
X136.275Y-70.176
X140.466Y-110.018
X141.631Y-90.79
X147.923Y-33.701
X168.964Y-52.018
X171.296Y-90.474
X174.321Y-31.404
X175.72Y-70.057
X178.168Y-100.049
X187.598Y-48.057
X189.929Y-86.513
X191.561Y-105.641
X192.954Y-27.443
X194.354Y-66.097
X201.522Y-95.085
X206.232Y-44.096
X208.563Y-82.552
X211.588Y-23.482
X212.988Y-62.136
X224.866Y-40.136
X227.197Y-78.591
X230.222Y-19.522
X231.356Y-98.157
X231.621Y-58.175
X247.269Y-37.338
X248.031Y-76.2
X251.079Y-18.288
X252.603Y-57.15
X266.319Y-38.1
X267.081Y-76.2
X270.129Y-19.05
X271.653Y-57.15
X276.606Y-95.25
X285.369Y-38.1
X286.766Y-27.305
X290.746Y-65.405
X293.275Y-76.2
X298.704Y-19.05
X300.418Y-95.25
X302.684Y-57.15
X309.182Y-38.1
X310.642Y-27.305
X314.622Y-65.405
X319.469Y-76.2
X319.469Y-95.25
X330.899Y-17.145
X334.708Y-36.195
X338.518Y-55.245
X338.518Y-95.25
T0
M30
