G04 #@! TF.GenerationSoftware,KiCad,Pcbnew,(6.0.1)*
G04 #@! TF.CreationDate,2022-08-01T23:00:38+09:00*
G04 #@! TF.ProjectId,Skeleton68_underglow,536b656c-6574-46f6-9e36-385f756e6465,rev?*
G04 #@! TF.SameCoordinates,Original*
G04 #@! TF.FileFunction,Paste,Bot*
G04 #@! TF.FilePolarity,Positive*
%FSLAX46Y46*%
G04 Gerber Fmt 4.6, Leading zero omitted, Abs format (unit mm)*
G04 Created by KiCad (PCBNEW (6.0.1)) date 2022-08-01 23:00:38*
%MOMM*%
%LPD*%
G01*
G04 APERTURE LIST*
G04 Aperture macros list*
%AMRoundRect*
0 Rectangle with rounded corners*
0 $1 Rounding radius*
0 $2 $3 $4 $5 $6 $7 $8 $9 X,Y pos of 4 corners*
0 Add a 4 corners polygon primitive as box body*
4,1,4,$2,$3,$4,$5,$6,$7,$8,$9,$2,$3,0*
0 Add four circle primitives for the rounded corners*
1,1,$1+$1,$2,$3*
1,1,$1+$1,$4,$5*
1,1,$1+$1,$6,$7*
1,1,$1+$1,$8,$9*
0 Add four rect primitives between the rounded corners*
20,1,$1+$1,$2,$3,$4,$5,0*
20,1,$1+$1,$4,$5,$6,$7,0*
20,1,$1+$1,$6,$7,$8,$9,0*
20,1,$1+$1,$8,$9,$2,$3,0*%
%AMRotRect*
0 Rectangle, with rotation*
0 The origin of the aperture is its center*
0 $1 length*
0 $2 width*
0 $3 Rotation angle, in degrees counterclockwise*
0 Add horizontal line*
21,1,$1,$2,0,0,$3*%
G04 Aperture macros list end*
%ADD10RotRect,2.550000X2.500000X192.000000*%
%ADD11RotRect,0.900000X1.200000X102.000000*%
%ADD12R,1.200000X0.900000*%
%ADD13RotRect,2.550000X2.500000X168.000000*%
%ADD14RoundRect,0.250000X-0.275000X-0.275000X0.275000X-0.275000X0.275000X0.275000X-0.275000X0.275000X0*%
%ADD15RoundRect,0.062500X-0.475000X-0.062500X0.475000X-0.062500X0.475000X0.062500X-0.475000X0.062500X0*%
%ADD16RoundRect,0.062500X-0.062500X-0.475000X0.062500X-0.475000X0.062500X0.475000X-0.062500X0.475000X0*%
%ADD17RotRect,0.900000X1.200000X78.000000*%
%ADD18R,2.550000X2.500000*%
%ADD19RoundRect,0.250000X-0.475000X0.250000X-0.475000X-0.250000X0.475000X-0.250000X0.475000X0.250000X0*%
%ADD20RoundRect,0.250000X0.450000X-0.262500X0.450000X0.262500X-0.450000X0.262500X-0.450000X-0.262500X0*%
%ADD21RoundRect,0.250000X-0.450000X0.262500X-0.450000X-0.262500X0.450000X-0.262500X0.450000X0.262500X0*%
%ADD22RotRect,1.500000X1.000000X168.000000*%
%ADD23R,1.400000X1.200000*%
%ADD24RoundRect,0.250000X0.375000X0.625000X-0.375000X0.625000X-0.375000X-0.625000X0.375000X-0.625000X0*%
%ADD25R,1.400000X1.000000*%
%ADD26RoundRect,0.250000X0.262500X0.450000X-0.262500X0.450000X-0.262500X-0.450000X0.262500X-0.450000X0*%
%ADD27RotRect,1.500000X1.000000X348.000000*%
%ADD28R,1.800000X1.100000*%
%ADD29RoundRect,0.250000X0.250000X0.475000X-0.250000X0.475000X-0.250000X-0.475000X0.250000X-0.475000X0*%
%ADD30R,1.500000X1.000000*%
%ADD31RotRect,1.500000X1.000000X192.000000*%
%ADD32RotRect,1.500000X1.000000X12.000000*%
%ADD33R,0.600000X1.160000*%
%ADD34R,0.300000X1.160000*%
%ADD35RoundRect,0.250000X0.475000X-0.250000X0.475000X0.250000X-0.475000X0.250000X-0.475000X-0.250000X0*%
G04 APERTURE END LIST*
D10*
X224163129Y-57163859D03*
X236279547Y-51991690D03*
D11*
X184377554Y-69904144D03*
X183691446Y-66676256D03*
D12*
X42028000Y-20700000D03*
X42028000Y-17400000D03*
X345080000Y-100270000D03*
X345080000Y-96970000D03*
D13*
X104254020Y-21822051D03*
X117426630Y-22025230D03*
D11*
X203011254Y-65943444D03*
X202325146Y-62715556D03*
X233522854Y-39982344D03*
X232836746Y-36754456D03*
D14*
X156430000Y-74750000D03*
X157730000Y-73450000D03*
X156430000Y-70850000D03*
X160330000Y-74750000D03*
X160330000Y-72150000D03*
X160330000Y-70850000D03*
X159030000Y-70850000D03*
X157730000Y-72150000D03*
X156430000Y-73450000D03*
X157730000Y-74750000D03*
X159030000Y-74750000D03*
X157730000Y-70850000D03*
X159030000Y-73450000D03*
X159030000Y-72150000D03*
X160330000Y-73450000D03*
X156430000Y-72150000D03*
D15*
X155042500Y-75300000D03*
X155042500Y-74800000D03*
X155042500Y-74300000D03*
X155042500Y-73800000D03*
X155042500Y-73300000D03*
X155042500Y-72800000D03*
X155042500Y-72300000D03*
X155042500Y-71800000D03*
X155042500Y-71300000D03*
X155042500Y-70800000D03*
X155042500Y-70300000D03*
D16*
X155880000Y-69462500D03*
X156380000Y-69462500D03*
X156880000Y-69462500D03*
X157380000Y-69462500D03*
X157880000Y-69462500D03*
X158380000Y-69462500D03*
X158880000Y-69462500D03*
X159380000Y-69462500D03*
X159880000Y-69462500D03*
X160380000Y-69462500D03*
X160880000Y-69462500D03*
D15*
X161717500Y-70300000D03*
X161717500Y-70800000D03*
X161717500Y-71300000D03*
X161717500Y-71800000D03*
X161717500Y-72300000D03*
X161717500Y-72800000D03*
X161717500Y-73300000D03*
X161717500Y-73800000D03*
X161717500Y-74300000D03*
X161717500Y-74800000D03*
X161717500Y-75300000D03*
D16*
X160880000Y-76137500D03*
X160380000Y-76137500D03*
X159880000Y-76137500D03*
X159380000Y-76137500D03*
X158880000Y-76137500D03*
X158380000Y-76137500D03*
X157880000Y-76137500D03*
X157380000Y-76137500D03*
X156880000Y-76137500D03*
X156380000Y-76137500D03*
X155880000Y-76137500D03*
D17*
X99993546Y-25200044D03*
X100679654Y-21972156D03*
D18*
X327623500Y-33655000D03*
X340550500Y-31115000D03*
D11*
X201611654Y-27289744D03*
X200925546Y-24061856D03*
D13*
X109610120Y-42436051D03*
X122782730Y-42639230D03*
D10*
X186895629Y-65085259D03*
X199012047Y-59913090D03*
D17*
X137260946Y-33121444D03*
X137947054Y-29893556D03*
D18*
X312383500Y-92710000D03*
X325310500Y-90170000D03*
D12*
X307204000Y-20700000D03*
X307204000Y-17400000D03*
D18*
X323813500Y-14605000D03*
X336740500Y-12065000D03*
D19*
X156850000Y-54780000D03*
X156850000Y-56680000D03*
D10*
X204129729Y-22470859D03*
X216246147Y-17298690D03*
D20*
X158460000Y-89032500D03*
X158460000Y-87207500D03*
D10*
X198773629Y-43084959D03*
X210890047Y-37912790D03*
D12*
X67936000Y-58800000D03*
X67936000Y-55500000D03*
D10*
X163837529Y-89462059D03*
X175953947Y-84289890D03*
D18*
X259996000Y-73660000D03*
X272923000Y-71120000D03*
D21*
X155500000Y-15587500D03*
X155500000Y-17412500D03*
D17*
X87679846Y-101458844D03*
X88365954Y-98230956D03*
X88345346Y-61675344D03*
X89031454Y-58447456D03*
D18*
X331433500Y-52705000D03*
X344360500Y-50165000D03*
D13*
X92605820Y-58297251D03*
X105778430Y-58500430D03*
D22*
X120609120Y-91664347D03*
X119943803Y-94794420D03*
X115150880Y-93775653D03*
X115816197Y-90645580D03*
D13*
X85620320Y-17861251D03*
X98792930Y-18064430D03*
D12*
X345870000Y-58150000D03*
X345870000Y-54850000D03*
D11*
X235854254Y-78438044D03*
X235168146Y-75210156D03*
D10*
X219738629Y-77579859D03*
X231855047Y-72407690D03*
D11*
X177621754Y-51864544D03*
X176935646Y-48636656D03*
X198586754Y-86359444D03*
X197900646Y-83131556D03*
D10*
X205529429Y-61124559D03*
X217645847Y-55952390D03*
D12*
X275581000Y-77850000D03*
X275581000Y-74550000D03*
D18*
X259234000Y-35560000D03*
X272161000Y-33020000D03*
D12*
X280153000Y-58800000D03*
X280153000Y-55500000D03*
X327968500Y-96900000D03*
X327968500Y-93600000D03*
D10*
X223897929Y-97145159D03*
X236014347Y-91972990D03*
D18*
X240946000Y-73660000D03*
X253873000Y-71120000D03*
D10*
X201104929Y-81540659D03*
X213221347Y-76368490D03*
X222763429Y-18510159D03*
X234879847Y-13337990D03*
X182471229Y-85501359D03*
X194587647Y-80329190D03*
D13*
X116595720Y-82872051D03*
X129768330Y-83075230D03*
X72342720Y-34514651D03*
X85515330Y-34717830D03*
D17*
X106979146Y-65636044D03*
X107665254Y-62408156D03*
D18*
X50731800Y-35560000D03*
X63658800Y-33020000D03*
X278284000Y-35560000D03*
X291211000Y-33020000D03*
D17*
X155894746Y-37082144D03*
X156580854Y-33854256D03*
D12*
X41435600Y-77850000D03*
X41435600Y-74550000D03*
X80128000Y-19176000D03*
X80128000Y-15876000D03*
D18*
X26157500Y-54610000D03*
X39084500Y-52070000D03*
D10*
X166862329Y-30392359D03*
X178978747Y-25220190D03*
D23*
X154700000Y-59350000D03*
X156900000Y-59350000D03*
X156900000Y-61050000D03*
X154700000Y-61050000D03*
D17*
X93701546Y-82289344D03*
X94387654Y-79061456D03*
D13*
X106113120Y-100119551D03*
X119285730Y-100322730D03*
D18*
X291619000Y-16510000D03*
X304546000Y-13970000D03*
D10*
X168261929Y-69046059D03*
X180378347Y-63873890D03*
D13*
X141521420Y-29743451D03*
X154694030Y-29946630D03*
D24*
X149900000Y-15000000D03*
X147100000Y-15000000D03*
D10*
X184102929Y-104630059D03*
X196219347Y-99457890D03*
D23*
X168600000Y-13230000D03*
D25*
X168600000Y-14950000D03*
X166400000Y-14950000D03*
X166400000Y-13050000D03*
D18*
X264568000Y-54610000D03*
X277495000Y-52070000D03*
D22*
X86829120Y-84864347D03*
X86163803Y-87994420D03*
X81370880Y-86975653D03*
X82036197Y-83845580D03*
D26*
X149122500Y-79570000D03*
X147297500Y-79570000D03*
D12*
X274819000Y-39750000D03*
X274819000Y-36450000D03*
D13*
X134063720Y-106060651D03*
X147236330Y-106263830D03*
D27*
X123000880Y-37250653D03*
X123666197Y-34120580D03*
X128459120Y-35139347D03*
X127793803Y-38269420D03*
D10*
X161506229Y-51006459D03*
X173622647Y-45834290D03*
D19*
X134250000Y-14050000D03*
X134250000Y-15950000D03*
D12*
X337910000Y-22820000D03*
X337910000Y-19520000D03*
D28*
X153860000Y-92770000D03*
X160060000Y-92770000D03*
X153860000Y-96470000D03*
X160060000Y-96470000D03*
D13*
X122887720Y-25782751D03*
X136060330Y-25985930D03*
D29*
X149160000Y-77280000D03*
X147260000Y-77280000D03*
D12*
X326480000Y-80820000D03*
X326480000Y-77520000D03*
D18*
X295598600Y-54610000D03*
X308525600Y-52070000D03*
D13*
X128243820Y-46396751D03*
X141416430Y-46599930D03*
D17*
X105349746Y-45814144D03*
X106035854Y-42586256D03*
D11*
X196255454Y-47903844D03*
X195569346Y-44675956D03*
D12*
X341790000Y-37010000D03*
X341790000Y-33710000D03*
D13*
X129873220Y-66218751D03*
X143045830Y-66421930D03*
D18*
X269521500Y-92710000D03*
X282448500Y-90170000D03*
X331433500Y-92710000D03*
X344360500Y-90170000D03*
X286190000Y-73660000D03*
X299117000Y-71120000D03*
D12*
X311183600Y-58800000D03*
X311183600Y-55500000D03*
D21*
X159000000Y-15587500D03*
X159000000Y-17412500D03*
D13*
X90976420Y-38475351D03*
X104149030Y-38678530D03*
D18*
X26919800Y-35560000D03*
X39846800Y-33020000D03*
D11*
X238879054Y-19368344D03*
X238192946Y-16140456D03*
D13*
X73972120Y-54336551D03*
X87144730Y-54539730D03*
D11*
X182977854Y-31250444D03*
X182291746Y-28022556D03*
D12*
X261103000Y-58800000D03*
X261103000Y-55500000D03*
D10*
X217407329Y-39124259D03*
X229523747Y-33952090D03*
D21*
X169000000Y-17087500D03*
X169000000Y-18912500D03*
D17*
X149602646Y-94171544D03*
X150288754Y-90943656D03*
D18*
X245518000Y-54610000D03*
X258445000Y-52070000D03*
D30*
X254725000Y-28270000D03*
X254725000Y-25070000D03*
X259625000Y-25070000D03*
X259625000Y-28270000D03*
D17*
X118627246Y-29160744D03*
X119313354Y-25932856D03*
D12*
X61078000Y-20700000D03*
X61078000Y-17400000D03*
D30*
X274865000Y-81267500D03*
X274865000Y-84467500D03*
X269965000Y-84467500D03*
X269965000Y-81267500D03*
D18*
X45493000Y-16510000D03*
X58420000Y-13970000D03*
D12*
X308918500Y-96900000D03*
X308918500Y-93600000D03*
D31*
X188753803Y-92223080D03*
X189419120Y-95353153D03*
X184626197Y-96371920D03*
X183960880Y-93241847D03*
D32*
X210343697Y-32554420D03*
X209678380Y-29424347D03*
X214471303Y-28405580D03*
X215136620Y-31535653D03*
D18*
X240184000Y-34798000D03*
X253111000Y-32258000D03*
D11*
X200218554Y-105488244D03*
X199532446Y-102260356D03*
D33*
X154760000Y-6385000D03*
X155560000Y-6385000D03*
D34*
X156710000Y-6385000D03*
X157710000Y-6385000D03*
X158210000Y-6385000D03*
X159210000Y-6385000D03*
D33*
X160360000Y-6385000D03*
X161160000Y-6385000D03*
X161160000Y-6385000D03*
X160360000Y-6385000D03*
D34*
X159710000Y-6385000D03*
X158710000Y-6385000D03*
X157210000Y-6385000D03*
X156210000Y-6385000D03*
D33*
X155560000Y-6385000D03*
X154760000Y-6385000D03*
D18*
X26443000Y-16510000D03*
X39370000Y-13970000D03*
D13*
X111217920Y-62242451D03*
X124390530Y-62445630D03*
D12*
X255769000Y-38988000D03*
X255769000Y-35688000D03*
D18*
X64543000Y-14986000D03*
X77470000Y-12446000D03*
D30*
X313917500Y-81267500D03*
X313917500Y-84467500D03*
X309017500Y-84467500D03*
X309017500Y-81267500D03*
D17*
X112335246Y-86250144D03*
X113021354Y-83022256D03*
D12*
X293869000Y-39750000D03*
X293869000Y-36450000D03*
D31*
X223996303Y-84603080D03*
X224661620Y-87733153D03*
X219868697Y-88751920D03*
X219203380Y-85621847D03*
D12*
X42504800Y-39750000D03*
X42504800Y-36450000D03*
D17*
X147656946Y-112113944D03*
X148343054Y-108886056D03*
D12*
X256531000Y-77850000D03*
X256531000Y-74550000D03*
D17*
X86716046Y-41853344D03*
X87402154Y-38625456D03*
D12*
X41742500Y-58800000D03*
X41742500Y-55500000D03*
D13*
X97961920Y-78911351D03*
X111134530Y-79114530D03*
X79328220Y-74950651D03*
X92500830Y-75153830D03*
D18*
X52351000Y-54610000D03*
X65278000Y-52070000D03*
D13*
X135229420Y-86832751D03*
X148402030Y-87035930D03*
D11*
X240278654Y-58022044D03*
X239592546Y-54794156D03*
D35*
X154670000Y-56680000D03*
X154670000Y-54780000D03*
D12*
X301775000Y-77850000D03*
X301775000Y-74550000D03*
D30*
X317590000Y-25412500D03*
X317590000Y-22212500D03*
X322490000Y-22212500D03*
X322490000Y-25412500D03*
D11*
X220245354Y-23329044D03*
X219559246Y-20101156D03*
X240013454Y-98003344D03*
X239327346Y-94775456D03*
D19*
X144250000Y-14050000D03*
X144250000Y-15950000D03*
D17*
X130968946Y-90210844D03*
X131655054Y-86982956D03*
D12*
X34218000Y-96900000D03*
X34218000Y-93600000D03*
D18*
X293333500Y-92710000D03*
X306260500Y-90170000D03*
X263044000Y-16510000D03*
X275971000Y-13970000D03*
D30*
X39420000Y-62340000D03*
X39420000Y-65540000D03*
X34520000Y-65540000D03*
X34520000Y-62340000D03*
D12*
X285106500Y-96900000D03*
X285106500Y-93600000D03*
X317682000Y-39750000D03*
X317682000Y-36450000D03*
X278629000Y-20700000D03*
X278629000Y-17400000D03*
D19*
X141750000Y-14050000D03*
X141750000Y-15950000D03*
D12*
X259579000Y-19938000D03*
X259579000Y-16638000D03*
D21*
X166500000Y-17087500D03*
X166500000Y-18912500D03*
D17*
X142617146Y-53735544D03*
X143303254Y-50507656D03*
D11*
X217220554Y-82398744D03*
X216534446Y-79170856D03*
D17*
X123983446Y-49774844D03*
X124669554Y-46546956D03*
D32*
X163546197Y-42434420D03*
X162880880Y-39304347D03*
X167673803Y-38285580D03*
X168339120Y-41415653D03*
D18*
X18633000Y-92710000D03*
X31560000Y-90170000D03*
D10*
X185496029Y-26431659D03*
X197612447Y-21259490D03*
D17*
X125612846Y-69596744D03*
X126298954Y-66368856D03*
D19*
X136750000Y-14050000D03*
X136750000Y-15950000D03*
D18*
X56732500Y-73660000D03*
X69659500Y-71120000D03*
D30*
X44222500Y-29222500D03*
X44222500Y-26022500D03*
X49122500Y-26022500D03*
X49122500Y-29222500D03*
D12*
X72317500Y-77850000D03*
X72317500Y-74550000D03*
D18*
X302097000Y-35560000D03*
X315024000Y-33020000D03*
D13*
X73306620Y-94120051D03*
X86479230Y-94323230D03*
D12*
X66316800Y-39750000D03*
X66316800Y-36450000D03*
D19*
X139250000Y-14050000D03*
X139250000Y-15950000D03*
D17*
X120486446Y-107458244D03*
X121172554Y-104230356D03*
D11*
X221644954Y-61982744D03*
X220958846Y-58754856D03*
D18*
X25850600Y-73660000D03*
X38777600Y-71120000D03*
D27*
X86805880Y-29630653D03*
X87471197Y-26500580D03*
X92264120Y-27519347D03*
X91598803Y-30649420D03*
D11*
X179953054Y-90320144D03*
X179266946Y-87092256D03*
D17*
X144246546Y-73557444D03*
X144932654Y-70329556D03*
D18*
X243994000Y-15748000D03*
X256921000Y-13208000D03*
X312383500Y-73660000D03*
X325310500Y-71120000D03*
D11*
X214889154Y-43943144D03*
X214203046Y-40715256D03*
D10*
X180139929Y-47045659D03*
X192256347Y-41873490D03*
M02*
