M48
; DRILL file {KiCad (6.0.1)} date Mon Aug  1 23:00:41 2022
; FORMAT={-:-/ absolute / metric / decimal}
; #@! TF.CreationDate,2022-08-01T23:00:41+09:00
; #@! TF.GenerationSoftware,Kicad,Pcbnew,(6.0.1)
; #@! TF.FileFunction,Plated,1,2,PTH
FMAT,2
METRIC
; #@! TA.AperFunction,Plated,PTH,ViaDrill
T1C0.400
; #@! TA.AperFunction,Plated,PTH,ComponentDrill
T2C0.600
%
G90
G05
T1
X25.851Y-81.736
X43.072Y-30.689
X59.532Y-69.286
X74.348Y-80.944
X77.513Y-77.933
X86.49Y-49.63
X103.032Y-72.366
X108.031Y-53.017
X116.617Y-94.173
X122.41Y-32.19
X123.0Y-69.61
X124.158Y-36.201
X124.225Y-71.548
X124.5Y-91.618
X130.143Y-91.564
X144.475Y-78.812
X145.548Y-55.274
X146.272Y-56.14
X146.72Y-73.88
X150.06Y-68.26
X150.07Y-69.33
X150.082Y-71.374
X150.09Y-70.374
X150.11Y-72.373
X150.12Y-73.39
X150.246Y-92.623
X151.506Y-76.643
X152.136Y-53.421
X152.89Y-72.525
X153.4Y-75.4
X154.482Y-76.707
X154.67Y-57.909
X155.836Y-63.255
X155.88Y-77.92
X156.0Y-67.2
X156.45Y-12.95
X156.517Y-96.102
X156.987Y-62.258
X157.74Y-12.41
X158.155Y-78.18
X158.43Y-79.358
X158.986Y-12.38
X160.6Y-79.6
X162.0Y-63.5
X162.0Y-66.8
X162.01Y-77.34
X162.68Y-84.567
X162.92Y-76.0
X163.026Y-64.636
X163.37Y-35.39
X164.0Y-70.0
X164.0Y-76.0
X165.0Y-76.0
X165.07Y-14.94
X166.0Y-76.0
X167.0Y-76.0
X167.965Y-22.156
X168.0Y-76.0
X168.456Y-10.175
X169.9Y-15.0
X171.51Y-79.18
X177.442Y-53.76
X177.73Y-75.816
X178.109Y-88.824
X180.129Y-33.985
X186.116Y-96.102
X204.501Y-65.472
X211.53Y-82.84
X214.471Y-45.22
X217.889Y-24.707
X218.415Y-70.074
X219.445Y-82.566
X223.726Y-94.903
X224.06Y-62.927
X235.559Y-71.263
X255.993Y-79.52
X256.611Y-40.483
X258.244Y-24.707
X258.541Y-70.356
X276.246Y-80.507
X278.818Y-69.305
X280.5Y-60.261
X295.361Y-67.206
X300.9Y-79.301
X306.894Y-70.8
X310.99Y-81.363
X312.875Y-80.159
X320.406Y-23.063
X324.161Y-79.426
X327.7Y-75.57
X339.069Y-58.118
T2
X153.64Y-1.235G85X153.64Y-2.035
G05
X153.64Y-5.255G85X153.64Y-6.355
G05
X162.28Y-1.235G85X162.28Y-2.035
G05
X162.28Y-5.255G85X162.28Y-6.355
G05
T0
M30
