G04 #@! TF.GenerationSoftware,KiCad,Pcbnew,(6.0.1)*
G04 #@! TF.CreationDate,2022-08-01T23:00:39+09:00*
G04 #@! TF.ProjectId,Skeleton68_underglow,536b656c-6574-46f6-9e36-385f756e6465,rev?*
G04 #@! TF.SameCoordinates,Original*
G04 #@! TF.FileFunction,Profile,NP*
%FSLAX46Y46*%
G04 Gerber Fmt 4.6, Leading zero omitted, Abs format (unit mm)*
G04 Created by KiCad (PCBNEW (6.0.1)) date 2022-08-01 23:00:39*
%MOMM*%
%LPD*%
G01*
G04 APERTURE LIST*
G04 #@! TA.AperFunction,Profile*
%ADD10C,0.100000*%
G04 #@! TD*
G04 APERTURE END LIST*
D10*
X219150000Y-109510000D02*
X168300000Y-120330000D01*
X347550000Y-104790000D02*
G75*
G03*
X348050000Y-104290000I-1J500001D01*
G01*
X347540000Y-85720000D02*
X328990000Y-85720000D01*
X344240000Y-45720000D02*
X344230000Y-27170000D01*
X11430000Y-104280000D02*
G75*
G03*
X11930000Y-104780000I500001J1D01*
G01*
X219150000Y-109510000D02*
X219243553Y-109866447D01*
X348050000Y-46220000D02*
G75*
G03*
X347550000Y-45720000I-500001J-1D01*
G01*
X91326447Y-110296447D02*
X64320000Y-104540000D01*
X17170000Y-47620000D02*
X19720000Y-47620000D01*
X20210000Y-28570000D02*
X24000000Y-28570000D01*
X19720000Y-47620000D02*
X19710000Y-29070000D01*
X246730000Y-104620000D02*
G75*
G03*
X247230000Y-104120000I-1J500001D01*
G01*
X16570000Y-66700000D02*
X16570000Y-48220000D01*
X247230000Y-104120000D02*
X243320000Y-85730000D01*
X340420000Y-26670000D02*
X340420000Y-8120000D01*
X348040000Y-86220000D02*
G75*
G03*
X347540000Y-85720000I-500001J-1D01*
G01*
X163900000Y0D02*
X163900000Y-7620000D01*
X163900000Y-7620000D02*
X339920000Y-7620000D01*
X12000000Y-66690000D02*
G75*
G03*
X11500000Y-67190000I1J-500001D01*
G01*
X39510000Y-104770000D02*
X11930000Y-104780000D01*
X24500000Y-7620000D02*
X151900000Y-7620000D01*
X40010000Y-104270000D02*
X40000000Y-87500000D01*
X39510000Y-104770000D02*
G75*
G03*
X40010000Y-104270000I-1J500001D01*
G01*
X163900000Y0D02*
G75*
G03*
X163400000Y500000I-500001J-1D01*
G01*
X63820000Y-104040000D02*
G75*
G03*
X64320000Y-104540000I500001J1D01*
G01*
X91910000Y-109430000D02*
X91826447Y-109796447D01*
X147420000Y-121240000D02*
G75*
G03*
X147920000Y-120740000I-1J500001D01*
G01*
X24500000Y-7620000D02*
G75*
G03*
X24000000Y-8120000I1J-500001D01*
G01*
X328990000Y-85720000D02*
X328990000Y-64760000D01*
X67360000Y-87500000D02*
X63820000Y-104040000D01*
X347540000Y-64770000D02*
G75*
G03*
X348040000Y-64270000I-1J500001D01*
G01*
X147420000Y-121240000D02*
X91910000Y-109430000D01*
X348040000Y-64270000D02*
X348050000Y-46220000D01*
X12000000Y-66690000D02*
X16570000Y-66700000D01*
X262310000Y-104280000D02*
G75*
G03*
X262810000Y-104780000I500001J1D01*
G01*
X151900000Y-102000000D02*
X164020000Y-102010000D01*
X151900000Y-7620000D02*
X151900000Y0D01*
X347550000Y-104790000D02*
X262810000Y-104780000D01*
X344230000Y-27170000D02*
G75*
G03*
X343730000Y-26670000I-500001J-1D01*
G01*
X328990000Y-64760000D02*
X347540000Y-64770000D01*
X343730000Y-26670000D02*
X340420000Y-26670000D01*
X262310000Y-85730000D02*
X262310000Y-104280000D01*
X243320000Y-85730000D02*
X262310000Y-85730000D01*
X11430000Y-104280000D02*
X11500000Y-67190000D01*
X91326447Y-110296447D02*
G75*
G03*
X91826447Y-109796447I-1J500001D01*
G01*
X348040000Y-86220000D02*
X348050000Y-104290000D01*
X24000000Y-28570000D02*
X24000000Y-8120000D01*
X167800000Y-119830000D02*
G75*
G03*
X168300000Y-120330000I500001J1D01*
G01*
X219243553Y-109866447D02*
G75*
G03*
X219743553Y-110366447I500001J1D01*
G01*
X17170000Y-47620000D02*
G75*
G03*
X16570000Y-48220000I0J-600000D01*
G01*
X152400000Y500000D02*
G75*
G03*
X151900000Y0I1J-500001D01*
G01*
X147920000Y-120740000D02*
X151900000Y-102000000D01*
X20210000Y-28570000D02*
G75*
G03*
X19710000Y-29070000I1J-500001D01*
G01*
X152400000Y500000D02*
X163400000Y500000D01*
X164020000Y-102010000D02*
X167800000Y-119830000D01*
X219743553Y-110366447D02*
X246730000Y-104620000D01*
X340420000Y-8120000D02*
G75*
G03*
X339920000Y-7620000I-500001J-1D01*
G01*
X40000000Y-87500000D02*
X67360000Y-87500000D01*
X347550000Y-45720000D02*
X344240000Y-45720000D01*
M02*
