  0
SECTION
  2
HEADER
  9
$ACADVER
  1
AC1027
  9
$ACADMAINTVER
 70
   125
  9
$DWGCODEPAGE
  3
ANSI_932
  9
$REQUIREDVERSIONS
160
                 0
  9
$INSBASE
 10
0.0
 20
0.0
 30
0.0
  9
$EXTMIN
 10
1.000000000000000E+20
 20
1.000000000000000E+20
 30
1.000000000000000E+20
  9
$EXTMAX
 10
-1.000000000000000E+20
 20
-1.000000000000000E+20
 30
-1.000000000000000E+20
  9
$LIMMIN
 10
0.0
 20
0.0
  9
$LIMMAX
 10
12.0
 20
9.0
  9
$ORTHOMODE
 70
     0
  9
$REGENMODE
 70
     1
  9
$FILLMODE
 70
     1
  9
$QTEXTMODE
 70
     0
  9
$MIRRTEXT
 70
     0
  9
$LTSCALE
 40
1.0
  9
$ATTMODE
 70
     1
  9
$TEXTSIZE
 40
0.2
  9
$TRACEWID
 40
0.05
  9
$TEXTSTYLE
  7
Standard
  9
$CLAYER
  8
0
  9
$CELTYPE
  6
ByLayer
  9
$CECOLOR
 62
   256
  9
$CELTSCALE
 40
1.0
  9
$DISPSILH
 70
     0
  9
$DIMSCALE
 40
1.0
  9
$DIMASZ
 40
0.18
  9
$DIMEXO
 40
0.0625
  9
$DIMDLI
 40
0.38
  9
$DIMRND
 40
0.0
  9
$DIMDLE
 40
0.0
  9
$DIMEXE
 40
0.18
  9
$DIMTP
 40
0.0
  9
$DIMTM
 40
0.0
  9
$DIMTXT
 40
0.18
  9
$DIMCEN
 40
0.09
  9
$DIMTSZ
 40
0.0
  9
$DIMTOL
 70
     0
  9
$DIMLIM
 70
     0
  9
$DIMTIH
 70
     1
  9
$DIMTOH
 70
     1
  9
$DIMSE1
 70
     0
  9
$DIMSE2
 70
     0
  9
$DIMTAD
 70
     0
  9
$DIMZIN
 70
     0
  9
$DIMBLK
  1

  9
$DIMASO
 70
     1
  9
$DIMSHO
 70
     1
  9
$DIMPOST
  1

  9
$DIMAPOST
  1

  9
$DIMALT
 70
     0
  9
$DIMALTD
 70
     2
  9
$DIMALTF
 40
25.4
  9
$DIMLFAC
 40
1.0
  9
$DIMTOFL
 70
     0
  9
$DIMTVP
 40
0.0
  9
$DIMTIX
 70
     0
  9
$DIMSOXD
 70
     0
  9
$DIMSAH
 70
     0
  9
$DIMBLK1
  1

  9
$DIMBLK2
  1

  9
$DIMSTYLE
  2
Standard
  9
$DIMCLRD
 70
     0
  9
$DIMCLRE
 70
     0
  9
$DIMCLRT
 70
     0
  9
$DIMTFAC
 40
1.0
  9
$DIMGAP
 40
0.09
  9
$DIMJUST
 70
     0
  9
$DIMSD1
 70
     0
  9
$DIMSD2
 70
     0
  9
$DIMTOLJ
 70
     1
  9
$DIMTZIN
 70
     0
  9
$DIMALTZ
 70
     0
  9
$DIMALTTZ
 70
     0
  9
$DIMUPT
 70
     0
  9
$DIMDEC
 70
     4
  9
$DIMTDEC
 70
     4
  9
$DIMALTU
 70
     2
  9
$DIMALTTD
 70
     2
  9
$DIMTXSTY
  7
Standard
  9
$DIMAUNIT
 70
     0
  9
$DIMADEC
 70
     0
  9
$DIMALTRND
 40
0.0
  9
$DIMAZIN
 70
     0
  9
$DIMDSEP
 70
    46
  9
$DIMATFIT
 70
     3
  9
$DIMFRAC
 70
     0
  9
$DIMLDRBLK
  1

  9
$DIMLUNIT
 70
     2
  9
$DIMLWD
 70
    -2
  9
$DIMLWE
 70
    -2
  9
$DIMTMOVE
 70
     0
  9
$DIMFXL
 40
1.0
  9
$DIMFXLON
 70
     0
  9
$DIMJOGANG
 40
0.7853981633974483
  9
$DIMTFILL
 70
     0
  9
$DIMTFILLCLR
 70
     0
  9
$DIMARCSYM
 70
     0
  9
$DIMLTYPE
  6

  9
$DIMLTEX1
  6

  9
$DIMLTEX2
  6

  9
$DIMTXTDIRECTION
 70
     0
  9
$LUNITS
 70
     2
  9
$LUPREC
 70
     4
  9
$SKETCHINC
 40
0.1
  9
$FILLETRAD
 40
0.0
  9
$AUNITS
 70
     0
  9
$AUPREC
 70
     0
  9
$MENU
  1
.
  9
$ELEVATION
 40
0.0
  9
$PELEVATION
 40
0.0
  9
$THICKNESS
 40
0.0
  9
$LIMCHECK
 70
     0
  9
$CHAMFERA
 40
0.0
  9
$CHAMFERB
 40
0.0
  9
$CHAMFERC
 40
0.0
  9
$CHAMFERD
 40
0.0
  9
$SKPOLY
 70
     0
  9
$TDCREATE
 40
2459658.957881944
  9
$TDUCREATE
 40
2459658.582881944
  9
$TDUPDATE
 40
2459658.957881944
  9
$TDUUPDATE
 40
2459658.582881944
  9
$TDINDWG
 40
0.0000000000
  9
$TDUSRTIMER
 40
0.0000000000
  9
$USRTIMER
 70
     1
  9
$ANGBASE
 50
0.0
  9
$ANGDIR
 70
     0
  9
$PDMODE
 70
     0
  9
$PDSIZE
 40
0.0
  9
$PLINEWID
 40
0.0
  9
$SPLFRAME
 70
     0
  9
$SPLINETYPE
 70
     6
  9
$SPLINESEGS
 70
     8
  9
$HANDSEED
  5
150
  9
$SURFTAB1
 70
     6
  9
$SURFTAB2
 70
     6
  9
$SURFTYPE
 70
     6
  9
$SURFU
 70
     6
  9
$SURFV
 70
     6
  9
$UCSBASE
  2

  9
$UCSNAME
  2

  9
$UCSORG
 10
0.0
 20
0.0
 30
0.0
  9
$UCSXDIR
 10
1.0
 20
0.0
 30
0.0
  9
$UCSYDIR
 10
0.0
 20
1.0
 30
0.0
  9
$UCSORTHOREF
  2

  9
$UCSORTHOVIEW
 70
     0
  9
$UCSORGTOP
 10
0.0
 20
0.0
 30
0.0
  9
$UCSORGBOTTOM
 10
0.0
 20
0.0
 30
0.0
  9
$UCSORGLEFT
 10
0.0
 20
0.0
 30
0.0
  9
$UCSORGRIGHT
 10
0.0
 20
0.0
 30
0.0
  9
$UCSORGFRONT
 10
0.0
 20
0.0
 30
0.0
  9
$UCSORGBACK
 10
0.0
 20
0.0
 30
0.0
  9
$PUCSBASE
  2

  9
$PUCSNAME
  2

  9
$PUCSORG
 10
0.0
 20
0.0
 30
0.0
  9
$PUCSXDIR
 10
1.0
 20
0.0
 30
0.0
  9
$PUCSYDIR
 10
0.0
 20
1.0
 30
0.0
  9
$PUCSORTHOREF
  2

  9
$PUCSORTHOVIEW
 70
     0
  9
$PUCSORGTOP
 10
0.0
 20
0.0
 30
0.0
  9
$PUCSORGBOTTOM
 10
0.0
 20
0.0
 30
0.0
  9
$PUCSORGLEFT
 10
0.0
 20
0.0
 30
0.0
  9
$PUCSORGRIGHT
 10
0.0
 20
0.0
 30
0.0
  9
$PUCSORGFRONT
 10
0.0
 20
0.0
 30
0.0
  9
$PUCSORGBACK
 10
0.0
 20
0.0
 30
0.0
  9
$USERI1
 70
     0
  9
$USERI2
 70
     0
  9
$USERI3
 70
     0
  9
$USERI4
 70
     0
  9
$USERI5
 70
     0
  9
$USERR1
 40
0.0
  9
$USERR2
 40
0.0
  9
$USERR3
 40
0.0
  9
$USERR4
 40
0.0
  9
$USERR5
 40
0.0
  9
$WORLDVIEW
 70
     1
  9
$SHADEDGE
 70
     3
  9
$SHADEDIF
 70
    70
  9
$TILEMODE
 70
     1
  9
$MAXACTVP
 70
    64
  9
$PINSBASE
 10
0.0
 20
0.0
 30
0.0
  9
$PLIMCHECK
 70
     0
  9
$PEXTMIN
 10
1.000000000000000E+20
 20
1.000000000000000E+20
 30
1.000000000000000E+20
  9
$PEXTMAX
 10
-1.000000000000000E+20
 20
-1.000000000000000E+20
 30
-1.000000000000000E+20
  9
$PLIMMIN
 10
0.0
 20
0.0
  9
$PLIMMAX
 10
12.0
 20
9.0
  9
$UNITMODE
 70
     0
  9
$VISRETAIN
 70
     1
  9
$PLINEGEN
 70
     0
  9
$PSLTSCALE
 70
     1
  9
$TREEDEPTH
 70
  3020
  9
$CMLSTYLE
  2
Standard
  9
$CMLJUST
 70
     0
  9
$CMLSCALE
 40
1.0
  9
$PROXYGRAPHICS
 70
     1
  9
$MEASUREMENT
 70
     0
  9
$CELWEIGHT
370
    -1
  9
$ENDCAPS
280
     0
  9
$JOINSTYLE
280
     0
  9
$LWDISPLAY
290
     1
  9
$INSUNITS
 70
     4
  9
$HYPERLINKBASE
  1

  9
$STYLESHEET
  1

  9
$XEDIT
290
     1
  9
$CEPSNTYPE
380
     0
  9
$PSTYLEMODE
290
     1
  9
$FINGERPRINTGUID
  2
{65A32B88-F30D-1E4C-8F9A-0F01EDD14C28}
  9
$VERSIONGUID
  2
{9826C3F4-2E82-6F43-A08D-14F90D0B7563}
  9
$EXTNAMES
290
     1
  9
$PSVPSCALE
 40
0.0
  9
$OLESTARTUP
290
     0
  9
$SORTENTS
280
   127
  9
$INDEXCTL
280
     0
  9
$HIDETEXT
280
     1
  9
$XCLIPFRAME
280
     2
  9
$HALOGAP
280
     0
  9
$OBSCOLOR
 70
   257
  9
$OBSLTYPE
280
     0
  9
$INTERSECTIONDISPLAY
280
     0
  9
$INTERSECTIONCOLOR
 70
   257
  9
$DIMASSOC
280
     2
  9
$PROJECTNAME
  1

  9
$CAMERADISPLAY
290
     0
  9
$LENSLENGTH
 40
50.0
  9
$CAMERAHEIGHT
 40
0.0
  9
$STEPSPERSEC
 40
2.0
  9
$STEPSIZE
 40
6.0
  9
$3DDWFPREC
 40
2.0
  9
$PSOLWIDTH
 40
0.25
  9
$PSOLHEIGHT
 40
4.0
  9
$LOFTANG1
 40
1.570796326794896
  9
$LOFTANG2
 40
1.570796326794896
  9
$LOFTMAG1
 40
0.0
  9
$LOFTMAG2
 40
0.0
  9
$LOFTPARAM
 70
     7
  9
$LOFTNORMALS
280
     1
  9
$LATITUDE
 40
37.795
  9
$LONGITUDE
 40
-122.394
  9
$NORTHDIRECTION
 40
0.0
  9
$TIMEZONE
 70
 -8000
  9
$LIGHTGLYPHDISPLAY
280
     1
  9
$TILEMODELIGHTSYNCH
280
     1
  9
$CMATERIAL
347
11
  9
$SOLIDHIST
280
     0
  9
$SHOWHIST
280
     1
  9
$DWFFRAME
280
     2
  9
$DGNFRAME
280
     0
  9
$REALWORLDSCALE
290
     1
  9
$INTERFERECOLOR
 62
     1
  9
$INTERFEREOBJVS
345
33
  9
$INTERFEREVPVS
346
30
  9
$CSHADOW
280
     0
  9
$SHADOWPLANELOCATION
 40
0.0
  0
ENDSEC
  0
SECTION
  2
CLASSES
  0
CLASS
  1
ACDBDICTIONARYWDFLT
  2
AcDbDictionaryWithDefault
  3
ObjectDBX Classes
 90
        0
 91
        1
280
     0
281
     0
  0
CLASS
  1
MATERIAL
  2
AcDbMaterial
  3
ObjectDBX Classes
 90
     1153
 91
        3
280
     0
281
     0
  0
CLASS
  1
VISUALSTYLE
  2
AcDbVisualStyle
  3
ObjectDBX Classes
 90
     4095
 91
       24
280
     0
281
     0
  0
CLASS
  1
SCALE
  2
AcDbScale
  3
ObjectDBX Classes
 90
     1153
 91
       17
280
     0
281
     0
  0
CLASS
  1
TABLESTYLE
  2
AcDbTableStyle
  3
ObjectDBX Classes
 90
     4095
 91
        1
280
     0
281
     0
  0
CLASS
  1
MLEADERSTYLE
  2
AcDbMLeaderStyle
  3
ACDB_MLEADERSTYLE_CLASS
 90
     4095
 91
        1
280
     0
281
     0
  0
CLASS
  1
ACDBSECTIONVIEWSTYLE
  2
AcDbSectionViewStyle
  3
ObjectDBX Classes
 90
     1025
 91
        1
280
     0
281
     0
  0
CLASS
  1
ACDBDETAILVIEWSTYLE
  2
AcDbDetailViewStyle
  3
ObjectDBX Classes
 90
     1025
 91
        1
280
     0
281
     0
  0
CLASS
  1
DICTIONARYVAR
  2
AcDbDictionaryVar
  3
ObjectDBX Classes
 90
        0
 91
        5
280
     0
281
     0
  0
CLASS
  1
CELLSTYLEMAP
  2
AcDbCellStyleMap
  3
ObjectDBX Classes
 90
     1152
 91
        1
280
     0
281
     0
  0
ENDSEC
  0
SECTION
  2
TABLES
  0
TABLE
  2
VPORT
  5
8
330
0
100
AcDbSymbolTable
 70
     1
1001
ACAD
1000
DbSaveVer
1071
      247
  0
VPORT
  5
57
330
8
100
AcDbSymbolTableRecord
100
AcDbViewportTableRecord
  2
*Active
 70
     0
 10
0.0
 20
0.0
 11
1.0
 21
1.0
 12
0.0
 22
0.0
 13
0.0
 23
0.0
 14
1.0
 24
1.0
 15
0.0
 25
0.0
 16
0.0
 26
0.0
 36
1.0
 17
0.0
 27
0.0
 37
0.0
 40
305.9999999234999
 41
1.0
 42
50.0
 43
0.0
 44
0.0
 50
0.0
 51
0.0
 71
     0
 72
   100
 73
     1
 74
     1
 75
     0
 76
     0
 77
     0
 78
     0
281
     0
 65
     1
110
0.0
120
0.0
130
0.0
111
1.0
121
0.0
131
0.0
112
0.0
122
1.0
132
0.0
 79
     0
146
0.0
 60
     3
 61
     5
292
     1
282
     1
141
0.0
142
0.0
 63
   250
421
  3355443
  0
ENDTAB
  0
TABLE
  2
LTYPE
  5
5
330
0
100
AcDbSymbolTable
 70
     1
  0
LTYPE
  5
5B
330
5
100
AcDbSymbolTableRecord
100
AcDbLinetypeTableRecord
  2
ByBlock
 70
     0
  3

 72
    65
 73
     0
 40
0.0
  0
LTYPE
  5
5C
330
5
100
AcDbSymbolTableRecord
100
AcDbLinetypeTableRecord
  2
ByLayer
 70
     0
  3

 72
    65
 73
     0
 40
0.0
  0
LTYPE
  5
5D
330
5
100
AcDbSymbolTableRecord
100
AcDbLinetypeTableRecord
  2
Continuous
 70
     0
  3
Solid line
 72
    65
 73
     0
 40
0.0
  0
ENDTAB
  0
TABLE
  2
LAYER
  5
2
330
0
100
AcDbSymbolTable
 70
    11
  0
LAYER
  5
54
330
2
100
AcDbSymbolTableRecord
100
AcDbLayerTableRecord
  2
0
 70
     0
 62
     7
  6
Continuous
370
    -3
390
F
347
21
348
0
  0
LAYER
  5
78
330
2
100
AcDbSymbolTableRecord
100
AcDbLayerTableRecord
  2
feet1
 70
     0
 62
     7
  6
Continuous
370
     0
390
F
347
21
348
0
  0
LAYER
  5
88
330
2
100
AcDbSymbolTableRecord
100
AcDbLayerTableRecord
  2
feet2
 70
     0
 62
     7
  6
Continuous
370
     0
390
F
347
21
348
0
  0
LAYER
  5
98
330
2
100
AcDbSymbolTableRecord
100
AcDbLayerTableRecord
  2
feet2のコピー
 70
     0
 62
     7
  6
Continuous
370
     0
390
F
347
21
348
0
  0
LAYER
  5
A8
330
2
100
AcDbSymbolTableRecord
100
AcDbLayerTableRecord
  2
feet2のコピー 2
 70
     0
 62
     7
  6
Continuous
370
     0
390
F
347
21
348
0
  0
LAYER
  5
B8
330
2
100
AcDbSymbolTableRecord
100
AcDbLayerTableRecord
  2
bottom
 70
     0
 62
     7
  6
Continuous
370
     0
390
F
347
21
348
0
  0
LAYER
  5
D4
330
2
100
AcDbSymbolTableRecord
100
AcDbLayerTableRecord
  2
lower-middle
 70
     0
 62
     7
  6
Continuous
370
     0
390
F
347
21
348
0
  0
LAYER
  5
E6
330
2
100
AcDbSymbolTableRecord
100
AcDbLayerTableRecord
  2
lower-middleのコピー
 70
     0
 62
     7
  6
Continuous
370
     0
390
F
347
21
348
0
  0
LAYER
  5
F8
330
2
100
AcDbSymbolTableRecord
100
AcDbLayerTableRecord
  2
upper-middle
 70
     0
 62
     7
  6
Continuous
370
     0
390
F
347
21
348
0
  0
LAYER
  5
12F
330
2
100
AcDbSymbolTableRecord
100
AcDbLayerTableRecord
  2
top
 70
     0
 62
     7
  6
Continuous
370
     0
390
F
347
21
348
0
  0
LAYER
  5
142
330
2
100
AcDbSymbolTableRecord
100
AcDbLayerTableRecord
  2
guide
 70
     1
 62
     7
  6
Continuous
370
     0
390
F
347
21
348
0
  0
ENDTAB
  0
TABLE
  2
STYLE
  5
3
330
0
100
AcDbSymbolTable
 70
     2
  0
STYLE
  5
55
330
3
100
AcDbSymbolTableRecord
100
AcDbTextStyleTableRecord
  2
Standard
 70
     0
 40
0.0
 41
1.0
 50
0.0
 71
     0
 42
0.2
  3
txt
  4

  0
STYLE
  5
5A
330
3
100
AcDbSymbolTableRecord
100
AcDbTextStyleTableRecord
  2
Annotative
 70
     0
 40
0.0
 41
1.0
 50
0.0
 71
     0
 42
0.2
  3
txt
  4

1001
AcadAnnotative
1000
AnnotativeData
1002
{
1070
     1
1070
     1
1002
}
  0
ENDTAB
  0
TABLE
  2
VIEW
  5
6
330
0
100
AcDbSymbolTable
 70
     0
  0
ENDTAB
  0
TABLE
  2
UCS
  5
7
330
0
100
AcDbSymbolTable
 70
     0
  0
ENDTAB
  0
TABLE
  2
APPID
  5
9
330
0
100
AcDbSymbolTable
 70
     2
  0
APPID
  5
56
330
9
100
AcDbSymbolTableRecord
100
AcDbRegAppTableRecord
  2
ACAD
 70
     0
  0
APPID
  5
5E
330
9
100
AcDbSymbolTableRecord
100
AcDbRegAppTableRecord
  2
AcadAnnotative
 70
     0
  0
ENDTAB
  0
TABLE
  2
DIMSTYLE
  5
A
330
0
100
AcDbSymbolTable
 70
     2
100
AcDbDimStyleTable
 71
     0
  0
DIMSTYLE
105
58
330
A
100
AcDbSymbolTableRecord
100
AcDbDimStyleTableRecord
  2
Standard
 70
     0
340
55
  0
DIMSTYLE
105
59
330
A
100
AcDbSymbolTableRecord
100
AcDbDimStyleTableRecord
  2
Annotative
 70
     0
340
55
1001
AcadAnnotative
1000
AnnotativeData
1002
{
1070
     1
1070
     1
1002
}
  0
ENDTAB
  0
TABLE
  2
BLOCK_RECORD
  5
1
330
0
100
AcDbSymbolTable
 70
    35
  0
BLOCK_RECORD
  5
70
330
1
100
AcDbSymbolTableRecord
100
AcDbBlockTableRecord
  2
*Model_Space
340
73
 70
     0
280
     1
281
     0
  0
BLOCK_RECORD
  5
6C
330
1
100
AcDbSymbolTableRecord
100
AcDbBlockTableRecord
  2
*Paper_Space
340
6F
 70
     0
280
     1
281
     0
  0
BLOCK_RECORD
  5
74
330
1
100
AcDbSymbolTableRecord
100
AcDbBlockTableRecord
  2
*Paper_Space0
340
77
 70
     0
280
     1
281
     0
  0
BLOCK_RECORD
  5
79
330
1
100
AcDbSymbolTableRecord
100
AcDbBlockTableRecord
  2
Block_0
340
0
102
{BLKREFS
331
7A
102
}
 70
     0
280
     1
281
     0
  0
BLOCK_RECORD
  5
7E
330
1
100
AcDbSymbolTableRecord
100
AcDbBlockTableRecord
  2
Block_1
340
0
102
{BLKREFS
331
7F
102
}
 70
     0
280
     1
281
     0
  0
BLOCK_RECORD
  5
82
330
1
100
AcDbSymbolTableRecord
100
AcDbBlockTableRecord
  2
Block_2
340
0
102
{BLKREFS
331
83
102
}
 70
     0
280
     1
281
     0
  0
BLOCK_RECORD
  5
89
330
1
100
AcDbSymbolTableRecord
100
AcDbBlockTableRecord
  2
Block_3
340
0
102
{BLKREFS
331
8A
102
}
 70
     0
280
     1
281
     0
  0
BLOCK_RECORD
  5
8E
330
1
100
AcDbSymbolTableRecord
100
AcDbBlockTableRecord
  2
Block_4
340
0
102
{BLKREFS
331
8F
102
}
 70
     0
280
     1
281
     0
  0
BLOCK_RECORD
  5
92
330
1
100
AcDbSymbolTableRecord
100
AcDbBlockTableRecord
  2
Block_5
340
0
102
{BLKREFS
331
93
102
}
 70
     0
280
     1
281
     0
  0
BLOCK_RECORD
  5
99
330
1
100
AcDbSymbolTableRecord
100
AcDbBlockTableRecord
  2
Block_6
340
0
102
{BLKREFS
331
9A
102
}
 70
     0
280
     1
281
     0
  0
BLOCK_RECORD
  5
9E
330
1
100
AcDbSymbolTableRecord
100
AcDbBlockTableRecord
  2
Block_7
340
0
102
{BLKREFS
331
9F
102
}
 70
     0
280
     1
281
     0
  0
BLOCK_RECORD
  5
A2
330
1
100
AcDbSymbolTableRecord
100
AcDbBlockTableRecord
  2
Block_8
340
0
102
{BLKREFS
331
A3
102
}
 70
     0
280
     1
281
     0
  0
BLOCK_RECORD
  5
A9
330
1
100
AcDbSymbolTableRecord
100
AcDbBlockTableRecord
  2
Block_9
340
0
102
{BLKREFS
331
AA
102
}
 70
     0
280
     1
281
     0
  0
BLOCK_RECORD
  5
AE
330
1
100
AcDbSymbolTableRecord
100
AcDbBlockTableRecord
  2
Block_10
340
0
102
{BLKREFS
331
AF
102
}
 70
     0
280
     1
281
     0
  0
BLOCK_RECORD
  5
B2
330
1
100
AcDbSymbolTableRecord
100
AcDbBlockTableRecord
  2
Block_11
340
0
102
{BLKREFS
331
B3
102
}
 70
     0
280
     1
281
     0
  0
BLOCK_RECORD
  5
B9
330
1
100
AcDbSymbolTableRecord
100
AcDbBlockTableRecord
  2
Block_12
340
0
102
{BLKREFS
331
BA
102
}
 70
     0
280
     1
281
     0
  0
BLOCK_RECORD
  5
BE
330
1
100
AcDbSymbolTableRecord
100
AcDbBlockTableRecord
  2
Block_13
340
0
102
{BLKREFS
331
BF
102
}
 70
     0
280
     1
281
     0
  0
BLOCK_RECORD
  5
C2
330
1
100
AcDbSymbolTableRecord
100
AcDbBlockTableRecord
  2
Block_14
340
0
102
{BLKREFS
331
C3
102
}
 70
     0
280
     1
281
     0
  0
BLOCK_RECORD
  5
CA
330
1
100
AcDbSymbolTableRecord
100
AcDbBlockTableRecord
  2
Block_15
340
0
102
{BLKREFS
331
CB
102
}
 70
     0
280
     1
281
     0
  0
BLOCK_RECORD
  5
CE
330
1
100
AcDbSymbolTableRecord
100
AcDbBlockTableRecord
  2
Block_16
340
0
102
{BLKREFS
331
CF
102
}
 70
     0
280
     1
281
     0
  0
BLOCK_RECORD
  5
D5
330
1
100
AcDbSymbolTableRecord
100
AcDbBlockTableRecord
  2
Block_17
340
0
102
{BLKREFS
331
D6
102
}
 70
     0
280
     1
281
     0
  0
BLOCK_RECORD
  5
D9
330
1
100
AcDbSymbolTableRecord
100
AcDbBlockTableRecord
  2
Block_18
340
0
102
{BLKREFS
331
DA
102
}
 70
     0
280
     1
281
     0
  0
BLOCK_RECORD
  5
DD
330
1
100
AcDbSymbolTableRecord
100
AcDbBlockTableRecord
  2
Block_19
340
0
102
{BLKREFS
331
DE
102
}
 70
     0
280
     1
281
     0
  0
BLOCK_RECORD
  5
E7
330
1
100
AcDbSymbolTableRecord
100
AcDbBlockTableRecord
  2
Block_20
340
0
102
{BLKREFS
331
E8
102
}
 70
     0
280
     1
281
     0
  0
BLOCK_RECORD
  5
EB
330
1
100
AcDbSymbolTableRecord
100
AcDbBlockTableRecord
  2
Block_21
340
0
102
{BLKREFS
331
EC
102
}
 70
     0
280
     1
281
     0
  0
BLOCK_RECORD
  5
EF
330
1
100
AcDbSymbolTableRecord
100
AcDbBlockTableRecord
  2
Block_22
340
0
102
{BLKREFS
331
F0
102
}
 70
     0
280
     1
281
     0
  0
BLOCK_RECORD
  5
F9
330
1
100
AcDbSymbolTableRecord
100
AcDbBlockTableRecord
  2
Block_23
340
0
102
{BLKREFS
331
FA
102
}
 70
     0
280
     1
281
     0
  0
BLOCK_RECORD
  5
FD
330
1
100
AcDbSymbolTableRecord
100
AcDbBlockTableRecord
  2
Block_24
340
0
102
{BLKREFS
331
FE
102
}
 70
     0
280
     1
281
     0
  0
BLOCK_RECORD
  5
105
330
1
100
AcDbSymbolTableRecord
100
AcDbBlockTableRecord
  2
Block_25
340
0
102
{BLKREFS
331
106
102
}
 70
     0
280
     1
281
     0
  0
BLOCK_RECORD
  5
109
330
1
100
AcDbSymbolTableRecord
100
AcDbBlockTableRecord
  2
Block_26
340
0
102
{BLKREFS
331
10A
102
}
 70
     0
280
     1
281
     0
  0
BLOCK_RECORD
  5
111
330
1
100
AcDbSymbolTableRecord
100
AcDbBlockTableRecord
  2
Block_27
340
0
102
{BLKREFS
331
112
102
}
 70
     0
280
     1
281
     0
  0
BLOCK_RECORD
  5
119
330
1
100
AcDbSymbolTableRecord
100
AcDbBlockTableRecord
  2
Block_28
340
0
102
{BLKREFS
331
11A
102
}
 70
     0
280
     1
281
     0
  0
BLOCK_RECORD
  5
120
330
1
100
AcDbSymbolTableRecord
100
AcDbBlockTableRecord
  2
Block_29
340
0
102
{BLKREFS
331
121
102
}
 70
     0
280
     1
281
     0
  0
BLOCK_RECORD
  5
127
330
1
100
AcDbSymbolTableRecord
100
AcDbBlockTableRecord
  2
Block_30
340
0
102
{BLKREFS
331
128
102
}
 70
     0
280
     1
281
     0
  0
BLOCK_RECORD
  5
130
330
1
100
AcDbSymbolTableRecord
100
AcDbBlockTableRecord
  2
Block_31
340
0
102
{BLKREFS
331
131
102
}
 70
     0
280
     1
281
     0
  0
BLOCK_RECORD
  5
136
330
1
100
AcDbSymbolTableRecord
100
AcDbBlockTableRecord
  2
Block_32
340
0
102
{BLKREFS
331
137
102
}
 70
     0
280
     1
281
     0
  0
BLOCK_RECORD
  5
13A
330
1
100
AcDbSymbolTableRecord
100
AcDbBlockTableRecord
  2
Block_33
340
0
102
{BLKREFS
331
13B
102
}
 70
     0
280
     1
281
     0
  0
ENDTAB
  0
ENDSEC
  0
SECTION
  2
BLOCKS
  0
BLOCK
  5
71
330
70
100
AcDbEntity
  8
0
100
AcDbBlockBegin
  2
*Model_Space
 70
     0
 10
0.0
 20
0.0
 30
0.0
  3
*Model_Space
  1

  0
ENDBLK
  5
72
330
70
100
AcDbEntity
  8
0
100
AcDbBlockEnd
  0
BLOCK
  5
6D
330
6C
100
AcDbEntity
 67
     1
  8
0
100
AcDbBlockBegin
  2
*Paper_Space
 70
     0
 10
0.0
 20
0.0
 30
0.0
  3
*Paper_Space
  1

  0
ENDBLK
  5
6E
330
6C
100
AcDbEntity
 67
     1
  8
0
100
AcDbBlockEnd
  0
BLOCK
  5
75
330
74
100
AcDbEntity
 67
     1
  8
0
100
AcDbBlockBegin
  2
*Paper_Space0
 70
     0
 10
0.0
 20
0.0
 30
0.0
  3
*Paper_Space0
  1

  0
ENDBLK
  5
76
330
74
100
AcDbEntity
 67
     1
  8
0
100
AcDbBlockEnd
  0
BLOCK
  5
7B
330
79
100
AcDbEntity
  8
0
100
AcDbBlockBegin
  2
Block_0
 70
     0
 10
0.0
 20
0.0
 30
0.0
  3
Block_0
  1

  0
SPLINE
  5
7D
330
79
100
AcDbEntity
  8
feet1
 62
     1
420
 15073298
370
    35
100
AcDbSpline
210
0.0
220
0.0
230
1.0
 70
     9
 71
     3
 72
    29
 73
    25
 74
     0
 42
0.0000000001
 43
0.0000000001
 40
0.0
 40
0.0
 40
0.0
 40
0.0
 40
1.0
 40
1.0
 40
1.0
 40
2.0
 40
2.0
 40
2.0
 40
3.0
 40
3.0
 40
3.0
 40
4.0
 40
4.0
 40
4.0
 40
5.0
 40
5.0
 40
5.0
 40
6.0
 40
6.0
 40
6.0
 40
7.0
 40
7.0
 40
7.0
 40
8.0
 40
8.0
 40
8.0
 40
8.0
 10
38.00499999049844
 20
108.7749999728063
 30
0.0
 10
38.00499999049844
 20
108.7749999728063
 30
0.0
 10
-38.00499999049908
 20
108.7749999728063
 30
0.0
 10
-38.00499999049908
 20
108.7749999728063
 30
0.0
 10
-39.10956948988442
 20
108.7749999728063
 30
0.0
 10
-40.00499998999862
 20
109.6704304729211
 30
0.0
 10
-40.00499998999862
 20
110.7749999723065
 30
0.0
 10
-40.00499998999862
 20
110.7749999723065
 30
0.0
 10
-40.00499998999862
 20
116.7749999708064
 30
0.0
 10
-40.00499998999862
 20
116.7749999708064
 30
0.0
 10
-40.00499998999862
 20
117.8795694701917
 30
0.0
 10
-39.10956948988442
 20
118.7749999703066
 30
0.0
 10
-38.00499999049908
 20
118.7749999703066
 30
0.0
 10
-38.00499999049908
 20
118.7749999703066
 30
0.0
 10
38.00499999049844
 20
118.7749999703066
 30
0.0
 10
38.00499999049844
 20
118.7749999703066
 30
0.0
 10
39.10956948988442
 20
118.7749999703066
 30
0.0
 10
40.00499998999862
 20
117.8795694701917
 30
0.0
 10
40.00499998999862
 20
116.7749999708064
 30
0.0
 10
40.00499998999862
 20
116.7749999708064
 30
0.0
 10
40.00499998999862
 20
110.7749999723065
 30
0.0
 10
40.00499998999862
 20
110.7749999723065
 30
0.0
 10
40.00499998999862
 20
109.6704304729211
 30
0.0
 10
39.10956948988442
 20
108.7749999728063
 30
0.0
 10
38.00499999049844
 20
108.7749999728063
 30
0.0
  0
INSERT
  5
7F
330
79
100
AcDbEntity
  8
feet1
100
AcDbBlockReference
  2
Block_1
 10
0.0
 20
0.0
 30
0.0
  0
ENDBLK
  5
7C
330
79
100
AcDbEntity
  8
0
100
AcDbBlockEnd
  0
BLOCK
  5
80
330
7E
100
AcDbEntity
  8
0
100
AcDbBlockBegin
  2
Block_1
 70
     0
 10
0.0
 20
0.0
 30
0.0
  3
Block_1
  1

  0
INSERT
  5
83
330
7E
100
AcDbEntity
  8
feet1
100
AcDbBlockReference
  2
Block_2
 10
0.0
 20
0.0
 30
0.0
  0
ENDBLK
  5
81
330
7E
100
AcDbEntity
  8
0
100
AcDbBlockEnd
  0
BLOCK
  5
84
330
82
100
AcDbEntity
  8
0
100
AcDbBlockBegin
  2
Block_2
 70
     0
 10
0.0
 20
0.0
 30
0.0
  3
Block_2
  1

  0
CIRCLE
  5
86
330
82
100
AcDbEntity
  8
feet1
 62
     1
420
 15073298
370
    35
100
AcDbCircle
 10
-19.00499999524874
 20
113.7749999715561
 30
0.0
 40
1.349999999662594
  0
CIRCLE
  5
87
330
82
100
AcDbEntity
  8
feet1
 62
     1
420
 15073298
370
    35
100
AcDbCircle
 10
19.00499999524826
 20
113.7749999715561
 30
0.0
 40
1.349999999662513
  0
ENDBLK
  5
85
330
82
100
AcDbEntity
  8
0
100
AcDbBlockEnd
  0
BLOCK
  5
8B
330
89
100
AcDbEntity
  8
0
100
AcDbBlockBegin
  2
Block_3
 70
     0
 10
0.0
 20
0.0
 30
0.0
  3
Block_3
  1

  0
SPLINE
  5
8D
330
89
100
AcDbEntity
  8
feet2
 62
     1
420
 15073298
370
    35
100
AcDbSpline
210
0.0
220
0.0
230
1.0
 70
     9
 71
     3
 72
    29
 73
    25
 74
     0
 42
0.0000000001
 43
0.0000000001
 40
0.0
 40
0.0
 40
0.0
 40
0.0
 40
1.0
 40
1.0
 40
1.0
 40
2.0
 40
2.0
 40
2.0
 40
3.0
 40
3.0
 40
3.0
 40
4.0
 40
4.0
 40
4.0
 40
5.0
 40
5.0
 40
5.0
 40
6.0
 40
6.0
 40
6.0
 40
7.0
 40
7.0
 40
7.0
 40
8.0
 40
8.0
 40
8.0
 40
8.0
 10
38.00499999049844
 20
91.8416666437063
 30
0.0
 10
38.00499999049844
 20
91.8416666437063
 30
0.0
 10
-38.00499999049908
 20
91.8416666437063
 30
0.0
 10
-38.00499999049908
 20
91.8416666437063
 30
0.0
 10
-39.10956948988442
 20
91.8416666437063
 30
0.0
 10
-40.00499998999862
 20
92.73709714382116
 30
0.0
 10
-40.00499998999862
 20
93.8416666432065
 30
0.0
 10
-40.00499998999862
 20
93.8416666432065
 30
0.0
 10
-40.00499998999862
 20
99.84166664170642
 30
0.0
 10
-40.00499998999862
 20
99.84166664170642
 30
0.0
 10
-40.00499998999862
 20
100.9462361410917
 30
0.0
 10
-39.10956948988442
 20
101.8416666412066
 30
0.0
 10
-38.00499999049908
 20
101.8416666412066
 30
0.0
 10
-38.00499999049908
 20
101.8416666412066
 30
0.0
 10
38.00499999049844
 20
101.8416666412066
 30
0.0
 10
38.00499999049844
 20
101.8416666412066
 30
0.0
 10
39.10956948988442
 20
101.8416666412066
 30
0.0
 10
40.00499998999862
 20
100.9462361410917
 30
0.0
 10
40.00499998999862
 20
99.84166664170642
 30
0.0
 10
40.00499998999862
 20
99.84166664170642
 30
0.0
 10
40.00499998999862
 20
93.8416666432065
 30
0.0
 10
40.00499998999862
 20
93.8416666432065
 30
0.0
 10
40.00499998999862
 20
92.73709714382116
 30
0.0
 10
39.10956948988442
 20
91.8416666437063
 30
0.0
 10
38.00499999049844
 20
91.8416666437063
 30
0.0
  0
INSERT
  5
8F
330
89
100
AcDbEntity
  8
feet2
100
AcDbBlockReference
  2
Block_4
 10
0.0
 20
0.0
 30
0.0
  0
ENDBLK
  5
8C
330
89
100
AcDbEntity
  8
0
100
AcDbBlockEnd
  0
BLOCK
  5
90
330
8E
100
AcDbEntity
  8
0
100
AcDbBlockBegin
  2
Block_4
 70
     0
 10
0.0
 20
0.0
 30
0.0
  3
Block_4
  1

  0
INSERT
  5
93
330
8E
100
AcDbEntity
  8
feet2
100
AcDbBlockReference
  2
Block_5
 10
0.0
 20
0.0
 30
0.0
  0
ENDBLK
  5
91
330
8E
100
AcDbEntity
  8
0
100
AcDbBlockEnd
  0
BLOCK
  5
94
330
92
100
AcDbEntity
  8
0
100
AcDbBlockBegin
  2
Block_5
 70
     0
 10
0.0
 20
0.0
 30
0.0
  3
Block_5
  1

  0
CIRCLE
  5
96
330
92
100
AcDbEntity
  8
feet2
 62
     1
420
 15073298
370
    35
100
AcDbCircle
 10
-19.00499999524922
 20
96.8416666424558
 30
0.0
 40
2.59999999934989
  0
CIRCLE
  5
97
330
92
100
AcDbEntity
  8
feet2
 62
     1
420
 15073298
370
    35
100
AcDbCircle
 10
19.00499999524762
 20
96.8416666424558
 30
0.0
 40
2.599999999349729
  0
ENDBLK
  5
95
330
92
100
AcDbEntity
  8
0
100
AcDbBlockEnd
  0
BLOCK
  5
9B
330
99
100
AcDbEntity
  8
0
100
AcDbBlockBegin
  2
Block_6
 70
     0
 10
0.0
 20
0.0
 30
0.0
  3
Block_6
  1

  0
SPLINE
  5
9D
330
99
100
AcDbEntity
  8
feet2のコピー
 62
     1
420
 15073298
370
    35
100
AcDbSpline
210
0.0
220
0.0
230
1.0
 70
     9
 71
     3
 72
    29
 73
    25
 74
     0
 42
0.0000000001
 43
0.0000000001
 40
0.0
 40
0.0
 40
0.0
 40
0.0
 40
1.0
 40
1.0
 40
1.0
 40
2.0
 40
2.0
 40
2.0
 40
3.0
 40
3.0
 40
3.0
 40
4.0
 40
4.0
 40
4.0
 40
5.0
 40
5.0
 40
5.0
 40
6.0
 40
6.0
 40
6.0
 40
7.0
 40
7.0
 40
7.0
 40
8.0
 40
8.0
 40
8.0
 40
8.0
 10
38.00499999049844
 20
74.90833331460598
 30
0.0
 10
38.00499999049844
 20
74.90833331460598
 30
0.0
 10
-38.00499999049908
 20
74.90833331460598
 30
0.0
 10
-38.00499999049908
 20
74.90833331460598
 30
0.0
 10
-39.10956948988442
 20
74.90833331460598
 30
0.0
 10
-40.00499998999862
 20
75.80376381472084
 30
0.0
 10
-40.00499998999862
 20
76.90833331410617
 30
0.0
 10
-40.00499998999862
 20
76.90833331410617
 30
0.0
 10
-40.00499998999862
 20
82.90833331260609
 30
0.0
 10
-40.00499998999862
 20
82.90833331260609
 30
0.0
 10
-40.00499998999862
 20
84.01290281199143
 30
0.0
 10
-39.10956948988442
 20
84.90833331210628
 30
0.0
 10
-38.00499999049908
 20
84.90833331210628
 30
0.0
 10
-38.00499999049908
 20
84.90833331210628
 30
0.0
 10
38.00499999049844
 20
84.90833331210628
 30
0.0
 10
38.00499999049844
 20
84.90833331210628
 30
0.0
 10
39.10956948988442
 20
84.90833331210628
 30
0.0
 10
40.00499998999862
 20
84.01290281199143
 30
0.0
 10
40.00499998999862
 20
82.90833331260609
 30
0.0
 10
40.00499998999862
 20
82.90833331260609
 30
0.0
 10
40.00499998999862
 20
76.90833331410617
 30
0.0
 10
40.00499998999862
 20
76.90833331410617
 30
0.0
 10
40.00499998999862
 20
75.80376381472084
 30
0.0
 10
39.10956948988442
 20
74.90833331460598
 30
0.0
 10
38.00499999049844
 20
74.90833331460598
 30
0.0
  0
INSERT
  5
9F
330
99
100
AcDbEntity
  8
feet2のコピー
100
AcDbBlockReference
  2
Block_7
 10
0.0
 20
0.0
 30
0.0
  0
ENDBLK
  5
9C
330
99
100
AcDbEntity
  8
0
100
AcDbBlockEnd
  0
BLOCK
  5
A0
330
9E
100
AcDbEntity
  8
0
100
AcDbBlockBegin
  2
Block_7
 70
     0
 10
0.0
 20
0.0
 30
0.0
  3
Block_7
  1

  0
INSERT
  5
A3
330
9E
100
AcDbEntity
  8
feet2のコピー
100
AcDbBlockReference
  2
Block_8
 10
0.0
 20
0.0
 30
0.0
  0
ENDBLK
  5
A1
330
9E
100
AcDbEntity
  8
0
100
AcDbBlockEnd
  0
BLOCK
  5
A4
330
A2
100
AcDbEntity
  8
0
100
AcDbBlockBegin
  2
Block_8
 70
     0
 10
0.0
 20
0.0
 30
0.0
  3
Block_8
  1

  0
CIRCLE
  5
A6
330
A2
100
AcDbEntity
  8
feet2のコピー
 62
     1
420
 15073298
370
    35
100
AcDbCircle
 10
-19.00499999524922
 20
79.90833331335548
 30
0.0
 40
2.59999999934989
  0
CIRCLE
  5
A7
330
A2
100
AcDbEntity
  8
feet2のコピー
 62
     1
420
 15073298
370
    35
100
AcDbCircle
 10
19.00499999524762
 20
79.90833331335548
 30
0.0
 40
2.599999999349729
  0
ENDBLK
  5
A5
330
A2
100
AcDbEntity
  8
0
100
AcDbBlockEnd
  0
BLOCK
  5
AB
330
A9
100
AcDbEntity
  8
0
100
AcDbBlockBegin
  2
Block_9
 70
     0
 10
0.0
 20
0.0
 30
0.0
  3
Block_9
  1

  0
SPLINE
  5
AD
330
A9
100
AcDbEntity
  8
feet2のコピー 2
 62
     1
420
 15073298
370
    35
100
AcDbSpline
210
0.0
220
0.0
230
1.0
 70
     9
 71
     3
 72
    29
 73
    25
 74
     0
 42
0.0000000001
 43
0.0000000001
 40
0.0
 40
0.0
 40
0.0
 40
0.0
 40
1.0
 40
1.0
 40
1.0
 40
2.0
 40
2.0
 40
2.0
 40
3.0
 40
3.0
 40
3.0
 40
4.0
 40
4.0
 40
4.0
 40
5.0
 40
5.0
 40
5.0
 40
6.0
 40
6.0
 40
6.0
 40
7.0
 40
7.0
 40
7.0
 40
8.0
 40
8.0
 40
8.0
 40
8.0
 10
38.00499999049844
 20
57.97499998550598
 30
0.0
 10
38.00499999049844
 20
57.97499998550598
 30
0.0
 10
-38.00499999049908
 20
57.97499998550598
 30
0.0
 10
-38.00499999049908
 20
57.97499998550598
 30
0.0
 10
-39.10956948988442
 20
57.97499998550598
 30
0.0
 10
-40.00499998999862
 20
58.87043048562084
 30
0.0
 10
-40.00499998999862
 20
59.97499998500617
 30
0.0
 10
-40.00499998999862
 20
59.97499998500617
 30
0.0
 10
-40.00499998999862
 20
65.9749999835061
 30
0.0
 10
-40.00499998999862
 20
65.9749999835061
 30
0.0
 10
-40.00499998999862
 20
67.07956948289143
 30
0.0
 10
-39.10956948988442
 20
67.97499998300629
 30
0.0
 10
-38.00499999049908
 20
67.97499998300629
 30
0.0
 10
-38.00499999049908
 20
67.97499998300629
 30
0.0
 10
38.00499999049844
 20
67.97499998300629
 30
0.0
 10
38.00499999049844
 20
67.97499998300629
 30
0.0
 10
39.10956948988442
 20
67.97499998300629
 30
0.0
 10
40.00499998999862
 20
67.07956948289143
 30
0.0
 10
40.00499998999862
 20
65.9749999835061
 30
0.0
 10
40.00499998999862
 20
65.9749999835061
 30
0.0
 10
40.00499998999862
 20
59.97499998500617
 30
0.0
 10
40.00499998999862
 20
59.97499998500617
 30
0.0
 10
40.00499998999862
 20
58.87043048562084
 30
0.0
 10
39.10956948988442
 20
57.97499998550598
 30
0.0
 10
38.00499999049844
 20
57.97499998550598
 30
0.0
  0
INSERT
  5
AF
330
A9
100
AcDbEntity
  8
feet2のコピー 2
100
AcDbBlockReference
  2
Block_10
 10
0.0
 20
0.0
 30
0.0
  0
ENDBLK
  5
AC
330
A9
100
AcDbEntity
  8
0
100
AcDbBlockEnd
  0
BLOCK
  5
B0
330
AE
100
AcDbEntity
  8
0
100
AcDbBlockBegin
  2
Block_10
 70
     0
 10
0.0
 20
0.0
 30
0.0
  3
Block_10
  1

  0
INSERT
  5
B3
330
AE
100
AcDbEntity
  8
feet2のコピー 2
100
AcDbBlockReference
  2
Block_11
 10
0.0
 20
0.0
 30
0.0
  0
ENDBLK
  5
B1
330
AE
100
AcDbEntity
  8
0
100
AcDbBlockEnd
  0
BLOCK
  5
B4
330
B2
100
AcDbEntity
  8
0
100
AcDbBlockBegin
  2
Block_11
 70
     0
 10
0.0
 20
0.0
 30
0.0
  3
Block_11
  1

  0
CIRCLE
  5
B6
330
B2
100
AcDbEntity
  8
feet2のコピー 2
 62
     1
420
 15073298
370
    35
100
AcDbCircle
 10
-19.00499999524922
 20
62.97499998425549
 30
0.0
 40
2.59999999934989
  0
CIRCLE
  5
B7
330
B2
100
AcDbEntity
  8
feet2のコピー 2
 62
     1
420
 15073298
370
    35
100
AcDbCircle
 10
19.00499999524762
 20
62.97499998425549
 30
0.0
 40
2.599999999349729
  0
ENDBLK
  5
B5
330
B2
100
AcDbEntity
  8
0
100
AcDbBlockEnd
  0
BLOCK
  5
BB
330
B9
100
AcDbEntity
  8
0
100
AcDbBlockBegin
  2
Block_12
 70
     0
 10
0.0
 20
0.0
 30
0.0
  3
Block_12
  1

  0
SPLINE
  5
BD
330
B9
100
AcDbEntity
  8
bottom
 62
     1
420
 15073298
370
    35
100
AcDbSpline
210
0.0
220
0.0
230
1.0
 70
     9
 71
     3
 72
    29
 73
    25
 74
     0
 42
0.0000000001
 43
0.0000000001
 40
0.0
 40
0.0
 40
0.0
 40
0.0
 40
1.0
 40
1.0
 40
1.0
 40
2.0
 40
2.0
 40
2.0
 40
3.0
 40
3.0
 40
3.0
 40
4.0
 40
4.0
 40
4.0
 40
5.0
 40
5.0
 40
5.0
 40
6.0
 40
6.0
 40
6.0
 40
7.0
 40
7.0
 40
7.0
 40
8.0
 40
8.0
 40
8.0
 40
8.0
 10
50.8000350088195
 20
-85.26037093921777
 30
0.0
 10
50.8000350088195
 20
-85.26037093921777
 30
0.0
 10
50.8000350088195
 20
21.98939167502891
 30
0.0
 10
50.8000350088195
 20
21.98939167502891
 30
0.0
 10
50.8000350088195
 20
23.6462459241066
 30
0.0
 10
52.14318075899146
 20
24.98939167427887
 30
0.0
 10
53.80003500806946
 20
24.98939167427887
 30
0.0
 10
53.80003500806946
 20
24.98939167427887
 30
0.0
 10
141.9999698818529
 20
24.98939167427887
 30
0.0
 10
141.9999698818529
 20
24.98939167427887
 30
0.0
 10
143.6568241309312
 20
24.98939167427887
 30
0.0
 10
144.9999649422302
 20
23.6462459241066
 30
0.0
 10
144.9999649422302
 20
21.98939167502891
 30
0.0
 10
144.9999649422302
 20
21.98939167502891
 30
0.0
 10
144.9999649422302
 20
-85.26037093921777
 30
0.0
 10
144.9999649422302
 20
-85.26037093921777
 30
0.0
 10
144.9999649422302
 20
-86.91722518829609
 30
0.0
 10
143.6568241309312
 20
-88.26037093846773
 30
0.0
 10
141.9999698818529
 20
-88.26037093846773
 30
0.0
 10
141.9999698818529
 20
-88.26037093846773
 30
0.0
 10
53.80003500806946
 20
-88.26037093846773
 30
0.0
 10
53.80003500806946
 20
-88.26037093846773
 30
0.0
 10
52.14318075899146
 20
-88.26037093846773
 30
0.0
 10
50.8000350088195
 20
-86.91722518829609
 30
0.0
 10
50.8000350088195
 20
-85.26037093921777
 30
0.0
  0
INSERT
  5
BF
330
B9
100
AcDbEntity
  8
bottom
100
AcDbBlockReference
  2
Block_13
 10
0.0
 20
0.0
 30
0.0
  0
INSERT
  5
CB
330
B9
100
AcDbEntity
  8
bottom
100
AcDbBlockReference
  2
Block_15
 10
0.0
 20
0.0
 30
0.0
  0
ENDBLK
  5
BC
330
B9
100
AcDbEntity
  8
0
100
AcDbBlockEnd
  0
BLOCK
  5
C0
330
BE
100
AcDbEntity
  8
0
100
AcDbBlockBegin
  2
Block_13
 70
     0
 10
0.0
 20
0.0
 30
0.0
  3
Block_13
  1

  0
INSERT
  5
C3
330
BE
100
AcDbEntity
  8
bottom
100
AcDbBlockReference
  2
Block_14
 10
0.0
 20
0.0
 30
0.0
  0
ENDBLK
  5
C1
330
BE
100
AcDbEntity
  8
0
100
AcDbBlockEnd
  0
BLOCK
  5
C4
330
C2
100
AcDbEntity
  8
0
100
AcDbBlockBegin
  2
Block_14
 70
     0
 10
0.0
 20
0.0
 30
0.0
  3
Block_14
  1

  0
CIRCLE
  5
C6
330
C2
100
AcDbEntity
  8
bottom
 62
     1
420
 15073298
370
    35
100
AcDbCircle
 10
54.49993518150597
 20
21.2894732181723
 30
0.0
 40
1.349999999662433
  0
CIRCLE
  5
C7
330
C2
100
AcDbEntity
  8
bottom
 62
     1
420
 15073298
370
    35
100
AcDbCircle
 10
141.2999351598056
 20
21.2894732181723
 30
0.0
 40
1.349999999662353
  0
CIRCLE
  5
C8
330
C2
100
AcDbEntity
  8
bottom
 62
     1
420
 15073298
370
    35
100
AcDbCircle
 10
54.49993518150597
 20
-84.5605267553652
 30
0.0
 40
1.349999999662674
  0
CIRCLE
  5
C9
330
C2
100
AcDbEntity
  8
bottom
 62
     1
420
 15073298
370
    35
100
AcDbCircle
 10
141.2999351598056
 20
-84.56052675536456
 30
0.0
 40
1.349999999662594
  0
ENDBLK
  5
C5
330
C2
100
AcDbEntity
  8
0
100
AcDbBlockEnd
  0
BLOCK
  5
CC
330
CA
100
AcDbEntity
  8
0
100
AcDbBlockBegin
  2
Block_15
 70
     0
 10
0.0
 20
0.0
 30
0.0
  3
Block_15
  1

  0
INSERT
  5
CF
330
CA
100
AcDbEntity
  8
bottom
100
AcDbBlockReference
  2
Block_16
 10
0.0
 20
0.0
 30
0.0
  0
ENDBLK
  5
CD
330
CA
100
AcDbEntity
  8
0
100
AcDbBlockEnd
  0
BLOCK
  5
D0
330
CE
100
AcDbEntity
  8
0
100
AcDbBlockBegin
  2
Block_16
 70
     0
 10
0.0
 20
0.0
 30
0.0
  3
Block_16
  1

  0
CIRCLE
  5
D2
330
CE
100
AcDbEntity
  8
bottom
 62
     1
420
 15073298
370
    35
100
AcDbCircle
 10
78.89493517540731
 20
8.691473221321771
 30
0.0
 40
1.349999999662674
  0
CIRCLE
  5
D3
330
CE
100
AcDbEntity
  8
bottom
 62
     1
420
 15073298
370
    35
100
AcDbCircle
 10
116.9049351659041
 20
8.69147322132161
 30
0.0
 40
1.349999999662273
  0
ENDBLK
  5
D1
330
CE
100
AcDbEntity
  8
0
100
AcDbBlockEnd
  0
BLOCK
  5
D7
330
D5
100
AcDbEntity
  8
0
100
AcDbBlockBegin
  2
Block_17
 70
     0
 10
0.0
 20
0.0
 30
0.0
  3
Block_17
  1

  0
INSERT
  5
DA
330
D5
100
AcDbEntity
  8
lower-middle
100
AcDbBlockReference
  2
Block_18
 10
0.0
 20
0.0
 30
0.0
  0
SPLINE
  5
E5
330
D5
100
AcDbEntity
  8
lower-middle
 62
     1
420
 15073298
370
    35
100
AcDbSpline
210
0.0
220
0.0
230
1.0
 70
     9
 71
     3
 72
    71
 73
    67
 74
     0
 42
0.0000000001
 43
0.0000000001
 40
0.0
 40
0.0
 40
0.0
 40
0.0
 40
1.0
 40
1.0
 40
1.0
 40
2.0
 40
2.0
 40
2.0
 40
3.0
 40
3.0
 40
3.0
 40
4.0
 40
4.0
 40
4.0
 40
5.0
 40
5.0
 40
5.0
 40
6.0
 40
6.0
 40
6.0
 40
7.0
 40
7.0
 40
7.0
 40
8.0
 40
8.0
 40
8.0
 40
9.0
 40
9.0
 40
9.0
 40
10.0
 40
10.0
 40
10.0
 40
11.0
 40
11.0
 40
11.0
 40
12.0
 40
12.0
 40
12.0
 40
13.0
 40
13.0
 40
13.0
 40
14.0
 40
14.0
 40
14.0
 40
15.0
 40
15.0
 40
15.0
 40
16.0
 40
16.0
 40
16.0
 40
17.0
 40
17.0
 40
17.0
 40
18.0
 40
18.0
 40
18.0
 40
19.0
 40
19.0
 40
19.0
 40
20.0
 40
20.0
 40
20.0
 40
21.0
 40
21.0
 40
21.0
 40
22.0
 40
22.0
 40
22.0
 40
22.0
 10
-53.80004075034925
 20
24.98939167427887
 30
0.0
 10
-53.80004075034925
 20
24.98939167427887
 30
0.0
 10
-91.18447287669107
 20
24.98939167427887
 30
0.0
 10
-91.18447287669107
 20
24.98939167427887
 30
0.0
 10
-91.18447287669107
 20
24.98939167427887
 30
0.0
 10
-91.18447287669107
 20
19.89571034010307
 30
0.0
 10
-91.18447287669107
 20
19.89571034010307
 30
0.0
 10
-91.18447287669107
 20
19.34341847012395
 30
0.0
 10
-90.73676118653608
 20
18.89570677996896
 30
0.0
 10
-90.18446931655697
 20
18.89570677996896
 30
0.0
 10
-90.18446931655697
 20
18.89570677996896
 30
0.0
 10
-57.89440754348799
 20
18.89570677996896
 30
0.0
 10
-57.89440754348799
 20
18.89570677996896
 30
0.0
 10
-57.34211567350887
 20
18.89570677996896
 30
0.0
 10
-56.89440398335388
 20
18.44799508981395
 30
0.0
 10
-56.89440398335388
 20
17.89570321983484
 30
0.0
 10
-56.89440398335388
 20
17.89570321983484
 30
0.0
 10
-56.89440398335388
 20
-81.16427091718403
 30
0.0
 10
-56.89440398335388
 20
-81.16427091718403
 30
0.0
 10
-56.89440398335388
 20
-81.71656278716314
 30
0.0
 10
-57.34211567350887
 20
-82.16427447731813
 30
0.0
 10
-57.89440754348799
 20
-82.16427447731813
 30
0.0
 10
-57.89440754348799
 20
-82.16427447731813
 30
0.0
 10
-137.9045539400436
 20
-82.16427447731813
 30
0.0
 10
-137.9045539400436
 20
-82.16427447731813
 30
0.0
 10
-138.4568458100227
 20
-82.16427447731813
 30
0.0
 10
-138.9045575001777
 20
-81.71656278716314
 30
0.0
 10
-138.9045575001777
 20
-81.16427091718403
 30
0.0
 10
-138.9045575001777
 20
-81.16427091718403
 30
0.0
 10
-138.9045575001777
 20
17.89570321983484
 30
0.0
 10
-138.9045575001777
 20
17.89570321983484
 30
0.0
 10
-138.9045575001777
 20
18.44799508981395
 30
0.0
 10
-138.4568458100227
 20
18.89570677996896
 30
0.0
 10
-137.9045539400436
 20
18.89570677996896
 30
0.0
 10
-137.9045539400436
 20
18.89570677996896
 30
0.0
 10
-105.6146644217489
 20
18.89570677996896
 30
0.0
 10
-105.6146644217489
 20
18.89570677996896
 30
0.0
 10
-105.0623725517698
 20
18.89570677996896
 30
0.0
 10
-104.6146608616147
 20
19.34341847012395
 30
0.0
 10
-104.6146608616147
 20
19.89571034010307
 30
0.0
 10
-104.6146608616147
 20
19.89571034010307
 30
0.0
 10
-104.6146608616147
 20
24.98939167427887
 30
0.0
 10
-104.6146608616147
 20
24.98939167427887
 30
0.0
 10
-104.6146608616147
 20
24.98939167427887
 30
0.0
 10
-141.9999542618279
 20
24.98939167427887
 30
0.0
 10
-141.9999542618279
 20
24.98939167427887
 30
0.0
 10
-143.6568298717652
 20
24.98939167427887
 30
0.0
 10
-144.9999649422302
 20
23.64625660381387
 30
0.0
 10
-144.9999649422302
 20
21.98940252572331
 30
0.0
 10
-144.9999649422302
 20
21.98940252572331
 30
0.0
 10
-144.9999649422302
 20
-85.26036025806538
 30
0.0
 10
-144.9999649422302
 20
-85.26036025806538
 30
0.0
 10
-144.9999649422302
 20
-86.91721433615594
 30
0.0
 10
-143.6568298717652
 20
-88.26037093846773
 30
0.0
 10
-141.9999542618279
 20
-88.26037093846773
 30
0.0
 10
-141.9999542618279
 20
-88.26037093846773
 30
0.0
 10
-53.80004075034925
 20
-88.26037093846773
 30
0.0
 10
-53.80004075034925
 20
-88.26037093846773
 30
0.0
 10
-52.14316514041191
 20
-88.26037093846773
 30
0.0
 10
-50.8000350088195
 20
-86.91721433615594
 30
0.0
 10
-50.8000350088195
 20
-85.26036025806538
 30
0.0
 10
-50.8000350088195
 20
-85.26036025806538
 30
0.0
 10
-50.8000350088195
 20
21.98940252572331
 30
0.0
 10
-50.8000350088195
 20
21.98940252572331
 30
0.0
 10
-50.8000350088195
 20
23.64625660381387
 30
0.0
 10
-52.14316514041191
 20
24.98939167427887
 30
0.0
 10
-53.80004075034925
 20
24.98939167427887
 30
0.0
  0
ENDBLK
  5
D8
330
D5
100
AcDbEntity
  8
0
100
AcDbBlockEnd
  0
BLOCK
  5
DB
330
D9
100
AcDbEntity
  8
0
100
AcDbBlockBegin
  2
Block_18
 70
     0
 10
0.0
 20
0.0
 30
0.0
  3
Block_18
  1

  0
INSERT
  5
DE
330
D9
100
AcDbEntity
  8
lower-middle
100
AcDbBlockReference
  2
Block_19
 10
0.0
 20
0.0
 30
0.0
  0
ENDBLK
  5
DC
330
D9
100
AcDbEntity
  8
0
100
AcDbBlockEnd
  0
BLOCK
  5
DF
330
DD
100
AcDbEntity
  8
0
100
AcDbBlockBegin
  2
Block_19
 70
     0
 10
0.0
 20
0.0
 30
0.0
  3
Block_19
  1

  0
CIRCLE
  5
E1
330
DD
100
AcDbEntity
  8
lower-middle
 62
     1
420
 15073298
370
    35
100
AcDbCircle
 10
-141.3000647695444
 20
21.2894732181723
 30
0.0
 40
2.599999999349809
  0
CIRCLE
  5
E2
330
DD
100
AcDbEntity
  8
lower-middle
 62
     1
420
 15073298
370
    35
100
AcDbCircle
 10
-141.3000647695444
 20
-84.5605267553652
 30
0.0
 40
2.599999999349729
  0
CIRCLE
  5
E3
330
DD
100
AcDbEntity
  8
lower-middle
 62
     1
420
 15073298
370
    35
100
AcDbCircle
 10
-54.50006479124476
 20
21.2894732181723
 30
0.0
 40
2.599999999349729
  0
CIRCLE
  5
E4
330
DD
100
AcDbEntity
  8
lower-middle
 62
     1
420
 15073298
370
    35
100
AcDbCircle
 10
-54.50006479124476
 20
-84.56052675536456
 30
0.0
 40
2.599999999349649
  0
ENDBLK
  5
E0
330
DD
100
AcDbEntity
  8
0
100
AcDbBlockEnd
  0
BLOCK
  5
E9
330
E7
100
AcDbEntity
  8
0
100
AcDbBlockBegin
  2
Block_20
 70
     0
 10
0.0
 20
0.0
 30
0.0
  3
Block_20
  1

  0
INSERT
  5
EC
330
E7
100
AcDbEntity
  8
lower-middleのコピー
100
AcDbBlockReference
  2
Block_21
 10
0.0
 20
0.0
 30
0.0
  0
SPLINE
  5
F7
330
E7
100
AcDbEntity
  8
lower-middleのコピー
 62
     1
420
 15073298
370
    35
100
AcDbSpline
210
0.0
220
0.0
230
1.0
 70
     9
 71
     3
 72
    71
 73
    67
 74
     0
 42
0.0000000001
 43
0.0000000001
 40
0.0
 40
0.0
 40
0.0
 40
0.0
 40
1.0
 40
1.0
 40
1.0
 40
2.0
 40
2.0
 40
2.0
 40
3.0
 40
3.0
 40
3.0
 40
4.0
 40
4.0
 40
4.0
 40
5.0
 40
5.0
 40
5.0
 40
6.0
 40
6.0
 40
6.0
 40
7.0
 40
7.0
 40
7.0
 40
8.0
 40
8.0
 40
8.0
 40
9.0
 40
9.0
 40
9.0
 40
10.0
 40
10.0
 40
10.0
 40
11.0
 40
11.0
 40
11.0
 40
12.0
 40
12.0
 40
12.0
 40
13.0
 40
13.0
 40
13.0
 40
14.0
 40
14.0
 40
14.0
 40
15.0
 40
15.0
 40
15.0
 40
16.0
 40
16.0
 40
16.0
 40
17.0
 40
17.0
 40
17.0
 40
18.0
 40
18.0
 40
18.0
 40
19.0
 40
19.0
 40
19.0
 40
20.0
 40
20.0
 40
20.0
 40
21.0
 40
21.0
 40
21.0
 40
22.0
 40
22.0
 40
22.0
 40
22.0
 10
44.09995922517563
 20
24.98939167427887
 30
0.0
 10
44.09995922517563
 20
24.98939167427887
 30
0.0
 10
6.715527098833804
 20
24.98939167427887
 30
0.0
 10
6.715527098833804
 20
24.98939167427887
 30
0.0
 10
6.715527098833804
 20
24.98939167427887
 30
0.0
 10
6.715527098833804
 20
19.89571034010307
 30
0.0
 10
6.715527098833804
 20
19.89571034010307
 30
0.0
 10
6.715527098833804
 20
19.34341847012395
 30
0.0
 10
7.163238788988802
 20
18.89570677996896
 30
0.0
 10
7.715530658967917
 20
18.89570677996896
 30
0.0
 10
7.715530658967917
 20
18.89570677996896
 30
0.0
 10
40.0055924320369
 20
18.89570677996896
 30
0.0
 10
40.0055924320369
 20
18.89570677996896
 30
0.0
 10
40.55788430201601
 20
18.89570677996896
 30
0.0
 10
41.00559599217101
 20
18.44799508981395
 30
0.0
 10
41.00559599217101
 20
17.89570321983484
 30
0.0
 10
41.00559599217101
 20
17.89570321983484
 30
0.0
 10
41.00559599217101
 20
-81.16427091718403
 30
0.0
 10
41.00559599217101
 20
-81.16427091718403
 30
0.0
 10
41.00559599217101
 20
-81.71656278716314
 30
0.0
 10
40.55788430201601
 20
-82.16427447731813
 30
0.0
 10
40.0055924320369
 20
-82.16427447731813
 30
0.0
 10
40.0055924320369
 20
-82.16427447731813
 30
0.0
 10
-40.00455396451872
 20
-82.16427447731813
 30
0.0
 10
-40.00455396451872
 20
-82.16427447731813
 30
0.0
 10
-40.55684583449784
 20
-82.16427447731813
 30
0.0
 10
-41.00455752465284
 20
-81.71656278716314
 30
0.0
 10
-41.00455752465284
 20
-81.16427091718403
 30
0.0
 10
-41.00455752465284
 20
-81.16427091718403
 30
0.0
 10
-41.00455752465284
 20
17.89570321983484
 30
0.0
 10
-41.00455752465284
 20
17.89570321983484
 30
0.0
 10
-41.00455752465284
 20
18.44799508981395
 30
0.0
 10
-40.55684583449784
 20
18.89570677996896
 30
0.0
 10
-40.00455396451872
 20
18.89570677996896
 30
0.0
 10
-40.00455396451872
 20
18.89570677996896
 30
0.0
 10
-7.714664446224013
 20
18.89570677996896
 30
0.0
 10
-7.714664446224013
 20
18.89570677996896
 30
0.0
 10
-7.162372576244898
 20
18.89570677996896
 30
0.0
 10
-6.714660886089899
 20
19.34341847012395
 30
0.0
 10
-6.714660886089899
 20
19.89571034010307
 30
0.0
 10
-6.714660886089899
 20
19.89571034010307
 30
0.0
 10
-6.714660886089899
 20
24.98939167427887
 30
0.0
 10
-6.714660886089899
 20
24.98939167427887
 30
0.0
 10
-6.714660886089899
 20
24.98939167427887
 30
0.0
 10
-44.09995428630304
 20
24.98939167427887
 30
0.0
 10
-44.09995428630304
 20
24.98939167427887
 30
0.0
 10
-45.75682989624038
 20
24.98939167427887
 30
0.0
 10
-47.09996496670537
 20
23.64625660381387
 30
0.0
 10
-47.09996496670537
 20
21.98940252572331
 30
0.0
 10
-47.09996496670537
 20
21.98940252572331
 30
0.0
 10
-47.09996496670537
 20
-85.26036025806538
 30
0.0
 10
-47.09996496670537
 20
-85.26036025806538
 30
0.0
 10
-47.09996496670537
 20
-86.91721433615594
 30
0.0
 10
-45.75682989624038
 20
-88.26037093846773
 30
0.0
 10
-44.09995428630304
 20
-88.26037093846773
 30
0.0
 10
-44.09995428630304
 20
-88.26037093846773
 30
0.0
 10
44.09995922517563
 20
-88.26037093846773
 30
0.0
 10
44.09995922517563
 20
-88.26037093846773
 30
0.0
 10
45.75683483511297
 20
-88.26037093846773
 30
0.0
 10
47.09996496670537
 20
-86.91721433615594
 30
0.0
 10
47.09996496670537
 20
-85.26036025806538
 30
0.0
 10
47.09996496670537
 20
-85.26036025806538
 30
0.0
 10
47.09996496670537
 20
21.98940252572331
 30
0.0
 10
47.09996496670537
 20
21.98940252572331
 30
0.0
 10
47.09996496670537
 20
23.64625660381387
 30
0.0
 10
45.75683483511297
 20
24.98939167427887
 30
0.0
 10
44.09995922517563
 20
24.98939167427887
 30
0.0
  0
ENDBLK
  5
EA
330
E7
100
AcDbEntity
  8
0
100
AcDbBlockEnd
  0
BLOCK
  5
ED
330
EB
100
AcDbEntity
  8
0
100
AcDbBlockBegin
  2
Block_21
 70
     0
 10
0.0
 20
0.0
 30
0.0
  3
Block_21
  1

  0
INSERT
  5
F0
330
EB
100
AcDbEntity
  8
lower-middleのコピー
100
AcDbBlockReference
  2
Block_22
 10
0.0
 20
0.0
 30
0.0
  0
ENDBLK
  5
EE
330
EB
100
AcDbEntity
  8
0
100
AcDbBlockEnd
  0
BLOCK
  5
F1
330
EF
100
AcDbEntity
  8
0
100
AcDbBlockBegin
  2
Block_22
 70
     0
 10
0.0
 20
0.0
 30
0.0
  3
Block_22
  1

  0
CIRCLE
  5
F3
330
EF
100
AcDbEntity
  8
lower-middleのコピー
 62
     1
420
 15073298
370
    35
100
AcDbCircle
 10
-43.40006479401956
 20
21.2894732181723
 30
0.0
 40
2.599999999349809
  0
CIRCLE
  5
F4
330
EF
100
AcDbEntity
  8
lower-middleのコピー
 62
     1
420
 15073298
370
    35
100
AcDbCircle
 10
-43.40006479401956
 20
-84.5605267553652
 30
0.0
 40
2.599999999349729
  0
CIRCLE
  5
F5
330
EF
100
AcDbEntity
  8
lower-middleのコピー
 62
     1
420
 15073298
370
    35
100
AcDbCircle
 10
43.39993518428012
 20
21.2894732181723
 30
0.0
 40
2.599999999349729
  0
CIRCLE
  5
F6
330
EF
100
AcDbEntity
  8
lower-middleのコピー
 62
     1
420
 15073298
370
    35
100
AcDbCircle
 10
43.39993518428012
 20
-84.56052675536456
 30
0.0
 40
2.599999999349649
  0
ENDBLK
  5
F2
330
EF
100
AcDbEntity
  8
0
100
AcDbBlockEnd
  0
BLOCK
  5
FB
330
F9
100
AcDbEntity
  8
0
100
AcDbBlockBegin
  2
Block_23
 70
     0
 10
0.0
 20
0.0
 30
0.0
  3
Block_23
  1

  0
INSERT
  5
FE
330
F9
100
AcDbEntity
  8
upper-middle
100
AcDbBlockReference
  2
Block_24
 10
0.0
 20
0.0
 30
0.0
  0
SPLINE
  5
104
330
F9
100
AcDbEntity
  8
upper-middle
 62
     1
420
 15073298
370
    35
100
AcDbSpline
210
0.0
220
0.0
230
1.0
 70
     9
 71
     3
 72
    29
 73
    25
 74
     0
 42
0.0000000001
 43
0.0000000001
 40
0.0
 40
0.0
 40
0.0
 40
0.0
 40
1.0
 40
1.0
 40
1.0
 40
2.0
 40
2.0
 40
2.0
 40
3.0
 40
3.0
 40
3.0
 40
4.0
 40
4.0
 40
4.0
 40
5.0
 40
5.0
 40
5.0
 40
6.0
 40
6.0
 40
6.0
 40
7.0
 40
7.0
 40
7.0
 40
8.0
 40
8.0
 40
8.0
 40
8.0
 10
50.8000350088195
 20
34.7501186707828
 30
0.0
 10
50.8000350088195
 20
34.7501186707828
 30
0.0
 10
50.8000350088195
 20
141.9998812850294
 30
0.0
 10
50.8000350088195
 20
141.9998812850294
 30
0.0
 10
50.8000350088195
 20
143.6567355341071
 30
0.0
 10
52.14318075899146
 20
144.9998812842794
 30
0.0
 10
53.80003500806946
 20
144.9998812842794
 30
0.0
 10
53.80003500806946
 20
144.9998812842794
 30
0.0
 10
141.9999649429803
 20
144.9998812842794
 30
0.0
 10
141.9999649429803
 20
144.9998812842794
 30
0.0
 10
143.6568191920586
 20
144.9998812842794
 30
0.0
 10
144.9999649422302
 20
143.6567355341071
 30
0.0
 10
144.9999649422302
 20
141.9998812850294
 30
0.0
 10
144.9999649422302
 20
141.9998812850294
 30
0.0
 10
144.9999649422302
 20
34.7501186707828
 30
0.0
 10
144.9999649422302
 20
34.7501186707828
 30
0.0
 10
144.9999649422302
 20
33.09326442170447
 30
0.0
 10
143.6568191920586
 20
31.75011867153284
 30
0.0
 10
141.9999649429803
 20
31.75011867153284
 30
0.0
 10
141.9999649429803
 20
31.75011867153284
 30
0.0
 10
53.80003500806946
 20
31.75011867153284
 30
0.0
 10
53.80003500806946
 20
31.75011867153284
 30
0.0
 10
52.14318075899146
 20
31.75011867153284
 30
0.0
 10
50.8000350088195
 20
33.09326442170447
 30
0.0
 10
50.8000350088195
 20
34.7501186707828
 30
0.0
  0
INSERT
  5
106
330
F9
100
AcDbEntity
  8
upper-middle
100
AcDbBlockReference
  2
Block_25
 10
0.0
 20
0.0
 30
0.0
  0
INSERT
  5
112
330
F9
100
AcDbEntity
  8
upper-middle
100
AcDbBlockReference
  2
Block_27
 10
0.0
 20
0.0
 30
0.0
  0
INSERT
  5
11A
330
F9
100
AcDbEntity
  8
upper-middle
100
AcDbBlockReference
  2
Block_28
 10
0.0
 20
0.0
 30
0.0
  0
INSERT
  5
121
330
F9
100
AcDbEntity
  8
upper-middle
100
AcDbBlockReference
  2
Block_29
 10
0.0
 20
0.0
 30
0.0
  0
INSERT
  5
128
330
F9
100
AcDbEntity
  8
upper-middle
100
AcDbBlockReference
  2
Block_30
 10
0.0
 20
0.0
 30
0.0
  0
LWPOLYLINE
  5
12E
330
F9
100
AcDbEntity
  8
upper-middle
 62
     1
420
 15073298
370
    35
100
AcDbPolyline
 90
       12
 70
     1
 43
0.0
 10
104.9248832042458
 20
42.27496666762661
 10
109.9248794730696
 20
42.27496666762661
 10
109.9248794730696
 20
43.27484103668003
 10
114.4249277914426
 20
43.27484103668003
 10
114.4249277914426
 20
57.27482628301728
 10
109.9248794730696
 20
57.27482628301728
 10
109.9248794730696
 20
58.27495903423209
 10
104.9248832042458
 20
58.27495903423209
 10
104.9248832042458
 20
57.27482628301728
 10
100.424942545106
 20
57.27482628301728
 10
100.424942545106
 20
43.27484103668003
 10
104.9248832042458
 20
43.27484103668003
  0
ENDBLK
  5
FC
330
F9
100
AcDbEntity
  8
0
100
AcDbBlockEnd
  0
BLOCK
  5
FF
330
FD
100
AcDbEntity
  8
0
100
AcDbBlockBegin
  2
Block_24
 70
     0
 10
0.0
 20
0.0
 30
0.0
  3
Block_24
  1

  0
LWPOLYLINE
  5
101
330
FD
100
AcDbEntity
  8
upper-middle
 62
     1
420
 15073298
370
    35
100
AcDbPolyline
 90
       16
 70
     1
 43
0.0
 10
85.84892924647688
 20
59.79911717933179
 10
85.84892924647688
 20
57.27396984787756
 10
81.34894552364354
 20
57.27396984787756
 10
81.34894552364354
 20
58.27397340801169
 10
76.34892772297265
 20
58.27397340801169
 10
76.34892772297265
 20
57.27396984787756
 10
71.84894400013931
 20
57.27396984787756
 10
71.84894400013931
 20
59.79931096595283
 10
62.32394400252055
 20
59.79946168888031
 10
62.32394400252055
 20
39.42096827899013
 10
71.84894400013931
 20
39.42081755606265
 10
71.84894400013931
 20
40.72097506034915
 10
85.84892924647688
 20
40.72097506034915
 10
85.84892924647688
 20
39.4206237694416
 10
95.37392924409562
 20
39.42047304651412
 10
95.37392924409562
 20
59.7989664564043
  0
LWPOLYLINE
  5
102
330
FD
100
AcDbEntity
  8
upper-middle
 62
     1
420
 15073298
370
    35
100
AcDbPolyline
 90
       16
 70
     1
 43
0.0
 10
137.3339434073249
 20
66.80196277219913
 10
137.3339649391717
 20
76.32696276981788
 10
116.9499163128115
 20
76.32696276981788
 10
116.9499163128115
 20
66.80196277219913
 10
119.474934453185
 20
66.80196277219913
 10
119.474934453185
 20
62.301957517519
 10
118.4749308930509
 20
62.301957517519
 10
118.4749308930509
 20
57.30196124869522
 10
119.474934453185
 20
57.30196124869522
 10
119.474934453185
 20
52.80197752586189
 10
116.9499378446583
 20
52.80197752586189
 10
116.9499378446583
 20
43.27697752824313
 10
137.3339218754781
 20
43.27697752824313
 10
137.3339434073249
 20
52.80197752586189
 10
136.0339150941191
 20
52.80197752586189
 10
136.0339150941191
 20
66.80196277219913
  0
LWPOLYLINE
  5
103
330
FD
100
AcDbEntity
  8
upper-middle
 62
     1
420
 15073298
370
    35
100
AcDbPolyline
 90
       16
 70
     1
 43
0.0
 10
137.3339649391717
 20
104.9019627626741
 10
137.3339864710185
 20
114.4269627602929
 10
116.9499378446583
 20
114.4269627602929
 10
116.9499378446583
 20
104.9019627626741
 10
119.474934453185
 20
104.9019627626741
 10
119.474934453185
 20
100.4019575079933
 10
118.4749308930509
 20
100.4019575079933
 10
118.4749308930509
 20
95.40196123917022
 10
119.474934453185
 20
95.40196123917022
 10
119.474934453185
 20
90.90197751633688
 10
116.9499378446583
 20
90.90197751633688
 10
116.9499378446583
 20
81.37697751871813
 10
137.3339434073249
 20
81.37697751871813
 10
137.3339649391717
 20
90.90197751633688
 10
136.0339366259659
 20
90.90197751633688
 10
136.0339366259659
 20
104.9019627626741
  0
ENDBLK
  5
100
330
FD
100
AcDbEntity
  8
0
100
AcDbBlockEnd
  0
BLOCK
  5
107
330
105
100
AcDbEntity
  8
0
100
AcDbBlockBegin
  2
Block_25
 70
     0
 10
0.0
 20
0.0
 30
0.0
  3
Block_25
  1

  0
INSERT
  5
10A
330
105
100
AcDbEntity
  8
upper-middle
100
AcDbBlockReference
  2
Block_26
 10
0.0
 20
0.0
 30
0.0
  0
ENDBLK
  5
108
330
105
100
AcDbEntity
  8
0
100
AcDbBlockEnd
  0
BLOCK
  5
10B
330
109
100
AcDbEntity
  8
0
100
AcDbBlockBegin
  2
Block_26
 70
     0
 10
0.0
 20
0.0
 30
0.0
  3
Block_26
  1

  0
CIRCLE
  5
10D
330
109
100
AcDbEntity
  8
upper-middle
 62
     1
420
 15073298
370
    35
100
AcDbCircle
 10
54.49993518150533
 20
141.2999628281728
 30
0.0
 40
2.599999999349809
  0
CIRCLE
  5
10E
330
109
100
AcDbEntity
  8
upper-middle
 62
     1
420
 15073298
370
    35
100
AcDbCircle
 10
54.49993518150533
 20
35.44996285463536
 30
0.0
 40
2.599999999349729
  0
CIRCLE
  5
10F
330
109
100
AcDbEntity
  8
upper-middle
 62
     1
420
 15073298
370
    35
100
AcDbCircle
 10
141.299935159805
 20
141.2999628281728
 30
0.0
 40
2.599999999349729
  0
CIRCLE
  5
110
330
109
100
AcDbEntity
  8
upper-middle
 62
     1
420
 15073298
370
    35
100
AcDbCircle
 10
141.299935159805
 20
35.44996285463601
 30
0.0
 40
2.599999999349649
  0
ENDBLK
  5
10C
330
109
100
AcDbEntity
  8
0
100
AcDbBlockEnd
  0
BLOCK
  5
113
330
111
100
AcDbEntity
  8
0
100
AcDbBlockBegin
  2
Block_27
 70
     0
 10
0.0
 20
0.0
 30
0.0
  3
Block_27
  1

  0
LWPOLYLINE
  5
115
330
111
100
AcDbEntity
  8
upper-middle
 62
     1
420
 15073298
370
    35
100
AcDbPolyline
 90
       12
 70
     1
 43
0.0
 10
66.82488321377078
 20
118.4749666485766
 10
71.82487948259458
 20
118.4749666485766
 10
71.82487948259458
 20
119.47484101763
 10
76.32492780096794
 20
119.47484101763
 10
76.32492780096794
 20
133.4748262639673
 10
71.82487948259458
 20
133.4748262639673
 10
71.82487948259458
 20
134.4749590151821
 10
66.82488321377078
 20
134.4749590151821
 10
66.82488321377078
 20
133.4748262639673
 10
62.32494255463102
 20
133.4748262639673
 10
62.32494255463102
 20
119.47484101763
 10
66.82488321377078
 20
119.47484101763
  0
LWPOLYLINE
  5
116
330
111
100
AcDbEntity
  8
upper-middle
 62
     1
420
 15073298
370
    35
100
AcDbPolyline
 90
       12
 70
     1
 43
0.0
 10
85.87488320900829
 20
118.4749666485766
 10
90.87487947783207
 20
118.4749666485766
 10
90.87487947783207
 20
119.47484101763
 10
95.37492779620544
 20
119.47484101763
 10
95.37492779620544
 20
133.4748262639673
 10
90.87487947783207
 20
133.4748262639673
 10
90.87487947783207
 20
134.4749590151821
 10
85.87488320900829
 20
134.4749590151821
 10
85.87488320900829
 20
133.4748262639673
 10
81.37494254986853
 20
133.4748262639673
 10
81.37494254986853
 20
119.47484101763
 10
85.87488320900829
 20
119.47484101763
  0
LWPOLYLINE
  5
117
330
111
100
AcDbEntity
  8
upper-middle
 62
     1
420
 15073298
370
    35
100
AcDbPolyline
 90
       12
 70
     1
 43
0.0
 10
104.9248832042458
 20
118.4749666485766
 10
109.9248794730696
 20
118.4749666485766
 10
109.9248794730696
 20
119.47484101763
 10
114.4249277914426
 20
119.47484101763
 10
114.4249277914426
 20
133.4748262639673
 10
109.9248794730696
 20
133.4748262639673
 10
109.9248794730696
 20
134.4749590151821
 10
104.9248832042458
 20
134.4749590151821
 10
104.9248832042458
 20
133.4748262639673
 10
100.424942545106
 20
133.4748262639673
 10
100.424942545106
 20
119.47484101763
 10
104.9248832042458
 20
119.47484101763
  0
LWPOLYLINE
  5
118
330
111
100
AcDbEntity
  8
upper-middle
 62
     1
420
 15073298
370
    35
100
AcDbPolyline
 90
       12
 70
     1
 43
0.0
 10
123.9748831994833
 20
118.4749666485766
 10
128.9748794683071
 20
118.4749666485766
 10
128.9748794683071
 20
119.47484101763
 10
133.4749277866801
 20
119.47484101763
 10
133.4749277866801
 20
133.4748262639673
 10
128.9748794683071
 20
133.4748262639673
 10
128.9748794683071
 20
134.4749590151821
 10
123.9748831994833
 20
134.4749590151821
 10
123.9748831994833
 20
133.4748262639673
 10
119.4749425403435
 20
133.4748262639673
 10
119.4749425403435
 20
119.47484101763
 10
123.9748831994833
 20
119.47484101763
  0
ENDBLK
  5
114
330
111
100
AcDbEntity
  8
0
100
AcDbBlockEnd
  0
BLOCK
  5
11B
330
119
100
AcDbEntity
  8
0
100
AcDbBlockBegin
  2
Block_28
 70
     0
 10
0.0
 20
0.0
 30
0.0
  3
Block_28
  1

  0
LWPOLYLINE
  5
11D
330
119
100
AcDbEntity
  8
upper-middle
 62
     1
420
 15073298
370
    35
100
AcDbPolyline
 90
       12
 70
     1
 43
0.0
 10
66.82488321377078
 20
99.42496665333912
 10
71.82487948259458
 20
99.42496665333912
 10
71.82487948259458
 20
100.4248410223925
 10
76.32492780096794
 20
100.4248410223925
 10
76.32492780096794
 20
114.4248262687298
 10
71.82487948259458
 20
114.4248262687298
 10
71.82487948259458
 20
115.4249590199446
 10
66.82488321377078
 20
115.4249590199446
 10
66.82488321377078
 20
114.4248262687298
 10
62.32494255463102
 20
114.4248262687298
 10
62.32494255463102
 20
100.4248410223925
 10
66.82488321377078
 20
100.4248410223925
  0
LWPOLYLINE
  5
11E
330
119
100
AcDbEntity
  8
upper-middle
 62
     1
420
 15073298
370
    35
100
AcDbPolyline
 90
       12
 70
     1
 43
0.0
 10
85.87488320900829
 20
99.42496665333912
 10
90.87487947783207
 20
99.42496665333912
 10
90.87487947783207
 20
100.4248410223925
 10
95.37492779620544
 20
100.4248410223925
 10
95.37492779620544
 20
114.4248262687298
 10
90.87487947783207
 20
114.4248262687298
 10
90.87487947783207
 20
115.4249590199446
 10
85.87488320900829
 20
115.4249590199446
 10
85.87488320900829
 20
114.4248262687298
 10
81.37494254986853
 20
114.4248262687298
 10
81.37494254986853
 20
100.4248410223925
 10
85.87488320900829
 20
100.4248410223925
  0
LWPOLYLINE
  5
11F
330
119
100
AcDbEntity
  8
upper-middle
 62
     1
420
 15073298
370
    35
100
AcDbPolyline
 90
       12
 70
     1
 43
0.0
 10
104.9248832042458
 20
99.42496665333912
 10
109.9248794730696
 20
99.42496665333912
 10
109.9248794730696
 20
100.4248410223925
 10
114.4249277914426
 20
100.4248410223925
 10
114.4249277914426
 20
114.4248262687298
 10
109.9248794730696
 20
114.4248262687298
 10
109.9248794730696
 20
115.4249590199446
 10
104.9248832042458
 20
115.4249590199446
 10
104.9248832042458
 20
114.4248262687298
 10
100.424942545106
 20
114.4248262687298
 10
100.424942545106
 20
100.4248410223925
 10
104.9248832042458
 20
100.4248410223925
  0
ENDBLK
  5
11C
330
119
100
AcDbEntity
  8
0
100
AcDbBlockEnd
  0
BLOCK
  5
122
330
120
100
AcDbEntity
  8
0
100
AcDbBlockBegin
  2
Block_29
 70
     0
 10
0.0
 20
0.0
 30
0.0
  3
Block_29
  1

  0
LWPOLYLINE
  5
124
330
120
100
AcDbEntity
  8
upper-middle
 62
     1
420
 15073298
370
    35
100
AcDbPolyline
 90
       12
 70
     1
 43
0.0
 10
66.82488321377078
 20
80.37496665810161
 10
71.82487948259458
 20
80.37496665810161
 10
71.82487948259458
 20
81.37484102715502
 10
76.32492780096794
 20
81.37484102715502
 10
76.32492780096794
 20
95.37482627349227
 10
71.82487948259458
 20
95.37482627349227
 10
71.82487948259458
 20
96.37495902470709
 10
66.82488321377078
 20
96.37495902470709
 10
66.82488321377078
 20
95.37482627349227
 10
62.32494255463102
 20
95.37482627349227
 10
62.32494255463102
 20
81.37484102715502
 10
66.82488321377078
 20
81.37484102715502
  0
LWPOLYLINE
  5
125
330
120
100
AcDbEntity
  8
upper-middle
 62
     1
420
 15073298
370
    35
100
AcDbPolyline
 90
       12
 70
     1
 43
0.0
 10
85.87488320900829
 20
80.37496665810161
 10
90.87487947783207
 20
80.37496665810161
 10
90.87487947783207
 20
81.37484102715502
 10
95.37492779620544
 20
81.37484102715502
 10
95.37492779620544
 20
95.37482627349227
 10
90.87487947783207
 20
95.37482627349227
 10
90.87487947783207
 20
96.37495902470709
 10
85.87488320900829
 20
96.37495902470709
 10
85.87488320900829
 20
95.37482627349227
 10
81.37494254986853
 20
95.37482627349227
 10
81.37494254986853
 20
81.37484102715502
 10
85.87488320900829
 20
81.37484102715502
  0
LWPOLYLINE
  5
126
330
120
100
AcDbEntity
  8
upper-middle
 62
     1
420
 15073298
370
    35
100
AcDbPolyline
 90
       12
 70
     1
 43
0.0
 10
104.9248832042458
 20
80.37496665810161
 10
109.9248794730696
 20
80.37496665810161
 10
109.9248794730696
 20
81.37484102715502
 10
114.4249277914426
 20
81.37484102715502
 10
114.4249277914426
 20
95.37482627349227
 10
109.9248794730696
 20
95.37482627349227
 10
109.9248794730696
 20
96.37495902470709
 10
104.9248832042458
 20
96.37495902470709
 10
104.9248832042458
 20
95.37482627349227
 10
100.424942545106
 20
95.37482627349227
 10
100.424942545106
 20
81.37484102715502
 10
104.9248832042458
 20
81.37484102715502
  0
ENDBLK
  5
123
330
120
100
AcDbEntity
  8
0
100
AcDbBlockEnd
  0
BLOCK
  5
129
330
127
100
AcDbEntity
  8
0
100
AcDbBlockBegin
  2
Block_30
 70
     0
 10
0.0
 20
0.0
 30
0.0
  3
Block_30
  1

  0
LWPOLYLINE
  5
12B
330
127
100
AcDbEntity
  8
upper-middle
 62
     1
420
 15073298
370
    35
100
AcDbPolyline
 90
       12
 70
     1
 43
0.0
 10
66.82488321377078
 20
61.32496666286411
 10
71.82487948259458
 20
61.32496666286411
 10
71.82487948259458
 20
62.32484103191753
 10
76.32492780096794
 20
62.32484103191753
 10
76.32492780096794
 20
76.32482627825478
 10
71.82487948259458
 20
76.32482627825478
 10
71.82487948259458
 20
77.32495902946958
 10
66.82488321377078
 20
77.32495902946958
 10
66.82488321377078
 20
76.32482627825478
 10
62.32494255463102
 20
76.32482627825478
 10
62.32494255463102
 20
62.32484103191753
 10
66.82488321377078
 20
62.32484103191753
  0
LWPOLYLINE
  5
12C
330
127
100
AcDbEntity
  8
upper-middle
 62
     1
420
 15073298
370
    35
100
AcDbPolyline
 90
       12
 70
     1
 43
0.0
 10
85.87488320900829
 20
61.32496666286411
 10
90.87487947783207
 20
61.32496666286411
 10
90.87487947783207
 20
62.32484103191753
 10
95.37492779620544
 20
62.32484103191753
 10
95.37492779620544
 20
76.32482627825478
 10
90.87487947783207
 20
76.32482627825478
 10
90.87487947783207
 20
77.32495902946958
 10
85.87488320900829
 20
77.32495902946958
 10
85.87488320900829
 20
76.32482627825478
 10
81.37494254986853
 20
76.32482627825478
 10
81.37494254986853
 20
62.32484103191753
 10
85.87488320900829
 20
62.32484103191753
  0
LWPOLYLINE
  5
12D
330
127
100
AcDbEntity
  8
upper-middle
 62
     1
420
 15073298
370
    35
100
AcDbPolyline
 90
       12
 70
     1
 43
0.0
 10
104.9248832042458
 20
61.32496666286411
 10
109.9248794730696
 20
61.32496666286411
 10
109.9248794730696
 20
62.32484103191753
 10
114.4249277914426
 20
62.32484103191753
 10
114.4249277914426
 20
76.32482627825478
 10
109.9248794730696
 20
76.32482627825478
 10
109.9248794730696
 20
77.32495902946958
 10
104.9248832042458
 20
77.32495902946958
 10
104.9248832042458
 20
76.32482627825478
 10
100.424942545106
 20
76.32482627825478
 10
100.424942545106
 20
62.32484103191753
 10
104.9248832042458
 20
62.32484103191753
  0
ENDBLK
  5
12A
330
127
100
AcDbEntity
  8
0
100
AcDbBlockEnd
  0
BLOCK
  5
132
330
130
100
AcDbEntity
  8
0
100
AcDbBlockBegin
  2
Block_31
 70
     0
 10
0.0
 20
0.0
 30
0.0
  3
Block_31
  1

  0
SPLINE
  5
134
330
130
100
AcDbEntity
  8
top
 62
     1
420
 15073298
370
    35
100
AcDbSpline
210
0.0
220
0.0
230
1.0
 70
    11
 71
     3
 72
    35
 73
    31
 74
     0
 42
0.0000000001
 43
0.0000000001
 40
0.0
 40
0.0
 40
0.0
 40
0.0
 40
1.0
 40
1.0
 40
1.0
 40
2.0
 40
2.0
 40
2.0
 40
3.0
 40
3.0
 40
3.0
 40
4.0
 40
4.0
 40
4.0
 40
5.0
 40
5.0
 40
5.0
 40
6.0
 40
6.0
 40
6.0
 40
7.0
 40
7.0
 40
7.0
 40
8.0
 40
8.0
 40
8.0
 40
9.0
 40
9.0
 40
9.0
 40
10.0
 40
10.0
 40
10.0
 40
10.0
 10
-90.18447287694129
 20
138.9061963899695
 30
0.0
 10
-90.18447287694129
 20
138.9061963899695
 30
0.0
 10
-57.89440398310365
 20
138.9061963899695
 30
0.0
 10
-57.89440398310365
 20
138.9061963899695
 30
0.0
 10
-57.34211923341129
 20
138.9061963899695
 30
0.0
 10
-56.89440398335388
 20
138.4584811399121
 30
0.0
 10
-56.89440398335388
 20
137.9061963902191
 30
0.0
 10
-56.89440398335388
 20
137.9061963902191
 30
0.0
 10
-56.89440398335388
 20
38.8462151324322
 30
0.0
 10
-56.89440398335388
 20
38.8462151324322
 30
0.0
 10
-56.89440398335388
 20
38.29393038273984
 30
0.0
 10
-57.34211923341129
 20
37.84621513268243
 30
0.0
 10
-57.89440398310365
 20
37.84621513268243
 30
0.0
 10
-57.89440398310365
 20
37.84621513268243
 30
0.0
 10
-137.9045575004276
 20
37.84621513268243
 30
0.0
 10
-137.9045575004276
 20
37.84621513268243
 30
0.0
 10
-138.4568422501203
 20
37.84621513268243
 30
0.0
 10
-138.9045575001777
 20
38.29393038273984
 30
0.0
 10
-138.9045575001777
 20
38.8462151324322
 30
0.0
 10
-138.9045575001777
 20
38.8462151324322
 30
0.0
 10
-138.9045575001777
 20
137.9061963902191
 30
0.0
 10
-138.9045575001777
 20
137.9061963902191
 30
0.0
 10
-138.9045575001777
 20
138.4584811399121
 30
0.0
 10
-138.4568422501206
 20
138.9061963899695
 30
0.0
 10
-137.9045575004276
 20
138.9061963899695
 30
0.0
 10
-137.9045575004276
 20
138.9061963899695
 30
0.0
 10
-105.6146608613649
 20
138.9061963899695
 30
0.0
 10
-105.6146608613649
 20
138.9061963899695
 30
0.0
 10
-105.6146608613649
 20
138.9061963899695
 30
0.0
 10
-90.18447287694129
 20
138.9061963899695
 30
0.0
 10
-90.18447287694129
 20
138.9061963899695
 30
0.0
  0
SPLINE
  5
135
330
130
100
AcDbEntity
  8
top
 62
     1
420
 15073298
370
    35
100
AcDbSpline
210
0.0
220
0.0
230
1.0
 70
     9
 71
     3
 72
    29
 73
    25
 74
     0
 42
0.0000000001
 43
0.0000000001
 40
0.0
 40
0.0
 40
0.0
 40
0.0
 40
1.0
 40
1.0
 40
1.0
 40
2.0
 40
2.0
 40
2.0
 40
3.0
 40
3.0
 40
3.0
 40
4.0
 40
4.0
 40
4.0
 40
5.0
 40
5.0
 40
5.0
 40
6.0
 40
6.0
 40
6.0
 40
7.0
 40
7.0
 40
7.0
 40
8.0
 40
8.0
 40
8.0
 40
8.0
 10
-144.9999649422302
 20
34.7501186707828
 30
0.0
 10
-144.9999649422302
 20
34.7501186707828
 30
0.0
 10
-144.9999649422302
 20
141.9998812850294
 30
0.0
 10
-144.9999649422302
 20
141.9998812850294
 30
0.0
 10
-144.9999649422302
 20
143.6567355341071
 30
0.0
 10
-143.6568191920583
 20
144.9998812842794
 30
0.0
 10
-141.9999649429803
 20
144.9998812842794
 30
0.0
 10
-141.9999649429803
 20
144.9998812842794
 30
0.0
 10
-53.80003006919687
 20
144.9998812842794
 30
0.0
 10
-53.80003006919687
 20
144.9998812842794
 30
0.0
 10
-52.14317582011855
 20
144.9998812842794
 30
0.0
 10
-50.8000350088195
 20
143.6567355341071
 30
0.0
 10
-50.8000350088195
 20
141.9998812850294
 30
0.0
 10
-50.8000350088195
 20
141.9998812850294
 30
0.0
 10
-50.8000350088195
 20
34.7501186707828
 30
0.0
 10
-50.8000350088195
 20
34.7501186707828
 30
0.0
 10
-50.8000350088195
 20
33.09326442170447
 30
0.0
 10
-52.14317582011855
 20
31.75011867153284
 30
0.0
 10
-53.80003006919687
 20
31.75011867153284
 30
0.0
 10
-53.80003006919687
 20
31.75011867153284
 30
0.0
 10
-141.9999649429803
 20
31.75011867153284
 30
0.0
 10
-141.9999649429803
 20
31.75011867153284
 30
0.0
 10
-143.6568191920583
 20
31.75011867153284
 30
0.0
 10
-144.9999649422302
 20
33.09326442170447
 30
0.0
 10
-144.9999649422302
 20
34.7501186707828
 30
0.0
  0
INSERT
  5
137
330
130
100
AcDbEntity
  8
top
100
AcDbBlockReference
  2
Block_32
 10
0.0
 20
0.0
 30
0.0
  0
ENDBLK
  5
133
330
130
100
AcDbEntity
  8
0
100
AcDbBlockEnd
  0
BLOCK
  5
138
330
136
100
AcDbEntity
  8
0
100
AcDbBlockBegin
  2
Block_32
 70
     0
 10
0.0
 20
0.0
 30
0.0
  3
Block_32
  1

  0
INSERT
  5
13B
330
136
100
AcDbEntity
  8
top
100
AcDbBlockReference
  2
Block_33
 10
0.0
 20
0.0
 30
0.0
  0
ENDBLK
  5
139
330
136
100
AcDbEntity
  8
0
100
AcDbBlockEnd
  0
BLOCK
  5
13C
330
13A
100
AcDbEntity
  8
0
100
AcDbBlockBegin
  2
Block_33
 70
     0
 10
0.0
 20
0.0
 30
0.0
  3
Block_33
  1

  0
CIRCLE
  5
13E
330
13A
100
AcDbEntity
  8
top
 62
     1
420
 15073298
370
    35
100
AcDbCircle
 10
-141.3000647695438
 20
141.2999628281728
 30
0.0
 40
1.349999999662433
  0
CIRCLE
  5
13F
330
13A
100
AcDbEntity
  8
top
 62
     1
420
 15073298
370
    35
100
AcDbCircle
 10
-54.50006479124411
 20
141.2999628281728
 30
0.0
 40
1.349999999662353
  0
CIRCLE
  5
140
330
13A
100
AcDbEntity
  8
top
 62
     1
420
 15073298
370
    35
100
AcDbCircle
 10
-141.3000647695438
 20
35.44996285463536
 30
0.0
 40
1.349999999662674
  0
CIRCLE
  5
141
330
13A
100
AcDbEntity
  8
top
 62
     1
420
 15073298
370
    35
100
AcDbCircle
 10
-54.50006479124411
 20
35.44996285463601
 30
0.0
 40
1.349999999662594
  0
ENDBLK
  5
13D
330
13A
100
AcDbEntity
  8
0
100
AcDbBlockEnd
  0
ENDSEC
  0
SECTION
  2
ENTITIES
  0
INSERT
  5
7A
330
70
100
AcDbEntity
  8
feet1
100
AcDbBlockReference
  2
Block_0
 10
0.0
 20
0.0
 30
0.0
  0
INSERT
  5
8A
330
70
100
AcDbEntity
  8
feet2
100
AcDbBlockReference
  2
Block_3
 10
0.0
 20
0.0
 30
0.0
  0
INSERT
  5
9A
330
70
100
AcDbEntity
  8
feet2のコピー
100
AcDbBlockReference
  2
Block_6
 10
0.0
 20
0.0
 30
0.0
  0
INSERT
  5
AA
330
70
100
AcDbEntity
  8
feet2のコピー 2
100
AcDbBlockReference
  2
Block_9
 10
0.0
 20
0.0
 30
0.0
  0
INSERT
  5
BA
330
70
100
AcDbEntity
  8
bottom
100
AcDbBlockReference
  2
Block_12
 10
0.0
 20
0.0
 30
0.0
  0
INSERT
  5
D6
330
70
100
AcDbEntity
  8
lower-middle
100
AcDbBlockReference
  2
Block_17
 10
0.0
 20
0.0
 30
0.0
  0
INSERT
  5
E8
330
70
100
AcDbEntity
  8
lower-middleのコピー
100
AcDbBlockReference
  2
Block_20
 10
0.0
 20
0.0
 30
0.0
  0
INSERT
  5
FA
330
70
100
AcDbEntity
  8
upper-middle
100
AcDbBlockReference
  2
Block_23
 10
0.0
 20
0.0
 30
0.0
  0
INSERT
  5
131
330
70
100
AcDbEntity
  8
top
100
AcDbBlockReference
  2
Block_31
 10
0.0
 20
0.0
 30
0.0
  0
ENDSEC
  0
SECTION
  2
OBJECTS
  0
DICTIONARY
  5
C
330
0
100
AcDbDictionary
281
     1
  3
ACAD_COLOR
350
63
  3
ACAD_DETAILVIEWSTYLE
350
6A
  3
ACAD_GROUP
350
D
  3
ACAD_LAYOUT
350
62
  3
ACAD_MATERIAL
350
10
  3
ACAD_MLEADERSTYLE
350
66
  3
ACAD_MLINESTYLE
350
5F
  3
ACAD_PLOTSETTINGS
350
61
  3
ACAD_PLOTSTYLENAME
350
E
  3
ACAD_SCALELIST
350
42
  3
ACAD_SECTIONVIEWSTYLE
350
68
  3
ACAD_TABLESTYLE
350
64
  3
ACAD_VISUALSTYLE
350
29
  3
ACDB_RECOMPOSE_DATA
350
14B
  3
AcDbVariableDictionary
350
143
  0
DICTIONARY
  5
63
102
{ACAD_REACTORS
330
C
102
}
330
C
100
AcDbDictionary
281
     1
  0
DICTIONARY
  5
6A
102
{ACAD_REACTORS
330
C
102
}
330
C
100
AcDbDictionary
281
     1
  3
Imperial24
350
6B
  0
DICTIONARY
  5
D
102
{ACAD_REACTORS
330
C
102
}
330
C
100
AcDbDictionary
281
     1
  0
DICTIONARY
  5
62
102
{ACAD_REACTORS
330
C
102
}
330
C
100
AcDbDictionary
281
     1
  3
Layout1
350
6F
  3
Layout2
350
77
  3
Model
350
73
  0
DICTIONARY
  5
10
102
{ACAD_REACTORS
330
C
102
}
330
C
100
AcDbDictionary
281
     1
  3
ByBlock
350
19
  3
ByLayer
350
11
  3
Global
350
21
  0
DICTIONARY
  5
66
102
{ACAD_REACTORS
330
C
102
}
330
C
100
AcDbDictionary
281
     1
  3
Standard
350
67
  0
DICTIONARY
  5
5F
102
{ACAD_REACTORS
330
C
102
}
330
C
100
AcDbDictionary
281
     1
  3
Standard
350
60
  0
DICTIONARY
  5
61
102
{ACAD_REACTORS
330
C
102
}
330
C
100
AcDbDictionary
281
     1
  0
ACDBDICTIONARYWDFLT
  5
E
102
{ACAD_REACTORS
330
C
102
}
330
C
100
AcDbDictionary
281
     1
  3
Normal
350
F
100
AcDbDictionaryWithDefault
340
F
  0
DICTIONARY
  5
42
102
{ACAD_REACTORS
330
C
102
}
330
C
100
AcDbDictionary
281
     1
  3
A0
350
43
  3
A1
350
44
  3
A2
350
45
  3
A3
350
46
  3
A4
350
47
  3
A5
350
48
  3
A6
350
49
  3
A7
350
4A
  3
A8
350
4B
  3
A9
350
4C
  3
B0
350
4D
  3
B1
350
4E
  3
B2
350
4F
  3
B3
350
50
  3
B4
350
51
  3
B5
350
52
  3
B6
350
53
  0
DICTIONARY
  5
68
102
{ACAD_REACTORS
330
C
102
}
330
C
100
AcDbDictionary
281
     1
  3
Imperial24
350
69
  0
DICTIONARY
  5
64
102
{ACAD_REACTORS
330
C
102
}
330
C
100
AcDbDictionary
281
     1
  3
Standard
350
65
  0
DICTIONARY
  5
29
102
{ACAD_REACTORS
330
C
102
}
330
C
100
AcDbDictionary
281
     1
  3
2dWireframe
350
2F
  3
Basic
350
2E
  3
Brighten
350
35
  3
ColorChange
350
39
  3
Conceptual
350
32
  3
Dim
350
34
  3
EdgeColorOff
350
41
  3
Facepattern
350
38
  3
Flat
350
2A
  3
FlatWithEdges
350
2B
  3
Gouraud
350
2C
  3
GouraudWithEdges
350
2D
  3
Hidden
350
31
  3
JitterOff
350
3F
  3
Linepattern
350
37
  3
OverhangOff
350
40
  3
Realistic
350
33
  3
Shaded
350
3E
  3
Shaded with edges
350
3D
  3
Shades of Gray
350
3A
  3
Sketchy
350
3B
  3
Thicken
350
36
  3
Wireframe
350
30
  3
X-Ray
350
3C
  0
XRECORD
  5
14B
102
{ACAD_REACTORS
330
C
102
}
330
C
100
AcDbXrecord
280
     1
 90
        1
330
65
  0
DICTIONARY
  5
143
102
{ACAD_REACTORS
330
C
102
}
330
C
100
AcDbDictionary
281
     1
  3
CANNOSCALE
350
148
  3
CMLEADERSTYLE
350
145
  3
CTABLESTYLE
350
144
  3
CVIEWDETAILSTYLE
350
146
  3
CVIEWSECTIONSTYLE
350
147
  0
ACDBDETAILVIEWSTYLE
  5
6B
102
{ACAD_XDICTIONARY
360
14E
102
}
102
{ACAD_REACTORS
330
6A
102
}
330
6A
100
AcDbModelDocViewStyle
 70
     0
  3
Imperial24
290
     0
100
AcDbDetailViewStyle
 70
     0
 71
     0
 90
        3
 71
     1
340
55
 62
   256
 40
0.24
340
0
 62
   256
 40
0.24
300

 40
0.36
280
     3
 71
     2
340
5D
 90
       25
 62
   256
 71
     3
340
55
 62
   256
 40
0.24
 90
        1
 40
0.75
 90
        1
300
%<\AcVar ViewType \f "%tc1">% %<\AcVar ViewDetailId>%\PSCALE %<\AcVar ViewScale \f "%sn">%
 71
     4
340
5D
 90
       25
 62
   256
340
5D
 90
       25
 62
   256
280
     0
  0
LAYOUT
  5
6F
102
{ACAD_REACTORS
330
62
102
}
330
62
100
AcDbPlotSettings
  1

  2

  4

  6

 40
0.0
 41
0.0
 42
0.0
 43
0.0
 44
0.0
 45
0.0
 46
0.0
 47
0.0
 48
0.0
 49
0.0
140
0.0
141
0.0
142
1.0
143
1.0
 70
   688
 72
     0
 73
     0
 74
     5
  7

 75
    16
147
1.0
 76
     0
 77
     2
 78
   300
148
0.0
149
0.0
100
AcDbLayout
  1
Layout1
 70
     1
 71
     1
 10
0.0
 20
0.0
 11
12.0
 21
9.0
 12
0.0
 22
0.0
 32
0.0
 14
0.0
 24
0.0
 34
0.0
 15
0.0
 25
0.0
 35
0.0
146
0.0
 13
0.0
 23
0.0
 33
0.0
 16
1.0
 26
0.0
 36
0.0
 17
0.0
 27
1.0
 37
0.0
 76
     0
330
6C
  0
LAYOUT
  5
77
102
{ACAD_REACTORS
330
62
102
}
330
62
100
AcDbPlotSettings
  1

  2

  4

  6

 40
0.0
 41
0.0
 42
0.0
 43
0.0
 44
0.0
 45
0.0
 46
0.0
 47
0.0
 48
0.0
 49
0.0
140
0.0
141
0.0
142
1.0
143
1.0
 70
   688
 72
     0
 73
     0
 74
     5
  7

 75
    16
147
1.0
 76
     0
 77
     2
 78
   300
148
0.0
149
0.0
100
AcDbLayout
  1
Layout2
 70
     1
 71
     2
 10
0.0
 20
0.0
 11
12.0
 21
9.0
 12
0.0
 22
0.0
 32
0.0
 14
0.0
 24
0.0
 34
0.0
 15
0.0
 25
0.0
 35
0.0
146
0.0
 13
0.0
 23
0.0
 33
0.0
 16
1.0
 26
0.0
 36
0.0
 17
0.0
 27
1.0
 37
0.0
 76
     0
330
74
  0
LAYOUT
  5
73
102
{ACAD_REACTORS
330
62
102
}
330
62
100
AcDbPlotSettings
  1

  2

  4

  6

 40
0.0
 41
0.0
 42
0.0
 43
0.0
 44
0.0
 45
0.0
 46
0.0
 47
0.0
 48
0.0
 49
0.0
140
0.0
141
0.0
142
1.0
143
1.0
 70
  1712
 72
     0
 73
     0
 74
     0
  7

 75
     0
147
1.0
 76
     0
 77
     2
 78
   300
148
0.0
149
0.0
100
AcDbLayout
  1
Model
 70
     1
 71
     0
 10
0.0
 20
0.0
 11
12.0
 21
9.0
 12
0.0
 22
0.0
 32
0.0
 14
0.0
 24
0.0
 34
0.0
 15
0.0
 25
0.0
 35
0.0
146
0.0
 13
0.0
 23
0.0
 33
0.0
 16
1.0
 26
0.0
 36
0.0
 17
0.0
 27
1.0
 37
0.0
 76
     0
330
70
  0
MATERIAL
  5
19
102
{ACAD_XDICTIONARY
360
1A
102
}
102
{ACAD_REACTORS
330
10
102
}
330
10
100
AcDbMaterial
  1
ByBlock
 72
     0
 43
0.0208333333333333
 43
0.0
 43
0.0
 43
0.0
 43
0.0
 43
0.0208333333333333
 43
0.0
 43
0.0
 43
0.0
 43
0.0
 43
1.0
 43
0.0
 43
0.0
 43
0.0
 43
0.0
 43
1.0
 77
     0
 47
0.0208333333333333
 47
0.0
 47
0.0
 47
0.0
 47
0.0
 47
0.0208333333333333
 47
0.0
 47
0.0
 47
0.0
 47
0.0
 47
1.0
 47
0.0
 47
0.0
 47
0.0
 47
0.0
 47
1.0
171
     0
 49
0.0208333333333333
 49
0.0
 49
0.0
 49
0.0
 49
0.0
 49
0.0208333333333333
 49
0.0
 49
0.0
 49
0.0
 49
0.0
 49
1.0
 49
0.0
 49
0.0
 49
0.0
 49
0.0
 49
1.0
175
     0
142
0.0208333333333333
142
0.0
142
0.0
142
0.0
142
0.0
142
0.0208333333333333
142
0.0
142
0.0
142
0.0
142
0.0
142
1.0
142
0.0
142
0.0
142
0.0
142
0.0
142
1.0
179
     0
144
0.0208333333333333
144
0.0
144
0.0
144
0.0
144
0.0
144
0.0208333333333333
144
0.0
144
0.0
144
0.0
144
0.0
144
1.0
144
0.0
144
0.0
144
0.0
144
0.0
144
1.0
147
0.0208333333333333
147
0.0
147
0.0
147
0.0
147
0.0
147
0.0208333333333333
147
0.0
147
0.0
147
0.0
147
0.0
147
1.0
147
0.0
147
0.0
147
0.0
147
0.0
147
1.0
  0
MATERIAL
  5
11
102
{ACAD_XDICTIONARY
360
12
102
}
102
{ACAD_REACTORS
330
10
102
}
330
10
100
AcDbMaterial
  1
ByLayer
 72
     0
 43
0.0208333333333333
 43
0.0
 43
0.0
 43
0.0
 43
0.0
 43
0.0208333333333333
 43
0.0
 43
0.0
 43
0.0
 43
0.0
 43
1.0
 43
0.0
 43
0.0
 43
0.0
 43
0.0
 43
1.0
 77
     0
 47
0.0208333333333333
 47
0.0
 47
0.0
 47
0.0
 47
0.0
 47
0.0208333333333333
 47
0.0
 47
0.0
 47
0.0
 47
0.0
 47
1.0
 47
0.0
 47
0.0
 47
0.0
 47
0.0
 47
1.0
171
     0
 49
0.0208333333333333
 49
0.0
 49
0.0
 49
0.0
 49
0.0
 49
0.0208333333333333
 49
0.0
 49
0.0
 49
0.0
 49
0.0
 49
1.0
 49
0.0
 49
0.0
 49
0.0
 49
0.0
 49
1.0
175
     0
142
0.0208333333333333
142
0.0
142
0.0
142
0.0
142
0.0
142
0.0208333333333333
142
0.0
142
0.0
142
0.0
142
0.0
142
1.0
142
0.0
142
0.0
142
0.0
142
0.0
142
1.0
179
     0
144
0.0208333333333333
144
0.0
144
0.0
144
0.0
144
0.0
144
0.0208333333333333
144
0.0
144
0.0
144
0.0
144
0.0
144
1.0
144
0.0
144
0.0
144
0.0
144
0.0
144
1.0
147
0.0208333333333333
147
0.0
147
0.0
147
0.0
147
0.0
147
0.0208333333333333
147
0.0
147
0.0
147
0.0
147
0.0
147
1.0
147
0.0
147
0.0
147
0.0
147
0.0
147
1.0
  0
MATERIAL
  5
21
102
{ACAD_XDICTIONARY
360
22
102
}
102
{ACAD_REACTORS
330
10
102
}
330
10
100
AcDbMaterial
  1
Global
 72
     0
 43
0.0208333333333333
 43
0.0
 43
0.0
 43
0.0
 43
0.0
 43
0.0208333333333333
 43
0.0
 43
0.0
 43
0.0
 43
0.0
 43
1.0
 43
0.0
 43
0.0
 43
0.0
 43
0.0
 43
1.0
 77
     0
 47
0.0208333333333333
 47
0.0
 47
0.0
 47
0.0
 47
0.0
 47
0.0208333333333333
 47
0.0
 47
0.0
 47
0.0
 47
0.0
 47
1.0
 47
0.0
 47
0.0
 47
0.0
 47
0.0
 47
1.0
171
     0
 49
0.0208333333333333
 49
0.0
 49
0.0
 49
0.0
 49
0.0
 49
0.0208333333333333
 49
0.0
 49
0.0
 49
0.0
 49
0.0
 49
1.0
 49
0.0
 49
0.0
 49
0.0
 49
0.0
 49
1.0
175
     0
142
0.0208333333333333
142
0.0
142
0.0
142
0.0
142
0.0
142
0.0208333333333333
142
0.0
142
0.0
142
0.0
142
0.0
142
1.0
142
0.0
142
0.0
142
0.0
142
0.0
142
1.0
179
     0
144
0.0208333333333333
144
0.0
144
0.0
144
0.0
144
0.0
144
0.0208333333333333
144
0.0
144
0.0
144
0.0
144
0.0
144
1.0
144
0.0
144
0.0
144
0.0
144
0.0
144
1.0
147
0.0208333333333333
147
0.0
147
0.0
147
0.0
147
0.0
147
0.0208333333333333
147
0.0
147
0.0
147
0.0
147
0.0
147
1.0
147
0.0
147
0.0
147
0.0
147
0.0
147
1.0
  0
MLEADERSTYLE
  5
67
102
{ACAD_REACTORS
330
66
102
}
330
66
100
AcDbMLeaderStyle
179
     2
170
     2
171
     1
172
     0
 90
        2
 40
0.0
 41
0.0
173
     1
 91
-1056964608
340
5B
 92
       -2
290
     1
 42
0.09
291
     1
 43
0.36
  3
Standard
 44
0.18
300

342
55
174
     1
178
     6
175
     1
176
     0
 93
-1056964608
 45
0.18
292
     0
297
     0
 46
0.18
 94
-1056964608
 47
1.0
 49
1.0
140
1.0
293
     1
141
0.0
294
     1
177
     0
142
1.0
295
     0
296
     0
143
0.125
271
     0
272
     9
273
     9
298
     1
  0
MLINESTYLE
  5
60
102
{ACAD_REACTORS
330
5F
102
}
330
5F
100
AcDbMlineStyle
  2
STANDARD
 70
     0
  3

 62
   256
 51
90.0
 52
90.0
 71
     2
 49
0.5
 62
   256
  6
BYLAYER
 49
-0.5
 62
   256
  6
BYLAYER
  0
ACDBPLACEHOLDER
  5
F
102
{ACAD_REACTORS
330
E
102
}
330
E
  0
SCALE
  5
43
102
{ACAD_REACTORS
330
42
102
}
330
42
100
AcDbScale
 70
     0
300
1:1
140
1.0
141
1.0
290
     1
  0
SCALE
  5
44
102
{ACAD_REACTORS
330
42
102
}
330
42
100
AcDbScale
 70
     0
300
1/128" = 1'-0"
140
0.0078125
141
12.0
290
     0
  0
SCALE
  5
45
102
{ACAD_REACTORS
330
42
102
}
330
42
100
AcDbScale
 70
     0
300
1/64" = 1'-0"
140
0.015625
141
12.0
290
     0
  0
SCALE
  5
46
102
{ACAD_REACTORS
330
42
102
}
330
42
100
AcDbScale
 70
     0
300
1/32" = 1'-0"
140
0.03125
141
12.0
290
     0
  0
SCALE
  5
47
102
{ACAD_REACTORS
330
42
102
}
330
42
100
AcDbScale
 70
     0
300
1/16" = 1'-0"
140
0.0625
141
12.0
290
     0
  0
SCALE
  5
48
102
{ACAD_REACTORS
330
42
102
}
330
42
100
AcDbScale
 70
     0
300
3/32" = 1'-0"
140
0.09375
141
12.0
290
     0
  0
SCALE
  5
49
102
{ACAD_REACTORS
330
42
102
}
330
42
100
AcDbScale
 70
     0
300
1/8" = 1'-0"
140
0.125
141
12.0
290
     0
  0
SCALE
  5
4A
102
{ACAD_REACTORS
330
42
102
}
330
42
100
AcDbScale
 70
     0
300
3/16" = 1'-0"
140
0.1875
141
12.0
290
     0
  0
SCALE
  5
4B
102
{ACAD_REACTORS
330
42
102
}
330
42
100
AcDbScale
 70
     0
300
1/4" = 1'-0"
140
0.25
141
12.0
290
     0
  0
SCALE
  5
4C
102
{ACAD_REACTORS
330
42
102
}
330
42
100
AcDbScale
 70
     0
300
3/8" = 1'-0"
140
0.375
141
12.0
290
     0
  0
SCALE
  5
4D
102
{ACAD_REACTORS
330
42
102
}
330
42
100
AcDbScale
 70
     0
300
1/2" = 1'-0"
140
0.5
141
12.0
290
     0
  0
SCALE
  5
4E
102
{ACAD_REACTORS
330
42
102
}
330
42
100
AcDbScale
 70
     0
300
3/4" = 1'-0"
140
0.75
141
12.0
290
     0
  0
SCALE
  5
4F
102
{ACAD_REACTORS
330
42
102
}
330
42
100
AcDbScale
 70
     0
300
1" = 1'-0"
140
1.0
141
12.0
290
     0
  0
SCALE
  5
50
102
{ACAD_REACTORS
330
42
102
}
330
42
100
AcDbScale
 70
     0
300
1-1/2" = 1'-0"
140
1.5
141
12.0
290
     0
  0
SCALE
  5
51
102
{ACAD_REACTORS
330
42
102
}
330
42
100
AcDbScale
 70
     0
300
3" = 1'-0"
140
3.0
141
12.0
290
     0
  0
SCALE
  5
52
102
{ACAD_REACTORS
330
42
102
}
330
42
100
AcDbScale
 70
     0
300
6" = 1'-0"
140
6.0
141
12.0
290
     0
  0
SCALE
  5
53
102
{ACAD_REACTORS
330
42
102
}
330
42
100
AcDbScale
 70
     0
300
1'-0" = 1'-0"
140
12.0
141
12.0
290
     0
  0
ACDBSECTIONVIEWSTYLE
  5
69
102
{ACAD_XDICTIONARY
360
14C
102
}
102
{ACAD_REACTORS
330
68
102
}
330
68
100
AcDbModelDocViewStyle
 70
     0
  3
Imperial24
290
     0
100
AcDbSectionViewStyle
 70
     0
 71
     0
 90
       78
 71
     1
340
55
 62
   256
 40
0.24
340
0
340
0
 62
   256
 40
0.24
300
I, O, Q, S, X, Z
 40
0.48
 90
        3
 40
0.18
 90
        1
 71
     2
340
5D
 90
       25
 62
   256
340
5D
 90
       50
 62
   256
 40
0.24
 40
0.0
 40
0.24
 71
     3
340
55
 62
   256
 40
0.24
 90
        1
 40
0.75
 90
        1
300
%<\AcVar ViewType \f "%tc1">% %<\AcVar ViewSectionStartId>%-%<\AcVar ViewSectionEndId>%\PSCALE %<\AcVar ViewScale \f "%sn">%
 71
     4
 62
   256
 62
   257
300
ANSI31
 40
1.0
 90
        0
290
     0
290
     0
 90
        6
 40
0.0
 40
1.570796326794896
 40
0.2617993877991494
 40
1.308996938995747
 40
-0.2617993877991494
 40
1.832595714594046
  0
TABLESTYLE
  5
65
102
{ACAD_XDICTIONARY
360
149
102
}
102
{ACAD_REACTORS
330
64
102
}
330
64
100
AcDbTableStyle
280
     0
  3
Standard
 70
     0
 71
     0
 40
0.06
 41
0.06
280
     0
281
     0
  7
Standard
140
0.18
170
     2
 62
     0
 63
     7
283
     0
 90
      512
 91
        0
  1

274
    -2
284
     1
 64
     0
275
    -2
285
     1
 65
     0
276
    -2
286
     1
 66
     0
277
    -2
287
     1
 67
     0
278
    -2
288
     1
 68
     0
279
    -2
289
     1
 69
     0
  7
Standard
140
0.25
170
     5
 62
     0
 63
     7
283
     0
 90
      512
 91
        0
  1

274
    -2
284
     1
 64
     0
275
    -2
285
     1
 65
     0
276
    -2
286
     1
 66
     0
277
    -2
287
     1
 67
     0
278
    -2
288
     1
 68
     0
279
    -2
289
     1
 69
     0
  7
Standard
140
0.18
170
     5
 62
     0
 63
     7
283
     0
 90
      512
 91
        0
  1

274
    -2
284
     1
 64
     0
275
    -2
285
     1
 65
     0
276
    -2
286
     1
 66
     0
277
    -2
287
     1
 67
     0
278
    -2
288
     1
 68
     0
279
    -2
289
     1
 69
     0
  0
VISUALSTYLE
  5
2F
102
{ACAD_REACTORS
330
29
102
}
330
29
100
AcDbVisualStyle
  2
2dWireframe
 70
     4
177
     3
291
     0
 70
    58
 90
        0
176
     1
 90
        2
176
     1
 90
        0
176
     1
 90
        0
176
     1
 40
0.6
176
     1
 40
30.0
176
     1
 62
     7
420
 16777215
176
     1
 90
        1
176
     1
 90
        4
176
     1
 62
     7
176
     1
 62
   257
176
     1
 90
        1
176
     1
 90
        1
176
     1
 40
1.0
176
     1
 90
        0
176
     1
 62
   257
176
     1
 40
1.0
176
     1
 90
        1
176
     1
 90
        6
176
     1
 90
        2
176
     1
 62
     7
176
     1
 90
        5
176
     1
 90
        0
176
     1
 90
        0
176
     1
290
     0
176
     1
 90
        1
176
     1
 40
0.0
176
     1
 90
        0
176
     1
290
     1
176
     1
290
     1
176
     1
290
     0
176
     1
290
     0
176
     1
290
     0
176
     1
290
     0
176
     1
290
     0
176
     1
290
     0
176
     1
290
     0
176
     1
 90
       50
176
     1
 40
0.0
176
     1
 40
1.0
176
     1
 90
        0
176
     1
 62
    18
420
        0
176
     1
 90
       50
176
     1
 90
        3
176
     1
 62
     5
420
      255
176
     1
290
     0
176
     1
 90
       50
176
     1
 90
       50
176
     1
 90
       50
176
     1
290
     0
176
     1
 90
       50
176
     1
 62
   256
176
     0
 40
1.0
176
     0
 90
        2
176
     1
  1
strokes_ogs.tif
176
     1
290
     0
176
     1
 40
1.0
176
     1
 40
1.0
176
     1
1001
ACAD
1000
AcDbSavedByObjectVersion
1070
     0
  0
VISUALSTYLE
  5
2E
102
{ACAD_REACTORS
330
29
102
}
330
29
100
AcDbVisualStyle
  2
Basic
 70
     7
177
     3
291
     1
 70
    58
 90
        1
176
     1
 90
        0
176
     1
 90
        1
176
     1
 90
        0
176
     1
 40
0.6
176
     1
 40
30.0
176
     1
 62
     7
420
 16777215
176
     1
 90
        0
176
     1
 90
        4
176
     1
 62
     7
176
     1
 62
   257
176
     1
 90
        1
176
     1
 90
        1
176
     1
 40
1.0
176
     1
 90
        8
176
     1
 62
     7
176
     1
 40
1.0
176
     1
 90
        1
176
     1
 90
        6
176
     1
 90
        2
176
     1
 62
     7
176
     1
 90
        5
176
     1
 90
        0
176
     1
 90
        0
176
     1
290
     0
176
     1
 90
        1
176
     1
 40
0.0
176
     1
 90
        0
176
     1
290
     0
176
     1
290
     1
176
     1
290
     1
176
     1
290
     0
176
     1
290
     0
176
     1
290
     0
176
     1
290
     0
176
     1
290
     0
176
     1
290
     0
176
     1
 90
       50
176
     1
 40
0.0
176
     1
 40
1.0
176
     1
 90
        0
176
     1
 62
    18
420
        0
176
     1
 90
       50
176
     1
 90
        3
176
     1
 62
     5
420
      255
176
     1
290
     0
176
     1
 90
       50
176
     1
 90
       50
176
     1
 90
       50
176
     1
290
     0
176
     1
 90
       50
176
     1
 62
   256
176
     0
 40
1.0
176
     0
 90
        2
176
     1
  1
strokes_ogs.tif
176
     1
290
     0
176
     1
 40
1.0
176
     1
 40
1.0
176
     1
1001
ACAD
1000
AcDbSavedByObjectVersion
1070
     0
  0
VISUALSTYLE
  5
35
102
{ACAD_REACTORS
330
29
102
}
330
29
100
AcDbVisualStyle
  2
Brighten
 70
    12
177
     3
291
     1
 70
    58
 90
        2
176
     1
 90
        2
176
     1
 90
        0
176
     1
 90
        0
176
     1
 40
0.6
176
     1
 40
30.0
176
     1
 62
     7
420
 16777215
176
     1
 90
        1
176
     1
 90
        4
176
     1
 62
     7
176
     1
 62
   257
176
     1
 90
        1
176
     1
 90
        1
176
     1
 40
1.0
176
     1
 90
        8
176
     1
 62
     7
176
     1
 40
1.0
176
     1
 90
        1
176
     1
 90
        6
176
     1
 90
        2
176
     1
 62
     7
176
     1
 90
        5
176
     1
 90
        0
176
     1
 90
        0
176
     1
290
     0
176
     1
 90
        1
176
     1
 40
50.0
176
     1
 90
        0
176
     1
290
     0
176
     1
290
     1
176
     1
290
     1
176
     1
290
     0
176
     1
290
     0
176
     1
290
     0
176
     1
290
     0
176
     1
290
     0
176
     1
290
     0
176
     1
 90
       50
176
     1
 40
0.0
176
     1
 40
1.0
176
     1
 90
        0
176
     1
 62
    18
420
        0
176
     1
 90
       50
176
     1
 90
        3
176
     1
 62
     5
420
      255
176
     1
290
     0
176
     1
 90
       50
176
     1
 90
       50
176
     1
 90
       50
176
     1
290
     0
176
     1
 90
       50
176
     1
 62
   256
176
     0
 40
1.0
176
     0
 90
        2
176
     1
  1
strokes_ogs.tif
176
     1
290
     0
176
     1
 40
1.0
176
     1
 40
1.0
176
     1
1001
ACAD
1000
AcDbSavedByObjectVersion
1070
     0
  0
VISUALSTYLE
  5
39
102
{ACAD_REACTORS
330
29
102
}
330
29
100
AcDbVisualStyle
  2
ColorChange
 70
    16
177
     3
291
     1
 70
    58
 90
        2
176
     1
 90
        2
176
     1
 90
        3
176
     1
 90
        0
176
     1
 40
0.6
176
     1
 40
30.0
176
     1
 62
     8
420
  8421504
176
     1
 90
        1
176
     1
 90
        4
176
     1
 62
     7
176
     1
 62
   257
176
     1
 90
        1
176
     1
 90
        1
176
     1
 40
1.0
176
     1
 90
        8
176
     1
 62
     8
420
  8421504
176
     1
 40
1.0
176
     1
 90
        1
176
     1
 90
        6
176
     1
 90
        2
176
     1
 62
     7
176
     1
 90
        5
176
     1
 90
        0
176
     1
 90
        0
176
     1
290
     0
176
     1
 90
        1
176
     1
 40
0.0
176
     1
 90
        0
176
     1
290
     0
176
     1
290
     1
176
     1
290
     1
176
     1
290
     0
176
     1
290
     0
176
     1
290
     0
176
     1
290
     0
176
     1
290
     0
176
     1
290
     0
176
     1
 90
       50
176
     1
 40
0.0
176
     1
 40
1.0
176
     1
 90
        0
176
     1
 62
    18
420
        0
176
     1
 90
       50
176
     1
 90
        3
176
     1
 62
     5
420
      255
176
     1
290
     0
176
     1
 90
       50
176
     1
 90
       50
176
     1
 90
       50
176
     1
290
     0
176
     1
 90
       50
176
     1
 62
   256
176
     0
 40
1.0
176
     0
 90
        2
176
     1
  1
strokes_ogs.tif
176
     1
290
     0
176
     1
 40
1.0
176
     1
 40
1.0
176
     1
1001
ACAD
1000
AcDbSavedByObjectVersion
1070
     0
  0
VISUALSTYLE
  5
32
102
{ACAD_REACTORS
330
29
102
}
330
29
100
AcDbVisualStyle
  2
Conceptual
 70
     9
177
     3
291
     0
 70
    58
 90
        3
176
     1
 90
        2
176
     1
 90
        0
176
     1
 90
        0
176
     1
 40
0.6
176
     1
 40
30.0
176
     1
 62
     7
420
 16777215
176
     1
 90
        2
176
     1
 90
        2
176
     1
 62
     7
176
     1
 62
   257
176
     1
 90
        1
176
     1
 90
        1
176
     1
 40
179.0
176
     1
 90
        8
176
     1
 62
     7
176
     1
 40
1.0
176
     1
 90
        1
176
     1
 90
        6
176
     1
 90
        2
176
     1
 62
     7
176
     1
 90
        3
176
     1
 90
        0
176
     1
 90
        0
176
     1
290
     0
176
     1
 90
        1
176
     1
 40
0.0
176
     1
 90
        0
176
     1
290
     0
176
     1
290
     1
176
     1
290
     1
176
     1
290
     0
176
     1
290
     0
176
     1
290
     0
176
     1
290
     0
176
     1
290
     0
176
     1
290
     0
176
     1
 90
       50
176
     1
 40
0.0
176
     1
 40
1.0
176
     1
 90
        0
176
     1
 62
    18
420
        0
176
     1
 90
       50
176
     1
 90
        3
176
     1
 62
     5
420
      255
176
     1
290
     0
176
     1
 90
       50
176
     1
 90
       50
176
     1
 90
       50
176
     1
290
     0
176
     1
 90
       50
176
     1
 62
   256
176
     0
 40
1.0
176
     0
 90
        2
176
     1
  1
strokes_ogs.tif
176
     1
290
     0
176
     1
 40
1.0
176
     1
 40
1.0
176
     1
1001
ACAD
1000
AcDbSavedByObjectVersion
1070
     0
  0
VISUALSTYLE
  5
34
102
{ACAD_REACTORS
330
29
102
}
330
29
100
AcDbVisualStyle
  2
Dim
 70
    11
177
     3
291
     1
 70
    58
 90
        2
176
     1
 90
        2
176
     1
 90
        0
176
     1
 90
        0
176
     1
 40
0.6
176
     1
 40
30.0
176
     1
 62
     7
420
 16777215
176
     1
 90
        1
176
     1
 90
        4
176
     1
 62
     7
176
     1
 62
   257
176
     1
 90
        1
176
     1
 90
        1
176
     1
 40
1.0
176
     1
 90
        8
176
     1
 62
     7
176
     1
 40
1.0
176
     1
 90
        1
176
     1
 90
        6
176
     1
 90
        2
176
     1
 62
     7
176
     1
 90
        5
176
     1
 90
        0
176
     1
 90
        0
176
     1
290
     0
176
     1
 90
        1
176
     1
 40
-50.0
176
     1
 90
        0
176
     1
290
     0
176
     1
290
     1
176
     1
290
     1
176
     1
290
     0
176
     1
290
     0
176
     1
290
     0
176
     1
290
     0
176
     1
290
     0
176
     1
290
     0
176
     1
 90
       50
176
     1
 40
0.0
176
     1
 40
1.0
176
     1
 90
        0
176
     1
 62
    18
420
        0
176
     1
 90
       50
176
     1
 90
        3
176
     1
 62
     5
420
      255
176
     1
290
     0
176
     1
 90
       50
176
     1
 90
       50
176
     1
 90
       50
176
     1
290
     0
176
     1
 90
       50
176
     1
 62
   256
176
     0
 40
1.0
176
     0
 90
        2
176
     1
  1
strokes_ogs.tif
176
     1
290
     0
176
     1
 40
1.0
176
     1
 40
1.0
176
     1
1001
ACAD
1000
AcDbSavedByObjectVersion
1070
     0
  0
VISUALSTYLE
  5
41
102
{ACAD_REACTORS
330
29
102
}
330
29
100
AcDbVisualStyle
  2
EdgeColorOff
 70
    22
177
     3
291
     1
 70
    58
 90
        2
176
     0
 90
        2
176
     0
 90
        0
176
     0
 90
        0
176
     0
 40
0.6
176
     0
 40
30.0
176
     0
 62
     7
420
 16777215
176
     0
 90
        1
176
     0
 90
        4
176
     0
 62
     7
176
     0
 62
   257
176
     0
 90
        1
176
     0
 90
        1
176
     0
 40
1.0
176
     0
 90
        8
176
     2
 62
     7
176
     0
 40
1.0
176
     0
 90
        1
176
     0
 90
        6
176
     0
 90
        2
176
     0
 62
     7
176
     0
 90
        5
176
     0
 90
        0
176
     0
 90
        0
176
     0
290
     0
176
     0
 90
        1
176
     0
 40
0.0
176
     0
 90
        0
176
     0
290
     0
176
     0
290
     1
176
     0
290
     1
176
     0
290
     0
176
     0
290
     0
176
     0
290
     0
176
     0
290
     0
176
     0
290
     0
176
     0
290
     0
176
     0
 90
       50
176
     0
 40
0.0
176
     0
 40
1.0
176
     0
 90
        0
176
     0
 62
    18
420
        0
176
     0
 90
       50
176
     0
 90
        3
176
     0
 62
     5
420
      255
176
     0
290
     0
176
     0
 90
       50
176
     0
 90
       50
176
     0
 90
       50
176
     0
290
     0
176
     0
 90
       50
176
     0
 62
   256
176
     0
 40
1.0
176
     0
 90
        2
176
     0
  1
strokes_ogs.tif
176
     0
290
     0
176
     0
 40
1.0
176
     0
 40
1.0
176
     0
1001
ACAD
1000
AcDbSavedByObjectVersion
1070
     0
  0
VISUALSTYLE
  5
38
102
{ACAD_REACTORS
330
29
102
}
330
29
100
AcDbVisualStyle
  2
Facepattern
 70
    15
177
     3
291
     1
 70
    58
 90
        2
176
     1
 90
        2
176
     1
 90
        0
176
     1
 90
        0
176
     1
 40
0.6
176
     1
 40
30.0
176
     1
 62
     7
420
 16777215
176
     1
 90
        1
176
     1
 90
        4
176
     1
 62
     7
176
     1
 62
   257
176
     1
 90
        1
176
     1
 90
        1
176
     1
 40
1.0
176
     1
 90
        8
176
     1
 62
     7
176
     1
 40
1.0
176
     1
 90
        1
176
     1
 90
        6
176
     1
 90
        2
176
     1
 62
     7
176
     1
 90
        5
176
     1
 90
        0
176
     1
 90
        0
176
     1
290
     0
176
     1
 90
        1
176
     1
 40
0.0
176
     1
 90
        0
176
     1
290
     0
176
     1
290
     1
176
     1
290
     1
176
     1
290
     0
176
     1
290
     0
176
     1
290
     0
176
     1
290
     0
176
     1
290
     0
176
     1
290
     0
176
     1
 90
       50
176
     1
 40
0.0
176
     1
 40
1.0
176
     1
 90
        0
176
     1
 62
    18
420
        0
176
     1
 90
       50
176
     1
 90
        3
176
     1
 62
     5
420
      255
176
     1
290
     0
176
     1
 90
       50
176
     1
 90
       50
176
     1
 90
       50
176
     1
290
     0
176
     1
 90
       50
176
     1
 62
   256
176
     0
 40
1.0
176
     0
 90
        2
176
     1
  1
strokes_ogs.tif
176
     1
290
     0
176
     1
 40
1.0
176
     1
 40
1.0
176
     1
1001
ACAD
1000
AcDbSavedByObjectVersion
1070
     0
  0
VISUALSTYLE
  5
2A
102
{ACAD_REACTORS
330
29
102
}
330
29
100
AcDbVisualStyle
  2
Flat
 70
     0
177
     3
291
     1
 70
    58
 90
        2
176
     1
 90
        1
176
     1
 90
        1
176
     1
 90
        2
176
     1
 40
0.6
176
     1
 40
30.0
176
     1
 62
     7
420
 16777215
176
     1
 90
        0
176
     1
 90
        0
176
     1
 62
     7
176
     1
 62
   257
176
     1
 90
        1
176
     1
 90
        1
176
     1
 40
1.0
176
     1
 90
        8
176
     1
 62
     7
176
     1
 40
1.0
176
     1
 90
        1
176
     1
 90
        6
176
     1
 90
        2
176
     1
 62
     7
176
     1
 90
        5
176
     1
 90
        0
176
     1
 90
        0
176
     1
290
     0
176
     1
 90
       13
176
     1
 40
0.0
176
     1
 90
        0
176
     1
290
     0
176
     1
290
     1
176
     1
290
     1
176
     1
290
     0
176
     1
290
     0
176
     1
290
     0
176
     1
290
     0
176
     1
290
     0
176
     1
290
     0
176
     1
 90
       50
176
     1
 40
0.0
176
     1
 40
1.0
176
     1
 90
        0
176
     1
 62
    18
420
        0
176
     1
 90
       50
176
     1
 90
        3
176
     1
 62
     5
420
      255
176
     1
290
     0
176
     1
 90
       50
176
     1
 90
       50
176
     1
 90
       50
176
     1
290
     0
176
     1
 90
       50
176
     1
 62
   256
176
     0
 40
1.0
176
     0
 90
        2
176
     1
  1
strokes_ogs.tif
176
     1
290
     0
176
     1
 40
1.0
176
     1
 40
1.0
176
     1
1001
ACAD
1000
AcDbSavedByObjectVersion
1070
     0
  0
VISUALSTYLE
  5
2B
102
{ACAD_REACTORS
330
29
102
}
330
29
100
AcDbVisualStyle
  2
FlatWithEdges
 70
     1
177
     3
291
     1
 70
    58
 90
        2
176
     1
 90
        1
176
     1
 90
        1
176
     1
 90
        2
176
     1
 40
0.6
176
     1
 40
30.0
176
     1
 62
     7
420
 16777215
176
     1
 90
        1
176
     1
 90
        0
176
     1
 62
     7
176
     1
 62
   257
176
     1
 90
        1
176
     1
 90
        1
176
     1
 40
1.0
176
     1
 90
        0
176
     1
 62
   257
176
     1
 40
1.0
176
     1
 90
        1
176
     1
 90
        6
176
     1
 90
        2
176
     1
 62
     7
176
     1
 90
        5
176
     1
 90
        0
176
     1
 90
        0
176
     1
290
     0
176
     1
 90
       13
176
     1
 40
0.0
176
     1
 90
        0
176
     1
290
     0
176
     1
290
     1
176
     1
290
     1
176
     1
290
     0
176
     1
290
     0
176
     1
290
     0
176
     1
290
     0
176
     1
290
     0
176
     1
290
     0
176
     1
 90
       50
176
     1
 40
0.0
176
     1
 40
1.0
176
     1
 90
        0
176
     1
 62
    18
420
        0
176
     1
 90
       50
176
     1
 90
        3
176
     1
 62
     5
420
      255
176
     1
290
     0
176
     1
 90
       50
176
     1
 90
       50
176
     1
 90
       50
176
     1
290
     0
176
     1
 90
       50
176
     1
 62
   256
176
     0
 40
1.0
176
     0
 90
        2
176
     1
  1
strokes_ogs.tif
176
     1
290
     0
176
     1
 40
1.0
176
     1
 40
1.0
176
     1
1001
ACAD
1000
AcDbSavedByObjectVersion
1070
     0
  0
VISUALSTYLE
  5
2C
102
{ACAD_REACTORS
330
29
102
}
330
29
100
AcDbVisualStyle
  2
Gouraud
 70
     2
177
     3
291
     1
 70
    58
 90
        2
176
     1
 90
        2
176
     1
 90
        1
176
     1
 90
        2
176
     1
 40
0.6
176
     1
 40
30.0
176
     1
 62
     7
420
 16777215
176
     1
 90
        0
176
     1
 90
        0
176
     1
 62
     7
176
     1
 62
   257
176
     1
 90
        1
176
     1
 90
        1
176
     1
 40
1.0
176
     1
 90
        0
176
     1
 62
     7
176
     1
 40
1.0
176
     1
 90
        1
176
     1
 90
        6
176
     1
 90
        2
176
     1
 62
     7
176
     1
 90
        5
176
     1
 90
        0
176
     1
 90
        0
176
     1
290
     0
176
     1
 90
       13
176
     1
 40
0.0
176
     1
 90
        0
176
     1
290
     0
176
     1
290
     1
176
     1
290
     1
176
     1
290
     0
176
     1
290
     0
176
     1
290
     0
176
     1
290
     0
176
     1
290
     0
176
     1
290
     0
176
     1
 90
       50
176
     1
 40
0.0
176
     1
 40
1.0
176
     1
 90
        0
176
     1
 62
    18
420
        0
176
     1
 90
       50
176
     1
 90
        3
176
     1
 62
     5
420
      255
176
     1
290
     0
176
     1
 90
       50
176
     1
 90
       50
176
     1
 90
       50
176
     1
290
     0
176
     1
 90
       50
176
     1
 62
   256
176
     0
 40
1.0
176
     0
 90
        2
176
     1
  1
strokes_ogs.tif
176
     1
290
     0
176
     1
 40
1.0
176
     1
 40
1.0
176
     1
1001
ACAD
1000
AcDbSavedByObjectVersion
1070
     0
  0
VISUALSTYLE
  5
2D
102
{ACAD_REACTORS
330
29
102
}
330
29
100
AcDbVisualStyle
  2
GouraudWithEdges
 70
     3
177
     3
291
     1
 70
    58
 90
        2
176
     1
 90
        2
176
     1
 90
        1
176
     1
 90
        2
176
     1
 40
0.6
176
     1
 40
30.0
176
     1
 62
     7
420
 16777215
176
     1
 90
        1
176
     1
 90
        0
176
     1
 62
     7
176
     1
 62
   257
176
     1
 90
        1
176
     1
 90
        1
176
     1
 40
1.0
176
     1
 90
        0
176
     1
 62
   257
176
     1
 40
1.0
176
     1
 90
        1
176
     1
 90
        6
176
     1
 90
        2
176
     1
 62
     7
176
     1
 90
        5
176
     1
 90
        0
176
     1
 90
        0
176
     1
290
     0
176
     1
 90
       13
176
     1
 40
0.0
176
     1
 90
        0
176
     1
290
     0
176
     1
290
     1
176
     1
290
     1
176
     1
290
     0
176
     1
290
     0
176
     1
290
     0
176
     1
290
     0
176
     1
290
     0
176
     1
290
     0
176
     1
 90
       50
176
     1
 40
0.0
176
     1
 40
1.0
176
     1
 90
        0
176
     1
 62
    18
420
        0
176
     1
 90
       50
176
     1
 90
        3
176
     1
 62
     5
420
      255
176
     1
290
     0
176
     1
 90
       50
176
     1
 90
       50
176
     1
 90
       50
176
     1
290
     0
176
     1
 90
       50
176
     1
 62
   256
176
     0
 40
1.0
176
     0
 90
        2
176
     1
  1
strokes_ogs.tif
176
     1
290
     0
176
     1
 40
1.0
176
     1
 40
1.0
176
     1
1001
ACAD
1000
AcDbSavedByObjectVersion
1070
     0
  0
VISUALSTYLE
  5
31
102
{ACAD_REACTORS
330
29
102
}
330
29
100
AcDbVisualStyle
  2
Hidden
 70
     6
177
     3
291
     0
 70
    58
 90
        1
176
     1
 90
        2
176
     1
 90
        2
176
     1
 90
        0
176
     1
 40
0.6
176
     1
 40
30.0
176
     1
 62
     7
420
 16777215
176
     1
 90
        2
176
     1
 90
        2
176
     1
 62
     7
176
     1
 62
   257
176
     1
 90
        2
176
     1
 90
        1
176
     1
 40
40.0
176
     1
 90
        0
176
     1
 62
   257
176
     1
 40
1.0
176
     1
 90
        1
176
     1
 90
        6
176
     1
 90
        2
176
     1
 62
     7
176
     1
 90
        3
176
     1
 90
        0
176
     1
 90
        0
176
     1
290
     0
176
     1
 90
        1
176
     1
 40
0.0
176
     1
 90
        0
176
     1
290
     0
176
     1
290
     1
176
     1
290
     1
176
     1
290
     0
176
     1
290
     0
176
     1
290
     0
176
     1
290
     0
176
     1
290
     0
176
     1
290
     0
176
     1
 90
       50
176
     1
 40
0.0
176
     1
 40
1.0
176
     1
 90
        0
176
     1
 62
    18
420
        0
176
     1
 90
       50
176
     1
 90
        3
176
     1
 62
     5
420
      255
176
     1
290
     0
176
     1
 90
       50
176
     1
 90
       50
176
     1
 90
       50
176
     1
290
     0
176
     1
 90
       50
176
     1
 62
   256
176
     0
 40
1.0
176
     0
 90
        2
176
     1
  1
strokes_ogs.tif
176
     1
290
     0
176
     1
 40
1.0
176
     1
 40
1.0
176
     1
1001
ACAD
1000
AcDbSavedByObjectVersion
1070
     0
  0
VISUALSTYLE
  5
3F
102
{ACAD_REACTORS
330
29
102
}
330
29
100
AcDbVisualStyle
  2
JitterOff
 70
    20
177
     3
291
     1
 70
    58
 90
        2
176
     0
 90
        2
176
     0
 90
        0
176
     0
 90
        0
176
     0
 40
0.6
176
     0
 40
30.0
176
     0
 62
     7
420
 16777215
176
     0
 90
        1
176
     0
 90
        4
176
     0
 62
     7
176
     0
 62
   257
176
     0
 90
        1
176
     0
 90
        1
176
     0
 40
1.0
176
     0
 90
       10
176
     2
 62
     7
176
     0
 40
1.0
176
     0
 90
        1
176
     0
 90
        6
176
     0
 90
        2
176
     0
 62
     7
176
     0
 90
        5
176
     0
 90
        0
176
     0
 90
        0
176
     0
290
     0
176
     0
 90
        1
176
     0
 40
0.0
176
     0
 90
        0
176
     0
290
     0
176
     0
290
     1
176
     0
290
     1
176
     0
290
     0
176
     0
290
     0
176
     0
290
     0
176
     0
290
     0
176
     0
290
     0
176
     0
290
     0
176
     0
 90
       50
176
     0
 40
0.0
176
     0
 40
1.0
176
     0
 90
        0
176
     0
 62
    18
420
        0
176
     0
 90
       50
176
     0
 90
        3
176
     0
 62
     5
420
      255
176
     0
290
     0
176
     0
 90
       50
176
     0
 90
       50
176
     0
 90
       50
176
     0
290
     0
176
     0
 90
       50
176
     0
 62
   256
176
     0
 40
1.0
176
     0
 90
        2
176
     0
  1
strokes_ogs.tif
176
     0
290
     0
176
     0
 40
1.0
176
     0
 40
1.0
176
     0
1001
ACAD
1000
AcDbSavedByObjectVersion
1070
     0
  0
VISUALSTYLE
  5
37
102
{ACAD_REACTORS
330
29
102
}
330
29
100
AcDbVisualStyle
  2
Linepattern
 70
    14
177
     3
291
     1
 70
    58
 90
        2
176
     1
 90
        2
176
     1
 90
        0
176
     1
 90
        0
176
     1
 40
0.6
176
     1
 40
30.0
176
     1
 62
     7
420
 16777215
176
     1
 90
        1
176
     1
 90
        4
176
     1
 62
     7
176
     1
 62
   257
176
     1
 90
        7
176
     1
 90
        7
176
     1
 40
1.0
176
     1
 90
        8
176
     1
 62
     7
176
     1
 40
1.0
176
     1
 90
        1
176
     1
 90
        6
176
     1
 90
        2
176
     1
 62
     7
176
     1
 90
        5
176
     1
 90
        0
176
     1
 90
        0
176
     1
290
     0
176
     1
 90
        1
176
     1
 40
0.0
176
     1
 90
        0
176
     1
290
     0
176
     1
290
     1
176
     1
290
     1
176
     1
290
     0
176
     1
290
     0
176
     1
290
     0
176
     1
290
     0
176
     1
290
     0
176
     1
290
     0
176
     1
 90
       50
176
     1
 40
0.0
176
     1
 40
1.0
176
     1
 90
        0
176
     1
 62
    18
420
        0
176
     1
 90
       50
176
     1
 90
        3
176
     1
 62
     5
420
      255
176
     1
290
     0
176
     1
 90
       50
176
     1
 90
       50
176
     1
 90
       50
176
     1
290
     0
176
     1
 90
       50
176
     1
 62
   256
176
     0
 40
1.0
176
     0
 90
        2
176
     1
  1
strokes_ogs.tif
176
     1
290
     0
176
     1
 40
1.0
176
     1
 40
1.0
176
     1
1001
ACAD
1000
AcDbSavedByObjectVersion
1070
     0
  0
VISUALSTYLE
  5
40
102
{ACAD_REACTORS
330
29
102
}
330
29
100
AcDbVisualStyle
  2
OverhangOff
 70
    21
177
     3
291
     1
 70
    58
 90
        2
176
     0
 90
        2
176
     0
 90
        0
176
     0
 90
        0
176
     0
 40
0.6
176
     0
 40
30.0
176
     0
 62
     7
420
 16777215
176
     0
 90
        1
176
     0
 90
        4
176
     0
 62
     7
176
     0
 62
   257
176
     0
 90
        1
176
     0
 90
        1
176
     0
 40
1.0
176
     0
 90
        9
176
     2
 62
     7
176
     0
 40
1.0
176
     0
 90
        1
176
     0
 90
        6
176
     0
 90
        2
176
     0
 62
     7
176
     0
 90
        5
176
     0
 90
        0
176
     0
 90
        0
176
     0
290
     0
176
     0
 90
        1
176
     0
 40
0.0
176
     0
 90
        0
176
     0
290
     0
176
     0
290
     1
176
     0
290
     1
176
     0
290
     0
176
     0
290
     0
176
     0
290
     0
176
     0
290
     0
176
     0
290
     0
176
     0
290
     0
176
     0
 90
       50
176
     0
 40
0.0
176
     0
 40
1.0
176
     0
 90
        0
176
     0
 62
    18
420
        0
176
     0
 90
       50
176
     0
 90
        3
176
     0
 62
     5
420
      255
176
     0
290
     0
176
     0
 90
       50
176
     0
 90
       50
176
     0
 90
       50
176
     0
290
     0
176
     0
 90
       50
176
     0
 62
   256
176
     0
 40
1.0
176
     0
 90
        2
176
     0
  1
strokes_ogs.tif
176
     0
290
     0
176
     0
 40
1.0
176
     0
 40
1.0
176
     0
1001
ACAD
1000
AcDbSavedByObjectVersion
1070
     0
  0
VISUALSTYLE
  5
33
102
{ACAD_REACTORS
330
29
102
}
330
29
100
AcDbVisualStyle
  2
Realistic
 70
     8
177
     3
291
     0
 70
    58
 90
        2
176
     1
 90
        3
176
     1
 90
        0
176
     1
 90
        2
176
     1
 40
0.6
176
     1
 40
30.0
176
     1
 62
     7
420
 16777215
176
     1
 90
        0
176
     1
 90
        0
176
     1
 62
     7
176
     1
 62
   257
176
     1
 90
        1
176
     1
 90
        1
176
     1
 40
1.0
176
     1
 90
        8
176
     1
 62
   257
176
     1
 40
1.0
176
     1
 90
        1
176
     1
 90
        6
176
     1
 90
        2
176
     1
 62
     7
176
     1
 90
        3
176
     1
 90
        0
176
     1
 90
        0
176
     1
290
     0
176
     1
 90
       13
176
     1
 40
0.0
176
     1
 90
        0
176
     1
290
     0
176
     1
290
     1
176
     1
290
     1
176
     1
290
     0
176
     1
290
     0
176
     1
290
     0
176
     1
290
     0
176
     1
290
     0
176
     1
290
     0
176
     1
 90
       50
176
     1
 40
0.0
176
     1
 40
1.0
176
     1
 90
        0
176
     1
 62
    18
420
        0
176
     1
 90
       50
176
     1
 90
        3
176
     1
 62
     5
420
      255
176
     1
290
     0
176
     1
 90
       50
176
     1
 90
       50
176
     1
 90
       50
176
     1
290
     0
176
     1
 90
       50
176
     1
 62
   256
176
     0
 40
1.0
176
     0
 90
        2
176
     1
  1
strokes_ogs.tif
176
     1
290
     0
176
     1
 40
1.0
176
     1
 40
1.0
176
     1
1001
ACAD
1000
AcDbSavedByObjectVersion
1070
     0
  0
VISUALSTYLE
  5
3E
102
{ACAD_REACTORS
330
29
102
}
330
29
100
AcDbVisualStyle
  2
Shaded
 70
    27
177
     3
291
     0
 70
    58
 90
        2
176
     1
 90
        2
176
     1
 90
        1
176
     1
 90
        2
176
     1
 40
0.6
176
     1
 40
30.0
176
     1
 62
     7
420
 16777215
176
     1
 90
        0
176
     1
 90
        4
176
     1
 62
     7
176
     1
 62
   257
176
     1
 90
        1
176
     1
 90
        1
176
     1
 40
1.0
176
     1
 90
        8
176
     1
 62
   257
176
     1
 40
1.0
176
     1
 90
        1
176
     1
 90
        6
176
     1
 90
        2
176
     1
 62
     8
420
  7895160
176
     1
 90
        3
176
     1
 90
        0
176
     1
 90
        0
176
     1
290
     0
176
     1
 90
        5
176
     1
 40
0.0
176
     1
 90
        0
176
     1
290
     0
176
     1
290
     1
176
     1
290
     1
176
     1
290
     0
176
     1
290
     0
176
     1
290
     0
176
     1
290
     0
176
     1
290
     0
176
     1
290
     0
176
     1
 90
       50
176
     1
 40
0.0
176
     1
 40
1.0
176
     1
 90
        0
176
     1
 62
    18
420
        0
176
     1
 90
       50
176
     1
 90
        3
176
     1
 62
     5
420
      255
176
     1
290
     0
176
     1
 90
       50
176
     1
 90
       50
176
     1
 90
       50
176
     1
290
     0
176
     1
 90
       50
176
     1
 62
   256
176
     0
 40
1.0
176
     0
 90
        2
176
     1
  1
strokes_ogs.tif
176
     1
290
     0
176
     1
 40
1.0
176
     1
 40
1.0
176
     1
1001
ACAD
1000
AcDbSavedByObjectVersion
1070
     0
  0
VISUALSTYLE
  5
3D
102
{ACAD_REACTORS
330
29
102
}
330
29
100
AcDbVisualStyle
  2
Shaded with edges
 70
    26
177
     3
291
     0
 70
    58
 90
        2
176
     1
 90
        2
176
     1
 90
        1
176
     1
 90
        2
176
     1
 40
0.6
176
     1
 40
30.0
176
     1
 62
     7
420
 16777215
176
     1
 90
        1
176
     1
 90
        2
176
     1
 62
     7
176
     1
 62
   257
176
     1
 90
        2
176
     1
 90
        1
176
     1
 40
1.0
176
     1
 90
        8
176
     1
 62
   257
176
     1
 40
1.0
176
     1
 90
        1
176
     1
 90
        6
176
     1
 90
        2
176
     1
 62
     7
176
     1
 90
        3
176
     1
 90
        0
176
     1
 90
        0
176
     1
290
     0
176
     1
 90
        5
176
     1
 40
0.0
176
     1
 90
        0
176
     1
290
     0
176
     1
290
     1
176
     1
290
     1
176
     1
290
     0
176
     1
290
     0
176
     1
290
     0
176
     1
290
     0
176
     1
290
     0
176
     1
290
     0
176
     1
 90
       50
176
     1
 40
0.0
176
     1
 40
1.0
176
     1
 90
        0
176
     1
 62
    18
420
        0
176
     1
 90
       50
176
     1
 90
        3
176
     1
 62
     5
420
      255
176
     1
290
     0
176
     1
 90
       50
176
     1
 90
       50
176
     1
 90
       50
176
     1
290
     0
176
     1
 90
       50
176
     1
 62
   256
176
     0
 40
1.0
176
     0
 90
        2
176
     1
  1
strokes_ogs.tif
176
     1
290
     0
176
     1
 40
1.0
176
     1
 40
1.0
176
     1
1001
ACAD
1000
AcDbSavedByObjectVersion
1070
     0
  0
VISUALSTYLE
  5
3A
102
{ACAD_REACTORS
330
29
102
}
330
29
100
AcDbVisualStyle
  2
Shades of Gray
 70
    23
177
     3
291
     0
 70
    58
 90
        2
176
     1
 90
        2
176
     1
 90
        3
176
     1
 90
        0
176
     1
 40
0.6
176
     1
 40
30.0
176
     1
 62
     7
420
 16777215
176
     1
 90
        2
176
     1
 90
        2
176
     1
 62
     7
176
     1
 62
     7
176
     1
 90
        1
176
     1
 90
        1
176
     1
 40
40.0
176
     1
 90
        8
176
     1
 62
     7
176
     1
 40
1.0
176
     1
 90
        1
176
     1
 90
        6
176
     1
 90
        2
176
     1
 62
     7
176
     1
 90
        3
176
     1
 90
        0
176
     1
 90
        0
176
     1
290
     0
176
     1
 90
        1
176
     1
 40
0.0
176
     1
 90
        0
176
     1
290
     0
176
     1
290
     1
176
     1
290
     1
176
     1
290
     0
176
     1
290
     0
176
     1
290
     0
176
     1
290
     0
176
     1
290
     0
176
     1
290
     0
176
     1
 90
       50
176
     1
 40
0.0
176
     1
 40
1.0
176
     1
 90
        0
176
     1
 62
    18
420
        0
176
     1
 90
       50
176
     1
 90
        3
176
     1
 62
     5
420
      255
176
     1
290
     0
176
     1
 90
       50
176
     1
 90
       50
176
     1
 90
       50
176
     1
290
     0
176
     1
 90
       50
176
     1
 62
   256
176
     0
 40
1.0
176
     0
 90
        2
176
     1
  1
strokes_ogs.tif
176
     1
290
     0
176
     1
 40
1.0
176
     1
 40
1.0
176
     1
1001
ACAD
1000
AcDbSavedByObjectVersion
1070
     0
  0
VISUALSTYLE
  5
3B
102
{ACAD_REACTORS
330
29
102
}
330
29
100
AcDbVisualStyle
  2
Sketchy
 70
    24
177
     3
291
     0
 70
    58
 90
        1
176
     1
 90
        2
176
     1
 90
        2
176
     1
 90
        0
176
     1
 40
0.6
176
     1
 40
30.0
176
     1
 62
     7
420
 16777215
176
     1
 90
        2
176
     1
 90
        2
176
     1
 62
     7
176
     1
 62
     7
176
     1
 90
        1
176
     1
 90
        1
176
     1
 40
40.0
176
     1
 90
       11
176
     1
 62
     7
176
     1
 40
1.0
176
     1
 90
        1
176
     1
 90
        6
176
     1
 90
        2
176
     1
 62
     7
176
     1
 90
        6
176
     1
 90
        0
176
     1
 90
        0
176
     1
290
     0
176
     1
 90
        1
176
     1
 40
0.0
176
     1
 90
        0
176
     1
290
     0
176
     1
290
     1
176
     1
290
     1
176
     1
290
     0
176
     1
290
     0
176
     1
290
     0
176
     1
290
     0
176
     1
290
     0
176
     1
290
     0
176
     1
 90
       50
176
     1
 40
0.0
176
     1
 40
1.0
176
     1
 90
        0
176
     1
 62
    18
420
        0
176
     1
 90
       50
176
     1
 90
        3
176
     1
 62
     5
420
      255
176
     1
290
     0
176
     1
 90
       50
176
     1
 90
       50
176
     1
 90
       50
176
     1
290
     0
176
     1
 90
       50
176
     1
 62
   256
176
     0
 40
1.0
176
     0
 90
        2
176
     1
  1
strokes_ogs.tif
176
     1
290
     0
176
     1
 40
1.0
176
     1
 40
1.0
176
     1
1001
ACAD
1000
AcDbSavedByObjectVersion
1070
     0
  0
VISUALSTYLE
  5
36
102
{ACAD_REACTORS
330
29
102
}
330
29
100
AcDbVisualStyle
  2
Thicken
 70
    13
177
     3
291
     1
 70
    58
 90
        2
176
     1
 90
        2
176
     1
 90
        0
176
     1
 90
        0
176
     1
 40
0.6
176
     1
 40
30.0
176
     1
 62
     7
420
 16777215
176
     1
 90
        1
176
     1
 90
        4
176
     1
 62
     7
176
     1
 62
   257
176
     1
 90
        1
176
     1
 90
        1
176
     1
 40
1.0
176
     1
 90
       12
176
     1
 62
     7
176
     1
 40
1.0
176
     1
 90
        1
176
     1
 90
        6
176
     1
 90
        2
176
     1
 62
     7
176
     1
 90
        5
176
     1
 90
        0
176
     1
 90
        0
176
     1
290
     0
176
     1
 90
        1
176
     1
 40
0.0
176
     1
 90
        0
176
     1
290
     0
176
     1
290
     1
176
     1
290
     1
176
     1
290
     0
176
     1
290
     0
176
     1
290
     0
176
     1
290
     0
176
     1
290
     0
176
     1
290
     0
176
     1
 90
       50
176
     1
 40
0.0
176
     1
 40
1.0
176
     1
 90
        0
176
     1
 62
    18
420
        0
176
     1
 90
       50
176
     1
 90
        3
176
     1
 62
     5
420
      255
176
     1
290
     0
176
     1
 90
       50
176
     1
 90
       50
176
     1
 90
       50
176
     1
290
     0
176
     1
 90
       50
176
     1
 62
   256
176
     0
 40
1.0
176
     0
 90
        2
176
     1
  1
strokes_ogs.tif
176
     1
290
     0
176
     1
 40
1.0
176
     1
 40
1.0
176
     1
1001
ACAD
1000
AcDbSavedByObjectVersion
1070
     0
  0
VISUALSTYLE
  5
30
102
{ACAD_REACTORS
330
29
102
}
330
29
100
AcDbVisualStyle
  2
Wireframe
 70
     5
177
     3
291
     0
 70
    58
 90
        0
176
     1
 90
        2
176
     1
 90
        0
176
     1
 90
        0
176
     1
 40
0.6
176
     1
 40
30.0
176
     1
 62
     7
420
 16777215
176
     1
 90
        1
176
     1
 90
        4
176
     1
 62
     7
176
     1
 62
   257
176
     1
 90
        1
176
     1
 90
        1
176
     1
 40
1.0
176
     1
 90
        0
176
     1
 62
   257
176
     1
 40
1.0
176
     1
 90
        1
176
     1
 90
        6
176
     1
 90
        2
176
     1
 62
     7
176
     1
 90
        3
176
     1
 90
        0
176
     1
 90
        0
176
     1
290
     0
176
     1
 90
        1
176
     1
 40
0.0
176
     1
 90
        0
176
     1
290
     0
176
     1
290
     1
176
     1
290
     1
176
     1
290
     0
176
     1
290
     0
176
     1
290
     0
176
     1
290
     0
176
     1
290
     0
176
     1
290
     0
176
     1
 90
       50
176
     1
 40
0.0
176
     1
 40
1.0
176
     1
 90
        0
176
     1
 62
    18
420
        0
176
     1
 90
       50
176
     1
 90
        3
176
     1
 62
     5
420
      255
176
     1
290
     0
176
     1
 90
       50
176
     1
 90
       50
176
     1
 90
       50
176
     1
290
     0
176
     1
 90
       50
176
     1
 62
   256
176
     0
 40
1.0
176
     0
 90
        2
176
     1
  1
strokes_ogs.tif
176
     1
290
     0
176
     1
 40
1.0
176
     1
 40
1.0
176
     1
1001
ACAD
1000
AcDbSavedByObjectVersion
1070
     0
  0
VISUALSTYLE
  5
3C
102
{ACAD_REACTORS
330
29
102
}
330
29
100
AcDbVisualStyle
  2
X-Ray
 70
    25
177
     3
291
     0
 70
    58
 90
        2
176
     1
 90
        2
176
     1
 90
        1
176
     1
 90
        1
176
     1
 40
0.5
176
     1
 40
30.0
176
     1
 62
     7
420
 16777215
176
     1
 90
        1
176
     1
 90
        0
176
     1
 62
     7
176
     1
 62
   257
176
     1
 90
        1
176
     1
 90
        1
176
     1
 40
1.0
176
     1
 90
        8
176
     1
 62
     7
176
     1
 40
1.0
176
     1
 90
        1
176
     1
 90
        6
176
     1
 90
        2
176
     1
 62
     7
176
     1
 90
        3
176
     1
 90
        0
176
     1
 90
        0
176
     1
290
     0
176
     1
 90
       13
176
     1
 40
0.0
176
     1
 90
        0
176
     1
290
     0
176
     1
290
     1
176
     1
290
     1
176
     1
290
     0
176
     1
290
     0
176
     1
290
     0
176
     1
290
     0
176
     1
290
     0
176
     1
290
     0
176
     1
 90
       50
176
     1
 40
0.0
176
     1
 40
1.0
176
     1
 90
        0
176
     1
 62
    18
420
        0
176
     1
 90
       50
176
     1
 90
        3
176
     1
 62
     5
420
      255
176
     1
290
     0
176
     1
 90
       50
176
     1
 90
       50
176
     1
 90
       50
176
     1
290
     0
176
     1
 90
       50
176
     1
 62
   256
176
     0
 40
1.0
176
     0
 90
        2
176
     1
  1
strokes_ogs.tif
176
     1
290
     0
176
     1
 40
1.0
176
     1
 40
1.0
176
     1
1001
ACAD
1000
AcDbSavedByObjectVersion
1070
     0
  0
DICTIONARYVAR
  5
148
102
{ACAD_REACTORS
330
143
102
}
330
143
100
DictionaryVariables
280
     0
  1
1:1
  0
DICTIONARYVAR
  5
145
102
{ACAD_REACTORS
330
143
102
}
330
143
100
DictionaryVariables
280
     0
  1
STANDARD
  0
DICTIONARYVAR
  5
144
102
{ACAD_REACTORS
330
143
102
}
330
143
100
DictionaryVariables
280
     0
  1
STANDARD
  0
DICTIONARYVAR
  5
146
102
{ACAD_REACTORS
330
143
102
}
330
143
100
DictionaryVariables
280
     0
  1
Imperial24
  0
DICTIONARYVAR
  5
147
102
{ACAD_REACTORS
330
143
102
}
330
143
100
DictionaryVariables
280
     0
  1
Imperial24
  0
DICTIONARY
  5
14E
330
6B
100
AcDbDictionary
280
     1
281
     1
  3
ACAD_XREC_ROUNDTRIP
360
14F
  0
DICTIONARY
  5
1A
330
19
100
AcDbDictionary
280
     1
281
     1
  3
BUMPTILE
360
1C
  3
DIFFUSETILE
360
1B
  3
OPACITYTILE
360
1F
  3
REFLECTIONTILE
360
1E
  3
REFRACTIONTILE
360
20
  3
SPECULARTILE
360
1D
  0
DICTIONARY
  5
12
330
11
100
AcDbDictionary
280
     1
281
     1
  3
BUMPTILE
360
14
  3
DIFFUSETILE
360
13
  3
OPACITYTILE
360
17
  3
REFLECTIONTILE
360
16
  3
REFRACTIONTILE
360
18
  3
SPECULARTILE
360
15
  0
DICTIONARY
  5
22
330
21
100
AcDbDictionary
280
     1
281
     1
  3
BUMPTILE
360
24
  3
DIFFUSETILE
360
23
  3
OPACITYTILE
360
27
  3
REFLECTIONTILE
360
26
  3
REFRACTIONTILE
360
28
  3
SPECULARTILE
360
25
  0
DICTIONARY
  5
14C
330
69
100
AcDbDictionary
280
     1
281
     1
  3
ACAD_XREC_ROUNDTRIP
360
14D
  0
DICTIONARY
  5
149
330
65
100
AcDbDictionary
280
     1
281
     1
  3
ACAD_ROUNDTRIP_2008_TABLESTYLE_CELLSTYLEMAP
360
14A
  0
XRECORD
  5
14F
102
{ACAD_REACTORS
330
14E
102
}
330
14E
100
AcDbXrecord
280
     1
102
DISPLAYNAME
  1
Imperial24
102
FLAGS
 90
        0
  0
XRECORD
  5
1C
102
{ACAD_REACTORS
330
1A
102
}
330
1A
100
AcDbXrecord
280
     1
270
     1
271
     1
  0
XRECORD
  5
1B
102
{ACAD_REACTORS
330
1A
102
}
330
1A
100
AcDbXrecord
280
     1
270
     1
271
     1
  0
XRECORD
  5
1F
102
{ACAD_REACTORS
330
1A
102
}
330
1A
100
AcDbXrecord
280
     1
270
     1
271
     1
  0
XRECORD
  5
1E
102
{ACAD_REACTORS
330
1A
102
}
330
1A
100
AcDbXrecord
280
     1
270
     1
271
     1
  0
XRECORD
  5
20
102
{ACAD_REACTORS
330
1A
102
}
330
1A
100
AcDbXrecord
280
     1
270
     1
271
     1
  0
XRECORD
  5
1D
102
{ACAD_REACTORS
330
1A
102
}
330
1A
100
AcDbXrecord
280
     1
270
     1
271
     1
  0
XRECORD
  5
14
102
{ACAD_REACTORS
330
12
102
}
330
12
100
AcDbXrecord
280
     1
270
     1
271
     1
  0
XRECORD
  5
13
102
{ACAD_REACTORS
330
12
102
}
330
12
100
AcDbXrecord
280
     1
270
     1
271
     1
  0
XRECORD
  5
17
102
{ACAD_REACTORS
330
12
102
}
330
12
100
AcDbXrecord
280
     1
270
     1
271
     1
  0
XRECORD
  5
16
102
{ACAD_REACTORS
330
12
102
}
330
12
100
AcDbXrecord
280
     1
270
     1
271
     1
  0
XRECORD
  5
18
102
{ACAD_REACTORS
330
12
102
}
330
12
100
AcDbXrecord
280
     1
270
     1
271
     1
  0
XRECORD
  5
15
102
{ACAD_REACTORS
330
12
102
}
330
12
100
AcDbXrecord
280
     1
270
     1
271
     1
  0
XRECORD
  5
24
102
{ACAD_REACTORS
330
22
102
}
330
22
100
AcDbXrecord
280
     1
270
     1
271
     1
  0
XRECORD
  5
23
102
{ACAD_REACTORS
330
22
102
}
330
22
100
AcDbXrecord
280
     1
270
     1
271
     1
  0
XRECORD
  5
27
102
{ACAD_REACTORS
330
22
102
}
330
22
100
AcDbXrecord
280
     1
270
     1
271
     1
  0
XRECORD
  5
26
102
{ACAD_REACTORS
330
22
102
}
330
22
100
AcDbXrecord
280
     1
270
     1
271
     1
  0
XRECORD
  5
28
102
{ACAD_REACTORS
330
22
102
}
330
22
100
AcDbXrecord
280
     1
270
     1
271
     1
  0
XRECORD
  5
25
102
{ACAD_REACTORS
330
22
102
}
330
22
100
AcDbXrecord
280
     1
270
     1
271
     1
  0
XRECORD
  5
14D
102
{ACAD_REACTORS
330
14C
102
}
330
14C
100
AcDbXrecord
280
     1
102
DISPLAYNAME
  1
Imperial24
102
FLAGS
 90
        0
  0
CELLSTYLEMAP
  5
14A
102
{ACAD_REACTORS
330
149
102
}
330
149
100
AcDbCellStyleMap
 90
        3
300
CELLSTYLE
  1
TABLEFORMAT_BEGIN
 90
        5
170
     1
 91
        0
 92
    32768
 62
   257
 93
        1
300
CONTENTFORMAT
  1
CONTENTFORMAT_BEGIN
 90
        0
 91
        0
 92
      512
 93
        0
300

 40
0.0
140
1.0
 94
        5
 62
     0
340
55
144
0.25
309
CONTENTFORMAT_END
171
     0
 94
        0
309
TABLEFORMAT_END
  1
CELLSTYLE_BEGIN
 90
        1
 91
        1
300
_TITLE
309
CELLSTYLE_END
300
CELLSTYLE
  1
TABLEFORMAT_BEGIN
 90
        5
170
     1
 91
        0
 92
        0
 62
   257
 93
        1
300
CONTENTFORMAT
  1
CONTENTFORMAT_BEGIN
 90
        0
 91
        0
 92
      512
 93
        0
300

 40
0.0
140
1.0
 94
        5
 62
     0
340
55
144
0.18
309
CONTENTFORMAT_END
171
     0
 94
        0
309
TABLEFORMAT_END
  1
CELLSTYLE_BEGIN
 90
        2
 91
        1
300
_HEADER
309
CELLSTYLE_END
300
CELLSTYLE
  1
TABLEFORMAT_BEGIN
 90
        5
170
     1
 91
        0
 92
        0
 62
   257
 93
        1
300
CONTENTFORMAT
  1
CONTENTFORMAT_BEGIN
 90
        0
 91
        0
 92
      512
 93
        0
300

 40
0.0
140
1.0
 94
        2
 62
     0
340
55
144
0.18
309
CONTENTFORMAT_END
171
     0
 94
        0
309
TABLEFORMAT_END
  1
CELLSTYLE_BEGIN
 90
        3
 91
        2
300
_DATA
309
CELLSTYLE_END
  0
ENDSEC
  0
EOF
