0
SECTION
2
HEADER
9
$INSUNITS
70
4
9
$ACADVER
1
AC1014
9
$HANDSEED
5
FFFF
0
ENDSEC
0
SECTION
2
TABLES
0
TABLE
2
VPORT
5
8
100
AcDbSymbolTable
0
ENDTAB
0
TABLE
2
LTYPE
5
5
100
AcDbSymbolTable
0
LTYPE
5
14
100
AcDbSymbolTableRecord
100
AcDbLinetypeTableRecord
2
BYBLOCK
70
0
0
LTYPE
5
15
100
AcDbSymbolTableRecord
100
AcDbLinetypeTableRecord
2
BYLAYER
70
0
0
ENDTAB
0
TABLE
2
LAYER
5
2
100
AcDbSymbolTable
70
2
0
LAYER
5
50
100
AcDbSymbolTableRecord
100
AcDbLayerTableRecord
2
0
70
0
6
CONTINUOUS
0
ENDTAB
0
TABLE
2
STYLE
5
3
100
AcDbSymbolTable
70
1
0
STYLE
5
11
100
AcDbSymbolTableRecord
100
AcDbTextStyleTableRecord
2
STANDARD
70
0
0
ENDTAB
0
TABLE
2
VIEW
5
6
100
AcDbSymbolTable
70
0
0
ENDTAB
0
TABLE
2
UCS
5
7
100
AcDbSymbolTable
70
0
0
ENDTAB
0
TABLE
2
APPID
5
9
100
AcDbSymbolTable
70
2
0
APPID
5
12
100
AcDbSymbolTableRecord
100
AcDbRegAppTableRecord
2
ACAD
70
0
0
ENDTAB
0
TABLE
2
DIMSTYLE
5
A
100
AcDbSymbolTable
70
1
0
ENDTAB
0
TABLE
2
BLOCK_RECORD
5
1
100
AcDbSymbolTable
70
1
0
BLOCK_RECORD
5
1F
100
AcDbSymbolTableRecord
100
AcDbBlockTableRecord
2
*MODEL_SPACE
0
BLOCK_RECORD
5
1B
100
AcDbSymbolTableRecord
100
AcDbBlockTableRecord
2
*PAPER_SPACE
0
ENDTAB
0
ENDSEC
0
SECTION
2
BLOCKS
0
BLOCK
5
20
100
AcDbEntity
100
AcDbBlockBegin
2
*MODEL_SPACE
0
ENDBLK
5
21
100
AcDbEntity
100
AcDbBlockEnd
0
BLOCK
5
1C
100
AcDbEntity
100
AcDbBlockBegin
2
*PAPER_SPACE
0
ENDBLK
5
1D
100
AcDbEntity
100
AcDbBlockEnd
0
ENDSEC
0
SECTION
2
ENTITIES
0
SPLINE
5
100
100
AcDbEntity
8
0
100
AcDbSpline
70
0
71
3
72
16
73
12
74
0
42
0.000000001
43
0.0000000001
44
0.0000000001
40
0
40
0
40
0
40
0
40
0.2810127019712903
40
0.2810127019712903
40
0.44333196857132429
40
0.44333196857132429
40
0.57225815567389793
40
0.57225815567389793
40
0.70846910643869077
40
0.70846910643869077
40
1.0203354999809178
40
1.0203354999809178
40
1.0203354999809178
40
1.0203354999809178
10
0
20
5
30
0
10
0
20
4.0632909934290327
30
0
10
1.7347234759768071e-17
20
3.2377552054805148
30
0
10
-0.22439222164767431
20
2.1086762230193696
30
0
10
-0.35848473985938351
20
1.7093983104290085
30
0
10
-0.76472025529254961
20
1.0715344941628577
30
0
10
-0.99177613002581044
20
0.8340813705444281
30
0
10
-1.5565599917507336
20
0.44137483378949044
30
0
10
-1.8798406032581825
20
0.30535241293577475
30
0
10
-3.0032010526293673
20
1.5404344466674047e-14
30
0
10
-3.931761561453464
20
1.9592777451423198e-14
30
0
10
-4.9999999999999973
20
2.4424906541753444e-14
30
0
0
SPLINE
5
101
100
AcDbEntity
8
0
100
AcDbSpline
70
0
71
3
72
16
73
12
74
0
42
0.000000001
43
0.0000000001
44
0.0000000001
40
0
40
0
40
0
40
0
40
0.28101270197128753
40
0.28101270197128753
40
0.44333196857131801
40
0.44333196857131801
40
0.5722581556738886
40
0.5722581556738886
40
0.70846910643867833
40
0.70846910643867833
40
1.020335499980898
40
1.020335499980898
40
1.020335499980898
40
1.020335499980898
10
-5
20
10
30
0
10
-4.0632909934290415
20
10
30
0
10
-3.2377552054805174
20
10
30
0
10
-2.1086762230193727
20
9.7756077783523256
30
0
10
-1.7093983104290091
20
9.6415152601406167
30
0
10
-1.0715344941628577
20
9.2352797447074515
30
0
10
-0.8340813705444281
20
9.0082238699741897
30
0
10
-0.44137483378949044
20
8.4434400082492669
30
0
10
-0.30535241293577475
20
8.1201593967418173
30
0
10
-1.5404344466674047e-14
20
6.9967989473706327
30
0
10
-1.9592777451423192e-14
20
6.068238438546536
30
0
10
-2.4424906541753444e-14
20
5.0000000000000018
30
0
0
LINE
5
102
100
AcDbEntity
8
0
100
AcDbLine
10
-5
20
10
30
0
11
-95
21
10
31
0
0
SPLINE
5
103
100
AcDbEntity
8
0
100
AcDbSpline
70
0
71
3
72
16
73
12
74
0
42
0.000000001
43
0.0000000001
44
0.0000000001
40
0
40
0
40
0
40
0
40
0.28101270197132094
40
0.28101270197132094
40
0.44333196857138141
40
0.44333196857138141
40
0.57225815567398408
40
0.57225815567398408
40
0.70846910643881311
40
0.70846910643881311
40
1.0203354999811349
40
1.0203354999811349
40
1.0203354999811349
40
1.0203354999811349
10
-100
20
5
30
0
10
-100
20
5.9367090065710704
30
0
10
-100
20
6.7622447945195159
30
0
10
-99.775607778352338
20
7.8913237769806353
30
0
10
-99.641515260140622
20
8.2906016895709929
30
0
10
-99.235279744707441
20
8.928465505837158
30
0
10
-99.008223869974188
20
9.1659186294555752
30
0
10
-98.443440008249254
20
9.5586251662105131
30
0
10
-98.120159396741798
20
9.6946475870642281
30
0
10
-96.996798947370621
20
9.999999999999984
30
0
10
-96.06823843854653
20
9.9999999999999805
30
0
10
-95
20
9.9999999999999751
30
0
0
SPLINE
5
104
100
AcDbEntity
8
0
100
AcDbSpline
70
0
71
3
72
16
73
12
74
0
42
0.000000001
43
0.0000000001
44
0.0000000001
40
0
40
0
40
0
40
0
40
0.28101270197129263
40
0.28101270197129263
40
0.44333196857133261
40
0.44333196857133261
40
0.57225815567392613
40
0.57225815567392613
40
0.70846910643873962
40
0.70846910643873962
40
1.0203354999809537
40
1.0203354999809537
40
1.0203354999809537
40
1.0203354999809537
10
-95
20
0
30
0
10
-95.936709006570965
20
0
30
0
10
-96.762244794519489
20
-1.7347234759768071e-17
30
0
10
-97.891323776980656
20
0.22439222164767658
30
0
10
-98.290601689570991
20
0.35848473985938628
30
0
10
-98.928465505837181
20
0.7647202552925686
30
0
10
-99.165918629455575
20
0.99177613002582676
30
0
10
-99.558625166210476
20
1.5565599917507149
30
0
10
-99.69464758706421
20
1.8798406032581114
30
0
10
-100
20
3.0032010526293798
30
0
10
-99.999999999999986
20
3.9317615614535049
30
0
10
-99.999999999999986
20
4.9999999999999973
30
0
0
LINE
5
105
100
AcDbEntity
8
0
100
AcDbLine
10
-95
20
0
30
0
11
-4.9999999999999973
21
2.4400808563235619e-14
31
0
0
ENDSEC
0
SECTION
2
OBJECTS
0
DICTIONARY
5
C
100
AcDbDictionary
3
ACAD_GROUP
350
D
3
ACAD_MLINESTYLE
350
17
0
DICTIONARY
5
D
100
AcDbDictionary
0
DICTIONARY
5
1A
330
C
100
AcDbDictionary
0
DICTIONARY
5
17
100
AcDbDictionary
0
ENDSEC
0
EOF
