<svg id="lower-middle" xmlns="http://www.w3.org/2000/svg" viewBox="0 0 268.02 322.02"><defs><style>.cls-1,.cls-2{fill:none;stroke-miterlimit:10;}.cls-1{stroke:#e7211a;}.cls-2{stroke:#29a5df;}</style></defs><g id="穴s"><g id="スペーサー穴"><circle id="スペーサー穴-2" data-name="スペーサー穴" class="cls-1" cx="10.99" cy="10.99" r="7.65"/><circle id="スペーサー穴-3" data-name="スペーサー穴" class="cls-1" cx="10.99" cy="311.04" r="7.65"/><circle id="スペーサー穴-4" data-name="スペーサー穴" class="cls-1" cx="257.04" cy="10.99" r="7.65"/><circle id="スペーサー穴-5" data-name="スペーサー穴" class="cls-1" cx="257.04" cy="311.04" r="7.65"/></g></g><path class="cls-2" d="M545.68,137h-106v14.44a2.84,2.84,0,0,0,2.84,2.84h91.53a2.83,2.83,0,0,1,2.83,2.83v280.8a2.84,2.84,0,0,1-2.83,2.84H307.28a2.84,2.84,0,0,1-2.84-2.84V157.08a2.84,2.84,0,0,1,2.84-2.83h91.53a2.84,2.84,0,0,0,2.83-2.84V137h-106a8.51,8.51,0,0,0-8.51,8.51v304a8.51,8.51,0,0,0,8.51,8.51h250a8.51,8.51,0,0,0,8.51-8.51v-304A8.51,8.51,0,0,0,545.68,137Z" transform="translate(-286.66 -136.47)"/></svg>