<svg id="new-switch-plate" xmlns="http://www.w3.org/2000/svg" viewBox="0 0 227.8 281.8"><defs><style>.cls-1{fill:none;stroke:#e71d16;stroke-miterlimit:10;}</style></defs><rect class="cls-1" x="13.05" y="13.05" width="39.69" height="39.69"/><rect class="cls-1" x="67.05" y="13.05" width="39.69" height="39.69"/><rect class="cls-1" x="121.05" y="13.05" width="39.69" height="39.69"/><rect class="cls-1" x="175.05" y="13.05" width="39.69" height="39.69"/><rect class="cls-1" x="13.05" y="67.05" width="39.69" height="39.69"/><rect class="cls-1" x="67.05" y="67.05" width="39.69" height="39.69"/><rect class="cls-1" x="121.05" y="67.05" width="39.69" height="39.69"/><rect class="cls-1" x="13.05" y="121.05" width="39.69" height="39.69"/><rect class="cls-1" x="67.05" y="121.05" width="39.69" height="39.69"/><rect class="cls-1" x="121.05" y="121.05" width="39.69" height="39.69"/><rect class="cls-1" x="121.05" y="175.05" width="39.69" height="39.69"/><rect class="cls-1" x="67.05" y="175.05" width="39.69" height="39.69"/><rect class="cls-1" x="13.05" y="175.05" width="39.69" height="39.69"/><rect class="cls-1" x="121.05" y="229.05" width="39.69" height="39.69"/><rect class="cls-1" x="40.05" y="229.05" width="39.69" height="39.69"/><rect class="cls-1" x="16.14" y="231.89" width="19.84" height="42.52"/><rect class="cls-1" x="83.82" y="231.89" width="19.84" height="42.52"/><rect class="cls-1" x="481.89" y="358.58" width="39.69" height="39.69" transform="translate(573.38 -279.89) rotate(90)"/><rect class="cls-1" x="487.56" y="323.32" width="19.84" height="42.52" transform="translate(535.29 -309.48) rotate(90)"/><rect class="cls-1" x="487.56" y="391" width="19.84" height="42.52" transform="translate(602.97 -241.8) rotate(90)"/><rect class="cls-1" x="481.81" y="250.63" width="39.69" height="39.69" transform="translate(465.34 -387.76) rotate(90)"/><rect class="cls-1" x="487.48" y="215.37" width="19.84" height="42.52" transform="translate(427.25 -417.35) rotate(90)"/><rect class="cls-1" x="487.48" y="283.05" width="19.84" height="42.52" transform="translate(494.93 -349.67) rotate(90)"/><rect class="cls-1" x="0.5" y="0.5" width="226.8" height="280.8" rx="2.83"/></svg>