G04 #@! TF.GenerationSoftware,KiCad,Pcbnew,(6.0.1)*
G04 #@! TF.CreationDate,2022-05-09T18:46:19+09:00*
G04 #@! TF.ProjectId,Skeleton68,536b656c-6574-46f6-9e36-382e6b696361,rev?*
G04 #@! TF.SameCoordinates,Original*
G04 #@! TF.FileFunction,Profile,NP*
%FSLAX46Y46*%
G04 Gerber Fmt 4.6, Leading zero omitted, Abs format (unit mm)*
G04 Created by KiCad (PCBNEW (6.0.1)) date 2022-05-09 18:46:19*
%MOMM*%
%LPD*%
G01*
G04 APERTURE LIST*
G04 #@! TA.AperFunction,Profile*
%ADD10C,0.100000*%
G04 #@! TD*
G04 #@! TA.AperFunction,Profile*
%ADD11C,0.120000*%
G04 #@! TD*
G04 APERTURE END LIST*
D10*
X219150000Y-109510000D02*
X168300000Y-120330000D01*
X347550000Y-104790000D02*
G75*
G03*
X348050000Y-104290000I-1J500001D01*
G01*
X347540000Y-85720000D02*
X328990000Y-85720000D01*
X344240000Y-45720000D02*
X344230000Y-27170000D01*
X11430000Y-104280000D02*
G75*
G03*
X11930000Y-104780000I500001J1D01*
G01*
X219150000Y-109510000D02*
X219243553Y-109866447D01*
X348050000Y-46220000D02*
G75*
G03*
X347550000Y-45720000I-500001J-1D01*
G01*
X91326447Y-110296447D02*
X64320000Y-104540000D01*
X17170000Y-47620000D02*
X19720000Y-47620000D01*
X20210000Y-28570000D02*
X24000000Y-28570000D01*
X19720000Y-47620000D02*
X19710000Y-29070000D01*
X246730000Y-104620000D02*
G75*
G03*
X247230000Y-104120000I-1J500001D01*
G01*
X16570000Y-66700000D02*
X16570000Y-48220000D01*
X247230000Y-104120000D02*
X243320000Y-85730000D01*
X340420000Y-26670000D02*
X340420000Y-8120000D01*
X348040000Y-86220000D02*
G75*
G03*
X347540000Y-85720000I-500001J-1D01*
G01*
X163900000Y0D02*
X163900000Y-7620000D01*
X163900000Y-7620000D02*
X339920000Y-7620000D01*
X12000000Y-66690000D02*
G75*
G03*
X11500000Y-67190000I1J-500001D01*
G01*
X39510000Y-104770000D02*
X11930000Y-104780000D01*
X24500000Y-7620000D02*
X151900000Y-7620000D01*
X40010000Y-104270000D02*
X40000000Y-87500000D01*
X39510000Y-104770000D02*
G75*
G03*
X40010000Y-104270000I-1J500001D01*
G01*
X163900000Y0D02*
G75*
G03*
X163400000Y500000I-500001J-1D01*
G01*
X63820000Y-104040000D02*
G75*
G03*
X64320000Y-104540000I500001J1D01*
G01*
X91910000Y-109430000D02*
X91826447Y-109796447D01*
X147420000Y-121240000D02*
G75*
G03*
X147920000Y-120740000I-1J500001D01*
G01*
X24500000Y-7620000D02*
G75*
G03*
X24000000Y-8120000I1J-500001D01*
G01*
X328990000Y-85720000D02*
X328990000Y-64760000D01*
X67360000Y-87500000D02*
X63820000Y-104040000D01*
X347540000Y-64770000D02*
G75*
G03*
X348040000Y-64270000I-1J500001D01*
G01*
X147420000Y-121240000D02*
X91910000Y-109430000D01*
X348040000Y-64270000D02*
X348050000Y-46220000D01*
X12000000Y-66690000D02*
X16570000Y-66700000D01*
X262310000Y-104280000D02*
G75*
G03*
X262810000Y-104780000I500001J1D01*
G01*
X151900000Y-102000000D02*
X164020000Y-102010000D01*
X151900000Y-7620000D02*
X151900000Y0D01*
X347550000Y-104790000D02*
X262810000Y-104780000D01*
X344230000Y-27170000D02*
G75*
G03*
X343730000Y-26670000I-500001J-1D01*
G01*
X328990000Y-64760000D02*
X347540000Y-64770000D01*
X343730000Y-26670000D02*
X340420000Y-26670000D01*
X262310000Y-85730000D02*
X262310000Y-104280000D01*
X243320000Y-85730000D02*
X262310000Y-85730000D01*
X11430000Y-104280000D02*
X11500000Y-67190000D01*
X91326447Y-110296447D02*
G75*
G03*
X91826447Y-109796447I-1J500001D01*
G01*
X348040000Y-86220000D02*
X348050000Y-104290000D01*
X24000000Y-28570000D02*
X24000000Y-8120000D01*
X167800000Y-119830000D02*
G75*
G03*
X168300000Y-120330000I500001J1D01*
G01*
X219243553Y-109866447D02*
G75*
G03*
X219743553Y-110366447I500001J1D01*
G01*
X17170000Y-47620000D02*
G75*
G03*
X16570000Y-48220000I0J-600000D01*
G01*
X152400000Y500000D02*
G75*
G03*
X151900000Y0I1J-500001D01*
G01*
X147920000Y-120740000D02*
X151900000Y-102000000D01*
X20210000Y-28570000D02*
G75*
G03*
X19710000Y-29070000I1J-500001D01*
G01*
X152400000Y500000D02*
X163400000Y500000D01*
X164020000Y-102010000D02*
X167800000Y-119830000D01*
X219743553Y-110366447D02*
X246730000Y-104620000D01*
X340420000Y-8120000D02*
G75*
G03*
X339920000Y-7620000I-500001J-1D01*
G01*
X40000000Y-87500000D02*
X67360000Y-87500000D01*
X347550000Y-45720000D02*
X344240000Y-45720000D01*
D11*
X265381000Y-79200000D02*
X268781000Y-79200000D01*
X268781000Y-79200000D02*
X268781000Y-82200000D01*
X268781000Y-82200000D02*
X265381000Y-82200000D01*
X265381000Y-82200000D02*
X265381000Y-79200000D01*
X61136000Y-63150000D02*
X57736000Y-63150000D01*
X57736000Y-63150000D02*
X57736000Y-60150000D01*
X57736000Y-60150000D02*
X61136000Y-60150000D01*
X61136000Y-60150000D02*
X61136000Y-63150000D01*
X283669000Y-44100000D02*
X283669000Y-41100000D01*
X287069000Y-41100000D02*
X287069000Y-44100000D01*
X283669000Y-41100000D02*
X287069000Y-41100000D01*
X287069000Y-44100000D02*
X283669000Y-44100000D01*
X123413183Y-93051971D02*
X120087482Y-92345072D01*
X124036918Y-90117528D02*
X123413183Y-93051971D01*
X120087482Y-92345072D02*
X120711217Y-89410629D01*
X120711217Y-89410629D02*
X124036918Y-90117528D01*
X291575000Y-82200000D02*
X291575000Y-79200000D01*
X294975000Y-82200000D02*
X291575000Y-82200000D01*
X294975000Y-79200000D02*
X294975000Y-82200000D01*
X291575000Y-79200000D02*
X294975000Y-79200000D01*
X113725617Y-48974629D02*
X117051318Y-49681528D01*
X113101882Y-51909072D02*
X113725617Y-48974629D01*
X117051318Y-49681528D02*
X116427583Y-52615971D01*
X116427583Y-52615971D02*
X113101882Y-51909072D01*
X102077417Y-85449929D02*
X105403118Y-86156828D01*
X105403118Y-86156828D02*
X104779383Y-89091271D01*
X104779383Y-89091271D02*
X101453682Y-88384372D01*
X101453682Y-88384372D02*
X102077417Y-85449929D01*
X171251083Y-54598829D02*
X171874818Y-57533272D01*
X171874818Y-57533272D02*
X168549117Y-58240171D01*
X167925382Y-55305728D02*
X171251083Y-54598829D01*
X168549117Y-58240171D02*
X167925382Y-55305728D01*
X192839818Y-92028172D02*
X189514117Y-92735071D01*
X192216083Y-89093729D02*
X192839818Y-92028172D01*
X189514117Y-92735071D02*
X188890382Y-89800628D01*
X188890382Y-89800628D02*
X192216083Y-89093729D01*
X340218500Y-61245000D02*
X336818500Y-61245000D01*
X336818500Y-61245000D02*
X336818500Y-58245000D01*
X340218500Y-58245000D02*
X340218500Y-61245000D01*
X336818500Y-58245000D02*
X340218500Y-58245000D01*
X31235600Y-79200000D02*
X34635600Y-79200000D01*
X34635600Y-79200000D02*
X34635600Y-82200000D01*
X31235600Y-82200000D02*
X31235600Y-79200000D01*
X34635600Y-82200000D02*
X31235600Y-82200000D01*
X34942500Y-63150000D02*
X31542500Y-63150000D01*
X31542500Y-63150000D02*
X31542500Y-60150000D01*
X34942500Y-60150000D02*
X34942500Y-63150000D01*
X31542500Y-60150000D02*
X34942500Y-60150000D01*
X210548882Y-26770228D02*
X213874583Y-26063329D01*
X211172617Y-29704671D02*
X210548882Y-26770228D01*
X214498318Y-28997772D02*
X211172617Y-29704671D01*
X213874583Y-26063329D02*
X214498318Y-28997772D01*
X300983600Y-60150000D02*
X304383600Y-60150000D01*
X304383600Y-60150000D02*
X304383600Y-63150000D01*
X300983600Y-63150000D02*
X300983600Y-60150000D01*
X304383600Y-63150000D02*
X300983600Y-63150000D01*
X65517500Y-79200000D02*
X65517500Y-82200000D01*
X65517500Y-82200000D02*
X62117500Y-82200000D01*
X62117500Y-79200000D02*
X65517500Y-79200000D01*
X62117500Y-82200000D02*
X62117500Y-79200000D01*
X24018000Y-98250000D02*
X27418000Y-98250000D01*
X27418000Y-101250000D02*
X24018000Y-101250000D01*
X27418000Y-98250000D02*
X27418000Y-101250000D01*
X24018000Y-101250000D02*
X24018000Y-98250000D01*
X332598500Y-23145000D02*
X329198500Y-23145000D01*
X329198500Y-23145000D02*
X329198500Y-20145000D01*
X329198500Y-20145000D02*
X332598500Y-20145000D01*
X332598500Y-20145000D02*
X332598500Y-23145000D01*
X115355017Y-68796529D02*
X118680718Y-69503428D01*
X114731282Y-71730972D02*
X115355017Y-68796529D01*
X118056983Y-72437871D02*
X114731282Y-71730972D01*
X118680718Y-69503428D02*
X118056983Y-72437871D01*
X231206017Y-64397671D02*
X230582282Y-61463228D01*
X234531718Y-63690772D02*
X231206017Y-64397671D01*
X230582282Y-61463228D02*
X233907983Y-60756329D01*
X233907983Y-60756329D02*
X234531718Y-63690772D01*
X211948582Y-65423928D02*
X215274283Y-64717029D01*
X215898018Y-67651472D02*
X212572317Y-68358371D01*
X212572317Y-68358371D02*
X211948582Y-65423928D01*
X215274283Y-64717029D02*
X215898018Y-67651472D01*
X80124083Y-104299971D02*
X76798382Y-103593072D01*
X76798382Y-103593072D02*
X77422117Y-100658629D01*
X80747818Y-101365528D02*
X80124083Y-104299971D01*
X77422117Y-100658629D02*
X80747818Y-101365528D01*
X340218500Y-101250000D02*
X336818500Y-101250000D01*
X336818500Y-98250000D02*
X340218500Y-98250000D01*
X340218500Y-98250000D02*
X340218500Y-101250000D01*
X336818500Y-101250000D02*
X336818500Y-98250000D01*
X170256682Y-93761428D02*
X173582383Y-93054529D01*
X173582383Y-93054529D02*
X174206118Y-95988972D01*
X174206118Y-95988972D02*
X170880417Y-96695871D01*
X170880417Y-96695871D02*
X170256682Y-93761428D01*
X278306500Y-101250000D02*
X274906500Y-101250000D01*
X274906500Y-98250000D02*
X278306500Y-98250000D01*
X274906500Y-101250000D02*
X274906500Y-98250000D01*
X278306500Y-98250000D02*
X278306500Y-101250000D01*
X268429000Y-22050000D02*
X271829000Y-22050000D01*
X271829000Y-22050000D02*
X271829000Y-25050000D01*
X271829000Y-25050000D02*
X268429000Y-25050000D01*
X268429000Y-25050000D02*
X268429000Y-22050000D01*
X211473518Y-88067472D02*
X208147817Y-88774371D01*
X210849783Y-85133029D02*
X211473518Y-88067472D01*
X208147817Y-88774371D02*
X207524082Y-85839928D01*
X207524082Y-85839928D02*
X210849783Y-85133029D01*
X195864618Y-32958472D02*
X192538917Y-33665371D01*
X191915182Y-30730928D02*
X195240883Y-30024029D01*
X195240883Y-30024029D02*
X195864618Y-32958472D01*
X192538917Y-33665371D02*
X191915182Y-30730928D01*
X297004000Y-22050000D02*
X300404000Y-22050000D01*
X300404000Y-22050000D02*
X300404000Y-25050000D01*
X300404000Y-25050000D02*
X297004000Y-25050000D01*
X297004000Y-25050000D02*
X297004000Y-22050000D01*
X230107218Y-84106772D02*
X226781517Y-84813671D01*
X226157782Y-81879228D02*
X229483483Y-81172329D01*
X229483483Y-81172329D02*
X230107218Y-84106772D01*
X226781517Y-84813671D02*
X226157782Y-81879228D01*
X108369517Y-28360529D02*
X111695218Y-29067428D01*
X111071483Y-32001871D02*
X107745782Y-31294972D01*
X111695218Y-29067428D02*
X111071483Y-32001871D01*
X107745782Y-31294972D02*
X108369517Y-28360529D01*
X310882000Y-44100000D02*
X307482000Y-44100000D01*
X307482000Y-44100000D02*
X307482000Y-41100000D01*
X307482000Y-41100000D02*
X310882000Y-41100000D01*
X310882000Y-41100000D02*
X310882000Y-44100000D01*
X191145817Y-111863871D02*
X190522082Y-108929428D01*
X193847783Y-108222529D02*
X194471518Y-111156972D01*
X190522082Y-108929428D02*
X193847783Y-108222529D01*
X194471518Y-111156972D02*
X191145817Y-111863871D01*
X268019000Y-41100000D02*
X268019000Y-44100000D01*
X268019000Y-44100000D02*
X264619000Y-44100000D01*
X264619000Y-41100000D02*
X268019000Y-41100000D01*
X264619000Y-44100000D02*
X264619000Y-41100000D01*
X133988717Y-72757229D02*
X137314418Y-73464128D01*
X133364982Y-75691672D02*
X133988717Y-72757229D01*
X136690683Y-76398571D02*
X133364982Y-75691672D01*
X137314418Y-73464128D02*
X136690683Y-76398571D01*
X96097582Y-67770272D02*
X96721317Y-64835829D01*
X100047018Y-65542728D02*
X99423283Y-68477171D01*
X99423283Y-68477171D02*
X96097582Y-67770272D01*
X96721317Y-64835829D02*
X100047018Y-65542728D01*
X317768500Y-101250000D02*
X317768500Y-98250000D01*
X321168500Y-101250000D02*
X317768500Y-101250000D01*
X321168500Y-98250000D02*
X321168500Y-101250000D01*
X317768500Y-98250000D02*
X321168500Y-98250000D01*
X248969000Y-40338000D02*
X248969000Y-43338000D01*
X245569000Y-40338000D02*
X248969000Y-40338000D01*
X248969000Y-43338000D02*
X245569000Y-43338000D01*
X245569000Y-43338000D02*
X245569000Y-40338000D01*
X50878000Y-25050000D02*
X50878000Y-22050000D01*
X54278000Y-22050000D02*
X54278000Y-25050000D01*
X50878000Y-22050000D02*
X54278000Y-22050000D01*
X54278000Y-25050000D02*
X50878000Y-25050000D01*
X229806317Y-25743971D02*
X229182582Y-22809528D01*
X229182582Y-22809528D02*
X232508283Y-22102629D01*
X233132018Y-25037072D02*
X229806317Y-25743971D01*
X232508283Y-22102629D02*
X233132018Y-25037072D01*
X269953000Y-60150000D02*
X273353000Y-60150000D01*
X273353000Y-63150000D02*
X269953000Y-63150000D01*
X273353000Y-60150000D02*
X273353000Y-63150000D01*
X269953000Y-63150000D02*
X269953000Y-60150000D01*
X73328000Y-20526000D02*
X73328000Y-23526000D01*
X69928000Y-20526000D02*
X73328000Y-20526000D01*
X69928000Y-23526000D02*
X69928000Y-20526000D01*
X73328000Y-23526000D02*
X69928000Y-23526000D01*
X209142218Y-49611872D02*
X205816517Y-50318771D01*
X205816517Y-50318771D02*
X205192782Y-47384328D01*
X208518483Y-46677429D02*
X209142218Y-49611872D01*
X205192782Y-47384328D02*
X208518483Y-46677429D01*
X230940817Y-104378971D02*
X230317082Y-101444528D01*
X233642783Y-100737629D02*
X234266518Y-103672072D01*
X230317082Y-101444528D02*
X233642783Y-100737629D01*
X234266518Y-103672072D02*
X230940817Y-104378971D01*
X139344917Y-93371329D02*
X142670618Y-94078228D01*
X142046883Y-97012671D02*
X138721182Y-96305772D01*
X142670618Y-94078228D02*
X142046883Y-97012671D01*
X138721182Y-96305772D02*
X139344917Y-93371329D01*
X186559082Y-51345028D02*
X189884783Y-50638129D01*
X190508518Y-53572572D02*
X187182817Y-54279471D01*
X187182817Y-54279471D02*
X186559082Y-51345028D01*
X189884783Y-50638129D02*
X190508518Y-53572572D01*
X333008500Y-39195000D02*
X336408500Y-39195000D01*
X333008500Y-42195000D02*
X333008500Y-39195000D01*
X336408500Y-39195000D02*
X336408500Y-42195000D01*
X336408500Y-42195000D02*
X333008500Y-42195000D01*
X249379000Y-21288000D02*
X252779000Y-21288000D01*
X249379000Y-24288000D02*
X249379000Y-21288000D01*
X252779000Y-21288000D02*
X252779000Y-24288000D01*
X252779000Y-24288000D02*
X249379000Y-24288000D01*
X246331000Y-82200000D02*
X246331000Y-79200000D01*
X249731000Y-82200000D02*
X246331000Y-82200000D01*
X249731000Y-79200000D02*
X249731000Y-82200000D01*
X246331000Y-79200000D02*
X249731000Y-79200000D01*
X32304800Y-44100000D02*
X32304800Y-41100000D01*
X32304800Y-41100000D02*
X35704800Y-41100000D01*
X35704800Y-44100000D02*
X32304800Y-44100000D01*
X35704800Y-41100000D02*
X35704800Y-44100000D01*
X178006783Y-72638429D02*
X178630518Y-75572872D01*
X174681082Y-73345328D02*
X178006783Y-72638429D01*
X175304817Y-76279771D02*
X174681082Y-73345328D01*
X178630518Y-75572872D02*
X175304817Y-76279771D01*
X31828000Y-25050000D02*
X31828000Y-22050000D01*
X31828000Y-22050000D02*
X35228000Y-22050000D01*
X35228000Y-22050000D02*
X35228000Y-25050000D01*
X35228000Y-25050000D02*
X31828000Y-25050000D01*
X80789583Y-64516471D02*
X77463882Y-63809572D01*
X78087617Y-60875129D02*
X81413318Y-61582028D01*
X81413318Y-61582028D02*
X80789583Y-64516471D01*
X77463882Y-63809572D02*
X78087617Y-60875129D01*
X224450217Y-46358071D02*
X223826482Y-43423628D01*
X227775918Y-45651172D02*
X224450217Y-46358071D01*
X227152183Y-42716729D02*
X227775918Y-45651172D01*
X223826482Y-43423628D02*
X227152183Y-42716729D01*
X321168500Y-79200000D02*
X321168500Y-82200000D01*
X317768500Y-82200000D02*
X317768500Y-79200000D01*
X317768500Y-79200000D02*
X321168500Y-79200000D01*
X321168500Y-82200000D02*
X317768500Y-82200000D01*
X302118500Y-101250000D02*
X298718500Y-101250000D01*
X302118500Y-98250000D02*
X302118500Y-101250000D01*
X298718500Y-98250000D02*
X302118500Y-98250000D01*
X298718500Y-101250000D02*
X298718500Y-98250000D01*
X109604882Y-109592472D02*
X110228617Y-106658029D01*
X112930583Y-110299371D02*
X109604882Y-109592472D01*
X110228617Y-106658029D02*
X113554318Y-107364928D01*
X113554318Y-107364928D02*
X112930583Y-110299371D01*
X137555482Y-115533572D02*
X138179217Y-112599129D01*
X141504918Y-113306028D02*
X140881183Y-116240471D01*
X140881183Y-116240471D02*
X137555482Y-115533572D01*
X138179217Y-112599129D02*
X141504918Y-113306028D01*
X176607183Y-33984729D02*
X177230918Y-36919172D01*
X173281482Y-34691628D02*
X176607183Y-33984729D01*
X173905217Y-37626071D02*
X173281482Y-34691628D01*
X177230918Y-36919172D02*
X173905217Y-37626071D01*
X132359317Y-52935329D02*
X135685018Y-53642228D01*
X135061283Y-56576671D02*
X131735582Y-55869772D01*
X131735582Y-55869772D02*
X132359317Y-52935329D01*
X135685018Y-53642228D02*
X135061283Y-56576671D01*
X250903000Y-63150000D02*
X250903000Y-60150000D01*
X254303000Y-60150000D02*
X254303000Y-63150000D01*
X250903000Y-60150000D02*
X254303000Y-60150000D01*
X254303000Y-63150000D02*
X250903000Y-63150000D01*
X59516800Y-44100000D02*
X56116800Y-44100000D01*
X56116800Y-44100000D02*
X56116800Y-41100000D01*
X56116800Y-41100000D02*
X59516800Y-41100000D01*
X59516800Y-41100000D02*
X59516800Y-44100000D01*
X196640483Y-68677729D02*
X197264218Y-71612172D01*
X193314782Y-69384628D02*
X196640483Y-68677729D01*
X193938517Y-72319071D02*
X193314782Y-69384628D01*
X197264218Y-71612172D02*
X193938517Y-72319071D01*
X79160183Y-44694571D02*
X75834482Y-43987672D01*
X76458217Y-41053229D02*
X79783918Y-41760128D01*
X75834482Y-43987672D02*
X76458217Y-41053229D01*
X79783918Y-41760128D02*
X79160183Y-44694571D01*
X89735817Y-24399829D02*
X93061518Y-25106728D01*
X92437783Y-28041171D02*
X89112082Y-27334272D01*
X89112082Y-27334272D02*
X89735817Y-24399829D01*
X93061518Y-25106728D02*
X92437783Y-28041171D01*
X148338883Y-39923371D02*
X145013182Y-39216472D01*
X148962618Y-36988928D02*
X148338883Y-39923371D01*
X145636917Y-36282029D02*
X148962618Y-36988928D01*
X145013182Y-39216472D02*
X145636917Y-36282029D01*
X127003217Y-32321229D02*
X130328918Y-33028128D01*
X130328918Y-33028128D02*
X129705183Y-35962571D01*
X129705183Y-35962571D02*
X126379482Y-35255672D01*
X126379482Y-35255672D02*
X127003217Y-32321229D01*
X86769418Y-82196128D02*
X86145683Y-85130571D01*
X86145683Y-85130571D02*
X82819982Y-84423672D01*
X83443717Y-81489229D02*
X86769418Y-82196128D01*
X82819982Y-84423672D02*
X83443717Y-81489229D01*
X98417618Y-45720828D02*
X97793883Y-48655271D01*
X97793883Y-48655271D02*
X94468182Y-47948372D01*
X94468182Y-47948372D02*
X95091917Y-45013929D01*
X95091917Y-45013929D02*
X98417618Y-45720828D01*
M02*
