G04 #@! TF.GenerationSoftware,KiCad,Pcbnew,(6.0.1)*
G04 #@! TF.CreationDate,2022-02-22T23:39:04+09:00*
G04 #@! TF.ProjectId,SkeletonNumPad,536b656c-6574-46f6-9e4e-756d5061642e,rev?*
G04 #@! TF.SameCoordinates,Original*
G04 #@! TF.FileFunction,Soldermask,Bot*
G04 #@! TF.FilePolarity,Negative*
%FSLAX46Y46*%
G04 Gerber Fmt 4.6, Leading zero omitted, Abs format (unit mm)*
G04 Created by KiCad (PCBNEW (6.0.1)) date 2022-02-22 23:39:04*
%MOMM*%
%LPD*%
G01*
G04 APERTURE LIST*
G04 Aperture macros list*
%AMRoundRect*
0 Rectangle with rounded corners*
0 $1 Rounding radius*
0 $2 $3 $4 $5 $6 $7 $8 $9 X,Y pos of 4 corners*
0 Add a 4 corners polygon primitive as box body*
4,1,4,$2,$3,$4,$5,$6,$7,$8,$9,$2,$3,0*
0 Add four circle primitives for the rounded corners*
1,1,$1+$1,$2,$3*
1,1,$1+$1,$4,$5*
1,1,$1+$1,$6,$7*
1,1,$1+$1,$8,$9*
0 Add four rect primitives between the rounded corners*
20,1,$1+$1,$2,$3,$4,$5,0*
20,1,$1+$1,$4,$5,$6,$7,0*
20,1,$1+$1,$6,$7,$8,$9,0*
20,1,$1+$1,$8,$9,$2,$3,0*%
%AMRotRect*
0 Rectangle, with rotation*
0 The origin of the aperture is its center*
0 $1 length*
0 $2 width*
0 $3 Rotation angle, in degrees counterclockwise*
0 Add horizontal line*
21,1,$1,$2,0,0,$3*%
G04 Aperture macros list end*
%ADD10C,0.600000*%
%ADD11R,0.600000X1.160000*%
%ADD12R,0.300000X1.160000*%
%ADD13O,0.900000X2.000000*%
%ADD14O,0.900000X1.700000*%
%ADD15R,1.200000X0.900000*%
%ADD16RoundRect,0.250000X-0.625000X0.375000X-0.625000X-0.375000X0.625000X-0.375000X0.625000X0.375000X0*%
%ADD17C,1.750000*%
%ADD18C,3.000000*%
%ADD19C,3.987800*%
%ADD20R,2.550000X2.500000*%
%ADD21R,1.700000X0.820000*%
%ADD22RoundRect,0.250000X0.475000X-0.250000X0.475000X0.250000X-0.475000X0.250000X-0.475000X-0.250000X0*%
%ADD23RoundRect,0.250000X-0.262500X-0.450000X0.262500X-0.450000X0.262500X0.450000X-0.262500X0.450000X0*%
%ADD24RoundRect,0.250000X-0.475000X0.250000X-0.475000X-0.250000X0.475000X-0.250000X0.475000X0.250000X0*%
%ADD25R,1.800000X1.100000*%
%ADD26RoundRect,0.250000X-0.450000X0.262500X-0.450000X-0.262500X0.450000X-0.262500X0.450000X0.262500X0*%
%ADD27C,3.048000*%
%ADD28R,1.400000X1.200000*%
%ADD29R,1.400000X1.000000*%
%ADD30RoundRect,0.062500X-0.291682X-0.380070X0.380070X0.291682X0.291682X0.380070X-0.380070X-0.291682X0*%
%ADD31RoundRect,0.062500X0.291682X-0.380070X0.380070X-0.291682X-0.291682X0.380070X-0.380070X0.291682X0*%
%ADD32RotRect,5.200000X5.200000X45.000000*%
%ADD33RoundRect,0.250000X0.450000X-0.262500X0.450000X0.262500X-0.450000X0.262500X-0.450000X-0.262500X0*%
G04 APERTURE END LIST*
D10*
X136240000Y-36265000D03*
X130460000Y-36265000D03*
D11*
X130150000Y-37325000D03*
X130950000Y-37325000D03*
D12*
X132100000Y-37325000D03*
X133100000Y-37325000D03*
X133600000Y-37325000D03*
X134600000Y-37325000D03*
D11*
X135750000Y-37325000D03*
X136550000Y-37325000D03*
X136550000Y-37325000D03*
X135750000Y-37325000D03*
D12*
X135100000Y-37325000D03*
X134100000Y-37325000D03*
X132600000Y-37325000D03*
X131600000Y-37325000D03*
D11*
X130950000Y-37325000D03*
X130150000Y-37325000D03*
D13*
X129030000Y-36745000D03*
D14*
X137670000Y-32575000D03*
D13*
X137670000Y-36745000D03*
D14*
X129030000Y-32575000D03*
D15*
X151447500Y-71182500D03*
X151447500Y-67882500D03*
D16*
X114350000Y-38370000D03*
X114350000Y-41170000D03*
D17*
X147955000Y-123825000D03*
D18*
X145415000Y-118745000D03*
D19*
X142875000Y-123825000D03*
D17*
X137795000Y-123825000D03*
D18*
X139065000Y-121285000D03*
D20*
X135790000Y-121285000D03*
X148717000Y-118745000D03*
D15*
X132397500Y-90232500D03*
X132397500Y-86932500D03*
X151447500Y-52132500D03*
X151447500Y-48832500D03*
D21*
X107475000Y-72300000D03*
X107475000Y-70800000D03*
X102075000Y-70800000D03*
X102075000Y-72300000D03*
D15*
X121920000Y-128332500D03*
X121920000Y-125032500D03*
D22*
X163057500Y-58800000D03*
X163057500Y-56900000D03*
D23*
X156250000Y-38100000D03*
X158075000Y-38100000D03*
D24*
X160347500Y-130140000D03*
X160347500Y-132040000D03*
D15*
X113347500Y-90232500D03*
X113347500Y-86932500D03*
D21*
X111600000Y-127950000D03*
X111600000Y-129450000D03*
X117000000Y-129450000D03*
X117000000Y-127950000D03*
D15*
X132397500Y-52132500D03*
X132397500Y-48832500D03*
D21*
X140175000Y-127950000D03*
X140175000Y-129450000D03*
X145575000Y-129450000D03*
X145575000Y-127950000D03*
D18*
X107315000Y-61595000D03*
D19*
X104775000Y-66675000D03*
D17*
X109855000Y-66675000D03*
X99695000Y-66675000D03*
D18*
X100965000Y-64135000D03*
D20*
X97690000Y-64135000D03*
X110617000Y-61595000D03*
D23*
X170277500Y-109720000D03*
X172102500Y-109720000D03*
D18*
X120015000Y-45085000D03*
D17*
X128905000Y-47625000D03*
X118745000Y-47625000D03*
D19*
X123825000Y-47625000D03*
D18*
X126365000Y-42545000D03*
D20*
X116740000Y-45085000D03*
X129667000Y-42545000D03*
D15*
X132397500Y-71182500D03*
X132397500Y-67882500D03*
D23*
X151487500Y-38100000D03*
X153312500Y-38100000D03*
D21*
X140175000Y-89850000D03*
X140175000Y-91350000D03*
X145575000Y-91350000D03*
X145575000Y-89850000D03*
D15*
X113347500Y-52132500D03*
X113347500Y-48832500D03*
D21*
X102075000Y-51750000D03*
X102075000Y-53250000D03*
X107475000Y-53250000D03*
X107475000Y-51750000D03*
D25*
X125487500Y-122927500D03*
X131687500Y-122927500D03*
X131687500Y-126627500D03*
X125487500Y-126627500D03*
D18*
X158115000Y-45085000D03*
D17*
X156845000Y-47625000D03*
D19*
X161925000Y-47625000D03*
D18*
X164465000Y-42545000D03*
D17*
X167005000Y-47625000D03*
D20*
X154840000Y-45085000D03*
X167767000Y-42545000D03*
D17*
X118745000Y-66675000D03*
D18*
X120015000Y-64135000D03*
X126365000Y-61595000D03*
D17*
X128905000Y-66675000D03*
D19*
X123825000Y-66675000D03*
D20*
X116740000Y-64135000D03*
X129667000Y-61595000D03*
D22*
X157342500Y-58800000D03*
X157342500Y-56900000D03*
D21*
X140175000Y-51750000D03*
X140175000Y-53250000D03*
X145575000Y-53250000D03*
X145575000Y-51750000D03*
D18*
X145415000Y-99695000D03*
D17*
X147955000Y-104775000D03*
X137795000Y-104775000D03*
D19*
X142875000Y-104775000D03*
D18*
X139065000Y-102235000D03*
D20*
X135790000Y-102235000D03*
X148717000Y-99695000D03*
D26*
X164390000Y-62417500D03*
X164390000Y-64242500D03*
D21*
X159225000Y-51750000D03*
X159225000Y-53250000D03*
X164625000Y-53250000D03*
X164625000Y-51750000D03*
D15*
X170497500Y-80707500D03*
X170497500Y-77407500D03*
D21*
X164625000Y-119925000D03*
X164625000Y-118425000D03*
X159225000Y-118425000D03*
X159225000Y-119925000D03*
D15*
X113347500Y-71182500D03*
X113347500Y-67882500D03*
D18*
X158115000Y-111760000D03*
D19*
X170180000Y-126238000D03*
X161925000Y-114300000D03*
X170180000Y-102362000D03*
D17*
X156845000Y-114300000D03*
D27*
X154940000Y-102362000D03*
D17*
X167005000Y-114300000D03*
D18*
X164465000Y-109220000D03*
D27*
X154940000Y-126238000D03*
D20*
X154840000Y-111760000D03*
X167767000Y-109220000D03*
D15*
X153352500Y-120712500D03*
X153352500Y-117412500D03*
D19*
X123825000Y-104775000D03*
D17*
X128905000Y-104775000D03*
D18*
X126365000Y-99695000D03*
D17*
X118745000Y-104775000D03*
D18*
X120015000Y-102235000D03*
D20*
X116740000Y-102235000D03*
X129667000Y-99695000D03*
D15*
X170497500Y-118807500D03*
X170497500Y-115507500D03*
D22*
X171510000Y-98420000D03*
X171510000Y-96520000D03*
D28*
X134450000Y-56380000D03*
D29*
X134450000Y-58100000D03*
X132250000Y-58100000D03*
X132250000Y-56200000D03*
D17*
X99695000Y-85725000D03*
D18*
X107315000Y-80645000D03*
D19*
X104775000Y-85725000D03*
D18*
X100965000Y-83185000D03*
D17*
X109855000Y-85725000D03*
D20*
X97690000Y-83185000D03*
X110617000Y-80645000D03*
D22*
X165646800Y-58800000D03*
X165646800Y-56900000D03*
D18*
X139065000Y-83185000D03*
X145415000Y-80645000D03*
D17*
X137795000Y-85725000D03*
D19*
X142875000Y-85725000D03*
D17*
X147955000Y-85725000D03*
D20*
X135790000Y-83185000D03*
X148717000Y-80645000D03*
D21*
X145575000Y-110400000D03*
X145575000Y-108900000D03*
X140175000Y-108900000D03*
X140175000Y-110400000D03*
D17*
X99695000Y-47625000D03*
D18*
X100965000Y-45085000D03*
D19*
X104775000Y-47625000D03*
D18*
X107315000Y-42545000D03*
D17*
X109855000Y-47625000D03*
D20*
X97690000Y-45085000D03*
X110617000Y-42545000D03*
D30*
X161332798Y-99377736D03*
X160979245Y-99024182D03*
X160625691Y-98670629D03*
X160272138Y-98317076D03*
X159918585Y-97963522D03*
X159565031Y-97609969D03*
X159211478Y-97256415D03*
X158857924Y-96902862D03*
X158504371Y-96549309D03*
X158150818Y-96195755D03*
X157797264Y-95842202D03*
D31*
X157797264Y-94657798D03*
X158150818Y-94304245D03*
X158504371Y-93950691D03*
X158857924Y-93597138D03*
X159211478Y-93243585D03*
X159565031Y-92890031D03*
X159918585Y-92536478D03*
X160272138Y-92182924D03*
X160625691Y-91829371D03*
X160979245Y-91475818D03*
X161332798Y-91122264D03*
D30*
X162517202Y-91122264D03*
X162870755Y-91475818D03*
X163224309Y-91829371D03*
X163577862Y-92182924D03*
X163931415Y-92536478D03*
X164284969Y-92890031D03*
X164638522Y-93243585D03*
X164992076Y-93597138D03*
X165345629Y-93950691D03*
X165699182Y-94304245D03*
X166052736Y-94657798D03*
D31*
X166052736Y-95842202D03*
X165699182Y-96195755D03*
X165345629Y-96549309D03*
X164992076Y-96902862D03*
X164638522Y-97256415D03*
X164284969Y-97609969D03*
X163931415Y-97963522D03*
X163577862Y-98317076D03*
X163224309Y-98670629D03*
X162870755Y-99024182D03*
X162517202Y-99377736D03*
D32*
X161925000Y-95250000D03*
D15*
X113347500Y-109282500D03*
X113347500Y-105982500D03*
D22*
X167967500Y-132040000D03*
X167967500Y-130140000D03*
D18*
X164465000Y-71120000D03*
D27*
X154940000Y-64262000D03*
D17*
X156845000Y-76200000D03*
D18*
X158115000Y-73660000D03*
D19*
X170180000Y-64262000D03*
D17*
X167005000Y-76200000D03*
D19*
X170180000Y-88138000D03*
X161925000Y-76200000D03*
D27*
X154940000Y-88138000D03*
D20*
X154840000Y-73660000D03*
X167767000Y-71120000D03*
D18*
X126365000Y-80645000D03*
D17*
X118745000Y-85725000D03*
D18*
X120015000Y-83185000D03*
D17*
X128905000Y-85725000D03*
D19*
X123825000Y-85725000D03*
D20*
X116740000Y-83185000D03*
X129667000Y-80645000D03*
D15*
X170497500Y-52132500D03*
X170497500Y-48832500D03*
D22*
X154485000Y-58800000D03*
X154485000Y-56900000D03*
D15*
X151447500Y-109282500D03*
X151447500Y-105982500D03*
D21*
X102075000Y-89850000D03*
X102075000Y-91350000D03*
X107475000Y-91350000D03*
X107475000Y-89850000D03*
D18*
X145415000Y-61595000D03*
D17*
X147955000Y-66675000D03*
X137795000Y-66675000D03*
D19*
X142875000Y-66675000D03*
D18*
X139065000Y-64135000D03*
D20*
X135790000Y-64135000D03*
X148717000Y-61595000D03*
D28*
X165110000Y-131940000D03*
X162910000Y-131940000D03*
X162910000Y-130240000D03*
X165110000Y-130240000D03*
D21*
X126525000Y-110400000D03*
X126525000Y-108900000D03*
X121125000Y-108900000D03*
X121125000Y-110400000D03*
D15*
X132397500Y-109282500D03*
X132397500Y-105982500D03*
D21*
X164625000Y-81825000D03*
X164625000Y-80325000D03*
X159225000Y-80325000D03*
X159225000Y-81825000D03*
D15*
X153352500Y-82612500D03*
X153352500Y-79312500D03*
D22*
X160200000Y-58800000D03*
X160200000Y-56900000D03*
D19*
X102362000Y-132080000D03*
X114300000Y-123825000D03*
D27*
X102362000Y-116840000D03*
X126238000Y-116840000D03*
D17*
X119380000Y-123825000D03*
D19*
X126238000Y-132080000D03*
D18*
X116840000Y-118745000D03*
D17*
X109220000Y-123825000D03*
D18*
X110490000Y-121285000D03*
D20*
X107215000Y-121285000D03*
X120142000Y-118745000D03*
D17*
X99695000Y-104775000D03*
X109855000Y-104775000D03*
D19*
X104775000Y-104775000D03*
D18*
X100965000Y-102235000D03*
X107315000Y-99695000D03*
D20*
X97690000Y-102235000D03*
X110617000Y-99695000D03*
D21*
X121125000Y-51750000D03*
X121125000Y-53250000D03*
X126525000Y-53250000D03*
X126525000Y-51750000D03*
D33*
X131720000Y-119922500D03*
X131720000Y-118097500D03*
D26*
X161610000Y-62417500D03*
X161610000Y-64242500D03*
D21*
X126525000Y-72300000D03*
X126525000Y-70800000D03*
X121125000Y-70800000D03*
X121125000Y-72300000D03*
D18*
X139065000Y-45085000D03*
D19*
X142875000Y-47625000D03*
D17*
X137795000Y-47625000D03*
X147955000Y-47625000D03*
D18*
X145415000Y-42545000D03*
D20*
X135790000Y-45085000D03*
X148717000Y-42545000D03*
D21*
X107475000Y-110400000D03*
X107475000Y-108900000D03*
X102075000Y-108900000D03*
X102075000Y-110400000D03*
X121125000Y-89850000D03*
X121125000Y-91350000D03*
X126525000Y-91350000D03*
X126525000Y-89850000D03*
X145575000Y-72300000D03*
X145575000Y-70800000D03*
X140175000Y-70800000D03*
X140175000Y-72300000D03*
M02*
