M48
; DRILL file {KiCad (6.0.1)} date Tue Feb 22 23:39:09 2022
; FORMAT={-:-/ absolute / metric / decimal}
; #@! TF.CreationDate,2022-02-22T23:39:09+09:00
; #@! TF.GenerationSoftware,Kicad,Pcbnew,(6.0.1)
; #@! TF.FileFunction,NonPlated,1,2,NPTH
FMAT,2
METRIC
; #@! TA.AperFunction,NonPlated,NPTH,ComponentDrill
T1C0.600
; #@! TA.AperFunction,NonPlated,NPTH,ComponentDrill
T2C1.750
; #@! TA.AperFunction,NonPlated,NPTH,ComponentDrill
T3C3.000
; #@! TA.AperFunction,NonPlated,NPTH,ComponentDrill
T4C3.048
; #@! TA.AperFunction,NonPlated,NPTH,ComponentDrill
T5C3.988
%
G90
G05
T1
X130.46Y-36.265
X136.24Y-36.265
T2
X99.695Y-47.625
X99.695Y-66.675
X99.695Y-85.725
X99.695Y-104.775
X109.22Y-123.825
X109.855Y-47.625
X109.855Y-66.675
X109.855Y-85.725
X109.855Y-104.775
X118.745Y-47.625
X118.745Y-66.675
X118.745Y-85.725
X118.745Y-104.775
X119.38Y-123.825
X128.905Y-47.625
X128.905Y-66.675
X128.905Y-85.725
X128.905Y-104.775
X137.795Y-47.625
X137.795Y-66.675
X137.795Y-85.725
X137.795Y-104.775
X137.795Y-123.825
X147.955Y-47.625
X147.955Y-66.675
X147.955Y-85.725
X147.955Y-104.775
X147.955Y-123.825
X156.845Y-47.625
X156.845Y-76.2
X156.845Y-114.3
X167.005Y-47.625
X167.005Y-76.2
X167.005Y-114.3
T3
X100.965Y-45.085
X100.965Y-64.135
X100.965Y-83.185
X100.965Y-102.235
X107.315Y-42.545
X107.315Y-61.595
X107.315Y-80.645
X107.315Y-99.695
X110.49Y-121.285
X116.84Y-118.745
X120.015Y-45.085
X120.015Y-64.135
X120.015Y-83.185
X120.015Y-102.235
X126.365Y-42.545
X126.365Y-61.595
X126.365Y-80.645
X126.365Y-99.695
X139.065Y-45.085
X139.065Y-64.135
X139.065Y-83.185
X139.065Y-102.235
X139.065Y-121.285
X145.415Y-42.545
X145.415Y-61.595
X145.415Y-80.645
X145.415Y-99.695
X145.415Y-118.745
X158.115Y-45.085
X158.115Y-73.66
X158.115Y-111.76
X164.465Y-42.545
X164.465Y-71.12
X164.465Y-109.22
T4
X102.362Y-116.84
X126.238Y-116.84
X154.94Y-64.262
X154.94Y-88.138
X154.94Y-102.362
X154.94Y-126.238
T5
X102.362Y-132.08
X104.775Y-47.625
X104.775Y-66.675
X104.775Y-85.725
X104.775Y-104.775
X114.3Y-123.825
X123.825Y-47.625
X123.825Y-66.675
X123.825Y-85.725
X123.825Y-104.775
X126.238Y-132.08
X142.875Y-47.625
X142.875Y-66.675
X142.875Y-85.725
X142.875Y-104.775
X142.875Y-123.825
X161.925Y-47.625
X161.925Y-76.2
X161.925Y-114.3
X170.18Y-64.262
X170.18Y-88.138
X170.18Y-102.362
X170.18Y-126.238
T0
M30
