M48
; DRILL file {KiCad (6.0.1)} date Tue Feb 22 23:39:09 2022
; FORMAT={-:-/ absolute / metric / decimal}
; #@! TF.CreationDate,2022-02-22T23:39:09+09:00
; #@! TF.GenerationSoftware,Kicad,Pcbnew,(6.0.1)
; #@! TF.FileFunction,Plated,1,2,PTH
FMAT,2
METRIC
; #@! TA.AperFunction,Plated,PTH,ViaDrill
T1C0.400
; #@! TA.AperFunction,Plated,PTH,ComponentDrill
T2C0.600
%
G90
G05
T1
X109.045Y-111.799
X117.016Y-47.161
X117.016Y-66.211
X117.016Y-81.239
X118.689Y-51.56
X119.667Y-108.9
X121.892Y-94.531
X129.574Y-50.67
X131.886Y-102.218
X132.163Y-39.055
X132.203Y-55.097
X133.102Y-92.468
X133.231Y-39.097
X133.231Y-55.116
X133.619Y-108.943
X134.078Y-71.714
X134.446Y-54.438
X135.12Y-36.138
X136.19Y-81.329
X136.19Y-93.743
X136.19Y-100.263
X136.282Y-46.997
X136.282Y-65.986
X136.677Y-115.451
X146.797Y-114.377
X152.656Y-73.808
X152.665Y-48.835
X155.104Y-70.401
X155.104Y-81.998
X155.155Y-94.832
X156.002Y-58.8
X156.06Y-52.019
X156.376Y-108.149
X156.396Y-118.013
X156.529Y-123.609
X156.828Y-120.712
X157.635Y-83.29
X158.123Y-92.535
X158.916Y-91.902
X159.573Y-90.92
X159.807Y-99.462
X160.298Y-100.615
X160.832Y-101.946
X161.03Y-65.363
X163.407Y-100.406
X164.026Y-90.685
X164.328Y-73.422
X164.417Y-133.146
X165.456Y-99.154
X166.682Y-53.416
X166.988Y-98.42
X167.838Y-52.908
X168.255Y-83.955
T2
X129.03Y-32.175G85X129.03Y-32.975
G05
X129.03Y-36.195G85X129.03Y-37.295
G05
X137.67Y-32.175G85X137.67Y-32.975
G05
X137.67Y-36.195G85X137.67Y-37.295
G05
T0
M30
