%FSLAX45Y45*%
G04 Gerber Fmt 4.5, Leading zero omitted, Abs format (unit mm)*
G04 Created by KiCad (PCBNEW (6.0.0)) date 2022-02-11 16:13:40*
%MOMM*%
%LPD*%
G01*
G04 APERTURE LIST*
%TA.AperFunction,Profile*%
%ADD10C,0.100000*%
%TD*%
%ADD11C,0.200000*%
%ADD12C,0.040000*%
%ADD13C,0.060000*%
G04 APERTURE END LIST*
D10*
X12763500Y-3143250D02*
X12763500Y-3619500D01*
X13811250Y-3048000D02*
X12858750Y-3048000D01*
X12763500Y-3619500D02*
X9429750Y-3619500D01*
X17240250Y-3619500D02*
X13906500Y-3619500D01*
X17335500Y-3714750D02*
G75*
G03*
X17240250Y-3619500I-95250J0D01*
G01*
X12858750Y-3048000D02*
G75*
G03*
X12763500Y-3143250I0J-95250D01*
G01*
X9429750Y-13525500D02*
X17240250Y-13525500D01*
X17335500Y-13430250D02*
X17335500Y-3714750D01*
X17240250Y-13525500D02*
G75*
G03*
X17335500Y-13430250I0J95250D01*
G01*
X9429750Y-3619500D02*
G75*
G03*
X9334500Y-3714750I0J-95250D01*
G01*
X13906500Y-3619500D02*
X13906500Y-3143250D01*
X9334500Y-3714750D02*
X9334500Y-13430250D01*
X9334500Y-13430250D02*
G75*
G03*
X9429750Y-13525500I95250J0D01*
G01*
X13906500Y-3143250D02*
G75*
G03*
X13811250Y-3048000I-95250J0D01*
G01*
D11*
D12*
X9752000Y-4694000D02*
X9792000Y-4734000D01*
X9792000Y-4694000D02*
X9752000Y-4734000D01*
X9752000Y-6611000D02*
X9792000Y-6651000D01*
X9792000Y-6611000D02*
X9752000Y-6651000D01*
X9752000Y-8509000D02*
X9792000Y-8549000D01*
X9792000Y-8509000D02*
X9752000Y-8549000D01*
X9752000Y-10413000D02*
X9792000Y-10453000D01*
X9792000Y-10413000D02*
X9752000Y-10453000D01*
X10217000Y-12114000D02*
X10257000Y-12154000D01*
X10257000Y-12114000D02*
X10217000Y-12154000D01*
X11288400Y-7274220D02*
X11328400Y-7314220D01*
X11328400Y-7274220D02*
X11288400Y-7314220D01*
X11310750Y-5211730D02*
X11350750Y-5251730D01*
X11350750Y-5211730D02*
X11310750Y-5251730D01*
X11681630Y-4696120D02*
X11721630Y-4736120D01*
X11721630Y-4696120D02*
X11681630Y-4736120D01*
X11681630Y-6601120D02*
X11721630Y-6641120D01*
X11721630Y-6601120D02*
X11681630Y-6641120D01*
X11681630Y-8100520D02*
X11721630Y-8140520D01*
X11721630Y-8100520D02*
X11681630Y-8140520D01*
X11681630Y-9765900D02*
X11721630Y-9805900D01*
X11721630Y-9765900D02*
X11681630Y-9805900D01*
X13212020Y-5448250D02*
X13252020Y-5488250D01*
X13252020Y-5448250D02*
X13212020Y-5488250D01*
X13272150Y-3834720D02*
X13312150Y-3874720D01*
X13312150Y-3834720D02*
X13272150Y-3874720D01*
X13339940Y-5349380D02*
X13379940Y-5389380D01*
X13379940Y-5349380D02*
X13339940Y-5389380D01*
X13383430Y-3862380D02*
X13423430Y-3902380D01*
X13423430Y-3862380D02*
X13383430Y-3902380D01*
X13536510Y-11922630D02*
X13576510Y-11962630D01*
X13576510Y-11922630D02*
X13536510Y-11962630D01*
X13610050Y-8503900D02*
X13650050Y-8543900D01*
X13650050Y-8503900D02*
X13610050Y-8543900D01*
X13612100Y-5483740D02*
X13652100Y-5523740D01*
X13652100Y-5483740D02*
X13612100Y-5523740D01*
X13621280Y-6198400D02*
X13661280Y-6238400D01*
X13661280Y-6198400D02*
X13621280Y-6238400D01*
X13636240Y-5063880D02*
X13676240Y-5103880D01*
X13676240Y-5063880D02*
X13636240Y-5103880D01*
X13665220Y-9431680D02*
X13705220Y-9471680D01*
X13705220Y-9431680D02*
X13665220Y-9471680D01*
X13768380Y-4895950D02*
X13808380Y-4935950D01*
X13808380Y-4895950D02*
X13768380Y-4935950D01*
X13795400Y-11864440D02*
X13835400Y-11904440D01*
X13835400Y-11864440D02*
X13795400Y-11904440D01*
X14502478Y-11039372D02*
X14542478Y-11079372D01*
X14542478Y-11039372D02*
X14502478Y-11079372D01*
X14746970Y-13064210D02*
X14786970Y-13104210D01*
X14786970Y-13064210D02*
X14746970Y-13104210D01*
X15030000Y-11295000D02*
X15070000Y-11335000D01*
X15070000Y-11295000D02*
X15030000Y-11335000D01*
X15153800Y-9008600D02*
X15193800Y-9048600D01*
X15193800Y-9008600D02*
X15153800Y-9048600D01*
X15529950Y-9417820D02*
X15569950Y-9457820D01*
X15569950Y-9417820D02*
X15529950Y-9457820D01*
X15562480Y-5860000D02*
X15602480Y-5900000D01*
X15602480Y-5860000D02*
X15562480Y-5900000D01*
X15610910Y-9808750D02*
X15650910Y-9848750D01*
X15650910Y-9808750D02*
X15610910Y-9848750D01*
X15689390Y-9511920D02*
X15729390Y-9551920D01*
X15729390Y-9511920D02*
X15689390Y-9551920D01*
X15767190Y-7775760D02*
X15807190Y-7815760D01*
X15807190Y-7775760D02*
X15767190Y-7815760D01*
X15819220Y-9222430D02*
X15859220Y-9262430D01*
X15859220Y-9222430D02*
X15819220Y-9262430D01*
X15830810Y-9833800D02*
X15870810Y-9873800D01*
X15870810Y-9833800D02*
X15830810Y-9873800D01*
X15891840Y-9150330D02*
X15931840Y-9190330D01*
X15931840Y-9150330D02*
X15891840Y-9190330D01*
X15945720Y-8500410D02*
X15985720Y-8540410D01*
X15985720Y-8500410D02*
X15945720Y-8540410D01*
X15945800Y-8314690D02*
X15985800Y-8354690D01*
X15985800Y-8314690D02*
X15945800Y-8354690D01*
X15954110Y-9927810D02*
X15994110Y-9967810D01*
X15994110Y-9927810D02*
X15954110Y-9967810D01*
X16047730Y-8751860D02*
X16087730Y-8791860D01*
X16087730Y-8751860D02*
X16047730Y-8791860D01*
X16172150Y-9015260D02*
X16212150Y-9055260D01*
X16212150Y-9015260D02*
X16172150Y-9055260D01*
X16215540Y-6595560D02*
X16255540Y-6635560D01*
X16255540Y-6595560D02*
X16215540Y-6635560D01*
X16303070Y-8934090D02*
X16343070Y-8974090D01*
X16343070Y-8934090D02*
X16303070Y-8974090D01*
X16325930Y-5485300D02*
X16365930Y-5525300D01*
X16365930Y-5485300D02*
X16325930Y-5525300D01*
X16385790Y-9016800D02*
X16425790Y-9056800D01*
X16425790Y-9016800D02*
X16385790Y-9056800D01*
X16389970Y-10045370D02*
X16429970Y-10085370D01*
X16429970Y-10045370D02*
X16389970Y-10085370D01*
X16453710Y-9957490D02*
X16493710Y-9997490D01*
X16493710Y-9957490D02*
X16453710Y-9997490D01*
X16512670Y-12797210D02*
X16552670Y-12837210D01*
X16552670Y-12797210D02*
X16512670Y-12837210D01*
X16546760Y-9900040D02*
X16586760Y-9940040D01*
X16586760Y-9900040D02*
X16546760Y-9940040D01*
X16549660Y-8699395D02*
X16589660Y-8739395D01*
X16589660Y-8699395D02*
X16549660Y-8739395D01*
X16549740Y-8382260D02*
X16589740Y-8422260D01*
X16589740Y-8382260D02*
X16549740Y-8422260D01*
X16580270Y-6305710D02*
X16620270Y-6345710D01*
X16620270Y-6305710D02*
X16580270Y-6345710D01*
X16620500Y-10691200D02*
X16660500Y-10731200D01*
X16660500Y-10691200D02*
X16620500Y-10731200D01*
X16647560Y-9501930D02*
X16687560Y-9541930D01*
X16687560Y-9501930D02*
X16647560Y-9541930D01*
X16655690Y-9353060D02*
X16695690Y-9393060D01*
X16695690Y-9353060D02*
X16655690Y-9393060D01*
D13*
X12933000Y-3257500D02*
G75*
G03*
X12933000Y-3257500I-30000J0D01*
G01*
D11*
X12883000Y-3217500D02*
X12883000Y-3297500D01*
X12923000Y-3217500D02*
X12923000Y-3297500D01*
X12883000Y-3297500D02*
G75*
G03*
X12923000Y-3297500I20000J0D01*
G01*
X12923000Y-3217500D02*
G75*
G03*
X12883000Y-3217500I-20000J0D01*
G01*
D13*
X12933000Y-3674500D02*
G75*
G03*
X12933000Y-3674500I-30000J0D01*
G01*
D11*
X12883000Y-3619500D02*
X12883000Y-3729500D01*
X12923000Y-3619500D02*
X12923000Y-3729500D01*
X12883000Y-3729500D02*
G75*
G03*
X12923000Y-3729500I20000J0D01*
G01*
X12923000Y-3619500D02*
G75*
G03*
X12883000Y-3619500I-20000J0D01*
G01*
D13*
X13797000Y-3257500D02*
G75*
G03*
X13797000Y-3257500I-30000J0D01*
G01*
D11*
X13747000Y-3217500D02*
X13747000Y-3297500D01*
X13787000Y-3217500D02*
X13787000Y-3297500D01*
X13747000Y-3297500D02*
G75*
G03*
X13787000Y-3297500I20000J0D01*
G01*
X13787000Y-3217500D02*
G75*
G03*
X13747000Y-3217500I-20000J0D01*
G01*
D13*
X13797000Y-3674500D02*
G75*
G03*
X13797000Y-3674500I-30000J0D01*
G01*
D11*
X13747000Y-3619500D02*
X13747000Y-3729500D01*
X13787000Y-3619500D02*
X13787000Y-3729500D01*
X13747000Y-3729500D02*
G75*
G03*
X13787000Y-3729500I20000J0D01*
G01*
X13787000Y-3619500D02*
G75*
G03*
X13747000Y-3619500I-20000J0D01*
G01*
X9587119Y-13840976D02*
X9587119Y-13640976D01*
X9634738Y-13640976D01*
X9663310Y-13650500D01*
X9682357Y-13669548D01*
X9691881Y-13688595D01*
X9701405Y-13726690D01*
X9701405Y-13755262D01*
X9691881Y-13793357D01*
X9682357Y-13812405D01*
X9663310Y-13831452D01*
X9634738Y-13840976D01*
X9587119Y-13840976D01*
X9787119Y-13840976D02*
X9787119Y-13707643D01*
X9787119Y-13745738D02*
X9796643Y-13726690D01*
X9806167Y-13717167D01*
X9825214Y-13707643D01*
X9844262Y-13707643D01*
X9910929Y-13840976D02*
X9910929Y-13707643D01*
X9910929Y-13640976D02*
X9901405Y-13650500D01*
X9910929Y-13660024D01*
X9920452Y-13650500D01*
X9910929Y-13640976D01*
X9910929Y-13660024D01*
X10034738Y-13840976D02*
X10015690Y-13831452D01*
X10006167Y-13812405D01*
X10006167Y-13640976D01*
X10139500Y-13840976D02*
X10120452Y-13831452D01*
X10110929Y-13812405D01*
X10110929Y-13640976D01*
X10368071Y-13840976D02*
X10368071Y-13640976D01*
X10434738Y-13783833D01*
X10501405Y-13640976D01*
X10501405Y-13840976D01*
X10682357Y-13840976D02*
X10682357Y-13736214D01*
X10672833Y-13717167D01*
X10653786Y-13707643D01*
X10615690Y-13707643D01*
X10596643Y-13717167D01*
X10682357Y-13831452D02*
X10663310Y-13840976D01*
X10615690Y-13840976D01*
X10596643Y-13831452D01*
X10587119Y-13812405D01*
X10587119Y-13793357D01*
X10596643Y-13774309D01*
X10615690Y-13764786D01*
X10663310Y-13764786D01*
X10682357Y-13755262D01*
X10777595Y-13707643D02*
X10777595Y-13907643D01*
X10777595Y-13717167D02*
X10796643Y-13707643D01*
X10834738Y-13707643D01*
X10853786Y-13717167D01*
X10863310Y-13726690D01*
X10872833Y-13745738D01*
X10872833Y-13802881D01*
X10863310Y-13821928D01*
X10853786Y-13831452D01*
X10834738Y-13840976D01*
X10796643Y-13840976D01*
X10777595Y-13831452D01*
X10958548Y-13821928D02*
X10968071Y-13831452D01*
X10958548Y-13840976D01*
X10949024Y-13831452D01*
X10958548Y-13821928D01*
X10958548Y-13840976D01*
X10958548Y-13717167D02*
X10968071Y-13726690D01*
X10958548Y-13736214D01*
X10949024Y-13726690D01*
X10958548Y-13717167D01*
X10958548Y-13736214D01*
D12*
X9289500Y-14150500D02*
X9329500Y-14190500D01*
X9329500Y-14150500D02*
X9289500Y-14190500D01*
D11*
X9625214Y-14060976D02*
X9644262Y-14060976D01*
X9663310Y-14070500D01*
X9672833Y-14080024D01*
X9682357Y-14099071D01*
X9691881Y-14137167D01*
X9691881Y-14184786D01*
X9682357Y-14222881D01*
X9672833Y-14241928D01*
X9663310Y-14251452D01*
X9644262Y-14260976D01*
X9625214Y-14260976D01*
X9606167Y-14251452D01*
X9596643Y-14241928D01*
X9587119Y-14222881D01*
X9577595Y-14184786D01*
X9577595Y-14137167D01*
X9587119Y-14099071D01*
X9596643Y-14080024D01*
X9606167Y-14070500D01*
X9625214Y-14060976D01*
X9777595Y-14241928D02*
X9787119Y-14251452D01*
X9777595Y-14260976D01*
X9768071Y-14251452D01*
X9777595Y-14241928D01*
X9777595Y-14260976D01*
X9958548Y-14127643D02*
X9958548Y-14260976D01*
X9910929Y-14051452D02*
X9863310Y-14194309D01*
X9987119Y-14194309D01*
X10101405Y-14060976D02*
X10120452Y-14060976D01*
X10139500Y-14070500D01*
X10149024Y-14080024D01*
X10158548Y-14099071D01*
X10168071Y-14137167D01*
X10168071Y-14184786D01*
X10158548Y-14222881D01*
X10149024Y-14241928D01*
X10139500Y-14251452D01*
X10120452Y-14260976D01*
X10101405Y-14260976D01*
X10082357Y-14251452D01*
X10072833Y-14241928D01*
X10063310Y-14222881D01*
X10053786Y-14184786D01*
X10053786Y-14137167D01*
X10063310Y-14099071D01*
X10072833Y-14080024D01*
X10082357Y-14070500D01*
X10101405Y-14060976D01*
X10291881Y-14060976D02*
X10310929Y-14060976D01*
X10329976Y-14070500D01*
X10339500Y-14080024D01*
X10349024Y-14099071D01*
X10358548Y-14137167D01*
X10358548Y-14184786D01*
X10349024Y-14222881D01*
X10339500Y-14241928D01*
X10329976Y-14251452D01*
X10310929Y-14260976D01*
X10291881Y-14260976D01*
X10272833Y-14251452D01*
X10263310Y-14241928D01*
X10253786Y-14222881D01*
X10244262Y-14184786D01*
X10244262Y-14137167D01*
X10253786Y-14099071D01*
X10263310Y-14080024D01*
X10272833Y-14070500D01*
X10291881Y-14060976D01*
X10444262Y-14260976D02*
X10444262Y-14127643D01*
X10444262Y-14146690D02*
X10453786Y-14137167D01*
X10472833Y-14127643D01*
X10501405Y-14127643D01*
X10520452Y-14137167D01*
X10529976Y-14156214D01*
X10529976Y-14260976D01*
X10529976Y-14156214D02*
X10539500Y-14137167D01*
X10558548Y-14127643D01*
X10587119Y-14127643D01*
X10606167Y-14137167D01*
X10615690Y-14156214D01*
X10615690Y-14260976D01*
X10710929Y-14260976D02*
X10710929Y-14127643D01*
X10710929Y-14146690D02*
X10720452Y-14137167D01*
X10739500Y-14127643D01*
X10768071Y-14127643D01*
X10787119Y-14137167D01*
X10796643Y-14156214D01*
X10796643Y-14260976D01*
X10796643Y-14156214D02*
X10806167Y-14137167D01*
X10825214Y-14127643D01*
X10853786Y-14127643D01*
X10872833Y-14137167D01*
X10882357Y-14156214D01*
X10882357Y-14260976D01*
X11272833Y-14051452D02*
X11101405Y-14308595D01*
X11529976Y-14060976D02*
X11549024Y-14060976D01*
X11568071Y-14070500D01*
X11577595Y-14080024D01*
X11587119Y-14099071D01*
X11596643Y-14137167D01*
X11596643Y-14184786D01*
X11587119Y-14222881D01*
X11577595Y-14241928D01*
X11568071Y-14251452D01*
X11549024Y-14260976D01*
X11529976Y-14260976D01*
X11510928Y-14251452D01*
X11501405Y-14241928D01*
X11491881Y-14222881D01*
X11482357Y-14184786D01*
X11482357Y-14137167D01*
X11491881Y-14099071D01*
X11501405Y-14080024D01*
X11510928Y-14070500D01*
X11529976Y-14060976D01*
X11682357Y-14241928D02*
X11691881Y-14251452D01*
X11682357Y-14260976D01*
X11672833Y-14251452D01*
X11682357Y-14241928D01*
X11682357Y-14260976D01*
X11815690Y-14060976D02*
X11834738Y-14060976D01*
X11853786Y-14070500D01*
X11863309Y-14080024D01*
X11872833Y-14099071D01*
X11882357Y-14137167D01*
X11882357Y-14184786D01*
X11872833Y-14222881D01*
X11863309Y-14241928D01*
X11853786Y-14251452D01*
X11834738Y-14260976D01*
X11815690Y-14260976D01*
X11796643Y-14251452D01*
X11787119Y-14241928D01*
X11777595Y-14222881D01*
X11768071Y-14184786D01*
X11768071Y-14137167D01*
X11777595Y-14099071D01*
X11787119Y-14080024D01*
X11796643Y-14070500D01*
X11815690Y-14060976D01*
X12072833Y-14260976D02*
X11958548Y-14260976D01*
X12015690Y-14260976D02*
X12015690Y-14060976D01*
X11996643Y-14089548D01*
X11977595Y-14108595D01*
X11958548Y-14118119D01*
X12253786Y-14060976D02*
X12158548Y-14060976D01*
X12149024Y-14156214D01*
X12158548Y-14146690D01*
X12177595Y-14137167D01*
X12225214Y-14137167D01*
X12244262Y-14146690D01*
X12253786Y-14156214D01*
X12263309Y-14175262D01*
X12263309Y-14222881D01*
X12253786Y-14241928D01*
X12244262Y-14251452D01*
X12225214Y-14260976D01*
X12177595Y-14260976D01*
X12158548Y-14251452D01*
X12149024Y-14241928D01*
X12329976Y-14060976D02*
X12463309Y-14060976D01*
X12377595Y-14260976D01*
X12529976Y-14060976D02*
X12529976Y-14099071D01*
X12606167Y-14060976D02*
X12606167Y-14099071D01*
X12901405Y-14337167D02*
X12891881Y-14327643D01*
X12872833Y-14299071D01*
X12863309Y-14280024D01*
X12853786Y-14251452D01*
X12844262Y-14203833D01*
X12844262Y-14165738D01*
X12853786Y-14118119D01*
X12863309Y-14089548D01*
X12872833Y-14070500D01*
X12891881Y-14041928D01*
X12901405Y-14032405D01*
X13072833Y-14060976D02*
X12977595Y-14060976D01*
X12968071Y-14156214D01*
X12977595Y-14146690D01*
X12996643Y-14137167D01*
X13044262Y-14137167D01*
X13063309Y-14146690D01*
X13072833Y-14156214D01*
X13082357Y-14175262D01*
X13082357Y-14222881D01*
X13072833Y-14241928D01*
X13063309Y-14251452D01*
X13044262Y-14260976D01*
X12996643Y-14260976D01*
X12977595Y-14251452D01*
X12968071Y-14241928D01*
X13253786Y-14127643D02*
X13253786Y-14260976D01*
X13206167Y-14051452D02*
X13158548Y-14194309D01*
X13282357Y-14194309D01*
X13510928Y-14260976D02*
X13510928Y-14060976D01*
X13596643Y-14260976D02*
X13596643Y-14156214D01*
X13587119Y-14137167D01*
X13568071Y-14127643D01*
X13539500Y-14127643D01*
X13520452Y-14137167D01*
X13510928Y-14146690D01*
X13720452Y-14260976D02*
X13701405Y-14251452D01*
X13691881Y-14241928D01*
X13682357Y-14222881D01*
X13682357Y-14165738D01*
X13691881Y-14146690D01*
X13701405Y-14137167D01*
X13720452Y-14127643D01*
X13749024Y-14127643D01*
X13768071Y-14137167D01*
X13777595Y-14146690D01*
X13787119Y-14165738D01*
X13787119Y-14222881D01*
X13777595Y-14241928D01*
X13768071Y-14251452D01*
X13749024Y-14260976D01*
X13720452Y-14260976D01*
X13901405Y-14260976D02*
X13882357Y-14251452D01*
X13872833Y-14232405D01*
X13872833Y-14060976D01*
X14053786Y-14251452D02*
X14034738Y-14260976D01*
X13996643Y-14260976D01*
X13977595Y-14251452D01*
X13968071Y-14232405D01*
X13968071Y-14156214D01*
X13977595Y-14137167D01*
X13996643Y-14127643D01*
X14034738Y-14127643D01*
X14053786Y-14137167D01*
X14063309Y-14156214D01*
X14063309Y-14175262D01*
X13968071Y-14194309D01*
X14139500Y-14251452D02*
X14158548Y-14260976D01*
X14196643Y-14260976D01*
X14215690Y-14251452D01*
X14225214Y-14232405D01*
X14225214Y-14222881D01*
X14215690Y-14203833D01*
X14196643Y-14194309D01*
X14168071Y-14194309D01*
X14149024Y-14184786D01*
X14139500Y-14165738D01*
X14139500Y-14156214D01*
X14149024Y-14137167D01*
X14168071Y-14127643D01*
X14196643Y-14127643D01*
X14215690Y-14137167D01*
X14291881Y-14337167D02*
X14301405Y-14327643D01*
X14320452Y-14299071D01*
X14329976Y-14280024D01*
X14339500Y-14251452D01*
X14349024Y-14203833D01*
X14349024Y-14165738D01*
X14339500Y-14118119D01*
X14329976Y-14089548D01*
X14320452Y-14070500D01*
X14301405Y-14041928D01*
X14291881Y-14032405D01*
D13*
X9329500Y-14434500D02*
G75*
G03*
X9329500Y-14434500I-30000J0D01*
G01*
D11*
X9625214Y-14324976D02*
X9644262Y-14324976D01*
X9663310Y-14334500D01*
X9672833Y-14344024D01*
X9682357Y-14363071D01*
X9691881Y-14401167D01*
X9691881Y-14448786D01*
X9682357Y-14486881D01*
X9672833Y-14505928D01*
X9663310Y-14515452D01*
X9644262Y-14524976D01*
X9625214Y-14524976D01*
X9606167Y-14515452D01*
X9596643Y-14505928D01*
X9587119Y-14486881D01*
X9577595Y-14448786D01*
X9577595Y-14401167D01*
X9587119Y-14363071D01*
X9596643Y-14344024D01*
X9606167Y-14334500D01*
X9625214Y-14324976D01*
X9777595Y-14505928D02*
X9787119Y-14515452D01*
X9777595Y-14524976D01*
X9768071Y-14515452D01*
X9777595Y-14505928D01*
X9777595Y-14524976D01*
X9958548Y-14324976D02*
X9920452Y-14324976D01*
X9901405Y-14334500D01*
X9891881Y-14344024D01*
X9872833Y-14372595D01*
X9863310Y-14410690D01*
X9863310Y-14486881D01*
X9872833Y-14505928D01*
X9882357Y-14515452D01*
X9901405Y-14524976D01*
X9939500Y-14524976D01*
X9958548Y-14515452D01*
X9968071Y-14505928D01*
X9977595Y-14486881D01*
X9977595Y-14439262D01*
X9968071Y-14420214D01*
X9958548Y-14410690D01*
X9939500Y-14401167D01*
X9901405Y-14401167D01*
X9882357Y-14410690D01*
X9872833Y-14420214D01*
X9863310Y-14439262D01*
X10101405Y-14324976D02*
X10120452Y-14324976D01*
X10139500Y-14334500D01*
X10149024Y-14344024D01*
X10158548Y-14363071D01*
X10168071Y-14401167D01*
X10168071Y-14448786D01*
X10158548Y-14486881D01*
X10149024Y-14505928D01*
X10139500Y-14515452D01*
X10120452Y-14524976D01*
X10101405Y-14524976D01*
X10082357Y-14515452D01*
X10072833Y-14505928D01*
X10063310Y-14486881D01*
X10053786Y-14448786D01*
X10053786Y-14401167D01*
X10063310Y-14363071D01*
X10072833Y-14344024D01*
X10082357Y-14334500D01*
X10101405Y-14324976D01*
X10291881Y-14324976D02*
X10310929Y-14324976D01*
X10329976Y-14334500D01*
X10339500Y-14344024D01*
X10349024Y-14363071D01*
X10358548Y-14401167D01*
X10358548Y-14448786D01*
X10349024Y-14486881D01*
X10339500Y-14505928D01*
X10329976Y-14515452D01*
X10310929Y-14524976D01*
X10291881Y-14524976D01*
X10272833Y-14515452D01*
X10263310Y-14505928D01*
X10253786Y-14486881D01*
X10244262Y-14448786D01*
X10244262Y-14401167D01*
X10253786Y-14363071D01*
X10263310Y-14344024D01*
X10272833Y-14334500D01*
X10291881Y-14324976D01*
X10444262Y-14524976D02*
X10444262Y-14391643D01*
X10444262Y-14410690D02*
X10453786Y-14401167D01*
X10472833Y-14391643D01*
X10501405Y-14391643D01*
X10520452Y-14401167D01*
X10529976Y-14420214D01*
X10529976Y-14524976D01*
X10529976Y-14420214D02*
X10539500Y-14401167D01*
X10558548Y-14391643D01*
X10587119Y-14391643D01*
X10606167Y-14401167D01*
X10615690Y-14420214D01*
X10615690Y-14524976D01*
X10710929Y-14524976D02*
X10710929Y-14391643D01*
X10710929Y-14410690D02*
X10720452Y-14401167D01*
X10739500Y-14391643D01*
X10768071Y-14391643D01*
X10787119Y-14401167D01*
X10796643Y-14420214D01*
X10796643Y-14524976D01*
X10796643Y-14420214D02*
X10806167Y-14401167D01*
X10825214Y-14391643D01*
X10853786Y-14391643D01*
X10872833Y-14401167D01*
X10882357Y-14420214D01*
X10882357Y-14524976D01*
X11272833Y-14315452D02*
X11101405Y-14572595D01*
X11529976Y-14324976D02*
X11549024Y-14324976D01*
X11568071Y-14334500D01*
X11577595Y-14344024D01*
X11587119Y-14363071D01*
X11596643Y-14401167D01*
X11596643Y-14448786D01*
X11587119Y-14486881D01*
X11577595Y-14505928D01*
X11568071Y-14515452D01*
X11549024Y-14524976D01*
X11529976Y-14524976D01*
X11510928Y-14515452D01*
X11501405Y-14505928D01*
X11491881Y-14486881D01*
X11482357Y-14448786D01*
X11482357Y-14401167D01*
X11491881Y-14363071D01*
X11501405Y-14344024D01*
X11510928Y-14334500D01*
X11529976Y-14324976D01*
X11682357Y-14505928D02*
X11691881Y-14515452D01*
X11682357Y-14524976D01*
X11672833Y-14515452D01*
X11682357Y-14505928D01*
X11682357Y-14524976D01*
X11815690Y-14324976D02*
X11834738Y-14324976D01*
X11853786Y-14334500D01*
X11863309Y-14344024D01*
X11872833Y-14363071D01*
X11882357Y-14401167D01*
X11882357Y-14448786D01*
X11872833Y-14486881D01*
X11863309Y-14505928D01*
X11853786Y-14515452D01*
X11834738Y-14524976D01*
X11815690Y-14524976D01*
X11796643Y-14515452D01*
X11787119Y-14505928D01*
X11777595Y-14486881D01*
X11768071Y-14448786D01*
X11768071Y-14401167D01*
X11777595Y-14363071D01*
X11787119Y-14344024D01*
X11796643Y-14334500D01*
X11815690Y-14324976D01*
X11958548Y-14344024D02*
X11968071Y-14334500D01*
X11987119Y-14324976D01*
X12034738Y-14324976D01*
X12053786Y-14334500D01*
X12063309Y-14344024D01*
X12072833Y-14363071D01*
X12072833Y-14382119D01*
X12063309Y-14410690D01*
X11949024Y-14524976D01*
X12072833Y-14524976D01*
X12139500Y-14324976D02*
X12263309Y-14324976D01*
X12196643Y-14401167D01*
X12225214Y-14401167D01*
X12244262Y-14410690D01*
X12253786Y-14420214D01*
X12263309Y-14439262D01*
X12263309Y-14486881D01*
X12253786Y-14505928D01*
X12244262Y-14515452D01*
X12225214Y-14524976D01*
X12168071Y-14524976D01*
X12149024Y-14515452D01*
X12139500Y-14505928D01*
X12434738Y-14324976D02*
X12396643Y-14324976D01*
X12377595Y-14334500D01*
X12368071Y-14344024D01*
X12349024Y-14372595D01*
X12339500Y-14410690D01*
X12339500Y-14486881D01*
X12349024Y-14505928D01*
X12358548Y-14515452D01*
X12377595Y-14524976D01*
X12415690Y-14524976D01*
X12434738Y-14515452D01*
X12444262Y-14505928D01*
X12453786Y-14486881D01*
X12453786Y-14439262D01*
X12444262Y-14420214D01*
X12434738Y-14410690D01*
X12415690Y-14401167D01*
X12377595Y-14401167D01*
X12358548Y-14410690D01*
X12349024Y-14420214D01*
X12339500Y-14439262D01*
X12529976Y-14324976D02*
X12529976Y-14363071D01*
X12606167Y-14324976D02*
X12606167Y-14363071D01*
X12901405Y-14601167D02*
X12891881Y-14591643D01*
X12872833Y-14563071D01*
X12863309Y-14544024D01*
X12853786Y-14515452D01*
X12844262Y-14467833D01*
X12844262Y-14429738D01*
X12853786Y-14382119D01*
X12863309Y-14353548D01*
X12872833Y-14334500D01*
X12891881Y-14305928D01*
X12901405Y-14296405D01*
X13015690Y-14324976D02*
X13034738Y-14324976D01*
X13053786Y-14334500D01*
X13063309Y-14344024D01*
X13072833Y-14363071D01*
X13082357Y-14401167D01*
X13082357Y-14448786D01*
X13072833Y-14486881D01*
X13063309Y-14505928D01*
X13053786Y-14515452D01*
X13034738Y-14524976D01*
X13015690Y-14524976D01*
X12996643Y-14515452D01*
X12987119Y-14505928D01*
X12977595Y-14486881D01*
X12968071Y-14448786D01*
X12968071Y-14401167D01*
X12977595Y-14363071D01*
X12987119Y-14344024D01*
X12996643Y-14334500D01*
X13015690Y-14324976D01*
X13320452Y-14524976D02*
X13320452Y-14324976D01*
X13406167Y-14524976D02*
X13406167Y-14420214D01*
X13396643Y-14401167D01*
X13377595Y-14391643D01*
X13349024Y-14391643D01*
X13329976Y-14401167D01*
X13320452Y-14410690D01*
X13529976Y-14524976D02*
X13510928Y-14515452D01*
X13501405Y-14505928D01*
X13491881Y-14486881D01*
X13491881Y-14429738D01*
X13501405Y-14410690D01*
X13510928Y-14401167D01*
X13529976Y-14391643D01*
X13558548Y-14391643D01*
X13577595Y-14401167D01*
X13587119Y-14410690D01*
X13596643Y-14429738D01*
X13596643Y-14486881D01*
X13587119Y-14505928D01*
X13577595Y-14515452D01*
X13558548Y-14524976D01*
X13529976Y-14524976D01*
X13710928Y-14524976D02*
X13691881Y-14515452D01*
X13682357Y-14496405D01*
X13682357Y-14324976D01*
X13863309Y-14515452D02*
X13844262Y-14524976D01*
X13806167Y-14524976D01*
X13787119Y-14515452D01*
X13777595Y-14496405D01*
X13777595Y-14420214D01*
X13787119Y-14401167D01*
X13806167Y-14391643D01*
X13844262Y-14391643D01*
X13863309Y-14401167D01*
X13872833Y-14420214D01*
X13872833Y-14439262D01*
X13777595Y-14458309D01*
X13949024Y-14515452D02*
X13968071Y-14524976D01*
X14006167Y-14524976D01*
X14025214Y-14515452D01*
X14034738Y-14496405D01*
X14034738Y-14486881D01*
X14025214Y-14467833D01*
X14006167Y-14458309D01*
X13977595Y-14458309D01*
X13958548Y-14448786D01*
X13949024Y-14429738D01*
X13949024Y-14420214D01*
X13958548Y-14401167D01*
X13977595Y-14391643D01*
X14006167Y-14391643D01*
X14025214Y-14401167D01*
X14272833Y-14448786D02*
X14425214Y-14448786D01*
X14349024Y-14524976D02*
X14349024Y-14372595D01*
X14758548Y-14391643D02*
X14758548Y-14524976D01*
X14710928Y-14315452D02*
X14663309Y-14458309D01*
X14787119Y-14458309D01*
X15006167Y-14515452D02*
X15025214Y-14524976D01*
X15063309Y-14524976D01*
X15082357Y-14515452D01*
X15091881Y-14496405D01*
X15091881Y-14486881D01*
X15082357Y-14467833D01*
X15063309Y-14458309D01*
X15034738Y-14458309D01*
X15015690Y-14448786D01*
X15006167Y-14429738D01*
X15006167Y-14420214D01*
X15015690Y-14401167D01*
X15034738Y-14391643D01*
X15063309Y-14391643D01*
X15082357Y-14401167D01*
X15206167Y-14524976D02*
X15187119Y-14515452D01*
X15177595Y-14496405D01*
X15177595Y-14324976D01*
X15310928Y-14524976D02*
X15291881Y-14515452D01*
X15282357Y-14505928D01*
X15272833Y-14486881D01*
X15272833Y-14429738D01*
X15282357Y-14410690D01*
X15291881Y-14401167D01*
X15310928Y-14391643D01*
X15339500Y-14391643D01*
X15358548Y-14401167D01*
X15368071Y-14410690D01*
X15377595Y-14429738D01*
X15377595Y-14486881D01*
X15368071Y-14505928D01*
X15358548Y-14515452D01*
X15339500Y-14524976D01*
X15310928Y-14524976D01*
X15434738Y-14391643D02*
X15510928Y-14391643D01*
X15463309Y-14324976D02*
X15463309Y-14496405D01*
X15472833Y-14515452D01*
X15491881Y-14524976D01*
X15510928Y-14524976D01*
X15568071Y-14515452D02*
X15587119Y-14524976D01*
X15625214Y-14524976D01*
X15644262Y-14515452D01*
X15653786Y-14496405D01*
X15653786Y-14486881D01*
X15644262Y-14467833D01*
X15625214Y-14458309D01*
X15596643Y-14458309D01*
X15577595Y-14448786D01*
X15568071Y-14429738D01*
X15568071Y-14420214D01*
X15577595Y-14401167D01*
X15596643Y-14391643D01*
X15625214Y-14391643D01*
X15644262Y-14401167D01*
X15720452Y-14601167D02*
X15729976Y-14591643D01*
X15749024Y-14563071D01*
X15758548Y-14544024D01*
X15768071Y-14515452D01*
X15777595Y-14467833D01*
X15777595Y-14429738D01*
X15768071Y-14382119D01*
X15758548Y-14353548D01*
X15749024Y-14334500D01*
X15729976Y-14305928D01*
X15720452Y-14296405D01*
M02*
