G04 #@! TF.GenerationSoftware,KiCad,Pcbnew,(6.0.1)*
G04 #@! TF.CreationDate,2022-02-22T23:39:04+09:00*
G04 #@! TF.ProjectId,SkeletonNumPad,536b656c-6574-46f6-9e4e-756d5061642e,rev?*
G04 #@! TF.SameCoordinates,Original*
G04 #@! TF.FileFunction,Legend,Top*
G04 #@! TF.FilePolarity,Positive*
%FSLAX46Y46*%
G04 Gerber Fmt 4.6, Leading zero omitted, Abs format (unit mm)*
G04 Created by KiCad (PCBNEW (6.0.1)) date 2022-02-22 23:39:04*
%MOMM*%
%LPD*%
G01*
G04 APERTURE LIST*
%ADD10C,0.600000*%
%ADD11O,0.900000X2.000000*%
%ADD12O,0.900000X1.700000*%
%ADD13C,1.750000*%
%ADD14C,3.000000*%
%ADD15C,3.987800*%
%ADD16C,3.048000*%
G04 APERTURE END LIST*
%LPC*%
D10*
X136240000Y-36265000D03*
X130460000Y-36265000D03*
D11*
X129030000Y-36745000D03*
D12*
X137670000Y-32575000D03*
D11*
X137670000Y-36745000D03*
D12*
X129030000Y-32575000D03*
D13*
X147955000Y-123825000D03*
D14*
X145415000Y-118745000D03*
D15*
X142875000Y-123825000D03*
D13*
X137795000Y-123825000D03*
D14*
X139065000Y-121285000D03*
X107315000Y-61595000D03*
D15*
X104775000Y-66675000D03*
D13*
X109855000Y-66675000D03*
X99695000Y-66675000D03*
D14*
X100965000Y-64135000D03*
X120015000Y-45085000D03*
D13*
X128905000Y-47625000D03*
X118745000Y-47625000D03*
D15*
X123825000Y-47625000D03*
D14*
X126365000Y-42545000D03*
X158115000Y-45085000D03*
D13*
X156845000Y-47625000D03*
D15*
X161925000Y-47625000D03*
D14*
X164465000Y-42545000D03*
D13*
X167005000Y-47625000D03*
X118745000Y-66675000D03*
D14*
X120015000Y-64135000D03*
X126365000Y-61595000D03*
D13*
X128905000Y-66675000D03*
D15*
X123825000Y-66675000D03*
D14*
X145415000Y-99695000D03*
D13*
X147955000Y-104775000D03*
X137795000Y-104775000D03*
D15*
X142875000Y-104775000D03*
D14*
X139065000Y-102235000D03*
X158115000Y-111760000D03*
D15*
X170180000Y-126238000D03*
X161925000Y-114300000D03*
X170180000Y-102362000D03*
D13*
X156845000Y-114300000D03*
D16*
X154940000Y-102362000D03*
D13*
X167005000Y-114300000D03*
D14*
X164465000Y-109220000D03*
D16*
X154940000Y-126238000D03*
D15*
X123825000Y-104775000D03*
D13*
X128905000Y-104775000D03*
D14*
X126365000Y-99695000D03*
D13*
X118745000Y-104775000D03*
D14*
X120015000Y-102235000D03*
D13*
X99695000Y-85725000D03*
D14*
X107315000Y-80645000D03*
D15*
X104775000Y-85725000D03*
D14*
X100965000Y-83185000D03*
D13*
X109855000Y-85725000D03*
D14*
X139065000Y-83185000D03*
X145415000Y-80645000D03*
D13*
X137795000Y-85725000D03*
D15*
X142875000Y-85725000D03*
D13*
X147955000Y-85725000D03*
X99695000Y-47625000D03*
D14*
X100965000Y-45085000D03*
D15*
X104775000Y-47625000D03*
D14*
X107315000Y-42545000D03*
D13*
X109855000Y-47625000D03*
D14*
X164465000Y-71120000D03*
D16*
X154940000Y-64262000D03*
D13*
X156845000Y-76200000D03*
D14*
X158115000Y-73660000D03*
D15*
X170180000Y-64262000D03*
D13*
X167005000Y-76200000D03*
D15*
X170180000Y-88138000D03*
X161925000Y-76200000D03*
D16*
X154940000Y-88138000D03*
D14*
X126365000Y-80645000D03*
D13*
X118745000Y-85725000D03*
D14*
X120015000Y-83185000D03*
D13*
X128905000Y-85725000D03*
D15*
X123825000Y-85725000D03*
D14*
X145415000Y-61595000D03*
D13*
X147955000Y-66675000D03*
X137795000Y-66675000D03*
D15*
X142875000Y-66675000D03*
D14*
X139065000Y-64135000D03*
D15*
X102362000Y-132080000D03*
X114300000Y-123825000D03*
D16*
X102362000Y-116840000D03*
X126238000Y-116840000D03*
D13*
X119380000Y-123825000D03*
D15*
X126238000Y-132080000D03*
D14*
X116840000Y-118745000D03*
D13*
X109220000Y-123825000D03*
D14*
X110490000Y-121285000D03*
D13*
X99695000Y-104775000D03*
X109855000Y-104775000D03*
D15*
X104775000Y-104775000D03*
D14*
X100965000Y-102235000D03*
X107315000Y-99695000D03*
X139065000Y-45085000D03*
D15*
X142875000Y-47625000D03*
D13*
X137795000Y-47625000D03*
X147955000Y-47625000D03*
D14*
X145415000Y-42545000D03*
M02*
