G04 #@! TF.GenerationSoftware,KiCad,Pcbnew,(6.0.1)*
G04 #@! TF.CreationDate,2022-05-09T18:46:19+09:00*
G04 #@! TF.ProjectId,Skeleton68,536b656c-6574-46f6-9e36-382e6b696361,rev?*
G04 #@! TF.SameCoordinates,Original*
G04 #@! TF.FileFunction,Soldermask,Bot*
G04 #@! TF.FilePolarity,Negative*
%FSLAX46Y46*%
G04 Gerber Fmt 4.6, Leading zero omitted, Abs format (unit mm)*
G04 Created by KiCad (PCBNEW (6.0.1)) date 2022-05-09 18:46:19*
%MOMM*%
%LPD*%
G01*
G04 APERTURE LIST*
G04 Aperture macros list*
%AMRoundRect*
0 Rectangle with rounded corners*
0 $1 Rounding radius*
0 $2 $3 $4 $5 $6 $7 $8 $9 X,Y pos of 4 corners*
0 Add a 4 corners polygon primitive as box body*
4,1,4,$2,$3,$4,$5,$6,$7,$8,$9,$2,$3,0*
0 Add four circle primitives for the rounded corners*
1,1,$1+$1,$2,$3*
1,1,$1+$1,$4,$5*
1,1,$1+$1,$6,$7*
1,1,$1+$1,$8,$9*
0 Add four rect primitives between the rounded corners*
20,1,$1+$1,$2,$3,$4,$5,0*
20,1,$1+$1,$4,$5,$6,$7,0*
20,1,$1+$1,$6,$7,$8,$9,0*
20,1,$1+$1,$8,$9,$2,$3,0*%
%AMRotRect*
0 Rectangle, with rotation*
0 The origin of the aperture is its center*
0 $1 length*
0 $2 width*
0 $3 Rotation angle, in degrees counterclockwise*
0 Add horizontal line*
21,1,$1,$2,0,0,$3*%
G04 Aperture macros list end*
%ADD10C,3.000000*%
%ADD11C,3.987800*%
%ADD12C,1.750000*%
%ADD13R,2.550000X2.500000*%
%ADD14RotRect,2.550000X2.500000X192.000000*%
%ADD15C,3.048000*%
%ADD16RotRect,2.550000X2.500000X168.000000*%
%ADD17RotRect,0.900000X1.200000X102.000000*%
%ADD18R,1.700000X0.820000*%
%ADD19R,1.200000X0.900000*%
%ADD20RotRect,1.700000X0.820000X168.000000*%
%ADD21RoundRect,0.062500X-0.475000X-0.062500X0.475000X-0.062500X0.475000X0.062500X-0.475000X0.062500X0*%
%ADD22RoundRect,0.062500X-0.062500X-0.475000X0.062500X-0.475000X0.062500X0.475000X-0.062500X0.475000X0*%
%ADD23R,5.200000X5.200000*%
%ADD24RotRect,0.900000X1.200000X78.000000*%
%ADD25RoundRect,0.250000X-0.475000X0.250000X-0.475000X-0.250000X0.475000X-0.250000X0.475000X0.250000X0*%
%ADD26RoundRect,0.250000X0.450000X-0.262500X0.450000X0.262500X-0.450000X0.262500X-0.450000X-0.262500X0*%
%ADD27RoundRect,0.250000X-0.450000X0.262500X-0.450000X-0.262500X0.450000X-0.262500X0.450000X0.262500X0*%
%ADD28RotRect,1.700000X0.820000X192.000000*%
%ADD29RotRect,1.700000X0.820000X12.000000*%
%ADD30RotRect,1.700000X0.820000X348.000000*%
%ADD31R,1.400000X1.200000*%
%ADD32RoundRect,0.250000X0.375000X0.625000X-0.375000X0.625000X-0.375000X-0.625000X0.375000X-0.625000X0*%
%ADD33R,1.400000X1.000000*%
%ADD34RoundRect,0.250000X0.262500X0.450000X-0.262500X0.450000X-0.262500X-0.450000X0.262500X-0.450000X0*%
%ADD35R,1.800000X1.100000*%
%ADD36C,0.600000*%
%ADD37R,0.600000X1.160000*%
%ADD38R,0.300000X1.160000*%
%ADD39O,0.900000X1.700000*%
%ADD40O,0.900000X2.000000*%
%ADD41RoundRect,0.250000X0.475000X-0.250000X0.475000X0.250000X-0.475000X0.250000X-0.475000X-0.250000X0*%
G04 APERTURE END LIST*
D10*
X341058500Y-90170000D03*
X334708500Y-92710000D03*
D11*
X338518500Y-95250000D03*
D12*
X333438500Y-95250000D03*
X343598500Y-95250000D03*
D13*
X331433500Y-92710000D03*
X344360500Y-90170000D03*
D10*
X322008500Y-90170000D03*
X315658500Y-92710000D03*
D11*
X319468500Y-95250000D03*
D12*
X314388500Y-95250000D03*
X324548500Y-95250000D03*
D13*
X312383500Y-92710000D03*
X325310500Y-90170000D03*
D10*
X302958500Y-90170000D03*
X296608500Y-92710000D03*
D11*
X300418500Y-95250000D03*
D12*
X295338500Y-95250000D03*
X305498500Y-95250000D03*
D13*
X293333500Y-92710000D03*
X306260500Y-90170000D03*
D11*
X276606500Y-95250000D03*
D10*
X272796500Y-92710000D03*
D12*
X281686500Y-95250000D03*
D10*
X279146500Y-90170000D03*
D12*
X271526500Y-95250000D03*
D13*
X269521500Y-92710000D03*
X282448500Y-90170000D03*
D11*
X231356200Y-98156600D03*
D10*
X227101362Y-96464249D03*
D12*
X236325190Y-97100409D03*
D10*
X232784504Y-92659514D03*
D12*
X226387210Y-99212791D03*
D14*
X223897929Y-97145159D03*
X236014347Y-91972990D03*
D12*
X196530190Y-104585309D03*
D10*
X187306362Y-103949149D03*
D15*
X204690589Y-109991811D03*
D11*
X201522015Y-95084842D03*
D10*
X192989504Y-100144414D03*
D11*
X178167763Y-100048941D03*
D15*
X181336337Y-114955911D03*
D12*
X186592210Y-106697691D03*
D11*
X191561200Y-105641500D03*
D14*
X184102929Y-104630059D03*
X196219347Y-99457890D03*
D10*
X144006486Y-105577306D03*
X137267153Y-106741562D03*
D11*
X140465800Y-110018200D03*
D12*
X135496810Y-108962009D03*
X145434790Y-111074391D03*
D16*
X134063720Y-106060651D03*
X147236330Y-106263830D03*
D15*
X99385811Y-108427411D03*
D11*
X112515200Y-104077100D03*
D10*
X109316553Y-100800462D03*
D11*
X125908637Y-98484541D03*
D12*
X117484190Y-105133291D03*
X107546210Y-103020909D03*
D11*
X102554385Y-93520442D03*
D15*
X122740063Y-113391511D03*
D10*
X116055886Y-99636206D03*
D16*
X106113120Y-100119551D03*
X119285730Y-100322730D03*
D11*
X79708700Y-98077600D03*
D10*
X76510053Y-94800962D03*
D12*
X84677690Y-99133791D03*
D10*
X83249386Y-93636706D03*
D12*
X74739710Y-97021409D03*
D16*
X73306620Y-94120051D03*
X86479230Y-94323230D03*
D11*
X25718000Y-95250000D03*
D10*
X21908000Y-92710000D03*
D12*
X30798000Y-95250000D03*
D10*
X28258000Y-90170000D03*
D12*
X20638000Y-95250000D03*
D13*
X18633000Y-92710000D03*
X31560000Y-90170000D03*
D10*
X322008500Y-71120000D03*
X315658500Y-73660000D03*
D11*
X319468500Y-76200000D03*
D12*
X314388500Y-76200000D03*
X324548500Y-76200000D03*
D13*
X312383500Y-73660000D03*
X325310500Y-71120000D03*
D10*
X269621000Y-71120000D03*
X263271000Y-73660000D03*
D11*
X267081000Y-76200000D03*
D12*
X262001000Y-76200000D03*
X272161000Y-76200000D03*
D13*
X259996000Y-73660000D03*
X272923000Y-71120000D03*
D10*
X250571000Y-71120000D03*
X244221000Y-73660000D03*
D11*
X248031000Y-76200000D03*
D12*
X242951000Y-76200000D03*
X253111000Y-76200000D03*
D13*
X240946000Y-73660000D03*
X253873000Y-71120000D03*
D10*
X228625204Y-73094214D03*
X222942062Y-76898949D03*
D11*
X227196900Y-78591300D03*
D12*
X222227910Y-79647491D03*
X232165890Y-77535109D03*
D14*
X219738629Y-77579859D03*
X231855047Y-72407690D03*
D10*
X209991504Y-77055014D03*
X204308362Y-80859749D03*
D11*
X208563200Y-82552100D03*
D12*
X203594210Y-83608291D03*
X213532190Y-81495909D03*
D14*
X201104929Y-81540659D03*
X213221347Y-76368490D03*
D10*
X191357804Y-81015714D03*
X185674662Y-84820449D03*
D11*
X189929500Y-86512800D03*
D12*
X184960510Y-87568991D03*
X194898490Y-85456609D03*
D14*
X182471229Y-85501359D03*
X194587647Y-80329190D03*
D10*
X172724104Y-84976414D03*
X167040962Y-88781149D03*
D11*
X171295800Y-90473500D03*
D12*
X166326810Y-91529691D03*
X176264790Y-89417309D03*
D14*
X163837529Y-89462059D03*
X175953947Y-84289890D03*
D10*
X145172186Y-86349406D03*
X138432853Y-87513662D03*
D11*
X141631500Y-90790300D03*
D12*
X136662510Y-89734109D03*
X146600490Y-91846491D03*
D16*
X135229420Y-86832751D03*
X148402030Y-87035930D03*
D10*
X126538486Y-82388706D03*
X119799153Y-83552962D03*
D11*
X122997800Y-86829600D03*
D12*
X118028810Y-85773409D03*
X127966790Y-87885791D03*
D16*
X116595720Y-82872051D03*
X129768330Y-83075230D03*
D10*
X107904686Y-78428006D03*
X101165353Y-79592262D03*
D11*
X104364000Y-82868900D03*
D12*
X99395010Y-81812709D03*
X109332990Y-83925091D03*
D16*
X97961920Y-78911351D03*
X111134530Y-79114530D03*
D10*
X89270986Y-74467306D03*
X82531653Y-75631562D03*
D11*
X85730300Y-78908200D03*
D12*
X80761310Y-77852009D03*
X90699290Y-79964391D03*
D16*
X79328220Y-74950651D03*
X92500830Y-75153830D03*
D10*
X66357500Y-71120000D03*
X60007500Y-73660000D03*
D11*
X63817500Y-76200000D03*
D12*
X58737500Y-76200000D03*
X68897500Y-76200000D03*
D13*
X56732500Y-73660000D03*
X69659500Y-71120000D03*
D10*
X341058500Y-50165000D03*
X334708500Y-52705000D03*
D11*
X338518500Y-55245000D03*
D12*
X333438500Y-55245000D03*
X343598500Y-55245000D03*
D13*
X331433500Y-52705000D03*
X344360500Y-50165000D03*
D10*
X274193000Y-52070000D03*
X267843000Y-54610000D03*
D11*
X271653000Y-57150000D03*
D12*
X266573000Y-57150000D03*
X276733000Y-57150000D03*
D13*
X264568000Y-54610000D03*
X277495000Y-52070000D03*
D10*
X255143000Y-52070000D03*
X248793000Y-54610000D03*
D11*
X252603000Y-57150000D03*
D12*
X247523000Y-57150000D03*
X257683000Y-57150000D03*
D13*
X245518000Y-54610000D03*
X258445000Y-52070000D03*
D10*
X233049704Y-52678214D03*
X227366562Y-56482949D03*
D11*
X231621400Y-58175300D03*
D12*
X226652410Y-59231491D03*
X236590390Y-57119109D03*
D14*
X224163129Y-57163859D03*
X236279547Y-51991690D03*
D10*
X214416004Y-56638914D03*
X208732862Y-60443649D03*
D11*
X212987700Y-62136000D03*
D12*
X208018710Y-63192191D03*
X217956690Y-61079809D03*
D14*
X205529429Y-61124559D03*
X217645847Y-55952390D03*
D10*
X195782204Y-60599614D03*
X190099062Y-64404349D03*
D11*
X194353900Y-66096700D03*
D12*
X189384910Y-67152891D03*
X199322890Y-65040509D03*
D14*
X186895629Y-65085259D03*
X199012047Y-59913090D03*
D10*
X177148504Y-64560414D03*
X171465362Y-68365149D03*
D11*
X175720200Y-70057500D03*
D12*
X170751210Y-71113691D03*
X180689190Y-69001309D03*
D14*
X168261929Y-69046059D03*
X180378347Y-63873890D03*
D10*
X139815986Y-65735406D03*
X133076653Y-66899662D03*
D11*
X136275300Y-70176300D03*
D12*
X131306310Y-69120109D03*
X141244290Y-71232491D03*
D16*
X129873220Y-66218751D03*
X143045830Y-66421930D03*
D10*
X121160686Y-61759106D03*
X114421353Y-62923362D03*
D11*
X117620000Y-66200000D03*
D12*
X112651010Y-65143809D03*
X122588990Y-67256191D03*
D16*
X111217920Y-62242451D03*
X124390530Y-62445630D03*
D10*
X102548586Y-57813906D03*
X95809253Y-58978162D03*
D11*
X99007900Y-62254800D03*
D12*
X94038910Y-61198609D03*
X103976890Y-63310991D03*
D16*
X92605820Y-58297251D03*
X105778430Y-58500430D03*
D10*
X83914886Y-53853206D03*
X77175553Y-55017462D03*
D11*
X80374200Y-58294100D03*
D12*
X75405210Y-57237909D03*
X85343190Y-59350291D03*
D16*
X73972120Y-54336551D03*
X87144730Y-54539730D03*
D10*
X61976000Y-52070000D03*
X55626000Y-54610000D03*
D11*
X59436000Y-57150000D03*
D12*
X54356000Y-57150000D03*
X64516000Y-57150000D03*
D13*
X52351000Y-54610000D03*
X65278000Y-52070000D03*
D10*
X337248500Y-31115000D03*
X330898500Y-33655000D03*
D11*
X334708500Y-36195000D03*
D12*
X329628500Y-36195000D03*
X339788500Y-36195000D03*
D13*
X327623500Y-33655000D03*
X340550500Y-31115000D03*
D11*
X309182000Y-38100000D03*
D10*
X305372000Y-35560000D03*
D12*
X314262000Y-38100000D03*
D10*
X311722000Y-33020000D03*
D12*
X304102000Y-38100000D03*
D13*
X302097000Y-35560000D03*
X315024000Y-33020000D03*
D10*
X287909000Y-33020000D03*
X281559000Y-35560000D03*
D11*
X285369000Y-38100000D03*
D12*
X280289000Y-38100000D03*
X290449000Y-38100000D03*
D13*
X278284000Y-35560000D03*
X291211000Y-33020000D03*
D10*
X268859000Y-33020000D03*
X262509000Y-35560000D03*
D11*
X266319000Y-38100000D03*
D12*
X261239000Y-38100000D03*
X271399000Y-38100000D03*
D13*
X259234000Y-35560000D03*
X272161000Y-33020000D03*
D10*
X249809000Y-32258000D03*
X243459000Y-34798000D03*
D11*
X247269000Y-37338000D03*
D12*
X242189000Y-37338000D03*
X252349000Y-37338000D03*
D13*
X240184000Y-34798000D03*
X253111000Y-32258000D03*
D10*
X226293904Y-34638614D03*
X220610762Y-38443349D03*
D11*
X224865600Y-40135700D03*
D12*
X219896610Y-41191891D03*
X229834590Y-39079509D03*
D14*
X217407329Y-39124259D03*
X229523747Y-33952090D03*
D10*
X207660204Y-38599314D03*
X201977062Y-42404049D03*
D11*
X206231900Y-44096400D03*
D12*
X201262910Y-45152591D03*
X211200890Y-43040209D03*
D14*
X198773629Y-43084959D03*
X210890047Y-37912790D03*
D10*
X189026504Y-42560014D03*
X183343362Y-46364749D03*
D11*
X187598200Y-48057100D03*
D12*
X182629210Y-49113291D03*
X192567190Y-47000909D03*
D14*
X180139929Y-47045659D03*
X192256347Y-41873490D03*
D10*
X170392804Y-46520814D03*
X164709662Y-50325549D03*
D11*
X168964500Y-52017900D03*
D12*
X163995510Y-53074091D03*
X173933490Y-50961709D03*
D14*
X161506229Y-51006459D03*
X173622647Y-45834290D03*
D10*
X138186586Y-45913406D03*
X131447253Y-47077662D03*
D11*
X134645900Y-50354300D03*
D12*
X129676910Y-49298109D03*
X139614890Y-51410491D03*
D16*
X128243820Y-46396751D03*
X141416430Y-46599930D03*
D10*
X119552886Y-41952706D03*
X112813553Y-43116962D03*
D11*
X116012200Y-46393600D03*
D12*
X111043210Y-45337409D03*
X120981190Y-47449791D03*
D16*
X109610120Y-42436051D03*
X122782730Y-42639230D03*
D10*
X100919186Y-37992006D03*
X94179853Y-39156262D03*
D11*
X97378500Y-42432900D03*
D12*
X92409510Y-41376709D03*
X102347490Y-43489091D03*
D16*
X90976420Y-38475351D03*
X104149030Y-38678530D03*
D10*
X82285486Y-34031306D03*
X75546153Y-35195562D03*
D11*
X78744800Y-38472200D03*
D12*
X73775810Y-37416009D03*
X83713790Y-39528391D03*
D16*
X72342720Y-34514651D03*
X85515330Y-34717830D03*
D10*
X60356800Y-33020000D03*
X54006800Y-35560000D03*
D11*
X57816800Y-38100000D03*
D12*
X52736800Y-38100000D03*
X62896800Y-38100000D03*
D13*
X50731800Y-35560000D03*
X63658800Y-33020000D03*
D11*
X34004800Y-38100000D03*
D10*
X30194800Y-35560000D03*
D12*
X39084800Y-38100000D03*
D10*
X36544800Y-33020000D03*
D12*
X28924800Y-38100000D03*
D13*
X26919800Y-35560000D03*
X39846800Y-33020000D03*
X336740500Y-12065000D03*
X323813500Y-14605000D03*
D12*
X335978500Y-17145000D03*
X325818500Y-17145000D03*
D11*
X330898500Y-17145000D03*
D10*
X327088500Y-14605000D03*
X333438500Y-12065000D03*
X272669000Y-13970000D03*
X266319000Y-16510000D03*
D11*
X270129000Y-19050000D03*
D12*
X265049000Y-19050000D03*
X275209000Y-19050000D03*
D13*
X263044000Y-16510000D03*
X275971000Y-13970000D03*
D10*
X253619000Y-13208000D03*
X247269000Y-15748000D03*
D11*
X251079000Y-18288000D03*
D12*
X245999000Y-18288000D03*
X256159000Y-18288000D03*
D13*
X243994000Y-15748000D03*
X256921000Y-13208000D03*
D10*
X231650004Y-14024514D03*
X225966862Y-17829249D03*
D11*
X230221700Y-19521600D03*
D12*
X225252710Y-20577791D03*
X235190690Y-18465409D03*
D14*
X222763429Y-18510159D03*
X234879847Y-13337990D03*
D10*
X213016304Y-17985214D03*
X207333162Y-21789949D03*
D11*
X211588000Y-23482300D03*
D12*
X206619010Y-24538491D03*
X216556990Y-22426109D03*
D14*
X204129729Y-22470859D03*
X216246147Y-17298690D03*
D10*
X194382604Y-21946014D03*
X188699462Y-25750749D03*
D11*
X192954300Y-27443100D03*
D12*
X187985310Y-28499291D03*
X197923290Y-26386909D03*
D14*
X185496029Y-26431659D03*
X197612447Y-21259490D03*
D10*
X175748904Y-25906714D03*
X170065762Y-29711449D03*
D11*
X174320600Y-31403800D03*
D12*
X169351610Y-32459991D03*
X179289590Y-30347609D03*
D14*
X166862329Y-30392359D03*
X178978747Y-25220190D03*
D10*
X151464186Y-29260106D03*
X144724853Y-30424362D03*
D11*
X147923500Y-33701000D03*
D12*
X142954510Y-32644809D03*
X152892490Y-34757191D03*
D16*
X141521420Y-29743451D03*
X154694030Y-29946630D03*
D10*
X132830486Y-25299406D03*
X126091153Y-26463662D03*
D11*
X129289800Y-29740300D03*
D12*
X124320810Y-28684109D03*
X134258790Y-30796491D03*
D16*
X122887720Y-25782751D03*
X136060330Y-25985930D03*
D10*
X114196786Y-21338706D03*
X107457453Y-22502962D03*
D11*
X110656100Y-25779600D03*
D12*
X105687110Y-24723409D03*
X115625090Y-26835791D03*
D16*
X104254020Y-21822051D03*
X117426630Y-22025230D03*
X98792930Y-18064430D03*
X85620320Y-17861251D03*
D12*
X96991390Y-22874991D03*
X87053410Y-20762609D03*
D11*
X92022400Y-21818800D03*
D10*
X88823753Y-18542162D03*
X95563086Y-17377906D03*
X74168000Y-12446000D03*
X67818000Y-14986000D03*
D11*
X71628000Y-17526000D03*
D12*
X66548000Y-17526000D03*
X76708000Y-17526000D03*
D13*
X64543000Y-14986000D03*
X77470000Y-12446000D03*
D10*
X55118000Y-13970000D03*
X48768000Y-16510000D03*
D11*
X52578000Y-19050000D03*
D12*
X47498000Y-19050000D03*
X57658000Y-19050000D03*
D13*
X45493000Y-16510000D03*
X58420000Y-13970000D03*
D10*
X36068000Y-13970000D03*
X29718000Y-16510000D03*
D11*
X33528000Y-19050000D03*
D12*
X28448000Y-19050000D03*
X38608000Y-19050000D03*
D13*
X26443000Y-16510000D03*
X39370000Y-13970000D03*
D10*
X289465000Y-73660000D03*
D11*
X293275000Y-76200000D03*
D12*
X298355000Y-76200000D03*
D10*
X295815000Y-71120000D03*
D12*
X288195000Y-76200000D03*
D13*
X286190000Y-73660000D03*
X299117000Y-71120000D03*
D12*
X38015600Y-76200000D03*
D11*
X20997600Y-84455000D03*
D15*
X20997600Y-69215000D03*
X44873600Y-69215000D03*
D10*
X35475600Y-71120000D03*
D12*
X27855600Y-76200000D03*
D11*
X44873600Y-84455000D03*
D10*
X29125600Y-73660000D03*
D11*
X32935600Y-76200000D03*
D13*
X25850600Y-73660000D03*
X38777600Y-71120000D03*
D12*
X307763600Y-57150000D03*
D11*
X290745600Y-65405000D03*
D15*
X290745600Y-50165000D03*
X314621600Y-50165000D03*
D10*
X305223600Y-52070000D03*
D12*
X297603600Y-57150000D03*
D11*
X314621600Y-65405000D03*
D10*
X298873600Y-54610000D03*
D11*
X302683600Y-57150000D03*
D13*
X295598600Y-54610000D03*
X308525600Y-52070000D03*
D10*
X29432500Y-54610000D03*
D11*
X33242500Y-57150000D03*
D12*
X38322500Y-57150000D03*
D10*
X35782500Y-52070000D03*
D12*
X28162500Y-57150000D03*
D13*
X26157500Y-54610000D03*
X39084500Y-52070000D03*
D15*
X310642000Y-12065000D03*
D10*
X294894000Y-16510000D03*
D11*
X310642000Y-27305000D03*
D12*
X303784000Y-19050000D03*
D11*
X286766000Y-27305000D03*
D10*
X301244000Y-13970000D03*
D15*
X286766000Y-12065000D03*
D12*
X293624000Y-19050000D03*
D11*
X298704000Y-19050000D03*
D13*
X291619000Y-16510000D03*
X304546000Y-13970000D03*
D17*
X184377554Y-69904144D03*
X183691446Y-66676256D03*
D18*
X264381000Y-79950000D03*
X264381000Y-81450000D03*
X269781000Y-81450000D03*
X269781000Y-79950000D03*
D19*
X42028000Y-20700000D03*
X42028000Y-17400000D03*
D18*
X62136000Y-62400000D03*
X62136000Y-60900000D03*
X56736000Y-60900000D03*
X56736000Y-62400000D03*
D19*
X345080000Y-100270000D03*
X345080000Y-96970000D03*
D18*
X282669000Y-41850000D03*
X282669000Y-43350000D03*
X288069000Y-43350000D03*
X288069000Y-41850000D03*
D17*
X203011254Y-65943444D03*
X202325146Y-62715556D03*
X233522854Y-39982344D03*
X232836746Y-36754456D03*
D20*
X119577135Y-89936328D03*
X119265268Y-91403549D03*
X124547265Y-92526272D03*
X124859132Y-91059051D03*
D21*
X153162500Y-73500000D03*
X153162500Y-73000000D03*
X153162500Y-72500000D03*
X153162500Y-72000000D03*
X153162500Y-71500000D03*
X153162500Y-71000000D03*
X153162500Y-70500000D03*
X153162500Y-70000000D03*
X153162500Y-69500000D03*
X153162500Y-69000000D03*
X153162500Y-68500000D03*
D22*
X154000000Y-67662500D03*
X154500000Y-67662500D03*
X155000000Y-67662500D03*
X155500000Y-67662500D03*
X156000000Y-67662500D03*
X156500000Y-67662500D03*
X157000000Y-67662500D03*
X157500000Y-67662500D03*
X158000000Y-67662500D03*
X158500000Y-67662500D03*
X159000000Y-67662500D03*
D21*
X159837500Y-68500000D03*
X159837500Y-69000000D03*
X159837500Y-69500000D03*
X159837500Y-70000000D03*
X159837500Y-70500000D03*
X159837500Y-71000000D03*
X159837500Y-71500000D03*
X159837500Y-72000000D03*
X159837500Y-72500000D03*
X159837500Y-73000000D03*
X159837500Y-73500000D03*
D22*
X159000000Y-74337500D03*
X158500000Y-74337500D03*
X158000000Y-74337500D03*
X157500000Y-74337500D03*
X157000000Y-74337500D03*
X156500000Y-74337500D03*
X156000000Y-74337500D03*
X155500000Y-74337500D03*
X155000000Y-74337500D03*
X154500000Y-74337500D03*
X154000000Y-74337500D03*
D23*
X156500000Y-71000000D03*
D24*
X99993546Y-25200044D03*
X100679654Y-21972156D03*
D18*
X290575000Y-79950000D03*
X290575000Y-81450000D03*
X295975000Y-81450000D03*
X295975000Y-79950000D03*
D17*
X201611654Y-27289744D03*
X200925546Y-24061856D03*
D20*
X112591535Y-49500328D03*
X112279668Y-50967549D03*
X117561665Y-52090272D03*
X117873532Y-50623051D03*
D24*
X137260946Y-33121444D03*
X137947054Y-29893556D03*
D20*
X100943335Y-85975628D03*
X100631468Y-87442849D03*
X105913465Y-88565572D03*
X106225332Y-87098351D03*
D19*
X307204000Y-20700000D03*
X307204000Y-17400000D03*
D25*
X177500000Y-14050000D03*
X177500000Y-15950000D03*
D26*
X158500000Y-89412500D03*
X158500000Y-87587500D03*
D19*
X67936000Y-58800000D03*
X67936000Y-55500000D03*
D27*
X155500000Y-15587500D03*
X155500000Y-17412500D03*
D24*
X87679846Y-101458844D03*
X88365954Y-98230956D03*
X88345346Y-61675344D03*
X89031454Y-58447456D03*
D28*
X167103168Y-56247251D03*
X167415035Y-57714472D03*
X172697032Y-56591749D03*
X172385165Y-55124528D03*
X188068168Y-90742151D03*
X188380035Y-92209372D03*
X193662032Y-91086649D03*
X193350165Y-89619428D03*
D18*
X341218500Y-60495000D03*
X341218500Y-58995000D03*
X335818500Y-58995000D03*
X335818500Y-60495000D03*
X30235600Y-79950000D03*
X30235600Y-81450000D03*
X35635600Y-81450000D03*
X35635600Y-79950000D03*
X35942500Y-62400000D03*
X35942500Y-60900000D03*
X30542500Y-60900000D03*
X30542500Y-62400000D03*
D29*
X215320532Y-28056249D03*
X215008665Y-26589028D03*
X209726668Y-27711751D03*
X210038535Y-29178972D03*
D19*
X345870000Y-58150000D03*
X345870000Y-54850000D03*
D18*
X305383600Y-62400000D03*
X305383600Y-60900000D03*
X299983600Y-60900000D03*
X299983600Y-62400000D03*
X61117500Y-79950000D03*
X61117500Y-81450000D03*
X66517500Y-81450000D03*
X66517500Y-79950000D03*
D17*
X235854254Y-78438044D03*
X235168146Y-75210156D03*
X177621754Y-51864544D03*
X176935646Y-48636656D03*
D18*
X28418000Y-100500000D03*
X28418000Y-99000000D03*
X23018000Y-99000000D03*
X23018000Y-100500000D03*
D17*
X198586754Y-86359444D03*
X197900646Y-83131556D03*
D18*
X333598500Y-22395000D03*
X333598500Y-20895000D03*
X328198500Y-20895000D03*
X328198500Y-22395000D03*
D19*
X275581000Y-77850000D03*
X275581000Y-74550000D03*
X280153000Y-58800000D03*
X280153000Y-55500000D03*
X327968500Y-96900000D03*
X327968500Y-93600000D03*
D30*
X119191065Y-71912172D03*
X119502932Y-70444951D03*
X114220935Y-69322228D03*
X113909068Y-70789449D03*
D29*
X235353932Y-62749249D03*
X235042065Y-61282028D03*
X229760068Y-62404751D03*
X230071935Y-63871972D03*
X216720232Y-66709949D03*
X216408365Y-65242728D03*
X211126368Y-66365451D03*
X211438235Y-67832672D03*
D24*
X106979146Y-65636044D03*
X107665254Y-62408156D03*
X155894746Y-37082144D03*
X156580854Y-33854256D03*
D19*
X41435600Y-77850000D03*
X41435600Y-74550000D03*
D30*
X81258165Y-103774272D03*
X81570032Y-102307051D03*
X76288035Y-101184328D03*
X75976168Y-102651549D03*
D19*
X80128000Y-19176000D03*
X80128000Y-15876000D03*
D31*
X183100000Y-15850000D03*
X180900000Y-15850000D03*
X180900000Y-14150000D03*
X183100000Y-14150000D03*
D24*
X93701546Y-82289344D03*
X94387654Y-79061456D03*
D18*
X341218500Y-100500000D03*
X341218500Y-99000000D03*
X335818500Y-99000000D03*
X335818500Y-100500000D03*
D32*
X149900000Y-15000000D03*
X147100000Y-15000000D03*
D28*
X169434468Y-94702951D03*
X169746335Y-96170172D03*
X175028332Y-95047449D03*
X174716465Y-93580228D03*
D18*
X279306500Y-100500000D03*
X279306500Y-99000000D03*
X273906500Y-99000000D03*
X273906500Y-100500000D03*
D31*
X168600000Y-13230000D03*
D33*
X168600000Y-14950000D03*
X166400000Y-14950000D03*
X166400000Y-13050000D03*
D18*
X272829000Y-24300000D03*
X272829000Y-22800000D03*
X267429000Y-22800000D03*
X267429000Y-24300000D03*
D28*
X206701868Y-86781451D03*
X207013735Y-88248672D03*
X212295732Y-87125949D03*
X211983865Y-85658728D03*
D29*
X196686832Y-32016949D03*
X196374965Y-30549728D03*
X191092968Y-31672451D03*
X191404835Y-33139672D03*
D18*
X301404000Y-24300000D03*
X301404000Y-22800000D03*
X296004000Y-22800000D03*
X296004000Y-24300000D03*
D28*
X225335568Y-82820751D03*
X225647435Y-84287972D03*
X230929432Y-83165249D03*
X230617565Y-81698028D03*
D34*
X149912500Y-81500000D03*
X148087500Y-81500000D03*
D19*
X274819000Y-39750000D03*
X274819000Y-36450000D03*
D30*
X112205565Y-31476172D03*
X112517432Y-30008951D03*
X107235435Y-28886228D03*
X106923568Y-30353449D03*
D25*
X134250000Y-14050000D03*
X134250000Y-15950000D03*
D19*
X337910000Y-22820000D03*
X337910000Y-19520000D03*
D35*
X153900000Y-93150000D03*
X160100000Y-93150000D03*
X153900000Y-96850000D03*
X160100000Y-96850000D03*
D25*
X148200000Y-76750000D03*
X148200000Y-78650000D03*
D19*
X326480000Y-80820000D03*
X326480000Y-77520000D03*
D18*
X306482000Y-41850000D03*
X306482000Y-43350000D03*
X311882000Y-43350000D03*
X311882000Y-41850000D03*
D29*
X195293732Y-110215449D03*
X194981865Y-108748228D03*
X189699868Y-109870951D03*
X190011735Y-111338172D03*
D18*
X263619000Y-41850000D03*
X263619000Y-43350000D03*
X269019000Y-43350000D03*
X269019000Y-41850000D03*
D24*
X105349746Y-45814144D03*
X106035854Y-42586256D03*
D17*
X196255454Y-47903844D03*
X195569346Y-44675956D03*
D30*
X137824765Y-75872872D03*
X138136632Y-74405651D03*
X132854635Y-73282928D03*
X132542768Y-74750149D03*
D19*
X341790000Y-37010000D03*
X341790000Y-33710000D03*
X311183600Y-58800000D03*
X311183600Y-55500000D03*
D30*
X100557365Y-67951472D03*
X100869232Y-66484251D03*
X95587235Y-65361528D03*
X95275368Y-66828749D03*
D18*
X322168500Y-100500000D03*
X322168500Y-99000000D03*
X316768500Y-99000000D03*
X316768500Y-100500000D03*
D27*
X159000000Y-15587500D03*
X159000000Y-17412500D03*
D17*
X238879054Y-19368344D03*
X238192946Y-16140456D03*
X182977854Y-31250444D03*
X182291746Y-28022556D03*
D19*
X261103000Y-58800000D03*
X261103000Y-55500000D03*
D27*
X169000000Y-17087500D03*
X169000000Y-18912500D03*
D24*
X149602646Y-94171544D03*
X150288754Y-90943656D03*
D18*
X244569000Y-41088000D03*
X244569000Y-42588000D03*
X249969000Y-42588000D03*
X249969000Y-41088000D03*
X55278000Y-24300000D03*
X55278000Y-22800000D03*
X49878000Y-22800000D03*
X49878000Y-24300000D03*
D24*
X118627246Y-29160744D03*
X119313354Y-25932856D03*
D19*
X61078000Y-20700000D03*
X61078000Y-17400000D03*
X308918500Y-96900000D03*
X308918500Y-93600000D03*
D29*
X233954232Y-24095549D03*
X233642365Y-22628328D03*
X228360368Y-23751051D03*
X228672235Y-25218272D03*
D18*
X274353000Y-62400000D03*
X274353000Y-60900000D03*
X268953000Y-60900000D03*
X268953000Y-62400000D03*
X74328000Y-22776000D03*
X74328000Y-21276000D03*
X68928000Y-21276000D03*
X68928000Y-22776000D03*
D28*
X204370568Y-48325851D03*
X204682435Y-49793072D03*
X209964432Y-48670349D03*
X209652565Y-47203128D03*
D29*
X235088732Y-102730549D03*
X234776865Y-101263328D03*
X229494868Y-102386051D03*
X229806735Y-103853272D03*
D20*
X138210835Y-93897028D03*
X137898968Y-95364249D03*
X143180965Y-96486972D03*
X143492832Y-95019751D03*
D28*
X185736868Y-52286551D03*
X186048735Y-53753772D03*
X191330732Y-52631049D03*
X191018865Y-51163828D03*
D17*
X200218554Y-105488244D03*
X199532446Y-102260356D03*
D36*
X160850000Y-5325000D03*
X155070000Y-5325000D03*
D37*
X154760000Y-6385000D03*
X155560000Y-6385000D03*
D38*
X156710000Y-6385000D03*
X157710000Y-6385000D03*
X158210000Y-6385000D03*
X159210000Y-6385000D03*
D37*
X160360000Y-6385000D03*
X161160000Y-6385000D03*
X161160000Y-6385000D03*
X160360000Y-6385000D03*
D38*
X159710000Y-6385000D03*
X158710000Y-6385000D03*
X157210000Y-6385000D03*
X156210000Y-6385000D03*
D37*
X155560000Y-6385000D03*
X154760000Y-6385000D03*
D39*
X153640000Y-1635000D03*
D40*
X153640000Y-5805000D03*
X162280000Y-5805000D03*
D39*
X162280000Y-1635000D03*
D18*
X332008500Y-39945000D03*
X332008500Y-41445000D03*
X337408500Y-41445000D03*
X337408500Y-39945000D03*
D19*
X255769000Y-38988000D03*
X255769000Y-35688000D03*
D24*
X112335246Y-86250144D03*
X113021354Y-83022256D03*
D19*
X293869000Y-39750000D03*
X293869000Y-36450000D03*
D18*
X253779000Y-23538000D03*
X253779000Y-22038000D03*
X248379000Y-22038000D03*
X248379000Y-23538000D03*
X245331000Y-79950000D03*
X245331000Y-81450000D03*
X250731000Y-81450000D03*
X250731000Y-79950000D03*
D19*
X42504800Y-39750000D03*
X42504800Y-36450000D03*
D24*
X147656946Y-112113944D03*
X148343054Y-108886056D03*
D19*
X256531000Y-77850000D03*
X256531000Y-74550000D03*
D24*
X86716046Y-41853344D03*
X87402154Y-38625456D03*
D19*
X41742500Y-58800000D03*
X41742500Y-55500000D03*
D18*
X31304800Y-41850000D03*
X31304800Y-43350000D03*
X36704800Y-43350000D03*
X36704800Y-41850000D03*
D29*
X179452732Y-74631349D03*
X179140865Y-73164128D03*
X173858868Y-74286851D03*
X174170735Y-75754072D03*
D17*
X240278654Y-58022044D03*
X239592546Y-54794156D03*
D41*
X186500000Y-15950000D03*
X186500000Y-14050000D03*
D19*
X301775000Y-77850000D03*
X301775000Y-74550000D03*
D18*
X36228000Y-24300000D03*
X36228000Y-22800000D03*
X30828000Y-22800000D03*
X30828000Y-24300000D03*
D17*
X220245354Y-23329044D03*
X219559246Y-20101156D03*
X240013454Y-98003344D03*
X239327346Y-94775456D03*
D25*
X144250000Y-14050000D03*
X144250000Y-15950000D03*
D24*
X130968946Y-90210844D03*
X131655054Y-86982956D03*
D30*
X81923665Y-63990772D03*
X82235532Y-62523551D03*
X76953535Y-61400828D03*
X76641668Y-62868049D03*
D28*
X223004268Y-44365151D03*
X223316135Y-45832372D03*
X228598132Y-44709649D03*
X228286265Y-43242428D03*
D18*
X316768500Y-79950000D03*
X316768500Y-81450000D03*
X322168500Y-81450000D03*
X322168500Y-79950000D03*
D19*
X34218000Y-96900000D03*
X34218000Y-93600000D03*
D18*
X303118500Y-100500000D03*
X303118500Y-99000000D03*
X297718500Y-99000000D03*
X297718500Y-100500000D03*
D30*
X114064665Y-109773672D03*
X114376532Y-108306451D03*
X109094535Y-107183728D03*
X108782668Y-108650949D03*
X142015265Y-115714772D03*
X142327132Y-114247551D03*
X137045135Y-113124828D03*
X136733268Y-114592049D03*
D29*
X178053132Y-35977649D03*
X177741265Y-34510428D03*
X172459268Y-35633151D03*
X172771135Y-37100372D03*
D19*
X285106500Y-96900000D03*
X285106500Y-93600000D03*
X317682000Y-39750000D03*
X317682000Y-36450000D03*
D20*
X131225235Y-53461028D03*
X130913368Y-54928249D03*
X136195365Y-56050972D03*
X136507232Y-54583751D03*
D19*
X278629000Y-20700000D03*
X278629000Y-17400000D03*
D25*
X141750000Y-14050000D03*
X141750000Y-15950000D03*
D19*
X259579000Y-19938000D03*
X259579000Y-16638000D03*
D27*
X166500000Y-17087500D03*
X166500000Y-18912500D03*
D18*
X255303000Y-62400000D03*
X255303000Y-60900000D03*
X249903000Y-60900000D03*
X249903000Y-62400000D03*
X55116800Y-41850000D03*
X55116800Y-43350000D03*
X60516800Y-43350000D03*
X60516800Y-41850000D03*
D24*
X142617146Y-53735544D03*
X143303254Y-50507656D03*
D29*
X198086432Y-70670649D03*
X197774565Y-69203428D03*
X192492568Y-70326151D03*
X192804435Y-71793372D03*
D17*
X217220554Y-82398744D03*
X216534446Y-79170856D03*
D20*
X75324135Y-41578928D03*
X75012268Y-43046149D03*
X80294265Y-44168872D03*
X80606132Y-42701651D03*
D24*
X123983446Y-49774844D03*
X124669554Y-46546956D03*
D30*
X93571865Y-27515472D03*
X93883732Y-26048251D03*
X88601735Y-24925528D03*
X88289868Y-26392749D03*
D24*
X125612846Y-69596744D03*
X126298954Y-66368856D03*
D25*
X136750000Y-14050000D03*
X136750000Y-15950000D03*
D30*
X149472965Y-39397672D03*
X149784832Y-37930451D03*
X144502835Y-36807728D03*
X144190968Y-38274949D03*
D19*
X72317500Y-77850000D03*
X72317500Y-74550000D03*
X66316800Y-39750000D03*
X66316800Y-36450000D03*
D25*
X139250000Y-14050000D03*
X139250000Y-15950000D03*
D24*
X120486446Y-107458244D03*
X121172554Y-104230356D03*
D17*
X221644954Y-61982744D03*
X220958846Y-58754856D03*
D30*
X130839265Y-35436872D03*
X131151132Y-33969651D03*
X125869135Y-32846928D03*
X125557268Y-34314149D03*
D20*
X82309635Y-82014928D03*
X81997768Y-83482149D03*
X87279765Y-84604872D03*
X87591632Y-83137651D03*
D17*
X179953054Y-90320144D03*
X179266946Y-87092256D03*
D24*
X144246546Y-73557444D03*
X144932654Y-70329556D03*
D20*
X93957835Y-45539628D03*
X93645968Y-47006849D03*
X98927965Y-48129572D03*
X99239832Y-46662351D03*
D17*
X214889154Y-43943144D03*
X214203046Y-40715256D03*
M02*
