G04 #@! TF.GenerationSoftware,KiCad,Pcbnew,(6.0.1)*
G04 #@! TF.CreationDate,2022-02-22T23:39:04+09:00*
G04 #@! TF.ProjectId,SkeletonNumPad,536b656c-6574-46f6-9e4e-756d5061642e,rev?*
G04 #@! TF.SameCoordinates,Original*
G04 #@! TF.FileFunction,Legend,Bot*
G04 #@! TF.FilePolarity,Positive*
%FSLAX46Y46*%
G04 Gerber Fmt 4.6, Leading zero omitted, Abs format (unit mm)*
G04 Created by KiCad (PCBNEW (6.0.1)) date 2022-02-22 23:39:04*
%MOMM*%
%LPD*%
G01*
G04 APERTURE LIST*
G04 Aperture macros list*
%AMRoundRect*
0 Rectangle with rounded corners*
0 $1 Rounding radius*
0 $2 $3 $4 $5 $6 $7 $8 $9 X,Y pos of 4 corners*
0 Add a 4 corners polygon primitive as box body*
4,1,4,$2,$3,$4,$5,$6,$7,$8,$9,$2,$3,0*
0 Add four circle primitives for the rounded corners*
1,1,$1+$1,$2,$3*
1,1,$1+$1,$4,$5*
1,1,$1+$1,$6,$7*
1,1,$1+$1,$8,$9*
0 Add four rect primitives between the rounded corners*
20,1,$1+$1,$2,$3,$4,$5,0*
20,1,$1+$1,$4,$5,$6,$7,0*
20,1,$1+$1,$6,$7,$8,$9,0*
20,1,$1+$1,$8,$9,$2,$3,0*%
%AMRotRect*
0 Rectangle, with rotation*
0 The origin of the aperture is its center*
0 $1 length*
0 $2 width*
0 $3 Rotation angle, in degrees counterclockwise*
0 Add horizontal line*
21,1,$1,$2,0,0,$3*%
G04 Aperture macros list end*
%ADD10C,0.150000*%
%ADD11C,0.120000*%
%ADD12C,0.600000*%
%ADD13R,0.600000X1.160000*%
%ADD14R,0.300000X1.160000*%
%ADD15O,0.900000X2.000000*%
%ADD16O,0.900000X1.700000*%
%ADD17R,1.200000X0.900000*%
%ADD18RoundRect,0.250000X-0.625000X0.375000X-0.625000X-0.375000X0.625000X-0.375000X0.625000X0.375000X0*%
%ADD19C,1.750000*%
%ADD20C,3.000000*%
%ADD21C,3.987800*%
%ADD22R,2.550000X2.500000*%
%ADD23R,1.700000X0.820000*%
%ADD24RoundRect,0.250000X0.475000X-0.250000X0.475000X0.250000X-0.475000X0.250000X-0.475000X-0.250000X0*%
%ADD25RoundRect,0.250000X-0.262500X-0.450000X0.262500X-0.450000X0.262500X0.450000X-0.262500X0.450000X0*%
%ADD26RoundRect,0.250000X-0.475000X0.250000X-0.475000X-0.250000X0.475000X-0.250000X0.475000X0.250000X0*%
%ADD27R,1.800000X1.100000*%
%ADD28RoundRect,0.250000X-0.450000X0.262500X-0.450000X-0.262500X0.450000X-0.262500X0.450000X0.262500X0*%
%ADD29C,3.048000*%
%ADD30R,1.400000X1.200000*%
%ADD31R,1.400000X1.000000*%
%ADD32RoundRect,0.062500X-0.291682X-0.380070X0.380070X0.291682X0.291682X0.380070X-0.380070X-0.291682X0*%
%ADD33RoundRect,0.062500X0.291682X-0.380070X0.380070X-0.291682X-0.291682X0.380070X-0.380070X0.291682X0*%
%ADD34RotRect,5.200000X5.200000X45.000000*%
%ADD35RoundRect,0.250000X0.450000X-0.262500X0.450000X0.262500X-0.450000X0.262500X-0.450000X-0.262500X0*%
G04 APERTURE END LIST*
D10*
X133683333Y-38847380D02*
X133683333Y-39561666D01*
X133730952Y-39704523D01*
X133826190Y-39799761D01*
X133969047Y-39847380D01*
X134064285Y-39847380D01*
X132683333Y-39847380D02*
X133254761Y-39847380D01*
X132969047Y-39847380D02*
X132969047Y-38847380D01*
X133064285Y-38990238D01*
X133159523Y-39085476D01*
X133254761Y-39133095D01*
X153899880Y-68794404D02*
X152899880Y-68794404D01*
X152899880Y-69032500D01*
X152947500Y-69175357D01*
X153042738Y-69270595D01*
X153137976Y-69318214D01*
X153328452Y-69365833D01*
X153471309Y-69365833D01*
X153661785Y-69318214D01*
X153757023Y-69270595D01*
X153852261Y-69175357D01*
X153899880Y-69032500D01*
X153899880Y-68794404D01*
X152899880Y-69699166D02*
X152899880Y-70365833D01*
X153899880Y-69937261D01*
X112458571Y-39436666D02*
X112458571Y-39103333D01*
X112982380Y-39103333D02*
X111982380Y-39103333D01*
X111982380Y-39579523D01*
X112982380Y-40484285D02*
X112982380Y-39912857D01*
X112982380Y-40198571D02*
X111982380Y-40198571D01*
X112125238Y-40103333D01*
X112220476Y-40008095D01*
X112268095Y-39912857D01*
X134849880Y-87368214D02*
X133849880Y-87368214D01*
X133849880Y-87606309D01*
X133897500Y-87749166D01*
X133992738Y-87844404D01*
X134087976Y-87892023D01*
X134278452Y-87939642D01*
X134421309Y-87939642D01*
X134611785Y-87892023D01*
X134707023Y-87844404D01*
X134802261Y-87749166D01*
X134849880Y-87606309D01*
X134849880Y-87368214D01*
X134849880Y-88892023D02*
X134849880Y-88320595D01*
X134849880Y-88606309D02*
X133849880Y-88606309D01*
X133992738Y-88511071D01*
X134087976Y-88415833D01*
X134135595Y-88320595D01*
X133849880Y-89511071D02*
X133849880Y-89606309D01*
X133897500Y-89701547D01*
X133945119Y-89749166D01*
X134040357Y-89796785D01*
X134230833Y-89844404D01*
X134468928Y-89844404D01*
X134659404Y-89796785D01*
X134754642Y-89749166D01*
X134802261Y-89701547D01*
X134849880Y-89606309D01*
X134849880Y-89511071D01*
X134802261Y-89415833D01*
X134754642Y-89368214D01*
X134659404Y-89320595D01*
X134468928Y-89272976D01*
X134230833Y-89272976D01*
X134040357Y-89320595D01*
X133945119Y-89368214D01*
X133897500Y-89415833D01*
X133849880Y-89511071D01*
X153899880Y-49744404D02*
X152899880Y-49744404D01*
X152899880Y-49982500D01*
X152947500Y-50125357D01*
X153042738Y-50220595D01*
X153137976Y-50268214D01*
X153328452Y-50315833D01*
X153471309Y-50315833D01*
X153661785Y-50268214D01*
X153757023Y-50220595D01*
X153852261Y-50125357D01*
X153899880Y-49982500D01*
X153899880Y-49744404D01*
X152899880Y-50649166D02*
X152899880Y-51268214D01*
X153280833Y-50934880D01*
X153280833Y-51077738D01*
X153328452Y-51172976D01*
X153376071Y-51220595D01*
X153471309Y-51268214D01*
X153709404Y-51268214D01*
X153804642Y-51220595D01*
X153852261Y-51172976D01*
X153899880Y-51077738D01*
X153899880Y-50792023D01*
X153852261Y-50696785D01*
X153804642Y-50649166D01*
X105894047Y-74747380D02*
X106370238Y-74747380D01*
X106370238Y-73747380D01*
X105560714Y-74223571D02*
X105227380Y-74223571D01*
X105084523Y-74747380D02*
X105560714Y-74747380D01*
X105560714Y-73747380D01*
X105084523Y-73747380D01*
X104655952Y-74747380D02*
X104655952Y-73747380D01*
X104417857Y-73747380D01*
X104275000Y-73795000D01*
X104179761Y-73890238D01*
X104132142Y-73985476D01*
X104084523Y-74175952D01*
X104084523Y-74318809D01*
X104132142Y-74509285D01*
X104179761Y-74604523D01*
X104275000Y-74699761D01*
X104417857Y-74747380D01*
X104655952Y-74747380D01*
X103179761Y-73747380D02*
X103655952Y-73747380D01*
X103703571Y-74223571D01*
X103655952Y-74175952D01*
X103560714Y-74128333D01*
X103322619Y-74128333D01*
X103227380Y-74175952D01*
X103179761Y-74223571D01*
X103132142Y-74318809D01*
X103132142Y-74556904D01*
X103179761Y-74652142D01*
X103227380Y-74699761D01*
X103322619Y-74747380D01*
X103560714Y-74747380D01*
X103655952Y-74699761D01*
X103703571Y-74652142D01*
X124372380Y-125468214D02*
X123372380Y-125468214D01*
X123372380Y-125706309D01*
X123420000Y-125849166D01*
X123515238Y-125944404D01*
X123610476Y-125992023D01*
X123800952Y-126039642D01*
X123943809Y-126039642D01*
X124134285Y-125992023D01*
X124229523Y-125944404D01*
X124324761Y-125849166D01*
X124372380Y-125706309D01*
X124372380Y-125468214D01*
X124372380Y-126992023D02*
X124372380Y-126420595D01*
X124372380Y-126706309D02*
X123372380Y-126706309D01*
X123515238Y-126611071D01*
X123610476Y-126515833D01*
X123658095Y-126420595D01*
X123372380Y-127849166D02*
X123372380Y-127658690D01*
X123420000Y-127563452D01*
X123467619Y-127515833D01*
X123610476Y-127420595D01*
X123800952Y-127372976D01*
X124181904Y-127372976D01*
X124277142Y-127420595D01*
X124324761Y-127468214D01*
X124372380Y-127563452D01*
X124372380Y-127753928D01*
X124324761Y-127849166D01*
X124277142Y-127896785D01*
X124181904Y-127944404D01*
X123943809Y-127944404D01*
X123848571Y-127896785D01*
X123800952Y-127849166D01*
X123753333Y-127753928D01*
X123753333Y-127563452D01*
X123800952Y-127468214D01*
X123848571Y-127420595D01*
X123943809Y-127372976D01*
X165094642Y-57683333D02*
X165142261Y-57635714D01*
X165189880Y-57492857D01*
X165189880Y-57397619D01*
X165142261Y-57254761D01*
X165047023Y-57159523D01*
X164951785Y-57111904D01*
X164761309Y-57064285D01*
X164618452Y-57064285D01*
X164427976Y-57111904D01*
X164332738Y-57159523D01*
X164237500Y-57254761D01*
X164189880Y-57397619D01*
X164189880Y-57492857D01*
X164237500Y-57635714D01*
X164285119Y-57683333D01*
X164189880Y-58588095D02*
X164189880Y-58111904D01*
X164666071Y-58064285D01*
X164618452Y-58111904D01*
X164570833Y-58207142D01*
X164570833Y-58445238D01*
X164618452Y-58540476D01*
X164666071Y-58588095D01*
X164761309Y-58635714D01*
X164999404Y-58635714D01*
X165094642Y-58588095D01*
X165142261Y-58540476D01*
X165189880Y-58445238D01*
X165189880Y-58207142D01*
X165142261Y-58111904D01*
X165094642Y-58064285D01*
X157329166Y-40202380D02*
X157662500Y-39726190D01*
X157900595Y-40202380D02*
X157900595Y-39202380D01*
X157519642Y-39202380D01*
X157424404Y-39250000D01*
X157376785Y-39297619D01*
X157329166Y-39392857D01*
X157329166Y-39535714D01*
X157376785Y-39630952D01*
X157424404Y-39678571D01*
X157519642Y-39726190D01*
X157900595Y-39726190D01*
X156948214Y-39297619D02*
X156900595Y-39250000D01*
X156805357Y-39202380D01*
X156567261Y-39202380D01*
X156472023Y-39250000D01*
X156424404Y-39297619D01*
X156376785Y-39392857D01*
X156376785Y-39488095D01*
X156424404Y-39630952D01*
X156995833Y-40202380D01*
X156376785Y-40202380D01*
X159024642Y-130923333D02*
X159072261Y-130875714D01*
X159119880Y-130732857D01*
X159119880Y-130637619D01*
X159072261Y-130494761D01*
X158977023Y-130399523D01*
X158881785Y-130351904D01*
X158691309Y-130304285D01*
X158548452Y-130304285D01*
X158357976Y-130351904D01*
X158262738Y-130399523D01*
X158167500Y-130494761D01*
X158119880Y-130637619D01*
X158119880Y-130732857D01*
X158167500Y-130875714D01*
X158215119Y-130923333D01*
X159119880Y-131875714D02*
X159119880Y-131304285D01*
X159119880Y-131590000D02*
X158119880Y-131590000D01*
X158262738Y-131494761D01*
X158357976Y-131399523D01*
X158405595Y-131304285D01*
X115799880Y-87844404D02*
X114799880Y-87844404D01*
X114799880Y-88082500D01*
X114847500Y-88225357D01*
X114942738Y-88320595D01*
X115037976Y-88368214D01*
X115228452Y-88415833D01*
X115371309Y-88415833D01*
X115561785Y-88368214D01*
X115657023Y-88320595D01*
X115752261Y-88225357D01*
X115799880Y-88082500D01*
X115799880Y-87844404D01*
X115799880Y-88892023D02*
X115799880Y-89082500D01*
X115752261Y-89177738D01*
X115704642Y-89225357D01*
X115561785Y-89320595D01*
X115371309Y-89368214D01*
X114990357Y-89368214D01*
X114895119Y-89320595D01*
X114847500Y-89272976D01*
X114799880Y-89177738D01*
X114799880Y-88987261D01*
X114847500Y-88892023D01*
X114895119Y-88844404D01*
X114990357Y-88796785D01*
X115228452Y-88796785D01*
X115323690Y-88844404D01*
X115371309Y-88892023D01*
X115418928Y-88987261D01*
X115418928Y-89177738D01*
X115371309Y-89272976D01*
X115323690Y-89320595D01*
X115228452Y-89368214D01*
X115895238Y-131952380D02*
X116371428Y-131952380D01*
X116371428Y-130952380D01*
X115561904Y-131428571D02*
X115228571Y-131428571D01*
X115085714Y-131952380D02*
X115561904Y-131952380D01*
X115561904Y-130952380D01*
X115085714Y-130952380D01*
X114657142Y-131952380D02*
X114657142Y-130952380D01*
X114419047Y-130952380D01*
X114276190Y-131000000D01*
X114180952Y-131095238D01*
X114133333Y-131190476D01*
X114085714Y-131380952D01*
X114085714Y-131523809D01*
X114133333Y-131714285D01*
X114180952Y-131809523D01*
X114276190Y-131904761D01*
X114419047Y-131952380D01*
X114657142Y-131952380D01*
X113133333Y-131952380D02*
X113704761Y-131952380D01*
X113419047Y-131952380D02*
X113419047Y-130952380D01*
X113514285Y-131095238D01*
X113609523Y-131190476D01*
X113704761Y-131238095D01*
X112800000Y-130952380D02*
X112133333Y-130952380D01*
X112561904Y-131952380D01*
X134849880Y-49744404D02*
X133849880Y-49744404D01*
X133849880Y-49982500D01*
X133897500Y-50125357D01*
X133992738Y-50220595D01*
X134087976Y-50268214D01*
X134278452Y-50315833D01*
X134421309Y-50315833D01*
X134611785Y-50268214D01*
X134707023Y-50220595D01*
X134802261Y-50125357D01*
X134849880Y-49982500D01*
X134849880Y-49744404D01*
X133945119Y-50696785D02*
X133897500Y-50744404D01*
X133849880Y-50839642D01*
X133849880Y-51077738D01*
X133897500Y-51172976D01*
X133945119Y-51220595D01*
X134040357Y-51268214D01*
X134135595Y-51268214D01*
X134278452Y-51220595D01*
X134849880Y-50649166D01*
X134849880Y-51268214D01*
X144470238Y-131952380D02*
X144946428Y-131952380D01*
X144946428Y-130952380D01*
X144136904Y-131428571D02*
X143803571Y-131428571D01*
X143660714Y-131952380D02*
X144136904Y-131952380D01*
X144136904Y-130952380D01*
X143660714Y-130952380D01*
X143232142Y-131952380D02*
X143232142Y-130952380D01*
X142994047Y-130952380D01*
X142851190Y-131000000D01*
X142755952Y-131095238D01*
X142708333Y-131190476D01*
X142660714Y-131380952D01*
X142660714Y-131523809D01*
X142708333Y-131714285D01*
X142755952Y-131809523D01*
X142851190Y-131904761D01*
X142994047Y-131952380D01*
X143232142Y-131952380D01*
X141708333Y-131952380D02*
X142279761Y-131952380D01*
X141994047Y-131952380D02*
X141994047Y-130952380D01*
X142089285Y-131095238D01*
X142184523Y-131190476D01*
X142279761Y-131238095D01*
X140851190Y-130952380D02*
X141041666Y-130952380D01*
X141136904Y-131000000D01*
X141184523Y-131047619D01*
X141279761Y-131190476D01*
X141327380Y-131380952D01*
X141327380Y-131761904D01*
X141279761Y-131857142D01*
X141232142Y-131904761D01*
X141136904Y-131952380D01*
X140946428Y-131952380D01*
X140851190Y-131904761D01*
X140803571Y-131857142D01*
X140755952Y-131761904D01*
X140755952Y-131523809D01*
X140803571Y-131428571D01*
X140851190Y-131380952D01*
X140946428Y-131333333D01*
X141136904Y-131333333D01*
X141232142Y-131380952D01*
X141279761Y-131428571D01*
X141327380Y-131523809D01*
X171356666Y-111822380D02*
X171690000Y-111346190D01*
X171928095Y-111822380D02*
X171928095Y-110822380D01*
X171547142Y-110822380D01*
X171451904Y-110870000D01*
X171404285Y-110917619D01*
X171356666Y-111012857D01*
X171356666Y-111155714D01*
X171404285Y-111250952D01*
X171451904Y-111298571D01*
X171547142Y-111346190D01*
X171928095Y-111346190D01*
X170451904Y-110822380D02*
X170928095Y-110822380D01*
X170975714Y-111298571D01*
X170928095Y-111250952D01*
X170832857Y-111203333D01*
X170594761Y-111203333D01*
X170499523Y-111250952D01*
X170451904Y-111298571D01*
X170404285Y-111393809D01*
X170404285Y-111631904D01*
X170451904Y-111727142D01*
X170499523Y-111774761D01*
X170594761Y-111822380D01*
X170832857Y-111822380D01*
X170928095Y-111774761D01*
X170975714Y-111727142D01*
X134849880Y-68794404D02*
X133849880Y-68794404D01*
X133849880Y-69032500D01*
X133897500Y-69175357D01*
X133992738Y-69270595D01*
X134087976Y-69318214D01*
X134278452Y-69365833D01*
X134421309Y-69365833D01*
X134611785Y-69318214D01*
X134707023Y-69270595D01*
X134802261Y-69175357D01*
X134849880Y-69032500D01*
X134849880Y-68794404D01*
X133849880Y-70222976D02*
X133849880Y-70032500D01*
X133897500Y-69937261D01*
X133945119Y-69889642D01*
X134087976Y-69794404D01*
X134278452Y-69746785D01*
X134659404Y-69746785D01*
X134754642Y-69794404D01*
X134802261Y-69842023D01*
X134849880Y-69937261D01*
X134849880Y-70127738D01*
X134802261Y-70222976D01*
X134754642Y-70270595D01*
X134659404Y-70318214D01*
X134421309Y-70318214D01*
X134326071Y-70270595D01*
X134278452Y-70222976D01*
X134230833Y-70127738D01*
X134230833Y-69937261D01*
X134278452Y-69842023D01*
X134326071Y-69794404D01*
X134421309Y-69746785D01*
X152566666Y-40202380D02*
X152900000Y-39726190D01*
X153138095Y-40202380D02*
X153138095Y-39202380D01*
X152757142Y-39202380D01*
X152661904Y-39250000D01*
X152614285Y-39297619D01*
X152566666Y-39392857D01*
X152566666Y-39535714D01*
X152614285Y-39630952D01*
X152661904Y-39678571D01*
X152757142Y-39726190D01*
X153138095Y-39726190D01*
X151614285Y-40202380D02*
X152185714Y-40202380D01*
X151900000Y-40202380D02*
X151900000Y-39202380D01*
X151995238Y-39345238D01*
X152090476Y-39440476D01*
X152185714Y-39488095D01*
X143994047Y-93852380D02*
X144470238Y-93852380D01*
X144470238Y-92852380D01*
X143660714Y-93328571D02*
X143327380Y-93328571D01*
X143184523Y-93852380D02*
X143660714Y-93852380D01*
X143660714Y-92852380D01*
X143184523Y-92852380D01*
X142755952Y-93852380D02*
X142755952Y-92852380D01*
X142517857Y-92852380D01*
X142375000Y-92900000D01*
X142279761Y-92995238D01*
X142232142Y-93090476D01*
X142184523Y-93280952D01*
X142184523Y-93423809D01*
X142232142Y-93614285D01*
X142279761Y-93709523D01*
X142375000Y-93804761D01*
X142517857Y-93852380D01*
X142755952Y-93852380D01*
X141708333Y-93852380D02*
X141517857Y-93852380D01*
X141422619Y-93804761D01*
X141375000Y-93757142D01*
X141279761Y-93614285D01*
X141232142Y-93423809D01*
X141232142Y-93042857D01*
X141279761Y-92947619D01*
X141327380Y-92900000D01*
X141422619Y-92852380D01*
X141613095Y-92852380D01*
X141708333Y-92900000D01*
X141755952Y-92947619D01*
X141803571Y-93042857D01*
X141803571Y-93280952D01*
X141755952Y-93376190D01*
X141708333Y-93423809D01*
X141613095Y-93471428D01*
X141422619Y-93471428D01*
X141327380Y-93423809D01*
X141279761Y-93376190D01*
X141232142Y-93280952D01*
X115799880Y-49744404D02*
X114799880Y-49744404D01*
X114799880Y-49982500D01*
X114847500Y-50125357D01*
X114942738Y-50220595D01*
X115037976Y-50268214D01*
X115228452Y-50315833D01*
X115371309Y-50315833D01*
X115561785Y-50268214D01*
X115657023Y-50220595D01*
X115752261Y-50125357D01*
X115799880Y-49982500D01*
X115799880Y-49744404D01*
X115799880Y-51268214D02*
X115799880Y-50696785D01*
X115799880Y-50982500D02*
X114799880Y-50982500D01*
X114942738Y-50887261D01*
X115037976Y-50792023D01*
X115085595Y-50696785D01*
X105894047Y-55752380D02*
X106370238Y-55752380D01*
X106370238Y-54752380D01*
X105560714Y-55228571D02*
X105227380Y-55228571D01*
X105084523Y-55752380D02*
X105560714Y-55752380D01*
X105560714Y-54752380D01*
X105084523Y-54752380D01*
X104655952Y-55752380D02*
X104655952Y-54752380D01*
X104417857Y-54752380D01*
X104275000Y-54800000D01*
X104179761Y-54895238D01*
X104132142Y-54990476D01*
X104084523Y-55180952D01*
X104084523Y-55323809D01*
X104132142Y-55514285D01*
X104179761Y-55609523D01*
X104275000Y-55704761D01*
X104417857Y-55752380D01*
X104655952Y-55752380D01*
X103227380Y-55085714D02*
X103227380Y-55752380D01*
X103465476Y-54704761D02*
X103703571Y-55419047D01*
X103084523Y-55419047D01*
X130301785Y-121582261D02*
X130158928Y-121629880D01*
X129920833Y-121629880D01*
X129825595Y-121582261D01*
X129777976Y-121534642D01*
X129730357Y-121439404D01*
X129730357Y-121344166D01*
X129777976Y-121248928D01*
X129825595Y-121201309D01*
X129920833Y-121153690D01*
X130111309Y-121106071D01*
X130206547Y-121058452D01*
X130254166Y-121010833D01*
X130301785Y-120915595D01*
X130301785Y-120820357D01*
X130254166Y-120725119D01*
X130206547Y-120677500D01*
X130111309Y-120629880D01*
X129873214Y-120629880D01*
X129730357Y-120677500D01*
X129397023Y-120629880D02*
X129158928Y-121629880D01*
X128968452Y-120915595D01*
X128777976Y-121629880D01*
X128539880Y-120629880D01*
X128397023Y-121725119D02*
X127635119Y-121725119D01*
X126873214Y-121629880D02*
X127444642Y-121629880D01*
X127158928Y-121629880D02*
X127158928Y-120629880D01*
X127254166Y-120772738D01*
X127349404Y-120867976D01*
X127444642Y-120915595D01*
X159379642Y-57683333D02*
X159427261Y-57635714D01*
X159474880Y-57492857D01*
X159474880Y-57397619D01*
X159427261Y-57254761D01*
X159332023Y-57159523D01*
X159236785Y-57111904D01*
X159046309Y-57064285D01*
X158903452Y-57064285D01*
X158712976Y-57111904D01*
X158617738Y-57159523D01*
X158522500Y-57254761D01*
X158474880Y-57397619D01*
X158474880Y-57492857D01*
X158522500Y-57635714D01*
X158570119Y-57683333D01*
X158474880Y-58016666D02*
X158474880Y-58683333D01*
X159474880Y-58254761D01*
X143994047Y-55752380D02*
X144470238Y-55752380D01*
X144470238Y-54752380D01*
X143660714Y-55228571D02*
X143327380Y-55228571D01*
X143184523Y-55752380D02*
X143660714Y-55752380D01*
X143660714Y-54752380D01*
X143184523Y-54752380D01*
X142755952Y-55752380D02*
X142755952Y-54752380D01*
X142517857Y-54752380D01*
X142375000Y-54800000D01*
X142279761Y-54895238D01*
X142232142Y-54990476D01*
X142184523Y-55180952D01*
X142184523Y-55323809D01*
X142232142Y-55514285D01*
X142279761Y-55609523D01*
X142375000Y-55704761D01*
X142517857Y-55752380D01*
X142755952Y-55752380D01*
X141803571Y-54847619D02*
X141755952Y-54800000D01*
X141660714Y-54752380D01*
X141422619Y-54752380D01*
X141327380Y-54800000D01*
X141279761Y-54847619D01*
X141232142Y-54942857D01*
X141232142Y-55038095D01*
X141279761Y-55180952D01*
X141851190Y-55752380D01*
X141232142Y-55752380D01*
X163192380Y-63163333D02*
X162716190Y-62830000D01*
X163192380Y-62591904D02*
X162192380Y-62591904D01*
X162192380Y-62972857D01*
X162240000Y-63068095D01*
X162287619Y-63115714D01*
X162382857Y-63163333D01*
X162525714Y-63163333D01*
X162620952Y-63115714D01*
X162668571Y-63068095D01*
X162716190Y-62972857D01*
X162716190Y-62591904D01*
X162525714Y-64020476D02*
X163192380Y-64020476D01*
X162144761Y-63782380D02*
X162859047Y-63544285D01*
X162859047Y-64163333D01*
X163044047Y-55752380D02*
X163520238Y-55752380D01*
X163520238Y-54752380D01*
X162710714Y-55228571D02*
X162377380Y-55228571D01*
X162234523Y-55752380D02*
X162710714Y-55752380D01*
X162710714Y-54752380D01*
X162234523Y-54752380D01*
X161805952Y-55752380D02*
X161805952Y-54752380D01*
X161567857Y-54752380D01*
X161425000Y-54800000D01*
X161329761Y-54895238D01*
X161282142Y-54990476D01*
X161234523Y-55180952D01*
X161234523Y-55323809D01*
X161282142Y-55514285D01*
X161329761Y-55609523D01*
X161425000Y-55704761D01*
X161567857Y-55752380D01*
X161805952Y-55752380D01*
X160282142Y-55752380D02*
X160853571Y-55752380D01*
X160567857Y-55752380D02*
X160567857Y-54752380D01*
X160663095Y-54895238D01*
X160758333Y-54990476D01*
X160853571Y-55038095D01*
X172949880Y-78319404D02*
X171949880Y-78319404D01*
X171949880Y-78557500D01*
X171997500Y-78700357D01*
X172092738Y-78795595D01*
X172187976Y-78843214D01*
X172378452Y-78890833D01*
X172521309Y-78890833D01*
X172711785Y-78843214D01*
X172807023Y-78795595D01*
X172902261Y-78700357D01*
X172949880Y-78557500D01*
X172949880Y-78319404D01*
X172378452Y-79462261D02*
X172330833Y-79367023D01*
X172283214Y-79319404D01*
X172187976Y-79271785D01*
X172140357Y-79271785D01*
X172045119Y-79319404D01*
X171997500Y-79367023D01*
X171949880Y-79462261D01*
X171949880Y-79652738D01*
X171997500Y-79747976D01*
X172045119Y-79795595D01*
X172140357Y-79843214D01*
X172187976Y-79843214D01*
X172283214Y-79795595D01*
X172330833Y-79747976D01*
X172378452Y-79652738D01*
X172378452Y-79462261D01*
X172426071Y-79367023D01*
X172473690Y-79319404D01*
X172568928Y-79271785D01*
X172759404Y-79271785D01*
X172854642Y-79319404D01*
X172902261Y-79367023D01*
X172949880Y-79462261D01*
X172949880Y-79652738D01*
X172902261Y-79747976D01*
X172854642Y-79795595D01*
X172759404Y-79843214D01*
X172568928Y-79843214D01*
X172473690Y-79795595D01*
X172426071Y-79747976D01*
X172378452Y-79652738D01*
X163520238Y-122372380D02*
X163996428Y-122372380D01*
X163996428Y-121372380D01*
X163186904Y-121848571D02*
X162853571Y-121848571D01*
X162710714Y-122372380D02*
X163186904Y-122372380D01*
X163186904Y-121372380D01*
X162710714Y-121372380D01*
X162282142Y-122372380D02*
X162282142Y-121372380D01*
X162044047Y-121372380D01*
X161901190Y-121420000D01*
X161805952Y-121515238D01*
X161758333Y-121610476D01*
X161710714Y-121800952D01*
X161710714Y-121943809D01*
X161758333Y-122134285D01*
X161805952Y-122229523D01*
X161901190Y-122324761D01*
X162044047Y-122372380D01*
X162282142Y-122372380D01*
X160758333Y-122372380D02*
X161329761Y-122372380D01*
X161044047Y-122372380D02*
X161044047Y-121372380D01*
X161139285Y-121515238D01*
X161234523Y-121610476D01*
X161329761Y-121658095D01*
X159853571Y-121372380D02*
X160329761Y-121372380D01*
X160377380Y-121848571D01*
X160329761Y-121800952D01*
X160234523Y-121753333D01*
X159996428Y-121753333D01*
X159901190Y-121800952D01*
X159853571Y-121848571D01*
X159805952Y-121943809D01*
X159805952Y-122181904D01*
X159853571Y-122277142D01*
X159901190Y-122324761D01*
X159996428Y-122372380D01*
X160234523Y-122372380D01*
X160329761Y-122324761D01*
X160377380Y-122277142D01*
X115799880Y-68794404D02*
X114799880Y-68794404D01*
X114799880Y-69032500D01*
X114847500Y-69175357D01*
X114942738Y-69270595D01*
X115037976Y-69318214D01*
X115228452Y-69365833D01*
X115371309Y-69365833D01*
X115561785Y-69318214D01*
X115657023Y-69270595D01*
X115752261Y-69175357D01*
X115799880Y-69032500D01*
X115799880Y-68794404D01*
X114799880Y-70270595D02*
X114799880Y-69794404D01*
X115276071Y-69746785D01*
X115228452Y-69794404D01*
X115180833Y-69889642D01*
X115180833Y-70127738D01*
X115228452Y-70222976D01*
X115276071Y-70270595D01*
X115371309Y-70318214D01*
X115609404Y-70318214D01*
X115704642Y-70270595D01*
X115752261Y-70222976D01*
X115799880Y-70127738D01*
X115799880Y-69889642D01*
X115752261Y-69794404D01*
X115704642Y-69746785D01*
X155804880Y-117848214D02*
X154804880Y-117848214D01*
X154804880Y-118086309D01*
X154852500Y-118229166D01*
X154947738Y-118324404D01*
X155042976Y-118372023D01*
X155233452Y-118419642D01*
X155376309Y-118419642D01*
X155566785Y-118372023D01*
X155662023Y-118324404D01*
X155757261Y-118229166D01*
X155804880Y-118086309D01*
X155804880Y-117848214D01*
X155804880Y-119372023D02*
X155804880Y-118800595D01*
X155804880Y-119086309D02*
X154804880Y-119086309D01*
X154947738Y-118991071D01*
X155042976Y-118895833D01*
X155090595Y-118800595D01*
X154804880Y-119705357D02*
X154804880Y-120372023D01*
X155804880Y-119943452D01*
X172949880Y-115943214D02*
X171949880Y-115943214D01*
X171949880Y-116181309D01*
X171997500Y-116324166D01*
X172092738Y-116419404D01*
X172187976Y-116467023D01*
X172378452Y-116514642D01*
X172521309Y-116514642D01*
X172711785Y-116467023D01*
X172807023Y-116419404D01*
X172902261Y-116324166D01*
X172949880Y-116181309D01*
X172949880Y-115943214D01*
X172949880Y-117467023D02*
X172949880Y-116895595D01*
X172949880Y-117181309D02*
X171949880Y-117181309D01*
X172092738Y-117086071D01*
X172187976Y-116990833D01*
X172235595Y-116895595D01*
X171949880Y-118371785D02*
X171949880Y-117895595D01*
X172426071Y-117847976D01*
X172378452Y-117895595D01*
X172330833Y-117990833D01*
X172330833Y-118228928D01*
X172378452Y-118324166D01*
X172426071Y-118371785D01*
X172521309Y-118419404D01*
X172759404Y-118419404D01*
X172854642Y-118371785D01*
X172902261Y-118324166D01*
X172949880Y-118228928D01*
X172949880Y-117990833D01*
X172902261Y-117895595D01*
X172854642Y-117847976D01*
X173547142Y-97303333D02*
X173594761Y-97255714D01*
X173642380Y-97112857D01*
X173642380Y-97017619D01*
X173594761Y-96874761D01*
X173499523Y-96779523D01*
X173404285Y-96731904D01*
X173213809Y-96684285D01*
X173070952Y-96684285D01*
X172880476Y-96731904D01*
X172785238Y-96779523D01*
X172690000Y-96874761D01*
X172642380Y-97017619D01*
X172642380Y-97112857D01*
X172690000Y-97255714D01*
X172737619Y-97303333D01*
X172642380Y-97636666D02*
X172642380Y-98255714D01*
X173023333Y-97922380D01*
X173023333Y-98065238D01*
X173070952Y-98160476D01*
X173118571Y-98208095D01*
X173213809Y-98255714D01*
X173451904Y-98255714D01*
X173547142Y-98208095D01*
X173594761Y-98160476D01*
X173642380Y-98065238D01*
X173642380Y-97779523D01*
X173594761Y-97684285D01*
X173547142Y-97636666D01*
X134091904Y-54222380D02*
X134091904Y-55031904D01*
X134044285Y-55127142D01*
X133996666Y-55174761D01*
X133901428Y-55222380D01*
X133710952Y-55222380D01*
X133615714Y-55174761D01*
X133568095Y-55127142D01*
X133520476Y-55031904D01*
X133520476Y-54222380D01*
X133091904Y-54317619D02*
X133044285Y-54270000D01*
X132949047Y-54222380D01*
X132710952Y-54222380D01*
X132615714Y-54270000D01*
X132568095Y-54317619D01*
X132520476Y-54412857D01*
X132520476Y-54508095D01*
X132568095Y-54650952D01*
X133139523Y-55222380D01*
X132520476Y-55222380D01*
X167683942Y-57683333D02*
X167731561Y-57635714D01*
X167779180Y-57492857D01*
X167779180Y-57397619D01*
X167731561Y-57254761D01*
X167636323Y-57159523D01*
X167541085Y-57111904D01*
X167350609Y-57064285D01*
X167207752Y-57064285D01*
X167017276Y-57111904D01*
X166922038Y-57159523D01*
X166826800Y-57254761D01*
X166779180Y-57397619D01*
X166779180Y-57492857D01*
X166826800Y-57635714D01*
X166874419Y-57683333D01*
X167112514Y-58540476D02*
X167779180Y-58540476D01*
X166731561Y-58302380D02*
X167445847Y-58064285D01*
X167445847Y-58683333D01*
X144470238Y-112847380D02*
X144946428Y-112847380D01*
X144946428Y-111847380D01*
X144136904Y-112323571D02*
X143803571Y-112323571D01*
X143660714Y-112847380D02*
X144136904Y-112847380D01*
X144136904Y-111847380D01*
X143660714Y-111847380D01*
X143232142Y-112847380D02*
X143232142Y-111847380D01*
X142994047Y-111847380D01*
X142851190Y-111895000D01*
X142755952Y-111990238D01*
X142708333Y-112085476D01*
X142660714Y-112275952D01*
X142660714Y-112418809D01*
X142708333Y-112609285D01*
X142755952Y-112704523D01*
X142851190Y-112799761D01*
X142994047Y-112847380D01*
X143232142Y-112847380D01*
X141708333Y-112847380D02*
X142279761Y-112847380D01*
X141994047Y-112847380D02*
X141994047Y-111847380D01*
X142089285Y-111990238D01*
X142184523Y-112085476D01*
X142279761Y-112133095D01*
X140851190Y-112180714D02*
X140851190Y-112847380D01*
X141089285Y-111799761D02*
X141327380Y-112514047D01*
X140708333Y-112514047D01*
X165484777Y-97732281D02*
X166057197Y-98304701D01*
X166090869Y-98405716D01*
X166090869Y-98473060D01*
X166057197Y-98574075D01*
X165922510Y-98708762D01*
X165821495Y-98742434D01*
X165754151Y-98742434D01*
X165653136Y-98708762D01*
X165080716Y-98136342D01*
X165080716Y-99550556D02*
X165484777Y-99146495D01*
X165282747Y-99348525D02*
X164575640Y-98641419D01*
X164743999Y-98675090D01*
X164878686Y-98675090D01*
X164979701Y-98641419D01*
X115799880Y-106418214D02*
X114799880Y-106418214D01*
X114799880Y-106656309D01*
X114847500Y-106799166D01*
X114942738Y-106894404D01*
X115037976Y-106942023D01*
X115228452Y-106989642D01*
X115371309Y-106989642D01*
X115561785Y-106942023D01*
X115657023Y-106894404D01*
X115752261Y-106799166D01*
X115799880Y-106656309D01*
X115799880Y-106418214D01*
X115799880Y-107942023D02*
X115799880Y-107370595D01*
X115799880Y-107656309D02*
X114799880Y-107656309D01*
X114942738Y-107561071D01*
X115037976Y-107465833D01*
X115085595Y-107370595D01*
X114895119Y-108322976D02*
X114847500Y-108370595D01*
X114799880Y-108465833D01*
X114799880Y-108703928D01*
X114847500Y-108799166D01*
X114895119Y-108846785D01*
X114990357Y-108894404D01*
X115085595Y-108894404D01*
X115228452Y-108846785D01*
X115799880Y-108275357D01*
X115799880Y-108894404D01*
X170004642Y-130923333D02*
X170052261Y-130875714D01*
X170099880Y-130732857D01*
X170099880Y-130637619D01*
X170052261Y-130494761D01*
X169957023Y-130399523D01*
X169861785Y-130351904D01*
X169671309Y-130304285D01*
X169528452Y-130304285D01*
X169337976Y-130351904D01*
X169242738Y-130399523D01*
X169147500Y-130494761D01*
X169099880Y-130637619D01*
X169099880Y-130732857D01*
X169147500Y-130875714D01*
X169195119Y-130923333D01*
X169195119Y-131304285D02*
X169147500Y-131351904D01*
X169099880Y-131447142D01*
X169099880Y-131685238D01*
X169147500Y-131780476D01*
X169195119Y-131828095D01*
X169290357Y-131875714D01*
X169385595Y-131875714D01*
X169528452Y-131828095D01*
X170099880Y-131256666D01*
X170099880Y-131875714D01*
X172949880Y-49744404D02*
X171949880Y-49744404D01*
X171949880Y-49982500D01*
X171997500Y-50125357D01*
X172092738Y-50220595D01*
X172187976Y-50268214D01*
X172378452Y-50315833D01*
X172521309Y-50315833D01*
X172711785Y-50268214D01*
X172807023Y-50220595D01*
X172902261Y-50125357D01*
X172949880Y-49982500D01*
X172949880Y-49744404D01*
X172283214Y-51172976D02*
X172949880Y-51172976D01*
X171902261Y-50934880D02*
X172616547Y-50696785D01*
X172616547Y-51315833D01*
X156522142Y-57683333D02*
X156569761Y-57635714D01*
X156617380Y-57492857D01*
X156617380Y-57397619D01*
X156569761Y-57254761D01*
X156474523Y-57159523D01*
X156379285Y-57111904D01*
X156188809Y-57064285D01*
X156045952Y-57064285D01*
X155855476Y-57111904D01*
X155760238Y-57159523D01*
X155665000Y-57254761D01*
X155617380Y-57397619D01*
X155617380Y-57492857D01*
X155665000Y-57635714D01*
X155712619Y-57683333D01*
X156045952Y-58254761D02*
X155998333Y-58159523D01*
X155950714Y-58111904D01*
X155855476Y-58064285D01*
X155807857Y-58064285D01*
X155712619Y-58111904D01*
X155665000Y-58159523D01*
X155617380Y-58254761D01*
X155617380Y-58445238D01*
X155665000Y-58540476D01*
X155712619Y-58588095D01*
X155807857Y-58635714D01*
X155855476Y-58635714D01*
X155950714Y-58588095D01*
X155998333Y-58540476D01*
X156045952Y-58445238D01*
X156045952Y-58254761D01*
X156093571Y-58159523D01*
X156141190Y-58111904D01*
X156236428Y-58064285D01*
X156426904Y-58064285D01*
X156522142Y-58111904D01*
X156569761Y-58159523D01*
X156617380Y-58254761D01*
X156617380Y-58445238D01*
X156569761Y-58540476D01*
X156522142Y-58588095D01*
X156426904Y-58635714D01*
X156236428Y-58635714D01*
X156141190Y-58588095D01*
X156093571Y-58540476D01*
X156045952Y-58445238D01*
X153899880Y-106418214D02*
X152899880Y-106418214D01*
X152899880Y-106656309D01*
X152947500Y-106799166D01*
X153042738Y-106894404D01*
X153137976Y-106942023D01*
X153328452Y-106989642D01*
X153471309Y-106989642D01*
X153661785Y-106942023D01*
X153757023Y-106894404D01*
X153852261Y-106799166D01*
X153899880Y-106656309D01*
X153899880Y-106418214D01*
X153899880Y-107942023D02*
X153899880Y-107370595D01*
X153899880Y-107656309D02*
X152899880Y-107656309D01*
X153042738Y-107561071D01*
X153137976Y-107465833D01*
X153185595Y-107370595D01*
X153233214Y-108799166D02*
X153899880Y-108799166D01*
X152852261Y-108561071D02*
X153566547Y-108322976D01*
X153566547Y-108942023D01*
X106370238Y-93852380D02*
X106846428Y-93852380D01*
X106846428Y-92852380D01*
X106036904Y-93328571D02*
X105703571Y-93328571D01*
X105560714Y-93852380D02*
X106036904Y-93852380D01*
X106036904Y-92852380D01*
X105560714Y-92852380D01*
X105132142Y-93852380D02*
X105132142Y-92852380D01*
X104894047Y-92852380D01*
X104751190Y-92900000D01*
X104655952Y-92995238D01*
X104608333Y-93090476D01*
X104560714Y-93280952D01*
X104560714Y-93423809D01*
X104608333Y-93614285D01*
X104655952Y-93709523D01*
X104751190Y-93804761D01*
X104894047Y-93852380D01*
X105132142Y-93852380D01*
X103608333Y-93852380D02*
X104179761Y-93852380D01*
X103894047Y-93852380D02*
X103894047Y-92852380D01*
X103989285Y-92995238D01*
X104084523Y-93090476D01*
X104179761Y-93138095D01*
X102655952Y-93852380D02*
X103227380Y-93852380D01*
X102941666Y-93852380D02*
X102941666Y-92852380D01*
X103036904Y-92995238D01*
X103132142Y-93090476D01*
X103227380Y-93138095D01*
X164486190Y-128616190D02*
X164486190Y-129092380D01*
X164819523Y-128092380D02*
X164486190Y-128616190D01*
X164152857Y-128092380D01*
X163295714Y-129092380D02*
X163867142Y-129092380D01*
X163581428Y-129092380D02*
X163581428Y-128092380D01*
X163676666Y-128235238D01*
X163771904Y-128330476D01*
X163867142Y-128378095D01*
X125420238Y-112847380D02*
X125896428Y-112847380D01*
X125896428Y-111847380D01*
X125086904Y-112323571D02*
X124753571Y-112323571D01*
X124610714Y-112847380D02*
X125086904Y-112847380D01*
X125086904Y-111847380D01*
X124610714Y-111847380D01*
X124182142Y-112847380D02*
X124182142Y-111847380D01*
X123944047Y-111847380D01*
X123801190Y-111895000D01*
X123705952Y-111990238D01*
X123658333Y-112085476D01*
X123610714Y-112275952D01*
X123610714Y-112418809D01*
X123658333Y-112609285D01*
X123705952Y-112704523D01*
X123801190Y-112799761D01*
X123944047Y-112847380D01*
X124182142Y-112847380D01*
X122658333Y-112847380D02*
X123229761Y-112847380D01*
X122944047Y-112847380D02*
X122944047Y-111847380D01*
X123039285Y-111990238D01*
X123134523Y-112085476D01*
X123229761Y-112133095D01*
X122325000Y-111847380D02*
X121705952Y-111847380D01*
X122039285Y-112228333D01*
X121896428Y-112228333D01*
X121801190Y-112275952D01*
X121753571Y-112323571D01*
X121705952Y-112418809D01*
X121705952Y-112656904D01*
X121753571Y-112752142D01*
X121801190Y-112799761D01*
X121896428Y-112847380D01*
X122182142Y-112847380D01*
X122277380Y-112799761D01*
X122325000Y-112752142D01*
X134849880Y-106418214D02*
X133849880Y-106418214D01*
X133849880Y-106656309D01*
X133897500Y-106799166D01*
X133992738Y-106894404D01*
X134087976Y-106942023D01*
X134278452Y-106989642D01*
X134421309Y-106989642D01*
X134611785Y-106942023D01*
X134707023Y-106894404D01*
X134802261Y-106799166D01*
X134849880Y-106656309D01*
X134849880Y-106418214D01*
X134849880Y-107942023D02*
X134849880Y-107370595D01*
X134849880Y-107656309D02*
X133849880Y-107656309D01*
X133992738Y-107561071D01*
X134087976Y-107465833D01*
X134135595Y-107370595D01*
X133849880Y-108275357D02*
X133849880Y-108894404D01*
X134230833Y-108561071D01*
X134230833Y-108703928D01*
X134278452Y-108799166D01*
X134326071Y-108846785D01*
X134421309Y-108894404D01*
X134659404Y-108894404D01*
X134754642Y-108846785D01*
X134802261Y-108799166D01*
X134849880Y-108703928D01*
X134849880Y-108418214D01*
X134802261Y-108322976D01*
X134754642Y-108275357D01*
X163044047Y-84272380D02*
X163520238Y-84272380D01*
X163520238Y-83272380D01*
X162710714Y-83748571D02*
X162377380Y-83748571D01*
X162234523Y-84272380D02*
X162710714Y-84272380D01*
X162710714Y-83272380D01*
X162234523Y-83272380D01*
X161805952Y-84272380D02*
X161805952Y-83272380D01*
X161567857Y-83272380D01*
X161425000Y-83320000D01*
X161329761Y-83415238D01*
X161282142Y-83510476D01*
X161234523Y-83700952D01*
X161234523Y-83843809D01*
X161282142Y-84034285D01*
X161329761Y-84129523D01*
X161425000Y-84224761D01*
X161567857Y-84272380D01*
X161805952Y-84272380D01*
X160663095Y-83700952D02*
X160758333Y-83653333D01*
X160805952Y-83605714D01*
X160853571Y-83510476D01*
X160853571Y-83462857D01*
X160805952Y-83367619D01*
X160758333Y-83320000D01*
X160663095Y-83272380D01*
X160472619Y-83272380D01*
X160377380Y-83320000D01*
X160329761Y-83367619D01*
X160282142Y-83462857D01*
X160282142Y-83510476D01*
X160329761Y-83605714D01*
X160377380Y-83653333D01*
X160472619Y-83700952D01*
X160663095Y-83700952D01*
X160758333Y-83748571D01*
X160805952Y-83796190D01*
X160853571Y-83891428D01*
X160853571Y-84081904D01*
X160805952Y-84177142D01*
X160758333Y-84224761D01*
X160663095Y-84272380D01*
X160472619Y-84272380D01*
X160377380Y-84224761D01*
X160329761Y-84177142D01*
X160282142Y-84081904D01*
X160282142Y-83891428D01*
X160329761Y-83796190D01*
X160377380Y-83748571D01*
X160472619Y-83700952D01*
X155804880Y-79748214D02*
X154804880Y-79748214D01*
X154804880Y-79986309D01*
X154852500Y-80129166D01*
X154947738Y-80224404D01*
X155042976Y-80272023D01*
X155233452Y-80319642D01*
X155376309Y-80319642D01*
X155566785Y-80272023D01*
X155662023Y-80224404D01*
X155757261Y-80129166D01*
X155804880Y-79986309D01*
X155804880Y-79748214D01*
X155804880Y-81272023D02*
X155804880Y-80700595D01*
X155804880Y-80986309D02*
X154804880Y-80986309D01*
X154947738Y-80891071D01*
X155042976Y-80795833D01*
X155090595Y-80700595D01*
X155804880Y-82224404D02*
X155804880Y-81652976D01*
X155804880Y-81938690D02*
X154804880Y-81938690D01*
X154947738Y-81843452D01*
X155042976Y-81748214D01*
X155090595Y-81652976D01*
X162237142Y-57683333D02*
X162284761Y-57635714D01*
X162332380Y-57492857D01*
X162332380Y-57397619D01*
X162284761Y-57254761D01*
X162189523Y-57159523D01*
X162094285Y-57111904D01*
X161903809Y-57064285D01*
X161760952Y-57064285D01*
X161570476Y-57111904D01*
X161475238Y-57159523D01*
X161380000Y-57254761D01*
X161332380Y-57397619D01*
X161332380Y-57492857D01*
X161380000Y-57635714D01*
X161427619Y-57683333D01*
X161332380Y-58540476D02*
X161332380Y-58350000D01*
X161380000Y-58254761D01*
X161427619Y-58207142D01*
X161570476Y-58111904D01*
X161760952Y-58064285D01*
X162141904Y-58064285D01*
X162237142Y-58111904D01*
X162284761Y-58159523D01*
X162332380Y-58254761D01*
X162332380Y-58445238D01*
X162284761Y-58540476D01*
X162237142Y-58588095D01*
X162141904Y-58635714D01*
X161903809Y-58635714D01*
X161808571Y-58588095D01*
X161760952Y-58540476D01*
X161713333Y-58445238D01*
X161713333Y-58254761D01*
X161760952Y-58159523D01*
X161808571Y-58111904D01*
X161903809Y-58064285D01*
X124944047Y-55752380D02*
X125420238Y-55752380D01*
X125420238Y-54752380D01*
X124610714Y-55228571D02*
X124277380Y-55228571D01*
X124134523Y-55752380D02*
X124610714Y-55752380D01*
X124610714Y-54752380D01*
X124134523Y-54752380D01*
X123705952Y-55752380D02*
X123705952Y-54752380D01*
X123467857Y-54752380D01*
X123325000Y-54800000D01*
X123229761Y-54895238D01*
X123182142Y-54990476D01*
X123134523Y-55180952D01*
X123134523Y-55323809D01*
X123182142Y-55514285D01*
X123229761Y-55609523D01*
X123325000Y-55704761D01*
X123467857Y-55752380D01*
X123705952Y-55752380D01*
X122801190Y-54752380D02*
X122182142Y-54752380D01*
X122515476Y-55133333D01*
X122372619Y-55133333D01*
X122277380Y-55180952D01*
X122229761Y-55228571D01*
X122182142Y-55323809D01*
X122182142Y-55561904D01*
X122229761Y-55657142D01*
X122277380Y-55704761D01*
X122372619Y-55752380D01*
X122658333Y-55752380D01*
X122753571Y-55704761D01*
X122801190Y-55657142D01*
X133822380Y-118843333D02*
X133346190Y-118510000D01*
X133822380Y-118271904D02*
X132822380Y-118271904D01*
X132822380Y-118652857D01*
X132870000Y-118748095D01*
X132917619Y-118795714D01*
X133012857Y-118843333D01*
X133155714Y-118843333D01*
X133250952Y-118795714D01*
X133298571Y-118748095D01*
X133346190Y-118652857D01*
X133346190Y-118271904D01*
X132822380Y-119700476D02*
X132822380Y-119510000D01*
X132870000Y-119414761D01*
X132917619Y-119367142D01*
X133060476Y-119271904D01*
X133250952Y-119224285D01*
X133631904Y-119224285D01*
X133727142Y-119271904D01*
X133774761Y-119319523D01*
X133822380Y-119414761D01*
X133822380Y-119605238D01*
X133774761Y-119700476D01*
X133727142Y-119748095D01*
X133631904Y-119795714D01*
X133393809Y-119795714D01*
X133298571Y-119748095D01*
X133250952Y-119700476D01*
X133203333Y-119605238D01*
X133203333Y-119414761D01*
X133250952Y-119319523D01*
X133298571Y-119271904D01*
X133393809Y-119224285D01*
X160412380Y-63163333D02*
X159936190Y-62830000D01*
X160412380Y-62591904D02*
X159412380Y-62591904D01*
X159412380Y-62972857D01*
X159460000Y-63068095D01*
X159507619Y-63115714D01*
X159602857Y-63163333D01*
X159745714Y-63163333D01*
X159840952Y-63115714D01*
X159888571Y-63068095D01*
X159936190Y-62972857D01*
X159936190Y-62591904D01*
X159412380Y-63496666D02*
X159412380Y-64115714D01*
X159793333Y-63782380D01*
X159793333Y-63925238D01*
X159840952Y-64020476D01*
X159888571Y-64068095D01*
X159983809Y-64115714D01*
X160221904Y-64115714D01*
X160317142Y-64068095D01*
X160364761Y-64020476D01*
X160412380Y-63925238D01*
X160412380Y-63639523D01*
X160364761Y-63544285D01*
X160317142Y-63496666D01*
X124944047Y-74747380D02*
X125420238Y-74747380D01*
X125420238Y-73747380D01*
X124610714Y-74223571D02*
X124277380Y-74223571D01*
X124134523Y-74747380D02*
X124610714Y-74747380D01*
X124610714Y-73747380D01*
X124134523Y-73747380D01*
X123705952Y-74747380D02*
X123705952Y-73747380D01*
X123467857Y-73747380D01*
X123325000Y-73795000D01*
X123229761Y-73890238D01*
X123182142Y-73985476D01*
X123134523Y-74175952D01*
X123134523Y-74318809D01*
X123182142Y-74509285D01*
X123229761Y-74604523D01*
X123325000Y-74699761D01*
X123467857Y-74747380D01*
X123705952Y-74747380D01*
X122277380Y-73747380D02*
X122467857Y-73747380D01*
X122563095Y-73795000D01*
X122610714Y-73842619D01*
X122705952Y-73985476D01*
X122753571Y-74175952D01*
X122753571Y-74556904D01*
X122705952Y-74652142D01*
X122658333Y-74699761D01*
X122563095Y-74747380D01*
X122372619Y-74747380D01*
X122277380Y-74699761D01*
X122229761Y-74652142D01*
X122182142Y-74556904D01*
X122182142Y-74318809D01*
X122229761Y-74223571D01*
X122277380Y-74175952D01*
X122372619Y-74128333D01*
X122563095Y-74128333D01*
X122658333Y-74175952D01*
X122705952Y-74223571D01*
X122753571Y-74318809D01*
X106370238Y-112847380D02*
X106846428Y-112847380D01*
X106846428Y-111847380D01*
X106036904Y-112323571D02*
X105703571Y-112323571D01*
X105560714Y-112847380D02*
X106036904Y-112847380D01*
X106036904Y-111847380D01*
X105560714Y-111847380D01*
X105132142Y-112847380D02*
X105132142Y-111847380D01*
X104894047Y-111847380D01*
X104751190Y-111895000D01*
X104655952Y-111990238D01*
X104608333Y-112085476D01*
X104560714Y-112275952D01*
X104560714Y-112418809D01*
X104608333Y-112609285D01*
X104655952Y-112704523D01*
X104751190Y-112799761D01*
X104894047Y-112847380D01*
X105132142Y-112847380D01*
X103608333Y-112847380D02*
X104179761Y-112847380D01*
X103894047Y-112847380D02*
X103894047Y-111847380D01*
X103989285Y-111990238D01*
X104084523Y-112085476D01*
X104179761Y-112133095D01*
X103227380Y-111942619D02*
X103179761Y-111895000D01*
X103084523Y-111847380D01*
X102846428Y-111847380D01*
X102751190Y-111895000D01*
X102703571Y-111942619D01*
X102655952Y-112037857D01*
X102655952Y-112133095D01*
X102703571Y-112275952D01*
X103275000Y-112847380D01*
X102655952Y-112847380D01*
X125420238Y-93852380D02*
X125896428Y-93852380D01*
X125896428Y-92852380D01*
X125086904Y-93328571D02*
X124753571Y-93328571D01*
X124610714Y-93852380D02*
X125086904Y-93852380D01*
X125086904Y-92852380D01*
X124610714Y-92852380D01*
X124182142Y-93852380D02*
X124182142Y-92852380D01*
X123944047Y-92852380D01*
X123801190Y-92900000D01*
X123705952Y-92995238D01*
X123658333Y-93090476D01*
X123610714Y-93280952D01*
X123610714Y-93423809D01*
X123658333Y-93614285D01*
X123705952Y-93709523D01*
X123801190Y-93804761D01*
X123944047Y-93852380D01*
X124182142Y-93852380D01*
X122658333Y-93852380D02*
X123229761Y-93852380D01*
X122944047Y-93852380D02*
X122944047Y-92852380D01*
X123039285Y-92995238D01*
X123134523Y-93090476D01*
X123229761Y-93138095D01*
X122039285Y-92852380D02*
X121944047Y-92852380D01*
X121848809Y-92900000D01*
X121801190Y-92947619D01*
X121753571Y-93042857D01*
X121705952Y-93233333D01*
X121705952Y-93471428D01*
X121753571Y-93661904D01*
X121801190Y-93757142D01*
X121848809Y-93804761D01*
X121944047Y-93852380D01*
X122039285Y-93852380D01*
X122134523Y-93804761D01*
X122182142Y-93757142D01*
X122229761Y-93661904D01*
X122277380Y-93471428D01*
X122277380Y-93233333D01*
X122229761Y-93042857D01*
X122182142Y-92947619D01*
X122134523Y-92900000D01*
X122039285Y-92852380D01*
X143994047Y-74747380D02*
X144470238Y-74747380D01*
X144470238Y-73747380D01*
X143660714Y-74223571D02*
X143327380Y-74223571D01*
X143184523Y-74747380D02*
X143660714Y-74747380D01*
X143660714Y-73747380D01*
X143184523Y-73747380D01*
X142755952Y-74747380D02*
X142755952Y-73747380D01*
X142517857Y-73747380D01*
X142375000Y-73795000D01*
X142279761Y-73890238D01*
X142232142Y-73985476D01*
X142184523Y-74175952D01*
X142184523Y-74318809D01*
X142232142Y-74509285D01*
X142279761Y-74604523D01*
X142375000Y-74699761D01*
X142517857Y-74747380D01*
X142755952Y-74747380D01*
X141851190Y-73747380D02*
X141184523Y-73747380D01*
X141613095Y-74747380D01*
D11*
X128880000Y-35485000D02*
X128880000Y-33685000D01*
X137820000Y-29975000D02*
X137820000Y-31435000D01*
X137820000Y-35485000D02*
X137820000Y-33685000D01*
X128880000Y-29975000D02*
X128880000Y-31435000D01*
X137820000Y-29975000D02*
X128880000Y-29975000D01*
X152447500Y-71782500D02*
X150447500Y-71782500D01*
X152447500Y-71782500D02*
X152447500Y-67882500D01*
X150447500Y-71782500D02*
X150447500Y-67882500D01*
X113440000Y-39167936D02*
X113440000Y-40372064D01*
X115260000Y-39167936D02*
X115260000Y-40372064D01*
X131397500Y-90832500D02*
X131397500Y-86932500D01*
X133397500Y-90832500D02*
X131397500Y-90832500D01*
X133397500Y-90832500D02*
X133397500Y-86932500D01*
X152447500Y-52732500D02*
X150447500Y-52732500D01*
X150447500Y-52732500D02*
X150447500Y-48832500D01*
X152447500Y-52732500D02*
X152447500Y-48832500D01*
D10*
X100965000Y-70534000D02*
X101981000Y-69518000D01*
X101981000Y-69518000D02*
X100965000Y-69518000D01*
X100965000Y-69518000D02*
X100965000Y-70534000D01*
G36*
X100965000Y-70534000D02*
G01*
X100965000Y-69518000D01*
X101981000Y-69518000D01*
X100965000Y-70534000D01*
G37*
X100965000Y-70534000D02*
X100965000Y-69518000D01*
X101981000Y-69518000D01*
X100965000Y-70534000D01*
D11*
X120920000Y-128932500D02*
X120920000Y-125032500D01*
X122920000Y-128932500D02*
X122920000Y-125032500D01*
X122920000Y-128932500D02*
X120920000Y-128932500D01*
X163792500Y-58111252D02*
X163792500Y-57588748D01*
X162322500Y-58111252D02*
X162322500Y-57588748D01*
X156935436Y-37365000D02*
X157389564Y-37365000D01*
X156935436Y-38835000D02*
X157389564Y-38835000D01*
X161082500Y-130828748D02*
X161082500Y-131351252D01*
X159612500Y-130828748D02*
X159612500Y-131351252D01*
X114347500Y-90832500D02*
X114347500Y-86932500D01*
X112347500Y-90832500D02*
X112347500Y-86932500D01*
X114347500Y-90832500D02*
X112347500Y-90832500D01*
D10*
X118110000Y-129716000D02*
X117094000Y-130732000D01*
X117094000Y-130732000D02*
X118110000Y-130732000D01*
X118110000Y-130732000D02*
X118110000Y-129716000D01*
G36*
X118110000Y-130732000D02*
G01*
X117094000Y-130732000D01*
X118110000Y-129716000D01*
X118110000Y-130732000D01*
G37*
X118110000Y-130732000D02*
X117094000Y-130732000D01*
X118110000Y-129716000D01*
X118110000Y-130732000D01*
D11*
X131397500Y-52732500D02*
X131397500Y-48832500D01*
X133397500Y-52732500D02*
X133397500Y-48832500D01*
X133397500Y-52732500D02*
X131397500Y-52732500D01*
D10*
X146685000Y-129716000D02*
X145669000Y-130732000D01*
X145669000Y-130732000D02*
X146685000Y-130732000D01*
X146685000Y-130732000D02*
X146685000Y-129716000D01*
G36*
X146685000Y-130732000D02*
G01*
X145669000Y-130732000D01*
X146685000Y-129716000D01*
X146685000Y-130732000D01*
G37*
X146685000Y-130732000D02*
X145669000Y-130732000D01*
X146685000Y-129716000D01*
X146685000Y-130732000D01*
D11*
X170962936Y-110455000D02*
X171417064Y-110455000D01*
X170962936Y-108985000D02*
X171417064Y-108985000D01*
X133397500Y-71782500D02*
X133397500Y-67882500D01*
X131397500Y-71782500D02*
X131397500Y-67882500D01*
X133397500Y-71782500D02*
X131397500Y-71782500D01*
X152172936Y-38835000D02*
X152627064Y-38835000D01*
X152172936Y-37365000D02*
X152627064Y-37365000D01*
D10*
X146685000Y-91616000D02*
X145669000Y-92632000D01*
X145669000Y-92632000D02*
X146685000Y-92632000D01*
X146685000Y-92632000D02*
X146685000Y-91616000D01*
G36*
X146685000Y-92632000D02*
G01*
X145669000Y-92632000D01*
X146685000Y-91616000D01*
X146685000Y-92632000D01*
G37*
X146685000Y-92632000D02*
X145669000Y-92632000D01*
X146685000Y-91616000D01*
X146685000Y-92632000D01*
D11*
X114347500Y-52732500D02*
X114347500Y-48832500D01*
X114347500Y-52732500D02*
X112347500Y-52732500D01*
X112347500Y-52732500D02*
X112347500Y-48832500D01*
D10*
X108585000Y-53516000D02*
X107569000Y-54532000D01*
X107569000Y-54532000D02*
X108585000Y-54532000D01*
X108585000Y-54532000D02*
X108585000Y-53516000D01*
G36*
X108585000Y-54532000D02*
G01*
X107569000Y-54532000D01*
X108585000Y-53516000D01*
X108585000Y-54532000D01*
G37*
X108585000Y-54532000D02*
X107569000Y-54532000D01*
X108585000Y-53516000D01*
X108585000Y-54532000D01*
D11*
X127137500Y-127497500D02*
X126647500Y-127007500D01*
X130037500Y-127497500D02*
X127137500Y-127497500D01*
X130037500Y-127497500D02*
X130527500Y-127007500D01*
X130037500Y-122057500D02*
X127137500Y-122057500D01*
X127137500Y-122057500D02*
X126647500Y-122547500D01*
X130037500Y-122057500D02*
X130527500Y-122547500D01*
X131307500Y-125817500D02*
X131307500Y-123737500D01*
X125867500Y-125817500D02*
X125867500Y-123737500D01*
X158077500Y-58111252D02*
X158077500Y-57588748D01*
X156607500Y-58111252D02*
X156607500Y-57588748D01*
D10*
X146685000Y-53516000D02*
X145669000Y-54532000D01*
X145669000Y-54532000D02*
X146685000Y-54532000D01*
X146685000Y-54532000D02*
X146685000Y-53516000D01*
G36*
X146685000Y-54532000D02*
G01*
X145669000Y-54532000D01*
X146685000Y-53516000D01*
X146685000Y-54532000D01*
G37*
X146685000Y-54532000D02*
X145669000Y-54532000D01*
X146685000Y-53516000D01*
X146685000Y-54532000D01*
D11*
X163655000Y-63102936D02*
X163655000Y-63557064D01*
X165125000Y-63102936D02*
X165125000Y-63557064D01*
D10*
X165735000Y-53516000D02*
X164719000Y-54532000D01*
X164719000Y-54532000D02*
X165735000Y-54532000D01*
X165735000Y-54532000D02*
X165735000Y-53516000D01*
G36*
X165735000Y-54532000D02*
G01*
X164719000Y-54532000D01*
X165735000Y-53516000D01*
X165735000Y-54532000D01*
G37*
X165735000Y-54532000D02*
X164719000Y-54532000D01*
X165735000Y-53516000D01*
X165735000Y-54532000D01*
D11*
X171497500Y-81307500D02*
X169497500Y-81307500D01*
X171497500Y-81307500D02*
X171497500Y-77407500D01*
X169497500Y-81307500D02*
X169497500Y-77407500D01*
D10*
X158115000Y-118159000D02*
X159131000Y-117143000D01*
X159131000Y-117143000D02*
X158115000Y-117143000D01*
X158115000Y-117143000D02*
X158115000Y-118159000D01*
G36*
X158115000Y-118159000D02*
G01*
X158115000Y-117143000D01*
X159131000Y-117143000D01*
X158115000Y-118159000D01*
G37*
X158115000Y-118159000D02*
X158115000Y-117143000D01*
X159131000Y-117143000D01*
X158115000Y-118159000D01*
D11*
X114347500Y-71782500D02*
X112347500Y-71782500D01*
X112347500Y-71782500D02*
X112347500Y-67882500D01*
X114347500Y-71782500D02*
X114347500Y-67882500D01*
X154352500Y-121312500D02*
X152352500Y-121312500D01*
X154352500Y-121312500D02*
X154352500Y-117412500D01*
X152352500Y-121312500D02*
X152352500Y-117412500D01*
X171497500Y-119407500D02*
X171497500Y-115507500D01*
X171497500Y-119407500D02*
X169497500Y-119407500D01*
X169497500Y-119407500D02*
X169497500Y-115507500D01*
X172245000Y-97731252D02*
X172245000Y-97208748D01*
X170775000Y-97731252D02*
X170775000Y-97208748D01*
X134550000Y-58700000D02*
X132150000Y-58700000D01*
X132150000Y-55600000D02*
X135100000Y-55600000D01*
X166381800Y-58111252D02*
X166381800Y-57588748D01*
X164911800Y-58111252D02*
X164911800Y-57588748D01*
D10*
X139065000Y-108634000D02*
X140081000Y-107618000D01*
X140081000Y-107618000D02*
X139065000Y-107618000D01*
X139065000Y-107618000D02*
X139065000Y-108634000D01*
G36*
X139065000Y-108634000D02*
G01*
X139065000Y-107618000D01*
X140081000Y-107618000D01*
X139065000Y-108634000D01*
G37*
X139065000Y-108634000D02*
X139065000Y-107618000D01*
X140081000Y-107618000D01*
X139065000Y-108634000D01*
D11*
X157332341Y-94737348D02*
X156819689Y-95250000D01*
X167030311Y-95250000D02*
X166517659Y-94737348D01*
X166517659Y-95762652D02*
X167030311Y-95250000D01*
X161412348Y-90657341D02*
X161925000Y-90144689D01*
X156819689Y-95250000D02*
X157332341Y-95762652D01*
X161925000Y-90144689D02*
X162437652Y-90657341D01*
X162437652Y-99842659D02*
X161925000Y-100355311D01*
X114347500Y-109882500D02*
X112347500Y-109882500D01*
X112347500Y-109882500D02*
X112347500Y-105982500D01*
X114347500Y-109882500D02*
X114347500Y-105982500D01*
X168702500Y-131351252D02*
X168702500Y-130828748D01*
X167232500Y-131351252D02*
X167232500Y-130828748D01*
X169497500Y-52732500D02*
X169497500Y-48832500D01*
X171497500Y-52732500D02*
X171497500Y-48832500D01*
X171497500Y-52732500D02*
X169497500Y-52732500D01*
X153750000Y-58111252D02*
X153750000Y-57588748D01*
X155220000Y-58111252D02*
X155220000Y-57588748D01*
X152447500Y-109882500D02*
X152447500Y-105982500D01*
X150447500Y-109882500D02*
X150447500Y-105982500D01*
X152447500Y-109882500D02*
X150447500Y-109882500D01*
D10*
X108585000Y-91616000D02*
X107569000Y-92632000D01*
X107569000Y-92632000D02*
X108585000Y-92632000D01*
X108585000Y-92632000D02*
X108585000Y-91616000D01*
G36*
X108585000Y-92632000D02*
G01*
X107569000Y-92632000D01*
X108585000Y-91616000D01*
X108585000Y-92632000D01*
G37*
X108585000Y-92632000D02*
X107569000Y-92632000D01*
X108585000Y-91616000D01*
X108585000Y-92632000D01*
D11*
X166010000Y-129440000D02*
X166010000Y-132740000D01*
X166010000Y-132740000D02*
X162010000Y-132740000D01*
D10*
X120015000Y-108634000D02*
X121031000Y-107618000D01*
X121031000Y-107618000D02*
X120015000Y-107618000D01*
X120015000Y-107618000D02*
X120015000Y-108634000D01*
G36*
X120015000Y-108634000D02*
G01*
X120015000Y-107618000D01*
X121031000Y-107618000D01*
X120015000Y-108634000D01*
G37*
X120015000Y-108634000D02*
X120015000Y-107618000D01*
X121031000Y-107618000D01*
X120015000Y-108634000D01*
D11*
X131397500Y-109882500D02*
X131397500Y-105982500D01*
X133397500Y-109882500D02*
X133397500Y-105982500D01*
X133397500Y-109882500D02*
X131397500Y-109882500D01*
D10*
X158115000Y-80059000D02*
X159131000Y-79043000D01*
X159131000Y-79043000D02*
X158115000Y-79043000D01*
X158115000Y-79043000D02*
X158115000Y-80059000D01*
G36*
X158115000Y-80059000D02*
G01*
X158115000Y-79043000D01*
X159131000Y-79043000D01*
X158115000Y-80059000D01*
G37*
X158115000Y-80059000D02*
X158115000Y-79043000D01*
X159131000Y-79043000D01*
X158115000Y-80059000D01*
D11*
X154352500Y-83212500D02*
X154352500Y-79312500D01*
X152352500Y-83212500D02*
X152352500Y-79312500D01*
X154352500Y-83212500D02*
X152352500Y-83212500D01*
X159465000Y-58111252D02*
X159465000Y-57588748D01*
X160935000Y-58111252D02*
X160935000Y-57588748D01*
D10*
X127635000Y-53516000D02*
X126619000Y-54532000D01*
X126619000Y-54532000D02*
X127635000Y-54532000D01*
X127635000Y-54532000D02*
X127635000Y-53516000D01*
G36*
X127635000Y-54532000D02*
G01*
X126619000Y-54532000D01*
X127635000Y-53516000D01*
X127635000Y-54532000D01*
G37*
X127635000Y-54532000D02*
X126619000Y-54532000D01*
X127635000Y-53516000D01*
X127635000Y-54532000D01*
D11*
X130985000Y-119237064D02*
X130985000Y-118782936D01*
X132455000Y-119237064D02*
X132455000Y-118782936D01*
X162345000Y-63102936D02*
X162345000Y-63557064D01*
X160875000Y-63102936D02*
X160875000Y-63557064D01*
D10*
X120015000Y-70534000D02*
X121031000Y-69518000D01*
X121031000Y-69518000D02*
X120015000Y-69518000D01*
X120015000Y-69518000D02*
X120015000Y-70534000D01*
G36*
X120015000Y-70534000D02*
G01*
X120015000Y-69518000D01*
X121031000Y-69518000D01*
X120015000Y-70534000D01*
G37*
X120015000Y-70534000D02*
X120015000Y-69518000D01*
X121031000Y-69518000D01*
X120015000Y-70534000D01*
X100965000Y-108634000D02*
X101981000Y-107618000D01*
X101981000Y-107618000D02*
X100965000Y-107618000D01*
X100965000Y-107618000D02*
X100965000Y-108634000D01*
G36*
X100965000Y-108634000D02*
G01*
X100965000Y-107618000D01*
X101981000Y-107618000D01*
X100965000Y-108634000D01*
G37*
X100965000Y-108634000D02*
X100965000Y-107618000D01*
X101981000Y-107618000D01*
X100965000Y-108634000D01*
X127635000Y-91616000D02*
X126619000Y-92632000D01*
X126619000Y-92632000D02*
X127635000Y-92632000D01*
X127635000Y-92632000D02*
X127635000Y-91616000D01*
G36*
X127635000Y-92632000D02*
G01*
X126619000Y-92632000D01*
X127635000Y-91616000D01*
X127635000Y-92632000D01*
G37*
X127635000Y-92632000D02*
X126619000Y-92632000D01*
X127635000Y-91616000D01*
X127635000Y-92632000D01*
X139065000Y-70534000D02*
X140081000Y-69518000D01*
X140081000Y-69518000D02*
X139065000Y-69518000D01*
X139065000Y-69518000D02*
X139065000Y-70534000D01*
G36*
X139065000Y-70534000D02*
G01*
X139065000Y-69518000D01*
X140081000Y-69518000D01*
X139065000Y-70534000D01*
G37*
X139065000Y-70534000D02*
X139065000Y-69518000D01*
X140081000Y-69518000D01*
X139065000Y-70534000D01*
%LPC*%
D12*
X136240000Y-36265000D03*
X130460000Y-36265000D03*
D13*
X130150000Y-37325000D03*
X130950000Y-37325000D03*
D14*
X132100000Y-37325000D03*
X133100000Y-37325000D03*
X133600000Y-37325000D03*
X134600000Y-37325000D03*
D13*
X135750000Y-37325000D03*
X136550000Y-37325000D03*
X136550000Y-37325000D03*
X135750000Y-37325000D03*
D14*
X135100000Y-37325000D03*
X134100000Y-37325000D03*
X132600000Y-37325000D03*
X131600000Y-37325000D03*
D13*
X130950000Y-37325000D03*
X130150000Y-37325000D03*
D15*
X129030000Y-36745000D03*
D16*
X137670000Y-32575000D03*
D15*
X137670000Y-36745000D03*
D16*
X129030000Y-32575000D03*
D17*
X151447500Y-71182500D03*
X151447500Y-67882500D03*
D18*
X114350000Y-38370000D03*
X114350000Y-41170000D03*
D19*
X147955000Y-123825000D03*
D20*
X145415000Y-118745000D03*
D21*
X142875000Y-123825000D03*
D19*
X137795000Y-123825000D03*
D20*
X139065000Y-121285000D03*
D22*
X135790000Y-121285000D03*
X148717000Y-118745000D03*
D17*
X132397500Y-90232500D03*
X132397500Y-86932500D03*
X151447500Y-52132500D03*
X151447500Y-48832500D03*
D23*
X107475000Y-72300000D03*
X107475000Y-70800000D03*
X102075000Y-70800000D03*
X102075000Y-72300000D03*
D17*
X121920000Y-128332500D03*
X121920000Y-125032500D03*
D24*
X163057500Y-58800000D03*
X163057500Y-56900000D03*
D25*
X156250000Y-38100000D03*
X158075000Y-38100000D03*
D26*
X160347500Y-130140000D03*
X160347500Y-132040000D03*
D17*
X113347500Y-90232500D03*
X113347500Y-86932500D03*
D23*
X111600000Y-127950000D03*
X111600000Y-129450000D03*
X117000000Y-129450000D03*
X117000000Y-127950000D03*
D17*
X132397500Y-52132500D03*
X132397500Y-48832500D03*
D23*
X140175000Y-127950000D03*
X140175000Y-129450000D03*
X145575000Y-129450000D03*
X145575000Y-127950000D03*
D20*
X107315000Y-61595000D03*
D21*
X104775000Y-66675000D03*
D19*
X109855000Y-66675000D03*
X99695000Y-66675000D03*
D20*
X100965000Y-64135000D03*
D22*
X97690000Y-64135000D03*
X110617000Y-61595000D03*
D25*
X170277500Y-109720000D03*
X172102500Y-109720000D03*
D20*
X120015000Y-45085000D03*
D19*
X128905000Y-47625000D03*
X118745000Y-47625000D03*
D21*
X123825000Y-47625000D03*
D20*
X126365000Y-42545000D03*
D22*
X116740000Y-45085000D03*
X129667000Y-42545000D03*
D17*
X132397500Y-71182500D03*
X132397500Y-67882500D03*
D25*
X151487500Y-38100000D03*
X153312500Y-38100000D03*
D23*
X140175000Y-89850000D03*
X140175000Y-91350000D03*
X145575000Y-91350000D03*
X145575000Y-89850000D03*
D17*
X113347500Y-52132500D03*
X113347500Y-48832500D03*
D23*
X102075000Y-51750000D03*
X102075000Y-53250000D03*
X107475000Y-53250000D03*
X107475000Y-51750000D03*
D27*
X125487500Y-122927500D03*
X131687500Y-122927500D03*
X131687500Y-126627500D03*
X125487500Y-126627500D03*
D20*
X158115000Y-45085000D03*
D19*
X156845000Y-47625000D03*
D21*
X161925000Y-47625000D03*
D20*
X164465000Y-42545000D03*
D19*
X167005000Y-47625000D03*
D22*
X154840000Y-45085000D03*
X167767000Y-42545000D03*
D19*
X118745000Y-66675000D03*
D20*
X120015000Y-64135000D03*
X126365000Y-61595000D03*
D19*
X128905000Y-66675000D03*
D21*
X123825000Y-66675000D03*
D22*
X116740000Y-64135000D03*
X129667000Y-61595000D03*
D24*
X157342500Y-58800000D03*
X157342500Y-56900000D03*
D23*
X140175000Y-51750000D03*
X140175000Y-53250000D03*
X145575000Y-53250000D03*
X145575000Y-51750000D03*
D20*
X145415000Y-99695000D03*
D19*
X147955000Y-104775000D03*
X137795000Y-104775000D03*
D21*
X142875000Y-104775000D03*
D20*
X139065000Y-102235000D03*
D22*
X135790000Y-102235000D03*
X148717000Y-99695000D03*
D28*
X164390000Y-62417500D03*
X164390000Y-64242500D03*
D23*
X159225000Y-51750000D03*
X159225000Y-53250000D03*
X164625000Y-53250000D03*
X164625000Y-51750000D03*
D17*
X170497500Y-80707500D03*
X170497500Y-77407500D03*
D23*
X164625000Y-119925000D03*
X164625000Y-118425000D03*
X159225000Y-118425000D03*
X159225000Y-119925000D03*
D17*
X113347500Y-71182500D03*
X113347500Y-67882500D03*
D20*
X158115000Y-111760000D03*
D21*
X170180000Y-126238000D03*
X161925000Y-114300000D03*
X170180000Y-102362000D03*
D19*
X156845000Y-114300000D03*
D29*
X154940000Y-102362000D03*
D19*
X167005000Y-114300000D03*
D20*
X164465000Y-109220000D03*
D29*
X154940000Y-126238000D03*
D22*
X154840000Y-111760000D03*
X167767000Y-109220000D03*
D17*
X153352500Y-120712500D03*
X153352500Y-117412500D03*
D21*
X123825000Y-104775000D03*
D19*
X128905000Y-104775000D03*
D20*
X126365000Y-99695000D03*
D19*
X118745000Y-104775000D03*
D20*
X120015000Y-102235000D03*
D22*
X116740000Y-102235000D03*
X129667000Y-99695000D03*
D17*
X170497500Y-118807500D03*
X170497500Y-115507500D03*
D24*
X171510000Y-98420000D03*
X171510000Y-96520000D03*
D30*
X134450000Y-56380000D03*
D31*
X134450000Y-58100000D03*
X132250000Y-58100000D03*
X132250000Y-56200000D03*
D19*
X99695000Y-85725000D03*
D20*
X107315000Y-80645000D03*
D21*
X104775000Y-85725000D03*
D20*
X100965000Y-83185000D03*
D19*
X109855000Y-85725000D03*
D22*
X97690000Y-83185000D03*
X110617000Y-80645000D03*
D24*
X165646800Y-58800000D03*
X165646800Y-56900000D03*
D20*
X139065000Y-83185000D03*
X145415000Y-80645000D03*
D19*
X137795000Y-85725000D03*
D21*
X142875000Y-85725000D03*
D19*
X147955000Y-85725000D03*
D22*
X135790000Y-83185000D03*
X148717000Y-80645000D03*
D23*
X145575000Y-110400000D03*
X145575000Y-108900000D03*
X140175000Y-108900000D03*
X140175000Y-110400000D03*
D19*
X99695000Y-47625000D03*
D20*
X100965000Y-45085000D03*
D21*
X104775000Y-47625000D03*
D20*
X107315000Y-42545000D03*
D19*
X109855000Y-47625000D03*
D22*
X97690000Y-45085000D03*
X110617000Y-42545000D03*
D32*
X161332798Y-99377736D03*
X160979245Y-99024182D03*
X160625691Y-98670629D03*
X160272138Y-98317076D03*
X159918585Y-97963522D03*
X159565031Y-97609969D03*
X159211478Y-97256415D03*
X158857924Y-96902862D03*
X158504371Y-96549309D03*
X158150818Y-96195755D03*
X157797264Y-95842202D03*
D33*
X157797264Y-94657798D03*
X158150818Y-94304245D03*
X158504371Y-93950691D03*
X158857924Y-93597138D03*
X159211478Y-93243585D03*
X159565031Y-92890031D03*
X159918585Y-92536478D03*
X160272138Y-92182924D03*
X160625691Y-91829371D03*
X160979245Y-91475818D03*
X161332798Y-91122264D03*
D32*
X162517202Y-91122264D03*
X162870755Y-91475818D03*
X163224309Y-91829371D03*
X163577862Y-92182924D03*
X163931415Y-92536478D03*
X164284969Y-92890031D03*
X164638522Y-93243585D03*
X164992076Y-93597138D03*
X165345629Y-93950691D03*
X165699182Y-94304245D03*
X166052736Y-94657798D03*
D33*
X166052736Y-95842202D03*
X165699182Y-96195755D03*
X165345629Y-96549309D03*
X164992076Y-96902862D03*
X164638522Y-97256415D03*
X164284969Y-97609969D03*
X163931415Y-97963522D03*
X163577862Y-98317076D03*
X163224309Y-98670629D03*
X162870755Y-99024182D03*
X162517202Y-99377736D03*
D34*
X161925000Y-95250000D03*
D17*
X113347500Y-109282500D03*
X113347500Y-105982500D03*
D24*
X167967500Y-132040000D03*
X167967500Y-130140000D03*
D20*
X164465000Y-71120000D03*
D29*
X154940000Y-64262000D03*
D19*
X156845000Y-76200000D03*
D20*
X158115000Y-73660000D03*
D21*
X170180000Y-64262000D03*
D19*
X167005000Y-76200000D03*
D21*
X170180000Y-88138000D03*
X161925000Y-76200000D03*
D29*
X154940000Y-88138000D03*
D22*
X154840000Y-73660000D03*
X167767000Y-71120000D03*
D20*
X126365000Y-80645000D03*
D19*
X118745000Y-85725000D03*
D20*
X120015000Y-83185000D03*
D19*
X128905000Y-85725000D03*
D21*
X123825000Y-85725000D03*
D22*
X116740000Y-83185000D03*
X129667000Y-80645000D03*
D17*
X170497500Y-52132500D03*
X170497500Y-48832500D03*
D24*
X154485000Y-58800000D03*
X154485000Y-56900000D03*
D17*
X151447500Y-109282500D03*
X151447500Y-105982500D03*
D23*
X102075000Y-89850000D03*
X102075000Y-91350000D03*
X107475000Y-91350000D03*
X107475000Y-89850000D03*
D20*
X145415000Y-61595000D03*
D19*
X147955000Y-66675000D03*
X137795000Y-66675000D03*
D21*
X142875000Y-66675000D03*
D20*
X139065000Y-64135000D03*
D22*
X135790000Y-64135000D03*
X148717000Y-61595000D03*
D30*
X165110000Y-131940000D03*
X162910000Y-131940000D03*
X162910000Y-130240000D03*
X165110000Y-130240000D03*
D23*
X126525000Y-110400000D03*
X126525000Y-108900000D03*
X121125000Y-108900000D03*
X121125000Y-110400000D03*
D17*
X132397500Y-109282500D03*
X132397500Y-105982500D03*
D23*
X164625000Y-81825000D03*
X164625000Y-80325000D03*
X159225000Y-80325000D03*
X159225000Y-81825000D03*
D17*
X153352500Y-82612500D03*
X153352500Y-79312500D03*
D24*
X160200000Y-58800000D03*
X160200000Y-56900000D03*
D21*
X102362000Y-132080000D03*
X114300000Y-123825000D03*
D29*
X102362000Y-116840000D03*
X126238000Y-116840000D03*
D19*
X119380000Y-123825000D03*
D21*
X126238000Y-132080000D03*
D20*
X116840000Y-118745000D03*
D19*
X109220000Y-123825000D03*
D20*
X110490000Y-121285000D03*
D22*
X107215000Y-121285000D03*
X120142000Y-118745000D03*
D19*
X99695000Y-104775000D03*
X109855000Y-104775000D03*
D21*
X104775000Y-104775000D03*
D20*
X100965000Y-102235000D03*
X107315000Y-99695000D03*
D22*
X97690000Y-102235000D03*
X110617000Y-99695000D03*
D23*
X121125000Y-51750000D03*
X121125000Y-53250000D03*
X126525000Y-53250000D03*
X126525000Y-51750000D03*
D35*
X131720000Y-119922500D03*
X131720000Y-118097500D03*
D28*
X161610000Y-62417500D03*
X161610000Y-64242500D03*
D23*
X126525000Y-72300000D03*
X126525000Y-70800000D03*
X121125000Y-70800000D03*
X121125000Y-72300000D03*
D20*
X139065000Y-45085000D03*
D21*
X142875000Y-47625000D03*
D19*
X137795000Y-47625000D03*
X147955000Y-47625000D03*
D20*
X145415000Y-42545000D03*
D22*
X135790000Y-45085000D03*
X148717000Y-42545000D03*
D23*
X107475000Y-110400000D03*
X107475000Y-108900000D03*
X102075000Y-108900000D03*
X102075000Y-110400000D03*
X121125000Y-89850000D03*
X121125000Y-91350000D03*
X126525000Y-91350000D03*
X126525000Y-89850000D03*
X145575000Y-72300000D03*
X145575000Y-70800000D03*
X140175000Y-70800000D03*
X140175000Y-72300000D03*
M02*
