G04 #@! TF.GenerationSoftware,KiCad,Pcbnew,(6.0.1)*
G04 #@! TF.CreationDate,2022-02-22T23:39:04+09:00*
G04 #@! TF.ProjectId,SkeletonNumPad,536b656c-6574-46f6-9e4e-756d5061642e,rev?*
G04 #@! TF.SameCoordinates,Original*
G04 #@! TF.FileFunction,Paste,Bot*
G04 #@! TF.FilePolarity,Positive*
%FSLAX46Y46*%
G04 Gerber Fmt 4.6, Leading zero omitted, Abs format (unit mm)*
G04 Created by KiCad (PCBNEW (6.0.1)) date 2022-02-22 23:39:04*
%MOMM*%
%LPD*%
G01*
G04 APERTURE LIST*
G04 Aperture macros list*
%AMRoundRect*
0 Rectangle with rounded corners*
0 $1 Rounding radius*
0 $2 $3 $4 $5 $6 $7 $8 $9 X,Y pos of 4 corners*
0 Add a 4 corners polygon primitive as box body*
4,1,4,$2,$3,$4,$5,$6,$7,$8,$9,$2,$3,0*
0 Add four circle primitives for the rounded corners*
1,1,$1+$1,$2,$3*
1,1,$1+$1,$4,$5*
1,1,$1+$1,$6,$7*
1,1,$1+$1,$8,$9*
0 Add four rect primitives between the rounded corners*
20,1,$1+$1,$2,$3,$4,$5,0*
20,1,$1+$1,$4,$5,$6,$7,0*
20,1,$1+$1,$6,$7,$8,$9,0*
20,1,$1+$1,$8,$9,$2,$3,0*%
G04 Aperture macros list end*
%ADD10R,0.600000X1.160000*%
%ADD11R,0.300000X1.160000*%
%ADD12R,1.200000X0.900000*%
%ADD13RoundRect,0.250000X-0.625000X0.375000X-0.625000X-0.375000X0.625000X-0.375000X0.625000X0.375000X0*%
%ADD14R,2.550000X2.500000*%
%ADD15R,1.700000X0.820000*%
%ADD16RoundRect,0.250000X0.475000X-0.250000X0.475000X0.250000X-0.475000X0.250000X-0.475000X-0.250000X0*%
%ADD17RoundRect,0.250000X-0.262500X-0.450000X0.262500X-0.450000X0.262500X0.450000X-0.262500X0.450000X0*%
%ADD18RoundRect,0.250000X-0.475000X0.250000X-0.475000X-0.250000X0.475000X-0.250000X0.475000X0.250000X0*%
%ADD19R,1.800000X1.100000*%
%ADD20RoundRect,0.250000X-0.450000X0.262500X-0.450000X-0.262500X0.450000X-0.262500X0.450000X0.262500X0*%
%ADD21R,1.400000X1.200000*%
%ADD22R,1.400000X1.000000*%
%ADD23RoundRect,0.250000X0.000000X-0.388909X0.388909X0.000000X0.000000X0.388909X-0.388909X0.000000X0*%
%ADD24RoundRect,0.062500X-0.291682X-0.380070X0.380070X0.291682X0.291682X0.380070X-0.380070X-0.291682X0*%
%ADD25RoundRect,0.062500X0.291682X-0.380070X0.380070X-0.291682X-0.291682X0.380070X-0.380070X0.291682X0*%
%ADD26RoundRect,0.250000X0.450000X-0.262500X0.450000X0.262500X-0.450000X0.262500X-0.450000X-0.262500X0*%
G04 APERTURE END LIST*
D10*
X130150000Y-37325000D03*
X130950000Y-37325000D03*
D11*
X132100000Y-37325000D03*
X133100000Y-37325000D03*
X133600000Y-37325000D03*
X134600000Y-37325000D03*
D10*
X135750000Y-37325000D03*
X136550000Y-37325000D03*
X136550000Y-37325000D03*
X135750000Y-37325000D03*
D11*
X135100000Y-37325000D03*
X134100000Y-37325000D03*
X132600000Y-37325000D03*
X131600000Y-37325000D03*
D10*
X130950000Y-37325000D03*
X130150000Y-37325000D03*
D12*
X151447500Y-71182500D03*
X151447500Y-67882500D03*
D13*
X114350000Y-38370000D03*
X114350000Y-41170000D03*
D14*
X135790000Y-121285000D03*
X148717000Y-118745000D03*
D12*
X132397500Y-90232500D03*
X132397500Y-86932500D03*
X151447500Y-52132500D03*
X151447500Y-48832500D03*
D15*
X107475000Y-72300000D03*
X107475000Y-70800000D03*
X102075000Y-70800000D03*
X102075000Y-72300000D03*
D12*
X121920000Y-128332500D03*
X121920000Y-125032500D03*
D16*
X163057500Y-58800000D03*
X163057500Y-56900000D03*
D17*
X156250000Y-38100000D03*
X158075000Y-38100000D03*
D18*
X160347500Y-130140000D03*
X160347500Y-132040000D03*
D12*
X113347500Y-90232500D03*
X113347500Y-86932500D03*
D15*
X111600000Y-127950000D03*
X111600000Y-129450000D03*
X117000000Y-129450000D03*
X117000000Y-127950000D03*
D12*
X132397500Y-52132500D03*
X132397500Y-48832500D03*
D15*
X140175000Y-127950000D03*
X140175000Y-129450000D03*
X145575000Y-129450000D03*
X145575000Y-127950000D03*
D14*
X97690000Y-64135000D03*
X110617000Y-61595000D03*
D17*
X170277500Y-109720000D03*
X172102500Y-109720000D03*
D14*
X116740000Y-45085000D03*
X129667000Y-42545000D03*
D12*
X132397500Y-71182500D03*
X132397500Y-67882500D03*
D17*
X151487500Y-38100000D03*
X153312500Y-38100000D03*
D15*
X140175000Y-89850000D03*
X140175000Y-91350000D03*
X145575000Y-91350000D03*
X145575000Y-89850000D03*
D12*
X113347500Y-52132500D03*
X113347500Y-48832500D03*
D15*
X102075000Y-51750000D03*
X102075000Y-53250000D03*
X107475000Y-53250000D03*
X107475000Y-51750000D03*
D19*
X125487500Y-122927500D03*
X131687500Y-122927500D03*
X131687500Y-126627500D03*
X125487500Y-126627500D03*
D14*
X154840000Y-45085000D03*
X167767000Y-42545000D03*
X116740000Y-64135000D03*
X129667000Y-61595000D03*
D16*
X157342500Y-58800000D03*
X157342500Y-56900000D03*
D15*
X140175000Y-51750000D03*
X140175000Y-53250000D03*
X145575000Y-53250000D03*
X145575000Y-51750000D03*
D14*
X135790000Y-102235000D03*
X148717000Y-99695000D03*
D20*
X164390000Y-62417500D03*
X164390000Y-64242500D03*
D15*
X159225000Y-51750000D03*
X159225000Y-53250000D03*
X164625000Y-53250000D03*
X164625000Y-51750000D03*
D12*
X170497500Y-80707500D03*
X170497500Y-77407500D03*
D15*
X164625000Y-119925000D03*
X164625000Y-118425000D03*
X159225000Y-118425000D03*
X159225000Y-119925000D03*
D12*
X113347500Y-71182500D03*
X113347500Y-67882500D03*
D14*
X154840000Y-111760000D03*
X167767000Y-109220000D03*
D12*
X153352500Y-120712500D03*
X153352500Y-117412500D03*
D14*
X116740000Y-102235000D03*
X129667000Y-99695000D03*
D12*
X170497500Y-118807500D03*
X170497500Y-115507500D03*
D16*
X171510000Y-98420000D03*
X171510000Y-96520000D03*
D21*
X134450000Y-56380000D03*
D22*
X134450000Y-58100000D03*
X132250000Y-58100000D03*
X132250000Y-56200000D03*
D14*
X97690000Y-83185000D03*
X110617000Y-80645000D03*
D16*
X165646800Y-58800000D03*
X165646800Y-56900000D03*
D14*
X135790000Y-83185000D03*
X148717000Y-80645000D03*
D15*
X145575000Y-110400000D03*
X145575000Y-108900000D03*
X140175000Y-108900000D03*
X140175000Y-110400000D03*
D14*
X97690000Y-45085000D03*
X110617000Y-42545000D03*
D23*
X161005761Y-93411522D03*
X161005761Y-95250000D03*
X161925000Y-98007716D03*
X160086522Y-94330761D03*
X164682716Y-95250000D03*
X161925000Y-96169239D03*
X161005761Y-97088478D03*
X163763478Y-94330761D03*
X159167284Y-95250000D03*
X162844239Y-95250000D03*
X161925000Y-92492284D03*
X163763478Y-96169239D03*
X161925000Y-94330761D03*
X160086522Y-96169239D03*
X162844239Y-97088478D03*
X162844239Y-93411522D03*
D24*
X161332798Y-99377736D03*
X160979245Y-99024182D03*
X160625691Y-98670629D03*
X160272138Y-98317076D03*
X159918585Y-97963522D03*
X159565031Y-97609969D03*
X159211478Y-97256415D03*
X158857924Y-96902862D03*
X158504371Y-96549309D03*
X158150818Y-96195755D03*
X157797264Y-95842202D03*
D25*
X157797264Y-94657798D03*
X158150818Y-94304245D03*
X158504371Y-93950691D03*
X158857924Y-93597138D03*
X159211478Y-93243585D03*
X159565031Y-92890031D03*
X159918585Y-92536478D03*
X160272138Y-92182924D03*
X160625691Y-91829371D03*
X160979245Y-91475818D03*
X161332798Y-91122264D03*
D24*
X162517202Y-91122264D03*
X162870755Y-91475818D03*
X163224309Y-91829371D03*
X163577862Y-92182924D03*
X163931415Y-92536478D03*
X164284969Y-92890031D03*
X164638522Y-93243585D03*
X164992076Y-93597138D03*
X165345629Y-93950691D03*
X165699182Y-94304245D03*
X166052736Y-94657798D03*
D25*
X166052736Y-95842202D03*
X165699182Y-96195755D03*
X165345629Y-96549309D03*
X164992076Y-96902862D03*
X164638522Y-97256415D03*
X164284969Y-97609969D03*
X163931415Y-97963522D03*
X163577862Y-98317076D03*
X163224309Y-98670629D03*
X162870755Y-99024182D03*
X162517202Y-99377736D03*
D12*
X113347500Y-109282500D03*
X113347500Y-105982500D03*
D16*
X167967500Y-132040000D03*
X167967500Y-130140000D03*
D14*
X154840000Y-73660000D03*
X167767000Y-71120000D03*
X116740000Y-83185000D03*
X129667000Y-80645000D03*
D12*
X170497500Y-52132500D03*
X170497500Y-48832500D03*
D16*
X154485000Y-58800000D03*
X154485000Y-56900000D03*
D12*
X151447500Y-109282500D03*
X151447500Y-105982500D03*
D15*
X102075000Y-89850000D03*
X102075000Y-91350000D03*
X107475000Y-91350000D03*
X107475000Y-89850000D03*
D14*
X135790000Y-64135000D03*
X148717000Y-61595000D03*
D21*
X165110000Y-131940000D03*
X162910000Y-131940000D03*
X162910000Y-130240000D03*
X165110000Y-130240000D03*
D15*
X126525000Y-110400000D03*
X126525000Y-108900000D03*
X121125000Y-108900000D03*
X121125000Y-110400000D03*
D12*
X132397500Y-109282500D03*
X132397500Y-105982500D03*
D15*
X164625000Y-81825000D03*
X164625000Y-80325000D03*
X159225000Y-80325000D03*
X159225000Y-81825000D03*
D12*
X153352500Y-82612500D03*
X153352500Y-79312500D03*
D16*
X160200000Y-58800000D03*
X160200000Y-56900000D03*
D14*
X107215000Y-121285000D03*
X120142000Y-118745000D03*
X97690000Y-102235000D03*
X110617000Y-99695000D03*
D15*
X121125000Y-51750000D03*
X121125000Y-53250000D03*
X126525000Y-53250000D03*
X126525000Y-51750000D03*
D26*
X131720000Y-119922500D03*
X131720000Y-118097500D03*
D20*
X161610000Y-62417500D03*
X161610000Y-64242500D03*
D15*
X126525000Y-72300000D03*
X126525000Y-70800000D03*
X121125000Y-70800000D03*
X121125000Y-72300000D03*
D14*
X135790000Y-45085000D03*
X148717000Y-42545000D03*
D15*
X107475000Y-110400000D03*
X107475000Y-108900000D03*
X102075000Y-108900000D03*
X102075000Y-110400000D03*
X121125000Y-89850000D03*
X121125000Y-91350000D03*
X126525000Y-91350000D03*
X126525000Y-89850000D03*
X145575000Y-72300000D03*
X145575000Y-70800000D03*
X140175000Y-70800000D03*
X140175000Y-72300000D03*
M02*
