%FSLAX45Y45*%
G04 Gerber Fmt 4.5, Leading zero omitted, Abs format (unit mm)*
G04 Created by KiCad (PCBNEW (6.0.1)) date 2022-05-09 18:45:46*
%MOMM*%
%LPD*%
G01*
G04 APERTURE LIST*
%TA.AperFunction,Profile*%
%ADD10C,0.100000*%
%TD*%
%ADD11C,0.200000*%
%ADD12C,0.060000*%
%ADD13C,0.175000*%
%ADD14C,0.300000*%
%ADD15C,0.304800*%
%ADD16C,0.398780*%
G04 APERTURE END LIST*
D10*
X21915000Y-10951000D02*
X16830000Y-12033000D01*
X34755000Y-10479000D02*
G75*
G03*
X34805000Y-10429000I0J50000D01*
G01*
X34754000Y-8572000D02*
X32899000Y-8572000D01*
X34424000Y-4572000D02*
X34423000Y-2717000D01*
X1143000Y-10428000D02*
G75*
G03*
X1193000Y-10478000I50000J0D01*
G01*
X21915000Y-10951000D02*
X21924355Y-10986645D01*
X34805000Y-4622000D02*
G75*
G03*
X34755000Y-4572000I-50000J0D01*
G01*
X9132645Y-11029645D02*
X6432000Y-10454000D01*
X1717000Y-4762000D02*
X1972000Y-4762000D01*
X2021000Y-2857000D02*
X2400000Y-2857000D01*
X1972000Y-4762000D02*
X1971000Y-2907000D01*
X24673000Y-10462000D02*
G75*
G03*
X24723000Y-10412000I0J50000D01*
G01*
X1657000Y-6670000D02*
X1657000Y-4822000D01*
X24723000Y-10412000D02*
X24332000Y-8573000D01*
X34042000Y-2667000D02*
X34042000Y-812000D01*
X34804000Y-8622000D02*
G75*
G03*
X34754000Y-8572000I-50000J0D01*
G01*
X16390000Y0D02*
X16390000Y-762000D01*
X16390000Y-762000D02*
X33992000Y-762000D01*
X1200000Y-6669000D02*
G75*
G03*
X1150000Y-6719000I0J-50000D01*
G01*
X3951000Y-10477000D02*
X1193000Y-10478000D01*
X2450000Y-762000D02*
X15190000Y-762000D01*
X4001000Y-10427000D02*
X4000000Y-8750000D01*
X3951000Y-10477000D02*
G75*
G03*
X4001000Y-10427000I0J50000D01*
G01*
X16390000Y0D02*
G75*
G03*
X16340000Y50000I-50000J0D01*
G01*
X6382000Y-10404000D02*
G75*
G03*
X6432000Y-10454000I50000J0D01*
G01*
X9191000Y-10943000D02*
X9182645Y-10979645D01*
X14742000Y-12124000D02*
G75*
G03*
X14792000Y-12074000I0J50000D01*
G01*
X2450000Y-762000D02*
G75*
G03*
X2400000Y-812000I0J-50000D01*
G01*
X32899000Y-8572000D02*
X32899000Y-6476000D01*
X6736000Y-8750000D02*
X6382000Y-10404000D01*
X34754000Y-6477000D02*
G75*
G03*
X34804000Y-6427000I0J50000D01*
G01*
X14742000Y-12124000D02*
X9191000Y-10943000D01*
X34804000Y-6427000D02*
X34805000Y-4622000D01*
X1200000Y-6669000D02*
X1657000Y-6670000D01*
X26231000Y-10428000D02*
G75*
G03*
X26281000Y-10478000I50000J0D01*
G01*
X15190000Y-10200000D02*
X16402000Y-10201000D01*
X15190000Y-762000D02*
X15190000Y0D01*
X34755000Y-10479000D02*
X26281000Y-10478000D01*
X34423000Y-2717000D02*
G75*
G03*
X34373000Y-2667000I-50000J0D01*
G01*
X32899000Y-6476000D02*
X34754000Y-6477000D01*
X34373000Y-2667000D02*
X34042000Y-2667000D01*
X26231000Y-8573000D02*
X26231000Y-10428000D01*
X24332000Y-8573000D02*
X26231000Y-8573000D01*
X1143000Y-10428000D02*
X1150000Y-6719000D01*
X9132645Y-11029645D02*
G75*
G03*
X9182645Y-10979645I0J50000D01*
G01*
X34804000Y-8622000D02*
X34805000Y-10429000D01*
X2400000Y-2857000D02*
X2400000Y-812000D01*
X16780000Y-11983000D02*
G75*
G03*
X16830000Y-12033000I50000J0D01*
G01*
X21924355Y-10986645D02*
G75*
G03*
X21974355Y-11036645I50000J0D01*
G01*
X1717000Y-4762000D02*
G75*
G03*
X1657000Y-4822000I0J-60000D01*
G01*
X15240000Y50000D02*
G75*
G03*
X15190000Y0I0J-50000D01*
G01*
X14792000Y-12074000D02*
X15190000Y-10200000D01*
X2021000Y-2857000D02*
G75*
G03*
X1971000Y-2907000I0J-50000D01*
G01*
X15240000Y50000D02*
X16340000Y50000D01*
X16402000Y-10201000D02*
X16780000Y-11983000D01*
X21974355Y-11036645D02*
X24673000Y-10462000D01*
X34042000Y-812000D02*
G75*
G03*
X33992000Y-762000I-50000J0D01*
G01*
X4000000Y-8750000D02*
X6736000Y-8750000D01*
X34755000Y-4572000D02*
X34424000Y-4572000D01*
D11*
D12*
X15477000Y-502500D02*
X15537000Y-562500D01*
X15537000Y-502500D02*
X15477000Y-562500D01*
X16055000Y-502500D02*
X16115000Y-562500D01*
X16115000Y-502500D02*
X16055000Y-562500D01*
D13*
X2151300Y-9525000D02*
G75*
G03*
X2151300Y-9525000I-87500J0D01*
G01*
X2873060Y-7620000D02*
G75*
G03*
X2873060Y-7620000I-87500J0D01*
G01*
X2903750Y-5715000D02*
G75*
G03*
X2903750Y-5715000I-87500J0D01*
G01*
X2932300Y-1905000D02*
G75*
G03*
X2932300Y-1905000I-87500J0D01*
G01*
X2979980Y-3810000D02*
G75*
G03*
X2979980Y-3810000I-87500J0D01*
G01*
X3167300Y-9525000D02*
G75*
G03*
X3167300Y-9525000I-87500J0D01*
G01*
X3889060Y-7620000D02*
G75*
G03*
X3889060Y-7620000I-87500J0D01*
G01*
X3919750Y-5715000D02*
G75*
G03*
X3919750Y-5715000I-87500J0D01*
G01*
X3948300Y-1905000D02*
G75*
G03*
X3948300Y-1905000I-87500J0D01*
G01*
X3995980Y-3810000D02*
G75*
G03*
X3995980Y-3810000I-87500J0D01*
G01*
X4837300Y-1905000D02*
G75*
G03*
X4837300Y-1905000I-87500J0D01*
G01*
X5361180Y-3810000D02*
G75*
G03*
X5361180Y-3810000I-87500J0D01*
G01*
X5523100Y-5715000D02*
G75*
G03*
X5523100Y-5715000I-87500J0D01*
G01*
X5853300Y-1905000D02*
G75*
G03*
X5853300Y-1905000I-87500J0D01*
G01*
X5961250Y-7620000D02*
G75*
G03*
X5961250Y-7620000I-87500J0D01*
G01*
X6377180Y-3810000D02*
G75*
G03*
X6377180Y-3810000I-87500J0D01*
G01*
X6539100Y-5715000D02*
G75*
G03*
X6539100Y-5715000I-87500J0D01*
G01*
X6742300Y-1752600D02*
G75*
G03*
X6742300Y-1752600I-87500J0D01*
G01*
X6977250Y-7620000D02*
G75*
G03*
X6977250Y-7620000I-87500J0D01*
G01*
X7465081Y-3741601D02*
G75*
G03*
X7465081Y-3741601I-87500J0D01*
G01*
X7561471Y-9702141D02*
G75*
G03*
X7561471Y-9702141I-87500J0D01*
G01*
X7628021Y-5723791D02*
G75*
G03*
X7628021Y-5723791I-87500J0D01*
G01*
X7758300Y-1752600D02*
G75*
G03*
X7758300Y-1752600I-87500J0D01*
G01*
X8163631Y-7785201D02*
G75*
G03*
X8163631Y-7785201I-87500J0D01*
G01*
X8458879Y-3952839D02*
G75*
G03*
X8458879Y-3952839I-87500J0D01*
G01*
X8555269Y-9913379D02*
G75*
G03*
X8555269Y-9913379I-87500J0D01*
G01*
X8621819Y-5935029D02*
G75*
G03*
X8621819Y-5935029I-87500J0D01*
G01*
X8792841Y-2076261D02*
G75*
G03*
X8792841Y-2076261I-87500J0D01*
G01*
X9157429Y-7996439D02*
G75*
G03*
X9157429Y-7996439I-87500J0D01*
G01*
X9328451Y-4137671D02*
G75*
G03*
X9328451Y-4137671I-87500J0D01*
G01*
X9491391Y-6119861D02*
G75*
G03*
X9491391Y-6119861I-87500J0D01*
G01*
X9786639Y-2287499D02*
G75*
G03*
X9786639Y-2287499I-87500J0D01*
G01*
X10027001Y-8181271D02*
G75*
G03*
X10027001Y-8181271I-87500J0D01*
G01*
X10322249Y-4348909D02*
G75*
G03*
X10322249Y-4348909I-87500J0D01*
G01*
X10485189Y-6331099D02*
G75*
G03*
X10485189Y-6331099I-87500J0D01*
G01*
X10656211Y-2472341D02*
G75*
G03*
X10656211Y-2472341I-87500J0D01*
G01*
X10842121Y-10302091D02*
G75*
G03*
X10842121Y-10302091I-87500J0D01*
G01*
X11020799Y-8392509D02*
G75*
G03*
X11020799Y-8392509I-87500J0D01*
G01*
X11191821Y-4533741D02*
G75*
G03*
X11191821Y-4533741I-87500J0D01*
G01*
X11352601Y-6514381D02*
G75*
G03*
X11352601Y-6514381I-87500J0D01*
G01*
X11650009Y-2683579D02*
G75*
G03*
X11650009Y-2683579I-87500J0D01*
G01*
X11835919Y-10513329D02*
G75*
G03*
X11835919Y-10513329I-87500J0D01*
G01*
X11890381Y-8577341D02*
G75*
G03*
X11890381Y-8577341I-87500J0D01*
G01*
X12185619Y-4744979D02*
G75*
G03*
X12185619Y-4744979I-87500J0D01*
G01*
X12346399Y-6725619D02*
G75*
G03*
X12346399Y-6725619I-87500J0D01*
G01*
X12519581Y-2868411D02*
G75*
G03*
X12519581Y-2868411I-87500J0D01*
G01*
X12884179Y-8788579D02*
G75*
G03*
X12884179Y-8788579I-87500J0D01*
G01*
X13055191Y-4929811D02*
G75*
G03*
X13055191Y-4929811I-87500J0D01*
G01*
X13218131Y-6912011D02*
G75*
G03*
X13218131Y-6912011I-87500J0D01*
G01*
X13513379Y-3079649D02*
G75*
G03*
X13513379Y-3079649I-87500J0D01*
G01*
X13637181Y-10896201D02*
G75*
G03*
X13637181Y-10896201I-87500J0D01*
G01*
X13753751Y-8973411D02*
G75*
G03*
X13753751Y-8973411I-87500J0D01*
G01*
X14048989Y-5141049D02*
G75*
G03*
X14048989Y-5141049I-87500J0D01*
G01*
X14211929Y-7123249D02*
G75*
G03*
X14211929Y-7123249I-87500J0D01*
G01*
X14382951Y-3264481D02*
G75*
G03*
X14382951Y-3264481I-87500J0D01*
G01*
X14630979Y-11107439D02*
G75*
G03*
X14630979Y-11107439I-87500J0D01*
G01*
X14747549Y-9184649D02*
G75*
G03*
X14747549Y-9184649I-87500J0D01*
G01*
X15376749Y-3475719D02*
G75*
G03*
X15376749Y-3475719I-87500J0D01*
G01*
X16487051Y-5307409D02*
G75*
G03*
X16487051Y-5307409I-87500J0D01*
G01*
X16720181Y-9152969D02*
G75*
G03*
X16720181Y-9152969I-87500J0D01*
G01*
X17022661Y-3245999D02*
G75*
G03*
X17022661Y-3245999I-87500J0D01*
G01*
X17162621Y-7111369D02*
G75*
G03*
X17162621Y-7111369I-87500J0D01*
G01*
X17480849Y-5096171D02*
G75*
G03*
X17480849Y-5096171I-87500J0D01*
G01*
X17713979Y-8941731D02*
G75*
G03*
X17713979Y-8941731I-87500J0D01*
G01*
X18016459Y-3034761D02*
G75*
G03*
X18016459Y-3034761I-87500J0D01*
G01*
X18156419Y-6900131D02*
G75*
G03*
X18156419Y-6900131I-87500J0D01*
G01*
X18350421Y-4911329D02*
G75*
G03*
X18350421Y-4911329I-87500J0D01*
G01*
X18583551Y-8756899D02*
G75*
G03*
X18583551Y-8756899I-87500J0D01*
G01*
X18746721Y-10669769D02*
G75*
G03*
X18746721Y-10669769I-87500J0D01*
G01*
X18886031Y-2849929D02*
G75*
G03*
X18886031Y-2849929I-87500J0D01*
G01*
X19025991Y-6715289D02*
G75*
G03*
X19025991Y-6715289I-87500J0D01*
G01*
X19344219Y-4700091D02*
G75*
G03*
X19344219Y-4700091I-87500J0D01*
G01*
X19577349Y-8545661D02*
G75*
G03*
X19577349Y-8545661I-87500J0D01*
G01*
X19740519Y-10458531D02*
G75*
G03*
X19740519Y-10458531I-87500J0D01*
G01*
X19879829Y-2638691D02*
G75*
G03*
X19879829Y-2638691I-87500J0D01*
G01*
X20019789Y-6504051D02*
G75*
G03*
X20019789Y-6504051I-87500J0D01*
G01*
X20213791Y-4515259D02*
G75*
G03*
X20213791Y-4515259I-87500J0D01*
G01*
X20446921Y-8360829D02*
G75*
G03*
X20446921Y-8360829I-87500J0D01*
G01*
X20749401Y-2453849D02*
G75*
G03*
X20749401Y-2453849I-87500J0D01*
G01*
X20889371Y-6319219D02*
G75*
G03*
X20889371Y-6319219I-87500J0D01*
G01*
X21207589Y-4304021D02*
G75*
G03*
X21207589Y-4304021I-87500J0D01*
G01*
X21440719Y-8149591D02*
G75*
G03*
X21440719Y-8149591I-87500J0D01*
G01*
X21743199Y-2242611D02*
G75*
G03*
X21743199Y-2242611I-87500J0D01*
G01*
X21883169Y-6107981D02*
G75*
G03*
X21883169Y-6107981I-87500J0D01*
G01*
X22077161Y-4119189D02*
G75*
G03*
X22077161Y-4119189I-87500J0D01*
G01*
X22310291Y-7964749D02*
G75*
G03*
X22310291Y-7964749I-87500J0D01*
G01*
X22612771Y-2057779D02*
G75*
G03*
X22612771Y-2057779I-87500J0D01*
G01*
X22726221Y-9921279D02*
G75*
G03*
X22726221Y-9921279I-87500J0D01*
G01*
X22752741Y-5923149D02*
G75*
G03*
X22752741Y-5923149I-87500J0D01*
G01*
X23070959Y-3907951D02*
G75*
G03*
X23070959Y-3907951I-87500J0D01*
G01*
X23304089Y-7753511D02*
G75*
G03*
X23304089Y-7753511I-87500J0D01*
G01*
X23606569Y-1846541D02*
G75*
G03*
X23606569Y-1846541I-87500J0D01*
G01*
X23720019Y-9710041D02*
G75*
G03*
X23720019Y-9710041I-87500J0D01*
G01*
X23746539Y-5711911D02*
G75*
G03*
X23746539Y-5711911I-87500J0D01*
G01*
X24306400Y-3733800D02*
G75*
G03*
X24306400Y-3733800I-87500J0D01*
G01*
X24382600Y-7620000D02*
G75*
G03*
X24382600Y-7620000I-87500J0D01*
G01*
X24687400Y-1828800D02*
G75*
G03*
X24687400Y-1828800I-87500J0D01*
G01*
X24839800Y-5715000D02*
G75*
G03*
X24839800Y-5715000I-87500J0D01*
G01*
X25322400Y-3733800D02*
G75*
G03*
X25322400Y-3733800I-87500J0D01*
G01*
X25398600Y-7620000D02*
G75*
G03*
X25398600Y-7620000I-87500J0D01*
G01*
X25703400Y-1828800D02*
G75*
G03*
X25703400Y-1828800I-87500J0D01*
G01*
X25855800Y-5715000D02*
G75*
G03*
X25855800Y-5715000I-87500J0D01*
G01*
X26211400Y-3810000D02*
G75*
G03*
X26211400Y-3810000I-87500J0D01*
G01*
X26287600Y-7620000D02*
G75*
G03*
X26287600Y-7620000I-87500J0D01*
G01*
X26592400Y-1905000D02*
G75*
G03*
X26592400Y-1905000I-87500J0D01*
G01*
X26744800Y-5715000D02*
G75*
G03*
X26744800Y-5715000I-87500J0D01*
G01*
X27227400Y-3810000D02*
G75*
G03*
X27227400Y-3810000I-87500J0D01*
G01*
X27240150Y-9525000D02*
G75*
G03*
X27240150Y-9525000I-87500J0D01*
G01*
X27303600Y-7620000D02*
G75*
G03*
X27303600Y-7620000I-87500J0D01*
G01*
X27608400Y-1905000D02*
G75*
G03*
X27608400Y-1905000I-87500J0D01*
G01*
X27760800Y-5715000D02*
G75*
G03*
X27760800Y-5715000I-87500J0D01*
G01*
X28116400Y-3810000D02*
G75*
G03*
X28116400Y-3810000I-87500J0D01*
G01*
X28256150Y-9525000D02*
G75*
G03*
X28256150Y-9525000I-87500J0D01*
G01*
X28907000Y-7620000D02*
G75*
G03*
X28907000Y-7620000I-87500J0D01*
G01*
X29132400Y-3810000D02*
G75*
G03*
X29132400Y-3810000I-87500J0D01*
G01*
X29449900Y-1905000D02*
G75*
G03*
X29449900Y-1905000I-87500J0D01*
G01*
X29621350Y-9525000D02*
G75*
G03*
X29621350Y-9525000I-87500J0D01*
G01*
X29847860Y-5715000D02*
G75*
G03*
X29847860Y-5715000I-87500J0D01*
G01*
X29923000Y-7620000D02*
G75*
G03*
X29923000Y-7620000I-87500J0D01*
G01*
X30465900Y-1905000D02*
G75*
G03*
X30465900Y-1905000I-87500J0D01*
G01*
X30497700Y-3810000D02*
G75*
G03*
X30497700Y-3810000I-87500J0D01*
G01*
X30637350Y-9525000D02*
G75*
G03*
X30637350Y-9525000I-87500J0D01*
G01*
X30863860Y-5715000D02*
G75*
G03*
X30863860Y-5715000I-87500J0D01*
G01*
X31513700Y-3810000D02*
G75*
G03*
X31513700Y-3810000I-87500J0D01*
G01*
X31526350Y-7620000D02*
G75*
G03*
X31526350Y-7620000I-87500J0D01*
G01*
X31526350Y-9525000D02*
G75*
G03*
X31526350Y-9525000I-87500J0D01*
G01*
X32542350Y-7620000D02*
G75*
G03*
X32542350Y-7620000I-87500J0D01*
G01*
X32542350Y-9525000D02*
G75*
G03*
X32542350Y-9525000I-87500J0D01*
G01*
X32669350Y-1714500D02*
G75*
G03*
X32669350Y-1714500I-87500J0D01*
G01*
X33050350Y-3619500D02*
G75*
G03*
X33050350Y-3619500I-87500J0D01*
G01*
X33431350Y-5524500D02*
G75*
G03*
X33431350Y-5524500I-87500J0D01*
G01*
X33431350Y-9525000D02*
G75*
G03*
X33431350Y-9525000I-87500J0D01*
G01*
X33685350Y-1714500D02*
G75*
G03*
X33685350Y-1714500I-87500J0D01*
G01*
X34066350Y-3619500D02*
G75*
G03*
X34066350Y-3619500I-87500J0D01*
G01*
X34447350Y-5524500D02*
G75*
G03*
X34447350Y-5524500I-87500J0D01*
G01*
X34447350Y-9525000D02*
G75*
G03*
X34447350Y-9525000I-87500J0D01*
G01*
D14*
X2190800Y-9121000D02*
X2190800Y-9421000D01*
X2040800Y-9271000D02*
X2340800Y-9271000D01*
X2825800Y-8867000D02*
X2825800Y-9167000D01*
X2675800Y-9017000D02*
X2975800Y-9017000D01*
X2912560Y-7216000D02*
X2912560Y-7516000D01*
X2762560Y-7366000D02*
X3062560Y-7366000D01*
X2943250Y-5311000D02*
X2943250Y-5611000D01*
X2793250Y-5461000D02*
X3093250Y-5461000D01*
X2971800Y-1501000D02*
X2971800Y-1801000D01*
X2821800Y-1651000D02*
X3121800Y-1651000D01*
X3019480Y-3406000D02*
X3019480Y-3706000D01*
X2869480Y-3556000D02*
X3169480Y-3556000D01*
X3547560Y-6962000D02*
X3547560Y-7262000D01*
X3397560Y-7112000D02*
X3697560Y-7112000D01*
X3578250Y-5057000D02*
X3578250Y-5357000D01*
X3428250Y-5207000D02*
X3728250Y-5207000D01*
X3606800Y-1247000D02*
X3606800Y-1547000D01*
X3456800Y-1397000D02*
X3756800Y-1397000D01*
X3654480Y-3152000D02*
X3654480Y-3452000D01*
X3504480Y-3302000D02*
X3804480Y-3302000D01*
X4876800Y-1501000D02*
X4876800Y-1801000D01*
X4726800Y-1651000D02*
X5026800Y-1651000D01*
X5400680Y-3406000D02*
X5400680Y-3706000D01*
X5250680Y-3556000D02*
X5550680Y-3556000D01*
X5511800Y-1247000D02*
X5511800Y-1547000D01*
X5361800Y-1397000D02*
X5661800Y-1397000D01*
X5562600Y-5311000D02*
X5562600Y-5611000D01*
X5412600Y-5461000D02*
X5712600Y-5461000D01*
X6000750Y-7216000D02*
X6000750Y-7516000D01*
X5850750Y-7366000D02*
X6150750Y-7366000D01*
X6035680Y-3152000D02*
X6035680Y-3452000D01*
X5885680Y-3302000D02*
X6185680Y-3302000D01*
X6197600Y-5057000D02*
X6197600Y-5357000D01*
X6047600Y-5207000D02*
X6347600Y-5207000D01*
X6635750Y-6962000D02*
X6635750Y-7262000D01*
X6485750Y-7112000D02*
X6785750Y-7112000D01*
X6781800Y-1348600D02*
X6781800Y-1648600D01*
X6631800Y-1498600D02*
X6931800Y-1498600D01*
X7416800Y-1094600D02*
X7416800Y-1394600D01*
X7266800Y-1244600D02*
X7566800Y-1244600D01*
X7554615Y-3369556D02*
X7554615Y-3669556D01*
X7404615Y-3519556D02*
X7704615Y-3519556D01*
X7651005Y-9330096D02*
X7651005Y-9630096D01*
X7501005Y-9480096D02*
X7801005Y-9480096D01*
X7717555Y-5351746D02*
X7717555Y-5651746D01*
X7567555Y-5501746D02*
X7867555Y-5501746D01*
X8228549Y-3253131D02*
X8228549Y-3553131D01*
X8078549Y-3403131D02*
X8378549Y-3403131D01*
X8253165Y-7413156D02*
X8253165Y-7713156D01*
X8103165Y-7563156D02*
X8403165Y-7563156D01*
X8324939Y-9213671D02*
X8324939Y-9513671D01*
X8174939Y-9363671D02*
X8474939Y-9363671D01*
X8391489Y-5235321D02*
X8391489Y-5535321D01*
X8241489Y-5385321D02*
X8541489Y-5385321D01*
X8882375Y-1704216D02*
X8882375Y-2004216D01*
X8732375Y-1854216D02*
X9032375Y-1854216D01*
X8927099Y-7296731D02*
X8927099Y-7596731D01*
X8777099Y-7446731D02*
X9077099Y-7446731D01*
X9417985Y-3765626D02*
X9417985Y-4065626D01*
X9267985Y-3915626D02*
X9567985Y-3915626D01*
X9556309Y-1587791D02*
X9556309Y-1887791D01*
X9406309Y-1737791D02*
X9706309Y-1737791D01*
X9580925Y-5747816D02*
X9580925Y-6047816D01*
X9430925Y-5897816D02*
X9730925Y-5897816D01*
X10091919Y-3649201D02*
X10091919Y-3949201D01*
X9941919Y-3799201D02*
X10241919Y-3799201D01*
X10116535Y-7809226D02*
X10116535Y-8109226D01*
X9966535Y-7959226D02*
X10266535Y-7959226D01*
X10254859Y-5631391D02*
X10254859Y-5931391D01*
X10104859Y-5781391D02*
X10404859Y-5781391D01*
X10745745Y-2100296D02*
X10745745Y-2400296D01*
X10595745Y-2250296D02*
X10895745Y-2250296D01*
X10790469Y-7692801D02*
X10790469Y-7992801D01*
X10640469Y-7842801D02*
X10940469Y-7842801D01*
X10931655Y-9930046D02*
X10931655Y-10230046D01*
X10781655Y-10080046D02*
X11081655Y-10080046D01*
X11281355Y-4161696D02*
X11281355Y-4461696D01*
X11131355Y-4311696D02*
X11431355Y-4311696D01*
X11419679Y-1983871D02*
X11419679Y-2283871D01*
X11269679Y-2133871D02*
X11569679Y-2133871D01*
X11442135Y-6142336D02*
X11442135Y-6442336D01*
X11292135Y-6292336D02*
X11592135Y-6292336D01*
X11605589Y-9813621D02*
X11605589Y-10113621D01*
X11455589Y-9963621D02*
X11755589Y-9963621D01*
X11955289Y-4045271D02*
X11955289Y-4345271D01*
X11805289Y-4195271D02*
X12105289Y-4195271D01*
X11979915Y-8205296D02*
X11979915Y-8505296D01*
X11829915Y-8355296D02*
X12129915Y-8355296D01*
X12116069Y-6025911D02*
X12116069Y-6325911D01*
X11966069Y-6175911D02*
X12266069Y-6175911D01*
X12609115Y-2496366D02*
X12609115Y-2796366D01*
X12459115Y-2646366D02*
X12759115Y-2646366D01*
X12653849Y-8088871D02*
X12653849Y-8388871D01*
X12503849Y-8238871D02*
X12803849Y-8238871D01*
X13144725Y-4557766D02*
X13144725Y-4857766D01*
X12994725Y-4707766D02*
X13294725Y-4707766D01*
X13283049Y-2379941D02*
X13283049Y-2679941D01*
X13133049Y-2529941D02*
X13433049Y-2529941D01*
X13307665Y-6539966D02*
X13307665Y-6839966D01*
X13157665Y-6689966D02*
X13457665Y-6689966D01*
X13726715Y-10524156D02*
X13726715Y-10824156D01*
X13576715Y-10674156D02*
X13876715Y-10674156D01*
X13818659Y-4441341D02*
X13818659Y-4741341D01*
X13668659Y-4591341D02*
X13968659Y-4591341D01*
X13843285Y-8601366D02*
X13843285Y-8901366D01*
X13693285Y-8751366D02*
X13993285Y-8751366D01*
X13981599Y-6423541D02*
X13981599Y-6723541D01*
X13831599Y-6573541D02*
X14131599Y-6573541D01*
X14400649Y-10407731D02*
X14400649Y-10707731D01*
X14250649Y-10557731D02*
X14550649Y-10557731D01*
X14472485Y-2892436D02*
X14472485Y-3192436D01*
X14322485Y-3042436D02*
X14622485Y-3042436D01*
X14517219Y-8484941D02*
X14517219Y-8784941D01*
X14367219Y-8634941D02*
X14667219Y-8634941D01*
X15146419Y-2776011D02*
X15146419Y-3076011D01*
X14996419Y-2926011D02*
X15296419Y-2926011D01*
X16470966Y-4882555D02*
X16470966Y-5182555D01*
X16320966Y-5032555D02*
X16620966Y-5032555D01*
X16704096Y-8728115D02*
X16704096Y-9028115D01*
X16554096Y-8878115D02*
X16854096Y-8878115D01*
X17006576Y-2821145D02*
X17006576Y-3121145D01*
X16856576Y-2971145D02*
X17156576Y-2971145D01*
X17039280Y-4502081D02*
X17039280Y-4802081D01*
X16889280Y-4652081D02*
X17189280Y-4652081D01*
X17146536Y-6686515D02*
X17146536Y-6986515D01*
X16996536Y-6836515D02*
X17296536Y-6836515D01*
X17272410Y-8347641D02*
X17272410Y-8647641D01*
X17122410Y-8497641D02*
X17422410Y-8497641D01*
X17574890Y-2440671D02*
X17574890Y-2740671D01*
X17424890Y-2590671D02*
X17724890Y-2590671D01*
X17714850Y-6306041D02*
X17714850Y-6606041D01*
X17564850Y-6456041D02*
X17864850Y-6456041D01*
X18334336Y-4486475D02*
X18334336Y-4786475D01*
X18184336Y-4636475D02*
X18484336Y-4636475D01*
X18567466Y-8332045D02*
X18567466Y-8632045D01*
X18417466Y-8482045D02*
X18717466Y-8482045D01*
X18730636Y-10244915D02*
X18730636Y-10544915D01*
X18580636Y-10394915D02*
X18880636Y-10394915D01*
X18869946Y-2425075D02*
X18869946Y-2725075D01*
X18719946Y-2575075D02*
X19019946Y-2575075D01*
X18902650Y-4106001D02*
X18902650Y-4406001D01*
X18752650Y-4256001D02*
X19052650Y-4256001D01*
X19009906Y-6290435D02*
X19009906Y-6590435D01*
X18859906Y-6440435D02*
X19159906Y-6440435D01*
X19135780Y-7951571D02*
X19135780Y-8251571D01*
X18985780Y-8101571D02*
X19285780Y-8101571D01*
X19298950Y-9864441D02*
X19298950Y-10164441D01*
X19148950Y-10014441D02*
X19448950Y-10014441D01*
X19438260Y-2044601D02*
X19438260Y-2344601D01*
X19288260Y-2194601D02*
X19588260Y-2194601D01*
X19578220Y-5909961D02*
X19578220Y-6209961D01*
X19428220Y-6059961D02*
X19728220Y-6059961D01*
X20197706Y-4090405D02*
X20197706Y-4390405D01*
X20047706Y-4240405D02*
X20347706Y-4240405D01*
X20430836Y-7935975D02*
X20430836Y-8235975D01*
X20280836Y-8085975D02*
X20580836Y-8085975D01*
X20733316Y-2028995D02*
X20733316Y-2328995D01*
X20583316Y-2178995D02*
X20883316Y-2178995D01*
X20766020Y-3709931D02*
X20766020Y-4009931D01*
X20616020Y-3859931D02*
X20916020Y-3859931D01*
X20873286Y-5894365D02*
X20873286Y-6194365D01*
X20723286Y-6044365D02*
X21023286Y-6044365D01*
X20999150Y-7555501D02*
X20999150Y-7855501D01*
X20849150Y-7705501D02*
X21149150Y-7705501D01*
X21301630Y-1648521D02*
X21301630Y-1948521D01*
X21151630Y-1798521D02*
X21451630Y-1798521D01*
X21441600Y-5513891D02*
X21441600Y-5813891D01*
X21291600Y-5663891D02*
X21591600Y-5663891D01*
X22061076Y-3694335D02*
X22061076Y-3994335D01*
X21911076Y-3844335D02*
X22211076Y-3844335D01*
X22294206Y-7539895D02*
X22294206Y-7839895D01*
X22144206Y-7689895D02*
X22444206Y-7689895D01*
X22596686Y-1632925D02*
X22596686Y-1932925D01*
X22446686Y-1782925D02*
X22746686Y-1782925D01*
X22629390Y-3313861D02*
X22629390Y-3613861D01*
X22479390Y-3463861D02*
X22779390Y-3463861D01*
X22710136Y-9496425D02*
X22710136Y-9796425D01*
X22560136Y-9646425D02*
X22860136Y-9646425D01*
X22736656Y-5498295D02*
X22736656Y-5798295D01*
X22586656Y-5648295D02*
X22886656Y-5648295D01*
X22862520Y-7159421D02*
X22862520Y-7459421D01*
X22712520Y-7309421D02*
X23012520Y-7309421D01*
X23165000Y-1252451D02*
X23165000Y-1552451D01*
X23015000Y-1402451D02*
X23315000Y-1402451D01*
X23278450Y-9115951D02*
X23278450Y-9415951D01*
X23128450Y-9265951D02*
X23428450Y-9265951D01*
X23304970Y-5117821D02*
X23304970Y-5417821D01*
X23154970Y-5267821D02*
X23454970Y-5267821D01*
X24345900Y-3329800D02*
X24345900Y-3629800D01*
X24195900Y-3479800D02*
X24495900Y-3479800D01*
X24422100Y-7216000D02*
X24422100Y-7516000D01*
X24272100Y-7366000D02*
X24572100Y-7366000D01*
X24726900Y-1424800D02*
X24726900Y-1724800D01*
X24576900Y-1574800D02*
X24876900Y-1574800D01*
X24879300Y-5311000D02*
X24879300Y-5611000D01*
X24729300Y-5461000D02*
X25029300Y-5461000D01*
X24980900Y-3075800D02*
X24980900Y-3375800D01*
X24830900Y-3225800D02*
X25130900Y-3225800D01*
X25057100Y-6962000D02*
X25057100Y-7262000D01*
X24907100Y-7112000D02*
X25207100Y-7112000D01*
X25361900Y-1170800D02*
X25361900Y-1470800D01*
X25211900Y-1320800D02*
X25511900Y-1320800D01*
X25514300Y-5057000D02*
X25514300Y-5357000D01*
X25364300Y-5207000D02*
X25664300Y-5207000D01*
X26250900Y-3406000D02*
X26250900Y-3706000D01*
X26100900Y-3556000D02*
X26400900Y-3556000D01*
X26327100Y-7216000D02*
X26327100Y-7516000D01*
X26177100Y-7366000D02*
X26477100Y-7366000D01*
X26631900Y-1501000D02*
X26631900Y-1801000D01*
X26481900Y-1651000D02*
X26781900Y-1651000D01*
X26784300Y-5311000D02*
X26784300Y-5611000D01*
X26634300Y-5461000D02*
X26934300Y-5461000D01*
X26885900Y-3152000D02*
X26885900Y-3452000D01*
X26735900Y-3302000D02*
X27035900Y-3302000D01*
X26962100Y-6962000D02*
X26962100Y-7262000D01*
X26812100Y-7112000D02*
X27112100Y-7112000D01*
X27266900Y-1247000D02*
X27266900Y-1547000D01*
X27116900Y-1397000D02*
X27416900Y-1397000D01*
X27279650Y-9121000D02*
X27279650Y-9421000D01*
X27129650Y-9271000D02*
X27429650Y-9271000D01*
X27419300Y-5057000D02*
X27419300Y-5357000D01*
X27269300Y-5207000D02*
X27569300Y-5207000D01*
X27914650Y-8867000D02*
X27914650Y-9167000D01*
X27764650Y-9017000D02*
X28064650Y-9017000D01*
X28155900Y-3406000D02*
X28155900Y-3706000D01*
X28005900Y-3556000D02*
X28305900Y-3556000D01*
X28790900Y-3152000D02*
X28790900Y-3452000D01*
X28640900Y-3302000D02*
X28940900Y-3302000D01*
X28946500Y-7216000D02*
X28946500Y-7516000D01*
X28796500Y-7366000D02*
X29096500Y-7366000D01*
X29489400Y-1501000D02*
X29489400Y-1801000D01*
X29339400Y-1651000D02*
X29639400Y-1651000D01*
X29581500Y-6962000D02*
X29581500Y-7262000D01*
X29431500Y-7112000D02*
X29731500Y-7112000D01*
X29660850Y-9121000D02*
X29660850Y-9421000D01*
X29510850Y-9271000D02*
X29810850Y-9271000D01*
X29887360Y-5311000D02*
X29887360Y-5611000D01*
X29737360Y-5461000D02*
X30037360Y-5461000D01*
X30124400Y-1247000D02*
X30124400Y-1547000D01*
X29974400Y-1397000D02*
X30274400Y-1397000D01*
X30295850Y-8867000D02*
X30295850Y-9167000D01*
X30145850Y-9017000D02*
X30445850Y-9017000D01*
X30522360Y-5057000D02*
X30522360Y-5357000D01*
X30372360Y-5207000D02*
X30672360Y-5207000D01*
X30537200Y-3406000D02*
X30537200Y-3706000D01*
X30387200Y-3556000D02*
X30687200Y-3556000D01*
X31172200Y-3152000D02*
X31172200Y-3452000D01*
X31022200Y-3302000D02*
X31322200Y-3302000D01*
X31565850Y-7216000D02*
X31565850Y-7516000D01*
X31415850Y-7366000D02*
X31715850Y-7366000D01*
X31565850Y-9121000D02*
X31565850Y-9421000D01*
X31415850Y-9271000D02*
X31715850Y-9271000D01*
X32200850Y-6962000D02*
X32200850Y-7262000D01*
X32050850Y-7112000D02*
X32350850Y-7112000D01*
X32200850Y-8867000D02*
X32200850Y-9167000D01*
X32050850Y-9017000D02*
X32350850Y-9017000D01*
X32708850Y-1310500D02*
X32708850Y-1610500D01*
X32558850Y-1460500D02*
X32858850Y-1460500D01*
X33089850Y-3215500D02*
X33089850Y-3515500D01*
X32939850Y-3365500D02*
X33239850Y-3365500D01*
X33343850Y-1056500D02*
X33343850Y-1356500D01*
X33193850Y-1206500D02*
X33493850Y-1206500D01*
X33470850Y-5120500D02*
X33470850Y-5420500D01*
X33320850Y-5270500D02*
X33620850Y-5270500D01*
X33470850Y-9121000D02*
X33470850Y-9421000D01*
X33320850Y-9271000D02*
X33620850Y-9271000D01*
X33724850Y-2961500D02*
X33724850Y-3261500D01*
X33574850Y-3111500D02*
X33874850Y-3111500D01*
X34105850Y-4866500D02*
X34105850Y-5166500D01*
X33955850Y-5016500D02*
X34255850Y-5016500D01*
X34105850Y-8867000D02*
X34105850Y-9167000D01*
X33955850Y-9017000D02*
X34255850Y-9017000D01*
D15*
X2207524Y-7029264D02*
X2207524Y-6813736D01*
X1991996Y-6813736D01*
X1991996Y-7029264D01*
X2207524Y-7029264D01*
X4595124Y-7029264D02*
X4595124Y-6813736D01*
X4379596Y-6813736D01*
X4379596Y-7029264D01*
X4595124Y-7029264D01*
X10046345Y-10950505D02*
X10046345Y-10734977D01*
X9830817Y-10734977D01*
X9830817Y-10950505D01*
X10046345Y-10950505D01*
X12381770Y-11446915D02*
X12381770Y-11231387D01*
X12166242Y-11231387D01*
X12166242Y-11446915D01*
X12381770Y-11446915D01*
X18241398Y-11603355D02*
X18241398Y-11387827D01*
X18025870Y-11387827D01*
X18025870Y-11603355D01*
X18241398Y-11603355D01*
X20576823Y-11106945D02*
X20576823Y-10891417D01*
X20361295Y-10891417D01*
X20361295Y-11106945D01*
X20576823Y-11106945D01*
X28784364Y-1314264D02*
X28784364Y-1098736D01*
X28568836Y-1098736D01*
X28568836Y-1314264D01*
X28784364Y-1314264D01*
X29182324Y-5124264D02*
X29182324Y-4908736D01*
X28966796Y-4908736D01*
X28966796Y-5124264D01*
X29182324Y-5124264D01*
X31171964Y-1314264D02*
X31171964Y-1098736D01*
X30956436Y-1098736D01*
X30956436Y-1314264D01*
X31171964Y-1314264D01*
X31569924Y-5124264D02*
X31569924Y-4908736D01*
X31354396Y-4908736D01*
X31354396Y-5124264D01*
X31569924Y-5124264D01*
D16*
X2099760Y-8644890D02*
X2299150Y-8445500D01*
X2099760Y-8246110D01*
X1900370Y-8445500D01*
X2099760Y-8644890D01*
X2571800Y-9724390D02*
X2771190Y-9525000D01*
X2571800Y-9325610D01*
X2372410Y-9525000D01*
X2571800Y-9724390D01*
X3293560Y-7819390D02*
X3492950Y-7620000D01*
X3293560Y-7420610D01*
X3094170Y-7620000D01*
X3293560Y-7819390D01*
X3324250Y-5914390D02*
X3523640Y-5715000D01*
X3324250Y-5515610D01*
X3124860Y-5715000D01*
X3324250Y-5914390D01*
X3352800Y-2104390D02*
X3552190Y-1905000D01*
X3352800Y-1705610D01*
X3153410Y-1905000D01*
X3352800Y-2104390D01*
X3400480Y-4009390D02*
X3599870Y-3810000D01*
X3400480Y-3610610D01*
X3201090Y-3810000D01*
X3400480Y-4009390D01*
X4487360Y-8644890D02*
X4686750Y-8445500D01*
X4487360Y-8246110D01*
X4287970Y-8445500D01*
X4487360Y-8644890D01*
X5257800Y-2104390D02*
X5457190Y-1905000D01*
X5257800Y-1705610D01*
X5058410Y-1905000D01*
X5257800Y-2104390D01*
X5781680Y-4009390D02*
X5981070Y-3810000D01*
X5781680Y-3610610D01*
X5582290Y-3810000D01*
X5781680Y-4009390D01*
X5943600Y-5914390D02*
X6142990Y-5715000D01*
X5943600Y-5515610D01*
X5744210Y-5715000D01*
X5943600Y-5914390D01*
X6381750Y-7819390D02*
X6581140Y-7620000D01*
X6381750Y-7420610D01*
X6182360Y-7620000D01*
X6381750Y-7819390D01*
X7162800Y-1951990D02*
X7362190Y-1752600D01*
X7162800Y-1553210D01*
X6963410Y-1752600D01*
X7162800Y-1951990D01*
X7874480Y-4046610D02*
X8073870Y-3847220D01*
X7874480Y-3647830D01*
X7675090Y-3847220D01*
X7874480Y-4046610D01*
X7970870Y-10007150D02*
X8170260Y-9807760D01*
X7970870Y-9608370D01*
X7771480Y-9807760D01*
X7970870Y-10007150D01*
X8037420Y-6028800D02*
X8236810Y-5829410D01*
X8037420Y-5630020D01*
X7838030Y-5829410D01*
X8037420Y-6028800D01*
X8573030Y-8090210D02*
X8772420Y-7890820D01*
X8573030Y-7691430D01*
X8373640Y-7890820D01*
X8573030Y-8090210D01*
X9202240Y-2381270D02*
X9401630Y-2181880D01*
X9202240Y-1982490D01*
X9002850Y-2181880D01*
X9202240Y-2381270D01*
X9737850Y-4442680D02*
X9937240Y-4243290D01*
X9737850Y-4043900D01*
X9538460Y-4243290D01*
X9737850Y-4442680D01*
X9900790Y-6424870D02*
X10100180Y-6225480D01*
X9900790Y-6026090D01*
X9701400Y-6225480D01*
X9900790Y-6424870D01*
X10255439Y-9551434D02*
X10454829Y-9352044D01*
X10255439Y-9152654D01*
X10056049Y-9352044D01*
X10255439Y-9551434D01*
X10436400Y-8486280D02*
X10635790Y-8286890D01*
X10436400Y-8087500D01*
X10237010Y-8286890D01*
X10436400Y-8486280D01*
X11065610Y-2777350D02*
X11265000Y-2577960D01*
X11065610Y-2378570D01*
X10866220Y-2577960D01*
X11065610Y-2777350D01*
X11251520Y-10607100D02*
X11450910Y-10407710D01*
X11251520Y-10208320D01*
X11052130Y-10407710D01*
X11251520Y-10607100D01*
X11601220Y-4838750D02*
X11800610Y-4639360D01*
X11601220Y-4439970D01*
X11401830Y-4639360D01*
X11601220Y-4838750D01*
X11762000Y-6819390D02*
X11961390Y-6620000D01*
X11762000Y-6420610D01*
X11562610Y-6620000D01*
X11762000Y-6819390D01*
X12299780Y-8882350D02*
X12499170Y-8682960D01*
X12299780Y-8483570D01*
X12100390Y-8682960D01*
X12299780Y-8882350D01*
X12590864Y-10047844D02*
X12790254Y-9848454D01*
X12590864Y-9649064D01*
X12391474Y-9848454D01*
X12590864Y-10047844D01*
X12928980Y-3173420D02*
X13128370Y-2974030D01*
X12928980Y-2774640D01*
X12729590Y-2974030D01*
X12928980Y-3173420D01*
X13464590Y-5234820D02*
X13663980Y-5035430D01*
X13464590Y-4836040D01*
X13265200Y-5035430D01*
X13464590Y-5234820D01*
X13627530Y-7217020D02*
X13826920Y-7017630D01*
X13627530Y-6818240D01*
X13428140Y-7017630D01*
X13627530Y-7217020D01*
X14046580Y-11201210D02*
X14245970Y-11001820D01*
X14046580Y-10802430D01*
X13847190Y-11001820D01*
X14046580Y-11201210D01*
X14163150Y-9278420D02*
X14362540Y-9079030D01*
X14163150Y-8879640D01*
X13963760Y-9079030D01*
X14163150Y-9278420D01*
X14792350Y-3569490D02*
X14991740Y-3370100D01*
X14792350Y-3170710D01*
X14592960Y-3370100D01*
X14792350Y-3569490D01*
X16896450Y-5401180D02*
X17095840Y-5201790D01*
X16896450Y-5002400D01*
X16697060Y-5201790D01*
X16896450Y-5401180D01*
X17129580Y-9246740D02*
X17328970Y-9047350D01*
X17129580Y-8847960D01*
X16930190Y-9047350D01*
X17129580Y-9246740D01*
X17432060Y-3339770D02*
X17631450Y-3140380D01*
X17432060Y-2940990D01*
X17232670Y-3140380D01*
X17432060Y-3339770D01*
X17572020Y-7205140D02*
X17771410Y-7005750D01*
X17572020Y-6806360D01*
X17372630Y-7005750D01*
X17572020Y-7205140D01*
X17816776Y-10204284D02*
X18016166Y-10004894D01*
X17816776Y-9805504D01*
X17617386Y-10004894D01*
X17816776Y-10204284D01*
X18759820Y-5005100D02*
X18959210Y-4805710D01*
X18759820Y-4606320D01*
X18560430Y-4805710D01*
X18759820Y-5005100D01*
X18992950Y-8850670D02*
X19192340Y-8651280D01*
X18992950Y-8451890D01*
X18793560Y-8651280D01*
X18992950Y-8850670D01*
X19156120Y-10763540D02*
X19355510Y-10564150D01*
X19156120Y-10364760D01*
X18956730Y-10564150D01*
X19156120Y-10763540D01*
X19295430Y-2943700D02*
X19494820Y-2744310D01*
X19295430Y-2544920D01*
X19096040Y-2744310D01*
X19295430Y-2943700D01*
X19435390Y-6809060D02*
X19634780Y-6609670D01*
X19435390Y-6410280D01*
X19236000Y-6609670D01*
X19435390Y-6809060D01*
X20152202Y-9707874D02*
X20351592Y-9508484D01*
X20152202Y-9309094D01*
X19952812Y-9508484D01*
X20152202Y-9707874D01*
X20623190Y-4609030D02*
X20822580Y-4409640D01*
X20623190Y-4210250D01*
X20423800Y-4409640D01*
X20623190Y-4609030D01*
X20856320Y-8454600D02*
X21055710Y-8255210D01*
X20856320Y-8055820D01*
X20656930Y-8255210D01*
X20856320Y-8454600D01*
X21158800Y-2547620D02*
X21358190Y-2348230D01*
X21158800Y-2148840D01*
X20959410Y-2348230D01*
X21158800Y-2547620D01*
X21298770Y-6412990D02*
X21498160Y-6213600D01*
X21298770Y-6014210D01*
X21099380Y-6213600D01*
X21298770Y-6412990D01*
X22486560Y-4212960D02*
X22685950Y-4013570D01*
X22486560Y-3814180D01*
X22287170Y-4013570D01*
X22486560Y-4212960D01*
X22719690Y-8058520D02*
X22919080Y-7859130D01*
X22719690Y-7659740D01*
X22520300Y-7859130D01*
X22719690Y-8058520D01*
X23022170Y-2151550D02*
X23221560Y-1952160D01*
X23022170Y-1752770D01*
X22822780Y-1952160D01*
X23022170Y-2151550D01*
X23135620Y-10015050D02*
X23335010Y-9815660D01*
X23135620Y-9616270D01*
X22936230Y-9815660D01*
X23135620Y-10015050D01*
X23162140Y-6016920D02*
X23361530Y-5817530D01*
X23162140Y-5618140D01*
X22962750Y-5817530D01*
X23162140Y-6016920D01*
X24726900Y-3933190D02*
X24926290Y-3733800D01*
X24726900Y-3534410D01*
X24527510Y-3733800D01*
X24726900Y-3933190D01*
X24803100Y-7819390D02*
X25002490Y-7620000D01*
X24803100Y-7420610D01*
X24603710Y-7620000D01*
X24803100Y-7819390D01*
X25107900Y-2028190D02*
X25307290Y-1828800D01*
X25107900Y-1629410D01*
X24908510Y-1828800D01*
X25107900Y-2028190D01*
X25260300Y-5914390D02*
X25459690Y-5715000D01*
X25260300Y-5515610D01*
X25060910Y-5715000D01*
X25260300Y-5914390D01*
X26631900Y-4009390D02*
X26831290Y-3810000D01*
X26631900Y-3610610D01*
X26432510Y-3810000D01*
X26631900Y-4009390D01*
X26708100Y-7819390D02*
X26907490Y-7620000D01*
X26708100Y-7420610D01*
X26508710Y-7620000D01*
X26708100Y-7819390D01*
X27012900Y-2104390D02*
X27212290Y-1905000D01*
X27012900Y-1705610D01*
X26813510Y-1905000D01*
X27012900Y-2104390D01*
X27165300Y-5914390D02*
X27364690Y-5715000D01*
X27165300Y-5515610D01*
X26965910Y-5715000D01*
X27165300Y-5914390D01*
X27660650Y-9724390D02*
X27860040Y-9525000D01*
X27660650Y-9325610D01*
X27461260Y-9525000D01*
X27660650Y-9724390D01*
X28536900Y-4009390D02*
X28736290Y-3810000D01*
X28536900Y-3610610D01*
X28337510Y-3810000D01*
X28536900Y-4009390D01*
X28676600Y-2929890D02*
X28875990Y-2730500D01*
X28676600Y-2531110D01*
X28477210Y-2730500D01*
X28676600Y-2929890D01*
X29074560Y-6739890D02*
X29273950Y-6540500D01*
X29074560Y-6341110D01*
X28875170Y-6540500D01*
X29074560Y-6739890D01*
X29327500Y-7819390D02*
X29526890Y-7620000D01*
X29327500Y-7420610D01*
X29128110Y-7620000D01*
X29327500Y-7819390D01*
X29870400Y-2104390D02*
X30069790Y-1905000D01*
X29870400Y-1705610D01*
X29671010Y-1905000D01*
X29870400Y-2104390D01*
X30041850Y-9724390D02*
X30241240Y-9525000D01*
X30041850Y-9325610D01*
X29842460Y-9525000D01*
X30041850Y-9724390D01*
X30268360Y-5914390D02*
X30467750Y-5715000D01*
X30268360Y-5515610D01*
X30068970Y-5715000D01*
X30268360Y-5914390D01*
X30918200Y-4009390D02*
X31117590Y-3810000D01*
X30918200Y-3610610D01*
X30718810Y-3810000D01*
X30918200Y-4009390D01*
X31064200Y-2929890D02*
X31263590Y-2730500D01*
X31064200Y-2531110D01*
X30864810Y-2730500D01*
X31064200Y-2929890D01*
X31462160Y-6739890D02*
X31661550Y-6540500D01*
X31462160Y-6341110D01*
X31262770Y-6540500D01*
X31462160Y-6739890D01*
X31946850Y-7819390D02*
X32146240Y-7620000D01*
X31946850Y-7420610D01*
X31747460Y-7620000D01*
X31946850Y-7819390D01*
X31946850Y-9724390D02*
X32146240Y-9525000D01*
X31946850Y-9325610D01*
X31747460Y-9525000D01*
X31946850Y-9724390D01*
X33089850Y-1913890D02*
X33289240Y-1714500D01*
X33089850Y-1515110D01*
X32890460Y-1714500D01*
X33089850Y-1913890D01*
X33470850Y-3818890D02*
X33670240Y-3619500D01*
X33470850Y-3420110D01*
X33271460Y-3619500D01*
X33470850Y-3818890D01*
X33851850Y-5723890D02*
X34051240Y-5524500D01*
X33851850Y-5325110D01*
X33652460Y-5524500D01*
X33851850Y-5723890D01*
X33851850Y-9724390D02*
X34051240Y-9525000D01*
X33851850Y-9325610D01*
X33652460Y-9525000D01*
X33851850Y-9724390D01*
D11*
X1395619Y-12439476D02*
X1395619Y-12239476D01*
X1443238Y-12239476D01*
X1471809Y-12249000D01*
X1490857Y-12268048D01*
X1500381Y-12287095D01*
X1509905Y-12325190D01*
X1509905Y-12353762D01*
X1500381Y-12391857D01*
X1490857Y-12410905D01*
X1471809Y-12429952D01*
X1443238Y-12439476D01*
X1395619Y-12439476D01*
X1595619Y-12439476D02*
X1595619Y-12306143D01*
X1595619Y-12344238D02*
X1605143Y-12325190D01*
X1614667Y-12315667D01*
X1633714Y-12306143D01*
X1652762Y-12306143D01*
X1719428Y-12439476D02*
X1719428Y-12306143D01*
X1719428Y-12239476D02*
X1709905Y-12249000D01*
X1719428Y-12258524D01*
X1728952Y-12249000D01*
X1719428Y-12239476D01*
X1719428Y-12258524D01*
X1843238Y-12439476D02*
X1824190Y-12429952D01*
X1814667Y-12410905D01*
X1814667Y-12239476D01*
X1948000Y-12439476D02*
X1928952Y-12429952D01*
X1919428Y-12410905D01*
X1919428Y-12239476D01*
X2176571Y-12439476D02*
X2176571Y-12239476D01*
X2243238Y-12382333D01*
X2309905Y-12239476D01*
X2309905Y-12439476D01*
X2490857Y-12439476D02*
X2490857Y-12334714D01*
X2481333Y-12315667D01*
X2462286Y-12306143D01*
X2424190Y-12306143D01*
X2405143Y-12315667D01*
X2490857Y-12429952D02*
X2471810Y-12439476D01*
X2424190Y-12439476D01*
X2405143Y-12429952D01*
X2395619Y-12410905D01*
X2395619Y-12391857D01*
X2405143Y-12372809D01*
X2424190Y-12363286D01*
X2471810Y-12363286D01*
X2490857Y-12353762D01*
X2586095Y-12306143D02*
X2586095Y-12506143D01*
X2586095Y-12315667D02*
X2605143Y-12306143D01*
X2643238Y-12306143D01*
X2662286Y-12315667D01*
X2671810Y-12325190D01*
X2681333Y-12344238D01*
X2681333Y-12401381D01*
X2671810Y-12420428D01*
X2662286Y-12429952D01*
X2643238Y-12439476D01*
X2605143Y-12439476D01*
X2586095Y-12429952D01*
X2767048Y-12420428D02*
X2776571Y-12429952D01*
X2767048Y-12439476D01*
X2757524Y-12429952D01*
X2767048Y-12420428D01*
X2767048Y-12439476D01*
X2767048Y-12315667D02*
X2776571Y-12325190D01*
X2767048Y-12334714D01*
X2757524Y-12325190D01*
X2767048Y-12315667D01*
X2767048Y-12334714D01*
D12*
X1078000Y-12739000D02*
X1138000Y-12799000D01*
X1138000Y-12739000D02*
X1078000Y-12799000D01*
D11*
X1433714Y-12659476D02*
X1452762Y-12659476D01*
X1471809Y-12669000D01*
X1481333Y-12678524D01*
X1490857Y-12697571D01*
X1500381Y-12735667D01*
X1500381Y-12783286D01*
X1490857Y-12821381D01*
X1481333Y-12840428D01*
X1471809Y-12849952D01*
X1452762Y-12859476D01*
X1433714Y-12859476D01*
X1414667Y-12849952D01*
X1405143Y-12840428D01*
X1395619Y-12821381D01*
X1386095Y-12783286D01*
X1386095Y-12735667D01*
X1395619Y-12697571D01*
X1405143Y-12678524D01*
X1414667Y-12669000D01*
X1433714Y-12659476D01*
X1586095Y-12840428D02*
X1595619Y-12849952D01*
X1586095Y-12859476D01*
X1576571Y-12849952D01*
X1586095Y-12840428D01*
X1586095Y-12859476D01*
X1767048Y-12659476D02*
X1728952Y-12659476D01*
X1709905Y-12669000D01*
X1700381Y-12678524D01*
X1681333Y-12707095D01*
X1671809Y-12745190D01*
X1671809Y-12821381D01*
X1681333Y-12840428D01*
X1690857Y-12849952D01*
X1709905Y-12859476D01*
X1748000Y-12859476D01*
X1767048Y-12849952D01*
X1776571Y-12840428D01*
X1786095Y-12821381D01*
X1786095Y-12773762D01*
X1776571Y-12754714D01*
X1767048Y-12745190D01*
X1748000Y-12735667D01*
X1709905Y-12735667D01*
X1690857Y-12745190D01*
X1681333Y-12754714D01*
X1671809Y-12773762D01*
X1909905Y-12659476D02*
X1928952Y-12659476D01*
X1948000Y-12669000D01*
X1957524Y-12678524D01*
X1967048Y-12697571D01*
X1976571Y-12735667D01*
X1976571Y-12783286D01*
X1967048Y-12821381D01*
X1957524Y-12840428D01*
X1948000Y-12849952D01*
X1928952Y-12859476D01*
X1909905Y-12859476D01*
X1890857Y-12849952D01*
X1881333Y-12840428D01*
X1871809Y-12821381D01*
X1862286Y-12783286D01*
X1862286Y-12735667D01*
X1871809Y-12697571D01*
X1881333Y-12678524D01*
X1890857Y-12669000D01*
X1909905Y-12659476D01*
X2100381Y-12659476D02*
X2119429Y-12659476D01*
X2138476Y-12669000D01*
X2148000Y-12678524D01*
X2157524Y-12697571D01*
X2167048Y-12735667D01*
X2167048Y-12783286D01*
X2157524Y-12821381D01*
X2148000Y-12840428D01*
X2138476Y-12849952D01*
X2119429Y-12859476D01*
X2100381Y-12859476D01*
X2081333Y-12849952D01*
X2071809Y-12840428D01*
X2062286Y-12821381D01*
X2052762Y-12783286D01*
X2052762Y-12735667D01*
X2062286Y-12697571D01*
X2071809Y-12678524D01*
X2081333Y-12669000D01*
X2100381Y-12659476D01*
X2252762Y-12859476D02*
X2252762Y-12726143D01*
X2252762Y-12745190D02*
X2262286Y-12735667D01*
X2281333Y-12726143D01*
X2309905Y-12726143D01*
X2328952Y-12735667D01*
X2338476Y-12754714D01*
X2338476Y-12859476D01*
X2338476Y-12754714D02*
X2348000Y-12735667D01*
X2367048Y-12726143D01*
X2395619Y-12726143D01*
X2414667Y-12735667D01*
X2424190Y-12754714D01*
X2424190Y-12859476D01*
X2519429Y-12859476D02*
X2519429Y-12726143D01*
X2519429Y-12745190D02*
X2528952Y-12735667D01*
X2548000Y-12726143D01*
X2576571Y-12726143D01*
X2595619Y-12735667D01*
X2605143Y-12754714D01*
X2605143Y-12859476D01*
X2605143Y-12754714D02*
X2614667Y-12735667D01*
X2633714Y-12726143D01*
X2662286Y-12726143D01*
X2681333Y-12735667D01*
X2690857Y-12754714D01*
X2690857Y-12859476D01*
X3081333Y-12649952D02*
X2909905Y-12907095D01*
X3338476Y-12659476D02*
X3357524Y-12659476D01*
X3376571Y-12669000D01*
X3386095Y-12678524D01*
X3395619Y-12697571D01*
X3405143Y-12735667D01*
X3405143Y-12783286D01*
X3395619Y-12821381D01*
X3386095Y-12840428D01*
X3376571Y-12849952D01*
X3357524Y-12859476D01*
X3338476Y-12859476D01*
X3319428Y-12849952D01*
X3309905Y-12840428D01*
X3300381Y-12821381D01*
X3290857Y-12783286D01*
X3290857Y-12735667D01*
X3300381Y-12697571D01*
X3309905Y-12678524D01*
X3319428Y-12669000D01*
X3338476Y-12659476D01*
X3490857Y-12840428D02*
X3500381Y-12849952D01*
X3490857Y-12859476D01*
X3481333Y-12849952D01*
X3490857Y-12840428D01*
X3490857Y-12859476D01*
X3624190Y-12659476D02*
X3643238Y-12659476D01*
X3662286Y-12669000D01*
X3671809Y-12678524D01*
X3681333Y-12697571D01*
X3690857Y-12735667D01*
X3690857Y-12783286D01*
X3681333Y-12821381D01*
X3671809Y-12840428D01*
X3662286Y-12849952D01*
X3643238Y-12859476D01*
X3624190Y-12859476D01*
X3605143Y-12849952D01*
X3595619Y-12840428D01*
X3586095Y-12821381D01*
X3576571Y-12783286D01*
X3576571Y-12735667D01*
X3586095Y-12697571D01*
X3595619Y-12678524D01*
X3605143Y-12669000D01*
X3624190Y-12659476D01*
X3767048Y-12678524D02*
X3776571Y-12669000D01*
X3795619Y-12659476D01*
X3843238Y-12659476D01*
X3862286Y-12669000D01*
X3871809Y-12678524D01*
X3881333Y-12697571D01*
X3881333Y-12716619D01*
X3871809Y-12745190D01*
X3757524Y-12859476D01*
X3881333Y-12859476D01*
X3948000Y-12659476D02*
X4071809Y-12659476D01*
X4005143Y-12735667D01*
X4033714Y-12735667D01*
X4052762Y-12745190D01*
X4062286Y-12754714D01*
X4071809Y-12773762D01*
X4071809Y-12821381D01*
X4062286Y-12840428D01*
X4052762Y-12849952D01*
X4033714Y-12859476D01*
X3976571Y-12859476D01*
X3957524Y-12849952D01*
X3948000Y-12840428D01*
X4243238Y-12659476D02*
X4205143Y-12659476D01*
X4186095Y-12669000D01*
X4176571Y-12678524D01*
X4157524Y-12707095D01*
X4148000Y-12745190D01*
X4148000Y-12821381D01*
X4157524Y-12840428D01*
X4167048Y-12849952D01*
X4186095Y-12859476D01*
X4224190Y-12859476D01*
X4243238Y-12849952D01*
X4252762Y-12840428D01*
X4262286Y-12821381D01*
X4262286Y-12773762D01*
X4252762Y-12754714D01*
X4243238Y-12745190D01*
X4224190Y-12735667D01*
X4186095Y-12735667D01*
X4167048Y-12745190D01*
X4157524Y-12754714D01*
X4148000Y-12773762D01*
X4338476Y-12659476D02*
X4338476Y-12697571D01*
X4414667Y-12659476D02*
X4414667Y-12697571D01*
X4709905Y-12935667D02*
X4700381Y-12926143D01*
X4681333Y-12897571D01*
X4671810Y-12878524D01*
X4662286Y-12849952D01*
X4652762Y-12802333D01*
X4652762Y-12764238D01*
X4662286Y-12716619D01*
X4671810Y-12688048D01*
X4681333Y-12669000D01*
X4700381Y-12640428D01*
X4709905Y-12630905D01*
X4776571Y-12678524D02*
X4786095Y-12669000D01*
X4805143Y-12659476D01*
X4852762Y-12659476D01*
X4871810Y-12669000D01*
X4881333Y-12678524D01*
X4890857Y-12697571D01*
X4890857Y-12716619D01*
X4881333Y-12745190D01*
X4767048Y-12859476D01*
X4890857Y-12859476D01*
X5128952Y-12859476D02*
X5128952Y-12659476D01*
X5214667Y-12859476D02*
X5214667Y-12754714D01*
X5205143Y-12735667D01*
X5186095Y-12726143D01*
X5157524Y-12726143D01*
X5138476Y-12735667D01*
X5128952Y-12745190D01*
X5338476Y-12859476D02*
X5319429Y-12849952D01*
X5309905Y-12840428D01*
X5300381Y-12821381D01*
X5300381Y-12764238D01*
X5309905Y-12745190D01*
X5319429Y-12735667D01*
X5338476Y-12726143D01*
X5367048Y-12726143D01*
X5386095Y-12735667D01*
X5395619Y-12745190D01*
X5405143Y-12764238D01*
X5405143Y-12821381D01*
X5395619Y-12840428D01*
X5386095Y-12849952D01*
X5367048Y-12859476D01*
X5338476Y-12859476D01*
X5519429Y-12859476D02*
X5500381Y-12849952D01*
X5490857Y-12830905D01*
X5490857Y-12659476D01*
X5671809Y-12849952D02*
X5652762Y-12859476D01*
X5614667Y-12859476D01*
X5595619Y-12849952D01*
X5586095Y-12830905D01*
X5586095Y-12754714D01*
X5595619Y-12735667D01*
X5614667Y-12726143D01*
X5652762Y-12726143D01*
X5671809Y-12735667D01*
X5681333Y-12754714D01*
X5681333Y-12773762D01*
X5586095Y-12792809D01*
X5757524Y-12849952D02*
X5776571Y-12859476D01*
X5814667Y-12859476D01*
X5833714Y-12849952D01*
X5843238Y-12830905D01*
X5843238Y-12821381D01*
X5833714Y-12802333D01*
X5814667Y-12792809D01*
X5786095Y-12792809D01*
X5767048Y-12783286D01*
X5757524Y-12764238D01*
X5757524Y-12754714D01*
X5767048Y-12735667D01*
X5786095Y-12726143D01*
X5814667Y-12726143D01*
X5833714Y-12735667D01*
X5909905Y-12935667D02*
X5919428Y-12926143D01*
X5938476Y-12897571D01*
X5948000Y-12878524D01*
X5957524Y-12849952D01*
X5967048Y-12802333D01*
X5967048Y-12764238D01*
X5957524Y-12716619D01*
X5948000Y-12688048D01*
X5938476Y-12669000D01*
X5919428Y-12640428D01*
X5909905Y-12630905D01*
X6271809Y-12935667D02*
X6262286Y-12926143D01*
X6243238Y-12897571D01*
X6233714Y-12878524D01*
X6224190Y-12849952D01*
X6214667Y-12802333D01*
X6214667Y-12764238D01*
X6224190Y-12716619D01*
X6233714Y-12688048D01*
X6243238Y-12669000D01*
X6262286Y-12640428D01*
X6271809Y-12630905D01*
X6348000Y-12726143D02*
X6348000Y-12859476D01*
X6348000Y-12745190D02*
X6357524Y-12735667D01*
X6376571Y-12726143D01*
X6405143Y-12726143D01*
X6424190Y-12735667D01*
X6433714Y-12754714D01*
X6433714Y-12859476D01*
X6557524Y-12859476D02*
X6538476Y-12849952D01*
X6528952Y-12840428D01*
X6519428Y-12821381D01*
X6519428Y-12764238D01*
X6528952Y-12745190D01*
X6538476Y-12735667D01*
X6557524Y-12726143D01*
X6586095Y-12726143D01*
X6605143Y-12735667D01*
X6614667Y-12745190D01*
X6624190Y-12764238D01*
X6624190Y-12821381D01*
X6614667Y-12840428D01*
X6605143Y-12849952D01*
X6586095Y-12859476D01*
X6557524Y-12859476D01*
X6681333Y-12726143D02*
X6757524Y-12726143D01*
X6709905Y-12659476D02*
X6709905Y-12830905D01*
X6719428Y-12849952D01*
X6738476Y-12859476D01*
X6757524Y-12859476D01*
X6976571Y-12726143D02*
X6976571Y-12926143D01*
X6976571Y-12735667D02*
X6995619Y-12726143D01*
X7033714Y-12726143D01*
X7052762Y-12735667D01*
X7062286Y-12745190D01*
X7071809Y-12764238D01*
X7071809Y-12821381D01*
X7062286Y-12840428D01*
X7052762Y-12849952D01*
X7033714Y-12859476D01*
X6995619Y-12859476D01*
X6976571Y-12849952D01*
X7186095Y-12859476D02*
X7167048Y-12849952D01*
X7157524Y-12830905D01*
X7157524Y-12659476D01*
X7348000Y-12859476D02*
X7348000Y-12754714D01*
X7338476Y-12735667D01*
X7319428Y-12726143D01*
X7281333Y-12726143D01*
X7262286Y-12735667D01*
X7348000Y-12849952D02*
X7328952Y-12859476D01*
X7281333Y-12859476D01*
X7262286Y-12849952D01*
X7252762Y-12830905D01*
X7252762Y-12811857D01*
X7262286Y-12792809D01*
X7281333Y-12783286D01*
X7328952Y-12783286D01*
X7348000Y-12773762D01*
X7414667Y-12726143D02*
X7490857Y-12726143D01*
X7443238Y-12659476D02*
X7443238Y-12830905D01*
X7452762Y-12849952D01*
X7471809Y-12859476D01*
X7490857Y-12859476D01*
X7633714Y-12849952D02*
X7614667Y-12859476D01*
X7576571Y-12859476D01*
X7557524Y-12849952D01*
X7548000Y-12830905D01*
X7548000Y-12754714D01*
X7557524Y-12735667D01*
X7576571Y-12726143D01*
X7614667Y-12726143D01*
X7633714Y-12735667D01*
X7643238Y-12754714D01*
X7643238Y-12773762D01*
X7548000Y-12792809D01*
X7814667Y-12859476D02*
X7814667Y-12659476D01*
X7814667Y-12849952D02*
X7795619Y-12859476D01*
X7757524Y-12859476D01*
X7738476Y-12849952D01*
X7728952Y-12840428D01*
X7719428Y-12821381D01*
X7719428Y-12764238D01*
X7728952Y-12745190D01*
X7738476Y-12735667D01*
X7757524Y-12726143D01*
X7795619Y-12726143D01*
X7814667Y-12735667D01*
X7890857Y-12935667D02*
X7900381Y-12926143D01*
X7919428Y-12897571D01*
X7928952Y-12878524D01*
X7938476Y-12849952D01*
X7948000Y-12802333D01*
X7948000Y-12764238D01*
X7938476Y-12716619D01*
X7928952Y-12688048D01*
X7919428Y-12669000D01*
X7900381Y-12640428D01*
X7890857Y-12630905D01*
D13*
X1138000Y-13033000D02*
G75*
G03*
X1138000Y-13033000I-87500J0D01*
G01*
D11*
X1500381Y-13123476D02*
X1386095Y-13123476D01*
X1443238Y-13123476D02*
X1443238Y-12923476D01*
X1424190Y-12952048D01*
X1405143Y-12971095D01*
X1386095Y-12980619D01*
X1586095Y-13104428D02*
X1595619Y-13113952D01*
X1586095Y-13123476D01*
X1576571Y-13113952D01*
X1586095Y-13104428D01*
X1586095Y-13123476D01*
X1662286Y-12923476D02*
X1795619Y-12923476D01*
X1709905Y-13123476D01*
X1967048Y-12923476D02*
X1871809Y-12923476D01*
X1862286Y-13018714D01*
X1871809Y-13009190D01*
X1890857Y-12999667D01*
X1938476Y-12999667D01*
X1957524Y-13009190D01*
X1967048Y-13018714D01*
X1976571Y-13037762D01*
X1976571Y-13085381D01*
X1967048Y-13104428D01*
X1957524Y-13113952D01*
X1938476Y-13123476D01*
X1890857Y-13123476D01*
X1871809Y-13113952D01*
X1862286Y-13104428D01*
X2100381Y-12923476D02*
X2119429Y-12923476D01*
X2138476Y-12933000D01*
X2148000Y-12942524D01*
X2157524Y-12961571D01*
X2167048Y-12999667D01*
X2167048Y-13047286D01*
X2157524Y-13085381D01*
X2148000Y-13104428D01*
X2138476Y-13113952D01*
X2119429Y-13123476D01*
X2100381Y-13123476D01*
X2081333Y-13113952D01*
X2071809Y-13104428D01*
X2062286Y-13085381D01*
X2052762Y-13047286D01*
X2052762Y-12999667D01*
X2062286Y-12961571D01*
X2071809Y-12942524D01*
X2081333Y-12933000D01*
X2100381Y-12923476D01*
X2252762Y-13123476D02*
X2252762Y-12990143D01*
X2252762Y-13009190D02*
X2262286Y-12999667D01*
X2281333Y-12990143D01*
X2309905Y-12990143D01*
X2328952Y-12999667D01*
X2338476Y-13018714D01*
X2338476Y-13123476D01*
X2338476Y-13018714D02*
X2348000Y-12999667D01*
X2367048Y-12990143D01*
X2395619Y-12990143D01*
X2414667Y-12999667D01*
X2424190Y-13018714D01*
X2424190Y-13123476D01*
X2519429Y-13123476D02*
X2519429Y-12990143D01*
X2519429Y-13009190D02*
X2528952Y-12999667D01*
X2548000Y-12990143D01*
X2576571Y-12990143D01*
X2595619Y-12999667D01*
X2605143Y-13018714D01*
X2605143Y-13123476D01*
X2605143Y-13018714D02*
X2614667Y-12999667D01*
X2633714Y-12990143D01*
X2662286Y-12990143D01*
X2681333Y-12999667D01*
X2690857Y-13018714D01*
X2690857Y-13123476D01*
X3081333Y-12913952D02*
X2909905Y-13171095D01*
X3338476Y-12923476D02*
X3357524Y-12923476D01*
X3376571Y-12933000D01*
X3386095Y-12942524D01*
X3395619Y-12961571D01*
X3405143Y-12999667D01*
X3405143Y-13047286D01*
X3395619Y-13085381D01*
X3386095Y-13104428D01*
X3376571Y-13113952D01*
X3357524Y-13123476D01*
X3338476Y-13123476D01*
X3319428Y-13113952D01*
X3309905Y-13104428D01*
X3300381Y-13085381D01*
X3290857Y-13047286D01*
X3290857Y-12999667D01*
X3300381Y-12961571D01*
X3309905Y-12942524D01*
X3319428Y-12933000D01*
X3338476Y-12923476D01*
X3490857Y-13104428D02*
X3500381Y-13113952D01*
X3490857Y-13123476D01*
X3481333Y-13113952D01*
X3490857Y-13104428D01*
X3490857Y-13123476D01*
X3624190Y-12923476D02*
X3643238Y-12923476D01*
X3662286Y-12933000D01*
X3671809Y-12942524D01*
X3681333Y-12961571D01*
X3690857Y-12999667D01*
X3690857Y-13047286D01*
X3681333Y-13085381D01*
X3671809Y-13104428D01*
X3662286Y-13113952D01*
X3643238Y-13123476D01*
X3624190Y-13123476D01*
X3605143Y-13113952D01*
X3595619Y-13104428D01*
X3586095Y-13085381D01*
X3576571Y-13047286D01*
X3576571Y-12999667D01*
X3586095Y-12961571D01*
X3595619Y-12942524D01*
X3605143Y-12933000D01*
X3624190Y-12923476D01*
X3862286Y-12923476D02*
X3824190Y-12923476D01*
X3805143Y-12933000D01*
X3795619Y-12942524D01*
X3776571Y-12971095D01*
X3767048Y-13009190D01*
X3767048Y-13085381D01*
X3776571Y-13104428D01*
X3786095Y-13113952D01*
X3805143Y-13123476D01*
X3843238Y-13123476D01*
X3862286Y-13113952D01*
X3871809Y-13104428D01*
X3881333Y-13085381D01*
X3881333Y-13037762D01*
X3871809Y-13018714D01*
X3862286Y-13009190D01*
X3843238Y-12999667D01*
X3805143Y-12999667D01*
X3786095Y-13009190D01*
X3776571Y-13018714D01*
X3767048Y-13037762D01*
X3995619Y-13009190D02*
X3976571Y-12999667D01*
X3967048Y-12990143D01*
X3957524Y-12971095D01*
X3957524Y-12961571D01*
X3967048Y-12942524D01*
X3976571Y-12933000D01*
X3995619Y-12923476D01*
X4033714Y-12923476D01*
X4052762Y-12933000D01*
X4062286Y-12942524D01*
X4071809Y-12961571D01*
X4071809Y-12971095D01*
X4062286Y-12990143D01*
X4052762Y-12999667D01*
X4033714Y-13009190D01*
X3995619Y-13009190D01*
X3976571Y-13018714D01*
X3967048Y-13028238D01*
X3957524Y-13047286D01*
X3957524Y-13085381D01*
X3967048Y-13104428D01*
X3976571Y-13113952D01*
X3995619Y-13123476D01*
X4033714Y-13123476D01*
X4052762Y-13113952D01*
X4062286Y-13104428D01*
X4071809Y-13085381D01*
X4071809Y-13047286D01*
X4062286Y-13028238D01*
X4052762Y-13018714D01*
X4033714Y-13009190D01*
X4167048Y-13123476D02*
X4205143Y-13123476D01*
X4224190Y-13113952D01*
X4233714Y-13104428D01*
X4252762Y-13075857D01*
X4262286Y-13037762D01*
X4262286Y-12961571D01*
X4252762Y-12942524D01*
X4243238Y-12933000D01*
X4224190Y-12923476D01*
X4186095Y-12923476D01*
X4167048Y-12933000D01*
X4157524Y-12942524D01*
X4148000Y-12961571D01*
X4148000Y-13009190D01*
X4157524Y-13028238D01*
X4167048Y-13037762D01*
X4186095Y-13047286D01*
X4224190Y-13047286D01*
X4243238Y-13037762D01*
X4252762Y-13028238D01*
X4262286Y-13009190D01*
X4338476Y-12923476D02*
X4338476Y-12961571D01*
X4414667Y-12923476D02*
X4414667Y-12961571D01*
X4709905Y-13199667D02*
X4700381Y-13190143D01*
X4681333Y-13161571D01*
X4671810Y-13142524D01*
X4662286Y-13113952D01*
X4652762Y-13066333D01*
X4652762Y-13028238D01*
X4662286Y-12980619D01*
X4671810Y-12952048D01*
X4681333Y-12933000D01*
X4700381Y-12904428D01*
X4709905Y-12894905D01*
X4890857Y-13123476D02*
X4776571Y-13123476D01*
X4833714Y-13123476D02*
X4833714Y-12923476D01*
X4814667Y-12952048D01*
X4795619Y-12971095D01*
X4776571Y-12980619D01*
X4957524Y-12923476D02*
X5081333Y-12923476D01*
X5014667Y-12999667D01*
X5043238Y-12999667D01*
X5062286Y-13009190D01*
X5071810Y-13018714D01*
X5081333Y-13037762D01*
X5081333Y-13085381D01*
X5071810Y-13104428D01*
X5062286Y-13113952D01*
X5043238Y-13123476D01*
X4986095Y-13123476D01*
X4967048Y-13113952D01*
X4957524Y-13104428D01*
X5252762Y-12923476D02*
X5214667Y-12923476D01*
X5195619Y-12933000D01*
X5186095Y-12942524D01*
X5167048Y-12971095D01*
X5157524Y-13009190D01*
X5157524Y-13085381D01*
X5167048Y-13104428D01*
X5176571Y-13113952D01*
X5195619Y-13123476D01*
X5233714Y-13123476D01*
X5252762Y-13113952D01*
X5262286Y-13104428D01*
X5271810Y-13085381D01*
X5271810Y-13037762D01*
X5262286Y-13018714D01*
X5252762Y-13009190D01*
X5233714Y-12999667D01*
X5195619Y-12999667D01*
X5176571Y-13009190D01*
X5167048Y-13018714D01*
X5157524Y-13037762D01*
X5509905Y-13123476D02*
X5509905Y-12923476D01*
X5595619Y-13123476D02*
X5595619Y-13018714D01*
X5586095Y-12999667D01*
X5567048Y-12990143D01*
X5538476Y-12990143D01*
X5519429Y-12999667D01*
X5509905Y-13009190D01*
X5719428Y-13123476D02*
X5700381Y-13113952D01*
X5690857Y-13104428D01*
X5681333Y-13085381D01*
X5681333Y-13028238D01*
X5690857Y-13009190D01*
X5700381Y-12999667D01*
X5719428Y-12990143D01*
X5748000Y-12990143D01*
X5767048Y-12999667D01*
X5776571Y-13009190D01*
X5786095Y-13028238D01*
X5786095Y-13085381D01*
X5776571Y-13104428D01*
X5767048Y-13113952D01*
X5748000Y-13123476D01*
X5719428Y-13123476D01*
X5900381Y-13123476D02*
X5881333Y-13113952D01*
X5871809Y-13094905D01*
X5871809Y-12923476D01*
X6052762Y-13113952D02*
X6033714Y-13123476D01*
X5995619Y-13123476D01*
X5976571Y-13113952D01*
X5967048Y-13094905D01*
X5967048Y-13018714D01*
X5976571Y-12999667D01*
X5995619Y-12990143D01*
X6033714Y-12990143D01*
X6052762Y-12999667D01*
X6062286Y-13018714D01*
X6062286Y-13037762D01*
X5967048Y-13056809D01*
X6138476Y-13113952D02*
X6157524Y-13123476D01*
X6195619Y-13123476D01*
X6214667Y-13113952D01*
X6224190Y-13094905D01*
X6224190Y-13085381D01*
X6214667Y-13066333D01*
X6195619Y-13056809D01*
X6167048Y-13056809D01*
X6148000Y-13047286D01*
X6138476Y-13028238D01*
X6138476Y-13018714D01*
X6148000Y-12999667D01*
X6167048Y-12990143D01*
X6195619Y-12990143D01*
X6214667Y-12999667D01*
X6290857Y-13199667D02*
X6300381Y-13190143D01*
X6319428Y-13161571D01*
X6328952Y-13142524D01*
X6338476Y-13113952D01*
X6348000Y-13066333D01*
X6348000Y-13028238D01*
X6338476Y-12980619D01*
X6328952Y-12952048D01*
X6319428Y-12933000D01*
X6300381Y-12904428D01*
X6290857Y-12894905D01*
X6652762Y-13199667D02*
X6643238Y-13190143D01*
X6624190Y-13161571D01*
X6614667Y-13142524D01*
X6605143Y-13113952D01*
X6595619Y-13066333D01*
X6595619Y-13028238D01*
X6605143Y-12980619D01*
X6614667Y-12952048D01*
X6624190Y-12933000D01*
X6643238Y-12904428D01*
X6652762Y-12894905D01*
X6728952Y-12990143D02*
X6728952Y-13123476D01*
X6728952Y-13009190D02*
X6738476Y-12999667D01*
X6757524Y-12990143D01*
X6786095Y-12990143D01*
X6805143Y-12999667D01*
X6814667Y-13018714D01*
X6814667Y-13123476D01*
X6938476Y-13123476D02*
X6919428Y-13113952D01*
X6909905Y-13104428D01*
X6900381Y-13085381D01*
X6900381Y-13028238D01*
X6909905Y-13009190D01*
X6919428Y-12999667D01*
X6938476Y-12990143D01*
X6967048Y-12990143D01*
X6986095Y-12999667D01*
X6995619Y-13009190D01*
X7005143Y-13028238D01*
X7005143Y-13085381D01*
X6995619Y-13104428D01*
X6986095Y-13113952D01*
X6967048Y-13123476D01*
X6938476Y-13123476D01*
X7062286Y-12990143D02*
X7138476Y-12990143D01*
X7090857Y-12923476D02*
X7090857Y-13094905D01*
X7100381Y-13113952D01*
X7119428Y-13123476D01*
X7138476Y-13123476D01*
X7357524Y-12990143D02*
X7357524Y-13190143D01*
X7357524Y-12999667D02*
X7376571Y-12990143D01*
X7414667Y-12990143D01*
X7433714Y-12999667D01*
X7443238Y-13009190D01*
X7452762Y-13028238D01*
X7452762Y-13085381D01*
X7443238Y-13104428D01*
X7433714Y-13113952D01*
X7414667Y-13123476D01*
X7376571Y-13123476D01*
X7357524Y-13113952D01*
X7567048Y-13123476D02*
X7548000Y-13113952D01*
X7538476Y-13094905D01*
X7538476Y-12923476D01*
X7728952Y-13123476D02*
X7728952Y-13018714D01*
X7719428Y-12999667D01*
X7700381Y-12990143D01*
X7662286Y-12990143D01*
X7643238Y-12999667D01*
X7728952Y-13113952D02*
X7709905Y-13123476D01*
X7662286Y-13123476D01*
X7643238Y-13113952D01*
X7633714Y-13094905D01*
X7633714Y-13075857D01*
X7643238Y-13056809D01*
X7662286Y-13047286D01*
X7709905Y-13047286D01*
X7728952Y-13037762D01*
X7795619Y-12990143D02*
X7871809Y-12990143D01*
X7824190Y-12923476D02*
X7824190Y-13094905D01*
X7833714Y-13113952D01*
X7852762Y-13123476D01*
X7871809Y-13123476D01*
X8014667Y-13113952D02*
X7995619Y-13123476D01*
X7957524Y-13123476D01*
X7938476Y-13113952D01*
X7928952Y-13094905D01*
X7928952Y-13018714D01*
X7938476Y-12999667D01*
X7957524Y-12990143D01*
X7995619Y-12990143D01*
X8014667Y-12999667D01*
X8024190Y-13018714D01*
X8024190Y-13037762D01*
X7928952Y-13056809D01*
X8195619Y-13123476D02*
X8195619Y-12923476D01*
X8195619Y-13113952D02*
X8176571Y-13123476D01*
X8138476Y-13123476D01*
X8119428Y-13113952D01*
X8109905Y-13104428D01*
X8100381Y-13085381D01*
X8100381Y-13028238D01*
X8109905Y-13009190D01*
X8119428Y-12999667D01*
X8138476Y-12990143D01*
X8176571Y-12990143D01*
X8195619Y-12999667D01*
X8271809Y-13199667D02*
X8281333Y-13190143D01*
X8300381Y-13161571D01*
X8309905Y-13142524D01*
X8319428Y-13113952D01*
X8328952Y-13066333D01*
X8328952Y-13028238D01*
X8319428Y-12980619D01*
X8309905Y-12952048D01*
X8300381Y-12933000D01*
X8281333Y-12904428D01*
X8271809Y-12894905D01*
X1038000Y-13228000D02*
X1038000Y-13428000D01*
X938000Y-13328000D02*
X1138000Y-13328000D01*
X1376571Y-13218476D02*
X1500381Y-13218476D01*
X1433714Y-13294667D01*
X1462286Y-13294667D01*
X1481333Y-13304190D01*
X1490857Y-13313714D01*
X1500381Y-13332762D01*
X1500381Y-13380381D01*
X1490857Y-13399428D01*
X1481333Y-13408952D01*
X1462286Y-13418476D01*
X1405143Y-13418476D01*
X1386095Y-13408952D01*
X1376571Y-13399428D01*
X1586095Y-13399428D02*
X1595619Y-13408952D01*
X1586095Y-13418476D01*
X1576571Y-13408952D01*
X1586095Y-13399428D01*
X1586095Y-13418476D01*
X1719428Y-13218476D02*
X1738476Y-13218476D01*
X1757524Y-13228000D01*
X1767048Y-13237524D01*
X1776571Y-13256571D01*
X1786095Y-13294667D01*
X1786095Y-13342286D01*
X1776571Y-13380381D01*
X1767048Y-13399428D01*
X1757524Y-13408952D01*
X1738476Y-13418476D01*
X1719428Y-13418476D01*
X1700381Y-13408952D01*
X1690857Y-13399428D01*
X1681333Y-13380381D01*
X1671809Y-13342286D01*
X1671809Y-13294667D01*
X1681333Y-13256571D01*
X1690857Y-13237524D01*
X1700381Y-13228000D01*
X1719428Y-13218476D01*
X1909905Y-13218476D02*
X1928952Y-13218476D01*
X1948000Y-13228000D01*
X1957524Y-13237524D01*
X1967048Y-13256571D01*
X1976571Y-13294667D01*
X1976571Y-13342286D01*
X1967048Y-13380381D01*
X1957524Y-13399428D01*
X1948000Y-13408952D01*
X1928952Y-13418476D01*
X1909905Y-13418476D01*
X1890857Y-13408952D01*
X1881333Y-13399428D01*
X1871809Y-13380381D01*
X1862286Y-13342286D01*
X1862286Y-13294667D01*
X1871809Y-13256571D01*
X1881333Y-13237524D01*
X1890857Y-13228000D01*
X1909905Y-13218476D01*
X2100381Y-13218476D02*
X2119429Y-13218476D01*
X2138476Y-13228000D01*
X2148000Y-13237524D01*
X2157524Y-13256571D01*
X2167048Y-13294667D01*
X2167048Y-13342286D01*
X2157524Y-13380381D01*
X2148000Y-13399428D01*
X2138476Y-13408952D01*
X2119429Y-13418476D01*
X2100381Y-13418476D01*
X2081333Y-13408952D01*
X2071809Y-13399428D01*
X2062286Y-13380381D01*
X2052762Y-13342286D01*
X2052762Y-13294667D01*
X2062286Y-13256571D01*
X2071809Y-13237524D01*
X2081333Y-13228000D01*
X2100381Y-13218476D01*
X2252762Y-13418476D02*
X2252762Y-13285143D01*
X2252762Y-13304190D02*
X2262286Y-13294667D01*
X2281333Y-13285143D01*
X2309905Y-13285143D01*
X2328952Y-13294667D01*
X2338476Y-13313714D01*
X2338476Y-13418476D01*
X2338476Y-13313714D02*
X2348000Y-13294667D01*
X2367048Y-13285143D01*
X2395619Y-13285143D01*
X2414667Y-13294667D01*
X2424190Y-13313714D01*
X2424190Y-13418476D01*
X2519429Y-13418476D02*
X2519429Y-13285143D01*
X2519429Y-13304190D02*
X2528952Y-13294667D01*
X2548000Y-13285143D01*
X2576571Y-13285143D01*
X2595619Y-13294667D01*
X2605143Y-13313714D01*
X2605143Y-13418476D01*
X2605143Y-13313714D02*
X2614667Y-13294667D01*
X2633714Y-13285143D01*
X2662286Y-13285143D01*
X2681333Y-13294667D01*
X2690857Y-13313714D01*
X2690857Y-13418476D01*
X3081333Y-13208952D02*
X2909905Y-13466095D01*
X3338476Y-13218476D02*
X3357524Y-13218476D01*
X3376571Y-13228000D01*
X3386095Y-13237524D01*
X3395619Y-13256571D01*
X3405143Y-13294667D01*
X3405143Y-13342286D01*
X3395619Y-13380381D01*
X3386095Y-13399428D01*
X3376571Y-13408952D01*
X3357524Y-13418476D01*
X3338476Y-13418476D01*
X3319428Y-13408952D01*
X3309905Y-13399428D01*
X3300381Y-13380381D01*
X3290857Y-13342286D01*
X3290857Y-13294667D01*
X3300381Y-13256571D01*
X3309905Y-13237524D01*
X3319428Y-13228000D01*
X3338476Y-13218476D01*
X3490857Y-13399428D02*
X3500381Y-13408952D01*
X3490857Y-13418476D01*
X3481333Y-13408952D01*
X3490857Y-13399428D01*
X3490857Y-13418476D01*
X3690857Y-13418476D02*
X3576571Y-13418476D01*
X3633714Y-13418476D02*
X3633714Y-13218476D01*
X3614667Y-13247048D01*
X3595619Y-13266095D01*
X3576571Y-13275619D01*
X3881333Y-13418476D02*
X3767048Y-13418476D01*
X3824190Y-13418476D02*
X3824190Y-13218476D01*
X3805143Y-13247048D01*
X3786095Y-13266095D01*
X3767048Y-13275619D01*
X3995619Y-13304190D02*
X3976571Y-13294667D01*
X3967048Y-13285143D01*
X3957524Y-13266095D01*
X3957524Y-13256571D01*
X3967048Y-13237524D01*
X3976571Y-13228000D01*
X3995619Y-13218476D01*
X4033714Y-13218476D01*
X4052762Y-13228000D01*
X4062286Y-13237524D01*
X4071809Y-13256571D01*
X4071809Y-13266095D01*
X4062286Y-13285143D01*
X4052762Y-13294667D01*
X4033714Y-13304190D01*
X3995619Y-13304190D01*
X3976571Y-13313714D01*
X3967048Y-13323238D01*
X3957524Y-13342286D01*
X3957524Y-13380381D01*
X3967048Y-13399428D01*
X3976571Y-13408952D01*
X3995619Y-13418476D01*
X4033714Y-13418476D01*
X4052762Y-13408952D01*
X4062286Y-13399428D01*
X4071809Y-13380381D01*
X4071809Y-13342286D01*
X4062286Y-13323238D01*
X4052762Y-13313714D01*
X4033714Y-13304190D01*
X4262286Y-13418476D02*
X4148000Y-13418476D01*
X4205143Y-13418476D02*
X4205143Y-13218476D01*
X4186095Y-13247048D01*
X4167048Y-13266095D01*
X4148000Y-13275619D01*
X4338476Y-13218476D02*
X4338476Y-13256571D01*
X4414667Y-13218476D02*
X4414667Y-13256571D01*
X4709905Y-13494667D02*
X4700381Y-13485143D01*
X4681333Y-13456571D01*
X4671810Y-13437524D01*
X4662286Y-13408952D01*
X4652762Y-13361333D01*
X4652762Y-13323238D01*
X4662286Y-13275619D01*
X4671810Y-13247048D01*
X4681333Y-13228000D01*
X4700381Y-13199428D01*
X4709905Y-13189905D01*
X4890857Y-13418476D02*
X4776571Y-13418476D01*
X4833714Y-13418476D02*
X4833714Y-13218476D01*
X4814667Y-13247048D01*
X4795619Y-13266095D01*
X4776571Y-13275619D01*
X4957524Y-13218476D02*
X5081333Y-13218476D01*
X5014667Y-13294667D01*
X5043238Y-13294667D01*
X5062286Y-13304190D01*
X5071810Y-13313714D01*
X5081333Y-13332762D01*
X5081333Y-13380381D01*
X5071810Y-13399428D01*
X5062286Y-13408952D01*
X5043238Y-13418476D01*
X4986095Y-13418476D01*
X4967048Y-13408952D01*
X4957524Y-13399428D01*
X5252762Y-13218476D02*
X5214667Y-13218476D01*
X5195619Y-13228000D01*
X5186095Y-13237524D01*
X5167048Y-13266095D01*
X5157524Y-13304190D01*
X5157524Y-13380381D01*
X5167048Y-13399428D01*
X5176571Y-13408952D01*
X5195619Y-13418476D01*
X5233714Y-13418476D01*
X5252762Y-13408952D01*
X5262286Y-13399428D01*
X5271810Y-13380381D01*
X5271810Y-13332762D01*
X5262286Y-13313714D01*
X5252762Y-13304190D01*
X5233714Y-13294667D01*
X5195619Y-13294667D01*
X5176571Y-13304190D01*
X5167048Y-13313714D01*
X5157524Y-13332762D01*
X5509905Y-13418476D02*
X5509905Y-13218476D01*
X5595619Y-13418476D02*
X5595619Y-13313714D01*
X5586095Y-13294667D01*
X5567048Y-13285143D01*
X5538476Y-13285143D01*
X5519429Y-13294667D01*
X5509905Y-13304190D01*
X5719428Y-13418476D02*
X5700381Y-13408952D01*
X5690857Y-13399428D01*
X5681333Y-13380381D01*
X5681333Y-13323238D01*
X5690857Y-13304190D01*
X5700381Y-13294667D01*
X5719428Y-13285143D01*
X5748000Y-13285143D01*
X5767048Y-13294667D01*
X5776571Y-13304190D01*
X5786095Y-13323238D01*
X5786095Y-13380381D01*
X5776571Y-13399428D01*
X5767048Y-13408952D01*
X5748000Y-13418476D01*
X5719428Y-13418476D01*
X5900381Y-13418476D02*
X5881333Y-13408952D01*
X5871809Y-13389905D01*
X5871809Y-13218476D01*
X6052762Y-13408952D02*
X6033714Y-13418476D01*
X5995619Y-13418476D01*
X5976571Y-13408952D01*
X5967048Y-13389905D01*
X5967048Y-13313714D01*
X5976571Y-13294667D01*
X5995619Y-13285143D01*
X6033714Y-13285143D01*
X6052762Y-13294667D01*
X6062286Y-13313714D01*
X6062286Y-13332762D01*
X5967048Y-13351809D01*
X6138476Y-13408952D02*
X6157524Y-13418476D01*
X6195619Y-13418476D01*
X6214667Y-13408952D01*
X6224190Y-13389905D01*
X6224190Y-13380381D01*
X6214667Y-13361333D01*
X6195619Y-13351809D01*
X6167048Y-13351809D01*
X6148000Y-13342286D01*
X6138476Y-13323238D01*
X6138476Y-13313714D01*
X6148000Y-13294667D01*
X6167048Y-13285143D01*
X6195619Y-13285143D01*
X6214667Y-13294667D01*
X6290857Y-13494667D02*
X6300381Y-13485143D01*
X6319428Y-13456571D01*
X6328952Y-13437524D01*
X6338476Y-13408952D01*
X6348000Y-13361333D01*
X6348000Y-13323238D01*
X6338476Y-13275619D01*
X6328952Y-13247048D01*
X6319428Y-13228000D01*
X6300381Y-13199428D01*
X6290857Y-13189905D01*
X6652762Y-13494667D02*
X6643238Y-13485143D01*
X6624190Y-13456571D01*
X6614667Y-13437524D01*
X6605143Y-13408952D01*
X6595619Y-13361333D01*
X6595619Y-13323238D01*
X6605143Y-13275619D01*
X6614667Y-13247048D01*
X6624190Y-13228000D01*
X6643238Y-13199428D01*
X6652762Y-13189905D01*
X6728952Y-13285143D02*
X6728952Y-13418476D01*
X6728952Y-13304190D02*
X6738476Y-13294667D01*
X6757524Y-13285143D01*
X6786095Y-13285143D01*
X6805143Y-13294667D01*
X6814667Y-13313714D01*
X6814667Y-13418476D01*
X6938476Y-13418476D02*
X6919428Y-13408952D01*
X6909905Y-13399428D01*
X6900381Y-13380381D01*
X6900381Y-13323238D01*
X6909905Y-13304190D01*
X6919428Y-13294667D01*
X6938476Y-13285143D01*
X6967048Y-13285143D01*
X6986095Y-13294667D01*
X6995619Y-13304190D01*
X7005143Y-13323238D01*
X7005143Y-13380381D01*
X6995619Y-13399428D01*
X6986095Y-13408952D01*
X6967048Y-13418476D01*
X6938476Y-13418476D01*
X7062286Y-13285143D02*
X7138476Y-13285143D01*
X7090857Y-13218476D02*
X7090857Y-13389905D01*
X7100381Y-13408952D01*
X7119428Y-13418476D01*
X7138476Y-13418476D01*
X7357524Y-13285143D02*
X7357524Y-13485143D01*
X7357524Y-13294667D02*
X7376571Y-13285143D01*
X7414667Y-13285143D01*
X7433714Y-13294667D01*
X7443238Y-13304190D01*
X7452762Y-13323238D01*
X7452762Y-13380381D01*
X7443238Y-13399428D01*
X7433714Y-13408952D01*
X7414667Y-13418476D01*
X7376571Y-13418476D01*
X7357524Y-13408952D01*
X7567048Y-13418476D02*
X7548000Y-13408952D01*
X7538476Y-13389905D01*
X7538476Y-13218476D01*
X7728952Y-13418476D02*
X7728952Y-13313714D01*
X7719428Y-13294667D01*
X7700381Y-13285143D01*
X7662286Y-13285143D01*
X7643238Y-13294667D01*
X7728952Y-13408952D02*
X7709905Y-13418476D01*
X7662286Y-13418476D01*
X7643238Y-13408952D01*
X7633714Y-13389905D01*
X7633714Y-13370857D01*
X7643238Y-13351809D01*
X7662286Y-13342286D01*
X7709905Y-13342286D01*
X7728952Y-13332762D01*
X7795619Y-13285143D02*
X7871809Y-13285143D01*
X7824190Y-13218476D02*
X7824190Y-13389905D01*
X7833714Y-13408952D01*
X7852762Y-13418476D01*
X7871809Y-13418476D01*
X8014667Y-13408952D02*
X7995619Y-13418476D01*
X7957524Y-13418476D01*
X7938476Y-13408952D01*
X7928952Y-13389905D01*
X7928952Y-13313714D01*
X7938476Y-13294667D01*
X7957524Y-13285143D01*
X7995619Y-13285143D01*
X8014667Y-13294667D01*
X8024190Y-13313714D01*
X8024190Y-13332762D01*
X7928952Y-13351809D01*
X8195619Y-13418476D02*
X8195619Y-13218476D01*
X8195619Y-13408952D02*
X8176571Y-13418476D01*
X8138476Y-13418476D01*
X8119428Y-13408952D01*
X8109905Y-13399428D01*
X8100381Y-13380381D01*
X8100381Y-13323238D01*
X8109905Y-13304190D01*
X8119428Y-13294667D01*
X8138476Y-13285143D01*
X8176571Y-13285143D01*
X8195619Y-13294667D01*
X8271809Y-13494667D02*
X8281333Y-13485143D01*
X8300381Y-13456571D01*
X8309905Y-13437524D01*
X8319428Y-13408952D01*
X8328952Y-13361333D01*
X8328952Y-13323238D01*
X8319428Y-13275619D01*
X8309905Y-13247048D01*
X8300381Y-13228000D01*
X8281333Y-13199428D01*
X8271809Y-13189905D01*
X1108711Y-13718711D02*
X1108711Y-13577289D01*
X967289Y-13577289D01*
X967289Y-13718711D01*
X1108711Y-13718711D01*
X1376571Y-13538476D02*
X1500381Y-13538476D01*
X1433714Y-13614667D01*
X1462286Y-13614667D01*
X1481333Y-13624190D01*
X1490857Y-13633714D01*
X1500381Y-13652762D01*
X1500381Y-13700381D01*
X1490857Y-13719428D01*
X1481333Y-13728952D01*
X1462286Y-13738476D01*
X1405143Y-13738476D01*
X1386095Y-13728952D01*
X1376571Y-13719428D01*
X1586095Y-13719428D02*
X1595619Y-13728952D01*
X1586095Y-13738476D01*
X1576571Y-13728952D01*
X1586095Y-13719428D01*
X1586095Y-13738476D01*
X1719428Y-13538476D02*
X1738476Y-13538476D01*
X1757524Y-13548000D01*
X1767048Y-13557524D01*
X1776571Y-13576571D01*
X1786095Y-13614667D01*
X1786095Y-13662286D01*
X1776571Y-13700381D01*
X1767048Y-13719428D01*
X1757524Y-13728952D01*
X1738476Y-13738476D01*
X1719428Y-13738476D01*
X1700381Y-13728952D01*
X1690857Y-13719428D01*
X1681333Y-13700381D01*
X1671809Y-13662286D01*
X1671809Y-13614667D01*
X1681333Y-13576571D01*
X1690857Y-13557524D01*
X1700381Y-13548000D01*
X1719428Y-13538476D01*
X1957524Y-13605143D02*
X1957524Y-13738476D01*
X1909905Y-13528952D02*
X1862286Y-13671809D01*
X1986095Y-13671809D01*
X2090857Y-13624190D02*
X2071809Y-13614667D01*
X2062286Y-13605143D01*
X2052762Y-13586095D01*
X2052762Y-13576571D01*
X2062286Y-13557524D01*
X2071809Y-13548000D01*
X2090857Y-13538476D01*
X2128952Y-13538476D01*
X2148000Y-13548000D01*
X2157524Y-13557524D01*
X2167048Y-13576571D01*
X2167048Y-13586095D01*
X2157524Y-13605143D01*
X2148000Y-13614667D01*
X2128952Y-13624190D01*
X2090857Y-13624190D01*
X2071809Y-13633714D01*
X2062286Y-13643238D01*
X2052762Y-13662286D01*
X2052762Y-13700381D01*
X2062286Y-13719428D01*
X2071809Y-13728952D01*
X2090857Y-13738476D01*
X2128952Y-13738476D01*
X2148000Y-13728952D01*
X2157524Y-13719428D01*
X2167048Y-13700381D01*
X2167048Y-13662286D01*
X2157524Y-13643238D01*
X2148000Y-13633714D01*
X2128952Y-13624190D01*
X2252762Y-13738476D02*
X2252762Y-13605143D01*
X2252762Y-13624190D02*
X2262286Y-13614667D01*
X2281333Y-13605143D01*
X2309905Y-13605143D01*
X2328952Y-13614667D01*
X2338476Y-13633714D01*
X2338476Y-13738476D01*
X2338476Y-13633714D02*
X2348000Y-13614667D01*
X2367048Y-13605143D01*
X2395619Y-13605143D01*
X2414667Y-13614667D01*
X2424190Y-13633714D01*
X2424190Y-13738476D01*
X2519429Y-13738476D02*
X2519429Y-13605143D01*
X2519429Y-13624190D02*
X2528952Y-13614667D01*
X2548000Y-13605143D01*
X2576571Y-13605143D01*
X2595619Y-13614667D01*
X2605143Y-13633714D01*
X2605143Y-13738476D01*
X2605143Y-13633714D02*
X2614667Y-13614667D01*
X2633714Y-13605143D01*
X2662286Y-13605143D01*
X2681333Y-13614667D01*
X2690857Y-13633714D01*
X2690857Y-13738476D01*
X3081333Y-13528952D02*
X2909905Y-13786095D01*
X3338476Y-13538476D02*
X3357524Y-13538476D01*
X3376571Y-13548000D01*
X3386095Y-13557524D01*
X3395619Y-13576571D01*
X3405143Y-13614667D01*
X3405143Y-13662286D01*
X3395619Y-13700381D01*
X3386095Y-13719428D01*
X3376571Y-13728952D01*
X3357524Y-13738476D01*
X3338476Y-13738476D01*
X3319428Y-13728952D01*
X3309905Y-13719428D01*
X3300381Y-13700381D01*
X3290857Y-13662286D01*
X3290857Y-13614667D01*
X3300381Y-13576571D01*
X3309905Y-13557524D01*
X3319428Y-13548000D01*
X3338476Y-13538476D01*
X3490857Y-13719428D02*
X3500381Y-13728952D01*
X3490857Y-13738476D01*
X3481333Y-13728952D01*
X3490857Y-13719428D01*
X3490857Y-13738476D01*
X3690857Y-13738476D02*
X3576571Y-13738476D01*
X3633714Y-13738476D02*
X3633714Y-13538476D01*
X3614667Y-13567048D01*
X3595619Y-13586095D01*
X3576571Y-13595619D01*
X3767048Y-13557524D02*
X3776571Y-13548000D01*
X3795619Y-13538476D01*
X3843238Y-13538476D01*
X3862286Y-13548000D01*
X3871809Y-13557524D01*
X3881333Y-13576571D01*
X3881333Y-13595619D01*
X3871809Y-13624190D01*
X3757524Y-13738476D01*
X3881333Y-13738476D01*
X4005143Y-13538476D02*
X4024190Y-13538476D01*
X4043238Y-13548000D01*
X4052762Y-13557524D01*
X4062286Y-13576571D01*
X4071809Y-13614667D01*
X4071809Y-13662286D01*
X4062286Y-13700381D01*
X4052762Y-13719428D01*
X4043238Y-13728952D01*
X4024190Y-13738476D01*
X4005143Y-13738476D01*
X3986095Y-13728952D01*
X3976571Y-13719428D01*
X3967048Y-13700381D01*
X3957524Y-13662286D01*
X3957524Y-13614667D01*
X3967048Y-13576571D01*
X3976571Y-13557524D01*
X3986095Y-13548000D01*
X4005143Y-13538476D01*
X4195619Y-13538476D02*
X4214667Y-13538476D01*
X4233714Y-13548000D01*
X4243238Y-13557524D01*
X4252762Y-13576571D01*
X4262286Y-13614667D01*
X4262286Y-13662286D01*
X4252762Y-13700381D01*
X4243238Y-13719428D01*
X4233714Y-13728952D01*
X4214667Y-13738476D01*
X4195619Y-13738476D01*
X4176571Y-13728952D01*
X4167048Y-13719428D01*
X4157524Y-13700381D01*
X4148000Y-13662286D01*
X4148000Y-13614667D01*
X4157524Y-13576571D01*
X4167048Y-13557524D01*
X4176571Y-13548000D01*
X4195619Y-13538476D01*
X4338476Y-13538476D02*
X4338476Y-13576571D01*
X4414667Y-13538476D02*
X4414667Y-13576571D01*
X4709905Y-13814667D02*
X4700381Y-13805143D01*
X4681333Y-13776571D01*
X4671810Y-13757524D01*
X4662286Y-13728952D01*
X4652762Y-13681333D01*
X4652762Y-13643238D01*
X4662286Y-13595619D01*
X4671810Y-13567048D01*
X4681333Y-13548000D01*
X4700381Y-13519428D01*
X4709905Y-13509905D01*
X4890857Y-13738476D02*
X4776571Y-13738476D01*
X4833714Y-13738476D02*
X4833714Y-13538476D01*
X4814667Y-13567048D01*
X4795619Y-13586095D01*
X4776571Y-13595619D01*
X5014667Y-13538476D02*
X5033714Y-13538476D01*
X5052762Y-13548000D01*
X5062286Y-13557524D01*
X5071810Y-13576571D01*
X5081333Y-13614667D01*
X5081333Y-13662286D01*
X5071810Y-13700381D01*
X5062286Y-13719428D01*
X5052762Y-13728952D01*
X5033714Y-13738476D01*
X5014667Y-13738476D01*
X4995619Y-13728952D01*
X4986095Y-13719428D01*
X4976571Y-13700381D01*
X4967048Y-13662286D01*
X4967048Y-13614667D01*
X4976571Y-13576571D01*
X4986095Y-13557524D01*
X4995619Y-13548000D01*
X5014667Y-13538476D01*
X5319429Y-13738476D02*
X5319429Y-13538476D01*
X5405143Y-13738476D02*
X5405143Y-13633714D01*
X5395619Y-13614667D01*
X5376571Y-13605143D01*
X5348000Y-13605143D01*
X5328952Y-13614667D01*
X5319429Y-13624190D01*
X5528952Y-13738476D02*
X5509905Y-13728952D01*
X5500381Y-13719428D01*
X5490857Y-13700381D01*
X5490857Y-13643238D01*
X5500381Y-13624190D01*
X5509905Y-13614667D01*
X5528952Y-13605143D01*
X5557524Y-13605143D01*
X5576571Y-13614667D01*
X5586095Y-13624190D01*
X5595619Y-13643238D01*
X5595619Y-13700381D01*
X5586095Y-13719428D01*
X5576571Y-13728952D01*
X5557524Y-13738476D01*
X5528952Y-13738476D01*
X5709905Y-13738476D02*
X5690857Y-13728952D01*
X5681333Y-13709905D01*
X5681333Y-13538476D01*
X5862286Y-13728952D02*
X5843238Y-13738476D01*
X5805143Y-13738476D01*
X5786095Y-13728952D01*
X5776571Y-13709905D01*
X5776571Y-13633714D01*
X5786095Y-13614667D01*
X5805143Y-13605143D01*
X5843238Y-13605143D01*
X5862286Y-13614667D01*
X5871809Y-13633714D01*
X5871809Y-13652762D01*
X5776571Y-13671809D01*
X5948000Y-13728952D02*
X5967048Y-13738476D01*
X6005143Y-13738476D01*
X6024190Y-13728952D01*
X6033714Y-13709905D01*
X6033714Y-13700381D01*
X6024190Y-13681333D01*
X6005143Y-13671809D01*
X5976571Y-13671809D01*
X5957524Y-13662286D01*
X5948000Y-13643238D01*
X5948000Y-13633714D01*
X5957524Y-13614667D01*
X5976571Y-13605143D01*
X6005143Y-13605143D01*
X6024190Y-13614667D01*
X6100381Y-13814667D02*
X6109905Y-13805143D01*
X6128952Y-13776571D01*
X6138476Y-13757524D01*
X6148000Y-13728952D01*
X6157524Y-13681333D01*
X6157524Y-13643238D01*
X6148000Y-13595619D01*
X6138476Y-13567048D01*
X6128952Y-13548000D01*
X6109905Y-13519428D01*
X6100381Y-13509905D01*
X6462286Y-13814667D02*
X6452762Y-13805143D01*
X6433714Y-13776571D01*
X6424190Y-13757524D01*
X6414667Y-13728952D01*
X6405143Y-13681333D01*
X6405143Y-13643238D01*
X6414667Y-13595619D01*
X6424190Y-13567048D01*
X6433714Y-13548000D01*
X6452762Y-13519428D01*
X6462286Y-13509905D01*
X6538476Y-13605143D02*
X6538476Y-13738476D01*
X6538476Y-13624190D02*
X6548000Y-13614667D01*
X6567048Y-13605143D01*
X6595619Y-13605143D01*
X6614667Y-13614667D01*
X6624190Y-13633714D01*
X6624190Y-13738476D01*
X6748000Y-13738476D02*
X6728952Y-13728952D01*
X6719428Y-13719428D01*
X6709905Y-13700381D01*
X6709905Y-13643238D01*
X6719428Y-13624190D01*
X6728952Y-13614667D01*
X6748000Y-13605143D01*
X6776571Y-13605143D01*
X6795619Y-13614667D01*
X6805143Y-13624190D01*
X6814667Y-13643238D01*
X6814667Y-13700381D01*
X6805143Y-13719428D01*
X6795619Y-13728952D01*
X6776571Y-13738476D01*
X6748000Y-13738476D01*
X6871809Y-13605143D02*
X6948000Y-13605143D01*
X6900381Y-13538476D02*
X6900381Y-13709905D01*
X6909905Y-13728952D01*
X6928952Y-13738476D01*
X6948000Y-13738476D01*
X7167048Y-13605143D02*
X7167048Y-13805143D01*
X7167048Y-13614667D02*
X7186095Y-13605143D01*
X7224190Y-13605143D01*
X7243238Y-13614667D01*
X7252762Y-13624190D01*
X7262286Y-13643238D01*
X7262286Y-13700381D01*
X7252762Y-13719428D01*
X7243238Y-13728952D01*
X7224190Y-13738476D01*
X7186095Y-13738476D01*
X7167048Y-13728952D01*
X7376571Y-13738476D02*
X7357524Y-13728952D01*
X7348000Y-13709905D01*
X7348000Y-13538476D01*
X7538476Y-13738476D02*
X7538476Y-13633714D01*
X7528952Y-13614667D01*
X7509905Y-13605143D01*
X7471809Y-13605143D01*
X7452762Y-13614667D01*
X7538476Y-13728952D02*
X7519428Y-13738476D01*
X7471809Y-13738476D01*
X7452762Y-13728952D01*
X7443238Y-13709905D01*
X7443238Y-13690857D01*
X7452762Y-13671809D01*
X7471809Y-13662286D01*
X7519428Y-13662286D01*
X7538476Y-13652762D01*
X7605143Y-13605143D02*
X7681333Y-13605143D01*
X7633714Y-13538476D02*
X7633714Y-13709905D01*
X7643238Y-13728952D01*
X7662286Y-13738476D01*
X7681333Y-13738476D01*
X7824190Y-13728952D02*
X7805143Y-13738476D01*
X7767048Y-13738476D01*
X7748000Y-13728952D01*
X7738476Y-13709905D01*
X7738476Y-13633714D01*
X7748000Y-13614667D01*
X7767048Y-13605143D01*
X7805143Y-13605143D01*
X7824190Y-13614667D01*
X7833714Y-13633714D01*
X7833714Y-13652762D01*
X7738476Y-13671809D01*
X8005143Y-13738476D02*
X8005143Y-13538476D01*
X8005143Y-13728952D02*
X7986095Y-13738476D01*
X7948000Y-13738476D01*
X7928952Y-13728952D01*
X7919428Y-13719428D01*
X7909905Y-13700381D01*
X7909905Y-13643238D01*
X7919428Y-13624190D01*
X7928952Y-13614667D01*
X7948000Y-13605143D01*
X7986095Y-13605143D01*
X8005143Y-13614667D01*
X8081333Y-13814667D02*
X8090857Y-13805143D01*
X8109905Y-13776571D01*
X8119428Y-13757524D01*
X8128952Y-13728952D01*
X8138476Y-13681333D01*
X8138476Y-13643238D01*
X8128952Y-13595619D01*
X8119428Y-13567048D01*
X8109905Y-13548000D01*
X8090857Y-13519428D01*
X8081333Y-13509905D01*
X1038000Y-14068000D02*
X1138000Y-13968000D01*
X1038000Y-13868000D01*
X938000Y-13968000D01*
X1038000Y-14068000D01*
X1376571Y-13858476D02*
X1500381Y-13858476D01*
X1433714Y-13934667D01*
X1462286Y-13934667D01*
X1481333Y-13944190D01*
X1490857Y-13953714D01*
X1500381Y-13972762D01*
X1500381Y-14020381D01*
X1490857Y-14039428D01*
X1481333Y-14048952D01*
X1462286Y-14058476D01*
X1405143Y-14058476D01*
X1386095Y-14048952D01*
X1376571Y-14039428D01*
X1586095Y-14039428D02*
X1595619Y-14048952D01*
X1586095Y-14058476D01*
X1576571Y-14048952D01*
X1586095Y-14039428D01*
X1586095Y-14058476D01*
X1690857Y-14058476D02*
X1728952Y-14058476D01*
X1748000Y-14048952D01*
X1757524Y-14039428D01*
X1776571Y-14010857D01*
X1786095Y-13972762D01*
X1786095Y-13896571D01*
X1776571Y-13877524D01*
X1767048Y-13868000D01*
X1748000Y-13858476D01*
X1709905Y-13858476D01*
X1690857Y-13868000D01*
X1681333Y-13877524D01*
X1671809Y-13896571D01*
X1671809Y-13944190D01*
X1681333Y-13963238D01*
X1690857Y-13972762D01*
X1709905Y-13982286D01*
X1748000Y-13982286D01*
X1767048Y-13972762D01*
X1776571Y-13963238D01*
X1786095Y-13944190D01*
X1900381Y-13944190D02*
X1881333Y-13934667D01*
X1871809Y-13925143D01*
X1862286Y-13906095D01*
X1862286Y-13896571D01*
X1871809Y-13877524D01*
X1881333Y-13868000D01*
X1900381Y-13858476D01*
X1938476Y-13858476D01*
X1957524Y-13868000D01*
X1967048Y-13877524D01*
X1976571Y-13896571D01*
X1976571Y-13906095D01*
X1967048Y-13925143D01*
X1957524Y-13934667D01*
X1938476Y-13944190D01*
X1900381Y-13944190D01*
X1881333Y-13953714D01*
X1871809Y-13963238D01*
X1862286Y-13982286D01*
X1862286Y-14020381D01*
X1871809Y-14039428D01*
X1881333Y-14048952D01*
X1900381Y-14058476D01*
X1938476Y-14058476D01*
X1957524Y-14048952D01*
X1967048Y-14039428D01*
X1976571Y-14020381D01*
X1976571Y-13982286D01*
X1967048Y-13963238D01*
X1957524Y-13953714D01*
X1938476Y-13944190D01*
X2090857Y-13944190D02*
X2071809Y-13934667D01*
X2062286Y-13925143D01*
X2052762Y-13906095D01*
X2052762Y-13896571D01*
X2062286Y-13877524D01*
X2071809Y-13868000D01*
X2090857Y-13858476D01*
X2128952Y-13858476D01*
X2148000Y-13868000D01*
X2157524Y-13877524D01*
X2167048Y-13896571D01*
X2167048Y-13906095D01*
X2157524Y-13925143D01*
X2148000Y-13934667D01*
X2128952Y-13944190D01*
X2090857Y-13944190D01*
X2071809Y-13953714D01*
X2062286Y-13963238D01*
X2052762Y-13982286D01*
X2052762Y-14020381D01*
X2062286Y-14039428D01*
X2071809Y-14048952D01*
X2090857Y-14058476D01*
X2128952Y-14058476D01*
X2148000Y-14048952D01*
X2157524Y-14039428D01*
X2167048Y-14020381D01*
X2167048Y-13982286D01*
X2157524Y-13963238D01*
X2148000Y-13953714D01*
X2128952Y-13944190D01*
X2252762Y-14058476D02*
X2252762Y-13925143D01*
X2252762Y-13944190D02*
X2262286Y-13934667D01*
X2281333Y-13925143D01*
X2309905Y-13925143D01*
X2328952Y-13934667D01*
X2338476Y-13953714D01*
X2338476Y-14058476D01*
X2338476Y-13953714D02*
X2348000Y-13934667D01*
X2367048Y-13925143D01*
X2395619Y-13925143D01*
X2414667Y-13934667D01*
X2424190Y-13953714D01*
X2424190Y-14058476D01*
X2519429Y-14058476D02*
X2519429Y-13925143D01*
X2519429Y-13944190D02*
X2528952Y-13934667D01*
X2548000Y-13925143D01*
X2576571Y-13925143D01*
X2595619Y-13934667D01*
X2605143Y-13953714D01*
X2605143Y-14058476D01*
X2605143Y-13953714D02*
X2614667Y-13934667D01*
X2633714Y-13925143D01*
X2662286Y-13925143D01*
X2681333Y-13934667D01*
X2690857Y-13953714D01*
X2690857Y-14058476D01*
X3081333Y-13848952D02*
X2909905Y-14106095D01*
X3338476Y-13858476D02*
X3357524Y-13858476D01*
X3376571Y-13868000D01*
X3386095Y-13877524D01*
X3395619Y-13896571D01*
X3405143Y-13934667D01*
X3405143Y-13982286D01*
X3395619Y-14020381D01*
X3386095Y-14039428D01*
X3376571Y-14048952D01*
X3357524Y-14058476D01*
X3338476Y-14058476D01*
X3319428Y-14048952D01*
X3309905Y-14039428D01*
X3300381Y-14020381D01*
X3290857Y-13982286D01*
X3290857Y-13934667D01*
X3300381Y-13896571D01*
X3309905Y-13877524D01*
X3319428Y-13868000D01*
X3338476Y-13858476D01*
X3490857Y-14039428D02*
X3500381Y-14048952D01*
X3490857Y-14058476D01*
X3481333Y-14048952D01*
X3490857Y-14039428D01*
X3490857Y-14058476D01*
X3690857Y-14058476D02*
X3576571Y-14058476D01*
X3633714Y-14058476D02*
X3633714Y-13858476D01*
X3614667Y-13887048D01*
X3595619Y-13906095D01*
X3576571Y-13915619D01*
X3871809Y-13858476D02*
X3776571Y-13858476D01*
X3767048Y-13953714D01*
X3776571Y-13944190D01*
X3795619Y-13934667D01*
X3843238Y-13934667D01*
X3862286Y-13944190D01*
X3871809Y-13953714D01*
X3881333Y-13972762D01*
X3881333Y-14020381D01*
X3871809Y-14039428D01*
X3862286Y-14048952D01*
X3843238Y-14058476D01*
X3795619Y-14058476D01*
X3776571Y-14048952D01*
X3767048Y-14039428D01*
X3948000Y-13858476D02*
X4081333Y-13858476D01*
X3995619Y-14058476D01*
X4195619Y-13858476D02*
X4214667Y-13858476D01*
X4233714Y-13868000D01*
X4243238Y-13877524D01*
X4252762Y-13896571D01*
X4262286Y-13934667D01*
X4262286Y-13982286D01*
X4252762Y-14020381D01*
X4243238Y-14039428D01*
X4233714Y-14048952D01*
X4214667Y-14058476D01*
X4195619Y-14058476D01*
X4176571Y-14048952D01*
X4167048Y-14039428D01*
X4157524Y-14020381D01*
X4148000Y-13982286D01*
X4148000Y-13934667D01*
X4157524Y-13896571D01*
X4167048Y-13877524D01*
X4176571Y-13868000D01*
X4195619Y-13858476D01*
X4338476Y-13858476D02*
X4338476Y-13896571D01*
X4414667Y-13858476D02*
X4414667Y-13896571D01*
X4709905Y-14134667D02*
X4700381Y-14125143D01*
X4681333Y-14096571D01*
X4671810Y-14077524D01*
X4662286Y-14048952D01*
X4652762Y-14001333D01*
X4652762Y-13963238D01*
X4662286Y-13915619D01*
X4671810Y-13887048D01*
X4681333Y-13868000D01*
X4700381Y-13839428D01*
X4709905Y-13829905D01*
X4767048Y-13858476D02*
X4900381Y-13858476D01*
X4814667Y-14058476D01*
X5005143Y-13944190D02*
X4986095Y-13934667D01*
X4976571Y-13925143D01*
X4967048Y-13906095D01*
X4967048Y-13896571D01*
X4976571Y-13877524D01*
X4986095Y-13868000D01*
X5005143Y-13858476D01*
X5043238Y-13858476D01*
X5062286Y-13868000D01*
X5071810Y-13877524D01*
X5081333Y-13896571D01*
X5081333Y-13906095D01*
X5071810Y-13925143D01*
X5062286Y-13934667D01*
X5043238Y-13944190D01*
X5005143Y-13944190D01*
X4986095Y-13953714D01*
X4976571Y-13963238D01*
X4967048Y-13982286D01*
X4967048Y-14020381D01*
X4976571Y-14039428D01*
X4986095Y-14048952D01*
X5005143Y-14058476D01*
X5043238Y-14058476D01*
X5062286Y-14048952D01*
X5071810Y-14039428D01*
X5081333Y-14020381D01*
X5081333Y-13982286D01*
X5071810Y-13963238D01*
X5062286Y-13953714D01*
X5043238Y-13944190D01*
X5319429Y-14058476D02*
X5319429Y-13858476D01*
X5405143Y-14058476D02*
X5405143Y-13953714D01*
X5395619Y-13934667D01*
X5376571Y-13925143D01*
X5348000Y-13925143D01*
X5328952Y-13934667D01*
X5319429Y-13944190D01*
X5528952Y-14058476D02*
X5509905Y-14048952D01*
X5500381Y-14039428D01*
X5490857Y-14020381D01*
X5490857Y-13963238D01*
X5500381Y-13944190D01*
X5509905Y-13934667D01*
X5528952Y-13925143D01*
X5557524Y-13925143D01*
X5576571Y-13934667D01*
X5586095Y-13944190D01*
X5595619Y-13963238D01*
X5595619Y-14020381D01*
X5586095Y-14039428D01*
X5576571Y-14048952D01*
X5557524Y-14058476D01*
X5528952Y-14058476D01*
X5709905Y-14058476D02*
X5690857Y-14048952D01*
X5681333Y-14029905D01*
X5681333Y-13858476D01*
X5862286Y-14048952D02*
X5843238Y-14058476D01*
X5805143Y-14058476D01*
X5786095Y-14048952D01*
X5776571Y-14029905D01*
X5776571Y-13953714D01*
X5786095Y-13934667D01*
X5805143Y-13925143D01*
X5843238Y-13925143D01*
X5862286Y-13934667D01*
X5871809Y-13953714D01*
X5871809Y-13972762D01*
X5776571Y-13991809D01*
X5948000Y-14048952D02*
X5967048Y-14058476D01*
X6005143Y-14058476D01*
X6024190Y-14048952D01*
X6033714Y-14029905D01*
X6033714Y-14020381D01*
X6024190Y-14001333D01*
X6005143Y-13991809D01*
X5976571Y-13991809D01*
X5957524Y-13982286D01*
X5948000Y-13963238D01*
X5948000Y-13953714D01*
X5957524Y-13934667D01*
X5976571Y-13925143D01*
X6005143Y-13925143D01*
X6024190Y-13934667D01*
X6100381Y-14134667D02*
X6109905Y-14125143D01*
X6128952Y-14096571D01*
X6138476Y-14077524D01*
X6148000Y-14048952D01*
X6157524Y-14001333D01*
X6157524Y-13963238D01*
X6148000Y-13915619D01*
X6138476Y-13887048D01*
X6128952Y-13868000D01*
X6109905Y-13839428D01*
X6100381Y-13829905D01*
X6462286Y-14134667D02*
X6452762Y-14125143D01*
X6433714Y-14096571D01*
X6424190Y-14077524D01*
X6414667Y-14048952D01*
X6405143Y-14001333D01*
X6405143Y-13963238D01*
X6414667Y-13915619D01*
X6424190Y-13887048D01*
X6433714Y-13868000D01*
X6452762Y-13839428D01*
X6462286Y-13829905D01*
X6538476Y-13925143D02*
X6538476Y-14058476D01*
X6538476Y-13944190D02*
X6548000Y-13934667D01*
X6567048Y-13925143D01*
X6595619Y-13925143D01*
X6614667Y-13934667D01*
X6624190Y-13953714D01*
X6624190Y-14058476D01*
X6748000Y-14058476D02*
X6728952Y-14048952D01*
X6719428Y-14039428D01*
X6709905Y-14020381D01*
X6709905Y-13963238D01*
X6719428Y-13944190D01*
X6728952Y-13934667D01*
X6748000Y-13925143D01*
X6776571Y-13925143D01*
X6795619Y-13934667D01*
X6805143Y-13944190D01*
X6814667Y-13963238D01*
X6814667Y-14020381D01*
X6805143Y-14039428D01*
X6795619Y-14048952D01*
X6776571Y-14058476D01*
X6748000Y-14058476D01*
X6871809Y-13925143D02*
X6948000Y-13925143D01*
X6900381Y-13858476D02*
X6900381Y-14029905D01*
X6909905Y-14048952D01*
X6928952Y-14058476D01*
X6948000Y-14058476D01*
X7167048Y-13925143D02*
X7167048Y-14125143D01*
X7167048Y-13934667D02*
X7186095Y-13925143D01*
X7224190Y-13925143D01*
X7243238Y-13934667D01*
X7252762Y-13944190D01*
X7262286Y-13963238D01*
X7262286Y-14020381D01*
X7252762Y-14039428D01*
X7243238Y-14048952D01*
X7224190Y-14058476D01*
X7186095Y-14058476D01*
X7167048Y-14048952D01*
X7376571Y-14058476D02*
X7357524Y-14048952D01*
X7348000Y-14029905D01*
X7348000Y-13858476D01*
X7538476Y-14058476D02*
X7538476Y-13953714D01*
X7528952Y-13934667D01*
X7509905Y-13925143D01*
X7471809Y-13925143D01*
X7452762Y-13934667D01*
X7538476Y-14048952D02*
X7519428Y-14058476D01*
X7471809Y-14058476D01*
X7452762Y-14048952D01*
X7443238Y-14029905D01*
X7443238Y-14010857D01*
X7452762Y-13991809D01*
X7471809Y-13982286D01*
X7519428Y-13982286D01*
X7538476Y-13972762D01*
X7605143Y-13925143D02*
X7681333Y-13925143D01*
X7633714Y-13858476D02*
X7633714Y-14029905D01*
X7643238Y-14048952D01*
X7662286Y-14058476D01*
X7681333Y-14058476D01*
X7824190Y-14048952D02*
X7805143Y-14058476D01*
X7767048Y-14058476D01*
X7748000Y-14048952D01*
X7738476Y-14029905D01*
X7738476Y-13953714D01*
X7748000Y-13934667D01*
X7767048Y-13925143D01*
X7805143Y-13925143D01*
X7824190Y-13934667D01*
X7833714Y-13953714D01*
X7833714Y-13972762D01*
X7738476Y-13991809D01*
X8005143Y-14058476D02*
X8005143Y-13858476D01*
X8005143Y-14048952D02*
X7986095Y-14058476D01*
X7948000Y-14058476D01*
X7928952Y-14048952D01*
X7919428Y-14039428D01*
X7909905Y-14020381D01*
X7909905Y-13963238D01*
X7919428Y-13944190D01*
X7928952Y-13934667D01*
X7948000Y-13925143D01*
X7986095Y-13925143D01*
X8005143Y-13934667D01*
X8081333Y-14134667D02*
X8090857Y-14125143D01*
X8109905Y-14096571D01*
X8119428Y-14077524D01*
X8128952Y-14048952D01*
X8138476Y-14001333D01*
X8138476Y-13963238D01*
X8128952Y-13915619D01*
X8119428Y-13887048D01*
X8109905Y-13868000D01*
X8090857Y-13839428D01*
X8081333Y-13829905D01*
M02*
