M48
; DRILL file {KiCad (6.0.1)} date Mon May  9 18:45:45 2022
; FORMAT={-:-/ absolute / metric / decimal}
; #@! TF.CreationDate,2022-05-09T18:45:45+09:00
; #@! TF.GenerationSoftware,Kicad,Pcbnew,(6.0.1)
; #@! TF.FileFunction,Plated,1,2,PTH
FMAT,2
METRIC
; #@! TA.AperFunction,Plated,PTH,ViaDrill
T1C0.400
; #@! TA.AperFunction,Plated,PTH,ComponentDrill
T2C0.600
%
G90
G05
T1
X21.0Y-78.0
X27.0Y-79.5
X29.519Y-67.34
X32.35Y-26.15
X36.0Y-96.5
X39.705Y-21.705
X40.25Y-26.4
X46.041Y-20.702
X50.485Y-38.218
X52.083Y-52.52
X59.292Y-65.201
X65.863Y-19.141
X69.299Y-60.938
X70.956Y-37.814
X73.638Y-91.896
X74.0Y-75.0
X75.0Y-80.5
X75.432Y-52.463
X81.048Y-65.652
X85.08Y-44.91
X87.067Y-22.36
X88.034Y-65.809
X90.589Y-102.113
X92.0Y-81.5
X93.098Y-54.722
X102.835Y-26.018
X104.507Y-69.096
X106.261Y-44.152
X106.917Y-66.959
X107.54Y-46.432
X109.0Y-28.0
X110.272Y-93.662
X110.941Y-69.096
X112.013Y-58.664
X112.167Y-87.832
X114.0Y-79.0
X117.871Y-31.012
X120.194Y-29.887
X120.743Y-105.844
X122.96Y-30.855
X123.511Y-33.046
X124.115Y-51.005
X124.264Y-67.236
X130.551Y-41.217
X135.81Y-53.04
X137.814Y-80.835
X137.817Y-53.05
X140.992Y-99.492
X145.199Y-107.699
X147.63Y-69.778
X147.674Y-71.828
X149.0Y-103.0
X149.393Y-67.655
X151.274Y-72.47
X151.339Y-38.196
X151.362Y-81.644
X151.725Y-96.33
X151.93Y-67.267
X152.001Y-71.741
X152.118Y-66.261
X152.889Y-41.217
X153.15Y-58.07
X154.121Y-66.51
X154.15Y-99.0
X154.721Y-65.688
X155.727Y-75.778
X156.01Y-60.177
X156.171Y-27.331
X156.458Y-51.999
X156.682Y-77.515
X158.132Y-76.791
X158.45Y-9.2
X158.663Y-61.71
X159.016Y-81.644
X159.249Y-62.741
X159.309Y-64.498
X159.772Y-74.242
X161.174Y-68.272
X162.77Y-65.75
X163.42Y-12.684
X165.848Y-79.414
X166.0Y-72.5
X166.852Y-78.673
X167.0Y-73.5
X167.823Y-76.14
X167.89Y-78.213
X167.9Y-99.0
X167.913Y-77.173
X167.927Y-74.798
X168.94Y-91.792
X169.301Y-58.736
X170.02Y-38.196
X173.815Y-88.099
X178.55Y-52.793
X178.72Y-15.181
X179.335Y-38.234
X181.059Y-72.941
X181.75Y-25.4
X182.331Y-77.831
X182.731Y-70.794
X183.059Y-74.941
X184.075Y-67.842
X185.089Y-28.8
X187.4Y-72.295
X187.879Y-35.0
X189.145Y-80.477
X191.534Y-49.923
X194.537Y-73.566
X195.5Y-24.0
X196.085Y-46.547
X198.698Y-106.568
X198.852Y-45.749
X201.702Y-66.196
X203.093Y-49.923
X203.324Y-27.703
X204.594Y-87.306
X206.155Y-57.523
X211.415Y-89.757
X217.006Y-80.785
X217.616Y-41.23
X217.963Y-68.08
X220.856Y-21.5
X223.205Y-59.252
X228.712Y-53.605
X235.688Y-77.256
X239.377Y-36.654
X239.382Y-56.682
X241.583Y-97.895
X242.173Y-64.272
X242.55Y-19.085
X243.573Y-54.266
X259.2Y-66.3
X259.321Y-33.484
X262.845Y-22.045
X264.438Y-57.267
X274.608Y-38.691
X278.4Y-69.8
X278.545Y-41.159
X280.249Y-65.975
X282.137Y-57.308
X284.697Y-97.972
X290.849Y-20.698
X292.564Y-39.647
X299.631Y-82.562
X300.982Y-51.858
X302.048Y-33.681
X306.441Y-67.717
X309.589Y-59.469
X315.363Y-82.562
X322.526Y-74.577
X325.007Y-80.14
X325.286Y-42.677
X326.687Y-20.941
X326.726Y-97.465
X326.919Y-38.908
X327.596Y-51.719
X343.51Y-98.07
T2
X153.64Y-1.235G85X153.64Y-2.035
G05
X153.64Y-5.255G85X153.64Y-6.355
G05
X162.28Y-1.235G85X162.28Y-2.035
G05
X162.28Y-5.255G85X162.28Y-6.355
G05
T0
M30
