  0
SECTION
  2
HEADER
  9
$ACADVER
  1
AC1027
  9
$ACADMAINTVER
 70
   125
  9
$DWGCODEPAGE
  3
ANSI_932
  9
$REQUIREDVERSIONS
160
                 0
  9
$INSBASE
 10
0.0
 20
0.0
 30
0.0
  9
$EXTMIN
 10
1.000000000000000E+20
 20
1.000000000000000E+20
 30
1.000000000000000E+20
  9
$EXTMAX
 10
-1.000000000000000E+20
 20
-1.000000000000000E+20
 30
-1.000000000000000E+20
  9
$LIMMIN
 10
0.0
 20
0.0
  9
$LIMMAX
 10
12.0
 20
9.0
  9
$ORTHOMODE
 70
     0
  9
$REGENMODE
 70
     1
  9
$FILLMODE
 70
     1
  9
$QTEXTMODE
 70
     0
  9
$MIRRTEXT
 70
     0
  9
$LTSCALE
 40
1.0
  9
$ATTMODE
 70
     1
  9
$TEXTSIZE
 40
0.2
  9
$TRACEWID
 40
0.05
  9
$TEXTSTYLE
  7
Standard
  9
$CLAYER
  8
0
  9
$CELTYPE
  6
ByLayer
  9
$CECOLOR
 62
   256
  9
$CELTSCALE
 40
1.0
  9
$DISPSILH
 70
     0
  9
$DIMSCALE
 40
1.0
  9
$DIMASZ
 40
0.18
  9
$DIMEXO
 40
0.0625
  9
$DIMDLI
 40
0.38
  9
$DIMRND
 40
0.0
  9
$DIMDLE
 40
0.0
  9
$DIMEXE
 40
0.18
  9
$DIMTP
 40
0.0
  9
$DIMTM
 40
0.0
  9
$DIMTXT
 40
0.18
  9
$DIMCEN
 40
0.09
  9
$DIMTSZ
 40
0.0
  9
$DIMTOL
 70
     0
  9
$DIMLIM
 70
     0
  9
$DIMTIH
 70
     1
  9
$DIMTOH
 70
     1
  9
$DIMSE1
 70
     0
  9
$DIMSE2
 70
     0
  9
$DIMTAD
 70
     0
  9
$DIMZIN
 70
     0
  9
$DIMBLK
  1

  9
$DIMASO
 70
     1
  9
$DIMSHO
 70
     1
  9
$DIMPOST
  1

  9
$DIMAPOST
  1

  9
$DIMALT
 70
     0
  9
$DIMALTD
 70
     2
  9
$DIMALTF
 40
25.4
  9
$DIMLFAC
 40
1.0
  9
$DIMTOFL
 70
     0
  9
$DIMTVP
 40
0.0
  9
$DIMTIX
 70
     0
  9
$DIMSOXD
 70
     0
  9
$DIMSAH
 70
     0
  9
$DIMBLK1
  1

  9
$DIMBLK2
  1

  9
$DIMSTYLE
  2
Standard
  9
$DIMCLRD
 70
     0
  9
$DIMCLRE
 70
     0
  9
$DIMCLRT
 70
     0
  9
$DIMTFAC
 40
1.0
  9
$DIMGAP
 40
0.09
  9
$DIMJUST
 70
     0
  9
$DIMSD1
 70
     0
  9
$DIMSD2
 70
     0
  9
$DIMTOLJ
 70
     1
  9
$DIMTZIN
 70
     0
  9
$DIMALTZ
 70
     0
  9
$DIMALTTZ
 70
     0
  9
$DIMUPT
 70
     0
  9
$DIMDEC
 70
     4
  9
$DIMTDEC
 70
     4
  9
$DIMALTU
 70
     2
  9
$DIMALTTD
 70
     2
  9
$DIMTXSTY
  7
Standard
  9
$DIMAUNIT
 70
     0
  9
$DIMADEC
 70
     0
  9
$DIMALTRND
 40
0.0
  9
$DIMAZIN
 70
     0
  9
$DIMDSEP
 70
    46
  9
$DIMATFIT
 70
     3
  9
$DIMFRAC
 70
     0
  9
$DIMLDRBLK
  1

  9
$DIMLUNIT
 70
     2
  9
$DIMLWD
 70
    -2
  9
$DIMLWE
 70
    -2
  9
$DIMTMOVE
 70
     0
  9
$DIMFXL
 40
1.0
  9
$DIMFXLON
 70
     0
  9
$DIMJOGANG
 40
0.7853981633974483
  9
$DIMTFILL
 70
     0
  9
$DIMTFILLCLR
 70
     0
  9
$DIMARCSYM
 70
     0
  9
$DIMLTYPE
  6

  9
$DIMLTEX1
  6

  9
$DIMLTEX2
  6

  9
$DIMTXTDIRECTION
 70
     0
  9
$LUNITS
 70
     2
  9
$LUPREC
 70
     4
  9
$SKETCHINC
 40
0.1
  9
$FILLETRAD
 40
0.0
  9
$AUNITS
 70
     0
  9
$AUPREC
 70
     0
  9
$MENU
  1
.
  9
$ELEVATION
 40
0.0
  9
$PELEVATION
 40
0.0
  9
$THICKNESS
 40
0.0
  9
$LIMCHECK
 70
     0
  9
$CHAMFERA
 40
0.0
  9
$CHAMFERB
 40
0.0
  9
$CHAMFERC
 40
0.0
  9
$CHAMFERD
 40
0.0
  9
$SKPOLY
 70
     0
  9
$TDCREATE
 40
2459766.926145833
  9
$TDUCREATE
 40
2459766.551145833
  9
$TDUPDATE
 40
2459766.926145833
  9
$TDUUPDATE
 40
2459766.551145833
  9
$TDINDWG
 40
0.0000000000
  9
$TDUSRTIMER
 40
0.0000000000
  9
$USRTIMER
 70
     1
  9
$ANGBASE
 50
0.0
  9
$ANGDIR
 70
     0
  9
$PDMODE
 70
     0
  9
$PDSIZE
 40
0.0
  9
$PLINEWID
 40
0.0
  9
$SPLFRAME
 70
     0
  9
$SPLINETYPE
 70
     6
  9
$SPLINESEGS
 70
     8
  9
$HANDSEED
  5
1A8
  9
$SURFTAB1
 70
     6
  9
$SURFTAB2
 70
     6
  9
$SURFTYPE
 70
     6
  9
$SURFU
 70
     6
  9
$SURFV
 70
     6
  9
$UCSBASE
  2

  9
$UCSNAME
  2

  9
$UCSORG
 10
0.0
 20
0.0
 30
0.0
  9
$UCSXDIR
 10
1.0
 20
0.0
 30
0.0
  9
$UCSYDIR
 10
0.0
 20
1.0
 30
0.0
  9
$UCSORTHOREF
  2

  9
$UCSORTHOVIEW
 70
     0
  9
$UCSORGTOP
 10
0.0
 20
0.0
 30
0.0
  9
$UCSORGBOTTOM
 10
0.0
 20
0.0
 30
0.0
  9
$UCSORGLEFT
 10
0.0
 20
0.0
 30
0.0
  9
$UCSORGRIGHT
 10
0.0
 20
0.0
 30
0.0
  9
$UCSORGFRONT
 10
0.0
 20
0.0
 30
0.0
  9
$UCSORGBACK
 10
0.0
 20
0.0
 30
0.0
  9
$PUCSBASE
  2

  9
$PUCSNAME
  2

  9
$PUCSORG
 10
0.0
 20
0.0
 30
0.0
  9
$PUCSXDIR
 10
1.0
 20
0.0
 30
0.0
  9
$PUCSYDIR
 10
0.0
 20
1.0
 30
0.0
  9
$PUCSORTHOREF
  2

  9
$PUCSORTHOVIEW
 70
     0
  9
$PUCSORGTOP
 10
0.0
 20
0.0
 30
0.0
  9
$PUCSORGBOTTOM
 10
0.0
 20
0.0
 30
0.0
  9
$PUCSORGLEFT
 10
0.0
 20
0.0
 30
0.0
  9
$PUCSORGRIGHT
 10
0.0
 20
0.0
 30
0.0
  9
$PUCSORGFRONT
 10
0.0
 20
0.0
 30
0.0
  9
$PUCSORGBACK
 10
0.0
 20
0.0
 30
0.0
  9
$USERI1
 70
     0
  9
$USERI2
 70
     0
  9
$USERI3
 70
     0
  9
$USERI4
 70
     0
  9
$USERI5
 70
     0
  9
$USERR1
 40
0.0
  9
$USERR2
 40
0.0
  9
$USERR3
 40
0.0
  9
$USERR4
 40
0.0
  9
$USERR5
 40
0.0
  9
$WORLDVIEW
 70
     1
  9
$SHADEDGE
 70
     3
  9
$SHADEDIF
 70
    70
  9
$TILEMODE
 70
     1
  9
$MAXACTVP
 70
    64
  9
$PINSBASE
 10
0.0
 20
0.0
 30
0.0
  9
$PLIMCHECK
 70
     0
  9
$PEXTMIN
 10
1.000000000000000E+20
 20
1.000000000000000E+20
 30
1.000000000000000E+20
  9
$PEXTMAX
 10
-1.000000000000000E+20
 20
-1.000000000000000E+20
 30
-1.000000000000000E+20
  9
$PLIMMIN
 10
0.0
 20
0.0
  9
$PLIMMAX
 10
12.0
 20
9.0
  9
$UNITMODE
 70
     0
  9
$VISRETAIN
 70
     1
  9
$PLINEGEN
 70
     0
  9
$PSLTSCALE
 70
     1
  9
$TREEDEPTH
 70
  3020
  9
$CMLSTYLE
  2
Standard
  9
$CMLJUST
 70
     0
  9
$CMLSCALE
 40
1.0
  9
$PROXYGRAPHICS
 70
     1
  9
$MEASUREMENT
 70
     0
  9
$CELWEIGHT
370
    -1
  9
$ENDCAPS
280
     0
  9
$JOINSTYLE
280
     0
  9
$LWDISPLAY
290
     1
  9
$INSUNITS
 70
     4
  9
$HYPERLINKBASE
  1

  9
$STYLESHEET
  1

  9
$XEDIT
290
     1
  9
$CEPSNTYPE
380
     0
  9
$PSTYLEMODE
290
     1
  9
$FINGERPRINTGUID
  2
{3693B47F-BC05-E94E-BC8B-A1DD463B98DB}
  9
$VERSIONGUID
  2
{2698485F-4E2F-B544-AEB6-4D140C935F16}
  9
$EXTNAMES
290
     1
  9
$PSVPSCALE
 40
0.0
  9
$OLESTARTUP
290
     0
  9
$SORTENTS
280
   127
  9
$INDEXCTL
280
     0
  9
$HIDETEXT
280
     1
  9
$XCLIPFRAME
280
     2
  9
$HALOGAP
280
     0
  9
$OBSCOLOR
 70
   257
  9
$OBSLTYPE
280
     0
  9
$INTERSECTIONDISPLAY
280
     0
  9
$INTERSECTIONCOLOR
 70
   257
  9
$DIMASSOC
280
     2
  9
$PROJECTNAME
  1

  9
$CAMERADISPLAY
290
     0
  9
$LENSLENGTH
 40
50.0
  9
$CAMERAHEIGHT
 40
0.0
  9
$STEPSPERSEC
 40
2.0
  9
$STEPSIZE
 40
6.0
  9
$3DDWFPREC
 40
2.0
  9
$PSOLWIDTH
 40
0.25
  9
$PSOLHEIGHT
 40
4.0
  9
$LOFTANG1
 40
1.570796326794896
  9
$LOFTANG2
 40
1.570796326794896
  9
$LOFTMAG1
 40
0.0
  9
$LOFTMAG2
 40
0.0
  9
$LOFTPARAM
 70
     7
  9
$LOFTNORMALS
280
     1
  9
$LATITUDE
 40
37.795
  9
$LONGITUDE
 40
-122.394
  9
$NORTHDIRECTION
 40
0.0
  9
$TIMEZONE
 70
 -8000
  9
$LIGHTGLYPHDISPLAY
280
     1
  9
$TILEMODELIGHTSYNCH
280
     1
  9
$CMATERIAL
347
11
  9
$SOLIDHIST
280
     0
  9
$SHOWHIST
280
     1
  9
$DWFFRAME
280
     2
  9
$DGNFRAME
280
     0
  9
$REALWORLDSCALE
290
     1
  9
$INTERFERECOLOR
 62
     1
  9
$INTERFEREOBJVS
345
33
  9
$INTERFEREVPVS
346
30
  9
$CSHADOW
280
     0
  9
$SHADOWPLANELOCATION
 40
0.0
  0
ENDSEC
  0
SECTION
  2
CLASSES
  0
CLASS
  1
ACDBDICTIONARYWDFLT
  2
AcDbDictionaryWithDefault
  3
ObjectDBX Classes
 90
        0
 91
        1
280
     0
281
     0
  0
CLASS
  1
MATERIAL
  2
AcDbMaterial
  3
ObjectDBX Classes
 90
     1153
 91
        3
280
     0
281
     0
  0
CLASS
  1
VISUALSTYLE
  2
AcDbVisualStyle
  3
ObjectDBX Classes
 90
     4095
 91
       24
280
     0
281
     0
  0
CLASS
  1
SCALE
  2
AcDbScale
  3
ObjectDBX Classes
 90
     1153
 91
       17
280
     0
281
     0
  0
CLASS
  1
TABLESTYLE
  2
AcDbTableStyle
  3
ObjectDBX Classes
 90
     4095
 91
        1
280
     0
281
     0
  0
CLASS
  1
MLEADERSTYLE
  2
AcDbMLeaderStyle
  3
ACDB_MLEADERSTYLE_CLASS
 90
     4095
 91
        1
280
     0
281
     0
  0
CLASS
  1
ACDBSECTIONVIEWSTYLE
  2
AcDbSectionViewStyle
  3
ObjectDBX Classes
 90
     1025
 91
        1
280
     0
281
     0
  0
CLASS
  1
ACDBDETAILVIEWSTYLE
  2
AcDbDetailViewStyle
  3
ObjectDBX Classes
 90
     1025
 91
        1
280
     0
281
     0
  0
CLASS
  1
DICTIONARYVAR
  2
AcDbDictionaryVar
  3
ObjectDBX Classes
 90
        0
 91
        5
280
     0
281
     0
  0
CLASS
  1
CELLSTYLEMAP
  2
AcDbCellStyleMap
  3
ObjectDBX Classes
 90
     1152
 91
        1
280
     0
281
     0
  0
ENDSEC
  0
SECTION
  2
TABLES
  0
TABLE
  2
VPORT
  5
8
330
0
100
AcDbSymbolTable
 70
     1
1001
ACAD
1000
DbSaveVer
1071
      278
  0
VPORT
  5
57
330
8
100
AcDbSymbolTableRecord
100
AcDbViewportTableRecord
  2
*Active
 70
     0
 10
0.0
 20
0.0
 11
1.0
 21
1.0
 12
0.0
 22
0.0
 13
0.0
 23
0.0
 14
1.0
 24
1.0
 15
0.0
 25
0.0
 16
0.0
 26
0.0
 36
1.0
 17
224.9999999437495
 27
-149.9999999624999
 37
0.0
 40
305.9999999234999
 41
1.499999999999997
 42
50.0
 43
0.0
 44
0.0
 50
0.0
 51
0.0
 71
     0
 72
   100
 73
     1
 74
     1
 75
     0
 76
     0
 77
     0
 78
     0
281
     0
 65
     1
110
0.0
120
0.0
130
0.0
111
1.0
121
0.0
131
0.0
112
0.0
122
1.0
132
0.0
 79
     0
146
0.0
 60
     3
 61
     5
292
     1
282
     1
141
0.0
142
0.0
 63
   250
421
  3355443
  0
ENDTAB
  0
TABLE
  2
LTYPE
  5
5
330
0
100
AcDbSymbolTable
 70
     1
  0
LTYPE
  5
5B
330
5
100
AcDbSymbolTableRecord
100
AcDbLinetypeTableRecord
  2
ByBlock
 70
     0
  3

 72
    65
 73
     0
 40
0.0
  0
LTYPE
  5
5C
330
5
100
AcDbSymbolTableRecord
100
AcDbLinetypeTableRecord
  2
ByLayer
 70
     0
  3

 72
    65
 73
     0
 40
0.0
  0
LTYPE
  5
5D
330
5
100
AcDbSymbolTableRecord
100
AcDbLinetypeTableRecord
  2
Continuous
 70
     0
  3
Solid line
 72
    65
 73
     0
 40
0.0
  0
ENDTAB
  0
TABLE
  2
LAYER
  5
2
330
0
100
AcDbSymbolTable
 70
     2
  0
LAYER
  5
54
330
2
100
AcDbSymbolTableRecord
100
AcDbLayerTableRecord
  2
0
 70
     0
 62
     7
  6
Continuous
370
    -3
390
F
347
21
348
0
  0
LAYER
  5
78
330
2
100
AcDbSymbolTableRecord
100
AcDbLayerTableRecord
  2
mount
 70
     0
 62
     7
  6
Continuous
370
     0
390
F
347
21
348
0
  0
ENDTAB
  0
TABLE
  2
STYLE
  5
3
330
0
100
AcDbSymbolTable
 70
     2
  0
STYLE
  5
55
330
3
100
AcDbSymbolTableRecord
100
AcDbTextStyleTableRecord
  2
Standard
 70
     0
 40
0.0
 41
1.0
 50
0.0
 71
     0
 42
0.2
  3
txt
  4

  0
STYLE
  5
5A
330
3
100
AcDbSymbolTableRecord
100
AcDbTextStyleTableRecord
  2
Annotative
 70
     0
 40
0.0
 41
1.0
 50
0.0
 71
     0
 42
0.2
  3
txt
  4

1001
AcadAnnotative
1000
AnnotativeData
1002
{
1070
     1
1070
     1
1002
}
  0
ENDTAB
  0
TABLE
  2
VIEW
  5
6
330
0
100
AcDbSymbolTable
 70
     0
  0
ENDTAB
  0
TABLE
  2
UCS
  5
7
330
0
100
AcDbSymbolTable
 70
     0
  0
ENDTAB
  0
TABLE
  2
APPID
  5
9
330
0
100
AcDbSymbolTable
 70
     2
  0
APPID
  5
56
330
9
100
AcDbSymbolTableRecord
100
AcDbRegAppTableRecord
  2
ACAD
 70
     0
  0
APPID
  5
5E
330
9
100
AcDbSymbolTableRecord
100
AcDbRegAppTableRecord
  2
AcadAnnotative
 70
     0
  0
ENDTAB
  0
TABLE
  2
DIMSTYLE
  5
A
330
0
100
AcDbSymbolTable
 70
     2
100
AcDbDimStyleTable
 71
     0
  0
DIMSTYLE
105
58
330
A
100
AcDbSymbolTableRecord
100
AcDbDimStyleTableRecord
  2
Standard
 70
     0
340
55
  0
DIMSTYLE
105
59
330
A
100
AcDbSymbolTableRecord
100
AcDbDimStyleTableRecord
  2
Annotative
 70
     0
340
55
1001
AcadAnnotative
1000
AnnotativeData
1002
{
1070
     1
1070
     1
1002
}
  0
ENDTAB
  0
TABLE
  2
BLOCK_RECORD
  5
1
330
0
100
AcDbSymbolTable
 70
     7
  0
BLOCK_RECORD
  5
70
330
1
100
AcDbSymbolTableRecord
100
AcDbBlockTableRecord
  2
*Model_Space
340
73
 70
     0
280
     1
281
     0
  0
BLOCK_RECORD
  5
6C
330
1
100
AcDbSymbolTableRecord
100
AcDbBlockTableRecord
  2
*Paper_Space
340
6F
 70
     0
280
     1
281
     0
  0
BLOCK_RECORD
  5
74
330
1
100
AcDbSymbolTableRecord
100
AcDbBlockTableRecord
  2
*Paper_Space0
340
77
 70
     0
280
     1
281
     0
  0
BLOCK_RECORD
  5
7A
330
1
100
AcDbSymbolTableRecord
100
AcDbBlockTableRecord
  2
Block_0
340
0
102
{BLKREFS
331
7B
102
}
 70
     0
280
     1
281
     0
  0
BLOCK_RECORD
  5
86
330
1
100
AcDbSymbolTableRecord
100
AcDbBlockTableRecord
  2
Block_1
340
0
102
{BLKREFS
331
87
102
}
 70
     0
280
     1
281
     0
  0
BLOCK_RECORD
  5
8A
330
1
100
AcDbSymbolTableRecord
100
AcDbBlockTableRecord
  2
Block_2
340
0
102
{BLKREFS
331
8B
102
}
 70
     0
280
     1
281
     0
  0
BLOCK_RECORD
  5
93
330
1
100
AcDbSymbolTableRecord
100
AcDbBlockTableRecord
  2
Block_3
340
0
102
{BLKREFS
331
94
102
}
 70
     0
280
     1
281
     0
  0
BLOCK_RECORD
  5
107
330
1
100
AcDbSymbolTableRecord
100
AcDbBlockTableRecord
  2
Block_4
340
0
102
{BLKREFS
331
108
102
}
 70
     0
280
     1
281
     0
  0
BLOCK_RECORD
  5
153
330
1
100
AcDbSymbolTableRecord
100
AcDbBlockTableRecord
  2
Block_5
340
0
102
{BLKREFS
331
154
102
}
 70
     0
280
     1
281
     0
  0
ENDTAB
  0
ENDSEC
  0
SECTION
  2
BLOCKS
  0
BLOCK
  5
71
330
70
100
AcDbEntity
  8
0
100
AcDbBlockBegin
  2
*Model_Space
 70
     0
 10
0.0
 20
0.0
 30
0.0
  3
*Model_Space
  1

  0
ENDBLK
  5
72
330
70
100
AcDbEntity
  8
0
100
AcDbBlockEnd
  0
BLOCK
  5
6D
330
6C
100
AcDbEntity
 67
     1
  8
0
100
AcDbBlockBegin
  2
*Paper_Space
 70
     0
 10
0.0
 20
0.0
 30
0.0
  3
*Paper_Space
  1

  0
ENDBLK
  5
6E
330
6C
100
AcDbEntity
 67
     1
  8
0
100
AcDbBlockEnd
  0
BLOCK
  5
75
330
74
100
AcDbEntity
 67
     1
  8
0
100
AcDbBlockBegin
  2
*Paper_Space0
 70
     0
 10
0.0
 20
0.0
 30
0.0
  3
*Paper_Space0
  1

  0
ENDBLK
  5
76
330
74
100
AcDbEntity
 67
     1
  8
0
100
AcDbBlockEnd
  0
BLOCK
  5
7C
330
7A
100
AcDbEntity
  8
0
100
AcDbBlockBegin
  2
Block_0
 70
     0
 10
0.0
 20
0.0
 30
0.0
  3
Block_0
  1

  0
CIRCLE
  5
7E
330
7A
100
AcDbEntity
  8
mount
 62
   250
420
  2299925
370
    35
100
AcDbCircle
 10
54.99999998624937
 20
-85.12999997871762
 30
0.0
 40
2.599999999349729
  0
CIRCLE
  5
7F
330
7A
100
AcDbEntity
  8
mount
 62
   250
420
  2299925
370
    35
100
AcDbCircle
 10
54.99999998624937
 20
-205.0939999487264
 30
0.0
 40
2.599999999349729
  0
CIRCLE
  5
80
330
7A
100
AcDbEntity
  8
mount
 62
   250
420
  2299925
370
    35
100
AcDbCircle
 10
144.3469999639127
 20
-85.12999997871762
 30
0.0
 40
2.599999999349729
  0
CIRCLE
  5
81
330
7A
100
AcDbEntity
  8
mount
 62
   250
420
  2299925
370
    35
100
AcDbCircle
 10
144.3469999639127
 20
-205.0939999487264
 30
0.0
 40
2.599999999349729
  0
CIRCLE
  5
82
330
7A
100
AcDbEntity
  8
mount
 62
   250
420
  2299925
370
    35
100
AcDbCircle
 10
260.8239999347937
 20
-85.12999997871762
 30
0.0
 40
2.599999999349729
  0
CIRCLE
  5
83
330
7A
100
AcDbEntity
  8
mount
 62
   250
420
  2299925
370
    35
100
AcDbCircle
 10
260.8239999347937
 20
-205.0939999487264
 30
0.0
 40
2.599999999349729
  0
CIRCLE
  5
84
330
7A
100
AcDbEntity
  8
mount
 62
   250
420
  2299925
370
    35
100
AcDbCircle
 10
394.9999999012505
 20
-85.12999997871762
 30
0.0
 40
2.599999999350611
  0
CIRCLE
  5
85
330
7A
100
AcDbEntity
  8
mount
 62
   250
420
  2299925
370
    35
100
AcDbCircle
 10
394.9999999012505
 20
-205.0939999487264
 30
0.0
 40
2.599999999350611
  0
ENDBLK
  5
7D
330
7A
100
AcDbEntity
  8
0
100
AcDbBlockEnd
  0
BLOCK
  5
88
330
86
100
AcDbEntity
  8
0
100
AcDbBlockBegin
  2
Block_1
 70
     0
 10
0.0
 20
0.0
 30
0.0
  3
Block_1
  1

  0
INSERT
  5
8B
330
86
100
AcDbEntity
  8
mount
100
AcDbBlockReference
  2
Block_2
 10
0.0
 20
0.0
 30
0.0
  0
INSERT
  5
94
330
86
100
AcDbEntity
  8
mount
100
AcDbBlockReference
  2
Block_3
 10
0.0
 20
0.0
 30
0.0
  0
INSERT
  5
108
330
86
100
AcDbEntity
  8
mount
100
AcDbBlockReference
  2
Block_4
 10
0.0
 20
0.0
 30
0.0
  0
INSERT
  5
154
330
86
100
AcDbEntity
  8
mount
100
AcDbBlockReference
  2
Block_5
 10
0.0
 20
0.0
 30
0.0
  0
ENDBLK
  5
89
330
86
100
AcDbEntity
  8
0
100
AcDbBlockEnd
  0
BLOCK
  5
8C
330
8A
100
AcDbEntity
  8
0
100
AcDbBlockBegin
  2
Block_2
 70
     0
 10
0.0
 20
0.0
 30
0.0
  3
Block_2
  1

  0
LWPOLYLINE
  5
8E
330
8A
100
AcDbEntity
  8
mount
 62
   250
420
  2299925
370
    35
100
AcDbPolyline
 90
       12
 70
     1
 43
0.0
 10
71.59400735718268
 20
-152.2039125092269
 10
71.59400735718268
 20
-149.6785713911513
 10
62.06900735956392
 20
-149.6784206682238
 10
62.06900735956392
 20
-170.0569140781143
 10
71.59400735718268
 20
-170.0570648010418
 10
71.59400735718268
 20
-168.7569072967553
 10
85.59399260352025
 20
-168.7569072967553
 10
85.59399260352025
 20
-170.0572585876628
 10
95.11899260113899
 20
-170.0574093105903
 10
95.11899260113899
 20
-149.6789159006998
 10
85.59399260352025
 20
-149.6787651777723
 10
85.59399260352025
 20
-152.2039125092269
  0
LWPOLYLINE
  5
8F
330
8A
100
AcDbEntity
  8
mount
 62
   250
420
  2299925
370
    35
100
AcDbPolyline
 90
       12
 70
     1
 43
0.0
 10
341.3430072897456
 20
-133.1740712441434
 10
341.3430072897456
 20
-130.6487301260678
 10
331.8180072921268
 20
-130.6485794031403
 10
331.8180072921268
 20
-151.0270728130315
 10
341.3430072897456
 20
-151.0272235359589
 10
341.3430072897456
 20
-149.7270660316718
 10
355.3429925360828
 20
-149.7270660316718
 10
355.3429925360828
 20
-151.02741732258
 10
364.8679925337016
 20
-151.0275680455075
 10
364.8679925337016
 20
-130.6490746356163
 10
355.3429925360828
 20
-130.6489239126888
 10
355.3429925360828
 20
-133.1740712441434
  0
LWPOLYLINE
  5
90
330
8A
100
AcDbEntity
  8
mount
 62
   250
420
  2299925
370
    35
100
AcDbPolyline
 90
       12
 70
     1
 43
0.0
 10
337.3630072907401
 20
-95.08504511317964
 10
337.3630072907401
 20
-92.55970399510438
 10
327.8380072931213
 20
-92.55955327217691
 10
327.8380072931213
 20
-112.9380466820677
 10
337.3630072907401
 20
-112.9381974049952
 10
337.3630072907401
 20
-111.638039900708
 10
351.362992537078
 20
-111.638039900708
 10
351.362992537078
 20
-112.9383911916162
 10
360.8879925346968
 20
-112.9385419145437
 10
360.8879925346968
 20
-92.56004850465291
 10
351.362992537078
 20
-92.55989778172544
 10
351.362992537078
 20
-95.08504511317964
  0
LWPOLYLINE
  5
91
330
8A
100
AcDbEntity
  8
mount
 62
   250
420
  2299925
370
    35
100
AcDbPolyline
 90
       12
 70
     1
 43
0.0
 10
245.5105896667894
 20
-194.0500888644093
 10
246.0356376083034
 20
-196.5202452201392
 10
255.3525248402124
 20
-194.5400337957578
 10
251.1155978209517
 20
-174.6068593598975
 10
241.7987105890435
 20
-176.5870707842789
 10
242.0690285339673
 20
-177.8588167276995
 10
228.3749765546744
 20
-180.7695773303777
 10
228.1046183192467
 20
-179.4976418350389
 10
218.7877310873384
 20
-181.4778532594203
 10
223.0246581065984
 20
-201.4110276952812
 10
232.3415453385067
 20
-199.4308162708991
 10
231.8165376874958
 20
-196.9608494670868
  0
LWPOLYLINE
  5
92
330
8A
100
AcDbEntity
  8
mount
 62
   250
420
  2299925
370
    35
100
AcDbPolyline
 90
       12
 70
     1
 43
0.0
 10
163.5672475824785
 20
-195.3928399212837
 10
163.0421996405211
 20
-197.8629962769193
 10
172.3590241979565
 20
-199.8435025615139
 10
176.5959512207962
 20
-179.9103281264147
 10
167.2791266633601
 20
-177.9298218418201
 10
167.0088087182079
 20
-179.2015677851919
 10
153.3147567394376
 20
-176.2908071800547
 10
153.5851149750947
 20
-175.0188716847641
 10
144.2682904176592
 20
-173.0383654001695
 10
140.0313633948192
 20
-192.9715398352687
 10
149.3481879522547
 20
-194.9520461198633
 10
149.8731956037083
 20
-192.4820793161459
  0
ENDBLK
  5
8D
330
8A
100
AcDbEntity
  8
0
100
AcDbBlockEnd
  0
BLOCK
  5
95
330
93
100
AcDbEntity
  8
0
100
AcDbBlockBegin
  2
Block_3
 70
     0
 10
0.0
 20
0.0
 30
0.0
  3
Block_3
  1

  0
LINE
  5
97
330
93
100
AcDbEntity
  8
mount
 62
   250
420
  2299925
370
    35
100
AcDbLine
 10
64.37625031473936
 20
-171.2688961527729
 30
0.0
 11
78.3758503147392
 21
-171.2688961527729
 31
0.0
  0
LINE
  5
98
330
93
100
AcDbEntity
  8
mount
 62
   250
420
  2299925
370
    35
100
AcDbLine
 10
78.3758503147392
 20
-171.2688961527729
 30
0.0
 11
78.3758503147392
 21
-185.269796152773
 31
0.0
  0
LINE
  5
99
330
93
100
AcDbEntity
  8
mount
 62
   250
420
  2299925
370
    35
100
AcDbLine
 10
78.3758503147392
 20
-185.269796152773
 30
0.0
 11
64.37625031473936
 21
-185.269796152773
 31
0.0
  0
LINE
  5
9A
330
93
100
AcDbEntity
  8
mount
 62
   250
420
  2299925
370
    35
100
AcDbLine
 10
64.37625031473936
 20
-185.269796152773
 30
0.0
 11
64.37625031473936
 21
-171.2688961527729
 31
0.0
  0
LINE
  5
9B
330
93
100
AcDbEntity
  8
mount
 62
   250
420
  2299925
370
    35
100
AcDbLine
 10
315.2646503147391
 20
-171.2688961527729
 30
0.0
 11
329.2656503147393
 21
-171.2688961527729
 31
0.0
  0
LINE
  5
9C
330
93
100
AcDbEntity
  8
mount
 62
   250
420
  2299925
370
    35
100
AcDbLine
 10
329.2656503147393
 20
-171.2688961527729
 30
0.0
 11
329.2656503147393
 21
-185.269796152773
 31
0.0
  0
LINE
  5
9D
330
93
100
AcDbEntity
  8
mount
 62
   250
420
  2299925
370
    35
100
AcDbLine
 10
329.2656503147393
 20
-185.269796152773
 30
0.0
 11
315.2646503147391
 21
-185.269796152773
 31
0.0
  0
LINE
  5
9E
330
93
100
AcDbEntity
  8
mount
 62
   250
420
  2299925
370
    35
100
AcDbLine
 10
315.2646503147391
 20
-185.269796152773
 30
0.0
 11
315.2646503147391
 21
-171.2688961527729
 31
0.0
  0
LINE
  5
9F
330
93
100
AcDbEntity
  8
mount
 62
   250
420
  2299925
370
    35
100
AcDbLine
 10
339.0776503147392
 20
-171.2688961527729
 30
0.0
 11
353.0766503147393
 21
-171.2688961527729
 31
0.0
  0
LINE
  5
A0
330
93
100
AcDbEntity
  8
mount
 62
   250
420
  2299925
370
    35
100
AcDbLine
 10
353.0766503147393
 20
-171.2688961527729
 30
0.0
 11
353.0766503147393
 21
-185.269796152773
 31
0.0
  0
LINE
  5
A1
330
93
100
AcDbEntity
  8
mount
 62
   250
420
  2299925
370
    35
100
AcDbLine
 10
353.0766503147393
 20
-185.269796152773
 30
0.0
 11
339.0776503147392
 21
-185.269796152773
 31
0.0
  0
LINE
  5
A2
330
93
100
AcDbEntity
  8
mount
 62
   250
420
  2299925
370
    35
100
AcDbLine
 10
339.0776503147392
 20
-185.269796152773
 30
0.0
 11
339.0776503147392
 21
-171.2688961527729
 31
0.0
  0
LINE
  5
A3
330
93
100
AcDbEntity
  8
mount
 62
   250
420
  2299925
370
    35
100
AcDbLine
 10
358.1276503147394
 20
-171.2688961527729
 30
0.0
 11
372.1266503147395
 21
-171.2688961527729
 31
0.0
  0
LINE
  5
A4
330
93
100
AcDbEntity
  8
mount
 62
   250
420
  2299925
370
    35
100
AcDbLine
 10
372.1266503147395
 20
-171.2688961527729
 30
0.0
 11
372.1266503147395
 21
-185.269796152773
 31
0.0
  0
LINE
  5
A5
330
93
100
AcDbEntity
  8
mount
 62
   250
420
  2299925
370
    35
100
AcDbLine
 10
372.1266503147395
 20
-185.269796152773
 30
0.0
 11
358.1276503147394
 21
-185.269796152773
 31
0.0
  0
LINE
  5
A6
330
93
100
AcDbEntity
  8
mount
 62
   250
420
  2299925
370
    35
100
AcDbLine
 10
358.1276503147394
 20
-185.269796152773
 30
0.0
 11
358.1276503147394
 21
-171.2688961527729
 31
0.0
  0
LINE
  5
A7
330
93
100
AcDbEntity
  8
mount
 62
   250
420
  2299925
370
    35
100
AcDbLine
 10
377.1776503147396
 20
-171.2688961527729
 30
0.0
 11
391.1776503147394
 21
-171.2688961527729
 31
0.0
  0
LINE
  5
A8
330
93
100
AcDbEntity
  8
mount
 62
   250
420
  2299925
370
    35
100
AcDbLine
 10
391.1776503147394
 20
-171.2688961527729
 30
0.0
 11
391.1776503147394
 21
-185.269796152773
 31
0.0
  0
LINE
  5
A9
330
93
100
AcDbEntity
  8
mount
 62
   250
420
  2299925
370
    35
100
AcDbLine
 10
391.1776503147394
 20
-185.269796152773
 30
0.0
 11
377.1776503147396
 21
-185.269796152773
 31
0.0
  0
LINE
  5
AA
330
93
100
AcDbEntity
  8
mount
 62
   250
420
  2299925
370
    35
100
AcDbLine
 10
377.1776503147396
 20
-185.269796152773
 30
0.0
 11
377.1776503147396
 21
-171.2688961527729
 31
0.0
  0
LINE
  5
AB
330
93
100
AcDbEntity
  8
mount
 62
   250
420
  2299925
370
    35
100
AcDbLine
 10
102.4761503147392
 20
-152.2203961527726
 30
0.0
 11
116.4758503147392
 21
-152.2203961527726
 31
0.0
  0
LINE
  5
AC
330
93
100
AcDbEntity
  8
mount
 62
   250
420
  2299925
370
    35
100
AcDbLine
 10
116.4758503147392
 20
-152.2203961527726
 30
0.0
 11
116.4758503147392
 21
-166.2196961527726
 31
0.0
  0
LINE
  5
AD
330
93
100
AcDbEntity
  8
mount
 62
   250
420
  2299925
370
    35
100
AcDbLine
 10
116.4758503147392
 20
-166.2196961527726
 30
0.0
 11
102.4761503147392
 21
-166.2196961527726
 31
0.0
  0
LINE
  5
AE
330
93
100
AcDbEntity
  8
mount
 62
   250
420
  2299925
370
    35
100
AcDbLine
 10
102.4761503147392
 20
-166.2196961527726
 30
0.0
 11
102.4761503147392
 21
-152.2203961527726
 31
0.0
  0
LINE
  5
AF
330
93
100
AcDbEntity
  8
mount
 62
   250
420
  2299925
370
    35
100
AcDbLine
 10
286.6896503147395
 20
-152.2203961527726
 30
0.0
 11
300.6906503147391
 21
-152.2203961527726
 31
0.0
  0
LINE
  5
B0
330
93
100
AcDbEntity
  8
mount
 62
   250
420
  2299925
370
    35
100
AcDbLine
 10
300.6906503147391
 20
-152.2203961527726
 30
0.0
 11
300.6906503147391
 21
-166.2196961527726
 31
0.0
  0
LINE
  5
B1
330
93
100
AcDbEntity
  8
mount
 62
   250
420
  2299925
370
    35
100
AcDbLine
 10
300.6906503147391
 20
-166.2196961527726
 30
0.0
 11
286.6896503147395
 21
-166.2196961527726
 31
0.0
  0
LINE
  5
B2
330
93
100
AcDbEntity
  8
mount
 62
   250
420
  2299925
370
    35
100
AcDbLine
 10
286.6896503147395
 20
-166.2196961527726
 30
0.0
 11
286.6896503147395
 21
-152.2203961527726
 31
0.0
  0
LINE
  5
B3
330
93
100
AcDbEntity
  8
mount
 62
   250
420
  2299925
370
    35
100
AcDbLine
 10
305.739650314739
 20
-152.2203961527726
 30
0.0
 11
319.7406503147393
 21
-152.2203961527726
 31
0.0
  0
LINE
  5
B4
330
93
100
AcDbEntity
  8
mount
 62
   250
420
  2299925
370
    35
100
AcDbLine
 10
319.7406503147393
 20
-152.2203961527726
 30
0.0
 11
319.7406503147393
 21
-166.2196961527726
 31
0.0
  0
LINE
  5
B5
330
93
100
AcDbEntity
  8
mount
 62
   250
420
  2299925
370
    35
100
AcDbLine
 10
319.7406503147393
 20
-166.2196961527726
 30
0.0
 11
305.739650314739
 21
-166.2196961527726
 31
0.0
  0
LINE
  5
B6
330
93
100
AcDbEntity
  8
mount
 62
   250
420
  2299925
370
    35
100
AcDbLine
 10
305.739650314739
 20
-166.2196961527726
 30
0.0
 11
305.739650314739
 21
-152.2203961527726
 31
0.0
  0
LINE
  5
B7
330
93
100
AcDbEntity
  8
mount
 62
   250
420
  2299925
370
    35
100
AcDbLine
 10
331.9336503147395
 20
-152.2203961527726
 30
0.0
 11
345.932650314739
 21
-152.2203961527726
 31
0.0
  0
LINE
  5
B8
330
93
100
AcDbEntity
  8
mount
 62
   250
420
  2299925
370
    35
100
AcDbLine
 10
345.932650314739
 20
-152.2203961527726
 30
0.0
 11
345.932650314739
 21
-166.2196961527726
 31
0.0
  0
LINE
  5
B9
330
93
100
AcDbEntity
  8
mount
 62
   250
420
  2299925
370
    35
100
AcDbLine
 10
345.932650314739
 20
-166.2196961527726
 30
0.0
 11
331.9336503147395
 21
-166.2196961527726
 31
0.0
  0
LINE
  5
BA
330
93
100
AcDbEntity
  8
mount
 62
   250
420
  2299925
370
    35
100
AcDbLine
 10
331.9336503147395
 20
-166.2196961527726
 30
0.0
 11
331.9336503147395
 21
-152.2203961527726
 31
0.0
  0
LINE
  5
BB
330
93
100
AcDbEntity
  8
mount
 62
   250
420
  2299925
370
    35
100
AcDbLine
 10
358.1276503147394
 20
-152.2203961527726
 30
0.0
 11
372.1266503147395
 21
-152.2203961527726
 31
0.0
  0
LINE
  5
BC
330
93
100
AcDbEntity
  8
mount
 62
   250
420
  2299925
370
    35
100
AcDbLine
 10
372.1266503147395
 20
-152.2203961527726
 30
0.0
 11
372.1266503147395
 21
-166.2196961527726
 31
0.0
  0
LINE
  5
BD
330
93
100
AcDbEntity
  8
mount
 62
   250
420
  2299925
370
    35
100
AcDbLine
 10
372.1266503147395
 20
-166.2196961527726
 30
0.0
 11
358.1276503147394
 21
-166.2196961527726
 31
0.0
  0
LINE
  5
BE
330
93
100
AcDbEntity
  8
mount
 62
   250
420
  2299925
370
    35
100
AcDbLine
 10
358.1276503147394
 20
-166.2196961527726
 30
0.0
 11
358.1276503147394
 21
-152.2203961527726
 31
0.0
  0
LINE
  5
BF
330
93
100
AcDbEntity
  8
mount
 62
   250
420
  2299925
370
    35
100
AcDbLine
 10
71.9016503147391
 20
-133.1703961527728
 30
0.0
 11
85.90125031473924
 21
-133.1703961527728
 31
0.0
  0
LINE
  5
C0
330
93
100
AcDbEntity
  8
mount
 62
   250
420
  2299925
370
    35
100
AcDbLine
 10
85.90125031473924
 20
-133.1703961527728
 30
0.0
 11
85.90125031473924
 21
-147.169696152773
 31
0.0
  0
LINE
  5
C1
330
93
100
AcDbEntity
  8
mount
 62
   250
420
  2299925
370
    35
100
AcDbLine
 10
85.90125031473924
 20
-147.169696152773
 30
0.0
 11
71.9016503147391
 21
-147.169696152773
 31
0.0
  0
LINE
  5
C2
330
93
100
AcDbEntity
  8
mount
 62
   250
420
  2299925
370
    35
100
AcDbLine
 10
71.9016503147391
 20
-147.169696152773
 30
0.0
 11
71.9016503147391
 21
-133.1703961527728
 31
0.0
  0
LINE
  5
C3
330
93
100
AcDbEntity
  8
mount
 62
   250
420
  2299925
370
    35
100
AcDbLine
 10
98.09535031473913
 20
-133.1703961527728
 30
0.0
 11
112.0950503147391
 21
-133.1703961527728
 31
0.0
  0
LINE
  5
C4
330
93
100
AcDbEntity
  8
mount
 62
   250
420
  2299925
370
    35
100
AcDbLine
 10
112.0950503147391
 20
-133.1703961527728
 30
0.0
 11
112.0950503147391
 21
-147.169696152773
 31
0.0
  0
LINE
  5
C5
330
93
100
AcDbEntity
  8
mount
 62
   250
420
  2299925
370
    35
100
AcDbLine
 10
112.0950503147391
 20
-147.169696152773
 30
0.0
 11
98.09535031473913
 21
-147.169696152773
 31
0.0
  0
LINE
  5
C6
330
93
100
AcDbEntity
  8
mount
 62
   250
420
  2299925
370
    35
100
AcDbLine
 10
98.09535031473913
 20
-147.169696152773
 30
0.0
 11
98.09535031473913
 21
-133.1703961527728
 31
0.0
  0
LINE
  5
C7
330
93
100
AcDbEntity
  8
mount
 62
   250
420
  2299925
370
    35
100
AcDbLine
 10
291.261650314739
 20
-133.1703961527728
 30
0.0
 11
305.2616503147395
 21
-133.1703961527728
 31
0.0
  0
LINE
  5
C8
330
93
100
AcDbEntity
  8
mount
 62
   250
420
  2299925
370
    35
100
AcDbLine
 10
305.2616503147395
 20
-133.1703961527728
 30
0.0
 11
305.2616503147395
 21
-147.169696152773
 31
0.0
  0
LINE
  5
C9
330
93
100
AcDbEntity
  8
mount
 62
   250
420
  2299925
370
    35
100
AcDbLine
 10
305.2616503147395
 20
-147.169696152773
 30
0.0
 11
291.261650314739
 21
-147.169696152773
 31
0.0
  0
LINE
  5
CA
330
93
100
AcDbEntity
  8
mount
 62
   250
420
  2299925
370
    35
100
AcDbLine
 10
291.261650314739
 20
-147.169696152773
 30
0.0
 11
291.261650314739
 21
-133.1703961527728
 31
0.0
  0
LINE
  5
CB
330
93
100
AcDbEntity
  8
mount
 62
   250
420
  2299925
370
    35
100
AcDbLine
 10
310.3116503147392
 20
-133.1703961527728
 30
0.0
 11
324.311650314739
 21
-133.1703961527728
 31
0.0
  0
LINE
  5
CC
330
93
100
AcDbEntity
  8
mount
 62
   250
420
  2299925
370
    35
100
AcDbLine
 10
324.311650314739
 20
-133.1703961527728
 30
0.0
 11
324.311650314739
 21
-147.169696152773
 31
0.0
  0
LINE
  5
CD
330
93
100
AcDbEntity
  8
mount
 62
   250
420
  2299925
370
    35
100
AcDbLine
 10
324.311650314739
 20
-147.169696152773
 30
0.0
 11
310.3116503147392
 21
-147.169696152773
 31
0.0
  0
LINE
  5
CE
330
93
100
AcDbEntity
  8
mount
 62
   250
420
  2299925
370
    35
100
AcDbLine
 10
310.3116503147392
 20
-147.169696152773
 30
0.0
 11
310.3116503147392
 21
-133.1703961527728
 31
0.0
  0
LINE
  5
CF
330
93
100
AcDbEntity
  8
mount
 62
   250
420
  2299925
370
    35
100
AcDbLine
 10
377.1776503147396
 20
-131.2642961527728
 30
0.0
 11
391.1776503147394
 21
-131.2642961527728
 31
0.0
  0
LINE
  5
D0
330
93
100
AcDbEntity
  8
mount
 62
   250
420
  2299925
370
    35
100
AcDbLine
 10
391.1776503147394
 20
-131.2642961527728
 30
0.0
 11
391.1776503147394
 21
-145.2653961527732
 31
0.0
  0
LINE
  5
D1
330
93
100
AcDbEntity
  8
mount
 62
   250
420
  2299925
370
    35
100
AcDbLine
 10
391.1776503147394
 20
-145.2653961527732
 30
0.0
 11
377.1776503147396
 21
-145.2653961527732
 31
0.0
  0
LINE
  5
D2
330
93
100
AcDbEntity
  8
mount
 62
   250
420
  2299925
370
    35
100
AcDbLine
 10
377.1776503147396
 20
-145.2653961527732
 30
0.0
 11
377.1776503147396
 21
-131.2642961527728
 31
0.0
  0
LINE
  5
D3
330
93
100
AcDbEntity
  8
mount
 62
   250
420
  2299925
370
    35
100
AcDbLine
 10
72.66365031473913
 20
-114.1203961527729
 30
0.0
 11
86.66325031473929
 21
-114.1203961527729
 31
0.0
  0
LINE
  5
D4
330
93
100
AcDbEntity
  8
mount
 62
   250
420
  2299925
370
    35
100
AcDbLine
 10
86.66325031473929
 20
-114.1203961527729
 30
0.0
 11
86.66325031473929
 21
-128.1196961527729
 31
0.0
  0
LINE
  5
D5
330
93
100
AcDbEntity
  8
mount
 62
   250
420
  2299925
370
    35
100
AcDbLine
 10
86.66325031473929
 20
-128.1196961527729
 30
0.0
 11
72.66365031473913
 21
-128.1196961527729
 31
0.0
  0
LINE
  5
D6
330
93
100
AcDbEntity
  8
mount
 62
   250
420
  2299925
370
    35
100
AcDbLine
 10
72.66365031473913
 20
-128.1196961527729
 30
0.0
 11
72.66365031473913
 21
-114.1203961527729
 31
0.0
  0
LINE
  5
D7
330
93
100
AcDbEntity
  8
mount
 62
   250
420
  2299925
370
    35
100
AcDbLine
 10
96.47365031473938
 20
-114.1203961527729
 30
0.0
 11
110.4757503147392
 21
-114.1203961527729
 31
0.0
  0
LINE
  5
D8
330
93
100
AcDbEntity
  8
mount
 62
   250
420
  2299925
370
    35
100
AcDbLine
 10
110.4757503147392
 20
-114.1203961527729
 30
0.0
 11
110.4757503147392
 21
-128.1196961527729
 31
0.0
  0
LINE
  5
D9
330
93
100
AcDbEntity
  8
mount
 62
   250
420
  2299925
370
    35
100
AcDbLine
 10
110.4757503147392
 20
-128.1196961527729
 30
0.0
 11
96.47365031473938
 21
-128.1196961527729
 31
0.0
  0
LINE
  5
DA
330
93
100
AcDbEntity
  8
mount
 62
   250
420
  2299925
370
    35
100
AcDbLine
 10
96.47365031473938
 20
-128.1196961527729
 30
0.0
 11
96.47365031473938
 21
-114.1203961527729
 31
0.0
  0
LINE
  5
DB
330
93
100
AcDbEntity
  8
mount
 62
   250
420
  2299925
370
    35
100
AcDbLine
 10
304.977650314739
 20
-114.1203961527729
 30
0.0
 11
318.9786503147392
 21
-114.1203961527729
 31
0.0
  0
LINE
  5
DC
330
93
100
AcDbEntity
  8
mount
 62
   250
420
  2299925
370
    35
100
AcDbLine
 10
318.9786503147392
 20
-114.1203961527729
 30
0.0
 11
318.9786503147392
 21
-128.1196961527729
 31
0.0
  0
LINE
  5
DD
330
93
100
AcDbEntity
  8
mount
 62
   250
420
  2299925
370
    35
100
AcDbLine
 10
318.9786503147392
 20
-128.1196961527729
 30
0.0
 11
304.977650314739
 21
-128.1196961527729
 31
0.0
  0
LINE
  5
DE
330
93
100
AcDbEntity
  8
mount
 62
   250
420
  2299925
370
    35
100
AcDbLine
 10
304.977650314739
 20
-128.1196961527729
 30
0.0
 11
304.977650314739
 21
-114.1203961527729
 31
0.0
  0
LINE
  5
DF
330
93
100
AcDbEntity
  8
mount
 62
   250
420
  2299925
370
    35
100
AcDbLine
 10
324.0276503147392
 20
-114.1203961527729
 30
0.0
 11
338.0286503147394
 21
-114.1203961527729
 31
0.0
  0
LINE
  5
E0
330
93
100
AcDbEntity
  8
mount
 62
   250
420
  2299925
370
    35
100
AcDbLine
 10
338.0286503147394
 20
-114.1203961527729
 30
0.0
 11
338.0286503147394
 21
-128.1196961527729
 31
0.0
  0
LINE
  5
E1
330
93
100
AcDbEntity
  8
mount
 62
   250
420
  2299925
370
    35
100
AcDbLine
 10
338.0286503147394
 20
-128.1196961527729
 30
0.0
 11
324.0276503147392
 21
-128.1196961527729
 31
0.0
  0
LINE
  5
E2
330
93
100
AcDbEntity
  8
mount
 62
   250
420
  2299925
370
    35
100
AcDbLine
 10
324.0276503147392
 20
-128.1196961527729
 30
0.0
 11
324.0276503147392
 21
-114.1203961527729
 31
0.0
  0
LINE
  5
E3
330
93
100
AcDbEntity
  8
mount
 62
   250
420
  2299925
370
    35
100
AcDbLine
 10
347.8406503147393
 20
-114.1203961527729
 30
0.0
 11
361.8396503147394
 21
-114.1203961527729
 31
0.0
  0
LINE
  5
E4
330
93
100
AcDbEntity
  8
mount
 62
   250
420
  2299925
370
    35
100
AcDbLine
 10
361.8396503147394
 20
-114.1203961527729
 30
0.0
 11
361.8396503147394
 21
-128.1196961527729
 31
0.0
  0
LINE
  5
E5
330
93
100
AcDbEntity
  8
mount
 62
   250
420
  2299925
370
    35
100
AcDbLine
 10
361.8396503147394
 20
-128.1196961527729
 30
0.0
 11
347.8406503147393
 21
-128.1196961527729
 31
0.0
  0
LINE
  5
E6
330
93
100
AcDbEntity
  8
mount
 62
   250
420
  2299925
370
    35
100
AcDbLine
 10
347.8406503147393
 20
-128.1196961527729
 30
0.0
 11
347.8406503147393
 21
-114.1203961527729
 31
0.0
  0
LINE
  5
E7
330
93
100
AcDbEntity
  8
mount
 62
   250
420
  2299925
370
    35
100
AcDbLine
 10
285.9276503147394
 20
-113.3583961527729
 30
0.0
 11
299.928650314739
 21
-113.3583961527729
 31
0.0
  0
LINE
  5
E8
330
93
100
AcDbEntity
  8
mount
 62
   250
420
  2299925
370
    35
100
AcDbLine
 10
299.928650314739
 20
-113.3583961527729
 30
0.0
 11
299.928650314739
 21
-127.3576961527728
 31
0.0
  0
LINE
  5
E9
330
93
100
AcDbEntity
  8
mount
 62
   250
420
  2299925
370
    35
100
AcDbLine
 10
299.928650314739
 20
-127.3576961527728
 30
0.0
 11
285.9276503147394
 21
-127.3576961527728
 31
0.0
  0
LINE
  5
EA
330
93
100
AcDbEntity
  8
mount
 62
   250
420
  2299925
370
    35
100
AcDbLine
 10
285.9276503147394
 20
-127.3576961527728
 30
0.0
 11
285.9276503147394
 21
-113.3583961527729
 31
0.0
  0
LINE
  5
EB
330
93
100
AcDbEntity
  8
mount
 62
   250
420
  2299925
370
    35
100
AcDbLine
 10
373.366650314739
 20
-112.2142961527726
 30
0.0
 11
387.3676503147393
 21
-112.2142961527726
 31
0.0
  0
LINE
  5
EC
330
93
100
AcDbEntity
  8
mount
 62
   250
420
  2299925
370
    35
100
AcDbLine
 10
387.3676503147393
 20
-112.2142961527726
 30
0.0
 11
387.3676503147393
 21
-126.215396152773
 31
0.0
  0
LINE
  5
ED
330
93
100
AcDbEntity
  8
mount
 62
   250
420
  2299925
370
    35
100
AcDbLine
 10
387.3676503147393
 20
-126.215396152773
 30
0.0
 11
373.366650314739
 21
-126.215396152773
 31
0.0
  0
LINE
  5
EE
330
93
100
AcDbEntity
  8
mount
 62
   250
420
  2299925
370
    35
100
AcDbLine
 10
373.366650314739
 20
-126.215396152773
 30
0.0
 11
373.366650314739
 21
-112.2142961527726
 31
0.0
  0
LINE
  5
EF
330
93
100
AcDbEntity
  8
mount
 62
   250
420
  2299925
370
    35
100
AcDbLine
 10
72.18705031473909
 20
-95.07019615277306
 30
0.0
 11
86.18635031473939
 21
-95.07019615277306
 31
0.0
  0
LINE
  5
F0
330
93
100
AcDbEntity
  8
mount
 62
   250
420
  2299925
370
    35
100
AcDbLine
 10
86.18635031473939
 20
-95.07019615277306
 30
0.0
 11
86.18635031473939
 21
-109.0696961527727
 31
0.0
  0
LINE
  5
F1
330
93
100
AcDbEntity
  8
mount
 62
   250
420
  2299925
370
    35
100
AcDbLine
 10
86.18635031473939
 20
-109.0696961527727
 30
0.0
 11
72.18705031473909
 21
-109.0696961527727
 31
0.0
  0
LINE
  5
F2
330
93
100
AcDbEntity
  8
mount
 62
   250
420
  2299925
370
    35
100
AcDbLine
 10
72.18705031473909
 20
-109.0696961527727
 30
0.0
 11
72.18705031473909
 21
-95.07019615277306
 31
0.0
  0
LINE
  5
F3
330
93
100
AcDbEntity
  8
mount
 62
   250
420
  2299925
370
    35
100
AcDbLine
 10
91.23565031473919
 20
-95.07019615277306
 30
0.0
 11
105.2363503147392
 21
-95.07019615277306
 31
0.0
  0
LINE
  5
F4
330
93
100
AcDbEntity
  8
mount
 62
   250
420
  2299925
370
    35
100
AcDbLine
 10
105.2363503147392
 20
-95.07019615277306
 30
0.0
 11
105.2363503147392
 21
-109.0696961527727
 31
0.0
  0
LINE
  5
F5
330
93
100
AcDbEntity
  8
mount
 62
   250
420
  2299925
370
    35
100
AcDbLine
 10
105.2363503147392
 20
-109.0696961527727
 30
0.0
 11
91.23565031473919
 21
-109.0696961527727
 31
0.0
  0
LINE
  5
F6
330
93
100
AcDbEntity
  8
mount
 62
   250
420
  2299925
370
    35
100
AcDbLine
 10
91.23565031473919
 20
-109.0696961527727
 30
0.0
 11
91.23565031473919
 21
-95.07019615277306
 31
0.0
  0
LINE
  5
F7
330
93
100
AcDbEntity
  8
mount
 62
   250
420
  2299925
370
    35
100
AcDbLine
 10
308.7876503147392
 20
-95.07019615277306
 30
0.0
 11
322.7886503147394
 21
-95.07019615277306
 31
0.0
  0
LINE
  5
F8
330
93
100
AcDbEntity
  8
mount
 62
   250
420
  2299925
370
    35
100
AcDbLine
 10
322.7886503147394
 20
-95.07019615277306
 30
0.0
 11
322.7886503147394
 21
-109.0696961527727
 31
0.0
  0
LINE
  5
F9
330
93
100
AcDbEntity
  8
mount
 62
   250
420
  2299925
370
    35
100
AcDbLine
 10
322.7886503147394
 20
-109.0696961527727
 30
0.0
 11
308.7876503147392
 21
-109.0696961527727
 31
0.0
  0
LINE
  5
FA
330
93
100
AcDbEntity
  8
mount
 62
   250
420
  2299925
370
    35
100
AcDbLine
 10
308.7876503147392
 20
-109.0696961527727
 30
0.0
 11
308.7876503147392
 21
-95.07019615277306
 31
0.0
  0
LINE
  5
FB
330
93
100
AcDbEntity
  8
mount
 62
   250
420
  2299925
370
    35
100
AcDbLine
 10
289.7366503147392
 20
-94.308196152773
 30
0.0
 11
303.7386503147392
 21
-94.308196152773
 31
0.0
  0
LINE
  5
FC
330
93
100
AcDbEntity
  8
mount
 62
   250
420
  2299925
370
    35
100
AcDbLine
 10
303.7386503147392
 20
-94.308196152773
 30
0.0
 11
303.7386503147392
 21
-108.307696152773
 31
0.0
  0
LINE
  5
FD
330
93
100
AcDbEntity
  8
mount
 62
   250
420
  2299925
370
    35
100
AcDbLine
 10
303.7386503147392
 20
-108.307696152773
 30
0.0
 11
289.7366503147392
 21
-108.307696152773
 31
0.0
  0
LINE
  5
FE
330
93
100
AcDbEntity
  8
mount
 62
   250
420
  2299925
370
    35
100
AcDbLine
 10
289.7366503147392
 20
-108.307696152773
 30
0.0
 11
289.7366503147392
 21
-94.308196152773
 31
0.0
  0
LINE
  5
FF
330
93
100
AcDbEntity
  8
mount
 62
   250
420
  2299925
370
    35
100
AcDbLine
 10
110.2870503147391
 20
-93.54619615277298
 30
0.0
 11
124.2863503147391
 21
-93.54619615277298
 31
0.0
  0
LINE
  5
100
330
93
100
AcDbEntity
  8
mount
 62
   250
420
  2299925
370
    35
100
AcDbLine
 10
124.2863503147391
 20
-93.54619615277298
 30
0.0
 11
124.2863503147391
 21
-107.5456961527732
 31
0.0
  0
LINE
  5
101
330
93
100
AcDbEntity
  8
mount
 62
   250
420
  2299925
370
    35
100
AcDbLine
 10
124.2863503147391
 20
-107.5456961527732
 30
0.0
 11
110.2870503147391
 21
-107.5456961527732
 31
0.0
  0
LINE
  5
102
330
93
100
AcDbEntity
  8
mount
 62
   250
420
  2299925
370
    35
100
AcDbLine
 10
110.2870503147391
 20
-107.5456961527732
 30
0.0
 11
110.2870503147391
 21
-93.54619615277298
 31
0.0
  0
LINE
  5
103
330
93
100
AcDbEntity
  8
mount
 62
   250
420
  2299925
370
    35
100
AcDbLine
 10
369.5566503147395
 20
-93.16419615277288
 30
0.0
 11
383.5576503147391
 21
-93.16419615277288
 31
0.0
  0
LINE
  5
104
330
93
100
AcDbEntity
  8
mount
 62
   250
420
  2299925
370
    35
100
AcDbLine
 10
383.5576503147391
 20
-93.16419615277288
 30
0.0
 11
383.5576503147391
 21
-107.1653961527728
 31
0.0
  0
LINE
  5
105
330
93
100
AcDbEntity
  8
mount
 62
   250
420
  2299925
370
    35
100
AcDbLine
 10
383.5576503147391
 20
-107.1653961527728
 30
0.0
 11
369.5566503147395
 21
-107.1653961527728
 31
0.0
  0
LINE
  5
106
330
93
100
AcDbEntity
  8
mount
 62
   250
420
  2299925
370
    35
100
AcDbLine
 10
369.5566503147395
 20
-107.1653961527728
 30
0.0
 11
369.5566503147395
 21
-93.16419615277288
 31
0.0
  0
ENDBLK
  5
96
330
93
100
AcDbEntity
  8
0
100
AcDbBlockEnd
  0
BLOCK
  5
109
330
107
100
AcDbEntity
  8
0
100
AcDbBlockBegin
  2
Block_4
 70
     0
 10
0.0
 20
0.0
 30
0.0
  3
Block_4
  1

  0
LINE
  5
10B
330
107
100
AcDbEntity
  8
mount
 62
   250
420
  2299925
370
    35
100
AcDbLine
 10
177.8220945472418
 20
-198.429084798138
 30
0.0
 11
191.5150945472419
 21
-201.3408747981379
 31
0.0
  0
LINE
  5
10C
330
107
100
AcDbEntity
  8
mount
 62
   250
420
  2299925
370
    35
100
AcDbLine
 10
191.5150945472419
 20
-201.3408747981379
 30
0.0
 11
194.4270945472418
 21
-187.6473047981381
 31
0.0
  0
LINE
  5
10D
330
107
100
AcDbEntity
  8
mount
 62
   250
420
  2299925
370
    35
100
AcDbLine
 10
194.4270945472418
 20
-187.6473047981381
 30
0.0
 11
180.7320945472417
 21
-184.7355047981378
 31
0.0
  0
LINE
  5
10E
330
107
100
AcDbEntity
  8
mount
 62
   250
420
  2299925
370
    35
100
AcDbLine
 10
180.7320945472417
 20
-184.7355047981378
 30
0.0
 11
177.8220945472418
 21
-198.429084798138
 31
0.0
  0
LINE
  5
10F
330
107
100
AcDbEntity
  8
mount
 62
   250
420
  2299925
370
    35
100
AcDbLine
 10
117.0641945472421
 20
-186.4897047981383
 30
0.0
 11
130.7589945472419
 21
-189.4002047981383
 31
0.0
  0
LINE
  5
110
330
107
100
AcDbEntity
  8
mount
 62
   250
420
  2299925
370
    35
100
AcDbLine
 10
130.7589945472419
 20
-189.4002047981383
 30
0.0
 11
133.6680945472418
 21
-175.7066047981379
 31
0.0
  0
LINE
  5
111
330
107
100
AcDbEntity
  8
mount
 62
   250
420
  2299925
370
    35
100
AcDbLine
 10
133.6680945472418
 20
-175.7066047981379
 30
0.0
 11
119.9745945472419
 21
-172.7948047981383
 31
0.0
  0
LINE
  5
112
330
107
100
AcDbEntity
  8
mount
 62
   250
420
  2299925
370
    35
100
AcDbLine
 10
119.9745945472419
 20
-172.7948047981383
 30
0.0
 11
117.0641945472421
 21
-186.4897047981383
 31
0.0
  0
LINE
  5
113
330
107
100
AcDbEntity
  8
mount
 62
   250
420
  2299925
370
    35
100
AcDbLine
 10
178.9880945472418
 20
-179.2013047981378
 30
0.0
 11
192.6810945472419
 21
-182.1131047981381
 31
0.0
  0
LINE
  5
114
330
107
100
AcDbEntity
  8
mount
 62
   250
420
  2299925
370
    35
100
AcDbLine
 10
192.6810945472419
 20
-182.1131047981381
 30
0.0
 11
195.5930945472418
 21
-168.4194047981382
 31
0.0
  0
LINE
  5
115
330
107
100
AcDbEntity
  8
mount
 62
   250
420
  2299925
370
    35
100
AcDbLine
 10
195.5930945472418
 20
-168.4194047981382
 30
0.0
 11
181.8980945472417
 21
-165.5076047981379
 31
0.0
  0
LINE
  5
116
330
107
100
AcDbEntity
  8
mount
 62
   250
420
  2299925
370
    35
100
AcDbLine
 10
181.8980945472417
 20
-165.5076047981379
 30
0.0
 11
178.9880945472418
 21
-179.2013047981378
 31
0.0
  0
LINE
  5
117
330
107
100
AcDbEntity
  8
mount
 62
   250
420
  2299925
370
    35
100
AcDbLine
 10
160.3540945472418
 20
-175.2422047981381
 30
0.0
 11
174.0470945472418
 21
-178.1526047981379
 31
0.0
  0
LINE
  5
118
330
107
100
AcDbEntity
  8
mount
 62
   250
420
  2299925
370
    35
100
AcDbLine
 10
174.0470945472418
 20
-178.1526047981379
 30
0.0
 11
176.9590945472421
 21
-164.4577047981379
 31
0.0
  0
LINE
  5
119
330
107
100
AcDbEntity
  8
mount
 62
   250
420
  2299925
370
    35
100
AcDbLine
 10
176.9590945472421
 20
-164.4577047981379
 30
0.0
 11
163.2640945472416
 21
-161.5473047981381
 31
0.0
  0
LINE
  5
11A
330
107
100
AcDbEntity
  8
mount
 62
   250
420
  2299925
370
    35
100
AcDbLine
 10
163.2640945472416
 20
-161.5473047981381
 30
0.0
 11
160.3540945472418
 21
-175.2422047981381
 31
0.0
  0
LINE
  5
11B
330
107
100
AcDbEntity
  8
mount
 62
   250
420
  2299925
370
    35
100
AcDbLine
 10
141.7200945472417
 20
-171.2803047981381
 30
0.0
 11
155.4150945472419
 21
-174.1921047981383
 31
0.0
  0
LINE
  5
11C
330
107
100
AcDbEntity
  8
mount
 62
   250
420
  2299925
370
    35
100
AcDbLine
 10
155.4150945472419
 20
-174.1921047981383
 30
0.0
 11
158.3240945472419
 21
-160.498504798138
 31
0.0
  0
LINE
  5
11D
330
107
100
AcDbEntity
  8
mount
 62
   250
420
  2299925
370
    35
100
AcDbLine
 10
158.3240945472419
 20
-160.498504798138
 30
0.0
 11
144.6300945472419
 21
-157.5867047981384
 31
0.0
  0
LINE
  5
11E
330
107
100
AcDbEntity
  8
mount
 62
   250
420
  2299925
370
    35
100
AcDbLine
 10
144.6300945472419
 20
-157.5867047981384
 30
0.0
 11
141.7200945472417
 21
-171.2803047981381
 31
0.0
  0
LINE
  5
11F
330
107
100
AcDbEntity
  8
mount
 62
   250
420
  2299925
370
    35
100
AcDbLine
 10
123.0860945472417
 20
-167.3198047981379
 30
0.0
 11
136.7809945472417
 21
-170.2303047981379
 31
0.0
  0
LINE
  5
120
330
107
100
AcDbEntity
  8
mount
 62
   250
420
  2299925
370
    35
100
AcDbLine
 10
136.7809945472417
 20
-170.2303047981379
 30
0.0
 11
139.6910945472416
 21
-156.5368047981383
 31
0.0
  0
LINE
  5
121
330
107
100
AcDbEntity
  8
mount
 62
   250
420
  2299925
370
    35
100
AcDbLine
 10
139.6910945472416
 20
-156.5368047981383
 30
0.0
 11
125.9964945472418
 21
-153.6264047981378
 31
0.0
  0
LINE
  5
122
330
107
100
AcDbEntity
  8
mount
 62
   250
420
  2299925
370
    35
100
AcDbLine
 10
125.9964945472418
 20
-153.6264047981378
 30
0.0
 11
123.0860945472417
 21
-167.3198047981379
 31
0.0
  0
LINE
  5
123
330
107
100
AcDbEntity
  8
mount
 62
   250
420
  2299925
370
    35
100
AcDbLine
 10
173.6310945472417
 20
-158.5886047981384
 30
0.0
 11
187.3260945472418
 21
-161.4990047981382
 31
0.0
  0
LINE
  5
124
330
107
100
AcDbEntity
  8
mount
 62
   250
420
  2299925
370
    35
100
AcDbLine
 10
187.3260945472418
 20
-161.4990047981382
 30
0.0
 11
190.2370945472417
 21
-147.8056047981382
 31
0.0
  0
LINE
  5
125
330
107
100
AcDbEntity
  8
mount
 62
   250
420
  2299925
370
    35
100
AcDbLine
 10
190.2370945472417
 20
-147.8056047981382
 30
0.0
 11
176.5420945472419
 21
-144.8937047981377
 31
0.0
  0
LINE
  5
126
330
107
100
AcDbEntity
  8
mount
 62
   250
420
  2299925
370
    35
100
AcDbLine
 10
176.5420945472419
 20
-144.8937047981377
 30
0.0
 11
173.6310945472417
 21
-158.5886047981384
 31
0.0
  0
LINE
  5
127
330
107
100
AcDbEntity
  8
mount
 62
   250
420
  2299925
370
    35
100
AcDbLine
 10
154.9970945472416
 20
-154.6279047981378
 30
0.0
 11
168.6910945472417
 21
-157.5384047981378
 31
0.0
  0
LINE
  5
128
330
107
100
AcDbEntity
  8
mount
 62
   250
420
  2299925
370
    35
100
AcDbLine
 10
168.6910945472417
 20
-157.5384047981378
 30
0.0
 11
171.603094547242
 21
-143.8435047981379
 31
0.0
  0
LINE
  5
129
330
107
100
AcDbEntity
  8
mount
 62
   250
420
  2299925
370
    35
100
AcDbLine
 10
171.603094547242
 20
-143.8435047981379
 30
0.0
 11
157.9090945472419
 21
-140.9345047981378
 31
0.0
  0
LINE
  5
12A
330
107
100
AcDbEntity
  8
mount
 62
   250
420
  2299925
370
    35
100
AcDbLine
 10
157.9090945472419
 20
-140.9345047981378
 30
0.0
 11
154.9970945472416
 21
-154.6279047981378
 31
0.0
  0
LINE
  5
12B
330
107
100
AcDbEntity
  8
mount
 62
   250
420
  2299925
370
    35
100
AcDbLine
 10
136.3635945472421
 20
-150.6662047981382
 30
0.0
 11
150.0570945472416
 21
-153.5781047981379
 31
0.0
  0
LINE
  5
12C
330
107
100
AcDbEntity
  8
mount
 62
   250
420
  2299925
370
    35
100
AcDbLine
 10
150.0570945472416
 20
-153.5781047981379
 30
0.0
 11
152.9690945472419
 21
-139.8847047981379
 31
0.0
  0
LINE
  5
12D
330
107
100
AcDbEntity
  8
mount
 62
   250
420
  2299925
370
    35
100
AcDbLine
 10
152.9690945472419
 20
-139.8847047981379
 30
0.0
 11
139.2740945472418
 21
-136.9728047981381
 31
0.0
  0
LINE
  5
12E
330
107
100
AcDbEntity
  8
mount
 62
   250
420
  2299925
370
    35
100
AcDbLine
 10
139.2740945472418
 20
-136.9728047981381
 30
0.0
 11
136.3635945472421
 21
-150.6662047981382
 31
0.0
  0
LINE
  5
12F
330
107
100
AcDbEntity
  8
mount
 62
   250
420
  2299925
370
    35
100
AcDbLine
 10
117.7309945472418
 20
-146.7056047981378
 30
0.0
 11
131.4246945472417
 21
-149.6174047981381
 31
0.0
  0
LINE
  5
130
330
107
100
AcDbEntity
  8
mount
 62
   250
420
  2299925
370
    35
100
AcDbLine
 10
131.4246945472417
 20
-149.6174047981381
 30
0.0
 11
134.3351945472417
 21
-135.9226047981379
 31
0.0
  0
LINE
  5
131
330
107
100
AcDbEntity
  8
mount
 62
   250
420
  2299925
370
    35
100
AcDbLine
 10
134.3351945472417
 20
-135.9226047981379
 30
0.0
 11
120.6402945472417
 21
-133.0122047981384
 31
0.0
  0
LINE
  5
132
330
107
100
AcDbEntity
  8
mount
 62
   250
420
  2299925
370
    35
100
AcDbLine
 10
120.6402945472417
 20
-133.0122047981384
 30
0.0
 11
117.7309945472418
 21
-146.7056047981378
 31
0.0
  0
LINE
  5
133
330
107
100
AcDbEntity
  8
mount
 62
   250
420
  2299925
370
    35
100
AcDbLine
 10
172.0010945472419
 20
-138.765604798138
 30
0.0
 11
185.6960945472417
 21
-141.6775047981381
 31
0.0
  0
LINE
  5
134
330
107
100
AcDbEntity
  8
mount
 62
   250
420
  2299925
370
    35
100
AcDbLine
 10
185.6960945472417
 20
-141.6775047981381
 30
0.0
 11
188.6060945472418
 21
-127.982304798138
 31
0.0
  0
LINE
  5
135
330
107
100
AcDbEntity
  8
mount
 62
   250
420
  2299925
370
    35
100
AcDbLine
 10
188.6060945472418
 20
-127.982304798138
 30
0.0
 11
174.9130945472418
 21
-125.0719047981385
 31
0.0
  0
LINE
  5
136
330
107
100
AcDbEntity
  8
mount
 62
   250
420
  2299925
370
    35
100
AcDbLine
 10
174.9130945472418
 20
-125.0719047981385
 30
0.0
 11
172.0010945472419
 21
-138.765604798138
 31
0.0
  0
LINE
  5
137
330
107
100
AcDbEntity
  8
mount
 62
   250
420
  2299925
370
    35
100
AcDbLine
 10
153.3680945472418
 20
-134.8064047981384
 30
0.0
 11
167.0620945472419
 21
-137.7154047981388
 31
0.0
  0
LINE
  5
138
330
107
100
AcDbEntity
  8
mount
 62
   250
420
  2299925
370
    35
100
AcDbLine
 10
167.0620945472419
 20
-137.7154047981388
 30
0.0
 11
169.9720945472421
 21
-124.0220047981378
 31
0.0
  0
LINE
  5
139
330
107
100
AcDbEntity
  8
mount
 62
   250
420
  2299925
370
    35
100
AcDbLine
 10
169.9720945472421
 20
-124.0220047981378
 30
0.0
 11
156.2790945472417
 21
-121.111604798138
 31
0.0
  0
LINE
  5
13A
330
107
100
AcDbEntity
  8
mount
 62
   250
420
  2299925
370
    35
100
AcDbLine
 10
156.2790945472417
 20
-121.111604798138
 30
0.0
 11
153.3680945472418
 21
-134.8064047981384
 31
0.0
  0
LINE
  5
13B
330
107
100
AcDbEntity
  8
mount
 62
   250
420
  2299925
370
    35
100
AcDbLine
 10
134.7347945472417
 20
-130.8447047981384
 30
0.0
 11
148.4280945472419
 21
-133.755104798138
 31
0.0
  0
LINE
  5
13C
330
107
100
AcDbEntity
  8
mount
 62
   250
420
  2299925
370
    35
100
AcDbLine
 10
148.4280945472419
 20
-133.755104798138
 30
0.0
 11
151.3400945472418
 21
-120.0614047981381
 31
0.0
  0
LINE
  5
13D
330
107
100
AcDbEntity
  8
mount
 62
   250
420
  2299925
370
    35
100
AcDbLine
 10
151.3400945472418
 20
-120.0614047981381
 30
0.0
 11
137.6450945472417
 21
-117.1509047981381
 31
0.0
  0
LINE
  5
13E
330
107
100
AcDbEntity
  8
mount
 62
   250
420
  2299925
370
    35
100
AcDbLine
 10
137.6450945472417
 20
-117.1509047981381
 30
0.0
 11
134.7347945472417
 21
-130.8447047981384
 31
0.0
  0
LINE
  5
13F
330
107
100
AcDbEntity
  8
mount
 62
   250
420
  2299925
370
    35
100
AcDbLine
 10
116.1007945472419
 20
-126.8841047981377
 30
0.0
 11
129.7944945472419
 21
-129.7945047981382
 31
0.0
  0
LINE
  5
140
330
107
100
AcDbEntity
  8
mount
 62
   250
420
  2299925
370
    35
100
AcDbLine
 10
129.7944945472419
 20
-129.7945047981382
 30
0.0
 11
132.7063945472419
 21
-116.1011047981382
 31
0.0
  0
LINE
  5
141
330
107
100
AcDbEntity
  8
mount
 62
   250
420
  2299925
370
    35
100
AcDbLine
 10
132.7063945472419
 20
-116.1011047981382
 30
0.0
 11
119.0111945472418
 21
-113.190704798138
 31
0.0
  0
LINE
  5
142
330
107
100
AcDbEntity
  8
mount
 62
   250
420
  2299925
370
    35
100
AcDbLine
 10
119.0111945472418
 20
-113.190704798138
 30
0.0
 11
116.1007945472419
 21
-126.8841047981377
 31
0.0
  0
LINE
  5
143
330
107
100
AcDbEntity
  8
mount
 62
   250
420
  2299925
370
    35
100
AcDbLine
 10
185.2800945472419
 20
-122.1135047981379
 30
0.0
 11
198.9730945472419
 21
-125.0239047981384
 31
0.0
  0
LINE
  5
144
330
107
100
AcDbEntity
  8
mount
 62
   250
420
  2299925
370
    35
100
AcDbLine
 10
198.9730945472419
 20
-125.0239047981384
 30
0.0
 11
201.8850945472425
 21
-111.330104798138
 31
0.0
  0
LINE
  5
145
330
107
100
AcDbEntity
  8
mount
 62
   250
420
  2299925
370
    35
100
AcDbLine
 10
201.8850945472425
 20
-111.330104798138
 30
0.0
 11
188.1900945472417
 21
-108.4183047981384
 31
0.0
  0
LINE
  5
146
330
107
100
AcDbEntity
  8
mount
 62
   250
420
  2299925
370
    35
100
AcDbLine
 10
188.1900945472417
 20
-108.4183047981384
 30
0.0
 11
185.2800945472419
 21
-122.1135047981379
 31
0.0
  0
LINE
  5
147
330
107
100
AcDbEntity
  8
mount
 62
   250
420
  2299925
370
    35
100
AcDbLine
 10
166.6460945472418
 20
-118.1514047981379
 30
0.0
 11
180.3390945472418
 21
-121.063304798138
 31
0.0
  0
LINE
  5
148
330
107
100
AcDbEntity
  8
mount
 62
   250
420
  2299925
370
    35
100
AcDbLine
 10
180.3390945472418
 20
-121.063304798138
 30
0.0
 11
183.2500945472417
 21
-107.3684047981384
 31
0.0
  0
LINE
  5
149
330
107
100
AcDbEntity
  8
mount
 62
   250
420
  2299925
370
    35
100
AcDbLine
 10
183.2500945472417
 20
-107.3684047981384
 30
0.0
 11
169.5560945472416
 21
-104.4580047981382
 31
0.0
  0
LINE
  5
14A
330
107
100
AcDbEntity
  8
mount
 62
   250
420
  2299925
370
    35
100
AcDbLine
 10
169.5560945472416
 20
-104.4580047981382
 30
0.0
 11
166.6460945472418
 21
-118.1514047981379
 31
0.0
  0
LINE
  5
14B
330
107
100
AcDbEntity
  8
mount
 62
   250
420
  2299925
370
    35
100
AcDbLine
 10
148.0120945472417
 20
-114.192204798138
 30
0.0
 11
161.7070945472419
 21
-117.1012047981377
 31
0.0
  0
LINE
  5
14C
330
107
100
AcDbEntity
  8
mount
 62
   250
420
  2299925
370
    35
100
AcDbLine
 10
161.7070945472419
 20
-117.1012047981377
 30
0.0
 11
164.6160945472419
 21
-103.408004798138
 31
0.0
  0
LINE
  5
14D
330
107
100
AcDbEntity
  8
mount
 62
   250
420
  2299925
370
    35
100
AcDbLine
 10
164.6160945472419
 20
-103.408004798138
 30
0.0
 11
150.9220945472419
 21
-100.4970047981382
 31
0.0
  0
LINE
  5
14E
330
107
100
AcDbEntity
  8
mount
 62
   250
420
  2299925
370
    35
100
AcDbLine
 10
150.9220945472419
 20
-100.4970047981382
 30
0.0
 11
148.0120945472417
 21
-114.192204798138
 31
0.0
  0
LINE
  5
14F
330
107
100
AcDbEntity
  8
mount
 62
   250
420
  2299925
370
    35
100
AcDbLine
 10
129.3782945472417
 20
-110.230504798138
 30
0.0
 11
143.0730945472418
 21
-113.142304798138
 31
0.0
  0
LINE
  5
150
330
107
100
AcDbEntity
  8
mount
 62
   250
420
  2299925
370
    35
100
AcDbLine
 10
143.0730945472418
 20
-113.142304798138
 30
0.0
 11
145.9830945472416
 21
-99.44700479813798
 31
0.0
  0
LINE
  5
151
330
107
100
AcDbEntity
  8
mount
 62
   250
420
  2299925
370
    35
100
AcDbLine
 10
145.9830945472416
 20
-99.44700479813798
 30
0.0
 11
132.290094547242
 21
-96.53700479813817
 31
0.0
  0
LINE
  5
152
330
107
100
AcDbEntity
  8
mount
 62
   250
420
  2299925
370
    35
100
AcDbLine
 10
132.290094547242
 20
-96.53700479813817
 30
0.0
 11
129.3782945472417
 21
-110.230504798138
 31
0.0
  0
ENDBLK
  5
10A
330
107
100
AcDbEntity
  8
0
100
AcDbBlockEnd
  0
BLOCK
  5
155
330
153
100
AcDbEntity
  8
0
100
AcDbBlockBegin
  2
Block_5
 70
     0
 10
0.0
 20
0.0
 30
0.0
  3
Block_5
  1

  0
LINE
  5
157
330
153
100
AcDbEntity
  8
mount
 62
   250
420
  2299925
370
    35
100
AcDbLine
 10
268.7149201562867
 20
-175.7588040893916
 30
0.0
 11
271.6249201562864
 21
-189.452404089392
 31
0.0
  0
LINE
  5
158
330
153
100
AcDbEntity
  8
mount
 62
   250
420
  2299925
370
    35
100
AcDbLine
 10
271.6249201562864
 20
-189.452404089392
 30
0.0
 11
285.3189201562862
 21
-186.5420040893915
 31
0.0
  0
LINE
  5
159
330
153
100
AcDbEntity
  8
mount
 62
   250
420
  2299925
370
    35
100
AcDbLine
 10
285.3189201562862
 20
-186.5420040893915
 30
0.0
 11
282.4099201562861
 21
-172.847004089392
 31
0.0
  0
LINE
  5
15A
330
153
100
AcDbEntity
  8
mount
 62
   250
420
  2299925
370
    35
100
AcDbLine
 10
282.4099201562861
 20
-172.847004089392
 30
0.0
 11
268.7149201562867
 21
-175.7588040893916
 31
0.0
  0
LINE
  5
15B
330
153
100
AcDbEntity
  8
mount
 62
   250
420
  2299925
370
    35
100
AcDbLine
 10
208.655920156286
 20
-168.0749040893916
 30
0.0
 11
211.5649201562861
 21
-181.7684040893918
 31
0.0
  0
LINE
  5
15C
330
153
100
AcDbEntity
  8
mount
 62
   250
420
  2299925
370
    35
100
AcDbLine
 10
211.5649201562861
 20
-181.7684040893918
 30
0.0
 11
225.2599201562865
 21
-178.858004089392
 31
0.0
  0
LINE
  5
15D
330
153
100
AcDbEntity
  8
mount
 62
   250
420
  2299925
370
    35
100
AcDbLine
 10
225.2599201562865
 20
-178.858004089392
 30
0.0
 11
222.3499201562864
 21
-165.1644040893916
 31
0.0
  0
LINE
  5
15E
330
153
100
AcDbEntity
  8
mount
 62
   250
420
  2299925
370
    35
100
AcDbLine
 10
222.3499201562864
 20
-165.1644040893916
 30
0.0
 11
208.655920156286
 21
-168.0749040893916
 31
0.0
  0
LINE
  5
15F
330
153
100
AcDbEntity
  8
mount
 62
   250
420
  2299925
370
    35
100
AcDbLine
 10
227.2889201562867
 20
-164.1142040893917
 30
0.0
 11
230.1989201562865
 21
-177.809304089392
 31
0.0
  0
LINE
  5
160
330
153
100
AcDbEntity
  8
mount
 62
   250
420
  2299925
370
    35
100
AcDbLine
 10
230.1989201562865
 20
-177.809304089392
 30
0.0
 11
243.8939201562866
 21
-174.8975040893918
 31
0.0
  0
LINE
  5
161
330
153
100
AcDbEntity
  8
mount
 62
   250
420
  2299925
370
    35
100
AcDbLine
 10
243.8939201562866
 20
-174.8975040893918
 30
0.0
 11
240.981920156286
 21
-161.2038040893919
 31
0.0
  0
LINE
  5
162
330
153
100
AcDbEntity
  8
mount
 62
   250
420
  2299925
370
    35
100
AcDbLine
 10
240.981920156286
 20
-161.2038040893919
 30
0.0
 11
227.2889201562867
 21
-164.1142040893917
 31
0.0
  0
LINE
  5
163
330
153
100
AcDbEntity
  8
mount
 62
   250
420
  2299925
370
    35
100
AcDbLine
 10
245.9219201562866
 20
-160.1539040893918
 30
0.0
 11
248.8329201562862
 21
-173.8475040893916
 31
0.0
  0
LINE
  5
164
330
153
100
AcDbEntity
  8
mount
 62
   250
420
  2299925
370
    35
100
AcDbLine
 10
248.8329201562862
 20
-173.8475040893916
 30
0.0
 11
262.5279201562864
 21
-170.9370040893916
 31
0.0
  0
LINE
  5
165
330
153
100
AcDbEntity
  8
mount
 62
   250
420
  2299925
370
    35
100
AcDbLine
 10
262.5279201562864
 20
-170.9370040893916
 30
0.0
 11
259.6159201562864
 21
-157.2421040893916
 31
0.0
  0
LINE
  5
166
330
153
100
AcDbEntity
  8
mount
 62
   250
420
  2299925
370
    35
100
AcDbLine
 10
259.6159201562864
 20
-157.2421040893916
 30
0.0
 11
245.9219201562866
 21
-160.1539040893918
 31
0.0
  0
LINE
  5
167
330
153
100
AcDbEntity
  8
mount
 62
   250
420
  2299925
370
    35
100
AcDbLine
 10
264.5559201562864
 20
-156.1919040893917
 30
0.0
 11
267.4669201562866
 21
-169.887004089392
 31
0.0
  0
LINE
  5
168
330
153
100
AcDbEntity
  8
mount
 62
   250
420
  2299925
370
    35
100
AcDbLine
 10
267.4669201562866
 20
-169.887004089392
 30
0.0
 11
281.1619201562861
 21
-166.9767040893917
 31
0.0
  0
LINE
  5
169
330
153
100
AcDbEntity
  8
mount
 62
   250
420
  2299925
370
    35
100
AcDbLine
 10
281.1619201562861
 20
-166.9767040893917
 30
0.0
 11
278.2499201562862
 21
-153.2829040893916
 31
0.0
  0
LINE
  5
16A
330
153
100
AcDbEntity
  8
mount
 62
   250
420
  2299925
370
    35
100
AcDbLine
 10
278.2499201562862
 20
-153.2829040893916
 30
0.0
 11
264.5559201562864
 21
-156.1919040893917
 31
0.0
  0
LINE
  5
16B
330
153
100
AcDbEntity
  8
mount
 62
   250
420
  2299925
370
    35
100
AcDbLine
 10
213.0799201562865
 20
-147.6592040893916
 30
0.0
 11
215.9899201562863
 21
-161.3527040893918
 31
0.0
  0
LINE
  5
16C
330
153
100
AcDbEntity
  8
mount
 62
   250
420
  2299925
370
    35
100
AcDbLine
 10
215.9899201562863
 20
-161.3527040893918
 30
0.0
 11
229.6849201562864
 21
-158.442304089392
 31
0.0
  0
LINE
  5
16D
330
153
100
AcDbEntity
  8
mount
 62
   250
420
  2299925
370
    35
100
AcDbLine
 10
229.6849201562864
 20
-158.442304089392
 30
0.0
 11
226.7729201562865
 21
-144.7488040893917
 31
0.0
  0
LINE
  5
16E
330
153
100
AcDbEntity
  8
mount
 62
   250
420
  2299925
370
    35
100
AcDbLine
 10
226.7729201562865
 20
-144.7488040893917
 30
0.0
 11
213.0799201562865
 21
-147.6592040893916
 31
0.0
  0
LINE
  5
16F
330
153
100
AcDbEntity
  8
mount
 62
   250
420
  2299925
370
    35
100
AcDbLine
 10
231.7139201562863
 20
-143.6986040893919
 30
0.0
 11
234.6239201562861
 21
-157.3924040893919
 31
0.0
  0
LINE
  5
170
330
153
100
AcDbEntity
  8
mount
 62
   250
420
  2299925
370
    35
100
AcDbLine
 10
234.6239201562861
 20
-157.3924040893919
 30
0.0
 11
248.3189201562862
 21
-154.4820040893915
 31
0.0
  0
LINE
  5
171
330
153
100
AcDbEntity
  8
mount
 62
   250
420
  2299925
370
    35
100
AcDbLine
 10
248.3189201562862
 20
-154.4820040893915
 30
0.0
 11
245.4069201562863
 21
-140.788204089392
 31
0.0
  0
LINE
  5
172
330
153
100
AcDbEntity
  8
mount
 62
   250
420
  2299925
370
    35
100
AcDbLine
 10
245.4069201562863
 20
-140.788204089392
 30
0.0
 11
231.7139201562863
 21
-143.6986040893919
 31
0.0
  0
LINE
  5
173
330
153
100
AcDbEntity
  8
mount
 62
   250
420
  2299925
370
    35
100
AcDbLine
 10
250.3459201562865
 20
-139.738304089392
 30
0.0
 11
253.2579201562864
 21
-153.4318040893916
 31
0.0
  0
LINE
  5
174
330
153
100
AcDbEntity
  8
mount
 62
   250
420
  2299925
370
    35
100
AcDbLine
 10
253.2579201562864
 20
-153.4318040893916
 30
0.0
 11
266.9509201562865
 21
-150.5199040893918
 31
0.0
  0
LINE
  5
175
330
153
100
AcDbEntity
  8
mount
 62
   250
420
  2299925
370
    35
100
AcDbLine
 10
266.9509201562865
 20
-150.5199040893918
 30
0.0
 11
264.0409201562866
 21
-136.8265040893917
 31
0.0
  0
LINE
  5
176
330
153
100
AcDbEntity
  8
mount
 62
   250
420
  2299925
370
    35
100
AcDbLine
 10
264.0409201562866
 20
-136.8265040893917
 30
0.0
 11
250.3459201562865
 21
-139.738304089392
 31
0.0
  0
LINE
  5
177
330
153
100
AcDbEntity
  8
mount
 62
   250
420
  2299925
370
    35
100
AcDbLine
 10
268.9809201562866
 20
-135.7763040893919
 30
0.0
 11
271.8909201562864
 21
-149.4701040893919
 31
0.0
  0
LINE
  5
178
330
153
100
AcDbEntity
  8
mount
 62
   250
420
  2299925
370
    35
100
AcDbLine
 10
271.8909201562864
 20
-149.4701040893919
 30
0.0
 11
285.5849201562862
 21
-146.5611040893918
 31
0.0
  0
LINE
  5
179
330
153
100
AcDbEntity
  8
mount
 62
   250
420
  2299925
370
    35
100
AcDbLine
 10
285.5849201562862
 20
-146.5611040893918
 30
0.0
 11
282.6749201562864
 21
-132.8645040893916
 31
0.0
  0
LINE
  5
17A
330
153
100
AcDbEntity
  8
mount
 62
   250
420
  2299925
370
    35
100
AcDbLine
 10
282.6749201562864
 20
-132.8645040893916
 30
0.0
 11
268.9809201562866
 21
-135.7763040893919
 31
0.0
  0
LINE
  5
17B
330
153
100
AcDbEntity
  8
mount
 62
   250
420
  2299925
370
    35
100
AcDbLine
 10
206.3229201562863
 20
-129.6193040893917
 30
0.0
 11
209.2349201562865
 21
-143.3141040893914
 31
0.0
  0
LINE
  5
17C
330
153
100
AcDbEntity
  8
mount
 62
   250
420
  2299925
370
    35
100
AcDbLine
 10
209.2349201562865
 20
-143.3141040893914
 30
0.0
 11
222.9279201562862
 21
-140.4026040893917
 31
0.0
  0
LINE
  5
17D
330
153
100
AcDbEntity
  8
mount
 62
   250
420
  2299925
370
    35
100
AcDbLine
 10
222.9279201562862
 20
-140.4026040893917
 30
0.0
 11
220.0179201562864
 21
-126.7088040893916
 31
0.0
  0
LINE
  5
17E
330
153
100
AcDbEntity
  8
mount
 62
   250
420
  2299925
370
    35
100
AcDbLine
 10
220.0179201562864
 20
-126.7088040893916
 30
0.0
 11
206.3229201562863
 21
-129.6193040893917
 31
0.0
  0
LINE
  5
17F
330
153
100
AcDbEntity
  8
mount
 62
   250
420
  2299925
370
    35
100
AcDbLine
 10
224.956920156286
 20
-125.6590040893918
 30
0.0
 11
227.8689201562866
 21
-139.3524040893918
 31
0.0
  0
LINE
  5
180
330
153
100
AcDbEntity
  8
mount
 62
   250
420
  2299925
370
    35
100
AcDbLine
 10
227.8689201562866
 20
-139.3524040893918
 30
0.0
 11
241.5619201562866
 21
-136.4420040893916
 31
0.0
  0
LINE
  5
181
330
153
100
AcDbEntity
  8
mount
 62
   250
420
  2299925
370
    35
100
AcDbLine
 10
241.5619201562866
 20
-136.4420040893916
 30
0.0
 11
238.6519201562862
 21
-122.7471040893914
 31
0.0
  0
LINE
  5
182
330
153
100
AcDbEntity
  8
mount
 62
   250
420
  2299925
370
    35
100
AcDbLine
 10
238.6519201562862
 20
-122.7471040893914
 30
0.0
 11
224.956920156286
 21
-125.6590040893918
 31
0.0
  0
LINE
  5
183
330
153
100
AcDbEntity
  8
mount
 62
   250
420
  2299925
370
    35
100
AcDbLine
 10
243.5919201562862
 20
-121.6969040893918
 30
0.0
 11
246.5009201562862
 21
-135.3918040893917
 31
0.0
  0
LINE
  5
184
330
153
100
AcDbEntity
  8
mount
 62
   250
420
  2299925
370
    35
100
AcDbLine
 10
246.5009201562862
 20
-135.3918040893917
 30
0.0
 11
260.1959201562864
 21
-132.4813040893918
 31
0.0
  0
LINE
  5
185
330
153
100
AcDbEntity
  8
mount
 62
   250
420
  2299925
370
    35
100
AcDbLine
 10
260.1959201562864
 20
-132.4813040893918
 30
0.0
 11
257.2859201562866
 21
-118.787904089392
 31
0.0
  0
LINE
  5
186
330
153
100
AcDbEntity
  8
mount
 62
   250
420
  2299925
370
    35
100
AcDbLine
 10
257.2859201562866
 20
-118.787904089392
 30
0.0
 11
243.5919201562862
 21
-121.6969040893918
 31
0.0
  0
LINE
  5
187
330
153
100
AcDbEntity
  8
mount
 62
   250
420
  2299925
370
    35
100
AcDbLine
 10
262.2249201562862
 20
-117.7377040893918
 30
0.0
 11
265.1349201562866
 21
-131.4315040893916
 31
0.0
  0
LINE
  5
188
330
153
100
AcDbEntity
  8
mount
 62
   250
420
  2299925
370
    35
100
AcDbLine
 10
265.1349201562866
 20
-131.4315040893916
 30
0.0
 11
278.8299201562861
 21
-128.5211040893917
 31
0.0
  0
LINE
  5
189
330
153
100
AcDbEntity
  8
mount
 62
   250
420
  2299925
370
    35
100
AcDbLine
 10
278.8299201562861
 20
-128.5211040893917
 30
0.0
 11
275.9179201562862
 21
-114.8262040893917
 31
0.0
  0
LINE
  5
18A
330
153
100
AcDbEntity
  8
mount
 62
   250
420
  2299925
370
    35
100
AcDbLine
 10
275.9179201562862
 20
-114.8262040893917
 30
0.0
 11
262.2249201562862
 21
-117.7377040893918
 31
0.0
  0
LINE
  5
18B
330
153
100
AcDbEntity
  8
mount
 62
   250
420
  2299925
370
    35
100
AcDbLine
 10
211.6799201562865
 20
-109.0054040893917
 30
0.0
 11
214.5899201562863
 21
-122.7002040893915
 31
0.0
  0
LINE
  5
18C
330
153
100
AcDbEntity
  8
mount
 62
   250
420
  2299925
370
    35
100
AcDbLine
 10
214.5899201562863
 20
-122.7002040893915
 30
0.0
 11
228.2849201562864
 21
-119.7884040893916
 31
0.0
  0
LINE
  5
18D
330
153
100
AcDbEntity
  8
mount
 62
   250
420
  2299925
370
    35
100
AcDbLine
 10
228.2849201562864
 20
-119.7884040893916
 30
0.0
 11
225.3729201562865
 21
-106.0950040893916
 31
0.0
  0
LINE
  5
18E
330
153
100
AcDbEntity
  8
mount
 62
   250
420
  2299925
370
    35
100
AcDbLine
 10
225.3729201562865
 20
-106.0950040893916
 30
0.0
 11
211.6799201562865
 21
-109.0054040893917
 31
0.0
  0
LINE
  5
18F
330
153
100
AcDbEntity
  8
mount
 62
   250
420
  2299925
370
    35
100
AcDbLine
 10
230.3129201562864
 20
-105.044804089392
 30
0.0
 11
233.2239201562867
 21
-118.7382040893917
 31
0.0
  0
LINE
  5
190
330
153
100
AcDbEntity
  8
mount
 62
   250
420
  2299925
370
    35
100
AcDbLine
 10
233.2239201562867
 20
-118.7382040893917
 30
0.0
 11
246.9189201562862
 21
-115.8278040893916
 31
0.0
  0
LINE
  5
191
330
153
100
AcDbEntity
  8
mount
 62
   250
420
  2299925
370
    35
100
AcDbLine
 10
246.9189201562862
 20
-115.8278040893916
 30
0.0
 11
244.0069201562862
 21
-102.1327040893916
 31
0.0
  0
LINE
  5
192
330
153
100
AcDbEntity
  8
mount
 62
   250
420
  2299925
370
    35
100
AcDbLine
 10
244.0069201562862
 20
-102.1327040893916
 30
0.0
 11
230.3129201562864
 21
-105.044804089392
 31
0.0
  0
LINE
  5
193
330
153
100
AcDbEntity
  8
mount
 62
   250
420
  2299925
370
    35
100
AcDbLine
 10
248.9469201562862
 20
-101.0837040893918
 30
0.0
 11
251.8589201562861
 21
-114.7779040893919
 31
0.0
  0
LINE
  5
194
330
153
100
AcDbEntity
  8
mount
 62
   250
420
  2299925
370
    35
100
AcDbLine
 10
251.8589201562861
 20
-114.7779040893919
 30
0.0
 11
265.5519201562861
 21
-111.867504089392
 31
0.0
  0
LINE
  5
195
330
153
100
AcDbEntity
  8
mount
 62
   250
420
  2299925
370
    35
100
AcDbLine
 10
265.5519201562861
 20
-111.867504089392
 30
0.0
 11
262.6419201562864
 21
-98.17370408939165
 31
0.0
  0
LINE
  5
196
330
153
100
AcDbEntity
  8
mount
 62
   250
420
  2299925
370
    35
100
AcDbLine
 10
262.6419201562864
 20
-98.17370408939165
 30
0.0
 11
248.9469201562862
 21
-101.0837040893918
 31
0.0
  0
LINE
  5
197
330
153
100
AcDbEntity
  8
mount
 62
   250
420
  2299925
370
    35
100
AcDbLine
 10
267.5809201562866
 20
-97.12370408939179
 30
0.0
 11
270.4909201562864
 21
-110.8173040893918
 31
0.0
  0
LINE
  5
198
330
153
100
AcDbEntity
  8
mount
 62
   250
420
  2299925
370
    35
100
AcDbLine
 10
270.4909201562864
 20
-110.8173040893918
 30
0.0
 11
284.1849201562861
 21
-107.9068040893918
 31
0.0
  0
LINE
  5
199
330
153
100
AcDbEntity
  8
mount
 62
   250
420
  2299925
370
    35
100
AcDbLine
 10
284.1849201562861
 20
-107.9068040893918
 30
0.0
 11
281.2759201562861
 21
-94.21170408939183
 31
0.0
  0
LINE
  5
19A
330
153
100
AcDbEntity
  8
mount
 62
   250
420
  2299925
370
    35
100
AcDbLine
 10
281.2759201562861
 20
-94.21170408939183
 30
0.0
 11
267.5809201562866
 21
-97.12370408939179
 31
0.0
  0
ENDBLK
  5
156
330
153
100
AcDbEntity
  8
0
100
AcDbBlockEnd
  0
ENDSEC
  0
SECTION
  2
ENTITIES
  0
SPLINE
  5
79
330
70
100
AcDbEntity
  8
mount
 62
   250
420
  2299925
370
    35
100
AcDbSpline
210
0.0
220
0.0
230
1.0
 70
     9
 71
     3
 72
    77
 73
    73
 74
     0
 42
0.0000000001
 43
0.0000000001
 40
0.0
 40
0.0
 40
0.0
 40
0.0
 40
1.0
 40
1.0
 40
1.0
 40
2.0
 40
2.0
 40
2.0
 40
3.0
 40
3.0
 40
3.0
 40
4.0
 40
4.0
 40
4.0
 40
5.0
 40
5.0
 40
5.0
 40
6.0
 40
6.0
 40
6.0
 40
7.0
 40
7.0
 40
7.0
 40
8.0
 40
8.0
 40
8.0
 40
9.0
 40
9.0
 40
9.0
 40
10.0
 40
10.0
 40
10.0
 40
11.0
 40
11.0
 40
11.0
 40
12.0
 40
12.0
 40
12.0
 40
13.0
 40
13.0
 40
13.0
 40
14.0
 40
14.0
 40
14.0
 40
15.0
 40
15.0
 40
15.0
 40
16.0
 40
16.0
 40
16.0
 40
17.0
 40
17.0
 40
17.0
 40
18.0
 40
18.0
 40
18.0
 40
19.0
 40
19.0
 40
19.0
 40
20.0
 40
20.0
 40
20.0
 40
21.0
 40
21.0
 40
21.0
 40
22.0
 40
22.0
 40
22.0
 40
23.0
 40
23.0
 40
23.0
 40
24.0
 40
24.0
 40
24.0
 40
24.0
 10
54.99991589336808
 20
-213.0936251637405
 30
0.0
 10
53.21432290336309
 20
-213.0936251637405
 30
0.0
 10
51.67229816416526
 20
-213.0936251637405
 30
0.0
 10
50.43361408244368
 20
-212.8479898556422
 30
0.0
 10
49.75665281959209
 20
-212.7136311317174
 30
0.0
 10
49.21628959273065
 20
-212.5134710840244
 30
0.0
 10
48.78220756158917
 20
-212.2371744261074
 30
0.0
 10
48.44252114674354
 20
-212.0208224296337
 30
0.0
 10
48.15537243804796
 20
-211.7459038099108
 30
0.0
 10
47.92834064557
 20
-211.4196532674576
 30
0.0
 10
47.68304984702021
 20
-211.0665309802195
 30
0.0
 10
47.49546439784835
 20
-210.6438177641793
 30
0.0
 10
47.35507675682442
 20
-210.1270534413919
 30
0.0
 10
46.99988741229517
 20
-208.8206732333851
 30
0.0
 10
46.99988741229517
 20
-207.0936468666294
 30
0.0
 10
46.99988741229517
 20
-205.0941134469904
 30
0.0
 10
46.99988741229517
 20
-205.0941134469904
 30
0.0
 10
46.99988741229517
 20
-85.13003198826611
 30
0.0
 10
46.99988741229517
 20
-85.13003198826611
 30
0.0
 10
46.99988741229517
 20
-83.3444389982611
 30
0.0
 10
46.99988741229517
 20
-81.80224200428902
 30
0.0
 10
47.24603948471627
 20
-80.56390243211597
 30
0.0
 10
47.38074271818954
 20
-79.88642440494159
 30
0.0
 10
47.58055825633403
 20
-79.34606117808015
 30
0.0
 10
47.85685491425106
 20
-78.91215140171293
 30
0.0
 10
48.07320691072476
 20
-78.5724649868673
 30
0.0
 10
48.34847003999621
 20
-78.28514402339746
 30
0.0
 10
48.67472058244938
 20
-78.0581122309195
 30
0.0
 10
49.02680934104191
 20
-77.81333819669249
 30
0.0
 10
49.44969481185633
 20
-77.62575274752065
 30
0.0
 10
49.96749266328937
 20
-77.48502059694819
 30
0.0
 10
51.27335610697333
 20
-77.12983125241894
 30
0.0
 10
53.00038247372907
 20
-77.12983125241894
 30
0.0
 10
54.99991589336808
 20
-77.12983125241894
 30
0.0
 10
54.99991589336808
 20
-77.12983125241894
 30
0.0
 10
394.9998344281598
 20
-77.12983125241894
 30
0.0
 10
394.9998344281598
 20
-77.12983125241894
 30
0.0
 10
396.7854274181648
 20
-77.12983125241894
 30
0.0
 10
398.3274521573626
 20
-77.12983125241894
 30
0.0
 10
399.5659639843099
 20
-77.37615557961429
 30
0.0
 10
400.243958775807
 20
-77.51085881308757
 30
0.0
 10
400.7841497478942
 20
-77.7105020964578
 30
0.0
 10
401.2178872694872
 20
-77.98679875437483
 30
0.0
 10
401.5575736843328
 20
-78.20297849607427
 30
0.0
 10
401.8448946478026
 20
-78.47806937057146
 30
0.0
 10
402.0719264402806
 20
-78.80466442257314
 30
0.0
 10
402.3168727292818
 20
-79.15744220026272
 30
0.0
 10
402.5042859236795
 20
-79.58015541630288
 30
0.0
 10
402.6448458194777
 20
-80.0967474843161
 30
0.0
 10
402.9996906544584
 20
-81.40347220187136
 30
0.0
 10
402.9996906544584
 20
-83.13032631385283
 30
0.0
 10
402.9996906544584
 20
-85.13003198826611
 30
0.0
 10
402.9996906544584
 20
-85.13003198826611
 30
0.0
 10
402.9996906544584
 20
-205.0941134469904
 30
0.0
 10
402.9996906544584
 20
-205.0941134469904
 30
0.0
 10
402.9996906544584
 20
-206.8797064369953
 30
0.0
 10
402.9996906544584
 20
-208.4220756857417
 30
0.0
 10
402.7540553463601
 20
-209.660587512689
 30
0.0
 10
402.6196966224353
 20
-210.3372042659921
 30
0.0
 10
402.4198810842908
 20
-210.8777397476278
 30
0.0
 10
402.1428954072767
 20
-211.3121662883178
 30
0.0
 10
401.9272324299
 20
-211.6511636840664
 30
0.0
 10
401.6523138101772
 20
-211.9384846475362
 30
0.0
 10
401.3250297390785
 20
-212.1658609495627
 30
0.0
 10
400.9725964709374
 20
-212.410807238564
 30
0.0
 10
400.5495387453487
 20
-212.5985649425101
 30
0.0
 10
400.0324299130126
 20
-212.7391248383083
 30
0.0
 10
398.7270832336516
 20
-213.0936251637405
 30
0.0
 10
396.9997123573473
 20
-213.0936251637405
 30
0.0
 10
394.9998344281598
 20
-213.0936251637405
 30
0.0
 10
394.9998344281598
 20
-213.0936251637405
 30
0.0
 10
54.99991589336808
 20
-213.0936251637405
 30
0.0
 10
54.99991589336808
 20
-213.0936251637405
 30
0.0
  0
INSERT
  5
7B
330
70
100
AcDbEntity
  8
mount
100
AcDbBlockReference
  2
Block_0
 10
0.0
 20
0.0
 30
0.0
  0
INSERT
  5
87
330
70
100
AcDbEntity
  8
mount
100
AcDbBlockReference
  2
Block_1
 10
0.0
 20
0.0
 30
0.0
  0
ENDSEC
  0
SECTION
  2
OBJECTS
  0
DICTIONARY
  5
C
330
0
100
AcDbDictionary
281
     1
  3
ACAD_COLOR
350
63
  3
ACAD_DETAILVIEWSTYLE
350
6A
  3
ACAD_GROUP
350
D
  3
ACAD_LAYOUT
350
62
  3
ACAD_MATERIAL
350
10
  3
ACAD_MLEADERSTYLE
350
66
  3
ACAD_MLINESTYLE
350
5F
  3
ACAD_PLOTSETTINGS
350
61
  3
ACAD_PLOTSTYLENAME
350
E
  3
ACAD_SCALELIST
350
42
  3
ACAD_SECTIONVIEWSTYLE
350
68
  3
ACAD_TABLESTYLE
350
64
  3
ACAD_VISUALSTYLE
350
29
  3
ACDB_RECOMPOSE_DATA
350
1A3
  3
AcDbVariableDictionary
350
19B
  0
DICTIONARY
  5
63
102
{ACAD_REACTORS
330
C
102
}
330
C
100
AcDbDictionary
281
     1
  0
DICTIONARY
  5
6A
102
{ACAD_REACTORS
330
C
102
}
330
C
100
AcDbDictionary
281
     1
  3
Imperial24
350
6B
  0
DICTIONARY
  5
D
102
{ACAD_REACTORS
330
C
102
}
330
C
100
AcDbDictionary
281
     1
  0
DICTIONARY
  5
62
102
{ACAD_REACTORS
330
C
102
}
330
C
100
AcDbDictionary
281
     1
  3
Layout1
350
6F
  3
Layout2
350
77
  3
Model
350
73
  0
DICTIONARY
  5
10
102
{ACAD_REACTORS
330
C
102
}
330
C
100
AcDbDictionary
281
     1
  3
ByBlock
350
19
  3
ByLayer
350
11
  3
Global
350
21
  0
DICTIONARY
  5
66
102
{ACAD_REACTORS
330
C
102
}
330
C
100
AcDbDictionary
281
     1
  3
Standard
350
67
  0
DICTIONARY
  5
5F
102
{ACAD_REACTORS
330
C
102
}
330
C
100
AcDbDictionary
281
     1
  3
Standard
350
60
  0
DICTIONARY
  5
61
102
{ACAD_REACTORS
330
C
102
}
330
C
100
AcDbDictionary
281
     1
  0
ACDBDICTIONARYWDFLT
  5
E
102
{ACAD_REACTORS
330
C
102
}
330
C
100
AcDbDictionary
281
     1
  3
Normal
350
F
100
AcDbDictionaryWithDefault
340
F
  0
DICTIONARY
  5
42
102
{ACAD_REACTORS
330
C
102
}
330
C
100
AcDbDictionary
281
     1
  3
A0
350
43
  3
A1
350
44
  3
A2
350
45
  3
A3
350
46
  3
A4
350
47
  3
A5
350
48
  3
A6
350
49
  3
A7
350
4A
  3
A8
350
4B
  3
A9
350
4C
  3
B0
350
4D
  3
B1
350
4E
  3
B2
350
4F
  3
B3
350
50
  3
B4
350
51
  3
B5
350
52
  3
B6
350
53
  0
DICTIONARY
  5
68
102
{ACAD_REACTORS
330
C
102
}
330
C
100
AcDbDictionary
281
     1
  3
Imperial24
350
69
  0
DICTIONARY
  5
64
102
{ACAD_REACTORS
330
C
102
}
330
C
100
AcDbDictionary
281
     1
  3
Standard
350
65
  0
DICTIONARY
  5
29
102
{ACAD_REACTORS
330
C
102
}
330
C
100
AcDbDictionary
281
     1
  3
2dWireframe
350
2F
  3
Basic
350
2E
  3
Brighten
350
35
  3
ColorChange
350
39
  3
Conceptual
350
32
  3
Dim
350
34
  3
EdgeColorOff
350
41
  3
Facepattern
350
38
  3
Flat
350
2A
  3
FlatWithEdges
350
2B
  3
Gouraud
350
2C
  3
GouraudWithEdges
350
2D
  3
Hidden
350
31
  3
JitterOff
350
3F
  3
Linepattern
350
37
  3
OverhangOff
350
40
  3
Realistic
350
33
  3
Shaded
350
3E
  3
Shaded with edges
350
3D
  3
Shades of Gray
350
3A
  3
Sketchy
350
3B
  3
Thicken
350
36
  3
Wireframe
350
30
  3
X-Ray
350
3C
  0
XRECORD
  5
1A3
102
{ACAD_REACTORS
330
C
102
}
330
C
100
AcDbXrecord
280
     1
 90
        1
330
65
  0
DICTIONARY
  5
19B
102
{ACAD_REACTORS
330
C
102
}
330
C
100
AcDbDictionary
281
     1
  3
CANNOSCALE
350
1A0
  3
CMLEADERSTYLE
350
19D
  3
CTABLESTYLE
350
19C
  3
CVIEWDETAILSTYLE
350
19E
  3
CVIEWSECTIONSTYLE
350
19F
  0
ACDBDETAILVIEWSTYLE
  5
6B
102
{ACAD_XDICTIONARY
360
1A6
102
}
102
{ACAD_REACTORS
330
6A
102
}
330
6A
100
AcDbModelDocViewStyle
 70
     0
  3
Imperial24
290
     0
100
AcDbDetailViewStyle
 70
     0
 71
     0
 90
        3
 71
     1
340
55
 62
   256
 40
0.24
340
0
 62
   256
 40
0.24
300

 40
0.36
280
     3
 71
     2
340
5D
 90
       25
 62
   256
 71
     3
340
55
 62
   256
 40
0.24
 90
        1
 40
0.75
 90
        1
300
%<\AcVar ViewType \f "%tc1">% %<\AcVar ViewDetailId>%\PSCALE %<\AcVar ViewScale \f "%sn">%
 71
     4
340
5D
 90
       25
 62
   256
340
5D
 90
       25
 62
   256
280
     0
  0
LAYOUT
  5
6F
102
{ACAD_REACTORS
330
62
102
}
330
62
100
AcDbPlotSettings
  1

  2

  4

  6

 40
0.0
 41
0.0
 42
0.0
 43
0.0
 44
0.0
 45
0.0
 46
0.0
 47
0.0
 48
0.0
 49
0.0
140
0.0
141
0.0
142
1.0
143
1.0
 70
   688
 72
     0
 73
     0
 74
     5
  7

 75
    16
147
1.0
 76
     0
 77
     2
 78
   300
148
0.0
149
0.0
100
AcDbLayout
  1
Layout1
 70
     1
 71
     1
 10
0.0
 20
0.0
 11
12.0
 21
9.0
 12
0.0
 22
0.0
 32
0.0
 14
0.0
 24
0.0
 34
0.0
 15
0.0
 25
0.0
 35
0.0
146
0.0
 13
0.0
 23
0.0
 33
0.0
 16
1.0
 26
0.0
 36
0.0
 17
0.0
 27
1.0
 37
0.0
 76
     0
330
6C
  0
LAYOUT
  5
77
102
{ACAD_REACTORS
330
62
102
}
330
62
100
AcDbPlotSettings
  1

  2

  4

  6

 40
0.0
 41
0.0
 42
0.0
 43
0.0
 44
0.0
 45
0.0
 46
0.0
 47
0.0
 48
0.0
 49
0.0
140
0.0
141
0.0
142
1.0
143
1.0
 70
   688
 72
     0
 73
     0
 74
     5
  7

 75
    16
147
1.0
 76
     0
 77
     2
 78
   300
148
0.0
149
0.0
100
AcDbLayout
  1
Layout2
 70
     1
 71
     2
 10
0.0
 20
0.0
 11
12.0
 21
9.0
 12
0.0
 22
0.0
 32
0.0
 14
0.0
 24
0.0
 34
0.0
 15
0.0
 25
0.0
 35
0.0
146
0.0
 13
0.0
 23
0.0
 33
0.0
 16
1.0
 26
0.0
 36
0.0
 17
0.0
 27
1.0
 37
0.0
 76
     0
330
74
  0
LAYOUT
  5
73
102
{ACAD_REACTORS
330
62
102
}
330
62
100
AcDbPlotSettings
  1

  2

  4

  6

 40
0.0
 41
0.0
 42
0.0
 43
0.0
 44
0.0
 45
0.0
 46
0.0
 47
0.0
 48
0.0
 49
0.0
140
0.0
141
0.0
142
1.0
143
1.0
 70
  1712
 72
     0
 73
     0
 74
     0
  7

 75
     0
147
1.0
 76
     0
 77
     2
 78
   300
148
0.0
149
0.0
100
AcDbLayout
  1
Model
 70
     1
 71
     0
 10
0.0
 20
0.0
 11
12.0
 21
9.0
 12
0.0
 22
0.0
 32
0.0
 14
0.0
 24
0.0
 34
0.0
 15
0.0
 25
0.0
 35
0.0
146
0.0
 13
0.0
 23
0.0
 33
0.0
 16
1.0
 26
0.0
 36
0.0
 17
0.0
 27
1.0
 37
0.0
 76
     0
330
70
  0
MATERIAL
  5
19
102
{ACAD_XDICTIONARY
360
1A
102
}
102
{ACAD_REACTORS
330
10
102
}
330
10
100
AcDbMaterial
  1
ByBlock
 72
     0
 43
0.0208333333333333
 43
0.0
 43
0.0
 43
0.0
 43
0.0
 43
0.0208333333333333
 43
0.0
 43
0.0
 43
0.0
 43
0.0
 43
1.0
 43
0.0
 43
0.0
 43
0.0
 43
0.0
 43
1.0
 77
     0
 47
0.0208333333333333
 47
0.0
 47
0.0
 47
0.0
 47
0.0
 47
0.0208333333333333
 47
0.0
 47
0.0
 47
0.0
 47
0.0
 47
1.0
 47
0.0
 47
0.0
 47
0.0
 47
0.0
 47
1.0
171
     0
 49
0.0208333333333333
 49
0.0
 49
0.0
 49
0.0
 49
0.0
 49
0.0208333333333333
 49
0.0
 49
0.0
 49
0.0
 49
0.0
 49
1.0
 49
0.0
 49
0.0
 49
0.0
 49
0.0
 49
1.0
175
     0
142
0.0208333333333333
142
0.0
142
0.0
142
0.0
142
0.0
142
0.0208333333333333
142
0.0
142
0.0
142
0.0
142
0.0
142
1.0
142
0.0
142
0.0
142
0.0
142
0.0
142
1.0
179
     0
144
0.0208333333333333
144
0.0
144
0.0
144
0.0
144
0.0
144
0.0208333333333333
144
0.0
144
0.0
144
0.0
144
0.0
144
1.0
144
0.0
144
0.0
144
0.0
144
0.0
144
1.0
147
0.0208333333333333
147
0.0
147
0.0
147
0.0
147
0.0
147
0.0208333333333333
147
0.0
147
0.0
147
0.0
147
0.0
147
1.0
147
0.0
147
0.0
147
0.0
147
0.0
147
1.0
  0
MATERIAL
  5
11
102
{ACAD_XDICTIONARY
360
12
102
}
102
{ACAD_REACTORS
330
10
102
}
330
10
100
AcDbMaterial
  1
ByLayer
 72
     0
 43
0.0208333333333333
 43
0.0
 43
0.0
 43
0.0
 43
0.0
 43
0.0208333333333333
 43
0.0
 43
0.0
 43
0.0
 43
0.0
 43
1.0
 43
0.0
 43
0.0
 43
0.0
 43
0.0
 43
1.0
 77
     0
 47
0.0208333333333333
 47
0.0
 47
0.0
 47
0.0
 47
0.0
 47
0.0208333333333333
 47
0.0
 47
0.0
 47
0.0
 47
0.0
 47
1.0
 47
0.0
 47
0.0
 47
0.0
 47
0.0
 47
1.0
171
     0
 49
0.0208333333333333
 49
0.0
 49
0.0
 49
0.0
 49
0.0
 49
0.0208333333333333
 49
0.0
 49
0.0
 49
0.0
 49
0.0
 49
1.0
 49
0.0
 49
0.0
 49
0.0
 49
0.0
 49
1.0
175
     0
142
0.0208333333333333
142
0.0
142
0.0
142
0.0
142
0.0
142
0.0208333333333333
142
0.0
142
0.0
142
0.0
142
0.0
142
1.0
142
0.0
142
0.0
142
0.0
142
0.0
142
1.0
179
     0
144
0.0208333333333333
144
0.0
144
0.0
144
0.0
144
0.0
144
0.0208333333333333
144
0.0
144
0.0
144
0.0
144
0.0
144
1.0
144
0.0
144
0.0
144
0.0
144
0.0
144
1.0
147
0.0208333333333333
147
0.0
147
0.0
147
0.0
147
0.0
147
0.0208333333333333
147
0.0
147
0.0
147
0.0
147
0.0
147
1.0
147
0.0
147
0.0
147
0.0
147
0.0
147
1.0
  0
MATERIAL
  5
21
102
{ACAD_XDICTIONARY
360
22
102
}
102
{ACAD_REACTORS
330
10
102
}
330
10
100
AcDbMaterial
  1
Global
 72
     0
 43
0.0208333333333333
 43
0.0
 43
0.0
 43
0.0
 43
0.0
 43
0.0208333333333333
 43
0.0
 43
0.0
 43
0.0
 43
0.0
 43
1.0
 43
0.0
 43
0.0
 43
0.0
 43
0.0
 43
1.0
 77
     0
 47
0.0208333333333333
 47
0.0
 47
0.0
 47
0.0
 47
0.0
 47
0.0208333333333333
 47
0.0
 47
0.0
 47
0.0
 47
0.0
 47
1.0
 47
0.0
 47
0.0
 47
0.0
 47
0.0
 47
1.0
171
     0
 49
0.0208333333333333
 49
0.0
 49
0.0
 49
0.0
 49
0.0
 49
0.0208333333333333
 49
0.0
 49
0.0
 49
0.0
 49
0.0
 49
1.0
 49
0.0
 49
0.0
 49
0.0
 49
0.0
 49
1.0
175
     0
142
0.0208333333333333
142
0.0
142
0.0
142
0.0
142
0.0
142
0.0208333333333333
142
0.0
142
0.0
142
0.0
142
0.0
142
1.0
142
0.0
142
0.0
142
0.0
142
0.0
142
1.0
179
     0
144
0.0208333333333333
144
0.0
144
0.0
144
0.0
144
0.0
144
0.0208333333333333
144
0.0
144
0.0
144
0.0
144
0.0
144
1.0
144
0.0
144
0.0
144
0.0
144
0.0
144
1.0
147
0.0208333333333333
147
0.0
147
0.0
147
0.0
147
0.0
147
0.0208333333333333
147
0.0
147
0.0
147
0.0
147
0.0
147
1.0
147
0.0
147
0.0
147
0.0
147
0.0
147
1.0
  0
MLEADERSTYLE
  5
67
102
{ACAD_REACTORS
330
66
102
}
330
66
100
AcDbMLeaderStyle
179
     2
170
     2
171
     1
172
     0
 90
        2
 40
0.0
 41
0.0
173
     1
 91
-1056964608
340
5B
 92
       -2
290
     1
 42
0.09
291
     1
 43
0.36
  3
Standard
 44
0.18
300

342
55
174
     1
178
     6
175
     1
176
     0
 93
-1056964608
 45
0.18
292
     0
297
     0
 46
0.18
 94
-1056964608
 47
1.0
 49
1.0
140
1.0
293
     1
141
0.0
294
     1
177
     0
142
1.0
295
     0
296
     0
143
0.125
271
     0
272
     9
273
     9
298
     1
  0
MLINESTYLE
  5
60
102
{ACAD_REACTORS
330
5F
102
}
330
5F
100
AcDbMlineStyle
  2
STANDARD
 70
     0
  3

 62
   256
 51
90.0
 52
90.0
 71
     2
 49
0.5
 62
   256
  6
BYLAYER
 49
-0.5
 62
   256
  6
BYLAYER
  0
ACDBPLACEHOLDER
  5
F
102
{ACAD_REACTORS
330
E
102
}
330
E
  0
SCALE
  5
43
102
{ACAD_REACTORS
330
42
102
}
330
42
100
AcDbScale
 70
     0
300
1:1
140
1.0
141
1.0
290
     1
  0
SCALE
  5
44
102
{ACAD_REACTORS
330
42
102
}
330
42
100
AcDbScale
 70
     0
300
1/128" = 1'-0"
140
0.0078125
141
12.0
290
     0
  0
SCALE
  5
45
102
{ACAD_REACTORS
330
42
102
}
330
42
100
AcDbScale
 70
     0
300
1/64" = 1'-0"
140
0.015625
141
12.0
290
     0
  0
SCALE
  5
46
102
{ACAD_REACTORS
330
42
102
}
330
42
100
AcDbScale
 70
     0
300
1/32" = 1'-0"
140
0.03125
141
12.0
290
     0
  0
SCALE
  5
47
102
{ACAD_REACTORS
330
42
102
}
330
42
100
AcDbScale
 70
     0
300
1/16" = 1'-0"
140
0.0625
141
12.0
290
     0
  0
SCALE
  5
48
102
{ACAD_REACTORS
330
42
102
}
330
42
100
AcDbScale
 70
     0
300
3/32" = 1'-0"
140
0.09375
141
12.0
290
     0
  0
SCALE
  5
49
102
{ACAD_REACTORS
330
42
102
}
330
42
100
AcDbScale
 70
     0
300
1/8" = 1'-0"
140
0.125
141
12.0
290
     0
  0
SCALE
  5
4A
102
{ACAD_REACTORS
330
42
102
}
330
42
100
AcDbScale
 70
     0
300
3/16" = 1'-0"
140
0.1875
141
12.0
290
     0
  0
SCALE
  5
4B
102
{ACAD_REACTORS
330
42
102
}
330
42
100
AcDbScale
 70
     0
300
1/4" = 1'-0"
140
0.25
141
12.0
290
     0
  0
SCALE
  5
4C
102
{ACAD_REACTORS
330
42
102
}
330
42
100
AcDbScale
 70
     0
300
3/8" = 1'-0"
140
0.375
141
12.0
290
     0
  0
SCALE
  5
4D
102
{ACAD_REACTORS
330
42
102
}
330
42
100
AcDbScale
 70
     0
300
1/2" = 1'-0"
140
0.5
141
12.0
290
     0
  0
SCALE
  5
4E
102
{ACAD_REACTORS
330
42
102
}
330
42
100
AcDbScale
 70
     0
300
3/4" = 1'-0"
140
0.75
141
12.0
290
     0
  0
SCALE
  5
4F
102
{ACAD_REACTORS
330
42
102
}
330
42
100
AcDbScale
 70
     0
300
1" = 1'-0"
140
1.0
141
12.0
290
     0
  0
SCALE
  5
50
102
{ACAD_REACTORS
330
42
102
}
330
42
100
AcDbScale
 70
     0
300
1-1/2" = 1'-0"
140
1.5
141
12.0
290
     0
  0
SCALE
  5
51
102
{ACAD_REACTORS
330
42
102
}
330
42
100
AcDbScale
 70
     0
300
3" = 1'-0"
140
3.0
141
12.0
290
     0
  0
SCALE
  5
52
102
{ACAD_REACTORS
330
42
102
}
330
42
100
AcDbScale
 70
     0
300
6" = 1'-0"
140
6.0
141
12.0
290
     0
  0
SCALE
  5
53
102
{ACAD_REACTORS
330
42
102
}
330
42
100
AcDbScale
 70
     0
300
1'-0" = 1'-0"
140
12.0
141
12.0
290
     0
  0
ACDBSECTIONVIEWSTYLE
  5
69
102
{ACAD_XDICTIONARY
360
1A4
102
}
102
{ACAD_REACTORS
330
68
102
}
330
68
100
AcDbModelDocViewStyle
 70
     0
  3
Imperial24
290
     0
100
AcDbSectionViewStyle
 70
     0
 71
     0
 90
       78
 71
     1
340
55
 62
   256
 40
0.24
340
0
340
0
 62
   256
 40
0.24
300
I, O, Q, S, X, Z
 40
0.48
 90
        3
 40
0.18
 90
        1
 71
     2
340
5D
 90
       25
 62
   256
340
5D
 90
       50
 62
   256
 40
0.24
 40
0.0
 40
0.24
 71
     3
340
55
 62
   256
 40
0.24
 90
        1
 40
0.75
 90
        1
300
%<\AcVar ViewType \f "%tc1">% %<\AcVar ViewSectionStartId>%-%<\AcVar ViewSectionEndId>%\PSCALE %<\AcVar ViewScale \f "%sn">%
 71
     4
 62
   256
 62
   257
300
ANSI31
 40
1.0
 90
        0
290
     0
290
     0
 90
        6
 40
0.0
 40
1.570796326794896
 40
0.2617993877991494
 40
1.308996938995747
 40
-0.2617993877991494
 40
1.832595714594046
  0
TABLESTYLE
  5
65
102
{ACAD_XDICTIONARY
360
1A1
102
}
102
{ACAD_REACTORS
330
64
102
}
330
64
100
AcDbTableStyle
280
     0
  3
Standard
 70
     0
 71
     0
 40
0.06
 41
0.06
280
     0
281
     0
  7
Standard
140
0.18
170
     2
 62
     0
 63
     7
283
     0
 90
      512
 91
        0
  1

274
    -2
284
     1
 64
     0
275
    -2
285
     1
 65
     0
276
    -2
286
     1
 66
     0
277
    -2
287
     1
 67
     0
278
    -2
288
     1
 68
     0
279
    -2
289
     1
 69
     0
  7
Standard
140
0.25
170
     5
 62
     0
 63
     7
283
     0
 90
      512
 91
        0
  1

274
    -2
284
     1
 64
     0
275
    -2
285
     1
 65
     0
276
    -2
286
     1
 66
     0
277
    -2
287
     1
 67
     0
278
    -2
288
     1
 68
     0
279
    -2
289
     1
 69
     0
  7
Standard
140
0.18
170
     5
 62
     0
 63
     7
283
     0
 90
      512
 91
        0
  1

274
    -2
284
     1
 64
     0
275
    -2
285
     1
 65
     0
276
    -2
286
     1
 66
     0
277
    -2
287
     1
 67
     0
278
    -2
288
     1
 68
     0
279
    -2
289
     1
 69
     0
  0
VISUALSTYLE
  5
2F
102
{ACAD_REACTORS
330
29
102
}
330
29
100
AcDbVisualStyle
  2
2dWireframe
 70
     4
177
     3
291
     0
 70
    58
 90
        0
176
     1
 90
        2
176
     1
 90
        0
176
     1
 90
        0
176
     1
 40
0.6
176
     1
 40
30.0
176
     1
 62
     7
420
 16777215
176
     1
 90
        1
176
     1
 90
        4
176
     1
 62
     7
176
     1
 62
   257
176
     1
 90
        1
176
     1
 90
        1
176
     1
 40
1.0
176
     1
 90
        0
176
     1
 62
   257
176
     1
 40
1.0
176
     1
 90
        1
176
     1
 90
        6
176
     1
 90
        2
176
     1
 62
     7
176
     1
 90
        5
176
     1
 90
        0
176
     1
 90
        0
176
     1
290
     0
176
     1
 90
        1
176
     1
 40
0.0
176
     1
 90
        0
176
     1
290
     1
176
     1
290
     1
176
     1
290
     0
176
     1
290
     0
176
     1
290
     0
176
     1
290
     0
176
     1
290
     0
176
     1
290
     0
176
     1
290
     0
176
     1
 90
       50
176
     1
 40
0.0
176
     1
 40
1.0
176
     1
 90
        0
176
     1
 62
    18
420
        0
176
     1
 90
       50
176
     1
 90
        3
176
     1
 62
     5
420
      255
176
     1
290
     0
176
     1
 90
       50
176
     1
 90
       50
176
     1
 90
       50
176
     1
290
     0
176
     1
 90
       50
176
     1
 62
   256
176
     0
 40
1.0
176
     0
 90
        2
176
     1
  1
strokes_ogs.tif
176
     1
290
     0
176
     1
 40
1.0
176
     1
 40
1.0
176
     1
1001
ACAD
1000
AcDbSavedByObjectVersion
1070
     0
  0
VISUALSTYLE
  5
2E
102
{ACAD_REACTORS
330
29
102
}
330
29
100
AcDbVisualStyle
  2
Basic
 70
     7
177
     3
291
     1
 70
    58
 90
        1
176
     1
 90
        0
176
     1
 90
        1
176
     1
 90
        0
176
     1
 40
0.6
176
     1
 40
30.0
176
     1
 62
     7
420
 16777215
176
     1
 90
        0
176
     1
 90
        4
176
     1
 62
     7
176
     1
 62
   257
176
     1
 90
        1
176
     1
 90
        1
176
     1
 40
1.0
176
     1
 90
        8
176
     1
 62
     7
176
     1
 40
1.0
176
     1
 90
        1
176
     1
 90
        6
176
     1
 90
        2
176
     1
 62
     7
176
     1
 90
        5
176
     1
 90
        0
176
     1
 90
        0
176
     1
290
     0
176
     1
 90
        1
176
     1
 40
0.0
176
     1
 90
        0
176
     1
290
     0
176
     1
290
     1
176
     1
290
     1
176
     1
290
     0
176
     1
290
     0
176
     1
290
     0
176
     1
290
     0
176
     1
290
     0
176
     1
290
     0
176
     1
 90
       50
176
     1
 40
0.0
176
     1
 40
1.0
176
     1
 90
        0
176
     1
 62
    18
420
        0
176
     1
 90
       50
176
     1
 90
        3
176
     1
 62
     5
420
      255
176
     1
290
     0
176
     1
 90
       50
176
     1
 90
       50
176
     1
 90
       50
176
     1
290
     0
176
     1
 90
       50
176
     1
 62
   256
176
     0
 40
1.0
176
     0
 90
        2
176
     1
  1
strokes_ogs.tif
176
     1
290
     0
176
     1
 40
1.0
176
     1
 40
1.0
176
     1
1001
ACAD
1000
AcDbSavedByObjectVersion
1070
     0
  0
VISUALSTYLE
  5
35
102
{ACAD_REACTORS
330
29
102
}
330
29
100
AcDbVisualStyle
  2
Brighten
 70
    12
177
     3
291
     1
 70
    58
 90
        2
176
     1
 90
        2
176
     1
 90
        0
176
     1
 90
        0
176
     1
 40
0.6
176
     1
 40
30.0
176
     1
 62
     7
420
 16777215
176
     1
 90
        1
176
     1
 90
        4
176
     1
 62
     7
176
     1
 62
   257
176
     1
 90
        1
176
     1
 90
        1
176
     1
 40
1.0
176
     1
 90
        8
176
     1
 62
     7
176
     1
 40
1.0
176
     1
 90
        1
176
     1
 90
        6
176
     1
 90
        2
176
     1
 62
     7
176
     1
 90
        5
176
     1
 90
        0
176
     1
 90
        0
176
     1
290
     0
176
     1
 90
        1
176
     1
 40
50.0
176
     1
 90
        0
176
     1
290
     0
176
     1
290
     1
176
     1
290
     1
176
     1
290
     0
176
     1
290
     0
176
     1
290
     0
176
     1
290
     0
176
     1
290
     0
176
     1
290
     0
176
     1
 90
       50
176
     1
 40
0.0
176
     1
 40
1.0
176
     1
 90
        0
176
     1
 62
    18
420
        0
176
     1
 90
       50
176
     1
 90
        3
176
     1
 62
     5
420
      255
176
     1
290
     0
176
     1
 90
       50
176
     1
 90
       50
176
     1
 90
       50
176
     1
290
     0
176
     1
 90
       50
176
     1
 62
   256
176
     0
 40
1.0
176
     0
 90
        2
176
     1
  1
strokes_ogs.tif
176
     1
290
     0
176
     1
 40
1.0
176
     1
 40
1.0
176
     1
1001
ACAD
1000
AcDbSavedByObjectVersion
1070
     0
  0
VISUALSTYLE
  5
39
102
{ACAD_REACTORS
330
29
102
}
330
29
100
AcDbVisualStyle
  2
ColorChange
 70
    16
177
     3
291
     1
 70
    58
 90
        2
176
     1
 90
        2
176
     1
 90
        3
176
     1
 90
        0
176
     1
 40
0.6
176
     1
 40
30.0
176
     1
 62
     8
420
  8421504
176
     1
 90
        1
176
     1
 90
        4
176
     1
 62
     7
176
     1
 62
   257
176
     1
 90
        1
176
     1
 90
        1
176
     1
 40
1.0
176
     1
 90
        8
176
     1
 62
     8
420
  8421504
176
     1
 40
1.0
176
     1
 90
        1
176
     1
 90
        6
176
     1
 90
        2
176
     1
 62
     7
176
     1
 90
        5
176
     1
 90
        0
176
     1
 90
        0
176
     1
290
     0
176
     1
 90
        1
176
     1
 40
0.0
176
     1
 90
        0
176
     1
290
     0
176
     1
290
     1
176
     1
290
     1
176
     1
290
     0
176
     1
290
     0
176
     1
290
     0
176
     1
290
     0
176
     1
290
     0
176
     1
290
     0
176
     1
 90
       50
176
     1
 40
0.0
176
     1
 40
1.0
176
     1
 90
        0
176
     1
 62
    18
420
        0
176
     1
 90
       50
176
     1
 90
        3
176
     1
 62
     5
420
      255
176
     1
290
     0
176
     1
 90
       50
176
     1
 90
       50
176
     1
 90
       50
176
     1
290
     0
176
     1
 90
       50
176
     1
 62
   256
176
     0
 40
1.0
176
     0
 90
        2
176
     1
  1
strokes_ogs.tif
176
     1
290
     0
176
     1
 40
1.0
176
     1
 40
1.0
176
     1
1001
ACAD
1000
AcDbSavedByObjectVersion
1070
     0
  0
VISUALSTYLE
  5
32
102
{ACAD_REACTORS
330
29
102
}
330
29
100
AcDbVisualStyle
  2
Conceptual
 70
     9
177
     3
291
     0
 70
    58
 90
        3
176
     1
 90
        2
176
     1
 90
        0
176
     1
 90
        0
176
     1
 40
0.6
176
     1
 40
30.0
176
     1
 62
     7
420
 16777215
176
     1
 90
        2
176
     1
 90
        2
176
     1
 62
     7
176
     1
 62
   257
176
     1
 90
        1
176
     1
 90
        1
176
     1
 40
179.0
176
     1
 90
        8
176
     1
 62
     7
176
     1
 40
1.0
176
     1
 90
        1
176
     1
 90
        6
176
     1
 90
        2
176
     1
 62
     7
176
     1
 90
        3
176
     1
 90
        0
176
     1
 90
        0
176
     1
290
     0
176
     1
 90
        1
176
     1
 40
0.0
176
     1
 90
        0
176
     1
290
     0
176
     1
290
     1
176
     1
290
     1
176
     1
290
     0
176
     1
290
     0
176
     1
290
     0
176
     1
290
     0
176
     1
290
     0
176
     1
290
     0
176
     1
 90
       50
176
     1
 40
0.0
176
     1
 40
1.0
176
     1
 90
        0
176
     1
 62
    18
420
        0
176
     1
 90
       50
176
     1
 90
        3
176
     1
 62
     5
420
      255
176
     1
290
     0
176
     1
 90
       50
176
     1
 90
       50
176
     1
 90
       50
176
     1
290
     0
176
     1
 90
       50
176
     1
 62
   256
176
     0
 40
1.0
176
     0
 90
        2
176
     1
  1
strokes_ogs.tif
176
     1
290
     0
176
     1
 40
1.0
176
     1
 40
1.0
176
     1
1001
ACAD
1000
AcDbSavedByObjectVersion
1070
     0
  0
VISUALSTYLE
  5
34
102
{ACAD_REACTORS
330
29
102
}
330
29
100
AcDbVisualStyle
  2
Dim
 70
    11
177
     3
291
     1
 70
    58
 90
        2
176
     1
 90
        2
176
     1
 90
        0
176
     1
 90
        0
176
     1
 40
0.6
176
     1
 40
30.0
176
     1
 62
     7
420
 16777215
176
     1
 90
        1
176
     1
 90
        4
176
     1
 62
     7
176
     1
 62
   257
176
     1
 90
        1
176
     1
 90
        1
176
     1
 40
1.0
176
     1
 90
        8
176
     1
 62
     7
176
     1
 40
1.0
176
     1
 90
        1
176
     1
 90
        6
176
     1
 90
        2
176
     1
 62
     7
176
     1
 90
        5
176
     1
 90
        0
176
     1
 90
        0
176
     1
290
     0
176
     1
 90
        1
176
     1
 40
-50.0
176
     1
 90
        0
176
     1
290
     0
176
     1
290
     1
176
     1
290
     1
176
     1
290
     0
176
     1
290
     0
176
     1
290
     0
176
     1
290
     0
176
     1
290
     0
176
     1
290
     0
176
     1
 90
       50
176
     1
 40
0.0
176
     1
 40
1.0
176
     1
 90
        0
176
     1
 62
    18
420
        0
176
     1
 90
       50
176
     1
 90
        3
176
     1
 62
     5
420
      255
176
     1
290
     0
176
     1
 90
       50
176
     1
 90
       50
176
     1
 90
       50
176
     1
290
     0
176
     1
 90
       50
176
     1
 62
   256
176
     0
 40
1.0
176
     0
 90
        2
176
     1
  1
strokes_ogs.tif
176
     1
290
     0
176
     1
 40
1.0
176
     1
 40
1.0
176
     1
1001
ACAD
1000
AcDbSavedByObjectVersion
1070
     0
  0
VISUALSTYLE
  5
41
102
{ACAD_REACTORS
330
29
102
}
330
29
100
AcDbVisualStyle
  2
EdgeColorOff
 70
    22
177
     3
291
     1
 70
    58
 90
        2
176
     0
 90
        2
176
     0
 90
        0
176
     0
 90
        0
176
     0
 40
0.6
176
     0
 40
30.0
176
     0
 62
     7
420
 16777215
176
     0
 90
        1
176
     0
 90
        4
176
     0
 62
     7
176
     0
 62
   257
176
     0
 90
        1
176
     0
 90
        1
176
     0
 40
1.0
176
     0
 90
        8
176
     2
 62
     7
176
     0
 40
1.0
176
     0
 90
        1
176
     0
 90
        6
176
     0
 90
        2
176
     0
 62
     7
176
     0
 90
        5
176
     0
 90
        0
176
     0
 90
        0
176
     0
290
     0
176
     0
 90
        1
176
     0
 40
0.0
176
     0
 90
        0
176
     0
290
     0
176
     0
290
     1
176
     0
290
     1
176
     0
290
     0
176
     0
290
     0
176
     0
290
     0
176
     0
290
     0
176
     0
290
     0
176
     0
290
     0
176
     0
 90
       50
176
     0
 40
0.0
176
     0
 40
1.0
176
     0
 90
        0
176
     0
 62
    18
420
        0
176
     0
 90
       50
176
     0
 90
        3
176
     0
 62
     5
420
      255
176
     0
290
     0
176
     0
 90
       50
176
     0
 90
       50
176
     0
 90
       50
176
     0
290
     0
176
     0
 90
       50
176
     0
 62
   256
176
     0
 40
1.0
176
     0
 90
        2
176
     0
  1
strokes_ogs.tif
176
     0
290
     0
176
     0
 40
1.0
176
     0
 40
1.0
176
     0
1001
ACAD
1000
AcDbSavedByObjectVersion
1070
     0
  0
VISUALSTYLE
  5
38
102
{ACAD_REACTORS
330
29
102
}
330
29
100
AcDbVisualStyle
  2
Facepattern
 70
    15
177
     3
291
     1
 70
    58
 90
        2
176
     1
 90
        2
176
     1
 90
        0
176
     1
 90
        0
176
     1
 40
0.6
176
     1
 40
30.0
176
     1
 62
     7
420
 16777215
176
     1
 90
        1
176
     1
 90
        4
176
     1
 62
     7
176
     1
 62
   257
176
     1
 90
        1
176
     1
 90
        1
176
     1
 40
1.0
176
     1
 90
        8
176
     1
 62
     7
176
     1
 40
1.0
176
     1
 90
        1
176
     1
 90
        6
176
     1
 90
        2
176
     1
 62
     7
176
     1
 90
        5
176
     1
 90
        0
176
     1
 90
        0
176
     1
290
     0
176
     1
 90
        1
176
     1
 40
0.0
176
     1
 90
        0
176
     1
290
     0
176
     1
290
     1
176
     1
290
     1
176
     1
290
     0
176
     1
290
     0
176
     1
290
     0
176
     1
290
     0
176
     1
290
     0
176
     1
290
     0
176
     1
 90
       50
176
     1
 40
0.0
176
     1
 40
1.0
176
     1
 90
        0
176
     1
 62
    18
420
        0
176
     1
 90
       50
176
     1
 90
        3
176
     1
 62
     5
420
      255
176
     1
290
     0
176
     1
 90
       50
176
     1
 90
       50
176
     1
 90
       50
176
     1
290
     0
176
     1
 90
       50
176
     1
 62
   256
176
     0
 40
1.0
176
     0
 90
        2
176
     1
  1
strokes_ogs.tif
176
     1
290
     0
176
     1
 40
1.0
176
     1
 40
1.0
176
     1
1001
ACAD
1000
AcDbSavedByObjectVersion
1070
     0
  0
VISUALSTYLE
  5
2A
102
{ACAD_REACTORS
330
29
102
}
330
29
100
AcDbVisualStyle
  2
Flat
 70
     0
177
     3
291
     1
 70
    58
 90
        2
176
     1
 90
        1
176
     1
 90
        1
176
     1
 90
        2
176
     1
 40
0.6
176
     1
 40
30.0
176
     1
 62
     7
420
 16777215
176
     1
 90
        0
176
     1
 90
        0
176
     1
 62
     7
176
     1
 62
   257
176
     1
 90
        1
176
     1
 90
        1
176
     1
 40
1.0
176
     1
 90
        8
176
     1
 62
     7
176
     1
 40
1.0
176
     1
 90
        1
176
     1
 90
        6
176
     1
 90
        2
176
     1
 62
     7
176
     1
 90
        5
176
     1
 90
        0
176
     1
 90
        0
176
     1
290
     0
176
     1
 90
       13
176
     1
 40
0.0
176
     1
 90
        0
176
     1
290
     0
176
     1
290
     1
176
     1
290
     1
176
     1
290
     0
176
     1
290
     0
176
     1
290
     0
176
     1
290
     0
176
     1
290
     0
176
     1
290
     0
176
     1
 90
       50
176
     1
 40
0.0
176
     1
 40
1.0
176
     1
 90
        0
176
     1
 62
    18
420
        0
176
     1
 90
       50
176
     1
 90
        3
176
     1
 62
     5
420
      255
176
     1
290
     0
176
     1
 90
       50
176
     1
 90
       50
176
     1
 90
       50
176
     1
290
     0
176
     1
 90
       50
176
     1
 62
   256
176
     0
 40
1.0
176
     0
 90
        2
176
     1
  1
strokes_ogs.tif
176
     1
290
     0
176
     1
 40
1.0
176
     1
 40
1.0
176
     1
1001
ACAD
1000
AcDbSavedByObjectVersion
1070
     0
  0
VISUALSTYLE
  5
2B
102
{ACAD_REACTORS
330
29
102
}
330
29
100
AcDbVisualStyle
  2
FlatWithEdges
 70
     1
177
     3
291
     1
 70
    58
 90
        2
176
     1
 90
        1
176
     1
 90
        1
176
     1
 90
        2
176
     1
 40
0.6
176
     1
 40
30.0
176
     1
 62
     7
420
 16777215
176
     1
 90
        1
176
     1
 90
        0
176
     1
 62
     7
176
     1
 62
   257
176
     1
 90
        1
176
     1
 90
        1
176
     1
 40
1.0
176
     1
 90
        0
176
     1
 62
   257
176
     1
 40
1.0
176
     1
 90
        1
176
     1
 90
        6
176
     1
 90
        2
176
     1
 62
     7
176
     1
 90
        5
176
     1
 90
        0
176
     1
 90
        0
176
     1
290
     0
176
     1
 90
       13
176
     1
 40
0.0
176
     1
 90
        0
176
     1
290
     0
176
     1
290
     1
176
     1
290
     1
176
     1
290
     0
176
     1
290
     0
176
     1
290
     0
176
     1
290
     0
176
     1
290
     0
176
     1
290
     0
176
     1
 90
       50
176
     1
 40
0.0
176
     1
 40
1.0
176
     1
 90
        0
176
     1
 62
    18
420
        0
176
     1
 90
       50
176
     1
 90
        3
176
     1
 62
     5
420
      255
176
     1
290
     0
176
     1
 90
       50
176
     1
 90
       50
176
     1
 90
       50
176
     1
290
     0
176
     1
 90
       50
176
     1
 62
   256
176
     0
 40
1.0
176
     0
 90
        2
176
     1
  1
strokes_ogs.tif
176
     1
290
     0
176
     1
 40
1.0
176
     1
 40
1.0
176
     1
1001
ACAD
1000
AcDbSavedByObjectVersion
1070
     0
  0
VISUALSTYLE
  5
2C
102
{ACAD_REACTORS
330
29
102
}
330
29
100
AcDbVisualStyle
  2
Gouraud
 70
     2
177
     3
291
     1
 70
    58
 90
        2
176
     1
 90
        2
176
     1
 90
        1
176
     1
 90
        2
176
     1
 40
0.6
176
     1
 40
30.0
176
     1
 62
     7
420
 16777215
176
     1
 90
        0
176
     1
 90
        0
176
     1
 62
     7
176
     1
 62
   257
176
     1
 90
        1
176
     1
 90
        1
176
     1
 40
1.0
176
     1
 90
        0
176
     1
 62
     7
176
     1
 40
1.0
176
     1
 90
        1
176
     1
 90
        6
176
     1
 90
        2
176
     1
 62
     7
176
     1
 90
        5
176
     1
 90
        0
176
     1
 90
        0
176
     1
290
     0
176
     1
 90
       13
176
     1
 40
0.0
176
     1
 90
        0
176
     1
290
     0
176
     1
290
     1
176
     1
290
     1
176
     1
290
     0
176
     1
290
     0
176
     1
290
     0
176
     1
290
     0
176
     1
290
     0
176
     1
290
     0
176
     1
 90
       50
176
     1
 40
0.0
176
     1
 40
1.0
176
     1
 90
        0
176
     1
 62
    18
420
        0
176
     1
 90
       50
176
     1
 90
        3
176
     1
 62
     5
420
      255
176
     1
290
     0
176
     1
 90
       50
176
     1
 90
       50
176
     1
 90
       50
176
     1
290
     0
176
     1
 90
       50
176
     1
 62
   256
176
     0
 40
1.0
176
     0
 90
        2
176
     1
  1
strokes_ogs.tif
176
     1
290
     0
176
     1
 40
1.0
176
     1
 40
1.0
176
     1
1001
ACAD
1000
AcDbSavedByObjectVersion
1070
     0
  0
VISUALSTYLE
  5
2D
102
{ACAD_REACTORS
330
29
102
}
330
29
100
AcDbVisualStyle
  2
GouraudWithEdges
 70
     3
177
     3
291
     1
 70
    58
 90
        2
176
     1
 90
        2
176
     1
 90
        1
176
     1
 90
        2
176
     1
 40
0.6
176
     1
 40
30.0
176
     1
 62
     7
420
 16777215
176
     1
 90
        1
176
     1
 90
        0
176
     1
 62
     7
176
     1
 62
   257
176
     1
 90
        1
176
     1
 90
        1
176
     1
 40
1.0
176
     1
 90
        0
176
     1
 62
   257
176
     1
 40
1.0
176
     1
 90
        1
176
     1
 90
        6
176
     1
 90
        2
176
     1
 62
     7
176
     1
 90
        5
176
     1
 90
        0
176
     1
 90
        0
176
     1
290
     0
176
     1
 90
       13
176
     1
 40
0.0
176
     1
 90
        0
176
     1
290
     0
176
     1
290
     1
176
     1
290
     1
176
     1
290
     0
176
     1
290
     0
176
     1
290
     0
176
     1
290
     0
176
     1
290
     0
176
     1
290
     0
176
     1
 90
       50
176
     1
 40
0.0
176
     1
 40
1.0
176
     1
 90
        0
176
     1
 62
    18
420
        0
176
     1
 90
       50
176
     1
 90
        3
176
     1
 62
     5
420
      255
176
     1
290
     0
176
     1
 90
       50
176
     1
 90
       50
176
     1
 90
       50
176
     1
290
     0
176
     1
 90
       50
176
     1
 62
   256
176
     0
 40
1.0
176
     0
 90
        2
176
     1
  1
strokes_ogs.tif
176
     1
290
     0
176
     1
 40
1.0
176
     1
 40
1.0
176
     1
1001
ACAD
1000
AcDbSavedByObjectVersion
1070
     0
  0
VISUALSTYLE
  5
31
102
{ACAD_REACTORS
330
29
102
}
330
29
100
AcDbVisualStyle
  2
Hidden
 70
     6
177
     3
291
     0
 70
    58
 90
        1
176
     1
 90
        2
176
     1
 90
        2
176
     1
 90
        0
176
     1
 40
0.6
176
     1
 40
30.0
176
     1
 62
     7
420
 16777215
176
     1
 90
        2
176
     1
 90
        2
176
     1
 62
     7
176
     1
 62
   257
176
     1
 90
        2
176
     1
 90
        1
176
     1
 40
40.0
176
     1
 90
        0
176
     1
 62
   257
176
     1
 40
1.0
176
     1
 90
        1
176
     1
 90
        6
176
     1
 90
        2
176
     1
 62
     7
176
     1
 90
        3
176
     1
 90
        0
176
     1
 90
        0
176
     1
290
     0
176
     1
 90
        1
176
     1
 40
0.0
176
     1
 90
        0
176
     1
290
     0
176
     1
290
     1
176
     1
290
     1
176
     1
290
     0
176
     1
290
     0
176
     1
290
     0
176
     1
290
     0
176
     1
290
     0
176
     1
290
     0
176
     1
 90
       50
176
     1
 40
0.0
176
     1
 40
1.0
176
     1
 90
        0
176
     1
 62
    18
420
        0
176
     1
 90
       50
176
     1
 90
        3
176
     1
 62
     5
420
      255
176
     1
290
     0
176
     1
 90
       50
176
     1
 90
       50
176
     1
 90
       50
176
     1
290
     0
176
     1
 90
       50
176
     1
 62
   256
176
     0
 40
1.0
176
     0
 90
        2
176
     1
  1
strokes_ogs.tif
176
     1
290
     0
176
     1
 40
1.0
176
     1
 40
1.0
176
     1
1001
ACAD
1000
AcDbSavedByObjectVersion
1070
     0
  0
VISUALSTYLE
  5
3F
102
{ACAD_REACTORS
330
29
102
}
330
29
100
AcDbVisualStyle
  2
JitterOff
 70
    20
177
     3
291
     1
 70
    58
 90
        2
176
     0
 90
        2
176
     0
 90
        0
176
     0
 90
        0
176
     0
 40
0.6
176
     0
 40
30.0
176
     0
 62
     7
420
 16777215
176
     0
 90
        1
176
     0
 90
        4
176
     0
 62
     7
176
     0
 62
   257
176
     0
 90
        1
176
     0
 90
        1
176
     0
 40
1.0
176
     0
 90
       10
176
     2
 62
     7
176
     0
 40
1.0
176
     0
 90
        1
176
     0
 90
        6
176
     0
 90
        2
176
     0
 62
     7
176
     0
 90
        5
176
     0
 90
        0
176
     0
 90
        0
176
     0
290
     0
176
     0
 90
        1
176
     0
 40
0.0
176
     0
 90
        0
176
     0
290
     0
176
     0
290
     1
176
     0
290
     1
176
     0
290
     0
176
     0
290
     0
176
     0
290
     0
176
     0
290
     0
176
     0
290
     0
176
     0
290
     0
176
     0
 90
       50
176
     0
 40
0.0
176
     0
 40
1.0
176
     0
 90
        0
176
     0
 62
    18
420
        0
176
     0
 90
       50
176
     0
 90
        3
176
     0
 62
     5
420
      255
176
     0
290
     0
176
     0
 90
       50
176
     0
 90
       50
176
     0
 90
       50
176
     0
290
     0
176
     0
 90
       50
176
     0
 62
   256
176
     0
 40
1.0
176
     0
 90
        2
176
     0
  1
strokes_ogs.tif
176
     0
290
     0
176
     0
 40
1.0
176
     0
 40
1.0
176
     0
1001
ACAD
1000
AcDbSavedByObjectVersion
1070
     0
  0
VISUALSTYLE
  5
37
102
{ACAD_REACTORS
330
29
102
}
330
29
100
AcDbVisualStyle
  2
Linepattern
 70
    14
177
     3
291
     1
 70
    58
 90
        2
176
     1
 90
        2
176
     1
 90
        0
176
     1
 90
        0
176
     1
 40
0.6
176
     1
 40
30.0
176
     1
 62
     7
420
 16777215
176
     1
 90
        1
176
     1
 90
        4
176
     1
 62
     7
176
     1
 62
   257
176
     1
 90
        7
176
     1
 90
        7
176
     1
 40
1.0
176
     1
 90
        8
176
     1
 62
     7
176
     1
 40
1.0
176
     1
 90
        1
176
     1
 90
        6
176
     1
 90
        2
176
     1
 62
     7
176
     1
 90
        5
176
     1
 90
        0
176
     1
 90
        0
176
     1
290
     0
176
     1
 90
        1
176
     1
 40
0.0
176
     1
 90
        0
176
     1
290
     0
176
     1
290
     1
176
     1
290
     1
176
     1
290
     0
176
     1
290
     0
176
     1
290
     0
176
     1
290
     0
176
     1
290
     0
176
     1
290
     0
176
     1
 90
       50
176
     1
 40
0.0
176
     1
 40
1.0
176
     1
 90
        0
176
     1
 62
    18
420
        0
176
     1
 90
       50
176
     1
 90
        3
176
     1
 62
     5
420
      255
176
     1
290
     0
176
     1
 90
       50
176
     1
 90
       50
176
     1
 90
       50
176
     1
290
     0
176
     1
 90
       50
176
     1
 62
   256
176
     0
 40
1.0
176
     0
 90
        2
176
     1
  1
strokes_ogs.tif
176
     1
290
     0
176
     1
 40
1.0
176
     1
 40
1.0
176
     1
1001
ACAD
1000
AcDbSavedByObjectVersion
1070
     0
  0
VISUALSTYLE
  5
40
102
{ACAD_REACTORS
330
29
102
}
330
29
100
AcDbVisualStyle
  2
OverhangOff
 70
    21
177
     3
291
     1
 70
    58
 90
        2
176
     0
 90
        2
176
     0
 90
        0
176
     0
 90
        0
176
     0
 40
0.6
176
     0
 40
30.0
176
     0
 62
     7
420
 16777215
176
     0
 90
        1
176
     0
 90
        4
176
     0
 62
     7
176
     0
 62
   257
176
     0
 90
        1
176
     0
 90
        1
176
     0
 40
1.0
176
     0
 90
        9
176
     2
 62
     7
176
     0
 40
1.0
176
     0
 90
        1
176
     0
 90
        6
176
     0
 90
        2
176
     0
 62
     7
176
     0
 90
        5
176
     0
 90
        0
176
     0
 90
        0
176
     0
290
     0
176
     0
 90
        1
176
     0
 40
0.0
176
     0
 90
        0
176
     0
290
     0
176
     0
290
     1
176
     0
290
     1
176
     0
290
     0
176
     0
290
     0
176
     0
290
     0
176
     0
290
     0
176
     0
290
     0
176
     0
290
     0
176
     0
 90
       50
176
     0
 40
0.0
176
     0
 40
1.0
176
     0
 90
        0
176
     0
 62
    18
420
        0
176
     0
 90
       50
176
     0
 90
        3
176
     0
 62
     5
420
      255
176
     0
290
     0
176
     0
 90
       50
176
     0
 90
       50
176
     0
 90
       50
176
     0
290
     0
176
     0
 90
       50
176
     0
 62
   256
176
     0
 40
1.0
176
     0
 90
        2
176
     0
  1
strokes_ogs.tif
176
     0
290
     0
176
     0
 40
1.0
176
     0
 40
1.0
176
     0
1001
ACAD
1000
AcDbSavedByObjectVersion
1070
     0
  0
VISUALSTYLE
  5
33
102
{ACAD_REACTORS
330
29
102
}
330
29
100
AcDbVisualStyle
  2
Realistic
 70
     8
177
     3
291
     0
 70
    58
 90
        2
176
     1
 90
        3
176
     1
 90
        0
176
     1
 90
        2
176
     1
 40
0.6
176
     1
 40
30.0
176
     1
 62
     7
420
 16777215
176
     1
 90
        0
176
     1
 90
        0
176
     1
 62
     7
176
     1
 62
   257
176
     1
 90
        1
176
     1
 90
        1
176
     1
 40
1.0
176
     1
 90
        8
176
     1
 62
   257
176
     1
 40
1.0
176
     1
 90
        1
176
     1
 90
        6
176
     1
 90
        2
176
     1
 62
     7
176
     1
 90
        3
176
     1
 90
        0
176
     1
 90
        0
176
     1
290
     0
176
     1
 90
       13
176
     1
 40
0.0
176
     1
 90
        0
176
     1
290
     0
176
     1
290
     1
176
     1
290
     1
176
     1
290
     0
176
     1
290
     0
176
     1
290
     0
176
     1
290
     0
176
     1
290
     0
176
     1
290
     0
176
     1
 90
       50
176
     1
 40
0.0
176
     1
 40
1.0
176
     1
 90
        0
176
     1
 62
    18
420
        0
176
     1
 90
       50
176
     1
 90
        3
176
     1
 62
     5
420
      255
176
     1
290
     0
176
     1
 90
       50
176
     1
 90
       50
176
     1
 90
       50
176
     1
290
     0
176
     1
 90
       50
176
     1
 62
   256
176
     0
 40
1.0
176
     0
 90
        2
176
     1
  1
strokes_ogs.tif
176
     1
290
     0
176
     1
 40
1.0
176
     1
 40
1.0
176
     1
1001
ACAD
1000
AcDbSavedByObjectVersion
1070
     0
  0
VISUALSTYLE
  5
3E
102
{ACAD_REACTORS
330
29
102
}
330
29
100
AcDbVisualStyle
  2
Shaded
 70
    27
177
     3
291
     0
 70
    58
 90
        2
176
     1
 90
        2
176
     1
 90
        1
176
     1
 90
        2
176
     1
 40
0.6
176
     1
 40
30.0
176
     1
 62
     7
420
 16777215
176
     1
 90
        0
176
     1
 90
        4
176
     1
 62
     7
176
     1
 62
   257
176
     1
 90
        1
176
     1
 90
        1
176
     1
 40
1.0
176
     1
 90
        8
176
     1
 62
   257
176
     1
 40
1.0
176
     1
 90
        1
176
     1
 90
        6
176
     1
 90
        2
176
     1
 62
     8
420
  7895160
176
     1
 90
        3
176
     1
 90
        0
176
     1
 90
        0
176
     1
290
     0
176
     1
 90
        5
176
     1
 40
0.0
176
     1
 90
        0
176
     1
290
     0
176
     1
290
     1
176
     1
290
     1
176
     1
290
     0
176
     1
290
     0
176
     1
290
     0
176
     1
290
     0
176
     1
290
     0
176
     1
290
     0
176
     1
 90
       50
176
     1
 40
0.0
176
     1
 40
1.0
176
     1
 90
        0
176
     1
 62
    18
420
        0
176
     1
 90
       50
176
     1
 90
        3
176
     1
 62
     5
420
      255
176
     1
290
     0
176
     1
 90
       50
176
     1
 90
       50
176
     1
 90
       50
176
     1
290
     0
176
     1
 90
       50
176
     1
 62
   256
176
     0
 40
1.0
176
     0
 90
        2
176
     1
  1
strokes_ogs.tif
176
     1
290
     0
176
     1
 40
1.0
176
     1
 40
1.0
176
     1
1001
ACAD
1000
AcDbSavedByObjectVersion
1070
     0
  0
VISUALSTYLE
  5
3D
102
{ACAD_REACTORS
330
29
102
}
330
29
100
AcDbVisualStyle
  2
Shaded with edges
 70
    26
177
     3
291
     0
 70
    58
 90
        2
176
     1
 90
        2
176
     1
 90
        1
176
     1
 90
        2
176
     1
 40
0.6
176
     1
 40
30.0
176
     1
 62
     7
420
 16777215
176
     1
 90
        1
176
     1
 90
        2
176
     1
 62
     7
176
     1
 62
   257
176
     1
 90
        2
176
     1
 90
        1
176
     1
 40
1.0
176
     1
 90
        8
176
     1
 62
   257
176
     1
 40
1.0
176
     1
 90
        1
176
     1
 90
        6
176
     1
 90
        2
176
     1
 62
     7
176
     1
 90
        3
176
     1
 90
        0
176
     1
 90
        0
176
     1
290
     0
176
     1
 90
        5
176
     1
 40
0.0
176
     1
 90
        0
176
     1
290
     0
176
     1
290
     1
176
     1
290
     1
176
     1
290
     0
176
     1
290
     0
176
     1
290
     0
176
     1
290
     0
176
     1
290
     0
176
     1
290
     0
176
     1
 90
       50
176
     1
 40
0.0
176
     1
 40
1.0
176
     1
 90
        0
176
     1
 62
    18
420
        0
176
     1
 90
       50
176
     1
 90
        3
176
     1
 62
     5
420
      255
176
     1
290
     0
176
     1
 90
       50
176
     1
 90
       50
176
     1
 90
       50
176
     1
290
     0
176
     1
 90
       50
176
     1
 62
   256
176
     0
 40
1.0
176
     0
 90
        2
176
     1
  1
strokes_ogs.tif
176
     1
290
     0
176
     1
 40
1.0
176
     1
 40
1.0
176
     1
1001
ACAD
1000
AcDbSavedByObjectVersion
1070
     0
  0
VISUALSTYLE
  5
3A
102
{ACAD_REACTORS
330
29
102
}
330
29
100
AcDbVisualStyle
  2
Shades of Gray
 70
    23
177
     3
291
     0
 70
    58
 90
        2
176
     1
 90
        2
176
     1
 90
        3
176
     1
 90
        0
176
     1
 40
0.6
176
     1
 40
30.0
176
     1
 62
     7
420
 16777215
176
     1
 90
        2
176
     1
 90
        2
176
     1
 62
     7
176
     1
 62
     7
176
     1
 90
        1
176
     1
 90
        1
176
     1
 40
40.0
176
     1
 90
        8
176
     1
 62
     7
176
     1
 40
1.0
176
     1
 90
        1
176
     1
 90
        6
176
     1
 90
        2
176
     1
 62
     7
176
     1
 90
        3
176
     1
 90
        0
176
     1
 90
        0
176
     1
290
     0
176
     1
 90
        1
176
     1
 40
0.0
176
     1
 90
        0
176
     1
290
     0
176
     1
290
     1
176
     1
290
     1
176
     1
290
     0
176
     1
290
     0
176
     1
290
     0
176
     1
290
     0
176
     1
290
     0
176
     1
290
     0
176
     1
 90
       50
176
     1
 40
0.0
176
     1
 40
1.0
176
     1
 90
        0
176
     1
 62
    18
420
        0
176
     1
 90
       50
176
     1
 90
        3
176
     1
 62
     5
420
      255
176
     1
290
     0
176
     1
 90
       50
176
     1
 90
       50
176
     1
 90
       50
176
     1
290
     0
176
     1
 90
       50
176
     1
 62
   256
176
     0
 40
1.0
176
     0
 90
        2
176
     1
  1
strokes_ogs.tif
176
     1
290
     0
176
     1
 40
1.0
176
     1
 40
1.0
176
     1
1001
ACAD
1000
AcDbSavedByObjectVersion
1070
     0
  0
VISUALSTYLE
  5
3B
102
{ACAD_REACTORS
330
29
102
}
330
29
100
AcDbVisualStyle
  2
Sketchy
 70
    24
177
     3
291
     0
 70
    58
 90
        1
176
     1
 90
        2
176
     1
 90
        2
176
     1
 90
        0
176
     1
 40
0.6
176
     1
 40
30.0
176
     1
 62
     7
420
 16777215
176
     1
 90
        2
176
     1
 90
        2
176
     1
 62
     7
176
     1
 62
     7
176
     1
 90
        1
176
     1
 90
        1
176
     1
 40
40.0
176
     1
 90
       11
176
     1
 62
     7
176
     1
 40
1.0
176
     1
 90
        1
176
     1
 90
        6
176
     1
 90
        2
176
     1
 62
     7
176
     1
 90
        6
176
     1
 90
        0
176
     1
 90
        0
176
     1
290
     0
176
     1
 90
        1
176
     1
 40
0.0
176
     1
 90
        0
176
     1
290
     0
176
     1
290
     1
176
     1
290
     1
176
     1
290
     0
176
     1
290
     0
176
     1
290
     0
176
     1
290
     0
176
     1
290
     0
176
     1
290
     0
176
     1
 90
       50
176
     1
 40
0.0
176
     1
 40
1.0
176
     1
 90
        0
176
     1
 62
    18
420
        0
176
     1
 90
       50
176
     1
 90
        3
176
     1
 62
     5
420
      255
176
     1
290
     0
176
     1
 90
       50
176
     1
 90
       50
176
     1
 90
       50
176
     1
290
     0
176
     1
 90
       50
176
     1
 62
   256
176
     0
 40
1.0
176
     0
 90
        2
176
     1
  1
strokes_ogs.tif
176
     1
290
     0
176
     1
 40
1.0
176
     1
 40
1.0
176
     1
1001
ACAD
1000
AcDbSavedByObjectVersion
1070
     0
  0
VISUALSTYLE
  5
36
102
{ACAD_REACTORS
330
29
102
}
330
29
100
AcDbVisualStyle
  2
Thicken
 70
    13
177
     3
291
     1
 70
    58
 90
        2
176
     1
 90
        2
176
     1
 90
        0
176
     1
 90
        0
176
     1
 40
0.6
176
     1
 40
30.0
176
     1
 62
     7
420
 16777215
176
     1
 90
        1
176
     1
 90
        4
176
     1
 62
     7
176
     1
 62
   257
176
     1
 90
        1
176
     1
 90
        1
176
     1
 40
1.0
176
     1
 90
       12
176
     1
 62
     7
176
     1
 40
1.0
176
     1
 90
        1
176
     1
 90
        6
176
     1
 90
        2
176
     1
 62
     7
176
     1
 90
        5
176
     1
 90
        0
176
     1
 90
        0
176
     1
290
     0
176
     1
 90
        1
176
     1
 40
0.0
176
     1
 90
        0
176
     1
290
     0
176
     1
290
     1
176
     1
290
     1
176
     1
290
     0
176
     1
290
     0
176
     1
290
     0
176
     1
290
     0
176
     1
290
     0
176
     1
290
     0
176
     1
 90
       50
176
     1
 40
0.0
176
     1
 40
1.0
176
     1
 90
        0
176
     1
 62
    18
420
        0
176
     1
 90
       50
176
     1
 90
        3
176
     1
 62
     5
420
      255
176
     1
290
     0
176
     1
 90
       50
176
     1
 90
       50
176
     1
 90
       50
176
     1
290
     0
176
     1
 90
       50
176
     1
 62
   256
176
     0
 40
1.0
176
     0
 90
        2
176
     1
  1
strokes_ogs.tif
176
     1
290
     0
176
     1
 40
1.0
176
     1
 40
1.0
176
     1
1001
ACAD
1000
AcDbSavedByObjectVersion
1070
     0
  0
VISUALSTYLE
  5
30
102
{ACAD_REACTORS
330
29
102
}
330
29
100
AcDbVisualStyle
  2
Wireframe
 70
     5
177
     3
291
     0
 70
    58
 90
        0
176
     1
 90
        2
176
     1
 90
        0
176
     1
 90
        0
176
     1
 40
0.6
176
     1
 40
30.0
176
     1
 62
     7
420
 16777215
176
     1
 90
        1
176
     1
 90
        4
176
     1
 62
     7
176
     1
 62
   257
176
     1
 90
        1
176
     1
 90
        1
176
     1
 40
1.0
176
     1
 90
        0
176
     1
 62
   257
176
     1
 40
1.0
176
     1
 90
        1
176
     1
 90
        6
176
     1
 90
        2
176
     1
 62
     7
176
     1
 90
        3
176
     1
 90
        0
176
     1
 90
        0
176
     1
290
     0
176
     1
 90
        1
176
     1
 40
0.0
176
     1
 90
        0
176
     1
290
     0
176
     1
290
     1
176
     1
290
     1
176
     1
290
     0
176
     1
290
     0
176
     1
290
     0
176
     1
290
     0
176
     1
290
     0
176
     1
290
     0
176
     1
 90
       50
176
     1
 40
0.0
176
     1
 40
1.0
176
     1
 90
        0
176
     1
 62
    18
420
        0
176
     1
 90
       50
176
     1
 90
        3
176
     1
 62
     5
420
      255
176
     1
290
     0
176
     1
 90
       50
176
     1
 90
       50
176
     1
 90
       50
176
     1
290
     0
176
     1
 90
       50
176
     1
 62
   256
176
     0
 40
1.0
176
     0
 90
        2
176
     1
  1
strokes_ogs.tif
176
     1
290
     0
176
     1
 40
1.0
176
     1
 40
1.0
176
     1
1001
ACAD
1000
AcDbSavedByObjectVersion
1070
     0
  0
VISUALSTYLE
  5
3C
102
{ACAD_REACTORS
330
29
102
}
330
29
100
AcDbVisualStyle
  2
X-Ray
 70
    25
177
     3
291
     0
 70
    58
 90
        2
176
     1
 90
        2
176
     1
 90
        1
176
     1
 90
        1
176
     1
 40
0.5
176
     1
 40
30.0
176
     1
 62
     7
420
 16777215
176
     1
 90
        1
176
     1
 90
        0
176
     1
 62
     7
176
     1
 62
   257
176
     1
 90
        1
176
     1
 90
        1
176
     1
 40
1.0
176
     1
 90
        8
176
     1
 62
     7
176
     1
 40
1.0
176
     1
 90
        1
176
     1
 90
        6
176
     1
 90
        2
176
     1
 62
     7
176
     1
 90
        3
176
     1
 90
        0
176
     1
 90
        0
176
     1
290
     0
176
     1
 90
       13
176
     1
 40
0.0
176
     1
 90
        0
176
     1
290
     0
176
     1
290
     1
176
     1
290
     1
176
     1
290
     0
176
     1
290
     0
176
     1
290
     0
176
     1
290
     0
176
     1
290
     0
176
     1
290
     0
176
     1
 90
       50
176
     1
 40
0.0
176
     1
 40
1.0
176
     1
 90
        0
176
     1
 62
    18
420
        0
176
     1
 90
       50
176
     1
 90
        3
176
     1
 62
     5
420
      255
176
     1
290
     0
176
     1
 90
       50
176
     1
 90
       50
176
     1
 90
       50
176
     1
290
     0
176
     1
 90
       50
176
     1
 62
   256
176
     0
 40
1.0
176
     0
 90
        2
176
     1
  1
strokes_ogs.tif
176
     1
290
     0
176
     1
 40
1.0
176
     1
 40
1.0
176
     1
1001
ACAD
1000
AcDbSavedByObjectVersion
1070
     0
  0
DICTIONARYVAR
  5
1A0
102
{ACAD_REACTORS
330
19B
102
}
330
19B
100
DictionaryVariables
280
     0
  1
1:1
  0
DICTIONARYVAR
  5
19D
102
{ACAD_REACTORS
330
19B
102
}
330
19B
100
DictionaryVariables
280
     0
  1
STANDARD
  0
DICTIONARYVAR
  5
19C
102
{ACAD_REACTORS
330
19B
102
}
330
19B
100
DictionaryVariables
280
     0
  1
STANDARD
  0
DICTIONARYVAR
  5
19E
102
{ACAD_REACTORS
330
19B
102
}
330
19B
100
DictionaryVariables
280
     0
  1
Imperial24
  0
DICTIONARYVAR
  5
19F
102
{ACAD_REACTORS
330
19B
102
}
330
19B
100
DictionaryVariables
280
     0
  1
Imperial24
  0
DICTIONARY
  5
1A6
330
6B
100
AcDbDictionary
280
     1
281
     1
  3
ACAD_XREC_ROUNDTRIP
360
1A7
  0
DICTIONARY
  5
1A
330
19
100
AcDbDictionary
280
     1
281
     1
  3
BUMPTILE
360
1C
  3
DIFFUSETILE
360
1B
  3
OPACITYTILE
360
1F
  3
REFLECTIONTILE
360
1E
  3
REFRACTIONTILE
360
20
  3
SPECULARTILE
360
1D
  0
DICTIONARY
  5
12
330
11
100
AcDbDictionary
280
     1
281
     1
  3
BUMPTILE
360
14
  3
DIFFUSETILE
360
13
  3
OPACITYTILE
360
17
  3
REFLECTIONTILE
360
16
  3
REFRACTIONTILE
360
18
  3
SPECULARTILE
360
15
  0
DICTIONARY
  5
22
330
21
100
AcDbDictionary
280
     1
281
     1
  3
BUMPTILE
360
24
  3
DIFFUSETILE
360
23
  3
OPACITYTILE
360
27
  3
REFLECTIONTILE
360
26
  3
REFRACTIONTILE
360
28
  3
SPECULARTILE
360
25
  0
DICTIONARY
  5
1A4
330
69
100
AcDbDictionary
280
     1
281
     1
  3
ACAD_XREC_ROUNDTRIP
360
1A5
  0
DICTIONARY
  5
1A1
330
65
100
AcDbDictionary
280
     1
281
     1
  3
ACAD_ROUNDTRIP_2008_TABLESTYLE_CELLSTYLEMAP
360
1A2
  0
XRECORD
  5
1A7
102
{ACAD_REACTORS
330
1A6
102
}
330
1A6
100
AcDbXrecord
280
     1
102
DISPLAYNAME
  1
Imperial24
102
FLAGS
 90
        0
  0
XRECORD
  5
1C
102
{ACAD_REACTORS
330
1A
102
}
330
1A
100
AcDbXrecord
280
     1
270
     1
271
     1
  0
XRECORD
  5
1B
102
{ACAD_REACTORS
330
1A
102
}
330
1A
100
AcDbXrecord
280
     1
270
     1
271
     1
  0
XRECORD
  5
1F
102
{ACAD_REACTORS
330
1A
102
}
330
1A
100
AcDbXrecord
280
     1
270
     1
271
     1
  0
XRECORD
  5
1E
102
{ACAD_REACTORS
330
1A
102
}
330
1A
100
AcDbXrecord
280
     1
270
     1
271
     1
  0
XRECORD
  5
20
102
{ACAD_REACTORS
330
1A
102
}
330
1A
100
AcDbXrecord
280
     1
270
     1
271
     1
  0
XRECORD
  5
1D
102
{ACAD_REACTORS
330
1A
102
}
330
1A
100
AcDbXrecord
280
     1
270
     1
271
     1
  0
XRECORD
  5
14
102
{ACAD_REACTORS
330
12
102
}
330
12
100
AcDbXrecord
280
     1
270
     1
271
     1
  0
XRECORD
  5
13
102
{ACAD_REACTORS
330
12
102
}
330
12
100
AcDbXrecord
280
     1
270
     1
271
     1
  0
XRECORD
  5
17
102
{ACAD_REACTORS
330
12
102
}
330
12
100
AcDbXrecord
280
     1
270
     1
271
     1
  0
XRECORD
  5
16
102
{ACAD_REACTORS
330
12
102
}
330
12
100
AcDbXrecord
280
     1
270
     1
271
     1
  0
XRECORD
  5
18
102
{ACAD_REACTORS
330
12
102
}
330
12
100
AcDbXrecord
280
     1
270
     1
271
     1
  0
XRECORD
  5
15
102
{ACAD_REACTORS
330
12
102
}
330
12
100
AcDbXrecord
280
     1
270
     1
271
     1
  0
XRECORD
  5
24
102
{ACAD_REACTORS
330
22
102
}
330
22
100
AcDbXrecord
280
     1
270
     1
271
     1
  0
XRECORD
  5
23
102
{ACAD_REACTORS
330
22
102
}
330
22
100
AcDbXrecord
280
     1
270
     1
271
     1
  0
XRECORD
  5
27
102
{ACAD_REACTORS
330
22
102
}
330
22
100
AcDbXrecord
280
     1
270
     1
271
     1
  0
XRECORD
  5
26
102
{ACAD_REACTORS
330
22
102
}
330
22
100
AcDbXrecord
280
     1
270
     1
271
     1
  0
XRECORD
  5
28
102
{ACAD_REACTORS
330
22
102
}
330
22
100
AcDbXrecord
280
     1
270
     1
271
     1
  0
XRECORD
  5
25
102
{ACAD_REACTORS
330
22
102
}
330
22
100
AcDbXrecord
280
     1
270
     1
271
     1
  0
XRECORD
  5
1A5
102
{ACAD_REACTORS
330
1A4
102
}
330
1A4
100
AcDbXrecord
280
     1
102
DISPLAYNAME
  1
Imperial24
102
FLAGS
 90
        0
  0
CELLSTYLEMAP
  5
1A2
102
{ACAD_REACTORS
330
1A1
102
}
330
1A1
100
AcDbCellStyleMap
 90
        3
300
CELLSTYLE
  1
TABLEFORMAT_BEGIN
 90
        5
170
     1
 91
        0
 92
    32768
 62
   257
 93
        1
300
CONTENTFORMAT
  1
CONTENTFORMAT_BEGIN
 90
        0
 91
        0
 92
      512
 93
        0
300

 40
0.0
140
1.0
 94
        5
 62
     0
340
55
144
0.25
309
CONTENTFORMAT_END
171
     0
 94
        0
309
TABLEFORMAT_END
  1
CELLSTYLE_BEGIN
 90
        1
 91
        1
300
_TITLE
309
CELLSTYLE_END
300
CELLSTYLE
  1
TABLEFORMAT_BEGIN
 90
        5
170
     1
 91
        0
 92
        0
 62
   257
 93
        1
300
CONTENTFORMAT
  1
CONTENTFORMAT_BEGIN
 90
        0
 91
        0
 92
      512
 93
        0
300

 40
0.0
140
1.0
 94
        5
 62
     0
340
55
144
0.18
309
CONTENTFORMAT_END
171
     0
 94
        0
309
TABLEFORMAT_END
  1
CELLSTYLE_BEGIN
 90
        2
 91
        1
300
_HEADER
309
CELLSTYLE_END
300
CELLSTYLE
  1
TABLEFORMAT_BEGIN
 90
        5
170
     1
 91
        0
 92
        0
 62
   257
 93
        1
300
CONTENTFORMAT
  1
CONTENTFORMAT_BEGIN
 90
        0
 91
        0
 92
      512
 93
        0
300

 40
0.0
140
1.0
 94
        2
 62
     0
340
55
144
0.18
309
CONTENTFORMAT_END
171
     0
 94
        0
309
TABLEFORMAT_END
  1
CELLSTYLE_BEGIN
 90
        3
 91
        2
300
_DATA
309
CELLSTYLE_END
  0
ENDSEC
  0
EOF
