  0
SECTION
  2
HEADER
  9
$ACADVER
  1
AC1027
  9
$ACADMAINTVER
 70
   125
  9
$DWGCODEPAGE
  3
ANSI_932
  9
$REQUIREDVERSIONS
160
                 0
  9
$INSBASE
 10
0.0
 20
0.0
 30
0.0
  9
$EXTMIN
 10
1.000000000000000E+20
 20
1.000000000000000E+20
 30
1.000000000000000E+20
  9
$EXTMAX
 10
-1.000000000000000E+20
 20
-1.000000000000000E+20
 30
-1.000000000000000E+20
  9
$LIMMIN
 10
0.0
 20
0.0
  9
$LIMMAX
 10
12.0
 20
9.0
  9
$ORTHOMODE
 70
     0
  9
$REGENMODE
 70
     1
  9
$FILLMODE
 70
     1
  9
$QTEXTMODE
 70
     0
  9
$MIRRTEXT
 70
     0
  9
$LTSCALE
 40
1.0
  9
$ATTMODE
 70
     1
  9
$TEXTSIZE
 40
0.2
  9
$TRACEWID
 40
0.05
  9
$TEXTSTYLE
  7
Standard
  9
$CLAYER
  8
0
  9
$CELTYPE
  6
ByLayer
  9
$CECOLOR
 62
   256
  9
$CELTSCALE
 40
1.0
  9
$DISPSILH
 70
     0
  9
$DIMSCALE
 40
1.0
  9
$DIMASZ
 40
0.18
  9
$DIMEXO
 40
0.0625
  9
$DIMDLI
 40
0.38
  9
$DIMRND
 40
0.0
  9
$DIMDLE
 40
0.0
  9
$DIMEXE
 40
0.18
  9
$DIMTP
 40
0.0
  9
$DIMTM
 40
0.0
  9
$DIMTXT
 40
0.18
  9
$DIMCEN
 40
0.09
  9
$DIMTSZ
 40
0.0
  9
$DIMTOL
 70
     0
  9
$DIMLIM
 70
     0
  9
$DIMTIH
 70
     1
  9
$DIMTOH
 70
     1
  9
$DIMSE1
 70
     0
  9
$DIMSE2
 70
     0
  9
$DIMTAD
 70
     0
  9
$DIMZIN
 70
     0
  9
$DIMBLK
  1

  9
$DIMASO
 70
     1
  9
$DIMSHO
 70
     1
  9
$DIMPOST
  1

  9
$DIMAPOST
  1

  9
$DIMALT
 70
     0
  9
$DIMALTD
 70
     2
  9
$DIMALTF
 40
25.4
  9
$DIMLFAC
 40
1.0
  9
$DIMTOFL
 70
     0
  9
$DIMTVP
 40
0.0
  9
$DIMTIX
 70
     0
  9
$DIMSOXD
 70
     0
  9
$DIMSAH
 70
     0
  9
$DIMBLK1
  1

  9
$DIMBLK2
  1

  9
$DIMSTYLE
  2
Standard
  9
$DIMCLRD
 70
     0
  9
$DIMCLRE
 70
     0
  9
$DIMCLRT
 70
     0
  9
$DIMTFAC
 40
1.0
  9
$DIMGAP
 40
0.09
  9
$DIMJUST
 70
     0
  9
$DIMSD1
 70
     0
  9
$DIMSD2
 70
     0
  9
$DIMTOLJ
 70
     1
  9
$DIMTZIN
 70
     0
  9
$DIMALTZ
 70
     0
  9
$DIMALTTZ
 70
     0
  9
$DIMUPT
 70
     0
  9
$DIMDEC
 70
     4
  9
$DIMTDEC
 70
     4
  9
$DIMALTU
 70
     2
  9
$DIMALTTD
 70
     2
  9
$DIMTXSTY
  7
Standard
  9
$DIMAUNIT
 70
     0
  9
$DIMADEC
 70
     0
  9
$DIMALTRND
 40
0.0
  9
$DIMAZIN
 70
     0
  9
$DIMDSEP
 70
    46
  9
$DIMATFIT
 70
     3
  9
$DIMFRAC
 70
     0
  9
$DIMLDRBLK
  1

  9
$DIMLUNIT
 70
     2
  9
$DIMLWD
 70
    -2
  9
$DIMLWE
 70
    -2
  9
$DIMTMOVE
 70
     0
  9
$DIMFXL
 40
1.0
  9
$DIMFXLON
 70
     0
  9
$DIMJOGANG
 40
0.7853981633974483
  9
$DIMTFILL
 70
     0
  9
$DIMTFILLCLR
 70
     0
  9
$DIMARCSYM
 70
     0
  9
$DIMLTYPE
  6

  9
$DIMLTEX1
  6

  9
$DIMLTEX2
  6

  9
$DIMTXTDIRECTION
 70
     0
  9
$LUNITS
 70
     2
  9
$LUPREC
 70
     4
  9
$SKETCHINC
 40
0.1
  9
$FILLETRAD
 40
0.0
  9
$AUNITS
 70
     0
  9
$AUPREC
 70
     0
  9
$MENU
  1
.
  9
$ELEVATION
 40
0.0
  9
$PELEVATION
 40
0.0
  9
$THICKNESS
 40
0.0
  9
$LIMCHECK
 70
     0
  9
$CHAMFERA
 40
0.0
  9
$CHAMFERB
 40
0.0
  9
$CHAMFERC
 40
0.0
  9
$CHAMFERD
 40
0.0
  9
$SKPOLY
 70
     0
  9
$TDCREATE
 40
2459708.906481482
  9
$TDUCREATE
 40
2459708.531481481
  9
$TDUPDATE
 40
2459708.906481482
  9
$TDUUPDATE
 40
2459708.531481481
  9
$TDINDWG
 40
0.0000000000
  9
$TDUSRTIMER
 40
0.0000000000
  9
$USRTIMER
 70
     1
  9
$ANGBASE
 50
0.0
  9
$ANGDIR
 70
     0
  9
$PDMODE
 70
     0
  9
$PDSIZE
 40
0.0
  9
$PLINEWID
 40
0.0
  9
$SPLFRAME
 70
     0
  9
$SPLINETYPE
 70
     6
  9
$SPLINESEGS
 70
     8
  9
$HANDSEED
  5
218
  9
$SURFTAB1
 70
     6
  9
$SURFTAB2
 70
     6
  9
$SURFTYPE
 70
     6
  9
$SURFU
 70
     6
  9
$SURFV
 70
     6
  9
$UCSBASE
  2

  9
$UCSNAME
  2

  9
$UCSORG
 10
0.0
 20
0.0
 30
0.0
  9
$UCSXDIR
 10
1.0
 20
0.0
 30
0.0
  9
$UCSYDIR
 10
0.0
 20
1.0
 30
0.0
  9
$UCSORTHOREF
  2

  9
$UCSORTHOVIEW
 70
     0
  9
$UCSORGTOP
 10
0.0
 20
0.0
 30
0.0
  9
$UCSORGBOTTOM
 10
0.0
 20
0.0
 30
0.0
  9
$UCSORGLEFT
 10
0.0
 20
0.0
 30
0.0
  9
$UCSORGRIGHT
 10
0.0
 20
0.0
 30
0.0
  9
$UCSORGFRONT
 10
0.0
 20
0.0
 30
0.0
  9
$UCSORGBACK
 10
0.0
 20
0.0
 30
0.0
  9
$PUCSBASE
  2

  9
$PUCSNAME
  2

  9
$PUCSORG
 10
0.0
 20
0.0
 30
0.0
  9
$PUCSXDIR
 10
1.0
 20
0.0
 30
0.0
  9
$PUCSYDIR
 10
0.0
 20
1.0
 30
0.0
  9
$PUCSORTHOREF
  2

  9
$PUCSORTHOVIEW
 70
     0
  9
$PUCSORGTOP
 10
0.0
 20
0.0
 30
0.0
  9
$PUCSORGBOTTOM
 10
0.0
 20
0.0
 30
0.0
  9
$PUCSORGLEFT
 10
0.0
 20
0.0
 30
0.0
  9
$PUCSORGRIGHT
 10
0.0
 20
0.0
 30
0.0
  9
$PUCSORGFRONT
 10
0.0
 20
0.0
 30
0.0
  9
$PUCSORGBACK
 10
0.0
 20
0.0
 30
0.0
  9
$USERI1
 70
     0
  9
$USERI2
 70
     0
  9
$USERI3
 70
     0
  9
$USERI4
 70
     0
  9
$USERI5
 70
     0
  9
$USERR1
 40
0.0
  9
$USERR2
 40
0.0
  9
$USERR3
 40
0.0
  9
$USERR4
 40
0.0
  9
$USERR5
 40
0.0
  9
$WORLDVIEW
 70
     1
  9
$SHADEDGE
 70
     3
  9
$SHADEDIF
 70
    70
  9
$TILEMODE
 70
     1
  9
$MAXACTVP
 70
    64
  9
$PINSBASE
 10
0.0
 20
0.0
 30
0.0
  9
$PLIMCHECK
 70
     0
  9
$PEXTMIN
 10
1.000000000000000E+20
 20
1.000000000000000E+20
 30
1.000000000000000E+20
  9
$PEXTMAX
 10
-1.000000000000000E+20
 20
-1.000000000000000E+20
 30
-1.000000000000000E+20
  9
$PLIMMIN
 10
0.0
 20
0.0
  9
$PLIMMAX
 10
12.0
 20
9.0
  9
$UNITMODE
 70
     0
  9
$VISRETAIN
 70
     1
  9
$PLINEGEN
 70
     0
  9
$PSLTSCALE
 70
     1
  9
$TREEDEPTH
 70
  3020
  9
$CMLSTYLE
  2
Standard
  9
$CMLJUST
 70
     0
  9
$CMLSCALE
 40
1.0
  9
$PROXYGRAPHICS
 70
     1
  9
$MEASUREMENT
 70
     0
  9
$CELWEIGHT
370
    -1
  9
$ENDCAPS
280
     0
  9
$JOINSTYLE
280
     0
  9
$LWDISPLAY
290
     1
  9
$INSUNITS
 70
     4
  9
$HYPERLINKBASE
  1

  9
$STYLESHEET
  1

  9
$XEDIT
290
     1
  9
$CEPSNTYPE
380
     0
  9
$PSTYLEMODE
290
     1
  9
$FINGERPRINTGUID
  2
{1810C1BE-16CC-A54D-9086-28479970D7CF}
  9
$VERSIONGUID
  2
{7B279149-1473-F74B-9E6B-71E059BBB19B}
  9
$EXTNAMES
290
     1
  9
$PSVPSCALE
 40
0.0
  9
$OLESTARTUP
290
     0
  9
$SORTENTS
280
   127
  9
$INDEXCTL
280
     0
  9
$HIDETEXT
280
     1
  9
$XCLIPFRAME
280
     2
  9
$HALOGAP
280
     0
  9
$OBSCOLOR
 70
   257
  9
$OBSLTYPE
280
     0
  9
$INTERSECTIONDISPLAY
280
     0
  9
$INTERSECTIONCOLOR
 70
   257
  9
$DIMASSOC
280
     2
  9
$PROJECTNAME
  1

  9
$CAMERADISPLAY
290
     0
  9
$LENSLENGTH
 40
50.0
  9
$CAMERAHEIGHT
 40
0.0
  9
$STEPSPERSEC
 40
2.0
  9
$STEPSIZE
 40
6.0
  9
$3DDWFPREC
 40
2.0
  9
$PSOLWIDTH
 40
0.25
  9
$PSOLHEIGHT
 40
4.0
  9
$LOFTANG1
 40
1.570796326794896
  9
$LOFTANG2
 40
1.570796326794896
  9
$LOFTMAG1
 40
0.0
  9
$LOFTMAG2
 40
0.0
  9
$LOFTPARAM
 70
     7
  9
$LOFTNORMALS
280
     1
  9
$LATITUDE
 40
37.795
  9
$LONGITUDE
 40
-122.394
  9
$NORTHDIRECTION
 40
0.0
  9
$TIMEZONE
 70
 -8000
  9
$LIGHTGLYPHDISPLAY
280
     1
  9
$TILEMODELIGHTSYNCH
280
     1
  9
$CMATERIAL
347
11
  9
$SOLIDHIST
280
     0
  9
$SHOWHIST
280
     1
  9
$DWFFRAME
280
     2
  9
$DGNFRAME
280
     0
  9
$REALWORLDSCALE
290
     1
  9
$INTERFERECOLOR
 62
     1
  9
$INTERFEREOBJVS
345
33
  9
$INTERFEREVPVS
346
30
  9
$CSHADOW
280
     0
  9
$SHADOWPLANELOCATION
 40
0.0
  0
ENDSEC
  0
SECTION
  2
CLASSES
  0
CLASS
  1
ACDBDICTIONARYWDFLT
  2
AcDbDictionaryWithDefault
  3
ObjectDBX Classes
 90
        0
 91
        1
280
     0
281
     0
  0
CLASS
  1
MATERIAL
  2
AcDbMaterial
  3
ObjectDBX Classes
 90
     1153
 91
        3
280
     0
281
     0
  0
CLASS
  1
VISUALSTYLE
  2
AcDbVisualStyle
  3
ObjectDBX Classes
 90
     4095
 91
       24
280
     0
281
     0
  0
CLASS
  1
SCALE
  2
AcDbScale
  3
ObjectDBX Classes
 90
     1153
 91
       17
280
     0
281
     0
  0
CLASS
  1
TABLESTYLE
  2
AcDbTableStyle
  3
ObjectDBX Classes
 90
     4095
 91
        1
280
     0
281
     0
  0
CLASS
  1
MLEADERSTYLE
  2
AcDbMLeaderStyle
  3
ACDB_MLEADERSTYLE_CLASS
 90
     4095
 91
        1
280
     0
281
     0
  0
CLASS
  1
ACDBSECTIONVIEWSTYLE
  2
AcDbSectionViewStyle
  3
ObjectDBX Classes
 90
     1025
 91
        1
280
     0
281
     0
  0
CLASS
  1
ACDBDETAILVIEWSTYLE
  2
AcDbDetailViewStyle
  3
ObjectDBX Classes
 90
     1025
 91
        1
280
     0
281
     0
  0
CLASS
  1
DICTIONARYVAR
  2
AcDbDictionaryVar
  3
ObjectDBX Classes
 90
        0
 91
        5
280
     0
281
     0
  0
CLASS
  1
CELLSTYLEMAP
  2
AcDbCellStyleMap
  3
ObjectDBX Classes
 90
     1152
 91
        1
280
     0
281
     0
  0
ENDSEC
  0
SECTION
  2
TABLES
  0
TABLE
  2
VPORT
  5
8
330
0
100
AcDbSymbolTable
 70
     1
1001
ACAD
1000
DbSaveVer
1071
      247
  0
VPORT
  5
57
330
8
100
AcDbSymbolTableRecord
100
AcDbViewportTableRecord
  2
*Active
 70
     0
 10
0.0
 20
0.0
 11
1.0
 21
1.0
 12
0.0
 22
0.0
 13
0.0
 23
0.0
 14
1.0
 24
1.0
 15
0.0
 25
0.0
 16
0.0
 26
0.0
 36
1.0
 17
224.9999999437495
 27
-149.9999999624999
 37
0.0
 40
305.9999999234999
 41
1.499999999999997
 42
50.0
 43
0.0
 44
0.0
 50
0.0
 51
0.0
 71
     0
 72
   100
 73
     1
 74
     1
 75
     0
 76
     0
 77
     0
 78
     0
281
     0
 65
     1
110
0.0
120
0.0
130
0.0
111
1.0
121
0.0
131
0.0
112
0.0
122
1.0
132
0.0
 79
     0
146
0.0
 60
     3
 61
     5
292
     1
282
     1
141
0.0
142
0.0
 63
   250
421
  3355443
  0
ENDTAB
  0
TABLE
  2
LTYPE
  5
5
330
0
100
AcDbSymbolTable
 70
     1
  0
LTYPE
  5
5B
330
5
100
AcDbSymbolTableRecord
100
AcDbLinetypeTableRecord
  2
ByBlock
 70
     0
  3

 72
    65
 73
     0
 40
0.0
  0
LTYPE
  5
5C
330
5
100
AcDbSymbolTableRecord
100
AcDbLinetypeTableRecord
  2
ByLayer
 70
     0
  3

 72
    65
 73
     0
 40
0.0
  0
LTYPE
  5
5D
330
5
100
AcDbSymbolTableRecord
100
AcDbLinetypeTableRecord
  2
Continuous
 70
     0
  3
Solid line
 72
    65
 73
     0
 40
0.0
  0
ENDTAB
  0
TABLE
  2
LAYER
  5
2
330
0
100
AcDbSymbolTable
 70
     2
  0
LAYER
  5
54
330
2
100
AcDbSymbolTableRecord
100
AcDbLayerTableRecord
  2
0
 70
     0
 62
     7
  6
Continuous
370
    -3
390
F
347
21
348
0
  0
LAYER
  5
78
330
2
100
AcDbSymbolTableRecord
100
AcDbLayerTableRecord
  2
プレート
 70
     0
 62
     7
  6
Continuous
370
     0
390
F
347
21
348
0
  0
ENDTAB
  0
TABLE
  2
STYLE
  5
3
330
0
100
AcDbSymbolTable
 70
     2
  0
STYLE
  5
55
330
3
100
AcDbSymbolTableRecord
100
AcDbTextStyleTableRecord
  2
Standard
 70
     0
 40
0.0
 41
1.0
 50
0.0
 71
     0
 42
0.2
  3
txt
  4

  0
STYLE
  5
5A
330
3
100
AcDbSymbolTableRecord
100
AcDbTextStyleTableRecord
  2
Annotative
 70
     0
 40
0.0
 41
1.0
 50
0.0
 71
     0
 42
0.2
  3
txt
  4

1001
AcadAnnotative
1000
AnnotativeData
1002
{
1070
     1
1070
     1
1002
}
  0
ENDTAB
  0
TABLE
  2
VIEW
  5
6
330
0
100
AcDbSymbolTable
 70
     0
  0
ENDTAB
  0
TABLE
  2
UCS
  5
7
330
0
100
AcDbSymbolTable
 70
     0
  0
ENDTAB
  0
TABLE
  2
APPID
  5
9
330
0
100
AcDbSymbolTable
 70
     2
  0
APPID
  5
56
330
9
100
AcDbSymbolTableRecord
100
AcDbRegAppTableRecord
  2
ACAD
 70
     0
  0
APPID
  5
5E
330
9
100
AcDbSymbolTableRecord
100
AcDbRegAppTableRecord
  2
AcadAnnotative
 70
     0
  0
ENDTAB
  0
TABLE
  2
DIMSTYLE
  5
A
330
0
100
AcDbSymbolTable
 70
     2
100
AcDbDimStyleTable
 71
     0
  0
DIMSTYLE
105
58
330
A
100
AcDbSymbolTableRecord
100
AcDbDimStyleTableRecord
  2
Standard
 70
     0
340
55
  0
DIMSTYLE
105
59
330
A
100
AcDbSymbolTableRecord
100
AcDbDimStyleTableRecord
  2
Annotative
 70
     0
340
55
1001
AcadAnnotative
1000
AnnotativeData
1002
{
1070
     1
1070
     1
1002
}
  0
ENDTAB
  0
TABLE
  2
BLOCK_RECORD
  5
1
330
0
100
AcDbSymbolTable
 70
     2
  0
BLOCK_RECORD
  5
70
330
1
100
AcDbSymbolTableRecord
100
AcDbBlockTableRecord
  2
*Model_Space
340
73
 70
     0
280
     1
281
     0
  0
BLOCK_RECORD
  5
6C
330
1
100
AcDbSymbolTableRecord
100
AcDbBlockTableRecord
  2
*Paper_Space
340
6F
 70
     0
280
     1
281
     0
  0
BLOCK_RECORD
  5
74
330
1
100
AcDbSymbolTableRecord
100
AcDbBlockTableRecord
  2
*Paper_Space0
340
77
 70
     0
280
     1
281
     0
  0
BLOCK_RECORD
  5
8E
330
1
100
AcDbSymbolTableRecord
100
AcDbBlockTableRecord
  2
Block_0
340
0
102
{BLKREFS
331
8F
102
}
 70
     0
280
     1
281
     0
  0
ENDTAB
  0
ENDSEC
  0
SECTION
  2
BLOCKS
  0
BLOCK
  5
71
330
70
100
AcDbEntity
  8
0
100
AcDbBlockBegin
  2
*Model_Space
 70
     0
 10
0.0
 20
0.0
 30
0.0
  3
*Model_Space
  1

  0
ENDBLK
  5
72
330
70
100
AcDbEntity
  8
0
100
AcDbBlockEnd
  0
BLOCK
  5
6D
330
6C
100
AcDbEntity
 67
     1
  8
0
100
AcDbBlockBegin
  2
*Paper_Space
 70
     0
 10
0.0
 20
0.0
 30
0.0
  3
*Paper_Space
  1

  0
ENDBLK
  5
6E
330
6C
100
AcDbEntity
 67
     1
  8
0
100
AcDbBlockEnd
  0
BLOCK
  5
75
330
74
100
AcDbEntity
 67
     1
  8
0
100
AcDbBlockBegin
  2
*Paper_Space0
 70
     0
 10
0.0
 20
0.0
 30
0.0
  3
*Paper_Space0
  1

  0
ENDBLK
  5
76
330
74
100
AcDbEntity
 67
     1
  8
0
100
AcDbBlockEnd
  0
BLOCK
  5
90
330
8E
100
AcDbEntity
  8
0
100
AcDbBlockBegin
  2
Block_0
 70
     0
 10
0.0
 20
0.0
 30
0.0
  3
Block_0
  1

  0
LWPOLYLINE
  5
92
330
8E
100
AcDbEntity
  8
プレート
 62
   250
420
  2299925
370
    35
100
AcDbPolyline
 90
       37
 70
     1
 43
0.0
 10
85.59359957472713
 20
-152.2202999600736
 10
85.59359957472713
 20
-156.9206999600741
 10
85.59404998035162
 20
-156.9206999600741
 10
87.11944998035148
 20
-156.9206999600741
 10
87.11944998035148
 20
-153.6905999600738
 10
93.8691499803517
 20
-153.6905999600738
 10
93.8691499803517
 20
-156.9206999600741
 10
94.69464998035133
 20
-156.9206999600741
 10
94.69464998035133
 20
-159.7195999600737
 10
93.8691499803517
 20
-159.7195999600737
 10
93.8691499803517
 20
-165.9894999600739
 10
92.14514998035161
 20
-165.9894999600739
 10
92.14514998035161
 20
-167.1896999600737
 10
88.84494998035149
 20
-167.1896999600737
 10
88.84494998035149
 20
-165.9894999600739
 10
87.11944998035148
 20
-165.9894999600739
 10
87.11944998035148
 20
-161.5190999600736
 10
85.59404998035162
 20
-161.5190999600736
 10
85.59404998035162
 20
-166.2195999600736
 10
71.59444998035148
 20
-166.2195999600736
 10
71.59444998035148
 20
-161.5190999600736
 10
70.06904998035165
 20
-161.5190999600736
 10
70.06904998035165
 20
-165.9894999600739
 10
68.34504998035157
 20
-165.9894999600739
 10
68.34504998035157
 20
-167.1896999600737
 10
65.04464998035142
 20
-167.1896999600737
 10
65.04464998035142
 20
-165.9894999600739
 10
63.31804998035149
 20
-165.9894999600739
 10
63.31804998035149
 20
-159.7195999600737
 10
62.49534998035138
 20
-159.7195999600737
 10
62.49534998035138
 20
-156.9206999600741
 10
63.31804998035149
 20
-156.9206999600741
 10
63.31804998035149
 20
-153.6905999600738
 10
70.06929957770228
 20
-153.6905999600738
 10
70.06904998035165
 20
-156.9206999600741
 10
71.59444998035148
 20
-156.9206999600741
 10
71.59444998035148
 20
-152.2202999600736
  0
ENDBLK
  5
91
330
8E
100
AcDbEntity
  8
0
100
AcDbBlockEnd
  0
ENDSEC
  0
SECTION
  2
ENTITIES
  0
SPLINE
  5
79
330
70
100
AcDbEntity
  8
プレート
 62
   250
420
  2299925
370
    35
100
AcDbSpline
210
0.0
220
0.0
230
1.0
 70
     9
 71
     3
 72
   239
 73
   235
 74
     0
 42
0.0000000001
 43
0.0000000001
 40
0.0
 40
0.0
 40
0.0
 40
0.0
 40
1.0
 40
1.0
 40
1.0
 40
2.0
 40
2.0
 40
2.0
 40
3.0
 40
3.0
 40
3.0
 40
4.0
 40
4.0
 40
4.0
 40
5.0
 40
5.0
 40
5.0
 40
6.0
 40
6.0
 40
6.0
 40
7.0
 40
7.0
 40
7.0
 40
8.0
 40
8.0
 40
8.0
 40
9.0
 40
9.0
 40
9.0
 40
10.0
 40
10.0
 40
10.0
 40
11.0
 40
11.0
 40
11.0
 40
12.0
 40
12.0
 40
12.0
 40
13.0
 40
13.0
 40
13.0
 40
14.0
 40
14.0
 40
14.0
 40
15.0
 40
15.0
 40
15.0
 40
16.0
 40
16.0
 40
16.0
 40
17.0
 40
17.0
 40
17.0
 40
18.0
 40
18.0
 40
18.0
 40
19.0
 40
19.0
 40
19.0
 40
20.0
 40
20.0
 40
20.0
 40
21.0
 40
21.0
 40
21.0
 40
22.0
 40
22.0
 40
22.0
 40
23.0
 40
23.0
 40
23.0
 40
24.0
 40
24.0
 40
24.0
 40
25.0
 40
25.0
 40
25.0
 40
26.0
 40
26.0
 40
26.0
 40
27.0
 40
27.0
 40
27.0
 40
28.0
 40
28.0
 40
28.0
 40
29.0
 40
29.0
 40
29.0
 40
30.0
 40
30.0
 40
30.0
 40
31.0
 40
31.0
 40
31.0
 40
32.0
 40
32.0
 40
32.0
 40
33.0
 40
33.0
 40
33.0
 40
34.0
 40
34.0
 40
34.0
 40
35.0
 40
35.0
 40
35.0
 40
36.0
 40
36.0
 40
36.0
 40
37.0
 40
37.0
 40
37.0
 40
38.0
 40
38.0
 40
38.0
 40
39.0
 40
39.0
 40
39.0
 40
40.0
 40
40.0
 40
40.0
 40
41.0
 40
41.0
 40
41.0
 40
42.0
 40
42.0
 40
42.0
 40
43.0
 40
43.0
 40
43.0
 40
44.0
 40
44.0
 40
44.0
 40
45.0
 40
45.0
 40
45.0
 40
46.0
 40
46.0
 40
46.0
 40
47.0
 40
47.0
 40
47.0
 40
48.0
 40
48.0
 40
48.0
 40
49.0
 40
49.0
 40
49.0
 40
50.0
 40
50.0
 40
50.0
 40
51.0
 40
51.0
 40
51.0
 40
52.0
 40
52.0
 40
52.0
 40
53.0
 40
53.0
 40
53.0
 40
54.0
 40
54.0
 40
54.0
 40
55.0
 40
55.0
 40
55.0
 40
56.0
 40
56.0
 40
56.0
 40
57.0
 40
57.0
 40
57.0
 40
58.0
 40
58.0
 40
58.0
 40
59.0
 40
59.0
 40
59.0
 40
60.0
 40
60.0
 40
60.0
 40
61.0
 40
61.0
 40
61.0
 40
62.0
 40
62.0
 40
62.0
 40
63.0
 40
63.0
 40
63.0
 40
64.0
 40
64.0
 40
64.0
 40
65.0
 40
65.0
 40
65.0
 40
66.0
 40
66.0
 40
66.0
 40
67.0
 40
67.0
 40
67.0
 40
68.0
 40
68.0
 40
68.0
 40
69.0
 40
69.0
 40
69.0
 40
70.0
 40
70.0
 40
70.0
 40
71.0
 40
71.0
 40
71.0
 40
72.0
 40
72.0
 40
72.0
 40
73.0
 40
73.0
 40
73.0
 40
74.0
 40
74.0
 40
74.0
 40
75.0
 40
75.0
 40
75.0
 40
76.0
 40
76.0
 40
76.0
 40
77.0
 40
77.0
 40
77.0
 40
78.0
 40
78.0
 40
78.0
 40
78.0
 10
393.1983078715374
 20
-168.7403892942949
 30
0.0
 10
393.1983078715374
 20
-168.7403892942949
 30
0.0
 10
375.1483634858566
 20
-168.7403892942949
 30
0.0
 10
375.1483634858566
 20
-168.7403892942949
 30
0.0
 10
374.8722211110107
 20
-168.7403892942949
 30
0.0
 10
374.648363485984
 20
-168.5165316692662
 30
0.0
 10
374.648363485984
 20
-168.2403892944197
 30
0.0
 10
374.648363485984
 20
-168.2403892944197
 30
0.0
 10
374.648363485984
 20
-148.2806651620439
 30
0.0
 10
374.648363485984
 20
-148.2806651620439
 30
0.0
 10
374.648363485984
 20
-148.0044174961133
 30
0.0
 10
374.8723854596999
 20
-147.780516282323
 30
0.0
 10
375.1486330854748
 20
-147.7806652348533
 30
0.0
 10
375.1486330854748
 20
-147.7806652348533
 30
0.0
 10
393.1983078715374
 20
-147.7903976070954
 30
0.0
 10
393.1983078715374
 20
-147.7903976070954
 30
0.0
 10
393.4744322746802
 20
-147.7903976070954
 30
0.0
 10
393.6983204175253
 20
-147.5665309960945
 30
0.0
 10
393.6983204175253
 20
-147.2903850611049
 30
0.0
 10
393.6983204175253
 20
-147.2903850611049
 30
0.0
 10
393.7082681307396
 20
-129.2403886260018
 30
0.0
 10
393.7082681307396
 20
-129.2403886260018
 30
0.0
 10
393.7082681307396
 20
-128.9642642228591
 30
0.0
 10
393.4844661152797
 20
-128.7404191437049
 30
0.0
 10
393.2082986484447
 20
-128.7403976118578
 30
0.0
 10
393.2082986484447
 20
-128.7403976118578
 30
0.0
 10
390.3980355161426
 20
-128.7403976118578
 30
0.0
 10
390.3980355161426
 20
-128.7403976118578
 30
0.0
 10
390.1219984173579
 20
-128.7403976118578
 30
0.0
 10
389.8981844233219
 20
-128.5167042618984
 30
0.0
 10
389.8980355889456
 20
-128.2406672032386
 30
0.0
 10
389.8980355889456
 20
-128.2406672032386
 30
0.0
 10
389.8883031930017
 20
-110.1903886307643
 30
0.0
 10
389.8883031930017
 20
-110.1903886307643
 30
0.0
 10
389.8883031930017
 20
-109.9142642276216
 30
0.0
 10
389.6644150501534
 20
-109.6903976166204
 30
0.0
 10
389.3882906470106
 20
-109.6903976166204
 30
0.0
 10
389.3882906470106
 20
-109.6903976166204
 30
0.0
 10
386.5783290320442
 20
-109.6903976166204
 30
0.0
 10
386.5783290320442
 20
-109.6903976166204
 30
0.0
 10
386.3021866571984
 20
-109.6903976166204
 30
0.0
 10
386.0783290321716
 20
-109.4665399915916
 30
0.0
 10
386.0783290321716
 20
-109.1903976167455
 30
0.0
 10
386.0783290321716
 20
-109.1903976167455
 30
0.0
 10
386.0783290321716
 20
-91.14039762125775
 30
0.0
 10
386.0783290321716
 20
-91.14039762125775
 30
0.0
 10
386.0783290321716
 20
-90.86425524641159
 30
0.0
 10
385.854471407141
 20
-90.64039762138287
 30
0.0
 10
385.5783290322951
 20
-90.64039762138287
 30
0.0
 10
385.5783290322951
 20
-90.64039762138287
 30
0.0
 10
291.2093379387432
 20
-90.64039762138287
 30
0.0
 10
291.2093379387432
 20
-90.64039762138287
 30
0.0
 10
291.1967228925096
 20
-90.64039762138287
 30
0.0
 10
291.1841123648805
 20
-90.64087503949624
 30
0.0
 10
291.1715334286972
 20
-90.64182885078071
 30
0.0
 10
291.1715334286972
 20
-90.64182885078071
 30
0.0
 10
283.2503874551893
 20
-91.24245821279869
 30
0.0
 10
283.2503874551893
 20
-91.24245821279869
 30
0.0
 10
283.2281497136854
 20
-91.24414441332261
 30
0.0
 10
283.206049699986
 20
-91.24731653315965
 30
0.0
 10
283.1842354702952
 20
-91.25195332109916
 30
0.0
 10
283.1842354702952
 20
-91.25195332109916
 30
0.0
 10
208.764429107252
 20
-107.0704747871108
 30
0.0
 10
208.764429107252
 20
-107.0704747871108
 30
0.0
 10
208.7098664858035
 20
-107.0820725060624
 30
0.0
 10
208.6576292040605
 20
-107.1027188013156
 30
0.0
 10
208.6098812626359
 20
-107.1315583719426
 30
0.0
 10
208.6098812626359
 20
-107.1315583719426
 30
0.0
 10
205.0481693435878
 20
-109.282818497024
 30
0.0
 10
205.0481693435878
 20
-109.282818497024
 30
0.0
 10
204.9394871420586
 20
-109.3484621233951
 30
0.0
 10
204.8099020782656
 20
-109.3703004046731
 30
0.0
 10
204.6857085378256
 20
-109.3439020879631
 30
0.0
 10
204.6857085378256
 20
-109.3439020879631
 30
0.0
 10
130.4526759489525
 20
-93.56508543069095
 30
0.0
 10
130.4526759489525
 20
-93.56508543069095
 30
0.0
 10
130.3811004382515
 20
-93.5498714912744
 30
0.0
 10
130.3137366132869
 20
-93.51913267930479
 30
0.0
 10
130.255339364111
 20
-93.47503870042599
 30
0.0
 10
130.255339364111
 20
-93.47503870042599
 30
0.0
 10
126.6349200591679
 20
-90.74137068323844
 30
0.0
 10
126.6349200591679
 20
-90.74137068323844
 30
0.0
 10
126.5481406288989
 20
-90.67584618646192
 30
0.0
 10
126.4423658199381
 20
-90.64039762138287
 30
0.0
 10
126.3336270081198
 20
-90.64039762138287
 30
0.0
 10
126.3336270081198
 20
-90.64039762138287
 30
0.0
 10
70.15834501419859
 20
-90.64039762138287
 30
0.0
 10
70.15834501419859
 20
-90.64039762138287
 30
0.0
 10
69.88220263935241
 20
-90.64039762138287
 30
0.0
 10
69.6583450143237
 20
-90.86425524641159
 30
0.0
 10
69.6583450143237
 20
-91.14039762125775
 30
0.0
 10
69.6583450143237
 20
-91.14039762125775
 30
0.0
 10
69.6583450143237
 20
-111.0903893087075
 30
0.0
 10
69.6583450143237
 20
-111.0903893087075
 30
0.0
 10
69.6583450143237
 20
-111.3665316835537
 30
0.0
 10
69.43448738929498
 20
-111.5903893085827
 30
0.0
 10
69.15834501444881
 20
-111.5903893085827
 30
0.0
 10
69.15834501444881
 20
-111.5903893085827
 30
0.0
 10
65.86835240730678
 20
-111.5903893085827
 30
0.0
 10
65.86835240730678
 20
-111.5903893085827
 30
0.0
 10
65.59220647231723
 20
-111.5903893085827
 30
0.0
 10
65.36836139316313
 20
-111.8142559195833
 30
0.0
 10
65.36836139316313
 20
-112.0904018545729
 30
0.0
 10
65.36836139316313
 20
-112.0904018545729
 30
0.0
 10
65.37807225709787
 20
-130.140120300787
 30
0.0
 10
65.37807225709787
 20
-130.140120300787
 30
0.0
 10
65.3782208799616
 20
-130.4163676937799
 30
0.0
 10
65.15431976255839
 20
-130.6403893038202
 30
0.0
 10
64.87807232958546
 20
-130.6403893038202
 30
0.0
 10
64.87807232958546
 20
-130.6403893038202
 30
0.0
 10
62.72835064485382
 20
-130.6403893038202
 30
0.0
 10
62.72835064485382
 20
-130.6403893038202
 30
0.0
 10
62.45220827000765
 20
-130.6403893038202
 30
0.0
 10
62.22835064497894
 20
-130.8642469288486
 30
0.0
 10
62.22835064497894
 20
-131.1403893036948
 30
0.0
 10
62.22835064497894
 20
-131.1403893036948
 30
0.0
 10
62.22835064497894
 20
-149.2192862237759
 30
0.0
 10
62.22835064497894
 20
-149.2192862237759
 30
0.0
 10
62.22835064497894
 20
-149.495855441757
 30
0.0
 10
62.00382645070594
 20
-149.7198894726045
 30
0.0
 10
61.72725789323179
 20
-149.7192850295429
 30
0.0
 10
61.72725789323179
 20
-149.7192850295429
 30
0.0
 10
57.6583453564079
 20
-149.7103923847187
 30
0.0
 10
57.6583453564079
 20
-149.7103923847187
 30
0.0
 10
57.38222095326513
 20
-149.7103923847187
 30
0.0
 10
57.15835434226423
 20
-149.9342374638728
 30
0.0
 10
57.15835434226423
 20
-150.2103833988623
 30
0.0
 10
57.15835434226423
 20
-150.2103833988623
 30
0.0
 10
57.08835430837331
 20
-187.300389052296
 30
0.0
 10
57.08835430837331
 20
-187.300389052296
 30
0.0
 10
57.08835430837331
 20
-187.5765349872855
 30
0.0
 10
57.31222091937453
 20
-187.8003800664396
 30
0.0
 10
57.5883453225173
 20
-187.8003800664396
 30
0.0
 10
57.5883453225173
 20
-187.8003800664396
 30
0.0
 10
85.1683586755395
 20
-187.7903892895324
 30
0.0
 10
85.1683586755395
 20
-187.7903892895324
 30
0.0
 10
85.44450461052907
 20
-187.7903892895324
 30
0.0
 10
85.66834968968318
 20
-187.5665226785315
 30
0.0
 10
85.66834968968318
 20
-187.290376743542
 30
0.0
 10
85.66834968968318
 20
-187.290376743542
 30
0.0
 10
85.65863883034973
 20
-171.0206824379405
 30
0.0
 10
85.65863883034973
 20
-171.0206824379405
 30
0.0
 10
85.65847394027512
 20
-170.7444235593928
 30
0.0
 10
85.8823798134049
 20
-170.5203840041364
 30
0.0
 10
86.15863874116191
 20
-170.5203840041364
 30
0.0
 10
86.15863874116191
 20
-170.5203840041364
 30
0.0
 10
112.4000077531985
 20
-170.5203840041364
 30
0.0
 10
112.4000077531985
 20
-170.5203840041364
 30
0.0
 10
112.7182790314016
 20
-170.5203840041364
 30
0.0
 10
112.9555447680034
 20
-170.8138041608859
 30
0.0
 10
112.8889349613004
 20
-171.1250271359059
 30
0.0
 10
112.8889349613004
 20
-171.1250271359059
 30
0.0
 10
109.4783519895032
 20
-187.0603950880548
 30
0.0
 10
109.4783519895032
 20
-187.0603950880548
 30
0.0
 10
109.4783519895032
 20
-187.3365410230443
 30
0.0
 10
109.7021970686573
 20
-187.5603861021984
 30
0.0
 10
109.9783430036472
 20
-187.5603861021984
 30
0.0
 10
109.9783430036472
 20
-187.5603861021984
 30
0.0
 10
136.9847910220692
 20
-193.3168392121959
 30
0.0
 10
136.9847910220692
 20
-193.3168392121959
 30
0.0
 10
137.2609369570584
 20
-193.3168392121959
 30
0.0
 10
137.4847820362125
 20
-193.092972601195
 30
0.0
 10
137.4847820362125
 20
-192.8168266662055
 30
0.0
 10
137.4847820362125
 20
-192.8168266662055
 30
0.0
 10
137.5683471335767
 20
-192.4503761658088
 30
0.0
 10
137.5683471335767
 20
-192.4503761658088
 30
0.0
 10
137.5683471335767
 20
-192.4503761658088
 30
0.0
 10
193.0783309453827
 20
-204.2603788077131
 30
0.0
 10
193.0783309453827
 20
-204.2603788077131
 30
0.0
 10
193.3544768803723
 20
-204.2603788077131
 30
0.0
 10
193.5783434913732
 20
-204.036533728559
 30
0.0
 10
193.5783434913732
 20
-203.7603877935695
 30
0.0
 10
193.5783434913732
 20
-203.7603877935695
 30
0.0
 10
197.474142479611
 20
-185.4168529359791
 30
0.0
 10
197.474142479611
 20
-185.4168529359791
 30
0.0
 10
197.5232257607152
 20
-185.1857422240117
 30
0.0
 10
197.7273807115399
 20
-185.0205315403128
 30
0.0
 10
197.9636460110176
 20
-185.0207263038796
 30
0.0
 10
197.9636460110176
 20
-185.0207263038796
 30
0.0
 10
209.2736199933469
 20
-185.0300495980034
 30
0.0
 10
209.2736199933469
 20
-185.0300495980034
 30
0.0
 10
209.5096226069086
 20
-185.0302441450276
 30
0.0
 10
209.7133535602732
 20
-185.195431734877
 30
0.0
 10
209.7623249552225
 20
-185.4262976568608
 30
0.0
 10
209.7623249552225
 20
-185.4262976568608
 30
0.0
 10
213.4583315845477
 20
-202.8503873529875
 30
0.0
 10
213.4583315845477
 20
-202.8503873529875
 30
0.0
 10
213.4583315845477
 20
-203.1265332879771
 30
0.0
 10
213.6821981955487
 20
-203.3503783671311
 30
0.0
 10
213.9583441305382
 20
-203.3503783671311
 30
0.0
 10
213.9583441305382
 20
-203.3503783671311
 30
0.0
 10
264.8083195342211
 20
-192.5303885084538
 30
0.0
 10
264.8083195342211
 20
-192.5303885084538
 30
0.0
 10
264.8083195342211
 20
-192.5303885084538
 30
0.0
 10
264.9018754084924
 20
-192.8868267000964
 30
0.0
 10
264.9018754084924
 20
-192.8868267000964
 30
0.0
 10
264.9018754084924
 20
-193.162972635086
 30
0.0
 10
265.1257420194933
 20
-193.3868392460869
 30
0.0
 10
265.4018879544828
 20
-193.3868392460869
 30
0.0
 10
265.4018879544828
 20
-193.3868392460869
 30
0.0
 10
292.3883328872436
 20
-187.6403769129966
 30
0.0
 10
292.3883328872436
 20
-187.6403769129966
 30
0.0
 10
292.6644788222332
 20
-187.6403769129966
 30
0.0
 10
292.8883239013873
 20
-187.4165318338425
 30
0.0
 10
292.8883239013873
 20
-187.1403858988529
 30
0.0
 10
292.8883239013873
 20
-187.1403858988529
 30
0.0
 10
289.10674883306
 20
-169.3543632575993
 30
0.0
 10
289.10674883306
 20
-169.3543632575993
 30
0.0
 10
289.0406165401288
 20
-169.0433207850465
 30
0.0
 10
289.2778216953758
 20
-168.7503800712021
 30
0.0
 10
289.5958168209673
 20
-168.7503800712021
 30
0.0
 10
289.5958168209673
 20
-168.7503800712021
 30
0.0
 10
307.4683250506284
 20
-168.7503800712021
 30
0.0
 10
307.4683250506284
 20
-168.7503800712021
 30
0.0
 10
307.7444674254749
 20
-168.7503800712021
 30
0.0
 10
307.9683250505036
 20
-168.9742376962309
 30
0.0
 10
307.9683250505036
 20
-169.2503800710774
 30
0.0
 10
307.9683250505036
 20
-169.2503800710774
 30
0.0
 10
307.9683250505036
 20
-187.300389052296
 30
0.0
 10
307.9683250505036
 20
-187.300389052296
 30
0.0
 10
307.9683250505036
 20
-187.5765349872855
 30
0.0
 10
308.1921701296577
 20
-187.8003800664396
 30
0.0
 10
308.4683160646473
 20
-187.8003800664396
 30
0.0
 10
308.4683160646473
 20
-187.8003800664396
 30
0.0
 10
393.2082986484447
 20
-187.8103923751936
 30
0.0
 10
393.2082986484447
 20
-187.8103923751936
 30
0.0
 10
393.4844661152797
 20
-187.8103708433469
 30
0.0
 10
393.7082681307396
 20
-187.586504232346
 30
0.0
 10
393.7082681307396
 20
-187.3103798292032
 30
0.0
 10
393.7082681307396
 20
-187.3103798292032
 30
0.0
 10
393.6983204175253
 20
-169.2403803084386
 30
0.0
 10
393.6983204175253
 20
-169.2403803084386
 30
0.0
 10
393.6983204175253
 20
-168.964234373449
 30
0.0
 10
393.4744322746802
 20
-168.7403892942949
 30
0.0
 10
393.1983078715374
 20
-168.7403892942949
 30
0.0
  0
LINE
  5
7A
330
70
100
AcDbEntity
  8
プレート
 62
   250
420
  2299925
370
    35
100
AcDbLine
 10
64.37625031473936
 20
-171.2688961527729
 30
0.0
 11
78.3758503147392
 21
-171.2688961527729
 31
0.0
  0
LINE
  5
7B
330
70
100
AcDbEntity
  8
プレート
 62
   250
420
  2299925
370
    35
100
AcDbLine
 10
78.3758503147392
 20
-171.2688961527729
 30
0.0
 11
78.3758503147392
 21
-185.269796152773
 31
0.0
  0
LINE
  5
7C
330
70
100
AcDbEntity
  8
プレート
 62
   250
420
  2299925
370
    35
100
AcDbLine
 10
78.3758503147392
 20
-185.269796152773
 30
0.0
 11
64.37625031473936
 21
-185.269796152773
 31
0.0
  0
LINE
  5
7D
330
70
100
AcDbEntity
  8
プレート
 62
   250
420
  2299925
370
    35
100
AcDbLine
 10
64.37625031473936
 20
-185.269796152773
 30
0.0
 11
64.37625031473936
 21
-171.2688961527729
 31
0.0
  0
LINE
  5
7E
330
70
100
AcDbEntity
  8
プレート
 62
   250
420
  2299925
370
    35
100
AcDbLine
 10
315.2646503147391
 20
-171.2688961527729
 30
0.0
 11
329.2656503147393
 21
-171.2688961527729
 31
0.0
  0
LINE
  5
7F
330
70
100
AcDbEntity
  8
プレート
 62
   250
420
  2299925
370
    35
100
AcDbLine
 10
329.2656503147393
 20
-171.2688961527729
 30
0.0
 11
329.2656503147393
 21
-185.269796152773
 31
0.0
  0
LINE
  5
80
330
70
100
AcDbEntity
  8
プレート
 62
   250
420
  2299925
370
    35
100
AcDbLine
 10
329.2656503147393
 20
-185.269796152773
 30
0.0
 11
315.2646503147391
 21
-185.269796152773
 31
0.0
  0
LINE
  5
81
330
70
100
AcDbEntity
  8
プレート
 62
   250
420
  2299925
370
    35
100
AcDbLine
 10
315.2646503147391
 20
-185.269796152773
 30
0.0
 11
315.2646503147391
 21
-171.2688961527729
 31
0.0
  0
LINE
  5
82
330
70
100
AcDbEntity
  8
プレート
 62
   250
420
  2299925
370
    35
100
AcDbLine
 10
339.0776503147392
 20
-171.2688961527729
 30
0.0
 11
353.0766503147393
 21
-171.2688961527729
 31
0.0
  0
LINE
  5
83
330
70
100
AcDbEntity
  8
プレート
 62
   250
420
  2299925
370
    35
100
AcDbLine
 10
353.0766503147393
 20
-171.2688961527729
 30
0.0
 11
353.0766503147393
 21
-185.269796152773
 31
0.0
  0
LINE
  5
84
330
70
100
AcDbEntity
  8
プレート
 62
   250
420
  2299925
370
    35
100
AcDbLine
 10
353.0766503147393
 20
-185.269796152773
 30
0.0
 11
339.0776503147392
 21
-185.269796152773
 31
0.0
  0
LINE
  5
85
330
70
100
AcDbEntity
  8
プレート
 62
   250
420
  2299925
370
    35
100
AcDbLine
 10
339.0776503147392
 20
-185.269796152773
 30
0.0
 11
339.0776503147392
 21
-171.2688961527729
 31
0.0
  0
LINE
  5
86
330
70
100
AcDbEntity
  8
プレート
 62
   250
420
  2299925
370
    35
100
AcDbLine
 10
358.1276503147394
 20
-171.2688961527729
 30
0.0
 11
372.1266503147395
 21
-171.2688961527729
 31
0.0
  0
LINE
  5
87
330
70
100
AcDbEntity
  8
プレート
 62
   250
420
  2299925
370
    35
100
AcDbLine
 10
372.1266503147395
 20
-171.2688961527729
 30
0.0
 11
372.1266503147395
 21
-185.269796152773
 31
0.0
  0
LINE
  5
88
330
70
100
AcDbEntity
  8
プレート
 62
   250
420
  2299925
370
    35
100
AcDbLine
 10
372.1266503147395
 20
-185.269796152773
 30
0.0
 11
358.1276503147394
 21
-185.269796152773
 31
0.0
  0
LINE
  5
89
330
70
100
AcDbEntity
  8
プレート
 62
   250
420
  2299925
370
    35
100
AcDbLine
 10
358.1276503147394
 20
-185.269796152773
 30
0.0
 11
358.1276503147394
 21
-171.2688961527729
 31
0.0
  0
LINE
  5
8A
330
70
100
AcDbEntity
  8
プレート
 62
   250
420
  2299925
370
    35
100
AcDbLine
 10
377.1776503147396
 20
-171.2688961527729
 30
0.0
 11
391.1776503147394
 21
-171.2688961527729
 31
0.0
  0
LINE
  5
8B
330
70
100
AcDbEntity
  8
プレート
 62
   250
420
  2299925
370
    35
100
AcDbLine
 10
391.1776503147394
 20
-171.2688961527729
 30
0.0
 11
391.1776503147394
 21
-185.269796152773
 31
0.0
  0
LINE
  5
8C
330
70
100
AcDbEntity
  8
プレート
 62
   250
420
  2299925
370
    35
100
AcDbLine
 10
391.1776503147394
 20
-185.269796152773
 30
0.0
 11
377.1776503147396
 21
-185.269796152773
 31
0.0
  0
LINE
  5
8D
330
70
100
AcDbEntity
  8
プレート
 62
   250
420
  2299925
370
    35
100
AcDbLine
 10
377.1776503147396
 20
-185.269796152773
 30
0.0
 11
377.1776503147396
 21
-171.2688961527729
 31
0.0
  0
INSERT
  5
8F
330
70
100
AcDbEntity
  8
プレート
100
AcDbBlockReference
  2
Block_0
 10
0.0
 20
0.0
 30
0.0
  0
LINE
  5
93
330
70
100
AcDbEntity
  8
プレート
 62
   250
420
  2299925
370
    35
100
AcDbLine
 10
102.4761503147392
 20
-152.2203961527726
 30
0.0
 11
116.4758503147392
 21
-152.2203961527726
 31
0.0
  0
LINE
  5
94
330
70
100
AcDbEntity
  8
プレート
 62
   250
420
  2299925
370
    35
100
AcDbLine
 10
116.4758503147392
 20
-152.2203961527726
 30
0.0
 11
116.4758503147392
 21
-166.2196961527726
 31
0.0
  0
LINE
  5
95
330
70
100
AcDbEntity
  8
プレート
 62
   250
420
  2299925
370
    35
100
AcDbLine
 10
116.4758503147392
 20
-166.2196961527726
 30
0.0
 11
102.4761503147392
 21
-166.2196961527726
 31
0.0
  0
LINE
  5
96
330
70
100
AcDbEntity
  8
プレート
 62
   250
420
  2299925
370
    35
100
AcDbLine
 10
102.4761503147392
 20
-166.2196961527726
 30
0.0
 11
102.4761503147392
 21
-152.2203961527726
 31
0.0
  0
LINE
  5
97
330
70
100
AcDbEntity
  8
プレート
 62
   250
420
  2299925
370
    35
100
AcDbLine
 10
286.6896503147395
 20
-152.2203961527726
 30
0.0
 11
300.6906503147391
 21
-152.2203961527726
 31
0.0
  0
LINE
  5
98
330
70
100
AcDbEntity
  8
プレート
 62
   250
420
  2299925
370
    35
100
AcDbLine
 10
300.6906503147391
 20
-152.2203961527726
 30
0.0
 11
300.6906503147391
 21
-166.2196961527726
 31
0.0
  0
LINE
  5
99
330
70
100
AcDbEntity
  8
プレート
 62
   250
420
  2299925
370
    35
100
AcDbLine
 10
300.6906503147391
 20
-166.2196961527726
 30
0.0
 11
286.6896503147395
 21
-166.2196961527726
 31
0.0
  0
LINE
  5
9A
330
70
100
AcDbEntity
  8
プレート
 62
   250
420
  2299925
370
    35
100
AcDbLine
 10
286.6896503147395
 20
-166.2196961527726
 30
0.0
 11
286.6896503147395
 21
-152.2203961527726
 31
0.0
  0
LINE
  5
9B
330
70
100
AcDbEntity
  8
プレート
 62
   250
420
  2299925
370
    35
100
AcDbLine
 10
305.739650314739
 20
-152.2203961527726
 30
0.0
 11
319.7406503147393
 21
-152.2203961527726
 31
0.0
  0
LINE
  5
9C
330
70
100
AcDbEntity
  8
プレート
 62
   250
420
  2299925
370
    35
100
AcDbLine
 10
319.7406503147393
 20
-152.2203961527726
 30
0.0
 11
319.7406503147393
 21
-166.2196961527726
 31
0.0
  0
LINE
  5
9D
330
70
100
AcDbEntity
  8
プレート
 62
   250
420
  2299925
370
    35
100
AcDbLine
 10
319.7406503147393
 20
-166.2196961527726
 30
0.0
 11
305.739650314739
 21
-166.2196961527726
 31
0.0
  0
LINE
  5
9E
330
70
100
AcDbEntity
  8
プレート
 62
   250
420
  2299925
370
    35
100
AcDbLine
 10
305.739650314739
 20
-166.2196961527726
 30
0.0
 11
305.739650314739
 21
-152.2203961527726
 31
0.0
  0
LINE
  5
9F
330
70
100
AcDbEntity
  8
プレート
 62
   250
420
  2299925
370
    35
100
AcDbLine
 10
331.9336503147395
 20
-152.2203961527726
 30
0.0
 11
345.932650314739
 21
-152.2203961527726
 31
0.0
  0
LINE
  5
A0
330
70
100
AcDbEntity
  8
プレート
 62
   250
420
  2299925
370
    35
100
AcDbLine
 10
345.932650314739
 20
-152.2203961527726
 30
0.0
 11
345.932650314739
 21
-166.2196961527726
 31
0.0
  0
LINE
  5
A1
330
70
100
AcDbEntity
  8
プレート
 62
   250
420
  2299925
370
    35
100
AcDbLine
 10
345.932650314739
 20
-166.2196961527726
 30
0.0
 11
331.9336503147395
 21
-166.2196961527726
 31
0.0
  0
LINE
  5
A2
330
70
100
AcDbEntity
  8
プレート
 62
   250
420
  2299925
370
    35
100
AcDbLine
 10
331.9336503147395
 20
-166.2196961527726
 30
0.0
 11
331.9336503147395
 21
-152.2203961527726
 31
0.0
  0
LINE
  5
A3
330
70
100
AcDbEntity
  8
プレート
 62
   250
420
  2299925
370
    35
100
AcDbLine
 10
358.1276503147394
 20
-152.2203961527726
 30
0.0
 11
372.1266503147395
 21
-152.2203961527726
 31
0.0
  0
LINE
  5
A4
330
70
100
AcDbEntity
  8
プレート
 62
   250
420
  2299925
370
    35
100
AcDbLine
 10
372.1266503147395
 20
-152.2203961527726
 30
0.0
 11
372.1266503147395
 21
-166.2196961527726
 31
0.0
  0
LINE
  5
A5
330
70
100
AcDbEntity
  8
プレート
 62
   250
420
  2299925
370
    35
100
AcDbLine
 10
372.1266503147395
 20
-166.2196961527726
 30
0.0
 11
358.1276503147394
 21
-166.2196961527726
 31
0.0
  0
LINE
  5
A6
330
70
100
AcDbEntity
  8
プレート
 62
   250
420
  2299925
370
    35
100
AcDbLine
 10
358.1276503147394
 20
-166.2196961527726
 30
0.0
 11
358.1276503147394
 21
-152.2203961527726
 31
0.0
  0
LINE
  5
A7
330
70
100
AcDbEntity
  8
プレート
 62
   250
420
  2299925
370
    35
100
AcDbLine
 10
341.3426019484692
 20
-133.1703915712033
 30
0.0
 11
341.3426019484692
 21
-137.8707915712035
 31
0.0
  0
LINE
  5
A8
330
70
100
AcDbEntity
  8
プレート
 62
   250
420
  2299925
370
    35
100
AcDbLine
 10
341.3426019484692
 20
-137.8707915712035
 30
0.0
 11
339.8166019484697
 21
-137.8707915712035
 31
0.0
  0
LINE
  5
A9
330
70
100
AcDbEntity
  8
プレート
 62
   250
420
  2299925
370
    35
100
AcDbLine
 10
339.8166019484697
 20
-137.8707915712035
 30
0.0
 11
339.8166019484697
 21
-134.6406915712031
 31
0.0
  0
LINE
  5
AA
330
70
100
AcDbEntity
  8
プレート
 62
   250
420
  2299925
370
    35
100
AcDbLine
 10
339.8166019484697
 20
-134.6406915712031
 30
0.0
 11
333.0676019484694
 21
-134.6406915712031
 31
0.0
  0
LINE
  5
AB
330
70
100
AcDbEntity
  8
プレート
 62
   250
420
  2299925
370
    35
100
AcDbLine
 10
333.0676019484694
 20
-134.6406915712031
 30
0.0
 11
333.0676019484694
 21
-137.8707915712035
 31
0.0
  0
LINE
  5
AC
330
70
100
AcDbEntity
  8
プレート
 62
   250
420
  2299925
370
    35
100
AcDbLine
 10
333.0676019484694
 20
-137.8707915712035
 30
0.0
 11
332.2416019484695
 21
-137.8707915712035
 31
0.0
  0
LINE
  5
AD
330
70
100
AcDbEntity
  8
プレート
 62
   250
420
  2299925
370
    35
100
AcDbLine
 10
332.2416019484695
 20
-137.8707915712035
 30
0.0
 11
332.2416019484695
 21
-140.6696915712037
 31
0.0
  0
LINE
  5
AE
330
70
100
AcDbEntity
  8
プレート
 62
   250
420
  2299925
370
    35
100
AcDbLine
 10
332.2416019484695
 20
-140.6696915712037
 30
0.0
 11
333.0676019484694
 21
-140.6696915712037
 31
0.0
  0
LINE
  5
AF
330
70
100
AcDbEntity
  8
プレート
 62
   250
420
  2299925
370
    35
100
AcDbLine
 10
333.0676019484694
 20
-140.6696915712037
 30
0.0
 11
333.0676019484694
 21
-146.9395915712033
 31
0.0
  0
LINE
  5
B0
330
70
100
AcDbEntity
  8
プレート
 62
   250
420
  2299925
370
    35
100
AcDbLine
 10
333.0676019484694
 20
-146.9395915712033
 30
0.0
 11
334.7926019484698
 21
-146.9395915712033
 31
0.0
  0
LINE
  5
B1
330
70
100
AcDbEntity
  8
プレート
 62
   250
420
  2299925
370
    35
100
AcDbLine
 10
334.7926019484698
 20
-146.9395915712033
 30
0.0
 11
334.7926019484698
 21
-148.1397915712037
 31
0.0
  0
LINE
  5
B2
330
70
100
AcDbEntity
  8
プレート
 62
   250
420
  2299925
370
    35
100
AcDbLine
 10
334.7926019484698
 20
-148.1397915712037
 30
0.0
 11
338.0926019484696
 21
-148.1397915712037
 31
0.0
  0
LINE
  5
B3
330
70
100
AcDbEntity
  8
プレート
 62
   250
420
  2299925
370
    35
100
AcDbLine
 10
338.0926019484696
 20
-148.1397915712037
 30
0.0
 11
338.0926019484696
 21
-146.9395915712033
 31
0.0
  0
LINE
  5
B4
330
70
100
AcDbEntity
  8
プレート
 62
   250
420
  2299925
370
    35
100
AcDbLine
 10
338.0926019484696
 20
-146.9395915712033
 30
0.0
 11
339.8166019484697
 21
-146.9395915712033
 31
0.0
  0
LINE
  5
B5
330
70
100
AcDbEntity
  8
プレート
 62
   250
420
  2299925
370
    35
100
AcDbLine
 10
339.8166019484697
 20
-146.9395915712033
 30
0.0
 11
339.8166019484697
 21
-142.4706915712035
 31
0.0
  0
LINE
  5
B6
330
70
100
AcDbEntity
  8
プレート
 62
   250
420
  2299925
370
    35
100
AcDbLine
 10
339.8166019484697
 20
-142.4706915712035
 30
0.0
 11
341.3426019484692
 21
-142.4706915712035
 31
0.0
  0
LINE
  5
B7
330
70
100
AcDbEntity
  8
プレート
 62
   250
420
  2299925
370
    35
100
AcDbLine
 10
341.3426019484692
 20
-142.4706915712035
 30
0.0
 11
341.3426019484692
 21
-147.1696915712036
 31
0.0
  0
LINE
  5
B8
330
70
100
AcDbEntity
  8
プレート
 62
   250
420
  2299925
370
    35
100
AcDbLine
 10
341.3426019484692
 20
-147.1696915712036
 30
0.0
 11
355.3416019484687
 21
-147.1696915712036
 31
0.0
  0
LINE
  5
B9
330
70
100
AcDbEntity
  8
プレート
 62
   250
420
  2299925
370
    35
100
AcDbLine
 10
355.3416019484687
 20
-147.1696915712036
 30
0.0
 11
355.3416019484687
 21
-142.4706915712035
 31
0.0
  0
LINE
  5
BA
330
70
100
AcDbEntity
  8
プレート
 62
   250
420
  2299925
370
    35
100
AcDbLine
 10
355.3416019484687
 20
-142.4706915712035
 30
0.0
 11
356.8676019484689
 21
-142.4706915712035
 31
0.0
  0
LINE
  5
BB
330
70
100
AcDbEntity
  8
プレート
 62
   250
420
  2299925
370
    35
100
AcDbLine
 10
356.8676019484689
 20
-142.4706915712035
 30
0.0
 11
356.8676019484689
 21
-146.9395915712033
 31
0.0
  0
LINE
  5
BC
330
70
100
AcDbEntity
  8
プレート
 62
   250
420
  2299925
370
    35
100
AcDbLine
 10
356.8676019484689
 20
-146.9395915712033
 30
0.0
 11
358.5926019484687
 21
-146.9395915712033
 31
0.0
  0
LINE
  5
BD
330
70
100
AcDbEntity
  8
プレート
 62
   250
420
  2299925
370
    35
100
AcDbLine
 10
358.5926019484687
 20
-146.9395915712033
 30
0.0
 11
358.5926019484687
 21
-148.1397915712037
 31
0.0
  0
LINE
  5
BE
330
70
100
AcDbEntity
  8
プレート
 62
   250
420
  2299925
370
    35
100
AcDbLine
 10
358.5926019484687
 20
-148.1397915712037
 30
0.0
 11
361.8916019484688
 21
-148.1397915712037
 31
0.0
  0
LINE
  5
BF
330
70
100
AcDbEntity
  8
プレート
 62
   250
420
  2299925
370
    35
100
AcDbLine
 10
361.8916019484688
 20
-148.1397915712037
 30
0.0
 11
361.8916019484688
 21
-146.9395915712033
 31
0.0
  0
LINE
  5
C0
330
70
100
AcDbEntity
  8
プレート
 62
   250
420
  2299925
370
    35
100
AcDbLine
 10
361.8916019484688
 20
-146.9395915712033
 30
0.0
 11
363.6166019484686
 21
-146.9395915712033
 31
0.0
  0
LINE
  5
C1
330
70
100
AcDbEntity
  8
プレート
 62
   250
420
  2299925
370
    35
100
AcDbLine
 10
363.6166019484686
 20
-146.9395915712033
 30
0.0
 11
363.6166019484686
 21
-140.6696915712037
 31
0.0
  0
LINE
  5
C2
330
70
100
AcDbEntity
  8
プレート
 62
   250
420
  2299925
370
    35
100
AcDbLine
 10
363.6166019484686
 20
-140.6696915712037
 30
0.0
 11
364.4426019484685
 21
-140.6696915712037
 31
0.0
  0
LINE
  5
C3
330
70
100
AcDbEntity
  8
プレート
 62
   250
420
  2299925
370
    35
100
AcDbLine
 10
364.4426019484685
 20
-140.6696915712037
 30
0.0
 11
364.4426019484685
 21
-137.8707915712035
 31
0.0
  0
LINE
  5
C4
330
70
100
AcDbEntity
  8
プレート
 62
   250
420
  2299925
370
    35
100
AcDbLine
 10
364.4426019484685
 20
-137.8707915712035
 30
0.0
 11
363.6166019484686
 21
-137.8707915712035
 31
0.0
  0
LINE
  5
C5
330
70
100
AcDbEntity
  8
プレート
 62
   250
420
  2299925
370
    35
100
AcDbLine
 10
363.6166019484686
 20
-137.8707915712035
 30
0.0
 11
363.6166019484686
 21
-134.6406915712031
 31
0.0
  0
LINE
  5
C6
330
70
100
AcDbEntity
  8
プレート
 62
   250
420
  2299925
370
    35
100
AcDbLine
 10
363.6166019484686
 20
-134.6406915712031
 30
0.0
 11
356.8676019484689
 21
-134.6406915712031
 31
0.0
  0
LINE
  5
C7
330
70
100
AcDbEntity
  8
プレート
 62
   250
420
  2299925
370
    35
100
AcDbLine
 10
356.8676019484689
 20
-134.6406915712031
 30
0.0
 11
356.8676019484689
 21
-137.8707915712035
 31
0.0
  0
LINE
  5
C8
330
70
100
AcDbEntity
  8
プレート
 62
   250
420
  2299925
370
    35
100
AcDbLine
 10
356.8676019484689
 20
-137.8707915712035
 30
0.0
 11
355.3416019484687
 21
-137.8707915712035
 31
0.0
  0
LINE
  5
C9
330
70
100
AcDbEntity
  8
プレート
 62
   250
420
  2299925
370
    35
100
AcDbLine
 10
355.3416019484687
 20
-137.8707915712035
 30
0.0
 11
355.3416019484687
 21
-133.1703915712033
 31
0.0
  0
LINE
  5
CA
330
70
100
AcDbEntity
  8
プレート
 62
   250
420
  2299925
370
    35
100
AcDbLine
 10
355.3416019484687
 20
-133.1703915712033
 30
0.0
 11
341.3426019484692
 21
-133.1703915712033
 31
0.0
  0
LINE
  5
CB
330
70
100
AcDbEntity
  8
プレート
 62
   250
420
  2299925
370
    35
100
AcDbLine
 10
71.9016503147391
 20
-133.1703961527728
 30
0.0
 11
85.90125031473924
 21
-133.1703961527728
 31
0.0
  0
LINE
  5
CC
330
70
100
AcDbEntity
  8
プレート
 62
   250
420
  2299925
370
    35
100
AcDbLine
 10
85.90125031473924
 20
-133.1703961527728
 30
0.0
 11
85.90125031473924
 21
-147.169696152773
 31
0.0
  0
LINE
  5
CD
330
70
100
AcDbEntity
  8
プレート
 62
   250
420
  2299925
370
    35
100
AcDbLine
 10
85.90125031473924
 20
-147.169696152773
 30
0.0
 11
71.9016503147391
 21
-147.169696152773
 31
0.0
  0
LINE
  5
CE
330
70
100
AcDbEntity
  8
プレート
 62
   250
420
  2299925
370
    35
100
AcDbLine
 10
71.9016503147391
 20
-147.169696152773
 30
0.0
 11
71.9016503147391
 21
-133.1703961527728
 31
0.0
  0
LINE
  5
CF
330
70
100
AcDbEntity
  8
プレート
 62
   250
420
  2299925
370
    35
100
AcDbLine
 10
98.09535031473913
 20
-133.1703961527728
 30
0.0
 11
112.0950503147391
 21
-133.1703961527728
 31
0.0
  0
LINE
  5
D0
330
70
100
AcDbEntity
  8
プレート
 62
   250
420
  2299925
370
    35
100
AcDbLine
 10
112.0950503147391
 20
-133.1703961527728
 30
0.0
 11
112.0950503147391
 21
-147.169696152773
 31
0.0
  0
LINE
  5
D1
330
70
100
AcDbEntity
  8
プレート
 62
   250
420
  2299925
370
    35
100
AcDbLine
 10
112.0950503147391
 20
-147.169696152773
 30
0.0
 11
98.09535031473913
 21
-147.169696152773
 31
0.0
  0
LINE
  5
D2
330
70
100
AcDbEntity
  8
プレート
 62
   250
420
  2299925
370
    35
100
AcDbLine
 10
98.09535031473913
 20
-147.169696152773
 30
0.0
 11
98.09535031473913
 21
-133.1703961527728
 31
0.0
  0
LINE
  5
D3
330
70
100
AcDbEntity
  8
プレート
 62
   250
420
  2299925
370
    35
100
AcDbLine
 10
291.261650314739
 20
-133.1703961527728
 30
0.0
 11
305.2616503147395
 21
-133.1703961527728
 31
0.0
  0
LINE
  5
D4
330
70
100
AcDbEntity
  8
プレート
 62
   250
420
  2299925
370
    35
100
AcDbLine
 10
305.2616503147395
 20
-133.1703961527728
 30
0.0
 11
305.2616503147395
 21
-147.169696152773
 31
0.0
  0
LINE
  5
D5
330
70
100
AcDbEntity
  8
プレート
 62
   250
420
  2299925
370
    35
100
AcDbLine
 10
305.2616503147395
 20
-147.169696152773
 30
0.0
 11
291.261650314739
 21
-147.169696152773
 31
0.0
  0
LINE
  5
D6
330
70
100
AcDbEntity
  8
プレート
 62
   250
420
  2299925
370
    35
100
AcDbLine
 10
291.261650314739
 20
-147.169696152773
 30
0.0
 11
291.261650314739
 21
-133.1703961527728
 31
0.0
  0
LINE
  5
D7
330
70
100
AcDbEntity
  8
プレート
 62
   250
420
  2299925
370
    35
100
AcDbLine
 10
310.3116503147392
 20
-133.1703961527728
 30
0.0
 11
324.311650314739
 21
-133.1703961527728
 31
0.0
  0
LINE
  5
D8
330
70
100
AcDbEntity
  8
プレート
 62
   250
420
  2299925
370
    35
100
AcDbLine
 10
324.311650314739
 20
-133.1703961527728
 30
0.0
 11
324.311650314739
 21
-147.169696152773
 31
0.0
  0
LINE
  5
D9
330
70
100
AcDbEntity
  8
プレート
 62
   250
420
  2299925
370
    35
100
AcDbLine
 10
324.311650314739
 20
-147.169696152773
 30
0.0
 11
310.3116503147392
 21
-147.169696152773
 31
0.0
  0
LINE
  5
DA
330
70
100
AcDbEntity
  8
プレート
 62
   250
420
  2299925
370
    35
100
AcDbLine
 10
310.3116503147392
 20
-147.169696152773
 30
0.0
 11
310.3116503147392
 21
-133.1703961527728
 31
0.0
  0
LINE
  5
DB
330
70
100
AcDbEntity
  8
プレート
 62
   250
420
  2299925
370
    35
100
AcDbLine
 10
377.1776503147396
 20
-131.2642961527728
 30
0.0
 11
391.1776503147394
 21
-131.2642961527728
 31
0.0
  0
LINE
  5
DC
330
70
100
AcDbEntity
  8
プレート
 62
   250
420
  2299925
370
    35
100
AcDbLine
 10
391.1776503147394
 20
-131.2642961527728
 30
0.0
 11
391.1776503147394
 21
-145.2653961527732
 31
0.0
  0
LINE
  5
DD
330
70
100
AcDbEntity
  8
プレート
 62
   250
420
  2299925
370
    35
100
AcDbLine
 10
391.1776503147394
 20
-145.2653961527732
 30
0.0
 11
377.1776503147396
 21
-145.2653961527732
 31
0.0
  0
LINE
  5
DE
330
70
100
AcDbEntity
  8
プレート
 62
   250
420
  2299925
370
    35
100
AcDbLine
 10
377.1776503147396
 20
-145.2653961527732
 30
0.0
 11
377.1776503147396
 21
-131.2642961527728
 31
0.0
  0
LINE
  5
DF
330
70
100
AcDbEntity
  8
プレート
 62
   250
420
  2299925
370
    35
100
AcDbLine
 10
72.66365031473913
 20
-114.1203961527729
 30
0.0
 11
86.66325031473929
 21
-114.1203961527729
 31
0.0
  0
LINE
  5
E0
330
70
100
AcDbEntity
  8
プレート
 62
   250
420
  2299925
370
    35
100
AcDbLine
 10
86.66325031473929
 20
-114.1203961527729
 30
0.0
 11
86.66325031473929
 21
-128.1196961527729
 31
0.0
  0
LINE
  5
E1
330
70
100
AcDbEntity
  8
プレート
 62
   250
420
  2299925
370
    35
100
AcDbLine
 10
86.66325031473929
 20
-128.1196961527729
 30
0.0
 11
72.66365031473913
 21
-128.1196961527729
 31
0.0
  0
LINE
  5
E2
330
70
100
AcDbEntity
  8
プレート
 62
   250
420
  2299925
370
    35
100
AcDbLine
 10
72.66365031473913
 20
-128.1196961527729
 30
0.0
 11
72.66365031473913
 21
-114.1203961527729
 31
0.0
  0
LINE
  5
E3
330
70
100
AcDbEntity
  8
プレート
 62
   250
420
  2299925
370
    35
100
AcDbLine
 10
96.47365031473938
 20
-114.1203961527729
 30
0.0
 11
110.4757503147392
 21
-114.1203961527729
 31
0.0
  0
LINE
  5
E4
330
70
100
AcDbEntity
  8
プレート
 62
   250
420
  2299925
370
    35
100
AcDbLine
 10
110.4757503147392
 20
-114.1203961527729
 30
0.0
 11
110.4757503147392
 21
-128.1196961527729
 31
0.0
  0
LINE
  5
E5
330
70
100
AcDbEntity
  8
プレート
 62
   250
420
  2299925
370
    35
100
AcDbLine
 10
110.4757503147392
 20
-128.1196961527729
 30
0.0
 11
96.47365031473938
 21
-128.1196961527729
 31
0.0
  0
LINE
  5
E6
330
70
100
AcDbEntity
  8
プレート
 62
   250
420
  2299925
370
    35
100
AcDbLine
 10
96.47365031473938
 20
-128.1196961527729
 30
0.0
 11
96.47365031473938
 21
-114.1203961527729
 31
0.0
  0
LINE
  5
E7
330
70
100
AcDbEntity
  8
プレート
 62
   250
420
  2299925
370
    35
100
AcDbLine
 10
304.977650314739
 20
-114.1203961527729
 30
0.0
 11
318.9786503147392
 21
-114.1203961527729
 31
0.0
  0
LINE
  5
E8
330
70
100
AcDbEntity
  8
プレート
 62
   250
420
  2299925
370
    35
100
AcDbLine
 10
318.9786503147392
 20
-114.1203961527729
 30
0.0
 11
318.9786503147392
 21
-128.1196961527729
 31
0.0
  0
LINE
  5
E9
330
70
100
AcDbEntity
  8
プレート
 62
   250
420
  2299925
370
    35
100
AcDbLine
 10
318.9786503147392
 20
-128.1196961527729
 30
0.0
 11
304.977650314739
 21
-128.1196961527729
 31
0.0
  0
LINE
  5
EA
330
70
100
AcDbEntity
  8
プレート
 62
   250
420
  2299925
370
    35
100
AcDbLine
 10
304.977650314739
 20
-128.1196961527729
 30
0.0
 11
304.977650314739
 21
-114.1203961527729
 31
0.0
  0
LINE
  5
EB
330
70
100
AcDbEntity
  8
プレート
 62
   250
420
  2299925
370
    35
100
AcDbLine
 10
324.0276503147392
 20
-114.1203961527729
 30
0.0
 11
338.0286503147394
 21
-114.1203961527729
 31
0.0
  0
LINE
  5
EC
330
70
100
AcDbEntity
  8
プレート
 62
   250
420
  2299925
370
    35
100
AcDbLine
 10
338.0286503147394
 20
-114.1203961527729
 30
0.0
 11
338.0286503147394
 21
-128.1196961527729
 31
0.0
  0
LINE
  5
ED
330
70
100
AcDbEntity
  8
プレート
 62
   250
420
  2299925
370
    35
100
AcDbLine
 10
338.0286503147394
 20
-128.1196961527729
 30
0.0
 11
324.0276503147392
 21
-128.1196961527729
 31
0.0
  0
LINE
  5
EE
330
70
100
AcDbEntity
  8
プレート
 62
   250
420
  2299925
370
    35
100
AcDbLine
 10
324.0276503147392
 20
-128.1196961527729
 30
0.0
 11
324.0276503147392
 21
-114.1203961527729
 31
0.0
  0
LINE
  5
EF
330
70
100
AcDbEntity
  8
プレート
 62
   250
420
  2299925
370
    35
100
AcDbLine
 10
347.8406503147393
 20
-114.1203961527729
 30
0.0
 11
361.8396503147394
 21
-114.1203961527729
 31
0.0
  0
LINE
  5
F0
330
70
100
AcDbEntity
  8
プレート
 62
   250
420
  2299925
370
    35
100
AcDbLine
 10
361.8396503147394
 20
-114.1203961527729
 30
0.0
 11
361.8396503147394
 21
-128.1196961527729
 31
0.0
  0
LINE
  5
F1
330
70
100
AcDbEntity
  8
プレート
 62
   250
420
  2299925
370
    35
100
AcDbLine
 10
361.8396503147394
 20
-128.1196961527729
 30
0.0
 11
347.8406503147393
 21
-128.1196961527729
 31
0.0
  0
LINE
  5
F2
330
70
100
AcDbEntity
  8
プレート
 62
   250
420
  2299925
370
    35
100
AcDbLine
 10
347.8406503147393
 20
-128.1196961527729
 30
0.0
 11
347.8406503147393
 21
-114.1203961527729
 31
0.0
  0
LINE
  5
F3
330
70
100
AcDbEntity
  8
プレート
 62
   250
420
  2299925
370
    35
100
AcDbLine
 10
285.9276503147394
 20
-113.3583961527729
 30
0.0
 11
299.928650314739
 21
-113.3583961527729
 31
0.0
  0
LINE
  5
F4
330
70
100
AcDbEntity
  8
プレート
 62
   250
420
  2299925
370
    35
100
AcDbLine
 10
299.928650314739
 20
-113.3583961527729
 30
0.0
 11
299.928650314739
 21
-127.3576961527728
 31
0.0
  0
LINE
  5
F5
330
70
100
AcDbEntity
  8
プレート
 62
   250
420
  2299925
370
    35
100
AcDbLine
 10
299.928650314739
 20
-127.3576961527728
 30
0.0
 11
285.9276503147394
 21
-127.3576961527728
 31
0.0
  0
LINE
  5
F6
330
70
100
AcDbEntity
  8
プレート
 62
   250
420
  2299925
370
    35
100
AcDbLine
 10
285.9276503147394
 20
-127.3576961527728
 30
0.0
 11
285.9276503147394
 21
-113.3583961527729
 31
0.0
  0
LINE
  5
F7
330
70
100
AcDbEntity
  8
プレート
 62
   250
420
  2299925
370
    35
100
AcDbLine
 10
373.366650314739
 20
-112.2142961527726
 30
0.0
 11
387.3676503147393
 21
-112.2142961527726
 31
0.0
  0
LINE
  5
F8
330
70
100
AcDbEntity
  8
プレート
 62
   250
420
  2299925
370
    35
100
AcDbLine
 10
387.3676503147393
 20
-112.2142961527726
 30
0.0
 11
387.3676503147393
 21
-126.215396152773
 31
0.0
  0
LINE
  5
F9
330
70
100
AcDbEntity
  8
プレート
 62
   250
420
  2299925
370
    35
100
AcDbLine
 10
387.3676503147393
 20
-126.215396152773
 30
0.0
 11
373.366650314739
 21
-126.215396152773
 31
0.0
  0
LINE
  5
FA
330
70
100
AcDbEntity
  8
プレート
 62
   250
420
  2299925
370
    35
100
AcDbLine
 10
373.366650314739
 20
-126.215396152773
 30
0.0
 11
373.366650314739
 21
-112.2142961527726
 31
0.0
  0
LINE
  5
FB
330
70
100
AcDbEntity
  8
プレート
 62
   250
420
  2299925
370
    35
100
AcDbLine
 10
337.3626503147394
 20
-95.07019615277306
 30
0.0
 11
337.3626503147394
 21
-99.77119615277327
 31
0.0
  0
LINE
  5
FC
330
70
100
AcDbEntity
  8
プレート
 62
   250
420
  2299925
370
    35
100
AcDbLine
 10
337.3626503147394
 20
-99.77119615277327
 30
0.0
 11
335.8386503147394
 21
-99.77119615277327
 31
0.0
  0
LINE
  5
FD
330
70
100
AcDbEntity
  8
プレート
 62
   250
420
  2299925
370
    35
100
AcDbLine
 10
335.8386503147394
 20
-99.77119615277327
 30
0.0
 11
335.8386503147394
 21
-96.54119615277274
 31
0.0
  0
LINE
  5
FE
330
70
100
AcDbEntity
  8
プレート
 62
   250
420
  2299925
370
    35
100
AcDbLine
 10
335.8386503147394
 20
-96.54119615277274
 30
0.0
 11
329.0876503147396
 21
-96.54119615277274
 31
0.0
  0
LINE
  5
FF
330
70
100
AcDbEntity
  8
プレート
 62
   250
420
  2299925
370
    35
100
AcDbLine
 10
329.0876503147396
 20
-96.54119615277274
 30
0.0
 11
329.0876503147396
 21
-99.77119615277327
 31
0.0
  0
LINE
  5
100
330
70
100
AcDbEntity
  8
プレート
 62
   250
420
  2299925
370
    35
100
AcDbLine
 10
329.0876503147396
 20
-99.77119615277327
 30
0.0
 11
328.2626503147394
 21
-99.77119615277327
 31
0.0
  0
LINE
  5
101
330
70
100
AcDbEntity
  8
プレート
 62
   250
420
  2299925
370
    35
100
AcDbLine
 10
328.2626503147394
 20
-99.77119615277327
 30
0.0
 11
328.2626503147394
 21
-102.570196152773
 31
0.0
  0
LINE
  5
102
330
70
100
AcDbEntity
  8
プレート
 62
   250
420
  2299925
370
    35
100
AcDbLine
 10
328.2626503147394
 20
-102.570196152773
 30
0.0
 11
329.0876503147396
 21
-102.570196152773
 31
0.0
  0
LINE
  5
103
330
70
100
AcDbEntity
  8
プレート
 62
   250
420
  2299925
370
    35
100
AcDbLine
 10
329.0876503147396
 20
-102.570196152773
 30
0.0
 11
329.0876503147396
 21
-108.8395961527727
 31
0.0
  0
LINE
  5
104
330
70
100
AcDbEntity
  8
プレート
 62
   250
420
  2299925
370
    35
100
AcDbLine
 10
329.0876503147396
 20
-108.8395961527727
 30
0.0
 11
330.8126503147394
 21
-108.8395961527727
 31
0.0
  0
LINE
  5
105
330
70
100
AcDbEntity
  8
プレート
 62
   250
420
  2299925
370
    35
100
AcDbLine
 10
330.8126503147394
 20
-108.8395961527727
 30
0.0
 11
330.8126503147394
 21
-110.0397961527728
 31
0.0
  0
LINE
  5
106
330
70
100
AcDbEntity
  8
プレート
 62
   250
420
  2299925
370
    35
100
AcDbLine
 10
330.8126503147394
 20
-110.0397961527728
 30
0.0
 11
334.1136503147395
 21
-110.0397961527728
 31
0.0
  0
LINE
  5
107
330
70
100
AcDbEntity
  8
プレート
 62
   250
420
  2299925
370
    35
100
AcDbLine
 10
334.1136503147395
 20
-110.0397961527728
 30
0.0
 11
334.1136503147395
 21
-108.8395961527727
 31
0.0
  0
LINE
  5
108
330
70
100
AcDbEntity
  8
プレート
 62
   250
420
  2299925
370
    35
100
AcDbLine
 10
334.1136503147395
 20
-108.8395961527727
 30
0.0
 11
335.8386503147394
 21
-108.8395961527727
 31
0.0
  0
LINE
  5
109
330
70
100
AcDbEntity
  8
プレート
 62
   250
420
  2299925
370
    35
100
AcDbLine
 10
335.8386503147394
 20
-108.8395961527727
 30
0.0
 11
335.8386503147394
 21
-104.3706961527729
 31
0.0
  0
LINE
  5
10A
330
70
100
AcDbEntity
  8
プレート
 62
   250
420
  2299925
370
    35
100
AcDbLine
 10
335.8386503147394
 20
-104.3706961527729
 30
0.0
 11
337.3626503147394
 21
-104.3706961527729
 31
0.0
  0
LINE
  5
10B
330
70
100
AcDbEntity
  8
プレート
 62
   250
420
  2299925
370
    35
100
AcDbLine
 10
337.3626503147394
 20
-104.3706961527729
 30
0.0
 11
337.3626503147394
 21
-109.0696961527727
 31
0.0
  0
LINE
  5
10C
330
70
100
AcDbEntity
  8
プレート
 62
   250
420
  2299925
370
    35
100
AcDbLine
 10
337.3626503147394
 20
-109.0696961527727
 30
0.0
 11
351.363650314739
 21
-109.0696961527727
 31
0.0
  0
LINE
  5
10D
330
70
100
AcDbEntity
  8
プレート
 62
   250
420
  2299925
370
    35
100
AcDbLine
 10
351.363650314739
 20
-109.0696961527727
 30
0.0
 11
351.363650314739
 21
-104.3706961527729
 31
0.0
  0
LINE
  5
10E
330
70
100
AcDbEntity
  8
プレート
 62
   250
420
  2299925
370
    35
100
AcDbLine
 10
351.363650314739
 20
-104.3706961527729
 30
0.0
 11
352.8866503147394
 21
-104.3706961527729
 31
0.0
  0
LINE
  5
10F
330
70
100
AcDbEntity
  8
プレート
 62
   250
420
  2299925
370
    35
100
AcDbLine
 10
352.8866503147394
 20
-104.3706961527729
 30
0.0
 11
352.8866503147394
 21
-108.8395961527727
 31
0.0
  0
LINE
  5
110
330
70
100
AcDbEntity
  8
プレート
 62
   250
420
  2299925
370
    35
100
AcDbLine
 10
352.8866503147394
 20
-108.8395961527727
 30
0.0
 11
354.6136503147393
 21
-108.8395961527727
 31
0.0
  0
LINE
  5
111
330
70
100
AcDbEntity
  8
プレート
 62
   250
420
  2299925
370
    35
100
AcDbLine
 10
354.6136503147393
 20
-108.8395961527727
 30
0.0
 11
354.6136503147393
 21
-110.0397961527728
 31
0.0
  0
LINE
  5
112
330
70
100
AcDbEntity
  8
プレート
 62
   250
420
  2299925
370
    35
100
AcDbLine
 10
354.6136503147393
 20
-110.0397961527728
 30
0.0
 11
357.9136503147391
 21
-110.0397961527728
 31
0.0
  0
LINE
  5
113
330
70
100
AcDbEntity
  8
プレート
 62
   250
420
  2299925
370
    35
100
AcDbLine
 10
357.9136503147391
 20
-110.0397961527728
 30
0.0
 11
357.9136503147391
 21
-108.8395961527727
 31
0.0
  0
LINE
  5
114
330
70
100
AcDbEntity
  8
プレート
 62
   250
420
  2299925
370
    35
100
AcDbLine
 10
357.9136503147391
 20
-108.8395961527727
 30
0.0
 11
359.6376503147392
 21
-108.8395961527727
 31
0.0
  0
LINE
  5
115
330
70
100
AcDbEntity
  8
プレート
 62
   250
420
  2299925
370
    35
100
AcDbLine
 10
359.6376503147392
 20
-108.8395961527727
 30
0.0
 11
359.6376503147392
 21
-102.570196152773
 31
0.0
  0
LINE
  5
116
330
70
100
AcDbEntity
  8
プレート
 62
   250
420
  2299925
370
    35
100
AcDbLine
 10
359.6376503147392
 20
-102.570196152773
 30
0.0
 11
360.4626503147393
 21
-102.570196152773
 31
0.0
  0
LINE
  5
117
330
70
100
AcDbEntity
  8
プレート
 62
   250
420
  2299925
370
    35
100
AcDbLine
 10
360.4626503147393
 20
-102.570196152773
 30
0.0
 11
360.4626503147393
 21
-99.77119615277327
 31
0.0
  0
LINE
  5
118
330
70
100
AcDbEntity
  8
プレート
 62
   250
420
  2299925
370
    35
100
AcDbLine
 10
360.4626503147393
 20
-99.77119615277327
 30
0.0
 11
359.6376503147392
 21
-99.77119615277327
 31
0.0
  0
LINE
  5
119
330
70
100
AcDbEntity
  8
プレート
 62
   250
420
  2299925
370
    35
100
AcDbLine
 10
359.6376503147392
 20
-99.77119615277327
 30
0.0
 11
359.6376503147392
 21
-96.54119615277274
 31
0.0
  0
LINE
  5
11A
330
70
100
AcDbEntity
  8
プレート
 62
   250
420
  2299925
370
    35
100
AcDbLine
 10
359.6376503147392
 20
-96.54119615277274
 30
0.0
 11
352.8866503147394
 21
-96.54119615277274
 31
0.0
  0
LINE
  5
11B
330
70
100
AcDbEntity
  8
プレート
 62
   250
420
  2299925
370
    35
100
AcDbLine
 10
352.8866503147394
 20
-96.54119615277274
 30
0.0
 11
352.8866503147394
 21
-99.77119615277327
 31
0.0
  0
LINE
  5
11C
330
70
100
AcDbEntity
  8
プレート
 62
   250
420
  2299925
370
    35
100
AcDbLine
 10
352.8866503147394
 20
-99.77119615277327
 30
0.0
 11
351.363650314739
 21
-99.77119615277327
 31
0.0
  0
LINE
  5
11D
330
70
100
AcDbEntity
  8
プレート
 62
   250
420
  2299925
370
    35
100
AcDbLine
 10
351.363650314739
 20
-99.77119615277327
 30
0.0
 11
351.363650314739
 21
-95.07019615277306
 31
0.0
  0
LINE
  5
11E
330
70
100
AcDbEntity
  8
プレート
 62
   250
420
  2299925
370
    35
100
AcDbLine
 10
351.363650314739
 20
-95.07019615277306
 30
0.0
 11
337.3626503147394
 21
-95.07019615277306
 31
0.0
  0
LINE
  5
11F
330
70
100
AcDbEntity
  8
プレート
 62
   250
420
  2299925
370
    35
100
AcDbLine
 10
72.18705031473909
 20
-95.07019615277306
 30
0.0
 11
86.18635031473939
 21
-95.07019615277306
 31
0.0
  0
LINE
  5
120
330
70
100
AcDbEntity
  8
プレート
 62
   250
420
  2299925
370
    35
100
AcDbLine
 10
86.18635031473939
 20
-95.07019615277306
 30
0.0
 11
86.18635031473939
 21
-109.0696961527727
 31
0.0
  0
LINE
  5
121
330
70
100
AcDbEntity
  8
プレート
 62
   250
420
  2299925
370
    35
100
AcDbLine
 10
86.18635031473939
 20
-109.0696961527727
 30
0.0
 11
72.18705031473909
 21
-109.0696961527727
 31
0.0
  0
LINE
  5
122
330
70
100
AcDbEntity
  8
プレート
 62
   250
420
  2299925
370
    35
100
AcDbLine
 10
72.18705031473909
 20
-109.0696961527727
 30
0.0
 11
72.18705031473909
 21
-95.07019615277306
 31
0.0
  0
LINE
  5
123
330
70
100
AcDbEntity
  8
プレート
 62
   250
420
  2299925
370
    35
100
AcDbLine
 10
91.23565031473919
 20
-95.07019615277306
 30
0.0
 11
105.2363503147392
 21
-95.07019615277306
 31
0.0
  0
LINE
  5
124
330
70
100
AcDbEntity
  8
プレート
 62
   250
420
  2299925
370
    35
100
AcDbLine
 10
105.2363503147392
 20
-95.07019615277306
 30
0.0
 11
105.2363503147392
 21
-109.0696961527727
 31
0.0
  0
LINE
  5
125
330
70
100
AcDbEntity
  8
プレート
 62
   250
420
  2299925
370
    35
100
AcDbLine
 10
105.2363503147392
 20
-109.0696961527727
 30
0.0
 11
91.23565031473919
 21
-109.0696961527727
 31
0.0
  0
LINE
  5
126
330
70
100
AcDbEntity
  8
プレート
 62
   250
420
  2299925
370
    35
100
AcDbLine
 10
91.23565031473919
 20
-109.0696961527727
 30
0.0
 11
91.23565031473919
 21
-95.07019615277306
 31
0.0
  0
LINE
  5
127
330
70
100
AcDbEntity
  8
プレート
 62
   250
420
  2299925
370
    35
100
AcDbLine
 10
308.7876503147392
 20
-95.07019615277306
 30
0.0
 11
322.7886503147394
 21
-95.07019615277306
 31
0.0
  0
LINE
  5
128
330
70
100
AcDbEntity
  8
プレート
 62
   250
420
  2299925
370
    35
100
AcDbLine
 10
322.7886503147394
 20
-95.07019615277306
 30
0.0
 11
322.7886503147394
 21
-109.0696961527727
 31
0.0
  0
LINE
  5
129
330
70
100
AcDbEntity
  8
プレート
 62
   250
420
  2299925
370
    35
100
AcDbLine
 10
322.7886503147394
 20
-109.0696961527727
 30
0.0
 11
308.7876503147392
 21
-109.0696961527727
 31
0.0
  0
LINE
  5
12A
330
70
100
AcDbEntity
  8
プレート
 62
   250
420
  2299925
370
    35
100
AcDbLine
 10
308.7876503147392
 20
-109.0696961527727
 30
0.0
 11
308.7876503147392
 21
-95.07019615277306
 31
0.0
  0
LINE
  5
12B
330
70
100
AcDbEntity
  8
プレート
 62
   250
420
  2299925
370
    35
100
AcDbLine
 10
289.7366503147392
 20
-94.308196152773
 30
0.0
 11
303.7386503147392
 21
-94.308196152773
 31
0.0
  0
LINE
  5
12C
330
70
100
AcDbEntity
  8
プレート
 62
   250
420
  2299925
370
    35
100
AcDbLine
 10
303.7386503147392
 20
-94.308196152773
 30
0.0
 11
303.7386503147392
 21
-108.307696152773
 31
0.0
  0
LINE
  5
12D
330
70
100
AcDbEntity
  8
プレート
 62
   250
420
  2299925
370
    35
100
AcDbLine
 10
303.7386503147392
 20
-108.307696152773
 30
0.0
 11
289.7366503147392
 21
-108.307696152773
 31
0.0
  0
LINE
  5
12E
330
70
100
AcDbEntity
  8
プレート
 62
   250
420
  2299925
370
    35
100
AcDbLine
 10
289.7366503147392
 20
-108.307696152773
 30
0.0
 11
289.7366503147392
 21
-94.308196152773
 31
0.0
  0
LINE
  5
12F
330
70
100
AcDbEntity
  8
プレート
 62
   250
420
  2299925
370
    35
100
AcDbLine
 10
110.2870503147391
 20
-93.54619615277298
 30
0.0
 11
124.2863503147391
 21
-93.54619615277298
 31
0.0
  0
LINE
  5
130
330
70
100
AcDbEntity
  8
プレート
 62
   250
420
  2299925
370
    35
100
AcDbLine
 10
124.2863503147391
 20
-93.54619615277298
 30
0.0
 11
124.2863503147391
 21
-107.5456961527732
 31
0.0
  0
LINE
  5
131
330
70
100
AcDbEntity
  8
プレート
 62
   250
420
  2299925
370
    35
100
AcDbLine
 10
124.2863503147391
 20
-107.5456961527732
 30
0.0
 11
110.2870503147391
 21
-107.5456961527732
 31
0.0
  0
LINE
  5
132
330
70
100
AcDbEntity
  8
プレート
 62
   250
420
  2299925
370
    35
100
AcDbLine
 10
110.2870503147391
 20
-107.5456961527732
 30
0.0
 11
110.2870503147391
 21
-93.54619615277298
 31
0.0
  0
LINE
  5
133
330
70
100
AcDbEntity
  8
プレート
 62
   250
420
  2299925
370
    35
100
AcDbLine
 10
369.5566503147395
 20
-93.16419615277288
 30
0.0
 11
383.5576503147391
 21
-93.16419615277288
 31
0.0
  0
LINE
  5
134
330
70
100
AcDbEntity
  8
プレート
 62
   250
420
  2299925
370
    35
100
AcDbLine
 10
383.5576503147391
 20
-93.16419615277288
 30
0.0
 11
383.5576503147391
 21
-107.1653961527728
 31
0.0
  0
LINE
  5
135
330
70
100
AcDbEntity
  8
プレート
 62
   250
420
  2299925
370
    35
100
AcDbLine
 10
383.5576503147391
 20
-107.1653961527728
 30
0.0
 11
369.5566503147395
 21
-107.1653961527728
 31
0.0
  0
LINE
  5
136
330
70
100
AcDbEntity
  8
プレート
 62
   250
420
  2299925
370
    35
100
AcDbLine
 10
369.5566503147395
 20
-107.1653961527728
 30
0.0
 11
369.5566503147395
 21
-93.16419615277288
 31
0.0
  0
LINE
  5
137
330
70
100
AcDbEntity
  8
プレート
 62
   250
420
  2299925
370
    35
100
AcDbLine
 10
177.8220945472418
 20
-198.429084798138
 30
0.0
 11
191.5150945472419
 21
-201.3408747981379
 31
0.0
  0
LINE
  5
138
330
70
100
AcDbEntity
  8
プレート
 62
   250
420
  2299925
370
    35
100
AcDbLine
 10
191.5150945472419
 20
-201.3408747981379
 30
0.0
 11
194.4270945472418
 21
-187.6473047981381
 31
0.0
  0
LINE
  5
139
330
70
100
AcDbEntity
  8
プレート
 62
   250
420
  2299925
370
    35
100
AcDbLine
 10
194.4270945472418
 20
-187.6473047981381
 30
0.0
 11
180.7320945472417
 21
-184.7355047981378
 31
0.0
  0
LINE
  5
13A
330
70
100
AcDbEntity
  8
プレート
 62
   250
420
  2299925
370
    35
100
AcDbLine
 10
180.7320945472417
 20
-184.7355047981378
 30
0.0
 11
177.8220945472418
 21
-198.429084798138
 31
0.0
  0
LINE
  5
13B
330
70
100
AcDbEntity
  8
プレート
 62
   250
420
  2299925
370
    35
100
AcDbLine
 10
146.3280945472418
 20
-177.6579047981381
 30
0.0
 11
144.6400945472419
 21
-177.2996047981378
 31
0.0
  0
LINE
  5
13C
330
70
100
AcDbEntity
  8
プレート
 62
   250
420
  2299925
370
    35
100
AcDbLine
 10
144.6400945472419
 20
-177.2996047981378
 30
0.0
 11
143.3370945472417
 21
-183.4332047981381
 31
0.0
  0
LINE
  5
13D
330
70
100
AcDbEntity
  8
プレート
 62
   250
420
  2299925
370
    35
100
AcDbLine
 10
143.3370945472417
 20
-183.4332047981381
 30
0.0
 11
142.5290945472414
 21
-183.2610047981383
 31
0.0
  0
LINE
  5
13E
330
70
100
AcDbEntity
  8
プレート
 62
   250
420
  2299925
370
    35
100
AcDbLine
 10
142.5290945472414
 20
-183.2610047981383
 30
0.0
 11
141.9470945472417
 21
-186.000504798138
 31
0.0
  0
LINE
  5
13F
330
70
100
AcDbEntity
  8
プレート
 62
   250
420
  2299925
370
    35
100
AcDbLine
 10
141.9470945472417
 20
-186.000504798138
 30
0.0
 11
142.7550945472419
 21
-186.1714047981382
 31
0.0
  0
LINE
  5
140
330
70
100
AcDbEntity
  8
プレート
 62
   250
420
  2299925
370
    35
100
AcDbLine
 10
142.7550945472419
 20
-186.1714047981382
 30
0.0
 11
142.0820945472421
 21
-189.331304798138
 31
0.0
  0
LINE
  5
141
330
70
100
AcDbEntity
  8
プレート
 62
   250
420
  2299925
370
    35
100
AcDbLine
 10
142.0820945472421
 20
-189.331304798138
 30
0.0
 11
148.6860945472413
 21
-190.7341047981382
 31
0.0
  0
LINE
  5
142
330
70
100
AcDbEntity
  8
プレート
 62
   250
420
  2299925
370
    35
100
AcDbLine
 10
148.6860945472413
 20
-190.7341047981382
 30
0.0
 11
149.3570945472419
 21
-187.5742047981378
 31
0.0
  0
LINE
  5
143
330
70
100
AcDbEntity
  8
プレート
 62
   250
420
  2299925
370
    35
100
AcDbLine
 10
149.3570945472419
 20
-187.5742047981378
 30
0.0
 11
150.8480945472417
 21
-187.892604798138
 31
0.0
  0
LINE
  5
144
330
70
100
AcDbEntity
  8
プレート
 62
   250
420
  2299925
370
    35
100
AcDbLine
 10
150.8480945472417
 20
-187.892604798138
 30
0.0
 11
149.8710945472419
 21
-192.4883047981381
 31
0.0
  0
LINE
  5
145
330
70
100
AcDbEntity
  8
プレート
 62
   250
420
  2299925
370
    35
100
AcDbLine
 10
149.8710945472419
 20
-192.4883047981381
 30
0.0
 11
163.5660945472421
 21
-195.4001347981383
 31
0.0
  0
LINE
  5
146
330
70
100
AcDbEntity
  8
プレート
 62
   250
420
  2299925
370
    35
100
AcDbLine
 10
163.5660945472421
 20
-195.4001347981383
 30
0.0
 11
164.5430945472418
 21
-190.8030047981379
 31
0.0
  0
LINE
  5
147
330
70
100
AcDbEntity
  8
プレート
 62
   250
420
  2299925
370
    35
100
AcDbLine
 10
164.5430945472418
 20
-190.8030047981379
 30
0.0
 11
166.0340945472416
 21
-191.1199047981383
 31
0.0
  0
LINE
  5
148
330
70
100
AcDbEntity
  8
プレート
 62
   250
420
  2299925
370
    35
100
AcDbLine
 10
166.0340945472416
 20
-191.1199047981383
 30
0.0
 11
165.3630945472416
 21
-194.2784047981383
 31
0.0
  0
LINE
  5
149
330
70
100
AcDbEntity
  8
プレート
 62
   250
420
  2299925
370
    35
100
AcDbLine
 10
165.3630945472416
 20
-194.2784047981383
 30
0.0
 11
171.9650945472417
 21
-195.6812647981377
 31
0.0
  0
LINE
  5
14A
330
70
100
AcDbEntity
  8
プレート
 62
   250
420
  2299925
370
    35
100
AcDbLine
 10
171.9650945472417
 20
-195.6812647981377
 30
0.0
 11
172.6360945472417
 21
-192.522804798138
 31
0.0
  0
LINE
  5
14B
330
70
100
AcDbEntity
  8
プレート
 62
   250
420
  2299925
370
    35
100
AcDbLine
 10
172.6360945472417
 20
-192.522804798138
 30
0.0
 11
173.4440945472419
 21
-192.6950047981377
 31
0.0
  0
LINE
  5
14C
330
70
100
AcDbEntity
  8
プレート
 62
   250
420
  2299925
370
    35
100
AcDbLine
 10
173.4440945472419
 20
-192.6950047981377
 30
0.0
 11
174.0250945472416
 21
-189.955504798138
 31
0.0
  0
LINE
  5
14D
330
70
100
AcDbEntity
  8
プレート
 62
   250
420
  2299925
370
    35
100
AcDbLine
 10
174.0250945472416
 20
-189.955504798138
 30
0.0
 11
173.2190945472418
 21
-189.7832047981381
 31
0.0
  0
LINE
  5
14E
330
70
100
AcDbEntity
  8
プレート
 62
   250
420
  2299925
370
    35
100
AcDbLine
 10
173.2190945472418
 20
-189.7832047981381
 30
0.0
 11
174.5230945472418
 21
-183.6510047981383
 31
0.0
  0
LINE
  5
14F
330
70
100
AcDbEntity
  8
プレート
 62
   250
420
  2299925
370
    35
100
AcDbLine
 10
174.5230945472418
 20
-183.6510047981383
 30
0.0
 11
172.8360945472417
 21
-183.2927047981381
 31
0.0
  0
LINE
  5
150
330
70
100
AcDbEntity
  8
プレート
 62
   250
420
  2299925
370
    35
100
AcDbLine
 10
172.8360945472417
 20
-183.2927047981381
 30
0.0
 11
173.0840945472417
 21
-182.1186047981383
 31
0.0
  0
LINE
  5
151
330
70
100
AcDbEntity
  8
プレート
 62
   250
420
  2299925
370
    35
100
AcDbLine
 10
173.0840945472417
 20
-182.1186047981383
 30
0.0
 11
169.8570945472417
 21
-181.4323047981378
 31
0.0
  0
LINE
  5
152
330
70
100
AcDbEntity
  8
プレート
 62
   250
420
  2299925
370
    35
100
AcDbLine
 10
169.8570945472417
 20
-181.4323047981378
 30
0.0
 11
169.6070945472419
 21
-182.6064047981382
 31
0.0
  0
LINE
  5
153
330
70
100
AcDbEntity
  8
プレート
 62
   250
420
  2299925
370
    35
100
AcDbLine
 10
169.6070945472419
 20
-182.6064047981382
 30
0.0
 11
167.9190945472419
 21
-182.2481047981379
 31
0.0
  0
LINE
  5
154
330
70
100
AcDbEntity
  8
プレート
 62
   250
420
  2299925
370
    35
100
AcDbLine
 10
167.9190945472419
 20
-182.2481047981379
 30
0.0
 11
166.9900945472419
 21
-186.6193047981381
 31
0.0
  0
LINE
  5
155
330
70
100
AcDbEntity
  8
プレート
 62
   250
420
  2299925
370
    35
100
AcDbLine
 10
166.9900945472419
 20
-186.6193047981381
 30
0.0
 11
165.4980945472417
 21
-186.3023047981382
 31
0.0
  0
LINE
  5
156
330
70
100
AcDbEntity
  8
プレート
 62
   250
420
  2299925
370
    35
100
AcDbLine
 10
165.4980945472417
 20
-186.3023047981382
 30
0.0
 11
166.4750945472418
 21
-181.7066047981381
 31
0.0
  0
LINE
  5
157
330
70
100
AcDbEntity
  8
プレート
 62
   250
420
  2299925
370
    35
100
AcDbLine
 10
166.4750945472418
 20
-181.7066047981381
 30
0.0
 11
152.7810945472421
 21
-178.7948047981379
 31
0.0
  0
LINE
  5
158
330
70
100
AcDbEntity
  8
プレート
 62
   250
420
  2299925
370
    35
100
AcDbLine
 10
152.7810945472421
 20
-178.7948047981379
 30
0.0
 11
151.8040945472417
 21
-183.3919047981384
 31
0.0
  0
LINE
  5
159
330
70
100
AcDbEntity
  8
プレート
 62
   250
420
  2299925
370
    35
100
AcDbLine
 10
151.8040945472417
 20
-183.3919047981384
 30
0.0
 11
150.3130945472419
 21
-183.075004798138
 31
0.0
  0
LINE
  5
15A
330
70
100
AcDbEntity
  8
プレート
 62
   250
420
  2299925
370
    35
100
AcDbLine
 10
150.3130945472419
 20
-183.075004798138
 30
0.0
 11
151.242094547242
 21
-178.7025047981382
 31
0.0
  0
LINE
  5
15B
330
70
100
AcDbEntity
  8
プレート
 62
   250
420
  2299925
370
    35
100
AcDbLine
 10
151.242094547242
 20
-178.7025047981382
 30
0.0
 11
149.5550945472418
 21
-178.344204798138
 31
0.0
  0
LINE
  5
15C
330
70
100
AcDbEntity
  8
プレート
 62
   250
420
  2299925
370
    35
100
AcDbLine
 10
149.5550945472418
 20
-178.344204798138
 30
0.0
 11
149.8050945472423
 21
-177.1714047981378
 31
0.0
  0
LINE
  5
15D
330
70
100
AcDbEntity
  8
プレート
 62
   250
420
  2299925
370
    35
100
AcDbLine
 10
149.8050945472423
 20
-177.1714047981378
 30
0.0
 11
146.5760945472418
 21
-176.4838047981384
 31
0.0
  0
LINE
  5
15E
330
70
100
AcDbEntity
  8
プレート
 62
   250
420
  2299925
370
    35
100
AcDbLine
 10
146.5760945472418
 20
-176.4838047981384
 30
0.0
 11
146.3280945472418
 21
-177.6579047981381
 31
0.0
  0
LINE
  5
15F
330
70
100
AcDbEntity
  8
プレート
 62
   250
420
  2299925
370
    35
100
AcDbLine
 10
117.0641945472421
 20
-186.4897047981383
 30
0.0
 11
130.7589945472419
 21
-189.4002047981383
 31
0.0
  0
LINE
  5
160
330
70
100
AcDbEntity
  8
プレート
 62
   250
420
  2299925
370
    35
100
AcDbLine
 10
130.7589945472419
 20
-189.4002047981383
 30
0.0
 11
133.6680945472418
 21
-175.7066047981379
 31
0.0
  0
LINE
  5
161
330
70
100
AcDbEntity
  8
プレート
 62
   250
420
  2299925
370
    35
100
AcDbLine
 10
133.6680945472418
 20
-175.7066047981379
 30
0.0
 11
119.9745945472419
 21
-172.7948047981383
 31
0.0
  0
LINE
  5
162
330
70
100
AcDbEntity
  8
プレート
 62
   250
420
  2299925
370
    35
100
AcDbLine
 10
119.9745945472419
 20
-172.7948047981383
 30
0.0
 11
117.0641945472421
 21
-186.4897047981383
 31
0.0
  0
LINE
  5
163
330
70
100
AcDbEntity
  8
プレート
 62
   250
420
  2299925
370
    35
100
AcDbLine
 10
178.9880945472418
 20
-179.2013047981378
 30
0.0
 11
192.6810945472419
 21
-182.1131047981381
 31
0.0
  0
LINE
  5
164
330
70
100
AcDbEntity
  8
プレート
 62
   250
420
  2299925
370
    35
100
AcDbLine
 10
192.6810945472419
 20
-182.1131047981381
 30
0.0
 11
195.5930945472418
 21
-168.4194047981382
 31
0.0
  0
LINE
  5
165
330
70
100
AcDbEntity
  8
プレート
 62
   250
420
  2299925
370
    35
100
AcDbLine
 10
195.5930945472418
 20
-168.4194047981382
 30
0.0
 11
181.8980945472417
 21
-165.5076047981379
 31
0.0
  0
LINE
  5
166
330
70
100
AcDbEntity
  8
プレート
 62
   250
420
  2299925
370
    35
100
AcDbLine
 10
181.8980945472417
 20
-165.5076047981379
 30
0.0
 11
178.9880945472418
 21
-179.2013047981378
 31
0.0
  0
LINE
  5
167
330
70
100
AcDbEntity
  8
プレート
 62
   250
420
  2299925
370
    35
100
AcDbLine
 10
160.3540945472418
 20
-175.2422047981381
 30
0.0
 11
174.0470945472418
 21
-178.1526047981379
 31
0.0
  0
LINE
  5
168
330
70
100
AcDbEntity
  8
プレート
 62
   250
420
  2299925
370
    35
100
AcDbLine
 10
174.0470945472418
 20
-178.1526047981379
 30
0.0
 11
176.9590945472421
 21
-164.4577047981379
 31
0.0
  0
LINE
  5
169
330
70
100
AcDbEntity
  8
プレート
 62
   250
420
  2299925
370
    35
100
AcDbLine
 10
176.9590945472421
 20
-164.4577047981379
 30
0.0
 11
163.2640945472416
 21
-161.5473047981381
 31
0.0
  0
LINE
  5
16A
330
70
100
AcDbEntity
  8
プレート
 62
   250
420
  2299925
370
    35
100
AcDbLine
 10
163.2640945472416
 20
-161.5473047981381
 30
0.0
 11
160.3540945472418
 21
-175.2422047981381
 31
0.0
  0
LINE
  5
16B
330
70
100
AcDbEntity
  8
プレート
 62
   250
420
  2299925
370
    35
100
AcDbLine
 10
141.7200945472417
 20
-171.2803047981381
 30
0.0
 11
155.4150945472419
 21
-174.1921047981383
 31
0.0
  0
LINE
  5
16C
330
70
100
AcDbEntity
  8
プレート
 62
   250
420
  2299925
370
    35
100
AcDbLine
 10
155.4150945472419
 20
-174.1921047981383
 30
0.0
 11
158.3240945472419
 21
-160.498504798138
 31
0.0
  0
LINE
  5
16D
330
70
100
AcDbEntity
  8
プレート
 62
   250
420
  2299925
370
    35
100
AcDbLine
 10
158.3240945472419
 20
-160.498504798138
 30
0.0
 11
144.6300945472419
 21
-157.5867047981384
 31
0.0
  0
LINE
  5
16E
330
70
100
AcDbEntity
  8
プレート
 62
   250
420
  2299925
370
    35
100
AcDbLine
 10
144.6300945472419
 20
-157.5867047981384
 30
0.0
 11
141.7200945472417
 21
-171.2803047981381
 31
0.0
  0
LINE
  5
16F
330
70
100
AcDbEntity
  8
プレート
 62
   250
420
  2299925
370
    35
100
AcDbLine
 10
123.0860945472417
 20
-167.3198047981379
 30
0.0
 11
136.7809945472417
 21
-170.2303047981379
 31
0.0
  0
LINE
  5
170
330
70
100
AcDbEntity
  8
プレート
 62
   250
420
  2299925
370
    35
100
AcDbLine
 10
136.7809945472417
 20
-170.2303047981379
 30
0.0
 11
139.6910945472416
 21
-156.5368047981383
 31
0.0
  0
LINE
  5
171
330
70
100
AcDbEntity
  8
プレート
 62
   250
420
  2299925
370
    35
100
AcDbLine
 10
139.6910945472416
 20
-156.5368047981383
 30
0.0
 11
125.9964945472418
 21
-153.6264047981378
 31
0.0
  0
LINE
  5
172
330
70
100
AcDbEntity
  8
プレート
 62
   250
420
  2299925
370
    35
100
AcDbLine
 10
125.9964945472418
 20
-153.6264047981378
 30
0.0
 11
123.0860945472417
 21
-167.3198047981379
 31
0.0
  0
LINE
  5
173
330
70
100
AcDbEntity
  8
プレート
 62
   250
420
  2299925
370
    35
100
AcDbLine
 10
173.6310945472417
 20
-158.5886047981384
 30
0.0
 11
187.3260945472418
 21
-161.4990047981382
 31
0.0
  0
LINE
  5
174
330
70
100
AcDbEntity
  8
プレート
 62
   250
420
  2299925
370
    35
100
AcDbLine
 10
187.3260945472418
 20
-161.4990047981382
 30
0.0
 11
190.2370945472417
 21
-147.8056047981382
 31
0.0
  0
LINE
  5
175
330
70
100
AcDbEntity
  8
プレート
 62
   250
420
  2299925
370
    35
100
AcDbLine
 10
190.2370945472417
 20
-147.8056047981382
 30
0.0
 11
176.5420945472419
 21
-144.8937047981377
 31
0.0
  0
LINE
  5
176
330
70
100
AcDbEntity
  8
プレート
 62
   250
420
  2299925
370
    35
100
AcDbLine
 10
176.5420945472419
 20
-144.8937047981377
 30
0.0
 11
173.6310945472417
 21
-158.5886047981384
 31
0.0
  0
LINE
  5
177
330
70
100
AcDbEntity
  8
プレート
 62
   250
420
  2299925
370
    35
100
AcDbLine
 10
154.9970945472416
 20
-154.6279047981378
 30
0.0
 11
168.6910945472417
 21
-157.5384047981378
 31
0.0
  0
LINE
  5
178
330
70
100
AcDbEntity
  8
プレート
 62
   250
420
  2299925
370
    35
100
AcDbLine
 10
168.6910945472417
 20
-157.5384047981378
 30
0.0
 11
171.603094547242
 21
-143.8435047981379
 31
0.0
  0
LINE
  5
179
330
70
100
AcDbEntity
  8
プレート
 62
   250
420
  2299925
370
    35
100
AcDbLine
 10
171.603094547242
 20
-143.8435047981379
 30
0.0
 11
157.9090945472419
 21
-140.9345047981378
 31
0.0
  0
LINE
  5
17A
330
70
100
AcDbEntity
  8
プレート
 62
   250
420
  2299925
370
    35
100
AcDbLine
 10
157.9090945472419
 20
-140.9345047981378
 30
0.0
 11
154.9970945472416
 21
-154.6279047981378
 31
0.0
  0
LINE
  5
17B
330
70
100
AcDbEntity
  8
プレート
 62
   250
420
  2299925
370
    35
100
AcDbLine
 10
136.3635945472421
 20
-150.6662047981382
 30
0.0
 11
150.0570945472416
 21
-153.5781047981379
 31
0.0
  0
LINE
  5
17C
330
70
100
AcDbEntity
  8
プレート
 62
   250
420
  2299925
370
    35
100
AcDbLine
 10
150.0570945472416
 20
-153.5781047981379
 30
0.0
 11
152.9690945472419
 21
-139.8847047981379
 31
0.0
  0
LINE
  5
17D
330
70
100
AcDbEntity
  8
プレート
 62
   250
420
  2299925
370
    35
100
AcDbLine
 10
152.9690945472419
 20
-139.8847047981379
 30
0.0
 11
139.2740945472418
 21
-136.9728047981381
 31
0.0
  0
LINE
  5
17E
330
70
100
AcDbEntity
  8
プレート
 62
   250
420
  2299925
370
    35
100
AcDbLine
 10
139.2740945472418
 20
-136.9728047981381
 30
0.0
 11
136.3635945472421
 21
-150.6662047981382
 31
0.0
  0
LINE
  5
17F
330
70
100
AcDbEntity
  8
プレート
 62
   250
420
  2299925
370
    35
100
AcDbLine
 10
117.7309945472418
 20
-146.7056047981378
 30
0.0
 11
131.4246945472417
 21
-149.6174047981381
 31
0.0
  0
LINE
  5
180
330
70
100
AcDbEntity
  8
プレート
 62
   250
420
  2299925
370
    35
100
AcDbLine
 10
131.4246945472417
 20
-149.6174047981381
 30
0.0
 11
134.3351945472417
 21
-135.9226047981379
 31
0.0
  0
LINE
  5
181
330
70
100
AcDbEntity
  8
プレート
 62
   250
420
  2299925
370
    35
100
AcDbLine
 10
134.3351945472417
 20
-135.9226047981379
 30
0.0
 11
120.6402945472417
 21
-133.0122047981384
 31
0.0
  0
LINE
  5
182
330
70
100
AcDbEntity
  8
プレート
 62
   250
420
  2299925
370
    35
100
AcDbLine
 10
120.6402945472417
 20
-133.0122047981384
 30
0.0
 11
117.7309945472418
 21
-146.7056047981378
 31
0.0
  0
LINE
  5
183
330
70
100
AcDbEntity
  8
プレート
 62
   250
420
  2299925
370
    35
100
AcDbLine
 10
172.0010945472419
 20
-138.765604798138
 30
0.0
 11
185.6960945472417
 21
-141.6775047981381
 31
0.0
  0
LINE
  5
184
330
70
100
AcDbEntity
  8
プレート
 62
   250
420
  2299925
370
    35
100
AcDbLine
 10
185.6960945472417
 20
-141.6775047981381
 30
0.0
 11
188.6060945472418
 21
-127.982304798138
 31
0.0
  0
LINE
  5
185
330
70
100
AcDbEntity
  8
プレート
 62
   250
420
  2299925
370
    35
100
AcDbLine
 10
188.6060945472418
 20
-127.982304798138
 30
0.0
 11
174.9130945472418
 21
-125.0719047981385
 31
0.0
  0
LINE
  5
186
330
70
100
AcDbEntity
  8
プレート
 62
   250
420
  2299925
370
    35
100
AcDbLine
 10
174.9130945472418
 20
-125.0719047981385
 30
0.0
 11
172.0010945472419
 21
-138.765604798138
 31
0.0
  0
LINE
  5
187
330
70
100
AcDbEntity
  8
プレート
 62
   250
420
  2299925
370
    35
100
AcDbLine
 10
153.3680945472418
 20
-134.8064047981384
 30
0.0
 11
167.0620945472419
 21
-137.7154047981385
 31
0.0
  0
LINE
  5
188
330
70
100
AcDbEntity
  8
プレート
 62
   250
420
  2299925
370
    35
100
AcDbLine
 10
167.0620945472419
 20
-137.7154047981385
 30
0.0
 11
169.9720945472421
 21
-124.0220047981378
 31
0.0
  0
LINE
  5
189
330
70
100
AcDbEntity
  8
プレート
 62
   250
420
  2299925
370
    35
100
AcDbLine
 10
169.9720945472421
 20
-124.0220047981378
 30
0.0
 11
156.2790945472417
 21
-121.111604798138
 31
0.0
  0
LINE
  5
18A
330
70
100
AcDbEntity
  8
プレート
 62
   250
420
  2299925
370
    35
100
AcDbLine
 10
156.2790945472417
 20
-121.111604798138
 30
0.0
 11
153.3680945472418
 21
-134.8064047981384
 31
0.0
  0
LINE
  5
18B
330
70
100
AcDbEntity
  8
プレート
 62
   250
420
  2299925
370
    35
100
AcDbLine
 10
134.7347945472417
 20
-130.8447047981384
 30
0.0
 11
148.4280945472419
 21
-133.755104798138
 31
0.0
  0
LINE
  5
18C
330
70
100
AcDbEntity
  8
プレート
 62
   250
420
  2299925
370
    35
100
AcDbLine
 10
148.4280945472419
 20
-133.755104798138
 30
0.0
 11
151.3400945472418
 21
-120.0614047981381
 31
0.0
  0
LINE
  5
18D
330
70
100
AcDbEntity
  8
プレート
 62
   250
420
  2299925
370
    35
100
AcDbLine
 10
151.3400945472418
 20
-120.0614047981381
 30
0.0
 11
137.6450945472417
 21
-117.1509047981381
 31
0.0
  0
LINE
  5
18E
330
70
100
AcDbEntity
  8
プレート
 62
   250
420
  2299925
370
    35
100
AcDbLine
 10
137.6450945472417
 20
-117.1509047981381
 30
0.0
 11
134.7347945472417
 21
-130.8447047981384
 31
0.0
  0
LINE
  5
18F
330
70
100
AcDbEntity
  8
プレート
 62
   250
420
  2299925
370
    35
100
AcDbLine
 10
116.1007945472419
 20
-126.8841047981377
 30
0.0
 11
129.7944945472419
 21
-129.7945047981382
 31
0.0
  0
LINE
  5
190
330
70
100
AcDbEntity
  8
プレート
 62
   250
420
  2299925
370
    35
100
AcDbLine
 10
129.7944945472419
 20
-129.7945047981382
 30
0.0
 11
132.7063945472419
 21
-116.1011047981382
 31
0.0
  0
LINE
  5
191
330
70
100
AcDbEntity
  8
プレート
 62
   250
420
  2299925
370
    35
100
AcDbLine
 10
132.7063945472419
 20
-116.1011047981382
 30
0.0
 11
119.0111945472418
 21
-113.190704798138
 31
0.0
  0
LINE
  5
192
330
70
100
AcDbEntity
  8
プレート
 62
   250
420
  2299925
370
    35
100
AcDbLine
 10
119.0111945472418
 20
-113.190704798138
 30
0.0
 11
116.1007945472419
 21
-126.8841047981377
 31
0.0
  0
LINE
  5
193
330
70
100
AcDbEntity
  8
プレート
 62
   250
420
  2299925
370
    35
100
AcDbLine
 10
185.2800945472419
 20
-122.1135047981379
 30
0.0
 11
198.9730945472419
 21
-125.0239047981384
 31
0.0
  0
LINE
  5
194
330
70
100
AcDbEntity
  8
プレート
 62
   250
420
  2299925
370
    35
100
AcDbLine
 10
198.9730945472419
 20
-125.0239047981384
 30
0.0
 11
201.8850945472425
 21
-111.330104798138
 31
0.0
  0
LINE
  5
195
330
70
100
AcDbEntity
  8
プレート
 62
   250
420
  2299925
370
    35
100
AcDbLine
 10
201.8850945472425
 20
-111.330104798138
 30
0.0
 11
188.1900945472417
 21
-108.4183047981384
 31
0.0
  0
LINE
  5
196
330
70
100
AcDbEntity
  8
プレート
 62
   250
420
  2299925
370
    35
100
AcDbLine
 10
188.1900945472417
 20
-108.4183047981384
 30
0.0
 11
185.2800945472419
 21
-122.1135047981379
 31
0.0
  0
LINE
  5
197
330
70
100
AcDbEntity
  8
プレート
 62
   250
420
  2299925
370
    35
100
AcDbLine
 10
166.6460945472418
 20
-118.1514047981379
 30
0.0
 11
180.3390945472418
 21
-121.063304798138
 31
0.0
  0
LINE
  5
198
330
70
100
AcDbEntity
  8
プレート
 62
   250
420
  2299925
370
    35
100
AcDbLine
 10
180.3390945472418
 20
-121.063304798138
 30
0.0
 11
183.2500945472417
 21
-107.3684047981384
 31
0.0
  0
LINE
  5
199
330
70
100
AcDbEntity
  8
プレート
 62
   250
420
  2299925
370
    35
100
AcDbLine
 10
183.2500945472417
 20
-107.3684047981384
 30
0.0
 11
169.5560945472416
 21
-104.4580047981382
 31
0.0
  0
LINE
  5
19A
330
70
100
AcDbEntity
  8
プレート
 62
   250
420
  2299925
370
    35
100
AcDbLine
 10
169.5560945472416
 20
-104.4580047981382
 30
0.0
 11
166.6460945472418
 21
-118.1514047981379
 31
0.0
  0
LINE
  5
19B
330
70
100
AcDbEntity
  8
プレート
 62
   250
420
  2299925
370
    35
100
AcDbLine
 10
148.0120945472417
 20
-114.192204798138
 30
0.0
 11
161.7070945472419
 21
-117.1012047981377
 31
0.0
  0
LINE
  5
19C
330
70
100
AcDbEntity
  8
プレート
 62
   250
420
  2299925
370
    35
100
AcDbLine
 10
161.7070945472419
 20
-117.1012047981377
 30
0.0
 11
164.6160945472419
 21
-103.408004798138
 31
0.0
  0
LINE
  5
19D
330
70
100
AcDbEntity
  8
プレート
 62
   250
420
  2299925
370
    35
100
AcDbLine
 10
164.6160945472419
 20
-103.408004798138
 30
0.0
 11
150.9220945472419
 21
-100.4970047981382
 31
0.0
  0
LINE
  5
19E
330
70
100
AcDbEntity
  8
プレート
 62
   250
420
  2299925
370
    35
100
AcDbLine
 10
150.9220945472419
 20
-100.4970047981382
 30
0.0
 11
148.0120945472417
 21
-114.192204798138
 31
0.0
  0
LINE
  5
19F
330
70
100
AcDbEntity
  8
プレート
 62
   250
420
  2299925
370
    35
100
AcDbLine
 10
129.3782945472417
 20
-110.230504798138
 30
0.0
 11
143.0730945472418
 21
-113.142304798138
 31
0.0
  0
LINE
  5
1A0
330
70
100
AcDbEntity
  8
プレート
 62
   250
420
  2299925
370
    35
100
AcDbLine
 10
143.0730945472418
 20
-113.142304798138
 30
0.0
 11
145.9830945472416
 21
-99.44700479813798
 31
0.0
  0
LINE
  5
1A1
330
70
100
AcDbEntity
  8
プレート
 62
   250
420
  2299925
370
    35
100
AcDbLine
 10
145.9830945472416
 20
-99.44700479813798
 30
0.0
 11
132.290094547242
 21
-96.53700479813817
 31
0.0
  0
LINE
  5
1A2
330
70
100
AcDbEntity
  8
プレート
 62
   250
420
  2299925
370
    35
100
AcDbLine
 10
132.290094547242
 20
-96.53700479813817
 30
0.0
 11
129.3782945472417
 21
-110.230504798138
 31
0.0
  0
LINE
  5
1A3
330
70
100
AcDbEntity
  8
プレート
 62
   250
420
  2299925
370
    35
100
AcDbLine
 10
230.0315831177588
 20
-195.841897583267
 30
0.0
 11
229.3605831180424
 21
-192.6833975832066
 31
0.0
  0
LINE
  5
1A4
330
70
100
AcDbEntity
  8
プレート
 62
   250
420
  2299925
370
    35
100
AcDbLine
 10
229.3605831180424
 20
-192.6833975832066
 30
0.0
 11
230.8515831180714
 21
-192.3664975833398
 31
0.0
  0
LINE
  5
1A5
330
70
100
AcDbEntity
  8
プレート
 62
   250
420
  2299925
370
    35
100
AcDbLine
 10
230.8515831180714
 20
-192.3664975833398
 30
0.0
 11
231.8285831176582
 21
-196.9635975834281
 31
0.0
  0
LINE
  5
1A6
330
70
100
AcDbEntity
  8
プレート
 62
   250
420
  2299925
370
    35
100
AcDbLine
 10
231.8285831176582
 20
-196.9635975834281
 30
0.0
 11
245.5235831179195
 21
-194.0517975846574
 31
0.0
  0
LINE
  5
1A7
330
70
100
AcDbEntity
  8
プレート
 62
   250
420
  2299925
370
    35
100
AcDbLine
 10
245.5235831179195
 20
-194.0517975846574
 30
0.0
 11
244.546583118332
 21
-189.4560975845701
 31
0.0
  0
LINE
  5
1A8
330
70
100
AcDbEntity
  8
プレート
 62
   250
420
  2299925
370
    35
100
AcDbLine
 10
244.546583118332
 20
-189.4560975845701
 30
0.0
 11
246.0385831183607
 21
-189.1390975847037
 31
0.0
  0
LINE
  5
1A9
330
70
100
AcDbEntity
  8
プレート
 62
   250
420
  2299925
370
    35
100
AcDbLine
 10
246.0385831183607
 20
-189.1390975847037
 30
0.0
 11
246.7085831180767
 21
-192.2989975847638
 31
0.0
  0
LINE
  5
1AA
330
70
100
AcDbEntity
  8
プレート
 62
   250
420
  2299925
370
    35
100
AcDbLine
 10
246.7085831180767
 20
-192.2989975847638
 30
0.0
 11
253.3115831182032
 21
-190.8946975853566
 31
0.0
  0
LINE
  5
1AB
330
70
100
AcDbEntity
  8
プレート
 62
   250
420
  2299925
370
    35
100
AcDbLine
 10
253.3115831182032
 20
-190.8946975853566
 30
0.0
 11
252.6395831184865
 21
-187.7348975852966
 31
0.0
  0
LINE
  5
1AC
330
70
100
AcDbEntity
  8
プレート
 62
   250
420
  2299925
370
    35
100
AcDbLine
 10
252.6395831184865
 20
-187.7348975852966
 30
0.0
 11
253.4465831185021
 21
-187.563997585369
 31
0.0
  0
LINE
  5
1AD
330
70
100
AcDbEntity
  8
プレート
 62
   250
420
  2299925
370
    35
100
AcDbLine
 10
253.4465831185021
 20
-187.563997585369
 30
0.0
 11
252.8655831187482
 21
-184.8244975853173
 31
0.0
  0
LINE
  5
1AE
330
70
100
AcDbEntity
  8
プレート
 62
   250
420
  2299925
370
    35
100
AcDbLine
 10
252.8655831187482
 20
-184.8244975853173
 30
0.0
 11
252.0585831187326
 21
-184.9966975852445
 31
0.0
  0
LINE
  5
1AF
330
70
100
AcDbEntity
  8
プレート
 62
   250
420
  2299925
370
    35
100
AcDbLine
 10
252.0585831187326
 20
-184.9966975852445
 30
0.0
 11
250.7545831192832
 21
-178.8630575851272
 31
0.0
  0
LINE
  5
1B0
330
70
100
AcDbEntity
  8
プレート
 62
   250
420
  2299925
370
    35
100
AcDbLine
 10
250.7545831192832
 20
-178.8630575851272
 30
0.0
 11
249.0675831192506
 21
-179.2241275849756
 31
0.0
  0
LINE
  5
1B1
330
70
100
AcDbEntity
  8
プレート
 62
   250
420
  2299925
370
    35
100
AcDbLine
 10
249.0675831192506
 20
-179.2241275849756
 30
0.0
 11
248.8185831193567
 21
-178.0486375849534
 31
0.0
  0
LINE
  5
1B2
330
70
100
AcDbEntity
  8
プレート
 62
   250
420
  2299925
370
    35
100
AcDbLine
 10
248.8185831193567
 20
-178.0486375849534
 30
0.0
 11
245.5895831192946
 21
-178.7348975846635
 31
0.0
  0
LINE
  5
1B3
330
70
100
AcDbEntity
  8
プレート
 62
   250
420
  2299925
370
    35
100
AcDbLine
 10
245.5895831192946
 20
-178.7348975846635
 30
0.0
 11
245.8385831191898
 21
-179.9090075846855
 31
0.0
  0
LINE
  5
1B4
330
70
100
AcDbEntity
  8
プレート
 62
   250
420
  2299925
370
    35
100
AcDbLine
 10
245.8385831191898
 20
-179.9090075846855
 30
0.0
 11
244.1525831191577
 21
-180.265917584535
 31
0.0
  0
LINE
  5
1B5
330
70
100
AcDbEntity
  8
プレート
 62
   250
420
  2299925
370
    35
100
AcDbLine
 10
244.1525831191577
 20
-180.265917584535
 30
0.0
 11
245.0805831187646
 21
-184.6397975846177
 31
0.0
  0
LINE
  5
1B6
330
70
100
AcDbEntity
  8
プレート
 62
   250
420
  2299925
370
    35
100
AcDbLine
 10
245.0805831187646
 20
-184.6397975846177
 30
0.0
 11
243.5885831187359
 21
-184.9567975844841
 31
0.0
  0
LINE
  5
1B7
330
70
100
AcDbEntity
  8
プレート
 62
   250
420
  2299925
370
    35
100
AcDbLine
 10
243.5885831187359
 20
-184.9567975844841
 30
0.0
 11
242.611583119149
 21
-180.3582375843962
 31
0.0
  0
LINE
  5
1B8
330
70
100
AcDbEntity
  8
プレート
 62
   250
420
  2299925
370
    35
100
AcDbLine
 10
242.611583119149
 20
-180.3582375843962
 30
0.0
 11
228.9175831188875
 21
-183.2700275831665
 31
0.0
  0
LINE
  5
1B9
330
70
100
AcDbEntity
  8
プレート
 62
   250
420
  2299925
370
    35
100
AcDbLine
 10
228.9175831188875
 20
-183.2700275831665
 30
0.0
 11
229.8955831184747
 21
-187.8671975832545
 31
0.0
  0
LINE
  5
1BA
330
70
100
AcDbEntity
  8
プレート
 62
   250
420
  2299925
370
    35
100
AcDbLine
 10
229.8955831184747
 20
-187.8671975832545
 30
0.0
 11
228.4035831184466
 21
-188.1840975831207
 31
0.0
  0
LINE
  5
1BB
330
70
100
AcDbEntity
  8
プレート
 62
   250
420
  2299925
370
    35
100
AcDbLine
 10
228.4035831184466
 20
-188.1840975831207
 30
0.0
 11
227.4755831188391
 21
-183.8115975830369
 31
0.0
  0
LINE
  5
1BC
330
70
100
AcDbEntity
  8
プレート
 62
   250
420
  2299925
370
    35
100
AcDbLine
 10
227.4755831188391
 20
-183.8115975830369
 30
0.0
 11
225.7875831188074
 21
-184.1698975828857
 31
0.0
  0
LINE
  5
1BD
330
70
100
AcDbEntity
  8
プレート
 62
   250
420
  2299925
370
    35
100
AcDbLine
 10
225.7875831188074
 20
-184.1698975828857
 30
0.0
 11
225.5375831189124
 21
-182.995817582863
 31
0.0
  0
LINE
  5
1BE
330
70
100
AcDbEntity
  8
プレート
 62
   250
420
  2299925
370
    35
100
AcDbLine
 10
225.5375831189124
 20
-182.995817582863
 30
0.0
 11
222.3105831188505
 21
-183.6820975825734
 31
0.0
  0
LINE
  5
1BF
330
70
100
AcDbEntity
  8
プレート
 62
   250
420
  2299925
370
    35
100
AcDbLine
 10
222.3105831188505
 20
-183.6820975825734
 30
0.0
 11
222.5595831187457
 21
-184.8561975825956
 31
0.0
  0
LINE
  5
1C0
330
70
100
AcDbEntity
  8
プレート
 62
   250
420
  2299925
370
    35
100
AcDbLine
 10
222.5595831187457
 20
-184.8561975825956
 30
0.0
 11
220.8715831187128
 21
-185.215797582444
 31
0.0
  0
LINE
  5
1C1
330
70
100
AcDbEntity
  8
プレート
 62
   250
420
  2299925
370
    35
100
AcDbLine
 10
220.8715831187128
 20
-185.215797582444
 30
0.0
 11
222.1765831181626
 21
-191.3480975825608
 31
0.0
  0
LINE
  5
1C2
330
70
100
AcDbEntity
  8
プレート
 62
   250
420
  2299925
370
    35
100
AcDbLine
 10
222.1765831181626
 20
-191.3480975825608
 30
0.0
 11
221.369583118147
 21
-191.518997582489
 31
0.0
  0
LINE
  5
1C3
330
70
100
AcDbEntity
  8
プレート
 62
   250
420
  2299925
370
    35
100
AcDbLine
 10
221.369583118147
 20
-191.518997582489
 30
0.0
 11
221.9505831179009
 21
-194.2584975825413
 31
0.0
  0
LINE
  5
1C4
330
70
100
AcDbEntity
  8
プレート
 62
   250
420
  2299925
370
    35
100
AcDbLine
 10
221.9505831179009
 20
-194.2584975825413
 30
0.0
 11
222.7585831179163
 21
-194.0862975826135
 31
0.0
  0
LINE
  5
1C5
330
70
100
AcDbEntity
  8
プレート
 62
   250
420
  2299925
370
    35
100
AcDbLine
 10
222.7585831179163
 20
-194.0862975826135
 30
0.0
 11
223.4295831176326
 21
-197.2460975826741
 31
0.0
  0
LINE
  5
1C6
330
70
100
AcDbEntity
  8
プレート
 62
   250
420
  2299925
370
    35
100
AcDbLine
 10
223.4295831176326
 20
-197.2460975826741
 30
0.0
 11
230.0315831177588
 21
-195.841897583267
 31
0.0
  0
LINE
  5
1C7
330
70
100
AcDbEntity
  8
プレート
 62
   250
420
  2299925
370
    35
100
AcDbLine
 10
268.7149201562867
 20
-175.7588040893916
 30
0.0
 11
271.6249201562864
 21
-189.452404089392
 31
0.0
  0
LINE
  5
1C8
330
70
100
AcDbEntity
  8
プレート
 62
   250
420
  2299925
370
    35
100
AcDbLine
 10
271.6249201562864
 20
-189.452404089392
 30
0.0
 11
285.3189201562862
 21
-186.5420040893915
 31
0.0
  0
LINE
  5
1C9
330
70
100
AcDbEntity
  8
プレート
 62
   250
420
  2299925
370
    35
100
AcDbLine
 10
285.3189201562862
 20
-186.5420040893915
 30
0.0
 11
282.4099201562861
 21
-172.847004089392
 31
0.0
  0
LINE
  5
1CA
330
70
100
AcDbEntity
  8
プレート
 62
   250
420
  2299925
370
    35
100
AcDbLine
 10
282.4099201562861
 20
-172.847004089392
 30
0.0
 11
268.7149201562867
 21
-175.7588040893916
 31
0.0
  0
LINE
  5
1CB
330
70
100
AcDbEntity
  8
プレート
 62
   250
420
  2299925
370
    35
100
AcDbLine
 10
208.655920156286
 20
-168.0749040893916
 30
0.0
 11
211.5649201562861
 21
-181.7684040893918
 31
0.0
  0
LINE
  5
1CC
330
70
100
AcDbEntity
  8
プレート
 62
   250
420
  2299925
370
    35
100
AcDbLine
 10
211.5649201562861
 20
-181.7684040893918
 30
0.0
 11
225.2599201562865
 21
-178.858004089392
 31
0.0
  0
LINE
  5
1CD
330
70
100
AcDbEntity
  8
プレート
 62
   250
420
  2299925
370
    35
100
AcDbLine
 10
225.2599201562865
 20
-178.858004089392
 30
0.0
 11
222.3499201562864
 21
-165.1644040893916
 31
0.0
  0
LINE
  5
1CE
330
70
100
AcDbEntity
  8
プレート
 62
   250
420
  2299925
370
    35
100
AcDbLine
 10
222.3499201562864
 20
-165.1644040893916
 30
0.0
 11
208.655920156286
 21
-168.0749040893916
 31
0.0
  0
LINE
  5
1CF
330
70
100
AcDbEntity
  8
プレート
 62
   250
420
  2299925
370
    35
100
AcDbLine
 10
227.2889201562867
 20
-164.1142040893917
 30
0.0
 11
230.1989201562865
 21
-177.809304089392
 31
0.0
  0
LINE
  5
1D0
330
70
100
AcDbEntity
  8
プレート
 62
   250
420
  2299925
370
    35
100
AcDbLine
 10
230.1989201562865
 20
-177.809304089392
 30
0.0
 11
243.8939201562866
 21
-174.8975040893918
 31
0.0
  0
LINE
  5
1D1
330
70
100
AcDbEntity
  8
プレート
 62
   250
420
  2299925
370
    35
100
AcDbLine
 10
243.8939201562866
 20
-174.8975040893918
 30
0.0
 11
240.981920156286
 21
-161.2038040893919
 31
0.0
  0
LINE
  5
1D2
330
70
100
AcDbEntity
  8
プレート
 62
   250
420
  2299925
370
    35
100
AcDbLine
 10
240.981920156286
 20
-161.2038040893919
 30
0.0
 11
227.2889201562867
 21
-164.1142040893917
 31
0.0
  0
LINE
  5
1D3
330
70
100
AcDbEntity
  8
プレート
 62
   250
420
  2299925
370
    35
100
AcDbLine
 10
245.9219201562866
 20
-160.1539040893918
 30
0.0
 11
248.8329201562862
 21
-173.8475040893916
 31
0.0
  0
LINE
  5
1D4
330
70
100
AcDbEntity
  8
プレート
 62
   250
420
  2299925
370
    35
100
AcDbLine
 10
248.8329201562862
 20
-173.8475040893916
 30
0.0
 11
262.5279201562864
 21
-170.9370040893916
 31
0.0
  0
LINE
  5
1D5
330
70
100
AcDbEntity
  8
プレート
 62
   250
420
  2299925
370
    35
100
AcDbLine
 10
262.5279201562864
 20
-170.9370040893916
 30
0.0
 11
259.6159201562864
 21
-157.2421040893916
 31
0.0
  0
LINE
  5
1D6
330
70
100
AcDbEntity
  8
プレート
 62
   250
420
  2299925
370
    35
100
AcDbLine
 10
259.6159201562864
 20
-157.2421040893916
 30
0.0
 11
245.9219201562866
 21
-160.1539040893918
 31
0.0
  0
LINE
  5
1D7
330
70
100
AcDbEntity
  8
プレート
 62
   250
420
  2299925
370
    35
100
AcDbLine
 10
264.5559201562864
 20
-156.1919040893917
 30
0.0
 11
267.4669201562866
 21
-169.887004089392
 31
0.0
  0
LINE
  5
1D8
330
70
100
AcDbEntity
  8
プレート
 62
   250
420
  2299925
370
    35
100
AcDbLine
 10
267.4669201562866
 20
-169.887004089392
 30
0.0
 11
281.1619201562861
 21
-166.9767040893917
 31
0.0
  0
LINE
  5
1D9
330
70
100
AcDbEntity
  8
プレート
 62
   250
420
  2299925
370
    35
100
AcDbLine
 10
281.1619201562861
 20
-166.9767040893917
 30
0.0
 11
278.2499201562862
 21
-153.2829040893916
 31
0.0
  0
LINE
  5
1DA
330
70
100
AcDbEntity
  8
プレート
 62
   250
420
  2299925
370
    35
100
AcDbLine
 10
278.2499201562862
 20
-153.2829040893916
 30
0.0
 11
264.5559201562864
 21
-156.1919040893917
 31
0.0
  0
LINE
  5
1DB
330
70
100
AcDbEntity
  8
プレート
 62
   250
420
  2299925
370
    35
100
AcDbLine
 10
213.0799201562865
 20
-147.6592040893916
 30
0.0
 11
215.9899201562863
 21
-161.3527040893918
 31
0.0
  0
LINE
  5
1DC
330
70
100
AcDbEntity
  8
プレート
 62
   250
420
  2299925
370
    35
100
AcDbLine
 10
215.9899201562863
 20
-161.3527040893918
 30
0.0
 11
229.6849201562864
 21
-158.442304089392
 31
0.0
  0
LINE
  5
1DD
330
70
100
AcDbEntity
  8
プレート
 62
   250
420
  2299925
370
    35
100
AcDbLine
 10
229.6849201562864
 20
-158.442304089392
 30
0.0
 11
226.7729201562865
 21
-144.7488040893917
 31
0.0
  0
LINE
  5
1DE
330
70
100
AcDbEntity
  8
プレート
 62
   250
420
  2299925
370
    35
100
AcDbLine
 10
226.7729201562865
 20
-144.7488040893917
 30
0.0
 11
213.0799201562865
 21
-147.6592040893916
 31
0.0
  0
LINE
  5
1DF
330
70
100
AcDbEntity
  8
プレート
 62
   250
420
  2299925
370
    35
100
AcDbLine
 10
231.7139201562863
 20
-143.6986040893919
 30
0.0
 11
234.6239201562861
 21
-157.3924040893919
 31
0.0
  0
LINE
  5
1E0
330
70
100
AcDbEntity
  8
プレート
 62
   250
420
  2299925
370
    35
100
AcDbLine
 10
234.6239201562861
 20
-157.3924040893919
 30
0.0
 11
248.3189201562862
 21
-154.4820040893915
 31
0.0
  0
LINE
  5
1E1
330
70
100
AcDbEntity
  8
プレート
 62
   250
420
  2299925
370
    35
100
AcDbLine
 10
248.3189201562862
 20
-154.4820040893915
 30
0.0
 11
245.4069201562863
 21
-140.788204089392
 31
0.0
  0
LINE
  5
1E2
330
70
100
AcDbEntity
  8
プレート
 62
   250
420
  2299925
370
    35
100
AcDbLine
 10
245.4069201562863
 20
-140.788204089392
 30
0.0
 11
231.7139201562863
 21
-143.6986040893919
 31
0.0
  0
LINE
  5
1E3
330
70
100
AcDbEntity
  8
プレート
 62
   250
420
  2299925
370
    35
100
AcDbLine
 10
250.3459201562865
 20
-139.738304089392
 30
0.0
 11
253.2579201562864
 21
-153.4318040893916
 31
0.0
  0
LINE
  5
1E4
330
70
100
AcDbEntity
  8
プレート
 62
   250
420
  2299925
370
    35
100
AcDbLine
 10
253.2579201562864
 20
-153.4318040893916
 30
0.0
 11
266.9509201562865
 21
-150.5199040893918
 31
0.0
  0
LINE
  5
1E5
330
70
100
AcDbEntity
  8
プレート
 62
   250
420
  2299925
370
    35
100
AcDbLine
 10
266.9509201562865
 20
-150.5199040893918
 30
0.0
 11
264.0409201562866
 21
-136.8265040893917
 31
0.0
  0
LINE
  5
1E6
330
70
100
AcDbEntity
  8
プレート
 62
   250
420
  2299925
370
    35
100
AcDbLine
 10
264.0409201562866
 20
-136.8265040893917
 30
0.0
 11
250.3459201562865
 21
-139.738304089392
 31
0.0
  0
LINE
  5
1E7
330
70
100
AcDbEntity
  8
プレート
 62
   250
420
  2299925
370
    35
100
AcDbLine
 10
268.9809201562866
 20
-135.7763040893919
 30
0.0
 11
271.8909201562864
 21
-149.4701040893919
 31
0.0
  0
LINE
  5
1E8
330
70
100
AcDbEntity
  8
プレート
 62
   250
420
  2299925
370
    35
100
AcDbLine
 10
271.8909201562864
 20
-149.4701040893919
 30
0.0
 11
285.5849201562862
 21
-146.5611040893918
 31
0.0
  0
LINE
  5
1E9
330
70
100
AcDbEntity
  8
プレート
 62
   250
420
  2299925
370
    35
100
AcDbLine
 10
285.5849201562862
 20
-146.5611040893918
 30
0.0
 11
282.6749201562864
 21
-132.8645040893916
 31
0.0
  0
LINE
  5
1EA
330
70
100
AcDbEntity
  8
プレート
 62
   250
420
  2299925
370
    35
100
AcDbLine
 10
282.6749201562864
 20
-132.8645040893916
 30
0.0
 11
268.9809201562866
 21
-135.7763040893919
 31
0.0
  0
LINE
  5
1EB
330
70
100
AcDbEntity
  8
プレート
 62
   250
420
  2299925
370
    35
100
AcDbLine
 10
206.3229201562863
 20
-129.6193040893917
 30
0.0
 11
209.2349201562865
 21
-143.3141040893914
 31
0.0
  0
LINE
  5
1EC
330
70
100
AcDbEntity
  8
プレート
 62
   250
420
  2299925
370
    35
100
AcDbLine
 10
209.2349201562865
 20
-143.3141040893914
 30
0.0
 11
222.9279201562862
 21
-140.4026040893917
 31
0.0
  0
LINE
  5
1ED
330
70
100
AcDbEntity
  8
プレート
 62
   250
420
  2299925
370
    35
100
AcDbLine
 10
222.9279201562862
 20
-140.4026040893917
 30
0.0
 11
220.0179201562864
 21
-126.7088040893916
 31
0.0
  0
LINE
  5
1EE
330
70
100
AcDbEntity
  8
プレート
 62
   250
420
  2299925
370
    35
100
AcDbLine
 10
220.0179201562864
 20
-126.7088040893916
 30
0.0
 11
206.3229201562863
 21
-129.6193040893917
 31
0.0
  0
LINE
  5
1EF
330
70
100
AcDbEntity
  8
プレート
 62
   250
420
  2299925
370
    35
100
AcDbLine
 10
224.956920156286
 20
-125.6590040893918
 30
0.0
 11
227.8689201562866
 21
-139.3524040893918
 31
0.0
  0
LINE
  5
1F0
330
70
100
AcDbEntity
  8
プレート
 62
   250
420
  2299925
370
    35
100
AcDbLine
 10
227.8689201562866
 20
-139.3524040893918
 30
0.0
 11
241.5619201562866
 21
-136.4420040893916
 31
0.0
  0
LINE
  5
1F1
330
70
100
AcDbEntity
  8
プレート
 62
   250
420
  2299925
370
    35
100
AcDbLine
 10
241.5619201562866
 20
-136.4420040893916
 30
0.0
 11
238.6519201562862
 21
-122.7471040893914
 31
0.0
  0
LINE
  5
1F2
330
70
100
AcDbEntity
  8
プレート
 62
   250
420
  2299925
370
    35
100
AcDbLine
 10
238.6519201562862
 20
-122.7471040893914
 30
0.0
 11
224.956920156286
 21
-125.6590040893918
 31
0.0
  0
LINE
  5
1F3
330
70
100
AcDbEntity
  8
プレート
 62
   250
420
  2299925
370
    35
100
AcDbLine
 10
243.5919201562862
 20
-121.6969040893918
 30
0.0
 11
246.5009201562862
 21
-135.3918040893917
 31
0.0
  0
LINE
  5
1F4
330
70
100
AcDbEntity
  8
プレート
 62
   250
420
  2299925
370
    35
100
AcDbLine
 10
246.5009201562862
 20
-135.3918040893917
 30
0.0
 11
260.1959201562864
 21
-132.4813040893918
 31
0.0
  0
LINE
  5
1F5
330
70
100
AcDbEntity
  8
プレート
 62
   250
420
  2299925
370
    35
100
AcDbLine
 10
260.1959201562864
 20
-132.4813040893918
 30
0.0
 11
257.2859201562866
 21
-118.787904089392
 31
0.0
  0
LINE
  5
1F6
330
70
100
AcDbEntity
  8
プレート
 62
   250
420
  2299925
370
    35
100
AcDbLine
 10
257.2859201562866
 20
-118.787904089392
 30
0.0
 11
243.5919201562862
 21
-121.6969040893918
 31
0.0
  0
LINE
  5
1F7
330
70
100
AcDbEntity
  8
プレート
 62
   250
420
  2299925
370
    35
100
AcDbLine
 10
262.2249201562862
 20
-117.7377040893918
 30
0.0
 11
265.1349201562866
 21
-131.4315040893916
 31
0.0
  0
LINE
  5
1F8
330
70
100
AcDbEntity
  8
プレート
 62
   250
420
  2299925
370
    35
100
AcDbLine
 10
265.1349201562866
 20
-131.4315040893916
 30
0.0
 11
278.8299201562861
 21
-128.5211040893917
 31
0.0
  0
LINE
  5
1F9
330
70
100
AcDbEntity
  8
プレート
 62
   250
420
  2299925
370
    35
100
AcDbLine
 10
278.8299201562861
 20
-128.5211040893917
 30
0.0
 11
275.9179201562862
 21
-114.8262040893917
 31
0.0
  0
LINE
  5
1FA
330
70
100
AcDbEntity
  8
プレート
 62
   250
420
  2299925
370
    35
100
AcDbLine
 10
275.9179201562862
 20
-114.8262040893917
 30
0.0
 11
262.2249201562862
 21
-117.7377040893918
 31
0.0
  0
LINE
  5
1FB
330
70
100
AcDbEntity
  8
プレート
 62
   250
420
  2299925
370
    35
100
AcDbLine
 10
211.6799201562865
 20
-109.0054040893917
 30
0.0
 11
214.5899201562863
 21
-122.7002040893915
 31
0.0
  0
LINE
  5
1FC
330
70
100
AcDbEntity
  8
プレート
 62
   250
420
  2299925
370
    35
100
AcDbLine
 10
214.5899201562863
 20
-122.7002040893915
 30
0.0
 11
228.2849201562864
 21
-119.7884040893916
 31
0.0
  0
LINE
  5
1FD
330
70
100
AcDbEntity
  8
プレート
 62
   250
420
  2299925
370
    35
100
AcDbLine
 10
228.2849201562864
 20
-119.7884040893916
 30
0.0
 11
225.3729201562865
 21
-106.0950040893916
 31
0.0
  0
LINE
  5
1FE
330
70
100
AcDbEntity
  8
プレート
 62
   250
420
  2299925
370
    35
100
AcDbLine
 10
225.3729201562865
 20
-106.0950040893916
 30
0.0
 11
211.6799201562865
 21
-109.0054040893917
 31
0.0
  0
LINE
  5
1FF
330
70
100
AcDbEntity
  8
プレート
 62
   250
420
  2299925
370
    35
100
AcDbLine
 10
230.3129201562864
 20
-105.044804089392
 30
0.0
 11
233.2239201562867
 21
-118.7382040893917
 31
0.0
  0
LINE
  5
200
330
70
100
AcDbEntity
  8
プレート
 62
   250
420
  2299925
370
    35
100
AcDbLine
 10
233.2239201562867
 20
-118.7382040893917
 30
0.0
 11
246.9189201562862
 21
-115.8278040893916
 31
0.0
  0
LINE
  5
201
330
70
100
AcDbEntity
  8
プレート
 62
   250
420
  2299925
370
    35
100
AcDbLine
 10
246.9189201562862
 20
-115.8278040893916
 30
0.0
 11
244.0069201562862
 21
-102.1327040893916
 31
0.0
  0
LINE
  5
202
330
70
100
AcDbEntity
  8
プレート
 62
   250
420
  2299925
370
    35
100
AcDbLine
 10
244.0069201562862
 20
-102.1327040893916
 30
0.0
 11
230.3129201562864
 21
-105.044804089392
 31
0.0
  0
LINE
  5
203
330
70
100
AcDbEntity
  8
プレート
 62
   250
420
  2299925
370
    35
100
AcDbLine
 10
248.9469201562862
 20
-101.0837040893918
 30
0.0
 11
251.8589201562861
 21
-114.7779040893919
 31
0.0
  0
LINE
  5
204
330
70
100
AcDbEntity
  8
プレート
 62
   250
420
  2299925
370
    35
100
AcDbLine
 10
251.8589201562861
 20
-114.7779040893919
 30
0.0
 11
265.5519201562861
 21
-111.867504089392
 31
0.0
  0
LINE
  5
205
330
70
100
AcDbEntity
  8
プレート
 62
   250
420
  2299925
370
    35
100
AcDbLine
 10
265.5519201562861
 20
-111.867504089392
 30
0.0
 11
262.6419201562864
 21
-98.17370408939165
 31
0.0
  0
LINE
  5
206
330
70
100
AcDbEntity
  8
プレート
 62
   250
420
  2299925
370
    35
100
AcDbLine
 10
262.6419201562864
 20
-98.17370408939165
 30
0.0
 11
248.9469201562862
 21
-101.0837040893918
 31
0.0
  0
LINE
  5
207
330
70
100
AcDbEntity
  8
プレート
 62
   250
420
  2299925
370
    35
100
AcDbLine
 10
267.5809201562866
 20
-97.12370408939179
 30
0.0
 11
270.4909201562864
 21
-110.8173040893918
 31
0.0
  0
LINE
  5
208
330
70
100
AcDbEntity
  8
プレート
 62
   250
420
  2299925
370
    35
100
AcDbLine
 10
270.4909201562864
 20
-110.8173040893918
 30
0.0
 11
284.1849201562861
 21
-107.9068040893918
 31
0.0
  0
LINE
  5
209
330
70
100
AcDbEntity
  8
プレート
 62
   250
420
  2299925
370
    35
100
AcDbLine
 10
284.1849201562861
 20
-107.9068040893918
 30
0.0
 11
281.2759201562861
 21
-94.21170408939183
 31
0.0
  0
LINE
  5
20A
330
70
100
AcDbEntity
  8
プレート
 62
   250
420
  2299925
370
    35
100
AcDbLine
 10
281.2759201562861
 20
-94.21170408939183
 30
0.0
 11
267.5809201562866
 21
-97.12370408939179
 31
0.0
  0
ENDSEC
  0
SECTION
  2
OBJECTS
  0
DICTIONARY
  5
C
330
0
100
AcDbDictionary
281
     1
  3
ACAD_COLOR
350
63
  3
ACAD_DETAILVIEWSTYLE
350
6A
  3
ACAD_GROUP
350
D
  3
ACAD_LAYOUT
350
62
  3
ACAD_MATERIAL
350
10
  3
ACAD_MLEADERSTYLE
350
66
  3
ACAD_MLINESTYLE
350
5F
  3
ACAD_PLOTSETTINGS
350
61
  3
ACAD_PLOTSTYLENAME
350
E
  3
ACAD_SCALELIST
350
42
  3
ACAD_SECTIONVIEWSTYLE
350
68
  3
ACAD_TABLESTYLE
350
64
  3
ACAD_VISUALSTYLE
350
29
  3
ACDB_RECOMPOSE_DATA
350
213
  3
AcDbVariableDictionary
350
20B
  0
DICTIONARY
  5
63
102
{ACAD_REACTORS
330
C
102
}
330
C
100
AcDbDictionary
281
     1
  0
DICTIONARY
  5
6A
102
{ACAD_REACTORS
330
C
102
}
330
C
100
AcDbDictionary
281
     1
  3
Imperial24
350
6B
  0
DICTIONARY
  5
D
102
{ACAD_REACTORS
330
C
102
}
330
C
100
AcDbDictionary
281
     1
  0
DICTIONARY
  5
62
102
{ACAD_REACTORS
330
C
102
}
330
C
100
AcDbDictionary
281
     1
  3
Layout1
350
6F
  3
Layout2
350
77
  3
Model
350
73
  0
DICTIONARY
  5
10
102
{ACAD_REACTORS
330
C
102
}
330
C
100
AcDbDictionary
281
     1
  3
ByBlock
350
19
  3
ByLayer
350
11
  3
Global
350
21
  0
DICTIONARY
  5
66
102
{ACAD_REACTORS
330
C
102
}
330
C
100
AcDbDictionary
281
     1
  3
Standard
350
67
  0
DICTIONARY
  5
5F
102
{ACAD_REACTORS
330
C
102
}
330
C
100
AcDbDictionary
281
     1
  3
Standard
350
60
  0
DICTIONARY
  5
61
102
{ACAD_REACTORS
330
C
102
}
330
C
100
AcDbDictionary
281
     1
  0
ACDBDICTIONARYWDFLT
  5
E
102
{ACAD_REACTORS
330
C
102
}
330
C
100
AcDbDictionary
281
     1
  3
Normal
350
F
100
AcDbDictionaryWithDefault
340
F
  0
DICTIONARY
  5
42
102
{ACAD_REACTORS
330
C
102
}
330
C
100
AcDbDictionary
281
     1
  3
A0
350
43
  3
A1
350
44
  3
A2
350
45
  3
A3
350
46
  3
A4
350
47
  3
A5
350
48
  3
A6
350
49
  3
A7
350
4A
  3
A8
350
4B
  3
A9
350
4C
  3
B0
350
4D
  3
B1
350
4E
  3
B2
350
4F
  3
B3
350
50
  3
B4
350
51
  3
B5
350
52
  3
B6
350
53
  0
DICTIONARY
  5
68
102
{ACAD_REACTORS
330
C
102
}
330
C
100
AcDbDictionary
281
     1
  3
Imperial24
350
69
  0
DICTIONARY
  5
64
102
{ACAD_REACTORS
330
C
102
}
330
C
100
AcDbDictionary
281
     1
  3
Standard
350
65
  0
DICTIONARY
  5
29
102
{ACAD_REACTORS
330
C
102
}
330
C
100
AcDbDictionary
281
     1
  3
2dWireframe
350
2F
  3
Basic
350
2E
  3
Brighten
350
35
  3
ColorChange
350
39
  3
Conceptual
350
32
  3
Dim
350
34
  3
EdgeColorOff
350
41
  3
Facepattern
350
38
  3
Flat
350
2A
  3
FlatWithEdges
350
2B
  3
Gouraud
350
2C
  3
GouraudWithEdges
350
2D
  3
Hidden
350
31
  3
JitterOff
350
3F
  3
Linepattern
350
37
  3
OverhangOff
350
40
  3
Realistic
350
33
  3
Shaded
350
3E
  3
Shaded with edges
350
3D
  3
Shades of Gray
350
3A
  3
Sketchy
350
3B
  3
Thicken
350
36
  3
Wireframe
350
30
  3
X-Ray
350
3C
  0
XRECORD
  5
213
102
{ACAD_REACTORS
330
C
102
}
330
C
100
AcDbXrecord
280
     1
 90
        1
330
65
  0
DICTIONARY
  5
20B
102
{ACAD_REACTORS
330
C
102
}
330
C
100
AcDbDictionary
281
     1
  3
CANNOSCALE
350
210
  3
CMLEADERSTYLE
350
20D
  3
CTABLESTYLE
350
20C
  3
CVIEWDETAILSTYLE
350
20E
  3
CVIEWSECTIONSTYLE
350
20F
  0
ACDBDETAILVIEWSTYLE
  5
6B
102
{ACAD_XDICTIONARY
360
216
102
}
102
{ACAD_REACTORS
330
6A
102
}
330
6A
100
AcDbModelDocViewStyle
 70
     0
  3
Imperial24
290
     0
100
AcDbDetailViewStyle
 70
     0
 71
     0
 90
        3
 71
     1
340
55
 62
   256
 40
0.24
340
0
 62
   256
 40
0.24
300

 40
0.36
280
     3
 71
     2
340
5D
 90
       25
 62
   256
 71
     3
340
55
 62
   256
 40
0.24
 90
        1
 40
0.75
 90
        1
300
%<\AcVar ViewType \f "%tc1">% %<\AcVar ViewDetailId>%\PSCALE %<\AcVar ViewScale \f "%sn">%
 71
     4
340
5D
 90
       25
 62
   256
340
5D
 90
       25
 62
   256
280
     0
  0
LAYOUT
  5
6F
102
{ACAD_REACTORS
330
62
102
}
330
62
100
AcDbPlotSettings
  1

  2

  4

  6

 40
0.0
 41
0.0
 42
0.0
 43
0.0
 44
0.0
 45
0.0
 46
0.0
 47
0.0
 48
0.0
 49
0.0
140
0.0
141
0.0
142
1.0
143
1.0
 70
   688
 72
     0
 73
     0
 74
     5
  7

 75
    16
147
1.0
 76
     0
 77
     2
 78
   300
148
0.0
149
0.0
100
AcDbLayout
  1
Layout1
 70
     1
 71
     1
 10
0.0
 20
0.0
 11
12.0
 21
9.0
 12
0.0
 22
0.0
 32
0.0
 14
0.0
 24
0.0
 34
0.0
 15
0.0
 25
0.0
 35
0.0
146
0.0
 13
0.0
 23
0.0
 33
0.0
 16
1.0
 26
0.0
 36
0.0
 17
0.0
 27
1.0
 37
0.0
 76
     0
330
6C
  0
LAYOUT
  5
77
102
{ACAD_REACTORS
330
62
102
}
330
62
100
AcDbPlotSettings
  1

  2

  4

  6

 40
0.0
 41
0.0
 42
0.0
 43
0.0
 44
0.0
 45
0.0
 46
0.0
 47
0.0
 48
0.0
 49
0.0
140
0.0
141
0.0
142
1.0
143
1.0
 70
   688
 72
     0
 73
     0
 74
     5
  7

 75
    16
147
1.0
 76
     0
 77
     2
 78
   300
148
0.0
149
0.0
100
AcDbLayout
  1
Layout2
 70
     1
 71
     2
 10
0.0
 20
0.0
 11
12.0
 21
9.0
 12
0.0
 22
0.0
 32
0.0
 14
0.0
 24
0.0
 34
0.0
 15
0.0
 25
0.0
 35
0.0
146
0.0
 13
0.0
 23
0.0
 33
0.0
 16
1.0
 26
0.0
 36
0.0
 17
0.0
 27
1.0
 37
0.0
 76
     0
330
74
  0
LAYOUT
  5
73
102
{ACAD_REACTORS
330
62
102
}
330
62
100
AcDbPlotSettings
  1

  2

  4

  6

 40
0.0
 41
0.0
 42
0.0
 43
0.0
 44
0.0
 45
0.0
 46
0.0
 47
0.0
 48
0.0
 49
0.0
140
0.0
141
0.0
142
1.0
143
1.0
 70
  1712
 72
     0
 73
     0
 74
     0
  7

 75
     0
147
1.0
 76
     0
 77
     2
 78
   300
148
0.0
149
0.0
100
AcDbLayout
  1
Model
 70
     1
 71
     0
 10
0.0
 20
0.0
 11
12.0
 21
9.0
 12
0.0
 22
0.0
 32
0.0
 14
0.0
 24
0.0
 34
0.0
 15
0.0
 25
0.0
 35
0.0
146
0.0
 13
0.0
 23
0.0
 33
0.0
 16
1.0
 26
0.0
 36
0.0
 17
0.0
 27
1.0
 37
0.0
 76
     0
330
70
  0
MATERIAL
  5
19
102
{ACAD_XDICTIONARY
360
1A
102
}
102
{ACAD_REACTORS
330
10
102
}
330
10
100
AcDbMaterial
  1
ByBlock
 72
     0
 43
0.0208333333333333
 43
0.0
 43
0.0
 43
0.0
 43
0.0
 43
0.0208333333333333
 43
0.0
 43
0.0
 43
0.0
 43
0.0
 43
1.0
 43
0.0
 43
0.0
 43
0.0
 43
0.0
 43
1.0
 77
     0
 47
0.0208333333333333
 47
0.0
 47
0.0
 47
0.0
 47
0.0
 47
0.0208333333333333
 47
0.0
 47
0.0
 47
0.0
 47
0.0
 47
1.0
 47
0.0
 47
0.0
 47
0.0
 47
0.0
 47
1.0
171
     0
 49
0.0208333333333333
 49
0.0
 49
0.0
 49
0.0
 49
0.0
 49
0.0208333333333333
 49
0.0
 49
0.0
 49
0.0
 49
0.0
 49
1.0
 49
0.0
 49
0.0
 49
0.0
 49
0.0
 49
1.0
175
     0
142
0.0208333333333333
142
0.0
142
0.0
142
0.0
142
0.0
142
0.0208333333333333
142
0.0
142
0.0
142
0.0
142
0.0
142
1.0
142
0.0
142
0.0
142
0.0
142
0.0
142
1.0
179
     0
144
0.0208333333333333
144
0.0
144
0.0
144
0.0
144
0.0
144
0.0208333333333333
144
0.0
144
0.0
144
0.0
144
0.0
144
1.0
144
0.0
144
0.0
144
0.0
144
0.0
144
1.0
147
0.0208333333333333
147
0.0
147
0.0
147
0.0
147
0.0
147
0.0208333333333333
147
0.0
147
0.0
147
0.0
147
0.0
147
1.0
147
0.0
147
0.0
147
0.0
147
0.0
147
1.0
  0
MATERIAL
  5
11
102
{ACAD_XDICTIONARY
360
12
102
}
102
{ACAD_REACTORS
330
10
102
}
330
10
100
AcDbMaterial
  1
ByLayer
 72
     0
 43
0.0208333333333333
 43
0.0
 43
0.0
 43
0.0
 43
0.0
 43
0.0208333333333333
 43
0.0
 43
0.0
 43
0.0
 43
0.0
 43
1.0
 43
0.0
 43
0.0
 43
0.0
 43
0.0
 43
1.0
 77
     0
 47
0.0208333333333333
 47
0.0
 47
0.0
 47
0.0
 47
0.0
 47
0.0208333333333333
 47
0.0
 47
0.0
 47
0.0
 47
0.0
 47
1.0
 47
0.0
 47
0.0
 47
0.0
 47
0.0
 47
1.0
171
     0
 49
0.0208333333333333
 49
0.0
 49
0.0
 49
0.0
 49
0.0
 49
0.0208333333333333
 49
0.0
 49
0.0
 49
0.0
 49
0.0
 49
1.0
 49
0.0
 49
0.0
 49
0.0
 49
0.0
 49
1.0
175
     0
142
0.0208333333333333
142
0.0
142
0.0
142
0.0
142
0.0
142
0.0208333333333333
142
0.0
142
0.0
142
0.0
142
0.0
142
1.0
142
0.0
142
0.0
142
0.0
142
0.0
142
1.0
179
     0
144
0.0208333333333333
144
0.0
144
0.0
144
0.0
144
0.0
144
0.0208333333333333
144
0.0
144
0.0
144
0.0
144
0.0
144
1.0
144
0.0
144
0.0
144
0.0
144
0.0
144
1.0
147
0.0208333333333333
147
0.0
147
0.0
147
0.0
147
0.0
147
0.0208333333333333
147
0.0
147
0.0
147
0.0
147
0.0
147
1.0
147
0.0
147
0.0
147
0.0
147
0.0
147
1.0
  0
MATERIAL
  5
21
102
{ACAD_XDICTIONARY
360
22
102
}
102
{ACAD_REACTORS
330
10
102
}
330
10
100
AcDbMaterial
  1
Global
 72
     0
 43
0.0208333333333333
 43
0.0
 43
0.0
 43
0.0
 43
0.0
 43
0.0208333333333333
 43
0.0
 43
0.0
 43
0.0
 43
0.0
 43
1.0
 43
0.0
 43
0.0
 43
0.0
 43
0.0
 43
1.0
 77
     0
 47
0.0208333333333333
 47
0.0
 47
0.0
 47
0.0
 47
0.0
 47
0.0208333333333333
 47
0.0
 47
0.0
 47
0.0
 47
0.0
 47
1.0
 47
0.0
 47
0.0
 47
0.0
 47
0.0
 47
1.0
171
     0
 49
0.0208333333333333
 49
0.0
 49
0.0
 49
0.0
 49
0.0
 49
0.0208333333333333
 49
0.0
 49
0.0
 49
0.0
 49
0.0
 49
1.0
 49
0.0
 49
0.0
 49
0.0
 49
0.0
 49
1.0
175
     0
142
0.0208333333333333
142
0.0
142
0.0
142
0.0
142
0.0
142
0.0208333333333333
142
0.0
142
0.0
142
0.0
142
0.0
142
1.0
142
0.0
142
0.0
142
0.0
142
0.0
142
1.0
179
     0
144
0.0208333333333333
144
0.0
144
0.0
144
0.0
144
0.0
144
0.0208333333333333
144
0.0
144
0.0
144
0.0
144
0.0
144
1.0
144
0.0
144
0.0
144
0.0
144
0.0
144
1.0
147
0.0208333333333333
147
0.0
147
0.0
147
0.0
147
0.0
147
0.0208333333333333
147
0.0
147
0.0
147
0.0
147
0.0
147
1.0
147
0.0
147
0.0
147
0.0
147
0.0
147
1.0
  0
MLEADERSTYLE
  5
67
102
{ACAD_REACTORS
330
66
102
}
330
66
100
AcDbMLeaderStyle
179
     2
170
     2
171
     1
172
     0
 90
        2
 40
0.0
 41
0.0
173
     1
 91
-1056964608
340
5B
 92
       -2
290
     1
 42
0.09
291
     1
 43
0.36
  3
Standard
 44
0.18
300

342
55
174
     1
178
     6
175
     1
176
     0
 93
-1056964608
 45
0.18
292
     0
297
     0
 46
0.18
 94
-1056964608
 47
1.0
 49
1.0
140
1.0
293
     1
141
0.0
294
     1
177
     0
142
1.0
295
     0
296
     0
143
0.125
271
     0
272
     9
273
     9
298
     1
  0
MLINESTYLE
  5
60
102
{ACAD_REACTORS
330
5F
102
}
330
5F
100
AcDbMlineStyle
  2
STANDARD
 70
     0
  3

 62
   256
 51
90.0
 52
90.0
 71
     2
 49
0.5
 62
   256
  6
BYLAYER
 49
-0.5
 62
   256
  6
BYLAYER
  0
ACDBPLACEHOLDER
  5
F
102
{ACAD_REACTORS
330
E
102
}
330
E
  0
SCALE
  5
43
102
{ACAD_REACTORS
330
42
102
}
330
42
100
AcDbScale
 70
     0
300
1:1
140
1.0
141
1.0
290
     1
  0
SCALE
  5
44
102
{ACAD_REACTORS
330
42
102
}
330
42
100
AcDbScale
 70
     0
300
1/128" = 1'-0"
140
0.0078125
141
12.0
290
     0
  0
SCALE
  5
45
102
{ACAD_REACTORS
330
42
102
}
330
42
100
AcDbScale
 70
     0
300
1/64" = 1'-0"
140
0.015625
141
12.0
290
     0
  0
SCALE
  5
46
102
{ACAD_REACTORS
330
42
102
}
330
42
100
AcDbScale
 70
     0
300
1/32" = 1'-0"
140
0.03125
141
12.0
290
     0
  0
SCALE
  5
47
102
{ACAD_REACTORS
330
42
102
}
330
42
100
AcDbScale
 70
     0
300
1/16" = 1'-0"
140
0.0625
141
12.0
290
     0
  0
SCALE
  5
48
102
{ACAD_REACTORS
330
42
102
}
330
42
100
AcDbScale
 70
     0
300
3/32" = 1'-0"
140
0.09375
141
12.0
290
     0
  0
SCALE
  5
49
102
{ACAD_REACTORS
330
42
102
}
330
42
100
AcDbScale
 70
     0
300
1/8" = 1'-0"
140
0.125
141
12.0
290
     0
  0
SCALE
  5
4A
102
{ACAD_REACTORS
330
42
102
}
330
42
100
AcDbScale
 70
     0
300
3/16" = 1'-0"
140
0.1875
141
12.0
290
     0
  0
SCALE
  5
4B
102
{ACAD_REACTORS
330
42
102
}
330
42
100
AcDbScale
 70
     0
300
1/4" = 1'-0"
140
0.25
141
12.0
290
     0
  0
SCALE
  5
4C
102
{ACAD_REACTORS
330
42
102
}
330
42
100
AcDbScale
 70
     0
300
3/8" = 1'-0"
140
0.375
141
12.0
290
     0
  0
SCALE
  5
4D
102
{ACAD_REACTORS
330
42
102
}
330
42
100
AcDbScale
 70
     0
300
1/2" = 1'-0"
140
0.5
141
12.0
290
     0
  0
SCALE
  5
4E
102
{ACAD_REACTORS
330
42
102
}
330
42
100
AcDbScale
 70
     0
300
3/4" = 1'-0"
140
0.75
141
12.0
290
     0
  0
SCALE
  5
4F
102
{ACAD_REACTORS
330
42
102
}
330
42
100
AcDbScale
 70
     0
300
1" = 1'-0"
140
1.0
141
12.0
290
     0
  0
SCALE
  5
50
102
{ACAD_REACTORS
330
42
102
}
330
42
100
AcDbScale
 70
     0
300
1-1/2" = 1'-0"
140
1.5
141
12.0
290
     0
  0
SCALE
  5
51
102
{ACAD_REACTORS
330
42
102
}
330
42
100
AcDbScale
 70
     0
300
3" = 1'-0"
140
3.0
141
12.0
290
     0
  0
SCALE
  5
52
102
{ACAD_REACTORS
330
42
102
}
330
42
100
AcDbScale
 70
     0
300
6" = 1'-0"
140
6.0
141
12.0
290
     0
  0
SCALE
  5
53
102
{ACAD_REACTORS
330
42
102
}
330
42
100
AcDbScale
 70
     0
300
1'-0" = 1'-0"
140
12.0
141
12.0
290
     0
  0
ACDBSECTIONVIEWSTYLE
  5
69
102
{ACAD_XDICTIONARY
360
214
102
}
102
{ACAD_REACTORS
330
68
102
}
330
68
100
AcDbModelDocViewStyle
 70
     0
  3
Imperial24
290
     0
100
AcDbSectionViewStyle
 70
     0
 71
     0
 90
       78
 71
     1
340
55
 62
   256
 40
0.24
340
0
340
0
 62
   256
 40
0.24
300
I, O, Q, S, X, Z
 40
0.48
 90
        3
 40
0.18
 90
        1
 71
     2
340
5D
 90
       25
 62
   256
340
5D
 90
       50
 62
   256
 40
0.24
 40
0.0
 40
0.24
 71
     3
340
55
 62
   256
 40
0.24
 90
        1
 40
0.75
 90
        1
300
%<\AcVar ViewType \f "%tc1">% %<\AcVar ViewSectionStartId>%-%<\AcVar ViewSectionEndId>%\PSCALE %<\AcVar ViewScale \f "%sn">%
 71
     4
 62
   256
 62
   257
300
ANSI31
 40
1.0
 90
        0
290
     0
290
     0
 90
        6
 40
0.0
 40
1.570796326794896
 40
0.2617993877991494
 40
1.308996938995747
 40
-0.2617993877991494
 40
1.832595714594046
  0
TABLESTYLE
  5
65
102
{ACAD_XDICTIONARY
360
211
102
}
102
{ACAD_REACTORS
330
64
102
}
330
64
100
AcDbTableStyle
280
     0
  3
Standard
 70
     0
 71
     0
 40
0.06
 41
0.06
280
     0
281
     0
  7
Standard
140
0.18
170
     2
 62
     0
 63
     7
283
     0
 90
      512
 91
        0
  1

274
    -2
284
     1
 64
     0
275
    -2
285
     1
 65
     0
276
    -2
286
     1
 66
     0
277
    -2
287
     1
 67
     0
278
    -2
288
     1
 68
     0
279
    -2
289
     1
 69
     0
  7
Standard
140
0.25
170
     5
 62
     0
 63
     7
283
     0
 90
      512
 91
        0
  1

274
    -2
284
     1
 64
     0
275
    -2
285
     1
 65
     0
276
    -2
286
     1
 66
     0
277
    -2
287
     1
 67
     0
278
    -2
288
     1
 68
     0
279
    -2
289
     1
 69
     0
  7
Standard
140
0.18
170
     5
 62
     0
 63
     7
283
     0
 90
      512
 91
        0
  1

274
    -2
284
     1
 64
     0
275
    -2
285
     1
 65
     0
276
    -2
286
     1
 66
     0
277
    -2
287
     1
 67
     0
278
    -2
288
     1
 68
     0
279
    -2
289
     1
 69
     0
  0
VISUALSTYLE
  5
2F
102
{ACAD_REACTORS
330
29
102
}
330
29
100
AcDbVisualStyle
  2
2dWireframe
 70
     4
177
     3
291
     0
 70
    58
 90
        0
176
     1
 90
        2
176
     1
 90
        0
176
     1
 90
        0
176
     1
 40
0.6
176
     1
 40
30.0
176
     1
 62
     7
420
 16777215
176
     1
 90
        1
176
     1
 90
        4
176
     1
 62
     7
176
     1
 62
   257
176
     1
 90
        1
176
     1
 90
        1
176
     1
 40
1.0
176
     1
 90
        0
176
     1
 62
   257
176
     1
 40
1.0
176
     1
 90
        1
176
     1
 90
        6
176
     1
 90
        2
176
     1
 62
     7
176
     1
 90
        5
176
     1
 90
        0
176
     1
 90
        0
176
     1
290
     0
176
     1
 90
        1
176
     1
 40
0.0
176
     1
 90
        0
176
     1
290
     1
176
     1
290
     1
176
     1
290
     0
176
     1
290
     0
176
     1
290
     0
176
     1
290
     0
176
     1
290
     0
176
     1
290
     0
176
     1
290
     0
176
     1
 90
       50
176
     1
 40
0.0
176
     1
 40
1.0
176
     1
 90
        0
176
     1
 62
    18
420
        0
176
     1
 90
       50
176
     1
 90
        3
176
     1
 62
     5
420
      255
176
     1
290
     0
176
     1
 90
       50
176
     1
 90
       50
176
     1
 90
       50
176
     1
290
     0
176
     1
 90
       50
176
     1
 62
   256
176
     0
 40
1.0
176
     0
 90
        2
176
     1
  1
strokes_ogs.tif
176
     1
290
     0
176
     1
 40
1.0
176
     1
 40
1.0
176
     1
1001
ACAD
1000
AcDbSavedByObjectVersion
1070
     0
  0
VISUALSTYLE
  5
2E
102
{ACAD_REACTORS
330
29
102
}
330
29
100
AcDbVisualStyle
  2
Basic
 70
     7
177
     3
291
     1
 70
    58
 90
        1
176
     1
 90
        0
176
     1
 90
        1
176
     1
 90
        0
176
     1
 40
0.6
176
     1
 40
30.0
176
     1
 62
     7
420
 16777215
176
     1
 90
        0
176
     1
 90
        4
176
     1
 62
     7
176
     1
 62
   257
176
     1
 90
        1
176
     1
 90
        1
176
     1
 40
1.0
176
     1
 90
        8
176
     1
 62
     7
176
     1
 40
1.0
176
     1
 90
        1
176
     1
 90
        6
176
     1
 90
        2
176
     1
 62
     7
176
     1
 90
        5
176
     1
 90
        0
176
     1
 90
        0
176
     1
290
     0
176
     1
 90
        1
176
     1
 40
0.0
176
     1
 90
        0
176
     1
290
     0
176
     1
290
     1
176
     1
290
     1
176
     1
290
     0
176
     1
290
     0
176
     1
290
     0
176
     1
290
     0
176
     1
290
     0
176
     1
290
     0
176
     1
 90
       50
176
     1
 40
0.0
176
     1
 40
1.0
176
     1
 90
        0
176
     1
 62
    18
420
        0
176
     1
 90
       50
176
     1
 90
        3
176
     1
 62
     5
420
      255
176
     1
290
     0
176
     1
 90
       50
176
     1
 90
       50
176
     1
 90
       50
176
     1
290
     0
176
     1
 90
       50
176
     1
 62
   256
176
     0
 40
1.0
176
     0
 90
        2
176
     1
  1
strokes_ogs.tif
176
     1
290
     0
176
     1
 40
1.0
176
     1
 40
1.0
176
     1
1001
ACAD
1000
AcDbSavedByObjectVersion
1070
     0
  0
VISUALSTYLE
  5
35
102
{ACAD_REACTORS
330
29
102
}
330
29
100
AcDbVisualStyle
  2
Brighten
 70
    12
177
     3
291
     1
 70
    58
 90
        2
176
     1
 90
        2
176
     1
 90
        0
176
     1
 90
        0
176
     1
 40
0.6
176
     1
 40
30.0
176
     1
 62
     7
420
 16777215
176
     1
 90
        1
176
     1
 90
        4
176
     1
 62
     7
176
     1
 62
   257
176
     1
 90
        1
176
     1
 90
        1
176
     1
 40
1.0
176
     1
 90
        8
176
     1
 62
     7
176
     1
 40
1.0
176
     1
 90
        1
176
     1
 90
        6
176
     1
 90
        2
176
     1
 62
     7
176
     1
 90
        5
176
     1
 90
        0
176
     1
 90
        0
176
     1
290
     0
176
     1
 90
        1
176
     1
 40
50.0
176
     1
 90
        0
176
     1
290
     0
176
     1
290
     1
176
     1
290
     1
176
     1
290
     0
176
     1
290
     0
176
     1
290
     0
176
     1
290
     0
176
     1
290
     0
176
     1
290
     0
176
     1
 90
       50
176
     1
 40
0.0
176
     1
 40
1.0
176
     1
 90
        0
176
     1
 62
    18
420
        0
176
     1
 90
       50
176
     1
 90
        3
176
     1
 62
     5
420
      255
176
     1
290
     0
176
     1
 90
       50
176
     1
 90
       50
176
     1
 90
       50
176
     1
290
     0
176
     1
 90
       50
176
     1
 62
   256
176
     0
 40
1.0
176
     0
 90
        2
176
     1
  1
strokes_ogs.tif
176
     1
290
     0
176
     1
 40
1.0
176
     1
 40
1.0
176
     1
1001
ACAD
1000
AcDbSavedByObjectVersion
1070
     0
  0
VISUALSTYLE
  5
39
102
{ACAD_REACTORS
330
29
102
}
330
29
100
AcDbVisualStyle
  2
ColorChange
 70
    16
177
     3
291
     1
 70
    58
 90
        2
176
     1
 90
        2
176
     1
 90
        3
176
     1
 90
        0
176
     1
 40
0.6
176
     1
 40
30.0
176
     1
 62
     8
420
  8421504
176
     1
 90
        1
176
     1
 90
        4
176
     1
 62
     7
176
     1
 62
   257
176
     1
 90
        1
176
     1
 90
        1
176
     1
 40
1.0
176
     1
 90
        8
176
     1
 62
     8
420
  8421504
176
     1
 40
1.0
176
     1
 90
        1
176
     1
 90
        6
176
     1
 90
        2
176
     1
 62
     7
176
     1
 90
        5
176
     1
 90
        0
176
     1
 90
        0
176
     1
290
     0
176
     1
 90
        1
176
     1
 40
0.0
176
     1
 90
        0
176
     1
290
     0
176
     1
290
     1
176
     1
290
     1
176
     1
290
     0
176
     1
290
     0
176
     1
290
     0
176
     1
290
     0
176
     1
290
     0
176
     1
290
     0
176
     1
 90
       50
176
     1
 40
0.0
176
     1
 40
1.0
176
     1
 90
        0
176
     1
 62
    18
420
        0
176
     1
 90
       50
176
     1
 90
        3
176
     1
 62
     5
420
      255
176
     1
290
     0
176
     1
 90
       50
176
     1
 90
       50
176
     1
 90
       50
176
     1
290
     0
176
     1
 90
       50
176
     1
 62
   256
176
     0
 40
1.0
176
     0
 90
        2
176
     1
  1
strokes_ogs.tif
176
     1
290
     0
176
     1
 40
1.0
176
     1
 40
1.0
176
     1
1001
ACAD
1000
AcDbSavedByObjectVersion
1070
     0
  0
VISUALSTYLE
  5
32
102
{ACAD_REACTORS
330
29
102
}
330
29
100
AcDbVisualStyle
  2
Conceptual
 70
     9
177
     3
291
     0
 70
    58
 90
        3
176
     1
 90
        2
176
     1
 90
        0
176
     1
 90
        0
176
     1
 40
0.6
176
     1
 40
30.0
176
     1
 62
     7
420
 16777215
176
     1
 90
        2
176
     1
 90
        2
176
     1
 62
     7
176
     1
 62
   257
176
     1
 90
        1
176
     1
 90
        1
176
     1
 40
179.0
176
     1
 90
        8
176
     1
 62
     7
176
     1
 40
1.0
176
     1
 90
        1
176
     1
 90
        6
176
     1
 90
        2
176
     1
 62
     7
176
     1
 90
        3
176
     1
 90
        0
176
     1
 90
        0
176
     1
290
     0
176
     1
 90
        1
176
     1
 40
0.0
176
     1
 90
        0
176
     1
290
     0
176
     1
290
     1
176
     1
290
     1
176
     1
290
     0
176
     1
290
     0
176
     1
290
     0
176
     1
290
     0
176
     1
290
     0
176
     1
290
     0
176
     1
 90
       50
176
     1
 40
0.0
176
     1
 40
1.0
176
     1
 90
        0
176
     1
 62
    18
420
        0
176
     1
 90
       50
176
     1
 90
        3
176
     1
 62
     5
420
      255
176
     1
290
     0
176
     1
 90
       50
176
     1
 90
       50
176
     1
 90
       50
176
     1
290
     0
176
     1
 90
       50
176
     1
 62
   256
176
     0
 40
1.0
176
     0
 90
        2
176
     1
  1
strokes_ogs.tif
176
     1
290
     0
176
     1
 40
1.0
176
     1
 40
1.0
176
     1
1001
ACAD
1000
AcDbSavedByObjectVersion
1070
     0
  0
VISUALSTYLE
  5
34
102
{ACAD_REACTORS
330
29
102
}
330
29
100
AcDbVisualStyle
  2
Dim
 70
    11
177
     3
291
     1
 70
    58
 90
        2
176
     1
 90
        2
176
     1
 90
        0
176
     1
 90
        0
176
     1
 40
0.6
176
     1
 40
30.0
176
     1
 62
     7
420
 16777215
176
     1
 90
        1
176
     1
 90
        4
176
     1
 62
     7
176
     1
 62
   257
176
     1
 90
        1
176
     1
 90
        1
176
     1
 40
1.0
176
     1
 90
        8
176
     1
 62
     7
176
     1
 40
1.0
176
     1
 90
        1
176
     1
 90
        6
176
     1
 90
        2
176
     1
 62
     7
176
     1
 90
        5
176
     1
 90
        0
176
     1
 90
        0
176
     1
290
     0
176
     1
 90
        1
176
     1
 40
-50.0
176
     1
 90
        0
176
     1
290
     0
176
     1
290
     1
176
     1
290
     1
176
     1
290
     0
176
     1
290
     0
176
     1
290
     0
176
     1
290
     0
176
     1
290
     0
176
     1
290
     0
176
     1
 90
       50
176
     1
 40
0.0
176
     1
 40
1.0
176
     1
 90
        0
176
     1
 62
    18
420
        0
176
     1
 90
       50
176
     1
 90
        3
176
     1
 62
     5
420
      255
176
     1
290
     0
176
     1
 90
       50
176
     1
 90
       50
176
     1
 90
       50
176
     1
290
     0
176
     1
 90
       50
176
     1
 62
   256
176
     0
 40
1.0
176
     0
 90
        2
176
     1
  1
strokes_ogs.tif
176
     1
290
     0
176
     1
 40
1.0
176
     1
 40
1.0
176
     1
1001
ACAD
1000
AcDbSavedByObjectVersion
1070
     0
  0
VISUALSTYLE
  5
41
102
{ACAD_REACTORS
330
29
102
}
330
29
100
AcDbVisualStyle
  2
EdgeColorOff
 70
    22
177
     3
291
     1
 70
    58
 90
        2
176
     0
 90
        2
176
     0
 90
        0
176
     0
 90
        0
176
     0
 40
0.6
176
     0
 40
30.0
176
     0
 62
     7
420
 16777215
176
     0
 90
        1
176
     0
 90
        4
176
     0
 62
     7
176
     0
 62
   257
176
     0
 90
        1
176
     0
 90
        1
176
     0
 40
1.0
176
     0
 90
        8
176
     2
 62
     7
176
     0
 40
1.0
176
     0
 90
        1
176
     0
 90
        6
176
     0
 90
        2
176
     0
 62
     7
176
     0
 90
        5
176
     0
 90
        0
176
     0
 90
        0
176
     0
290
     0
176
     0
 90
        1
176
     0
 40
0.0
176
     0
 90
        0
176
     0
290
     0
176
     0
290
     1
176
     0
290
     1
176
     0
290
     0
176
     0
290
     0
176
     0
290
     0
176
     0
290
     0
176
     0
290
     0
176
     0
290
     0
176
     0
 90
       50
176
     0
 40
0.0
176
     0
 40
1.0
176
     0
 90
        0
176
     0
 62
    18
420
        0
176
     0
 90
       50
176
     0
 90
        3
176
     0
 62
     5
420
      255
176
     0
290
     0
176
     0
 90
       50
176
     0
 90
       50
176
     0
 90
       50
176
     0
290
     0
176
     0
 90
       50
176
     0
 62
   256
176
     0
 40
1.0
176
     0
 90
        2
176
     0
  1
strokes_ogs.tif
176
     0
290
     0
176
     0
 40
1.0
176
     0
 40
1.0
176
     0
1001
ACAD
1000
AcDbSavedByObjectVersion
1070
     0
  0
VISUALSTYLE
  5
38
102
{ACAD_REACTORS
330
29
102
}
330
29
100
AcDbVisualStyle
  2
Facepattern
 70
    15
177
     3
291
     1
 70
    58
 90
        2
176
     1
 90
        2
176
     1
 90
        0
176
     1
 90
        0
176
     1
 40
0.6
176
     1
 40
30.0
176
     1
 62
     7
420
 16777215
176
     1
 90
        1
176
     1
 90
        4
176
     1
 62
     7
176
     1
 62
   257
176
     1
 90
        1
176
     1
 90
        1
176
     1
 40
1.0
176
     1
 90
        8
176
     1
 62
     7
176
     1
 40
1.0
176
     1
 90
        1
176
     1
 90
        6
176
     1
 90
        2
176
     1
 62
     7
176
     1
 90
        5
176
     1
 90
        0
176
     1
 90
        0
176
     1
290
     0
176
     1
 90
        1
176
     1
 40
0.0
176
     1
 90
        0
176
     1
290
     0
176
     1
290
     1
176
     1
290
     1
176
     1
290
     0
176
     1
290
     0
176
     1
290
     0
176
     1
290
     0
176
     1
290
     0
176
     1
290
     0
176
     1
 90
       50
176
     1
 40
0.0
176
     1
 40
1.0
176
     1
 90
        0
176
     1
 62
    18
420
        0
176
     1
 90
       50
176
     1
 90
        3
176
     1
 62
     5
420
      255
176
     1
290
     0
176
     1
 90
       50
176
     1
 90
       50
176
     1
 90
       50
176
     1
290
     0
176
     1
 90
       50
176
     1
 62
   256
176
     0
 40
1.0
176
     0
 90
        2
176
     1
  1
strokes_ogs.tif
176
     1
290
     0
176
     1
 40
1.0
176
     1
 40
1.0
176
     1
1001
ACAD
1000
AcDbSavedByObjectVersion
1070
     0
  0
VISUALSTYLE
  5
2A
102
{ACAD_REACTORS
330
29
102
}
330
29
100
AcDbVisualStyle
  2
Flat
 70
     0
177
     3
291
     1
 70
    58
 90
        2
176
     1
 90
        1
176
     1
 90
        1
176
     1
 90
        2
176
     1
 40
0.6
176
     1
 40
30.0
176
     1
 62
     7
420
 16777215
176
     1
 90
        0
176
     1
 90
        0
176
     1
 62
     7
176
     1
 62
   257
176
     1
 90
        1
176
     1
 90
        1
176
     1
 40
1.0
176
     1
 90
        8
176
     1
 62
     7
176
     1
 40
1.0
176
     1
 90
        1
176
     1
 90
        6
176
     1
 90
        2
176
     1
 62
     7
176
     1
 90
        5
176
     1
 90
        0
176
     1
 90
        0
176
     1
290
     0
176
     1
 90
       13
176
     1
 40
0.0
176
     1
 90
        0
176
     1
290
     0
176
     1
290
     1
176
     1
290
     1
176
     1
290
     0
176
     1
290
     0
176
     1
290
     0
176
     1
290
     0
176
     1
290
     0
176
     1
290
     0
176
     1
 90
       50
176
     1
 40
0.0
176
     1
 40
1.0
176
     1
 90
        0
176
     1
 62
    18
420
        0
176
     1
 90
       50
176
     1
 90
        3
176
     1
 62
     5
420
      255
176
     1
290
     0
176
     1
 90
       50
176
     1
 90
       50
176
     1
 90
       50
176
     1
290
     0
176
     1
 90
       50
176
     1
 62
   256
176
     0
 40
1.0
176
     0
 90
        2
176
     1
  1
strokes_ogs.tif
176
     1
290
     0
176
     1
 40
1.0
176
     1
 40
1.0
176
     1
1001
ACAD
1000
AcDbSavedByObjectVersion
1070
     0
  0
VISUALSTYLE
  5
2B
102
{ACAD_REACTORS
330
29
102
}
330
29
100
AcDbVisualStyle
  2
FlatWithEdges
 70
     1
177
     3
291
     1
 70
    58
 90
        2
176
     1
 90
        1
176
     1
 90
        1
176
     1
 90
        2
176
     1
 40
0.6
176
     1
 40
30.0
176
     1
 62
     7
420
 16777215
176
     1
 90
        1
176
     1
 90
        0
176
     1
 62
     7
176
     1
 62
   257
176
     1
 90
        1
176
     1
 90
        1
176
     1
 40
1.0
176
     1
 90
        0
176
     1
 62
   257
176
     1
 40
1.0
176
     1
 90
        1
176
     1
 90
        6
176
     1
 90
        2
176
     1
 62
     7
176
     1
 90
        5
176
     1
 90
        0
176
     1
 90
        0
176
     1
290
     0
176
     1
 90
       13
176
     1
 40
0.0
176
     1
 90
        0
176
     1
290
     0
176
     1
290
     1
176
     1
290
     1
176
     1
290
     0
176
     1
290
     0
176
     1
290
     0
176
     1
290
     0
176
     1
290
     0
176
     1
290
     0
176
     1
 90
       50
176
     1
 40
0.0
176
     1
 40
1.0
176
     1
 90
        0
176
     1
 62
    18
420
        0
176
     1
 90
       50
176
     1
 90
        3
176
     1
 62
     5
420
      255
176
     1
290
     0
176
     1
 90
       50
176
     1
 90
       50
176
     1
 90
       50
176
     1
290
     0
176
     1
 90
       50
176
     1
 62
   256
176
     0
 40
1.0
176
     0
 90
        2
176
     1
  1
strokes_ogs.tif
176
     1
290
     0
176
     1
 40
1.0
176
     1
 40
1.0
176
     1
1001
ACAD
1000
AcDbSavedByObjectVersion
1070
     0
  0
VISUALSTYLE
  5
2C
102
{ACAD_REACTORS
330
29
102
}
330
29
100
AcDbVisualStyle
  2
Gouraud
 70
     2
177
     3
291
     1
 70
    58
 90
        2
176
     1
 90
        2
176
     1
 90
        1
176
     1
 90
        2
176
     1
 40
0.6
176
     1
 40
30.0
176
     1
 62
     7
420
 16777215
176
     1
 90
        0
176
     1
 90
        0
176
     1
 62
     7
176
     1
 62
   257
176
     1
 90
        1
176
     1
 90
        1
176
     1
 40
1.0
176
     1
 90
        0
176
     1
 62
     7
176
     1
 40
1.0
176
     1
 90
        1
176
     1
 90
        6
176
     1
 90
        2
176
     1
 62
     7
176
     1
 90
        5
176
     1
 90
        0
176
     1
 90
        0
176
     1
290
     0
176
     1
 90
       13
176
     1
 40
0.0
176
     1
 90
        0
176
     1
290
     0
176
     1
290
     1
176
     1
290
     1
176
     1
290
     0
176
     1
290
     0
176
     1
290
     0
176
     1
290
     0
176
     1
290
     0
176
     1
290
     0
176
     1
 90
       50
176
     1
 40
0.0
176
     1
 40
1.0
176
     1
 90
        0
176
     1
 62
    18
420
        0
176
     1
 90
       50
176
     1
 90
        3
176
     1
 62
     5
420
      255
176
     1
290
     0
176
     1
 90
       50
176
     1
 90
       50
176
     1
 90
       50
176
     1
290
     0
176
     1
 90
       50
176
     1
 62
   256
176
     0
 40
1.0
176
     0
 90
        2
176
     1
  1
strokes_ogs.tif
176
     1
290
     0
176
     1
 40
1.0
176
     1
 40
1.0
176
     1
1001
ACAD
1000
AcDbSavedByObjectVersion
1070
     0
  0
VISUALSTYLE
  5
2D
102
{ACAD_REACTORS
330
29
102
}
330
29
100
AcDbVisualStyle
  2
GouraudWithEdges
 70
     3
177
     3
291
     1
 70
    58
 90
        2
176
     1
 90
        2
176
     1
 90
        1
176
     1
 90
        2
176
     1
 40
0.6
176
     1
 40
30.0
176
     1
 62
     7
420
 16777215
176
     1
 90
        1
176
     1
 90
        0
176
     1
 62
     7
176
     1
 62
   257
176
     1
 90
        1
176
     1
 90
        1
176
     1
 40
1.0
176
     1
 90
        0
176
     1
 62
   257
176
     1
 40
1.0
176
     1
 90
        1
176
     1
 90
        6
176
     1
 90
        2
176
     1
 62
     7
176
     1
 90
        5
176
     1
 90
        0
176
     1
 90
        0
176
     1
290
     0
176
     1
 90
       13
176
     1
 40
0.0
176
     1
 90
        0
176
     1
290
     0
176
     1
290
     1
176
     1
290
     1
176
     1
290
     0
176
     1
290
     0
176
     1
290
     0
176
     1
290
     0
176
     1
290
     0
176
     1
290
     0
176
     1
 90
       50
176
     1
 40
0.0
176
     1
 40
1.0
176
     1
 90
        0
176
     1
 62
    18
420
        0
176
     1
 90
       50
176
     1
 90
        3
176
     1
 62
     5
420
      255
176
     1
290
     0
176
     1
 90
       50
176
     1
 90
       50
176
     1
 90
       50
176
     1
290
     0
176
     1
 90
       50
176
     1
 62
   256
176
     0
 40
1.0
176
     0
 90
        2
176
     1
  1
strokes_ogs.tif
176
     1
290
     0
176
     1
 40
1.0
176
     1
 40
1.0
176
     1
1001
ACAD
1000
AcDbSavedByObjectVersion
1070
     0
  0
VISUALSTYLE
  5
31
102
{ACAD_REACTORS
330
29
102
}
330
29
100
AcDbVisualStyle
  2
Hidden
 70
     6
177
     3
291
     0
 70
    58
 90
        1
176
     1
 90
        2
176
     1
 90
        2
176
     1
 90
        0
176
     1
 40
0.6
176
     1
 40
30.0
176
     1
 62
     7
420
 16777215
176
     1
 90
        2
176
     1
 90
        2
176
     1
 62
     7
176
     1
 62
   257
176
     1
 90
        2
176
     1
 90
        1
176
     1
 40
40.0
176
     1
 90
        0
176
     1
 62
   257
176
     1
 40
1.0
176
     1
 90
        1
176
     1
 90
        6
176
     1
 90
        2
176
     1
 62
     7
176
     1
 90
        3
176
     1
 90
        0
176
     1
 90
        0
176
     1
290
     0
176
     1
 90
        1
176
     1
 40
0.0
176
     1
 90
        0
176
     1
290
     0
176
     1
290
     1
176
     1
290
     1
176
     1
290
     0
176
     1
290
     0
176
     1
290
     0
176
     1
290
     0
176
     1
290
     0
176
     1
290
     0
176
     1
 90
       50
176
     1
 40
0.0
176
     1
 40
1.0
176
     1
 90
        0
176
     1
 62
    18
420
        0
176
     1
 90
       50
176
     1
 90
        3
176
     1
 62
     5
420
      255
176
     1
290
     0
176
     1
 90
       50
176
     1
 90
       50
176
     1
 90
       50
176
     1
290
     0
176
     1
 90
       50
176
     1
 62
   256
176
     0
 40
1.0
176
     0
 90
        2
176
     1
  1
strokes_ogs.tif
176
     1
290
     0
176
     1
 40
1.0
176
     1
 40
1.0
176
     1
1001
ACAD
1000
AcDbSavedByObjectVersion
1070
     0
  0
VISUALSTYLE
  5
3F
102
{ACAD_REACTORS
330
29
102
}
330
29
100
AcDbVisualStyle
  2
JitterOff
 70
    20
177
     3
291
     1
 70
    58
 90
        2
176
     0
 90
        2
176
     0
 90
        0
176
     0
 90
        0
176
     0
 40
0.6
176
     0
 40
30.0
176
     0
 62
     7
420
 16777215
176
     0
 90
        1
176
     0
 90
        4
176
     0
 62
     7
176
     0
 62
   257
176
     0
 90
        1
176
     0
 90
        1
176
     0
 40
1.0
176
     0
 90
       10
176
     2
 62
     7
176
     0
 40
1.0
176
     0
 90
        1
176
     0
 90
        6
176
     0
 90
        2
176
     0
 62
     7
176
     0
 90
        5
176
     0
 90
        0
176
     0
 90
        0
176
     0
290
     0
176
     0
 90
        1
176
     0
 40
0.0
176
     0
 90
        0
176
     0
290
     0
176
     0
290
     1
176
     0
290
     1
176
     0
290
     0
176
     0
290
     0
176
     0
290
     0
176
     0
290
     0
176
     0
290
     0
176
     0
290
     0
176
     0
 90
       50
176
     0
 40
0.0
176
     0
 40
1.0
176
     0
 90
        0
176
     0
 62
    18
420
        0
176
     0
 90
       50
176
     0
 90
        3
176
     0
 62
     5
420
      255
176
     0
290
     0
176
     0
 90
       50
176
     0
 90
       50
176
     0
 90
       50
176
     0
290
     0
176
     0
 90
       50
176
     0
 62
   256
176
     0
 40
1.0
176
     0
 90
        2
176
     0
  1
strokes_ogs.tif
176
     0
290
     0
176
     0
 40
1.0
176
     0
 40
1.0
176
     0
1001
ACAD
1000
AcDbSavedByObjectVersion
1070
     0
  0
VISUALSTYLE
  5
37
102
{ACAD_REACTORS
330
29
102
}
330
29
100
AcDbVisualStyle
  2
Linepattern
 70
    14
177
     3
291
     1
 70
    58
 90
        2
176
     1
 90
        2
176
     1
 90
        0
176
     1
 90
        0
176
     1
 40
0.6
176
     1
 40
30.0
176
     1
 62
     7
420
 16777215
176
     1
 90
        1
176
     1
 90
        4
176
     1
 62
     7
176
     1
 62
   257
176
     1
 90
        7
176
     1
 90
        7
176
     1
 40
1.0
176
     1
 90
        8
176
     1
 62
     7
176
     1
 40
1.0
176
     1
 90
        1
176
     1
 90
        6
176
     1
 90
        2
176
     1
 62
     7
176
     1
 90
        5
176
     1
 90
        0
176
     1
 90
        0
176
     1
290
     0
176
     1
 90
        1
176
     1
 40
0.0
176
     1
 90
        0
176
     1
290
     0
176
     1
290
     1
176
     1
290
     1
176
     1
290
     0
176
     1
290
     0
176
     1
290
     0
176
     1
290
     0
176
     1
290
     0
176
     1
290
     0
176
     1
 90
       50
176
     1
 40
0.0
176
     1
 40
1.0
176
     1
 90
        0
176
     1
 62
    18
420
        0
176
     1
 90
       50
176
     1
 90
        3
176
     1
 62
     5
420
      255
176
     1
290
     0
176
     1
 90
       50
176
     1
 90
       50
176
     1
 90
       50
176
     1
290
     0
176
     1
 90
       50
176
     1
 62
   256
176
     0
 40
1.0
176
     0
 90
        2
176
     1
  1
strokes_ogs.tif
176
     1
290
     0
176
     1
 40
1.0
176
     1
 40
1.0
176
     1
1001
ACAD
1000
AcDbSavedByObjectVersion
1070
     0
  0
VISUALSTYLE
  5
40
102
{ACAD_REACTORS
330
29
102
}
330
29
100
AcDbVisualStyle
  2
OverhangOff
 70
    21
177
     3
291
     1
 70
    58
 90
        2
176
     0
 90
        2
176
     0
 90
        0
176
     0
 90
        0
176
     0
 40
0.6
176
     0
 40
30.0
176
     0
 62
     7
420
 16777215
176
     0
 90
        1
176
     0
 90
        4
176
     0
 62
     7
176
     0
 62
   257
176
     0
 90
        1
176
     0
 90
        1
176
     0
 40
1.0
176
     0
 90
        9
176
     2
 62
     7
176
     0
 40
1.0
176
     0
 90
        1
176
     0
 90
        6
176
     0
 90
        2
176
     0
 62
     7
176
     0
 90
        5
176
     0
 90
        0
176
     0
 90
        0
176
     0
290
     0
176
     0
 90
        1
176
     0
 40
0.0
176
     0
 90
        0
176
     0
290
     0
176
     0
290
     1
176
     0
290
     1
176
     0
290
     0
176
     0
290
     0
176
     0
290
     0
176
     0
290
     0
176
     0
290
     0
176
     0
290
     0
176
     0
 90
       50
176
     0
 40
0.0
176
     0
 40
1.0
176
     0
 90
        0
176
     0
 62
    18
420
        0
176
     0
 90
       50
176
     0
 90
        3
176
     0
 62
     5
420
      255
176
     0
290
     0
176
     0
 90
       50
176
     0
 90
       50
176
     0
 90
       50
176
     0
290
     0
176
     0
 90
       50
176
     0
 62
   256
176
     0
 40
1.0
176
     0
 90
        2
176
     0
  1
strokes_ogs.tif
176
     0
290
     0
176
     0
 40
1.0
176
     0
 40
1.0
176
     0
1001
ACAD
1000
AcDbSavedByObjectVersion
1070
     0
  0
VISUALSTYLE
  5
33
102
{ACAD_REACTORS
330
29
102
}
330
29
100
AcDbVisualStyle
  2
Realistic
 70
     8
177
     3
291
     0
 70
    58
 90
        2
176
     1
 90
        3
176
     1
 90
        0
176
     1
 90
        2
176
     1
 40
0.6
176
     1
 40
30.0
176
     1
 62
     7
420
 16777215
176
     1
 90
        0
176
     1
 90
        0
176
     1
 62
     7
176
     1
 62
   257
176
     1
 90
        1
176
     1
 90
        1
176
     1
 40
1.0
176
     1
 90
        8
176
     1
 62
   257
176
     1
 40
1.0
176
     1
 90
        1
176
     1
 90
        6
176
     1
 90
        2
176
     1
 62
     7
176
     1
 90
        3
176
     1
 90
        0
176
     1
 90
        0
176
     1
290
     0
176
     1
 90
       13
176
     1
 40
0.0
176
     1
 90
        0
176
     1
290
     0
176
     1
290
     1
176
     1
290
     1
176
     1
290
     0
176
     1
290
     0
176
     1
290
     0
176
     1
290
     0
176
     1
290
     0
176
     1
290
     0
176
     1
 90
       50
176
     1
 40
0.0
176
     1
 40
1.0
176
     1
 90
        0
176
     1
 62
    18
420
        0
176
     1
 90
       50
176
     1
 90
        3
176
     1
 62
     5
420
      255
176
     1
290
     0
176
     1
 90
       50
176
     1
 90
       50
176
     1
 90
       50
176
     1
290
     0
176
     1
 90
       50
176
     1
 62
   256
176
     0
 40
1.0
176
     0
 90
        2
176
     1
  1
strokes_ogs.tif
176
     1
290
     0
176
     1
 40
1.0
176
     1
 40
1.0
176
     1
1001
ACAD
1000
AcDbSavedByObjectVersion
1070
     0
  0
VISUALSTYLE
  5
3E
102
{ACAD_REACTORS
330
29
102
}
330
29
100
AcDbVisualStyle
  2
Shaded
 70
    27
177
     3
291
     0
 70
    58
 90
        2
176
     1
 90
        2
176
     1
 90
        1
176
     1
 90
        2
176
     1
 40
0.6
176
     1
 40
30.0
176
     1
 62
     7
420
 16777215
176
     1
 90
        0
176
     1
 90
        4
176
     1
 62
     7
176
     1
 62
   257
176
     1
 90
        1
176
     1
 90
        1
176
     1
 40
1.0
176
     1
 90
        8
176
     1
 62
   257
176
     1
 40
1.0
176
     1
 90
        1
176
     1
 90
        6
176
     1
 90
        2
176
     1
 62
     8
420
  7895160
176
     1
 90
        3
176
     1
 90
        0
176
     1
 90
        0
176
     1
290
     0
176
     1
 90
        5
176
     1
 40
0.0
176
     1
 90
        0
176
     1
290
     0
176
     1
290
     1
176
     1
290
     1
176
     1
290
     0
176
     1
290
     0
176
     1
290
     0
176
     1
290
     0
176
     1
290
     0
176
     1
290
     0
176
     1
 90
       50
176
     1
 40
0.0
176
     1
 40
1.0
176
     1
 90
        0
176
     1
 62
    18
420
        0
176
     1
 90
       50
176
     1
 90
        3
176
     1
 62
     5
420
      255
176
     1
290
     0
176
     1
 90
       50
176
     1
 90
       50
176
     1
 90
       50
176
     1
290
     0
176
     1
 90
       50
176
     1
 62
   256
176
     0
 40
1.0
176
     0
 90
        2
176
     1
  1
strokes_ogs.tif
176
     1
290
     0
176
     1
 40
1.0
176
     1
 40
1.0
176
     1
1001
ACAD
1000
AcDbSavedByObjectVersion
1070
     0
  0
VISUALSTYLE
  5
3D
102
{ACAD_REACTORS
330
29
102
}
330
29
100
AcDbVisualStyle
  2
Shaded with edges
 70
    26
177
     3
291
     0
 70
    58
 90
        2
176
     1
 90
        2
176
     1
 90
        1
176
     1
 90
        2
176
     1
 40
0.6
176
     1
 40
30.0
176
     1
 62
     7
420
 16777215
176
     1
 90
        1
176
     1
 90
        2
176
     1
 62
     7
176
     1
 62
   257
176
     1
 90
        2
176
     1
 90
        1
176
     1
 40
1.0
176
     1
 90
        8
176
     1
 62
   257
176
     1
 40
1.0
176
     1
 90
        1
176
     1
 90
        6
176
     1
 90
        2
176
     1
 62
     7
176
     1
 90
        3
176
     1
 90
        0
176
     1
 90
        0
176
     1
290
     0
176
     1
 90
        5
176
     1
 40
0.0
176
     1
 90
        0
176
     1
290
     0
176
     1
290
     1
176
     1
290
     1
176
     1
290
     0
176
     1
290
     0
176
     1
290
     0
176
     1
290
     0
176
     1
290
     0
176
     1
290
     0
176
     1
 90
       50
176
     1
 40
0.0
176
     1
 40
1.0
176
     1
 90
        0
176
     1
 62
    18
420
        0
176
     1
 90
       50
176
     1
 90
        3
176
     1
 62
     5
420
      255
176
     1
290
     0
176
     1
 90
       50
176
     1
 90
       50
176
     1
 90
       50
176
     1
290
     0
176
     1
 90
       50
176
     1
 62
   256
176
     0
 40
1.0
176
     0
 90
        2
176
     1
  1
strokes_ogs.tif
176
     1
290
     0
176
     1
 40
1.0
176
     1
 40
1.0
176
     1
1001
ACAD
1000
AcDbSavedByObjectVersion
1070
     0
  0
VISUALSTYLE
  5
3A
102
{ACAD_REACTORS
330
29
102
}
330
29
100
AcDbVisualStyle
  2
Shades of Gray
 70
    23
177
     3
291
     0
 70
    58
 90
        2
176
     1
 90
        2
176
     1
 90
        3
176
     1
 90
        0
176
     1
 40
0.6
176
     1
 40
30.0
176
     1
 62
     7
420
 16777215
176
     1
 90
        2
176
     1
 90
        2
176
     1
 62
     7
176
     1
 62
     7
176
     1
 90
        1
176
     1
 90
        1
176
     1
 40
40.0
176
     1
 90
        8
176
     1
 62
     7
176
     1
 40
1.0
176
     1
 90
        1
176
     1
 90
        6
176
     1
 90
        2
176
     1
 62
     7
176
     1
 90
        3
176
     1
 90
        0
176
     1
 90
        0
176
     1
290
     0
176
     1
 90
        1
176
     1
 40
0.0
176
     1
 90
        0
176
     1
290
     0
176
     1
290
     1
176
     1
290
     1
176
     1
290
     0
176
     1
290
     0
176
     1
290
     0
176
     1
290
     0
176
     1
290
     0
176
     1
290
     0
176
     1
 90
       50
176
     1
 40
0.0
176
     1
 40
1.0
176
     1
 90
        0
176
     1
 62
    18
420
        0
176
     1
 90
       50
176
     1
 90
        3
176
     1
 62
     5
420
      255
176
     1
290
     0
176
     1
 90
       50
176
     1
 90
       50
176
     1
 90
       50
176
     1
290
     0
176
     1
 90
       50
176
     1
 62
   256
176
     0
 40
1.0
176
     0
 90
        2
176
     1
  1
strokes_ogs.tif
176
     1
290
     0
176
     1
 40
1.0
176
     1
 40
1.0
176
     1
1001
ACAD
1000
AcDbSavedByObjectVersion
1070
     0
  0
VISUALSTYLE
  5
3B
102
{ACAD_REACTORS
330
29
102
}
330
29
100
AcDbVisualStyle
  2
Sketchy
 70
    24
177
     3
291
     0
 70
    58
 90
        1
176
     1
 90
        2
176
     1
 90
        2
176
     1
 90
        0
176
     1
 40
0.6
176
     1
 40
30.0
176
     1
 62
     7
420
 16777215
176
     1
 90
        2
176
     1
 90
        2
176
     1
 62
     7
176
     1
 62
     7
176
     1
 90
        1
176
     1
 90
        1
176
     1
 40
40.0
176
     1
 90
       11
176
     1
 62
     7
176
     1
 40
1.0
176
     1
 90
        1
176
     1
 90
        6
176
     1
 90
        2
176
     1
 62
     7
176
     1
 90
        6
176
     1
 90
        0
176
     1
 90
        0
176
     1
290
     0
176
     1
 90
        1
176
     1
 40
0.0
176
     1
 90
        0
176
     1
290
     0
176
     1
290
     1
176
     1
290
     1
176
     1
290
     0
176
     1
290
     0
176
     1
290
     0
176
     1
290
     0
176
     1
290
     0
176
     1
290
     0
176
     1
 90
       50
176
     1
 40
0.0
176
     1
 40
1.0
176
     1
 90
        0
176
     1
 62
    18
420
        0
176
     1
 90
       50
176
     1
 90
        3
176
     1
 62
     5
420
      255
176
     1
290
     0
176
     1
 90
       50
176
     1
 90
       50
176
     1
 90
       50
176
     1
290
     0
176
     1
 90
       50
176
     1
 62
   256
176
     0
 40
1.0
176
     0
 90
        2
176
     1
  1
strokes_ogs.tif
176
     1
290
     0
176
     1
 40
1.0
176
     1
 40
1.0
176
     1
1001
ACAD
1000
AcDbSavedByObjectVersion
1070
     0
  0
VISUALSTYLE
  5
36
102
{ACAD_REACTORS
330
29
102
}
330
29
100
AcDbVisualStyle
  2
Thicken
 70
    13
177
     3
291
     1
 70
    58
 90
        2
176
     1
 90
        2
176
     1
 90
        0
176
     1
 90
        0
176
     1
 40
0.6
176
     1
 40
30.0
176
     1
 62
     7
420
 16777215
176
     1
 90
        1
176
     1
 90
        4
176
     1
 62
     7
176
     1
 62
   257
176
     1
 90
        1
176
     1
 90
        1
176
     1
 40
1.0
176
     1
 90
       12
176
     1
 62
     7
176
     1
 40
1.0
176
     1
 90
        1
176
     1
 90
        6
176
     1
 90
        2
176
     1
 62
     7
176
     1
 90
        5
176
     1
 90
        0
176
     1
 90
        0
176
     1
290
     0
176
     1
 90
        1
176
     1
 40
0.0
176
     1
 90
        0
176
     1
290
     0
176
     1
290
     1
176
     1
290
     1
176
     1
290
     0
176
     1
290
     0
176
     1
290
     0
176
     1
290
     0
176
     1
290
     0
176
     1
290
     0
176
     1
 90
       50
176
     1
 40
0.0
176
     1
 40
1.0
176
     1
 90
        0
176
     1
 62
    18
420
        0
176
     1
 90
       50
176
     1
 90
        3
176
     1
 62
     5
420
      255
176
     1
290
     0
176
     1
 90
       50
176
     1
 90
       50
176
     1
 90
       50
176
     1
290
     0
176
     1
 90
       50
176
     1
 62
   256
176
     0
 40
1.0
176
     0
 90
        2
176
     1
  1
strokes_ogs.tif
176
     1
290
     0
176
     1
 40
1.0
176
     1
 40
1.0
176
     1
1001
ACAD
1000
AcDbSavedByObjectVersion
1070
     0
  0
VISUALSTYLE
  5
30
102
{ACAD_REACTORS
330
29
102
}
330
29
100
AcDbVisualStyle
  2
Wireframe
 70
     5
177
     3
291
     0
 70
    58
 90
        0
176
     1
 90
        2
176
     1
 90
        0
176
     1
 90
        0
176
     1
 40
0.6
176
     1
 40
30.0
176
     1
 62
     7
420
 16777215
176
     1
 90
        1
176
     1
 90
        4
176
     1
 62
     7
176
     1
 62
   257
176
     1
 90
        1
176
     1
 90
        1
176
     1
 40
1.0
176
     1
 90
        0
176
     1
 62
   257
176
     1
 40
1.0
176
     1
 90
        1
176
     1
 90
        6
176
     1
 90
        2
176
     1
 62
     7
176
     1
 90
        3
176
     1
 90
        0
176
     1
 90
        0
176
     1
290
     0
176
     1
 90
        1
176
     1
 40
0.0
176
     1
 90
        0
176
     1
290
     0
176
     1
290
     1
176
     1
290
     1
176
     1
290
     0
176
     1
290
     0
176
     1
290
     0
176
     1
290
     0
176
     1
290
     0
176
     1
290
     0
176
     1
 90
       50
176
     1
 40
0.0
176
     1
 40
1.0
176
     1
 90
        0
176
     1
 62
    18
420
        0
176
     1
 90
       50
176
     1
 90
        3
176
     1
 62
     5
420
      255
176
     1
290
     0
176
     1
 90
       50
176
     1
 90
       50
176
     1
 90
       50
176
     1
290
     0
176
     1
 90
       50
176
     1
 62
   256
176
     0
 40
1.0
176
     0
 90
        2
176
     1
  1
strokes_ogs.tif
176
     1
290
     0
176
     1
 40
1.0
176
     1
 40
1.0
176
     1
1001
ACAD
1000
AcDbSavedByObjectVersion
1070
     0
  0
VISUALSTYLE
  5
3C
102
{ACAD_REACTORS
330
29
102
}
330
29
100
AcDbVisualStyle
  2
X-Ray
 70
    25
177
     3
291
     0
 70
    58
 90
        2
176
     1
 90
        2
176
     1
 90
        1
176
     1
 90
        1
176
     1
 40
0.5
176
     1
 40
30.0
176
     1
 62
     7
420
 16777215
176
     1
 90
        1
176
     1
 90
        0
176
     1
 62
     7
176
     1
 62
   257
176
     1
 90
        1
176
     1
 90
        1
176
     1
 40
1.0
176
     1
 90
        8
176
     1
 62
     7
176
     1
 40
1.0
176
     1
 90
        1
176
     1
 90
        6
176
     1
 90
        2
176
     1
 62
     7
176
     1
 90
        3
176
     1
 90
        0
176
     1
 90
        0
176
     1
290
     0
176
     1
 90
       13
176
     1
 40
0.0
176
     1
 90
        0
176
     1
290
     0
176
     1
290
     1
176
     1
290
     1
176
     1
290
     0
176
     1
290
     0
176
     1
290
     0
176
     1
290
     0
176
     1
290
     0
176
     1
290
     0
176
     1
 90
       50
176
     1
 40
0.0
176
     1
 40
1.0
176
     1
 90
        0
176
     1
 62
    18
420
        0
176
     1
 90
       50
176
     1
 90
        3
176
     1
 62
     5
420
      255
176
     1
290
     0
176
     1
 90
       50
176
     1
 90
       50
176
     1
 90
       50
176
     1
290
     0
176
     1
 90
       50
176
     1
 62
   256
176
     0
 40
1.0
176
     0
 90
        2
176
     1
  1
strokes_ogs.tif
176
     1
290
     0
176
     1
 40
1.0
176
     1
 40
1.0
176
     1
1001
ACAD
1000
AcDbSavedByObjectVersion
1070
     0
  0
DICTIONARYVAR
  5
210
102
{ACAD_REACTORS
330
20B
102
}
330
20B
100
DictionaryVariables
280
     0
  1
1:1
  0
DICTIONARYVAR
  5
20D
102
{ACAD_REACTORS
330
20B
102
}
330
20B
100
DictionaryVariables
280
     0
  1
STANDARD
  0
DICTIONARYVAR
  5
20C
102
{ACAD_REACTORS
330
20B
102
}
330
20B
100
DictionaryVariables
280
     0
  1
STANDARD
  0
DICTIONARYVAR
  5
20E
102
{ACAD_REACTORS
330
20B
102
}
330
20B
100
DictionaryVariables
280
     0
  1
Imperial24
  0
DICTIONARYVAR
  5
20F
102
{ACAD_REACTORS
330
20B
102
}
330
20B
100
DictionaryVariables
280
     0
  1
Imperial24
  0
DICTIONARY
  5
216
330
6B
100
AcDbDictionary
280
     1
281
     1
  3
ACAD_XREC_ROUNDTRIP
360
217
  0
DICTIONARY
  5
1A
330
19
100
AcDbDictionary
280
     1
281
     1
  3
BUMPTILE
360
1C
  3
DIFFUSETILE
360
1B
  3
OPACITYTILE
360
1F
  3
REFLECTIONTILE
360
1E
  3
REFRACTIONTILE
360
20
  3
SPECULARTILE
360
1D
  0
DICTIONARY
  5
12
330
11
100
AcDbDictionary
280
     1
281
     1
  3
BUMPTILE
360
14
  3
DIFFUSETILE
360
13
  3
OPACITYTILE
360
17
  3
REFLECTIONTILE
360
16
  3
REFRACTIONTILE
360
18
  3
SPECULARTILE
360
15
  0
DICTIONARY
  5
22
330
21
100
AcDbDictionary
280
     1
281
     1
  3
BUMPTILE
360
24
  3
DIFFUSETILE
360
23
  3
OPACITYTILE
360
27
  3
REFLECTIONTILE
360
26
  3
REFRACTIONTILE
360
28
  3
SPECULARTILE
360
25
  0
DICTIONARY
  5
214
330
69
100
AcDbDictionary
280
     1
281
     1
  3
ACAD_XREC_ROUNDTRIP
360
215
  0
DICTIONARY
  5
211
330
65
100
AcDbDictionary
280
     1
281
     1
  3
ACAD_ROUNDTRIP_2008_TABLESTYLE_CELLSTYLEMAP
360
212
  0
XRECORD
  5
217
102
{ACAD_REACTORS
330
216
102
}
330
216
100
AcDbXrecord
280
     1
102
DISPLAYNAME
  1
Imperial24
102
FLAGS
 90
        0
  0
XRECORD
  5
1C
102
{ACAD_REACTORS
330
1A
102
}
330
1A
100
AcDbXrecord
280
     1
270
     1
271
     1
  0
XRECORD
  5
1B
102
{ACAD_REACTORS
330
1A
102
}
330
1A
100
AcDbXrecord
280
     1
270
     1
271
     1
  0
XRECORD
  5
1F
102
{ACAD_REACTORS
330
1A
102
}
330
1A
100
AcDbXrecord
280
     1
270
     1
271
     1
  0
XRECORD
  5
1E
102
{ACAD_REACTORS
330
1A
102
}
330
1A
100
AcDbXrecord
280
     1
270
     1
271
     1
  0
XRECORD
  5
20
102
{ACAD_REACTORS
330
1A
102
}
330
1A
100
AcDbXrecord
280
     1
270
     1
271
     1
  0
XRECORD
  5
1D
102
{ACAD_REACTORS
330
1A
102
}
330
1A
100
AcDbXrecord
280
     1
270
     1
271
     1
  0
XRECORD
  5
14
102
{ACAD_REACTORS
330
12
102
}
330
12
100
AcDbXrecord
280
     1
270
     1
271
     1
  0
XRECORD
  5
13
102
{ACAD_REACTORS
330
12
102
}
330
12
100
AcDbXrecord
280
     1
270
     1
271
     1
  0
XRECORD
  5
17
102
{ACAD_REACTORS
330
12
102
}
330
12
100
AcDbXrecord
280
     1
270
     1
271
     1
  0
XRECORD
  5
16
102
{ACAD_REACTORS
330
12
102
}
330
12
100
AcDbXrecord
280
     1
270
     1
271
     1
  0
XRECORD
  5
18
102
{ACAD_REACTORS
330
12
102
}
330
12
100
AcDbXrecord
280
     1
270
     1
271
     1
  0
XRECORD
  5
15
102
{ACAD_REACTORS
330
12
102
}
330
12
100
AcDbXrecord
280
     1
270
     1
271
     1
  0
XRECORD
  5
24
102
{ACAD_REACTORS
330
22
102
}
330
22
100
AcDbXrecord
280
     1
270
     1
271
     1
  0
XRECORD
  5
23
102
{ACAD_REACTORS
330
22
102
}
330
22
100
AcDbXrecord
280
     1
270
     1
271
     1
  0
XRECORD
  5
27
102
{ACAD_REACTORS
330
22
102
}
330
22
100
AcDbXrecord
280
     1
270
     1
271
     1
  0
XRECORD
  5
26
102
{ACAD_REACTORS
330
22
102
}
330
22
100
AcDbXrecord
280
     1
270
     1
271
     1
  0
XRECORD
  5
28
102
{ACAD_REACTORS
330
22
102
}
330
22
100
AcDbXrecord
280
     1
270
     1
271
     1
  0
XRECORD
  5
25
102
{ACAD_REACTORS
330
22
102
}
330
22
100
AcDbXrecord
280
     1
270
     1
271
     1
  0
XRECORD
  5
215
102
{ACAD_REACTORS
330
214
102
}
330
214
100
AcDbXrecord
280
     1
102
DISPLAYNAME
  1
Imperial24
102
FLAGS
 90
        0
  0
CELLSTYLEMAP
  5
212
102
{ACAD_REACTORS
330
211
102
}
330
211
100
AcDbCellStyleMap
 90
        3
300
CELLSTYLE
  1
TABLEFORMAT_BEGIN
 90
        5
170
     1
 91
        0
 92
    32768
 62
   257
 93
        1
300
CONTENTFORMAT
  1
CONTENTFORMAT_BEGIN
 90
        0
 91
        0
 92
      512
 93
        0
300

 40
0.0
140
1.0
 94
        5
 62
     0
340
55
144
0.25
309
CONTENTFORMAT_END
171
     0
 94
        0
309
TABLEFORMAT_END
  1
CELLSTYLE_BEGIN
 90
        1
 91
        1
300
_TITLE
309
CELLSTYLE_END
300
CELLSTYLE
  1
TABLEFORMAT_BEGIN
 90
        5
170
     1
 91
        0
 92
        0
 62
   257
 93
        1
300
CONTENTFORMAT
  1
CONTENTFORMAT_BEGIN
 90
        0
 91
        0
 92
      512
 93
        0
300

 40
0.0
140
1.0
 94
        5
 62
     0
340
55
144
0.18
309
CONTENTFORMAT_END
171
     0
 94
        0
309
TABLEFORMAT_END
  1
CELLSTYLE_BEGIN
 90
        2
 91
        1
300
_HEADER
309
CELLSTYLE_END
300
CELLSTYLE
  1
TABLEFORMAT_BEGIN
 90
        5
170
     1
 91
        0
 92
        0
 62
   257
 93
        1
300
CONTENTFORMAT
  1
CONTENTFORMAT_BEGIN
 90
        0
 91
        0
 92
      512
 93
        0
300

 40
0.0
140
1.0
 94
        2
 62
     0
340
55
144
0.18
309
CONTENTFORMAT_END
171
     0
 94
        0
309
TABLEFORMAT_END
  1
CELLSTYLE_BEGIN
 90
        3
 91
        2
300
_DATA
309
CELLSTYLE_END
  0
ENDSEC
  0
EOF
