<svg id="switch_plate" data-name="switch plate" xmlns="http://www.w3.org/2000/svg" width="71.4mm" height="92.45mm" viewBox="0 0 202.39 262.06"><defs><style>.cls-1{fill:none;stroke:#040000;stroke-linecap:round;stroke-linejoin:round;stroke-width:0.71px;}</style></defs><g id="スイッチの穴"><g id="ARC"><rect class="cls-1" x="0.35" y="0.35" width="39.69" height="39.69" rx="1.42"/><rect class="cls-1" x="54.35" y="0.35" width="39.69" height="39.69" rx="1.42"/><rect class="cls-1" x="108.35" y="0.35" width="39.69" height="39.69" rx="1.42"/><rect class="cls-1" x="156.69" y="233.12" width="42.52" height="19.84" rx="1.42"/><rect class="cls-1" x="162.35" y="189.35" width="39.69" height="39.69" rx="1.42"/><rect class="cls-1" x="156.69" y="165.44" width="42.52" height="19.84" rx="1.42"/><rect class="cls-1" x="156.69" y="125.12" width="42.52" height="19.84" rx="1.42"/><rect class="cls-1" x="162.35" y="81.35" width="39.69" height="39.69" rx="1.42"/><rect class="cls-1" x="156.69" y="57.44" width="42.52" height="19.84" rx="1.42"/><rect class="cls-1" x="162.35" y="0.35" width="39.69" height="39.69" rx="1.42"/><rect class="cls-1" x="108.35" y="54.35" width="39.69" height="39.69" rx="1.42"/><rect class="cls-1" x="108.35" y="108.35" width="39.69" height="39.69" rx="1.42"/><rect class="cls-1" x="54.35" y="108.35" width="39.69" height="39.69" rx="1.42"/><rect class="cls-1" x="54.35" y="54.35" width="39.69" height="39.69" rx="1.42"/><rect class="cls-1" x="0.35" y="54.35" width="39.69" height="39.69" rx="1.42"/><rect class="cls-1" x="0.35" y="162.35" width="39.69" height="39.69" rx="1.42"/><rect class="cls-1" x="54.35" y="162.35" width="39.69" height="39.69" rx="1.42"/><rect class="cls-1" x="108.35" y="162.35" width="39.69" height="39.69" rx="1.42"/><rect class="cls-1" x="108.35" y="216.35" width="39.69" height="39.69" rx="1.42"/><rect class="cls-1" x="71.12" y="219.19" width="19.84" height="42.52" rx="1.42"/><rect class="cls-1" x="27.36" y="216.35" width="39.69" height="39.69" rx="1.42"/><rect class="cls-1" x="3.44" y="219.19" width="19.84" height="42.52" rx="1.42"/></g></g><rect class="cls-1" x="0.35" y="108.35" width="39.69" height="39.69" rx="1.42"/></svg>