<svg id="switch_plate" data-name="switch plate" xmlns="http://www.w3.org/2000/svg" width="80.26mm" height="99.31mm" viewBox="0 0 227.51 281.51"><defs><style>.cls-1{fill:none;stroke:#040000;stroke-linecap:round;stroke-linejoin:round;stroke-width:0.71px;}</style></defs><g id="スイッチの穴"><g id="ARC"><rect class="cls-1" x="12.91" y="12.91" width="39.69" height="39.69" rx="1.42"/><rect class="cls-1" x="66.91" y="12.91" width="39.69" height="39.69" rx="1.42"/><rect class="cls-1" x="120.91" y="12.91" width="39.69" height="39.69" rx="1.42"/><rect class="cls-1" x="169.24" y="245.67" width="42.52" height="19.84" rx="1.42"/><rect class="cls-1" x="174.91" y="201.91" width="39.69" height="39.69" rx="1.42"/><rect class="cls-1" x="169.24" y="177.99" width="42.52" height="19.84" rx="1.42"/><rect class="cls-1" x="169.24" y="137.67" width="42.52" height="19.84" rx="1.42"/><rect class="cls-1" x="174.91" y="93.91" width="39.69" height="39.69" rx="1.42"/><rect class="cls-1" x="169.24" y="69.99" width="42.52" height="19.84" rx="1.42"/><rect class="cls-1" x="174.91" y="12.91" width="39.69" height="39.69" rx="1.42"/><rect class="cls-1" x="120.91" y="66.91" width="39.69" height="39.69" rx="1.42"/><rect class="cls-1" x="120.91" y="120.91" width="39.69" height="39.69" rx="1.42"/><rect class="cls-1" x="66.91" y="120.91" width="39.69" height="39.69" rx="1.42"/><rect class="cls-1" x="66.91" y="66.91" width="39.69" height="39.69" rx="1.42"/><rect class="cls-1" x="12.91" y="66.91" width="39.69" height="39.69" rx="1.42"/><rect class="cls-1" x="12.91" y="174.91" width="39.69" height="39.69" rx="1.42"/><rect class="cls-1" x="66.91" y="174.91" width="39.69" height="39.69" rx="1.42"/><rect class="cls-1" x="120.91" y="174.91" width="39.69" height="39.69" rx="1.42"/><rect class="cls-1" x="120.91" y="228.91" width="39.69" height="39.69" rx="1.42"/><rect class="cls-1" x="83.67" y="231.74" width="19.84" height="42.52" rx="1.42"/><rect class="cls-1" x="39.91" y="228.91" width="39.69" height="39.69" rx="1.42"/><rect class="cls-1" x="15.99" y="231.75" width="19.84" height="42.52" rx="1.42"/></g></g><path id="外形" class="cls-1" d="M307.28,159.78h0a2.7,2.7,0,0,1,2.7-2.7h221.4a2.7,2.7,0,0,1,2.7,2.7v275.4a2.7,2.7,0,0,1-2.7,2.7H310a2.7,2.7,0,0,1-2.7-2.7Z" transform="translate(-306.92 -156.73)"/><rect class="cls-1" x="12.91" y="120.91" width="39.69" height="39.69" rx="1.42"/></svg>